<svg xmlns="http://www.w3.org/2000/svg" xmlns:xlink="http://www.w3.org/1999/xlink" width="500" zoomAndPan="magnify" viewBox="0 0 375 189.750001" height="253" preserveAspectRatio="xMidYMid meet" version="1.0"><defs><clipPath id="1e9eeaf148"><path d="M 100 89 L 266 89 L 266 183.503906 L 100 183.503906 Z M 100 89 " clip-rule="nonzero"/></clipPath><clipPath id="5fc9a0464e"><path d="M 296 38.648438 L 373.984375 38.648438 L 373.984375 94 L 296 94 Z M 296 38.648438 " clip-rule="nonzero"/></clipPath><clipPath id="b78d414558"><path d="M 292.652344 98 L 299 98 L 299 110 L 292.652344 110 Z M 292.652344 98 " clip-rule="nonzero"/></clipPath><clipPath id="4497079b3d"><path d="M 0.246094 49 L 53 49 L 53 55 L 0.246094 55 Z M 0.246094 49 " clip-rule="nonzero"/></clipPath></defs><g clip-path="url(#1e9eeaf148)"><path fill="#efefef" d="M 187.195312 100.691406 C 185.460938 104.226562 185.183594 107.84375 185.171875 109.679688 C 185.144531 114.1875 186.4375 116.945312 187.011719 116.953125 C 187.261719 116.953125 188.214844 115.792969 188.351562 110.082031 C 188.441406 106.4375 188.050781 103.300781 187.195312 100.691406 Z M 189.421875 129.511719 C 189.667969 131.894531 189.664062 135.003906 189.484375 138.039062 C 217.964844 137.953125 242.308594 137.316406 246.472656 136.566406 C 242.828125 132.972656 236.566406 127.363281 233.925781 126.898438 C 230.507812 126.296875 195.964844 125.46875 191.789062 125.738281 C 190.953125 125.792969 190.070312 127.222656 189.421875 129.511719 Z M 188.601562 134.015625 C 188.476562 135.273438 188.410156 136.625 188.429688 138.042969 C 188.4375 138.042969 188.445312 138.042969 188.457031 138.042969 C 188.539062 136.691406 188.589844 135.324219 188.601562 134.015625 Z M 128.832031 136.289062 C 131.675781 137.414062 154.84375 138.117188 187.445312 138.046875 C 187.410156 135.035156 187.753906 131.914062 188.421875 129.449219 C 188.304688 128.339844 188.125 127.414062 187.871094 126.777344 C 187.683594 126.308594 187.46875 126.03125 187.289062 126.03125 C 185.90625 126.03125 177.898438 126.25 168.625 126.5 C 156.519531 126.824219 142.800781 127.199219 139.695312 127.199219 C 136.8125 127.199219 131.492188 132.101562 128.832031 136.289062 Z M 188.96875 143.363281 C 189.640625 146.515625 190.976562 148.980469 193.226562 149.039062 C 199.769531 149.203125 234.238281 149.089844 244.644531 149.046875 C 245.875 149.042969 246.898438 148.078125 246.972656 146.851562 C 247.160156 143.921875 247.421875 140.480469 247.792969 136.964844 C 247.773438 137.019531 247.742188 137.074219 247.699219 137.121094 C 247.441406 137.421875 246.964844 137.980469 228.636719 138.492188 C 217.960938 138.789062 203.703125 138.984375 189.417969 139.027344 C 189.308594 140.546875 189.15625 142.023438 188.96875 143.363281 Z M 152.160156 163.15625 C 169.691406 163.878906 214.367188 165.429688 241.792969 163.765625 C 241.160156 163.109375 240.433594 162.714844 239.605469 162.648438 C 202.980469 159.785156 167.167969 161.957031 152.160156 163.15625 Z M 239.5 166.828125 C 239.308594 166.828125 239.132812 166.917969 239.019531 167.074219 C 238.90625 167.230469 238.878906 167.425781 238.941406 167.605469 L 243.246094 180.441406 C 243.332031 180.695312 243.582031 180.863281 243.84375 180.84375 L 244.914062 180.769531 C 245.226562 180.75 245.46875 180.488281 245.46875 180.175781 C 245.425781 175.335938 244.871094 170.265625 243.566406 166.828125 Z M 124.5 163.523438 C 126.699219 164.398438 129.003906 164.746094 130.34375 164.882812 C 130.773438 164.929688 131.167969 165.148438 131.433594 165.492188 C 131.695312 165.835938 131.804688 166.277344 131.738281 166.707031 L 129.214844 182.25 C 129.1875 182.425781 129.234375 182.59375 129.351562 182.726562 C 129.464844 182.863281 129.625 182.9375 129.800781 182.9375 L 131.746094 182.9375 C 132.019531 182.9375 132.257812 182.75 132.320312 182.480469 L 136.574219 164.25 C 136.617188 164.074219 136.574219 163.890625 136.460938 163.75 C 136.347656 163.605469 136.179688 163.523438 135.996094 163.523438 Z M 101.425781 162.539062 L 120.796875 162.539062 C 119.867188 161.785156 119.082031 160.863281 118.558594 159.742188 C 116.222656 154.726562 105.996094 123.808594 110.132812 116.808594 C 110.707031 115.835938 111.523438 115.308594 112.5625 115.238281 C 117.730469 114.878906 120.414062 124.464844 123.019531 133.726562 C 124.941406 140.570312 126.933594 147.644531 129.632812 149.097656 C 132.355469 150.558594 144.15625 151.238281 159.703125 150.832031 C 175.1875 150.425781 185.804688 149.199219 186.757812 148.296875 C 187.171875 147.90625 187.609375 145.957031 187.953125 143.359375 C 187.691406 142.078125 187.527344 140.628906 187.46875 139.03125 C 172.613281 139.0625 130.785156 138.960938 128.035156 136.972656 C 127.664062 136.703125 127.65625 136.320312 127.8125 136.0625 C 130.320312 131.949219 136.054688 126.210938 139.695312 126.210938 C 142.785156 126.210938 156.5 125.839844 168.597656 125.515625 C 177.878906 125.261719 185.894531 125.046875 187.289062 125.046875 C 187.921875 125.046875 188.425781 125.503906 188.785156 126.410156 C 188.90625 126.710938 189.007812 127.0625 189.101562 127.464844 C 189.785156 125.859375 190.671875 124.824219 191.726562 124.753906 C 195.917969 124.484375 230.652344 125.320312 234.097656 125.929688 C 237.800781 126.582031 246.667969 135.359375 247.667969 136.359375 C 247.753906 136.449219 247.808594 136.554688 247.828125 136.664062 C 248.929688 126.445312 250.957031 115.722656 254.636719 115.238281 C 255.242188 115.160156 255.519531 114.996094 255.519531 114.871094 C 255.539062 113.625 249.265625 109.769531 244.714844 109.027344 C 243.554688 108.839844 242.523438 109.097656 241.5625 109.8125 C 238.136719 112.371094 236.835938 119.949219 236.433594 123.089844 C 236.277344 124.324219 235.179688 125.199219 233.933594 125.082031 C 228.664062 124.574219 213.703125 123.394531 188.703125 123.394531 C 164.046875 123.394531 145.558594 124.660156 140.480469 125.050781 C 139.484375 125.125 138.601562 124.441406 138.425781 123.460938 C 137.90625 120.570312 135.761719 111 130.015625 109.007812 C 128.550781 108.5 126 109.253906 123.414062 110.386719 C 120.113281 113.816406 115.941406 114.457031 115.871094 114.46875 C 115.640625 114.5 115.421875 114.371094 115.339844 114.15625 C 115.257812 113.9375 115.339844 113.695312 115.53125 113.570312 C 115.777344 113.40625 119.246094 111.136719 122.949219 109.507812 C 124.851562 107.40625 126.382812 104.21875 126.382812 99.410156 C 126.382812 96.960938 127.214844 94.9375 128.855469 93.398438 C 133.945312 88.613281 145.785156 89.359375 154.425781 89.902344 C 156.769531 90.046875 158.792969 90.175781 160.386719 90.175781 C 161.570312 90.175781 162.953125 90.09375 164.417969 90.007812 C 170.640625 89.648438 179.15625 89.152344 184.433594 94.25 C 185.625 95.398438 186.601562 96.792969 187.359375 98.425781 C 187.652344 97.976562 187.972656 97.535156 188.320312 97.101562 C 191.851562 92.722656 197.289062 90.488281 204.480469 90.46875 C 208.511719 90.453125 212.316406 90.398438 215.675781 90.34375 C 236.570312 90.023438 247.058594 89.863281 248.101562 101.503906 C 248.742188 108.660156 251.90625 109.554688 255.570312 110.585938 C 258.355469 111.371094 261.234375 112.183594 263.101562 115.792969 C 266.527344 122.402344 261.246094 147.75 255.34375 158.675781 C 253.492188 162.105469 251.691406 163.929688 249.992188 164.105469 C 248.023438 164.308594 245.90625 164.480469 243.65625 164.636719 C 243.867188 165.011719 244.066406 165.414062 244.25 165.839844 L 265.179688 165.839844 C 265.191406 165.839844 265.207031 165.84375 265.21875 165.84375 C 265.320312 165.851562 265.828125 166.875 265.164062 166.828125 L 244.636719 166.828125 C 246.144531 171.082031 246.425781 176.925781 246.453125 180.167969 C 246.460938 181 245.8125 181.699219 244.980469 181.753906 L 243.910156 181.824219 C 243.195312 181.867188 242.539062 181.433594 242.3125 180.753906 L 238.003906 167.921875 C 237.84375 167.433594 237.921875 166.914062 238.21875 166.5 C 238.519531 166.082031 238.988281 165.839844 239.5 165.839844 L 243.152344 165.839844 C 242.957031 165.429688 242.75 165.050781 242.527344 164.710938 C 208.078125 166.882812 145.402344 163.847656 144.722656 163.816406 C 144.464844 163.800781 144.261719 163.59375 144.253906 163.335938 C 144.246094 163.078125 144.4375 162.859375 144.695312 162.832031 C 145.160156 162.785156 191.722656 157.917969 239.683594 161.667969 C 241.058594 161.773438 242.160156 162.527344 243.035156 163.6875 C 245.480469 163.527344 247.777344 163.339844 249.890625 163.125 C 250.824219 163.027344 252.378906 162.097656 254.476562 158.210938 C 260.199219 147.621094 265.449219 122.46875 262.226562 116.246094 C 260.554688 113.015625 258.003906 112.296875 255.304688 111.535156 C 251.625 110.496094 247.820312 109.425781 247.117188 101.589844 C 246.15625 90.863281 236.609375 91.011719 215.691406 91.332031 C 212.332031 91.382812 208.523438 91.441406 204.484375 91.453125 C 195.179688 91.480469 190.335938 95.289062 187.824219 99.523438 C 188.929688 102.40625 189.4375 105.945312 189.335938 110.105469 C 189.210938 115.324219 188.421875 117.960938 186.996094 117.941406 C 185.230469 117.914062 184.164062 113.628906 184.1875 109.671875 C 184.199219 107.355469 184.585938 103.289062 186.734375 99.453125 C 185.992188 97.664062 184.996094 96.164062 183.75 94.957031 C 178.785156 90.160156 170.851562 90.621094 164.476562 90.992188 C 162.996094 91.078125 161.597656 91.160156 160.386719 91.160156 C 158.761719 91.160156 156.722656 91.035156 154.363281 90.886719 C 145.902344 90.351562 134.3125 89.625 129.527344 94.117188 C 128.074219 95.480469 127.367188 97.214844 127.367188 99.410156 C 127.367188 103.566406 126.253906 106.59375 124.71875 108.792969 C 126.871094 108.007812 128.9375 107.589844 130.339844 108.074219 C 136.417969 110.183594 138.695312 119.414062 139.394531 123.285156 C 139.480469 123.769531 139.917969 124.105469 140.40625 124.066406 C 145.492188 123.679688 164.011719 122.410156 188.703125 122.410156 C 213.746094 122.410156 228.742188 123.59375 234.027344 124.101562 C 234.746094 124.167969 235.367188 123.667969 235.457031 122.960938 C 235.972656 118.910156 237.378906 111.707031 240.972656 109.023438 C 242.144531 108.148438 243.457031 107.824219 244.871094 108.054688 C 248.941406 108.714844 256.542969 112.570312 256.507812 114.886719 C 256.5 115.390625 256.1875 116.03125 254.765625 116.21875 C 251.730469 116.617188 249.121094 128.375 247.957031 146.910156 C 247.847656 148.65625 246.394531 150.027344 244.648438 150.035156 C 234.238281 150.074219 199.757812 150.1875 193.203125 150.023438 C 191.160156 149.972656 189.574219 148.429688 188.585938 145.6875 C 188.25 147.390625 187.855469 148.617188 187.433594 149.015625 C 185.648438 150.703125 168.53125 151.585938 159.726562 151.816406 C 147.230469 152.144531 132.640625 151.832031 129.167969 149.964844 C 126.097656 148.316406 124.140625 141.359375 122.070312 133.992188 C 119.6875 125.523438 116.992188 115.921875 112.628906 116.21875 C 111.925781 116.269531 111.386719 116.625 110.980469 117.3125 C 107.09375 123.894531 117.234375 154.5625 119.453125 159.328125 C 120.09375 160.707031 121.207031 161.75 122.5 162.539062 L 135.996094 162.539062 C 136.480469 162.539062 136.933594 162.757812 137.234375 163.136719 C 137.535156 163.515625 137.644531 164.003906 137.535156 164.476562 L 133.28125 182.703125 C 133.113281 183.421875 132.480469 183.921875 131.746094 183.921875 L 129.800781 183.921875 C 129.335938 183.921875 128.898438 183.71875 128.597656 183.367188 C 128.296875 183.015625 128.167969 182.550781 128.242188 182.09375 L 130.765625 166.546875 C 130.789062 166.382812 130.75 166.222656 130.648438 166.089844 C 130.550781 165.960938 130.40625 165.882812 130.246094 165.863281 C 128.453125 165.679688 125.035156 165.132812 122.242188 163.523438 L 101.425781 163.523438 C 100.054688 163.523438 99.683594 162.539062 101.425781 162.539062 " fill-opacity="1" fill-rule="nonzero"/></g><path fill="#efefef" d="M 339.449219 44.109375 C 342.589844 44.050781 345.761719 44.738281 348.972656 46.179688 C 355.0625 49.035156 358.84375 53 360.3125 58.078125 L 360.3125 58.082031 C 361.578125 62.34375 360.21875 67.371094 356.234375 73.164062 C 352.632812 77.996094 347.957031 81.269531 342.203125 82.980469 L 342.195312 82.980469 C 340.46875 83.382812 338.75 83.601562 337.039062 83.632812 C 332.875 83.710938 328.769531 82.6875 324.722656 80.570312 C 319.546875 77.773438 316.503906 73.855469 315.601562 68.808594 L 315.597656 68.808594 C 314.894531 63.792969 316.257812 59.210938 319.695312 55.054688 L 319.691406 55.054688 C 325.199219 49.273438 330.605469 45.78125 335.90625 44.582031 C 336.019531 44.554688 336.121094 44.507812 336.207031 44.441406 L 336.183594 44.441406 C 337.269531 44.238281 338.359375 44.128906 339.449219 44.109375 Z M 339.429688 42.570312 C 337.003906 42.617188 334.597656 43.078125 332.210938 43.957031 C 332.035156 44.023438 331.894531 44.144531 331.808594 44.296875 L 331.789062 44.296875 C 327.421875 46.105469 323.019531 49.339844 318.582031 54 L 318.546875 54.039062 C 314.800781 58.550781 313.3125 63.542969 314.082031 69.023438 L 314.085938 69.050781 C 315.070312 74.59375 318.375 78.882812 323.992188 81.917969 L 324 81.921875 C 328.285156 84.167969 332.636719 85.25 337.058594 85.167969 C 338.890625 85.132812 340.738281 84.898438 342.59375 84.460938 L 342.640625 84.449219 C 348.730469 82.640625 353.675781 79.175781 357.480469 74.054688 L 357.5 74.03125 C 361.757812 67.839844 363.1875 62.378906 361.785156 57.648438 C 360.183594 52.128906 356.125 47.839844 349.609375 44.785156 L 349.601562 44.78125 C 346.175781 43.246094 342.785156 42.507812 339.429688 42.570312 Z M 339.429688 42.570312 " fill-opacity="1" fill-rule="nonzero"/><path fill="#efefef" d="M 331.804688 75.023438 C 331.539062 75.03125 331.285156 75.171875 331.148438 75.421875 C 330.941406 75.789062 331.074219 76.257812 331.445312 76.460938 C 333.632812 77.671875 336.136719 78.253906 338.953125 78.203125 C 338.960938 78.203125 338.972656 78.203125 338.980469 78.203125 C 340.53125 78.175781 342.117188 77.988281 343.734375 77.644531 C 345.460938 77.296875 347.066406 76.835938 348.546875 76.261719 C 348.941406 76.109375 349.136719 75.664062 348.984375 75.269531 C 348.863281 74.964844 348.566406 74.777344 348.253906 74.78125 C 348.167969 74.785156 348.078125 74.800781 347.992188 74.832031 C 346.59375 75.375 345.074219 75.8125 343.433594 76.140625 L 343.425781 76.144531 C 341.898438 76.46875 340.410156 76.644531 338.949219 76.671875 C 338.941406 76.671875 338.933594 76.671875 338.925781 76.671875 C 336.382812 76.714844 334.136719 76.199219 332.1875 75.121094 C 332.066406 75.054688 331.933594 75.023438 331.804688 75.023438 Z M 331.804688 75.023438 " fill-opacity="1" fill-rule="nonzero"/><path fill="#efefef" d="M 350.710938 46.558594 C 350.648438 46.5625 350.585938 46.570312 350.527344 46.585938 C 346.777344 47.578125 342.152344 48.726562 336.65625 50.03125 L 336.644531 50.035156 L 336.628906 50.039062 C 334.945312 50.476562 333.855469 50.832031 333.359375 51.105469 C 333.273438 51.15625 333.195312 51.207031 333.125 51.257812 C 333.105469 51.273438 333.085938 51.289062 333.066406 51.304688 C 332.523438 51.753906 332.457031 52.25 332.863281 52.789062 C 332.910156 52.851562 332.96875 52.90625 333.03125 52.953125 C 334.421875 53.9375 335.175781 54.664062 335.300781 55.132812 L 335.292969 55.132812 C 335.285156 55.269531 335.089844 55.382812 334.710938 55.472656 C 332.800781 55.878906 330.429688 56.109375 327.601562 56.164062 C 327.152344 56.171875 326.691406 56.175781 326.214844 56.175781 L 326.203125 56.175781 C 323.574219 56.214844 321.007812 55.957031 318.503906 55.394531 C 318.441406 55.382812 318.382812 55.375 318.320312 55.378906 C 317.976562 55.382812 317.667969 55.625 317.589844 55.976562 C 317.496094 56.390625 317.757812 56.800781 318.167969 56.890625 C 320.792969 57.476562 323.476562 57.75 326.226562 57.707031 L 326.21875 57.707031 C 326.699219 57.707031 327.167969 57.703125 327.628906 57.695312 C 330.566406 57.640625 333.042969 57.398438 335.050781 56.96875 L 335.074219 56.964844 C 336.445312 56.632812 337.019531 55.90625 336.792969 54.785156 L 336.78125 54.746094 C 336.597656 54.039062 335.878906 53.199219 334.628906 52.230469 L 334.609375 52.230469 C 335.125 52.042969 335.921875 51.804688 337.007812 51.523438 C 342.519531 50.214844 347.15625 49.0625 350.917969 48.066406 C 351.328125 47.960938 351.570312 47.539062 351.464844 47.128906 C 351.371094 46.78125 351.054688 46.554688 350.710938 46.558594 Z M 350.710938 46.558594 " fill-opacity="1" fill-rule="nonzero"/><g clip-path="url(#5fc9a0464e)"><path fill="#efefef" d="M 342.128906 38.925781 C 339.300781 38.976562 336.34375 39.3125 333.25 39.933594 L 333.242188 39.933594 C 321.070312 42.460938 311.945312 48.285156 305.871094 57.402344 L 305.855469 57.429688 C 303.25 61.695312 302.285156 65.332031 302.953125 68.34375 L 302.945312 68.34375 C 303.21875 71.542969 305.480469 76.726562 309.722656 83.898438 L 309.710938 83.898438 C 310.1875 85.152344 310.378906 86.277344 310.28125 87.265625 L 310.28125 87.292969 C 310.109375 90.066406 307.882812 91.660156 303.601562 92.078125 C 300.3125 91.796875 298.578125 90.558594 298.398438 88.367188 L 298.421875 88.363281 C 298.671875 86.925781 299.746094 85.921875 301.648438 85.34375 L 301.628906 85.34375 C 301.734375 85.335938 301.832031 85.328125 301.929688 85.328125 C 302.066406 85.324219 302.191406 85.332031 302.308594 85.347656 C 303.058594 85.441406 303.355469 86.089844 303.203125 87.28125 C 303.148438 87.703125 303.445312 88.085938 303.867188 88.140625 C 303.902344 88.144531 303.941406 88.148438 303.976562 88.148438 C 304.351562 88.140625 304.675781 87.859375 304.722656 87.480469 C 305.007812 85.269531 304.269531 84.050781 302.503906 83.824219 C 302.316406 83.800781 302.113281 83.789062 301.898438 83.792969 C 301.75 83.796875 301.589844 83.808594 301.429688 83.824219 L 301.292969 83.851562 C 298.632812 84.632812 297.160156 86.125 296.875 88.328125 L 296.871094 88.488281 C 297.121094 91.566406 299.34375 93.273438 303.542969 93.613281 L 303.679688 93.613281 C 308.863281 93.125 311.570312 91.058594 311.808594 87.414062 C 311.929688 86.152344 311.691406 84.757812 311.09375 83.230469 L 311.042969 83.117188 C 306.871094 76.070312 304.679688 71.070312 304.464844 68.121094 L 304.449219 68.011719 C 303.871094 65.410156 304.769531 62.15625 307.148438 58.253906 L 307.144531 58.253906 C 312.988281 49.484375 321.789062 43.878906 333.550781 41.4375 C 336.542969 40.835938 339.40625 40.511719 342.136719 40.460938 C 350.097656 40.3125 356.933594 42.496094 362.644531 47.011719 L 362.636719 47.011719 C 365.082031 49.597656 366.242188 52.769531 366.117188 56.535156 L 366.117188 56.628906 C 366.339844 59.042969 365.257812 64.816406 362.871094 73.953125 L 362.851562 74.046875 C 362.589844 76.039062 362.683594 77.53125 363.136719 78.519531 C 364.023438 80.464844 365.554688 81.417969 367.734375 81.378906 C 368.523438 81.363281 369.402344 81.21875 370.367188 80.941406 L 370.4375 80.917969 C 373.316406 79.773438 374.652344 77.585938 374.445312 74.351562 L 374.425781 74.222656 C 373.75 71.371094 371.898438 69.894531 368.871094 69.789062 L 368.789062 69.789062 C 366.847656 69.929688 365.9375 70.773438 366.046875 72.324219 C 366.105469 73.109375 366.488281 74.066406 367.203125 75.207031 C 367.351562 75.441406 367.605469 75.570312 367.867188 75.5625 C 368 75.5625 368.136719 75.523438 368.257812 75.449219 C 368.617188 75.222656 368.726562 74.75 368.5 74.390625 C 367.921875 73.46875 367.613281 72.742188 367.578125 72.214844 C 367.539062 71.695312 367.960938 71.398438 368.847656 71.324219 L 368.867188 71.324219 C 371.089844 71.417969 372.445312 72.5 372.933594 74.578125 L 372.921875 74.578125 C 373.039062 77 372.023438 78.636719 369.871094 79.492188 L 369.855469 79.492188 C 369.101562 79.703125 368.421875 79.8125 367.8125 79.824219 C 366.226562 79.855469 365.132812 79.207031 364.53125 77.882812 L 364.53125 77.878906 C 364.207031 77.171875 364.148438 75.992188 364.359375 74.339844 L 364.351562 74.339844 C 366.757812 65.144531 367.855469 59.226562 367.652344 56.585938 L 367.648438 56.585938 C 367.789062 52.355469 366.464844 48.789062 363.671875 45.878906 L 363.597656 45.808594 C 357.59375 41.0625 350.441406 38.769531 342.128906 38.925781 Z M 342.128906 38.925781 " fill-opacity="1" fill-rule="nonzero"/></g><path fill="#efefef" d="M 343.191406 82.558594 C 342.796875 82.566406 342.464844 82.875 342.441406 83.277344 C 342.160156 87.882812 342.984375 92.992188 344.910156 98.601562 C 346.101562 102.761719 349.5 110.082031 355.105469 120.566406 L 355.101562 120.566406 C 355.910156 122.472656 356.375 124.136719 356.503906 125.550781 L 356.503906 125.554688 C 356.660156 127.121094 356.199219 128.21875 355.128906 128.851562 L 355.125 128.851562 C 353.773438 129.660156 351.105469 130.257812 347.121094 130.648438 C 344.144531 130.902344 341.226562 131.054688 338.375 131.109375 C 333.925781 131.191406 329.632812 131.03125 325.488281 130.625 L 325.484375 130.625 C 321.507812 130.078125 319.292969 128.914062 318.832031 127.128906 L 318.8125 127.0625 C 318.347656 125.757812 318.6875 123.46875 319.832031 120.191406 C 322.144531 113.761719 325.335938 105.609375 329.414062 95.730469 L 329.433594 95.6875 L 333.289062 84.53125 C 333.425781 84.128906 333.214844 83.695312 332.8125 83.554688 C 332.726562 83.527344 332.636719 83.511719 332.546875 83.515625 C 332.238281 83.519531 331.945312 83.71875 331.839844 84.03125 L 327.984375 95.1875 L 327.980469 95.1875 C 323.902344 105.066406 320.707031 113.230469 318.390625 119.675781 L 318.386719 119.679688 C 317.121094 123.300781 316.78125 125.933594 317.367188 127.578125 C 318.027344 129.988281 320.664062 131.507812 325.273438 132.144531 L 325.304688 132.148438 C 329.515625 132.5625 333.882812 132.726562 338.402344 132.640625 C 341.292969 132.585938 344.246094 132.429688 347.261719 132.175781 L 347.273438 132.171875 C 351.476562 131.761719 354.355469 131.09375 355.910156 130.171875 C 357.539062 129.210938 358.246094 127.621094 358.03125 125.410156 C 357.886719 123.820312 357.371094 121.984375 356.484375 119.90625 L 356.457031 119.84375 C 350.886719 109.421875 347.523438 102.1875 346.371094 98.140625 L 346.359375 98.101562 C 344.5 92.683594 343.703125 87.773438 343.972656 83.371094 C 343.996094 82.949219 343.675781 82.585938 343.253906 82.558594 C 343.230469 82.558594 343.210938 82.558594 343.191406 82.558594 Z M 343.191406 82.558594 " fill-opacity="1" fill-rule="nonzero"/><path fill="#efefef" d="M 301.847656 110.273438 C 301.699219 110.390625 301.597656 110.5625 301.570312 110.746094 L 301.550781 110.746094 C 301.5625 110.539062 301.65625 110.378906 301.824219 110.273438 Z M 331.808594 85 C 331.585938 85.003906 331.371094 85.105469 331.222656 85.289062 C 330.523438 86.167969 329.792969 86.964844 329.039062 87.6875 L 329.035156 87.691406 C 322.863281 93.355469 318.882812 97.140625 317.097656 99.046875 L 317.09375 99.046875 C 313.6875 102.539062 310.167969 106.46875 306.539062 110.839844 C 306.136719 111.273438 305.800781 111.546875 305.527344 111.65625 L 305.460938 111.6875 C 305.371094 111.734375 305.269531 111.757812 305.15625 111.757812 C 304.632812 111.769531 303.867188 111.289062 302.855469 110.320312 C 302.792969 110.261719 302.726562 110.210938 302.652344 110.175781 L 302.628906 110.179688 C 301.984375 109.574219 299.355469 106.5 294.738281 100.953125 C 294.582031 100.765625 294.359375 100.671875 294.136719 100.675781 C 293.96875 100.679688 293.800781 100.738281 293.660156 100.851562 C 293.335938 101.125 293.289062 101.605469 293.5625 101.933594 C 298.488281 107.855469 301.226562 111.027344 301.765625 111.457031 C 301.84375 111.515625 301.921875 111.5625 302 111.597656 L 301.980469 111.597656 C 303.210938 112.742188 304.296875 113.300781 305.230469 113.285156 C 305.539062 113.277344 305.832031 113.210938 306.105469 113.078125 L 306.101562 113.078125 C 306.59375 112.878906 307.125 112.46875 307.695312 111.847656 L 307.71875 111.816406 C 311.324219 107.472656 314.820312 103.570312 318.203125 100.105469 L 318.214844 100.09375 C 319.976562 98.214844 323.929688 94.457031 330.074219 88.816406 L 330.089844 88.804688 L 330.097656 88.792969 C 330.902344 88.027344 331.675781 87.175781 332.421875 86.246094 C 332.683594 85.914062 332.632812 85.433594 332.300781 85.167969 C 332.15625 85.054688 331.980469 85 331.808594 85 Z M 331.808594 85 " fill-opacity="1" fill-rule="nonzero"/><path fill="#efefef" d="M 343.890625 84.003906 L 343.914062 84.015625 L 343.890625 84.003906 C 344.6875 84.351562 345.628906 84.878906 346.714844 85.585938 L 346.726562 85.59375 C 352.238281 89.359375 357.878906 93.082031 363.648438 96.765625 L 363.65625 96.769531 C 365.652344 98.078125 366.808594 99.019531 367.117188 99.589844 C 367.265625 99.863281 367.304688 100.128906 367.234375 100.386719 L 367.160156 99.800781 C 367.246094 99.949219 367.300781 100.113281 367.332031 100.289062 C 367.460938 101.109375 366.851562 102.332031 365.507812 103.953125 L 365.496094 103.964844 C 361.714844 108.339844 357.804688 112.652344 353.769531 116.90625 C 353.476562 117.210938 352.992188 117.222656 352.6875 116.933594 C 352.378906 116.640625 352.367188 116.15625 352.65625 115.851562 C 356.675781 111.613281 360.570312 107.320312 364.335938 102.960938 L 364.328125 102.972656 C 365.378906 101.707031 365.875 100.894531 365.816406 100.53125 C 365.816406 100.542969 365.824219 100.554688 365.832031 100.570312 C 365.730469 100.394531 365.703125 100.183594 365.757812 99.988281 C 365.71875 100.125 365.726562 100.234375 365.773438 100.320312 C 365.582031 99.976562 364.597656 99.21875 362.816406 98.054688 L 362.824219 98.058594 C 357.042969 94.367188 351.390625 90.636719 345.863281 86.859375 L 345.875 86.871094 C 344.863281 86.207031 343.996094 85.722656 343.277344 85.410156 L 343.253906 85.398438 C 342.890625 85.238281 342.714844 84.789062 342.882812 84.398438 C 343.050781 84.011719 343.503906 83.835938 343.890625 84.003906 Z M 343.890625 84.003906 " fill-opacity="1" fill-rule="nonzero"/><g clip-path="url(#b78d414558)"><path fill="#efefef" d="M 297.542969 98.8125 C 297.492188 98.8125 297.445312 98.820312 297.394531 98.832031 C 296.980469 98.917969 296.71875 99.328125 296.804688 99.742188 C 297.367188 102.335938 297.445312 104.410156 297.035156 105.96875 L 297.011719 105.96875 C 296.898438 106.144531 296.683594 106.320312 296.375 106.488281 L 296.367188 106.492188 C 296.257812 106.554688 296.082031 106.632812 295.847656 106.730469 C 294.441406 107.230469 293.542969 107.585938 293.152344 107.796875 C 292.78125 108.003906 292.648438 108.46875 292.851562 108.839844 C 292.992188 109.097656 293.261719 109.242188 293.535156 109.238281 C 293.65625 109.234375 293.777344 109.203125 293.890625 109.140625 C 294.210938 108.964844 295.046875 108.640625 296.398438 108.160156 L 296.4375 108.148438 C 296.722656 108.027344 296.949219 107.921875 297.109375 107.832031 C 297.792969 107.460938 298.25 107.003906 298.480469 106.464844 L 298.515625 106.359375 C 298.988281 104.5625 298.917969 102.25 298.304688 99.417969 C 298.226562 99.054688 297.902344 98.804688 297.542969 98.8125 Z M 297.542969 98.8125 " fill-opacity="1" fill-rule="nonzero"/></g><path fill="#efefef" d="M 330.585938 130.933594 C 330.242188 130.9375 329.933594 131.175781 329.855469 131.523438 C 329.152344 134.515625 328.472656 139.90625 327.816406 147.695312 L 327.816406 147.699219 C 327.4375 152.1875 327.085938 161.910156 326.75 176.867188 C 326.621094 179.265625 326.46875 180.640625 326.285156 181 L 326.28125 181.003906 L 326.238281 181.097656 C 325.941406 181.878906 324.394531 182.296875 321.597656 182.347656 C 321.042969 182.359375 320.441406 182.355469 319.789062 182.335938 L 319.78125 182.335938 C 315.789062 182.105469 313.328125 181.683594 312.398438 181.070312 L 312.378906 181.070312 C 313.824219 180.136719 316.597656 179.632812 320.699219 179.558594 C 322.171875 179.53125 323.820312 179.558594 325.636719 179.640625 C 325.65625 179.640625 325.671875 179.640625 325.6875 179.640625 C 326.089844 179.632812 326.421875 179.316406 326.4375 178.910156 C 326.457031 178.488281 326.132812 178.128906 325.707031 178.109375 C 323.957031 178.03125 322.351562 178.003906 320.890625 178.03125 C 315.644531 178.128906 312.269531 178.917969 310.765625 180.40625 C 310.542969 180.625 310.476562 180.953125 310.59375 181.242188 C 311.183594 182.671875 314.214844 183.546875 319.691406 183.867188 L 319.714844 183.867188 C 320.285156 183.886719 320.824219 183.886719 321.332031 183.878906 C 324.972656 183.8125 327.078125 183.082031 327.648438 181.695312 C 327.929688 181.144531 328.140625 179.550781 328.28125 176.925781 L 328.28125 176.902344 C 328.613281 162.054688 328.964844 152.386719 329.335938 147.898438 L 329.332031 147.898438 L 329.34375 147.824219 C 329.996094 140.109375 330.664062 134.792969 331.347656 131.871094 C 331.441406 131.460938 331.1875 131.046875 330.773438 130.953125 C 330.710938 130.9375 330.648438 130.929688 330.585938 130.933594 Z M 330.585938 130.933594 " fill-opacity="1" fill-rule="nonzero"/><path fill="#efefef" d="M 354.230469 177.652344 C 356.746094 177.605469 358.210938 178.144531 358.613281 179.269531 L 358.59375 179.269531 C 358.292969 180.28125 356.191406 181 352.292969 181.425781 L 352.273438 181.425781 C 351.777344 181.453125 351.308594 181.46875 350.867188 181.480469 C 350.746094 181.480469 350.628906 181.484375 350.511719 181.484375 C 347.402344 181.507812 345.847656 181.136719 345.839844 180.371094 C 345.839844 180.261719 345.816406 180.152344 345.769531 180.054688 C 345.679688 179.859375 345.59375 179.523438 345.511719 179.050781 L 345.488281 179.050781 C 349.171875 178.160156 352.082031 177.691406 354.230469 177.652344 Z M 343.121094 131.570312 C 342.734375 131.578125 342.410156 131.875 342.371094 132.265625 C 341.941406 136.894531 341.878906 142.894531 342.179688 150.265625 L 342.179688 150.277344 L 343.492188 173.964844 C 343.589844 175.601562 343.703125 176.953125 343.828125 178.019531 L 343.808594 178.019531 C 343.640625 178.203125 343.566406 178.464844 343.632812 178.722656 C 343.6875 178.945312 343.832031 179.117188 344.019531 179.214844 L 343.996094 179.214844 C 344.105469 179.847656 344.21875 180.316406 344.34375 180.617188 L 344.324219 180.617188 C 344.511719 182.246094 346.578125 183.046875 350.523438 183.015625 C 350.644531 183.015625 350.769531 183.015625 350.894531 183.011719 C 351.371094 183.003906 351.878906 182.984375 352.410156 182.953125 L 352.453125 182.949219 C 357.390625 182.414062 359.957031 181.179688 360.152344 179.253906 C 360.164062 179.160156 360.152344 179.0625 360.128906 178.96875 C 359.582031 177.0625 357.515625 176.144531 353.929688 176.210938 C 351.664062 176.253906 348.789062 176.6875 345.308594 177.519531 C 345.207031 176.558594 345.109375 175.34375 345.023438 173.878906 L 343.710938 150.191406 C 343.414062 142.894531 343.472656 136.964844 343.898438 132.410156 C 343.9375 131.988281 343.628906 131.613281 343.207031 131.574219 C 343.175781 131.570312 343.148438 131.570312 343.121094 131.570312 Z M 343.121094 131.570312 " fill-opacity="1" fill-rule="nonzero"/><path fill="#efefef" d="M 334.871094 60.886719 C 334.457031 60.886719 334.09375 61.191406 334.027344 61.613281 C 334 61.777344 333.96875 62.035156 333.933594 62.382812 L 333.933594 62.390625 C 333.917969 62.574219 333.902344 62.78125 333.894531 63.011719 C 333.867188 63.570312 333.859375 64.183594 333.867188 64.855469 C 333.875 65.324219 334.257812 65.695312 334.722656 65.695312 C 334.730469 65.695312 334.734375 65.695312 334.738281 65.695312 C 335.210938 65.691406 335.585938 65.300781 335.582031 64.828125 C 335.570312 64.191406 335.578125 63.613281 335.601562 63.09375 L 335.601562 63.089844 C 335.613281 62.890625 335.625 62.710938 335.640625 62.554688 C 335.671875 62.238281 335.695312 62.011719 335.71875 61.878906 C 335.792969 61.410156 335.472656 60.972656 335.003906 60.898438 C 334.960938 60.890625 334.914062 60.886719 334.871094 60.886719 Z M 334.871094 60.886719 " fill-opacity="1" fill-rule="nonzero"/><path fill="#efefef" d="M 343.667969 60.417969 C 343.28125 60.417969 342.929688 60.683594 342.835938 61.074219 C 342.664062 61.804688 342.550781 62.339844 342.507812 62.6875 C 342.453125 63.011719 342.40625 63.558594 342.363281 64.335938 C 342.335938 64.808594 342.695312 65.210938 343.167969 65.238281 C 343.183594 65.238281 343.199219 65.242188 343.21875 65.242188 C 343.667969 65.242188 344.046875 64.886719 344.070312 64.433594 C 344.113281 63.695312 344.15625 63.199219 344.199219 62.945312 L 344.203125 62.914062 C 344.242188 62.625 344.339844 62.144531 344.5 61.472656 C 344.613281 61.015625 344.328125 60.550781 343.867188 60.441406 C 343.800781 60.425781 343.734375 60.417969 343.667969 60.417969 Z M 343.667969 60.417969 " fill-opacity="1" fill-rule="nonzero"/><path fill="#efefef" d="M 44.726562 2.253906 C 44.648438 2.390625 44.605469 2.550781 44.605469 2.722656 C 44.613281 3.214844 45.003906 3.613281 45.492188 3.636719 C 45.511719 3.640625 45.53125 3.640625 45.550781 3.640625 C 46.28125 3.628906 47 3.640625 47.710938 3.675781 C 55.574219 4.0625 62.210938 7.222656 67.613281 13.15625 L 67.609375 13.15625 C 72.464844 19.417969 73.503906 26.355469 70.726562 33.960938 L 70.722656 33.960938 C 66.800781 42.429688 60.21875 47.242188 50.980469 48.402344 L 50.976562 48.402344 C 49.355469 48.542969 47.789062 48.574219 46.277344 48.5 C 38.816406 48.136719 32.691406 45.148438 27.898438 39.542969 L 27.894531 39.542969 C 23.25 33.578125 22.863281 26.378906 26.738281 17.941406 C 31.128906 9.519531 37.117188 4.292969 44.707031 2.253906 Z M 46.214844 0.0234375 C 46.140625 0.0195312 46.0625 0.0234375 45.984375 0.0390625 C 37.027344 1.855469 30.0625 7.535156 25.085938 17.078125 L 25.066406 17.121094 C 20.855469 26.261719 21.308594 34.117188 26.425781 40.6875 L 26.453125 40.71875 C 31.601562 46.757812 38.167969 49.972656 46.148438 50.363281 C 47.765625 50.441406 49.445312 50.40625 51.179688 50.253906 L 51.210938 50.25 C 61.164062 49.003906 68.238281 43.808594 72.445312 34.671875 L 72.472656 34.601562 C 75.5 26.324219 74.351562 18.777344 69.035156 11.957031 L 68.988281 11.902344 C 63.242188 5.585938 56.183594 2.226562 47.820312 1.816406 C 47.417969 1.796875 47.011719 1.785156 46.601562 1.777344 C 46.960938 1.589844 47.167969 1.183594 47.082031 0.769531 C 46.996094 0.339844 46.632812 0.0429688 46.214844 0.0234375 Z M 46.214844 0.0234375 " fill-opacity="0.996" fill-rule="nonzero"/><path fill="#efefef" d="M 40.460938 16.945312 C 40.34375 16.941406 40.226562 16.957031 40.113281 16.996094 C 39.625 17.164062 39.367188 17.691406 39.535156 18.179688 C 40.105469 19.847656 40.621094 21.125 41.082031 22.011719 C 41.238281 22.316406 41.542969 22.496094 41.863281 22.511719 C 42.023438 22.519531 42.183594 22.484375 42.335938 22.40625 C 42.792969 22.167969 42.96875 21.605469 42.734375 21.148438 C 42.316406 20.347656 41.835938 19.15625 41.296875 17.574219 C 41.167969 17.203125 40.828125 16.964844 40.460938 16.945312 Z M 40.460938 16.945312 " fill-opacity="0.996" fill-rule="nonzero"/><path fill="#efefef" d="M 51.085938 14.378906 C 51.066406 14.375 51.042969 14.375 51.019531 14.375 C 50.507812 14.386719 50.097656 14.8125 50.113281 15.371094 L 50.109375 15.371094 C 50.117188 15.539062 50.128906 15.753906 50.152344 16.015625 L 50.15625 16.042969 C 50.1875 16.3125 50.308594 17.609375 50.515625 19.933594 L 50.515625 19.9375 C 50.589844 20.71875 50.664062 21.375 50.742188 21.902344 C 50.804688 22.351562 51.179688 22.679688 51.617188 22.699219 C 51.675781 22.703125 51.734375 22.703125 51.796875 22.691406 C 52.304688 22.617188 52.660156 22.148438 52.585938 21.636719 C 52.511719 21.136719 52.441406 20.511719 52.371094 19.769531 C 52.167969 17.496094 52.046875 16.191406 52.007812 15.851562 C 51.988281 15.613281 51.976562 15.425781 51.972656 15.289062 L 51.96875 15.246094 C 51.9375 14.773438 51.558594 14.402344 51.085938 14.378906 Z M 51.085938 14.378906 " fill-opacity="0.996" fill-rule="nonzero"/><path fill="#efefef" d="M 63.367188 34.960938 C 63.089844 34.949219 62.8125 35.058594 62.617188 35.28125 C 58.585938 39.9375 53.785156 42.515625 48.214844 43.019531 L 48.207031 43.019531 C 47.457031 43.050781 46.734375 43.050781 46.039062 43.019531 C 44.023438 42.917969 42.234375 42.535156 40.671875 41.867188 C 38.074219 40.738281 35.996094 39.214844 34.4375 37.300781 C 34.265625 37.089844 34.015625 36.972656 33.761719 36.960938 C 33.539062 36.949219 33.3125 37.015625 33.128906 37.167969 C 32.730469 37.492188 32.667969 38.078125 32.992188 38.476562 C 34.742188 40.625 37.054688 42.328125 39.929688 43.578125 L 39.933594 43.578125 C 41.703125 44.335938 43.707031 44.769531 45.945312 44.878906 C 46.71875 44.917969 47.515625 44.914062 48.34375 44.878906 L 48.382812 44.875 C 54.453125 44.324219 59.664062 41.535156 64.023438 36.5 C 64.359375 36.113281 64.320312 35.523438 63.929688 35.1875 C 63.765625 35.046875 63.566406 34.972656 63.367188 34.960938 Z M 63.367188 34.960938 " fill-opacity="0.996" fill-rule="nonzero"/><path fill="#efefef" d="M 57.71875 46.386719 C 57.503906 46.378906 57.285156 46.441406 57.105469 46.582031 C 56.695312 46.894531 56.621094 47.480469 56.933594 47.886719 C 65.589844 59.128906 70.84375 71.21875 72.699219 84.160156 C 73.886719 96.082031 71.628906 103.726562 65.917969 107.09375 L 65.898438 107.089844 C 65.71875 107.148438 65.539062 107.203125 65.359375 107.246094 C 64.816406 107.378906 64.292969 107.433594 63.789062 107.40625 C 60.554688 107.25 58.128906 103.855469 56.503906 97.226562 C 55.777344 94.046875 55.238281 89.8125 54.890625 84.527344 L 54.871094 84.402344 C 54.757812 83.769531 54.585938 78.460938 54.351562 68.480469 L 54.347656 68.449219 L 53.332031 49.796875 C 53.304688 49.316406 52.917969 48.941406 52.449219 48.917969 C 52.417969 48.914062 52.382812 48.914062 52.351562 48.917969 C 51.835938 48.945312 51.445312 49.382812 51.472656 49.898438 L 52.488281 68.550781 C 52.726562 78.613281 52.910156 84.003906 53.039062 84.730469 L 53.035156 84.730469 C 53.394531 90.074219 53.941406 94.378906 54.6875 97.640625 L 54.691406 97.65625 C 56.539062 105.210938 59.496094 109.089844 63.5625 109.289062 C 64.277344 109.324219 65.023438 109.246094 65.804688 109.054688 C 66.074219 108.988281 66.351562 108.90625 66.628906 108.8125 L 66.796875 108.734375 C 73.246094 104.980469 75.828125 96.714844 74.550781 83.933594 L 74.542969 83.894531 C 72.640625 70.632812 67.265625 58.25 58.410156 46.75 C 58.238281 46.523438 57.980469 46.402344 57.71875 46.386719 Z M 57.71875 46.386719 " fill-opacity="0.996" fill-rule="nonzero"/><path fill="#efefef" d="M 98.425781 3.652344 C 98.121094 3.640625 97.816406 3.773438 97.625 4.035156 C 94.371094 8.503906 90.847656 13.773438 87.050781 19.847656 C 85.070312 22.917969 79.539062 32.367188 70.464844 48.199219 C 68.054688 52.207031 66.234375 55.007812 65.003906 56.605469 C 64.691406 57.011719 64.765625 57.597656 65.171875 57.910156 C 65.328125 58.03125 65.511719 58.09375 65.695312 58.105469 C 65.988281 58.117188 66.285156 57.992188 66.480469 57.742188 C 67.753906 56.085938 69.617188 53.222656 72.070312 49.144531 L 72.082031 49.125 C 81.152344 33.300781 86.664062 23.875 88.625 20.847656 L 88.632812 20.835938 C 92.40625 14.796875 95.90625 9.5625 99.132812 5.132812 C 99.433594 4.71875 99.34375 4.132812 98.925781 3.832031 C 98.773438 3.722656 98.601562 3.664062 98.425781 3.652344 Z M 98.425781 3.652344 " fill-opacity="0.996" fill-rule="nonzero"/><g clip-path="url(#4497079b3d)"><path fill="#efefef" d="M 51.835938 49.5 C 51.671875 49.492188 51.503906 49.527344 51.347656 49.613281 C 48.4375 51.191406 43.679688 52.203125 37.082031 52.640625 C 33.800781 52.792969 30.515625 52.847656 27.222656 52.808594 L 27.21875 52.808594 C 14.832031 52.71875 6.183594 52.566406 1.265625 52.359375 C 0.75 52.339844 0.316406 52.738281 0.296875 53.25 C 0.273438 53.761719 0.667969 54.195312 1.179688 54.21875 C 1.183594 54.222656 1.183594 54.222656 1.1875 54.222656 C 6.125 54.429688 14.796875 54.582031 27.203125 54.671875 C 30.535156 54.710938 33.863281 54.652344 37.1875 54.503906 L 37.207031 54.5 C 44.074219 54.042969 49.085938 52.957031 52.234375 51.25 C 52.6875 51.003906 52.855469 50.4375 52.609375 49.988281 C 52.449219 49.691406 52.152344 49.515625 51.835938 49.5 Z M 51.835938 49.5 " fill-opacity="0.996" fill-rule="nonzero"/></g><path fill="#efefef" d="M 16.699219 119.003906 C 16.992188 119.019531 17.292969 119.144531 17.609375 119.386719 C 17.726562 119.476562 17.863281 119.539062 18.011719 119.566406 L 17.996094 119.5625 C 18.203125 119.65625 18.539062 119.894531 19 120.289062 L 18.984375 120.285156 C 18.179688 124.351562 17.40625 126.761719 16.667969 127.515625 L 16.574219 127.628906 C 16.269531 128.0625 15.980469 128.421875 15.703125 128.710938 C 15.207031 129.230469 14.777344 129.480469 14.414062 129.460938 C 14.265625 129.457031 14.132812 129.40625 14.007812 129.3125 L 13.988281 129.3125 C 13.050781 128.191406 13.238281 125.527344 14.554688 121.316406 L 14.550781 121.316406 C 14.839844 120.660156 15.132812 120.136719 15.4375 119.738281 C 15.832031 119.226562 16.25 118.980469 16.699219 119.003906 Z M 61.347656 107.96875 C 60.941406 107.949219 60.554688 108.203125 60.417969 108.609375 C 56.96875 119.058594 54.132812 127.042969 51.914062 132.558594 C 49.953125 137.324219 48.15625 141.527344 46.527344 145.164062 C 45.949219 146.347656 45.503906 146.996094 45.191406 147.109375 L 45.171875 147.105469 C 45.164062 147.109375 45.152344 147.109375 45.140625 147.105469 C 44.839844 147.09375 44.324219 146.664062 43.589844 145.828125 L 43.585938 145.828125 C 37.59375 137.730469 32.652344 131.605469 28.753906 127.449219 C 23.109375 121.457031 19.742188 118.246094 18.640625 117.816406 C 18.636719 117.8125 18.628906 117.8125 18.625 117.808594 L 18.609375 117.808594 C 17.9375 117.324219 17.296875 117.066406 16.683594 117.035156 C 15.707031 116.988281 14.800781 117.511719 13.960938 118.605469 C 13.566406 119.121094 13.195312 119.773438 12.84375 120.566406 L 12.808594 120.664062 C 11.261719 125.578125 11.179688 128.859375 12.5625 130.507812 L 12.632812 130.582031 C 13.183594 131.109375 13.753906 131.386719 14.347656 131.417969 C 15.203125 131.457031 16.101562 130.984375 17.046875 130 C 17.363281 129.667969 17.683594 129.277344 18.011719 128.816406 L 18 128.816406 C 18.910156 127.886719 19.773438 125.53125 20.585938 121.75 L 20.601562 121.75 C 22.199219 123.285156 24.464844 125.609375 27.398438 128.726562 C 31.242188 132.828125 36.140625 138.898438 42.089844 146.9375 L 42.136719 146.992188 C 43.234375 148.261719 44.230469 148.921875 45.117188 148.964844 C 45.253906 148.96875 45.386719 148.960938 45.515625 148.941406 C 45.582031 148.929688 45.644531 148.914062 45.707031 148.898438 L 45.722656 148.894531 C 45.746094 148.886719 45.773438 148.878906 45.800781 148.867188 C 46.601562 148.589844 47.40625 147.617188 48.214844 145.953125 L 48.226562 145.925781 C 49.867188 142.265625 51.671875 138.042969 53.640625 133.257812 L 53.640625 133.253906 C 55.875 127.703125 58.722656 119.683594 62.1875 109.191406 C 62.347656 108.703125 62.082031 108.175781 61.59375 108.015625 C 61.515625 107.988281 61.429688 107.972656 61.347656 107.96875 Z M 61.347656 107.96875 " fill-opacity="0.996" fill-rule="nonzero"/><path fill="#efefef" d="M 30.46875 117.339844 C 30.515625 117.34375 30.5625 117.355469 30.605469 117.378906 L 30.589844 117.378906 C 31.273438 118.152344 31.941406 118.902344 32.585938 119.625 L 32.570312 119.625 C 32.546875 119.734375 32.539062 119.847656 32.550781 119.964844 C 32.816406 122.050781 32.75 123.390625 32.351562 123.992188 C 32.257812 124.136719 32.101562 124.203125 31.882812 124.195312 C 31.523438 124.175781 30.992188 123.941406 30.292969 123.492188 L 30.277344 123.492188 C 29.375 122.625 29.019531 121.355469 29.210938 119.683594 L 29.203125 119.679688 C 29.449219 118.777344 29.710938 118.113281 29.996094 117.683594 C 30.152344 117.445312 30.308594 117.332031 30.46875 117.339844 Z M 67.289062 108.214844 C 66.835938 108.195312 66.421875 108.503906 66.332031 108.964844 C 64.445312 118.398438 62.433594 129.179688 60.289062 141.3125 C 60.15625 142.019531 60.019531 142.480469 59.878906 142.6875 L 59.867188 142.6875 C 59.484375 142.667969 58.894531 142.324219 58.089844 141.65625 C 51.960938 136.378906 48.136719 132.992188 46.621094 131.492188 L 46.578125 131.453125 C 43.339844 128.605469 38.441406 123.460938 31.875 116.015625 C 31.820312 115.957031 31.757812 115.902344 31.6875 115.855469 C 31.242188 115.5625 30.820312 115.402344 30.417969 115.382812 C 29.683594 115.347656 29.023438 115.773438 28.441406 116.65625 C 28.046875 117.253906 27.703125 118.097656 27.40625 119.195312 L 27.378906 119.316406 C 27.070312 121.695312 27.617188 123.546875 29.023438 124.871094 L 29.148438 124.96875 C 30.210938 125.671875 31.128906 126.042969 31.902344 126.082031 C 32.742188 126.121094 33.410156 125.769531 33.90625 125.019531 C 34.359375 124.335938 34.578125 123.273438 34.558594 121.835938 L 34.574219 121.835938 C 39.179688 126.914062 42.773438 130.585938 45.351562 132.851562 L 45.347656 132.851562 C 46.921875 134.402344 50.761719 137.804688 56.875 143.070312 L 56.886719 143.078125 C 58.007812 144.011719 58.992188 144.5 59.832031 144.542969 C 60.007812 144.550781 60.175781 144.539062 60.339844 144.507812 L 60.367188 144.503906 C 60.652344 144.441406 60.910156 144.296875 61.136719 144.074219 L 61.132812 144.074219 C 61.574219 143.640625 61.902344 142.828125 62.121094 141.644531 L 62.125 141.636719 C 64.261719 129.523438 66.273438 118.753906 68.15625 109.328125 C 68.257812 108.824219 67.929688 108.335938 67.425781 108.234375 C 67.378906 108.222656 67.335938 108.21875 67.289062 108.214844 Z M 67.289062 108.214844 " fill-opacity="0.996" fill-rule="nonzero"/></svg>