<svg xmlns="http://www.w3.org/2000/svg" xmlns:xlink="http://www.w3.org/1999/xlink" width="500" zoomAndPan="magnify" viewBox="0 0 375 189.750001" height="253" preserveAspectRatio="xMidYMid meet" version="1.0"><defs><clipPath id="90481d08c2"><path d="M 100 89 L 266 89 L 266 183.503906 L 100 183.503906 Z M 100 89 " clip-rule="nonzero"/></clipPath><clipPath id="f461e89e31"><path d="M 296 38.648438 L 373.984375 38.648438 L 373.984375 94 L 296 94 Z M 296 38.648438 " clip-rule="nonzero"/></clipPath><clipPath id="bd3e55be63"><path d="M 292.652344 98 L 299 98 L 299 110 L 292.652344 110 Z M 292.652344 98 " clip-rule="nonzero"/></clipPath><clipPath id="2cb95b5791"><path d="M 310 131 L 332 131 L 332 184.367188 L 310 184.367188 Z M 310 131 " clip-rule="nonzero"/></clipPath><clipPath id="c3eef919fd"><path d="M 65 3 L 100.214844 3 L 100.214844 59 L 65 59 Z M 65 3 " clip-rule="nonzero"/></clipPath><clipPath id="e6d9ecefe3"><path d="M 0.246094 49 L 54 49 L 54 55 L 0.246094 55 Z M 0.246094 49 " clip-rule="nonzero"/></clipPath><clipPath id="ab9b1dab4d"><path d="M 11 108 L 63 108 L 63 149.105469 L 11 149.105469 Z M 11 108 " clip-rule="nonzero"/></clipPath></defs><g clip-path="url(#90481d08c2)"><path fill="#000001" d="M 187.195312 100.691406 C 185.460938 104.226562 185.183594 107.84375 185.171875 109.679688 C 185.144531 114.1875 186.4375 116.945312 187.011719 116.953125 C 187.261719 116.953125 188.214844 115.792969 188.351562 110.082031 C 188.441406 106.4375 188.050781 103.300781 187.195312 100.691406 Z M 189.421875 129.511719 C 189.667969 131.894531 189.664062 135.003906 189.484375 138.039062 C 217.964844 137.953125 242.308594 137.316406 246.472656 136.566406 C 242.828125 132.972656 236.566406 127.363281 233.925781 126.898438 C 230.507812 126.296875 195.964844 125.46875 191.789062 125.738281 C 190.953125 125.792969 190.070312 127.222656 189.421875 129.511719 Z M 188.601562 134.015625 C 188.476562 135.273438 188.410156 136.625 188.429688 138.042969 C 188.4375 138.042969 188.445312 138.042969 188.457031 138.042969 C 188.539062 136.691406 188.589844 135.324219 188.601562 134.015625 Z M 128.832031 136.289062 C 131.675781 137.414062 154.84375 138.117188 187.445312 138.046875 C 187.410156 135.035156 187.753906 131.914062 188.421875 129.449219 C 188.304688 128.339844 188.125 127.414062 187.871094 126.777344 C 187.683594 126.308594 187.46875 126.03125 187.289062 126.03125 C 185.90625 126.03125 177.898438 126.25 168.625 126.5 C 156.519531 126.824219 142.800781 127.199219 139.695312 127.199219 C 136.8125 127.199219 131.492188 132.101562 128.832031 136.289062 Z M 188.96875 143.363281 C 189.640625 146.515625 190.976562 148.980469 193.226562 149.039062 C 199.769531 149.203125 234.238281 149.089844 244.644531 149.046875 C 245.875 149.042969 246.898438 148.078125 246.972656 146.851562 C 247.160156 143.921875 247.421875 140.480469 247.792969 136.964844 C 247.773438 137.019531 247.742188 137.074219 247.699219 137.121094 C 247.441406 137.421875 246.964844 137.980469 228.636719 138.492188 C 217.960938 138.789062 203.703125 138.984375 189.417969 139.027344 C 189.308594 140.546875 189.15625 142.023438 188.96875 143.363281 Z M 152.160156 163.15625 C 169.691406 163.878906 214.367188 165.429688 241.792969 163.765625 C 241.160156 163.109375 240.433594 162.714844 239.605469 162.648438 C 202.980469 159.785156 167.167969 161.957031 152.160156 163.15625 Z M 239.5 166.828125 C 239.308594 166.828125 239.132812 166.917969 239.019531 167.074219 C 238.90625 167.230469 238.878906 167.425781 238.941406 167.605469 L 243.246094 180.441406 C 243.332031 180.695312 243.582031 180.863281 243.84375 180.84375 L 244.914062 180.769531 C 245.226562 180.75 245.46875 180.488281 245.46875 180.175781 C 245.425781 175.335938 244.871094 170.265625 243.566406 166.828125 Z M 124.5 163.523438 C 126.699219 164.398438 129.003906 164.746094 130.34375 164.882812 C 130.773438 164.929688 131.167969 165.148438 131.433594 165.492188 C 131.695312 165.835938 131.804688 166.277344 131.738281 166.707031 L 129.214844 182.25 C 129.1875 182.425781 129.234375 182.59375 129.351562 182.726562 C 129.464844 182.863281 129.625 182.9375 129.800781 182.9375 L 131.746094 182.9375 C 132.019531 182.9375 132.257812 182.75 132.320312 182.480469 L 136.574219 164.25 C 136.617188 164.074219 136.574219 163.890625 136.460938 163.75 C 136.347656 163.605469 136.179688 163.523438 135.996094 163.523438 Z M 101.425781 162.539062 L 120.796875 162.539062 C 119.867188 161.785156 119.082031 160.863281 118.558594 159.742188 C 116.222656 154.726562 105.996094 123.808594 110.132812 116.808594 C 110.707031 115.835938 111.523438 115.308594 112.5625 115.238281 C 117.730469 114.878906 120.414062 124.464844 123.019531 133.726562 C 124.941406 140.570312 126.933594 147.644531 129.632812 149.097656 C 132.355469 150.558594 144.15625 151.238281 159.703125 150.832031 C 175.1875 150.425781 185.804688 149.199219 186.757812 148.296875 C 187.171875 147.90625 187.609375 145.957031 187.953125 143.359375 C 187.691406 142.078125 187.527344 140.628906 187.46875 139.03125 C 172.613281 139.0625 130.785156 138.960938 128.035156 136.972656 C 127.664062 136.703125 127.65625 136.320312 127.8125 136.0625 C 130.320312 131.949219 136.054688 126.210938 139.695312 126.210938 C 142.785156 126.210938 156.5 125.839844 168.597656 125.515625 C 177.878906 125.261719 185.894531 125.046875 187.289062 125.046875 C 187.921875 125.046875 188.425781 125.503906 188.785156 126.410156 C 188.90625 126.710938 189.007812 127.0625 189.101562 127.464844 C 189.785156 125.859375 190.671875 124.824219 191.726562 124.753906 C 195.917969 124.484375 230.652344 125.320312 234.097656 125.929688 C 237.800781 126.582031 246.667969 135.359375 247.667969 136.359375 C 247.753906 136.449219 247.808594 136.554688 247.828125 136.664062 C 248.929688 126.445312 250.957031 115.722656 254.636719 115.238281 C 255.242188 115.160156 255.519531 114.996094 255.519531 114.871094 C 255.539062 113.625 249.265625 109.769531 244.714844 109.027344 C 243.554688 108.839844 242.523438 109.097656 241.5625 109.8125 C 238.136719 112.371094 236.835938 119.949219 236.433594 123.089844 C 236.277344 124.324219 235.179688 125.199219 233.933594 125.082031 C 228.664062 124.574219 213.703125 123.394531 188.703125 123.394531 C 164.046875 123.394531 145.558594 124.660156 140.480469 125.050781 C 139.484375 125.125 138.601562 124.441406 138.425781 123.460938 C 137.90625 120.570312 135.761719 111 130.015625 109.007812 C 128.550781 108.5 126 109.253906 123.414062 110.386719 C 120.113281 113.816406 115.941406 114.457031 115.871094 114.46875 C 115.640625 114.5 115.421875 114.371094 115.339844 114.15625 C 115.257812 113.9375 115.339844 113.695312 115.53125 113.570312 C 115.777344 113.40625 119.246094 111.136719 122.949219 109.507812 C 124.851562 107.40625 126.382812 104.21875 126.382812 99.410156 C 126.382812 96.960938 127.214844 94.9375 128.855469 93.398438 C 133.945312 88.613281 145.785156 89.359375 154.425781 89.902344 C 156.769531 90.046875 158.792969 90.175781 160.386719 90.175781 C 161.570312 90.175781 162.953125 90.09375 164.417969 90.007812 C 170.640625 89.648438 179.15625 89.152344 184.433594 94.25 C 185.625 95.398438 186.601562 96.792969 187.359375 98.425781 C 187.652344 97.976562 187.972656 97.535156 188.320312 97.101562 C 191.851562 92.722656 197.289062 90.488281 204.480469 90.46875 C 208.511719 90.453125 212.316406 90.398438 215.675781 90.34375 C 236.570312 90.023438 247.058594 89.863281 248.101562 101.503906 C 248.742188 108.660156 251.90625 109.554688 255.570312 110.585938 C 258.355469 111.371094 261.234375 112.183594 263.101562 115.792969 C 266.527344 122.402344 261.246094 147.75 255.34375 158.675781 C 253.492188 162.105469 251.691406 163.929688 249.992188 164.105469 C 248.023438 164.308594 245.90625 164.480469 243.65625 164.636719 C 243.867188 165.011719 244.066406 165.414062 244.25 165.839844 L 265.179688 165.839844 C 265.191406 165.839844 265.207031 165.84375 265.21875 165.84375 C 265.320312 165.851562 265.828125 166.875 265.164062 166.828125 L 244.636719 166.828125 C 246.144531 171.082031 246.425781 176.925781 246.453125 180.167969 C 246.460938 181 245.8125 181.699219 244.980469 181.753906 L 243.910156 181.824219 C 243.195312 181.867188 242.539062 181.433594 242.3125 180.753906 L 238.003906 167.921875 C 237.84375 167.433594 237.921875 166.914062 238.21875 166.5 C 238.519531 166.082031 238.988281 165.839844 239.5 165.839844 L 243.152344 165.839844 C 242.957031 165.429688 242.75 165.050781 242.527344 164.710938 C 208.078125 166.882812 145.402344 163.847656 144.722656 163.816406 C 144.464844 163.800781 144.261719 163.59375 144.253906 163.335938 C 144.246094 163.078125 144.4375 162.859375 144.695312 162.832031 C 145.160156 162.785156 191.722656 157.917969 239.683594 161.667969 C 241.058594 161.773438 242.160156 162.527344 243.035156 163.6875 C 245.480469 163.527344 247.777344 163.339844 249.890625 163.125 C 250.824219 163.027344 252.378906 162.097656 254.476562 158.210938 C 260.199219 147.621094 265.449219 122.46875 262.226562 116.246094 C 260.554688 113.015625 258.003906 112.296875 255.304688 111.535156 C 251.625 110.496094 247.820312 109.425781 247.117188 101.589844 C 246.15625 90.863281 236.609375 91.011719 215.691406 91.332031 C 212.332031 91.382812 208.523438 91.441406 204.484375 91.453125 C 195.179688 91.480469 190.335938 95.289062 187.824219 99.523438 C 188.929688 102.40625 189.4375 105.945312 189.335938 110.105469 C 189.210938 115.324219 188.421875 117.960938 186.996094 117.941406 C 185.230469 117.914062 184.164062 113.628906 184.1875 109.671875 C 184.199219 107.355469 184.585938 103.289062 186.734375 99.453125 C 185.992188 97.664062 184.996094 96.164062 183.75 94.957031 C 178.785156 90.160156 170.851562 90.621094 164.476562 90.992188 C 162.996094 91.078125 161.597656 91.160156 160.386719 91.160156 C 158.761719 91.160156 156.722656 91.035156 154.363281 90.886719 C 145.902344 90.351562 134.3125 89.625 129.527344 94.117188 C 128.074219 95.480469 127.367188 97.214844 127.367188 99.410156 C 127.367188 103.566406 126.253906 106.59375 124.71875 108.792969 C 126.871094 108.007812 128.9375 107.589844 130.339844 108.074219 C 136.417969 110.183594 138.695312 119.414062 139.394531 123.285156 C 139.480469 123.769531 139.917969 124.105469 140.40625 124.066406 C 145.492188 123.679688 164.011719 122.410156 188.703125 122.410156 C 213.746094 122.410156 228.742188 123.59375 234.027344 124.101562 C 234.746094 124.167969 235.367188 123.667969 235.457031 122.960938 C 235.972656 118.910156 237.378906 111.707031 240.972656 109.023438 C 242.144531 108.148438 243.457031 107.824219 244.871094 108.054688 C 248.941406 108.714844 256.542969 112.570312 256.507812 114.886719 C 256.5 115.390625 256.1875 116.03125 254.765625 116.21875 C 251.730469 116.617188 249.121094 128.375 247.957031 146.910156 C 247.847656 148.65625 246.394531 150.027344 244.648438 150.035156 C 234.238281 150.074219 199.757812 150.1875 193.203125 150.023438 C 191.160156 149.972656 189.574219 148.429688 188.585938 145.6875 C 188.25 147.390625 187.855469 148.617188 187.433594 149.015625 C 185.648438 150.703125 168.53125 151.585938 159.726562 151.816406 C 147.230469 152.144531 132.640625 151.832031 129.167969 149.964844 C 126.097656 148.316406 124.140625 141.359375 122.070312 133.992188 C 119.6875 125.523438 116.992188 115.921875 112.628906 116.21875 C 111.925781 116.269531 111.386719 116.625 110.980469 117.3125 C 107.09375 123.894531 117.234375 154.5625 119.453125 159.328125 C 120.09375 160.707031 121.207031 161.75 122.5 162.539062 L 135.996094 162.539062 C 136.480469 162.539062 136.933594 162.757812 137.234375 163.136719 C 137.535156 163.515625 137.644531 164.003906 137.535156 164.476562 L 133.28125 182.703125 C 133.113281 183.421875 132.480469 183.921875 131.746094 183.921875 L 129.800781 183.921875 C 129.335938 183.921875 128.898438 183.71875 128.597656 183.367188 C 128.296875 183.015625 128.167969 182.550781 128.242188 182.09375 L 130.765625 166.546875 C 130.789062 166.382812 130.75 166.222656 130.648438 166.089844 C 130.550781 165.960938 130.40625 165.882812 130.246094 165.863281 C 128.453125 165.679688 125.035156 165.132812 122.242188 163.523438 L 101.425781 163.523438 C 100.054688 163.523438 99.683594 162.539062 101.425781 162.539062 " fill-opacity="1" fill-rule="nonzero"/></g><path fill="#000000" d="M 339.011719 44.125 C 342.121094 44.066406 345.265625 44.757812 348.445312 46.203125 C 354.476562 49.066406 358.222656 53.042969 359.679688 58.132812 L 359.679688 58.136719 C 360.933594 62.414062 359.585938 67.453125 355.640625 73.265625 C 352.074219 78.113281 347.441406 81.394531 341.738281 83.109375 L 341.730469 83.109375 C 340.019531 83.515625 338.316406 83.730469 336.625 83.761719 C 332.5 83.839844 328.429688 82.816406 324.421875 80.691406 C 319.292969 77.886719 316.28125 73.957031 315.386719 68.898438 C 314.6875 63.867188 316.039062 59.269531 319.441406 55.105469 L 319.4375 55.105469 C 324.894531 49.304688 330.25 45.800781 335.503906 44.597656 C 335.613281 44.574219 335.714844 44.523438 335.796875 44.457031 L 335.777344 44.457031 C 336.851562 44.253906 337.929688 44.144531 339.011719 44.125 Z M 338.992188 42.582031 C 336.589844 42.628906 334.207031 43.089844 331.839844 43.972656 C 331.664062 44.039062 331.527344 44.160156 331.445312 44.3125 L 331.421875 44.3125 C 327.097656 46.128906 322.734375 49.371094 318.339844 54.042969 L 318.304688 54.082031 C 314.59375 58.605469 313.117188 63.617188 313.882812 69.113281 L 313.886719 69.140625 C 314.863281 74.699219 318.132812 79 323.699219 82.042969 L 323.707031 82.046875 C 327.953125 84.300781 332.265625 85.386719 336.640625 85.300781 C 338.460938 85.269531 340.289062 85.03125 342.128906 84.597656 L 342.171875 84.585938 C 348.203125 82.765625 353.105469 79.292969 356.875 74.160156 L 356.890625 74.136719 C 361.109375 67.925781 362.527344 62.449219 361.136719 57.707031 C 359.554688 52.167969 355.53125 47.867188 349.078125 44.804688 L 349.066406 44.800781 C 345.675781 43.257812 342.316406 42.519531 338.992188 42.582031 Z M 338.992188 42.582031 " fill-opacity="1" fill-rule="nonzero"/><path fill="#000000" d="M 331.4375 75.128906 C 331.175781 75.136719 330.921875 75.277344 330.785156 75.527344 C 330.582031 75.898438 330.71875 76.367188 331.082031 76.570312 C 333.25 77.785156 335.726562 78.367188 338.519531 78.320312 C 338.527344 78.320312 338.539062 78.320312 338.546875 78.320312 C 340.085938 78.289062 341.65625 78.101562 343.257812 77.757812 C 344.964844 77.410156 346.554688 76.949219 348.023438 76.371094 C 348.414062 76.21875 348.609375 75.773438 348.457031 75.378906 C 348.339844 75.070312 348.046875 74.882812 347.734375 74.886719 C 347.648438 74.886719 347.5625 74.90625 347.476562 74.9375 C 346.089844 75.484375 344.582031 75.921875 342.957031 76.25 L 342.949219 76.253906 C 341.4375 76.578125 339.960938 76.753906 338.519531 76.78125 C 338.507812 76.78125 338.5 76.78125 338.492188 76.78125 C 335.972656 76.828125 333.75 76.308594 331.820312 75.226562 C 331.699219 75.160156 331.566406 75.128906 331.4375 75.128906 Z M 331.4375 75.128906 " fill-opacity="1" fill-rule="nonzero"/><path fill="#000000" d="M 350.167969 46.582031 C 350.105469 46.585938 350.046875 46.59375 349.984375 46.609375 C 346.269531 47.605469 341.6875 48.757812 336.242188 50.066406 L 336.234375 50.066406 L 336.214844 50.074219 C 334.546875 50.511719 333.46875 50.867188 332.980469 51.144531 L 332.976562 51.144531 C 332.894531 51.191406 332.816406 51.242188 332.746094 51.292969 L 332.746094 51.296875 C 332.726562 51.308594 332.707031 51.324219 332.691406 51.339844 C 332.152344 51.792969 332.082031 52.289062 332.488281 52.832031 C 332.535156 52.894531 332.589844 52.949219 332.652344 52.992188 C 334.03125 53.980469 334.78125 54.710938 334.902344 55.179688 L 334.894531 55.179688 C 334.886719 55.316406 334.695312 55.429688 334.320312 55.523438 L 334.316406 55.523438 C 332.425781 55.929688 330.078125 56.160156 327.277344 56.214844 C 326.832031 56.222656 326.371094 56.226562 325.902344 56.226562 L 325.890625 56.226562 C 323.285156 56.265625 320.742188 56.007812 318.261719 55.445312 C 318.203125 55.429688 318.140625 55.425781 318.082031 55.425781 C 317.738281 55.433594 317.433594 55.675781 317.355469 56.027344 C 317.265625 56.441406 317.519531 56.851562 317.929688 56.945312 C 320.527344 57.53125 323.191406 57.804688 325.914062 57.761719 L 325.90625 57.761719 C 326.382812 57.761719 326.847656 57.757812 327.300781 57.75 C 330.214844 57.695312 332.664062 57.453125 334.65625 57.023438 L 334.675781 57.015625 C 336.035156 56.683594 336.605469 55.957031 336.378906 54.835938 L 336.371094 54.792969 C 336.1875 54.085938 335.476562 53.242188 334.238281 52.269531 L 334.21875 52.269531 C 334.726562 52.082031 335.519531 51.84375 336.59375 51.5625 C 342.054688 50.25 346.648438 49.09375 350.375 48.09375 C 350.78125 47.984375 351.019531 47.566406 350.914062 47.15625 C 350.820312 46.804688 350.507812 46.578125 350.167969 46.582031 Z M 350.167969 46.582031 " fill-opacity="1" fill-rule="nonzero"/><g clip-path="url(#f461e89e31)"><path fill="#000000" d="M 341.667969 38.925781 C 338.867188 38.976562 335.933594 39.316406 332.867188 39.9375 L 332.863281 39.9375 C 320.804688 42.472656 311.765625 48.3125 305.746094 57.457031 L 305.730469 57.484375 C 303.152344 61.761719 302.195312 65.410156 302.855469 68.429688 L 302.847656 68.429688 C 303.121094 71.636719 305.359375 76.835938 309.5625 84.03125 L 309.550781 84.03125 C 310.023438 85.289062 310.214844 86.414062 310.117188 87.40625 L 310.117188 87.433594 C 309.945312 90.214844 307.742188 91.816406 303.5 92.234375 C 300.238281 91.953125 298.523438 90.710938 298.347656 88.511719 L 298.367188 88.511719 C 298.613281 87.070312 299.679688 86.058594 301.566406 85.480469 L 301.546875 85.480469 C 301.648438 85.472656 301.746094 85.464844 301.839844 85.464844 C 301.976562 85.460938 302.105469 85.46875 302.21875 85.480469 C 302.960938 85.578125 303.257812 86.226562 303.105469 87.425781 C 303.050781 87.84375 303.34375 88.230469 303.761719 88.285156 C 303.796875 88.289062 303.835938 88.292969 303.871094 88.292969 C 304.242188 88.285156 304.5625 88.003906 304.609375 87.621094 C 304.890625 85.40625 304.160156 84.183594 302.414062 83.957031 C 302.226562 83.933594 302.023438 83.921875 301.8125 83.925781 C 301.664062 83.929688 301.507812 83.9375 301.347656 83.957031 L 301.210938 83.984375 C 298.578125 84.765625 297.117188 86.261719 296.835938 88.472656 L 296.832031 88.632812 C 297.078125 91.71875 299.28125 93.433594 303.441406 93.773438 L 303.574219 93.773438 C 308.710938 93.28125 311.394531 91.210938 311.628906 87.554688 C 311.75 86.289062 311.515625 84.890625 310.921875 83.359375 L 310.871094 83.246094 C 306.738281 76.179688 304.566406 71.164062 304.355469 68.207031 L 304.339844 68.097656 C 303.765625 65.488281 304.65625 62.226562 307.011719 58.3125 C 312.800781 49.515625 321.515625 43.894531 333.167969 41.445312 C 336.132812 40.84375 338.96875 40.515625 341.675781 40.464844 C 349.5625 40.316406 356.332031 42.507812 361.992188 47.035156 L 361.980469 47.035156 C 364.402344 49.628906 365.554688 52.8125 365.429688 56.585938 L 365.429688 56.683594 C 365.652344 59.101562 364.578125 64.894531 362.210938 74.058594 L 362.195312 74.152344 C 361.9375 76.148438 362.03125 77.644531 362.480469 78.632812 C 363.355469 80.585938 364.875 81.542969 367.03125 81.503906 C 367.816406 81.488281 368.683594 81.339844 369.640625 81.0625 L 369.707031 81.039062 C 372.5625 79.894531 373.886719 77.699219 373.679688 74.457031 L 373.660156 74.328125 C 372.992188 71.46875 371.160156 69.984375 368.15625 69.878906 L 368.074219 69.882812 C 366.15625 70.019531 365.25 70.867188 365.363281 72.421875 C 365.417969 73.207031 365.796875 74.171875 366.503906 75.3125 C 366.652344 75.550781 366.90625 75.675781 367.164062 75.671875 C 367.296875 75.667969 367.429688 75.632812 367.550781 75.554688 C 367.90625 75.328125 368.015625 74.855469 367.792969 74.496094 C 367.21875 73.570312 366.914062 72.84375 366.875 72.3125 C 366.839844 71.789062 367.257812 71.492188 368.132812 71.417969 L 368.15625 71.417969 C 370.355469 71.511719 371.699219 72.597656 372.183594 74.679688 L 372.171875 74.679688 C 372.289062 77.113281 371.28125 78.753906 369.148438 79.609375 L 369.132812 79.609375 C 368.386719 79.824219 367.710938 79.933594 367.109375 79.945312 C 365.539062 79.976562 364.457031 79.324219 363.859375 77.996094 L 363.859375 77.992188 C 363.539062 77.285156 363.480469 76.101562 363.6875 74.445312 L 363.679688 74.445312 C 366.0625 65.222656 367.152344 59.285156 366.949219 56.636719 L 366.945312 56.636719 C 367.085938 52.398438 365.773438 48.816406 363.007812 45.898438 L 362.933594 45.828125 C 356.988281 41.070312 349.898438 38.769531 341.667969 38.925781 Z M 341.667969 38.925781 " fill-opacity="1" fill-rule="nonzero"/></g><path fill="#000000" d="M 342.71875 82.6875 C 342.328125 82.695312 342 83.003906 341.976562 83.40625 C 341.699219 88.027344 342.515625 93.148438 344.421875 98.777344 C 345.601562 102.945312 348.96875 110.289062 354.519531 120.804688 L 354.515625 120.804688 C 355.316406 122.71875 355.78125 124.382812 355.90625 125.804688 L 355.910156 125.808594 C 356.0625 127.378906 355.605469 128.480469 354.546875 129.113281 L 354.542969 129.117188 C 353.199219 129.925781 350.558594 130.523438 346.613281 130.914062 C 343.660156 131.171875 340.773438 131.324219 337.945312 131.378906 C 333.539062 131.460938 329.285156 131.300781 325.183594 130.894531 L 325.175781 130.894531 C 321.238281 130.34375 319.042969 129.175781 318.589844 127.386719 L 318.566406 127.320312 C 318.105469 126.011719 318.445312 123.714844 319.578125 120.429688 C 321.867188 113.980469 325.03125 105.804688 329.070312 95.894531 L 329.089844 95.851562 L 332.90625 84.664062 C 333.042969 84.261719 332.835938 83.824219 332.4375 83.6875 C 332.351562 83.65625 332.261719 83.644531 332.175781 83.644531 C 331.867188 83.652344 331.578125 83.847656 331.472656 84.164062 L 327.652344 95.351562 C 323.613281 105.261719 320.445312 113.445312 318.148438 119.910156 L 318.148438 119.917969 C 316.894531 123.546875 316.554688 126.1875 317.136719 127.835938 C 317.789062 130.253906 320.402344 131.78125 324.96875 132.414062 L 325 132.417969 C 329.171875 132.835938 333.496094 133 337.972656 132.914062 C 340.839844 132.859375 343.765625 132.703125 346.753906 132.445312 L 346.761719 132.445312 C 350.929688 132.03125 353.78125 131.363281 355.316406 130.4375 C 356.933594 129.472656 357.632812 127.882812 357.417969 125.664062 C 357.277344 124.070312 356.765625 122.226562 355.890625 120.140625 L 355.859375 120.082031 C 350.34375 109.628906 347.011719 102.375 345.871094 98.316406 L 345.859375 98.277344 C 344.015625 92.84375 343.226562 87.917969 343.492188 83.5 C 343.515625 83.078125 343.199219 82.714844 342.78125 82.6875 C 342.757812 82.6875 342.738281 82.6875 342.71875 82.6875 Z M 342.71875 82.6875 " fill-opacity="1" fill-rule="nonzero"/><path fill="#000000" d="M 301.761719 110.480469 C 301.613281 110.601562 301.515625 110.773438 301.484375 110.957031 L 301.46875 110.957031 C 301.480469 110.746094 301.570312 110.589844 301.738281 110.484375 Z M 331.441406 85.136719 C 331.222656 85.140625 331.007812 85.238281 330.863281 85.425781 C 330.167969 86.304688 329.445312 87.105469 328.699219 87.828125 L 328.695312 87.832031 C 322.582031 93.511719 318.640625 97.308594 316.867188 99.222656 C 313.492188 102.722656 310.003906 106.664062 306.410156 111.050781 C 306.011719 111.484375 305.675781 111.757812 305.40625 111.867188 L 305.339844 111.898438 C 305.253906 111.945312 305.152344 111.96875 305.042969 111.972656 C 304.519531 111.984375 303.761719 111.5 302.761719 110.527344 C 302.699219 110.46875 302.632812 110.421875 302.558594 110.386719 L 302.539062 110.386719 C 301.898438 109.78125 299.292969 106.695312 294.71875 101.132812 C 294.566406 100.949219 294.34375 100.851562 294.121094 100.855469 C 293.953125 100.859375 293.789062 100.917969 293.648438 101.035156 C 293.328125 101.304688 293.285156 101.789062 293.550781 102.117188 C 298.433594 108.054688 301.144531 111.242188 301.679688 111.667969 C 301.757812 111.730469 301.835938 111.777344 301.914062 111.8125 L 301.890625 111.8125 C 303.113281 112.957031 304.1875 113.519531 305.109375 113.503906 C 305.417969 113.496094 305.707031 113.425781 305.980469 113.292969 L 305.976562 113.292969 C 306.464844 113.09375 306.988281 112.683594 307.554688 112.058594 L 307.578125 112.03125 C 311.152344 107.675781 314.613281 103.757812 317.964844 100.285156 L 317.976562 100.273438 C 319.722656 98.390625 323.636719 94.617188 329.722656 88.964844 L 329.746094 88.941406 C 330.542969 88.167969 331.3125 87.316406 332.046875 86.386719 C 332.308594 86.054688 332.257812 85.570312 331.929688 85.304688 C 331.785156 85.1875 331.613281 85.132812 331.441406 85.136719 Z M 331.441406 85.136719 " fill-opacity="1" fill-rule="nonzero"/><path fill="#000000" d="M 343.410156 84.136719 L 343.433594 84.144531 L 343.4375 84.148438 L 343.414062 84.136719 C 344.203125 84.484375 345.132812 85.011719 346.207031 85.722656 L 346.21875 85.730469 C 351.683594 89.507812 357.269531 93.242188 362.984375 96.933594 L 362.992188 96.941406 C 364.96875 98.25 366.113281 99.195312 366.421875 99.765625 C 366.570312 100.039062 366.609375 100.308594 366.539062 100.566406 L 366.460938 99.980469 C 366.546875 100.128906 366.605469 100.292969 366.632812 100.46875 C 366.761719 101.292969 366.160156 102.515625 364.824219 104.140625 L 364.816406 104.152344 C 361.070312 108.542969 357.195312 112.867188 353.199219 117.132812 C 352.910156 117.441406 352.429688 117.453125 352.125 117.160156 C 351.820312 116.871094 351.808594 116.382812 352.097656 116.074219 C 356.078125 111.828125 359.933594 107.519531 363.667969 103.148438 L 363.65625 103.160156 C 364.699219 101.890625 365.191406 101.074219 365.132812 100.710938 C 365.132812 100.722656 365.140625 100.734375 365.148438 100.75 C 365.046875 100.574219 365.019531 100.363281 365.074219 100.164062 C 365.035156 100.300781 365.042969 100.414062 365.089844 100.5 C 364.902344 100.15625 363.925781 99.394531 362.160156 98.226562 L 362.167969 98.230469 C 356.441406 94.53125 350.839844 90.785156 345.363281 87 L 345.378906 87.011719 C 344.375 86.347656 343.519531 85.859375 342.804688 85.546875 L 342.78125 85.535156 C 342.421875 85.375 342.246094 84.921875 342.414062 84.53125 C 342.578125 84.144531 343.027344 83.964844 343.410156 84.136719 Z M 343.410156 84.136719 " fill-opacity="1" fill-rule="nonzero"/><g clip-path="url(#bd3e55be63)"><path fill="#000000" d="M 297.496094 98.988281 C 297.449219 98.988281 297.398438 98.996094 297.347656 99.003906 C 296.941406 99.09375 296.679688 99.503906 296.769531 99.917969 C 297.324219 102.519531 297.398438 104.601562 296.992188 106.164062 L 296.972656 106.164062 C 296.855469 106.34375 296.644531 106.515625 296.339844 106.6875 L 296.332031 106.691406 C 296.222656 106.753906 296.050781 106.832031 295.820312 106.929688 L 295.816406 106.929688 C 294.421875 107.429688 293.535156 107.785156 293.148438 108 C 292.78125 108.203125 292.648438 108.671875 292.847656 109.042969 C 292.988281 109.304688 293.253906 109.449219 293.527344 109.441406 C 293.648438 109.441406 293.769531 109.410156 293.878906 109.347656 C 294.195312 109.171875 295.023438 108.84375 296.363281 108.363281 L 296.398438 108.351562 C 296.6875 108.230469 296.910156 108.125 297.070312 108.035156 C 297.746094 107.660156 298.195312 107.203125 298.425781 106.664062 L 298.460938 106.554688 C 298.929688 104.753906 298.859375 102.433594 298.25 99.59375 C 298.175781 99.230469 297.851562 98.980469 297.496094 98.988281 Z M 297.496094 98.988281 " fill-opacity="1" fill-rule="nonzero"/></g><g clip-path="url(#2cb95b5791)"><path fill="#000000" d="M 330.230469 131.199219 C 329.890625 131.207031 329.585938 131.445312 329.507812 131.792969 C 328.8125 134.796875 328.140625 140.203125 327.488281 148.015625 L 327.484375 148.015625 C 327.113281 152.515625 326.761719 162.269531 326.429688 177.269531 C 326.304688 179.675781 326.152344 181.054688 325.96875 181.414062 L 325.96875 181.417969 L 325.925781 181.511719 C 325.628906 182.296875 324.097656 182.714844 321.328125 182.769531 C 320.777344 182.777344 320.179688 182.773438 319.535156 182.757812 L 319.527344 182.757812 C 315.574219 182.523438 313.136719 182.097656 312.214844 181.488281 L 312.191406 181.488281 C 313.625 180.550781 316.371094 180.042969 320.433594 179.96875 C 321.898438 179.941406 323.527344 179.96875 325.332031 180.050781 C 325.347656 180.054688 325.363281 180.054688 325.378906 180.050781 C 325.777344 180.046875 326.105469 179.726562 326.125 179.320312 C 326.140625 178.894531 325.820312 178.535156 325.398438 178.515625 C 323.664062 178.4375 322.074219 178.410156 320.628906 178.4375 C 315.429688 178.535156 312.085938 179.328125 310.59375 180.816406 C 310.375 181.039062 310.308594 181.371094 310.425781 181.65625 C 311.011719 183.09375 314.015625 183.96875 319.4375 184.289062 L 319.460938 184.292969 C 320.023438 184.308594 320.558594 184.3125 321.0625 184.300781 C 324.667969 184.234375 326.753906 183.503906 327.324219 182.113281 L 327.320312 182.113281 C 327.601562 181.558594 327.808594 179.964844 327.949219 177.328125 L 327.949219 177.304688 C 328.277344 162.414062 328.625 152.71875 328.992188 148.214844 L 328.988281 148.214844 L 329 148.144531 C 329.644531 140.40625 330.308594 135.074219 330.984375 132.144531 C 331.078125 131.730469 330.824219 131.316406 330.417969 131.222656 C 330.355469 131.207031 330.292969 131.199219 330.230469 131.199219 Z M 330.230469 131.199219 " fill-opacity="1" fill-rule="nonzero"/></g><path fill="#000000" d="M 353.652344 178.058594 C 356.148438 178.011719 357.597656 178.550781 358 179.679688 L 357.976562 179.679688 C 357.679688 180.695312 355.597656 181.417969 351.734375 181.84375 L 351.714844 181.84375 C 351.222656 181.871094 350.761719 181.886719 350.324219 181.894531 C 350.203125 181.898438 350.085938 181.898438 349.972656 181.898438 C 346.890625 181.921875 345.351562 181.550781 345.34375 180.785156 C 345.34375 180.675781 345.320312 180.566406 345.273438 180.464844 C 345.183594 180.269531 345.097656 179.933594 345.015625 179.460938 L 344.996094 179.460938 C 348.640625 178.566406 351.527344 178.097656 353.652344 178.058594 Z M 342.648438 131.84375 C 342.265625 131.851562 341.945312 132.144531 341.90625 132.539062 C 341.480469 137.179688 341.417969 143.199219 341.71875 150.589844 L 341.71875 150.601562 L 343.019531 174.359375 C 343.113281 176 343.226562 177.355469 343.351562 178.425781 L 343.332031 178.425781 C 343.164062 178.609375 343.089844 178.875 343.15625 179.132812 C 343.210938 179.351562 343.355469 179.527344 343.539062 179.625 L 343.519531 179.625 C 343.625 180.257812 343.738281 180.726562 343.859375 181.03125 L 343.839844 181.03125 C 344.027344 182.664062 346.074219 183.464844 349.980469 183.4375 C 350.101562 183.4375 350.226562 183.433594 350.347656 183.433594 C 350.820312 183.421875 351.324219 183.402344 351.851562 183.375 L 351.894531 183.371094 C 356.785156 182.832031 359.328125 181.597656 359.519531 179.664062 C 359.53125 179.570312 359.523438 179.472656 359.496094 179.378906 C 358.957031 177.46875 356.910156 176.546875 353.355469 176.613281 C 351.109375 176.65625 348.265625 177.089844 344.8125 177.921875 C 344.714844 176.960938 344.621094 175.742188 344.535156 174.273438 L 343.234375 150.515625 C 342.9375 143.199219 343 137.253906 343.417969 132.683594 C 343.457031 132.257812 343.152344 131.886719 342.734375 131.847656 C 342.703125 131.84375 342.675781 131.84375 342.648438 131.84375 Z M 342.648438 131.84375 " fill-opacity="1" fill-rule="nonzero"/><path fill="#000000" d="M 334.476562 60.953125 C 334.066406 60.953125 333.707031 61.253906 333.640625 61.679688 C 333.613281 61.84375 333.585938 62.101562 333.550781 62.453125 L 333.550781 62.457031 C 333.53125 62.644531 333.519531 62.851562 333.507812 63.085938 C 333.480469 63.640625 333.472656 64.257812 333.484375 64.929688 C 333.492188 65.398438 333.867188 65.777344 334.332031 65.777344 C 334.335938 65.777344 334.339844 65.777344 334.34375 65.777344 C 334.8125 65.769531 335.1875 65.378906 335.179688 64.90625 C 335.167969 64.265625 335.175781 63.6875 335.203125 63.164062 C 335.210938 62.960938 335.222656 62.78125 335.238281 62.625 C 335.269531 62.304688 335.292969 62.078125 335.316406 61.945312 C 335.386719 61.476562 335.070312 61.039062 334.609375 60.964844 C 334.566406 60.957031 334.519531 60.953125 334.476562 60.953125 Z M 334.476562 60.953125 " fill-opacity="1" fill-rule="nonzero"/><path fill="#000000" d="M 343.191406 60.484375 C 342.808594 60.484375 342.460938 60.746094 342.367188 61.140625 C 342.195312 61.871094 342.085938 62.410156 342.039062 62.757812 C 341.988281 63.082031 341.941406 63.632812 341.898438 64.410156 C 341.871094 64.882812 342.226562 65.289062 342.695312 65.316406 C 342.710938 65.316406 342.726562 65.316406 342.746094 65.316406 C 343.191406 65.316406 343.5625 64.964844 343.589844 64.507812 C 343.632812 63.769531 343.675781 63.269531 343.71875 63.015625 L 343.722656 62.984375 C 343.761719 62.695312 343.859375 62.214844 344.015625 61.539062 C 344.125 61.078125 343.84375 60.617188 343.390625 60.507812 C 343.324219 60.488281 343.257812 60.484375 343.191406 60.484375 Z M 343.191406 60.484375 " fill-opacity="1" fill-rule="nonzero"/><path fill="#000000" d="M 45.046875 2.253906 C 44.96875 2.394531 44.921875 2.554688 44.925781 2.722656 C 44.933594 3.21875 45.328125 3.617188 45.816406 3.640625 C 45.835938 3.644531 45.855469 3.644531 45.878906 3.644531 C 46.613281 3.632812 47.335938 3.644531 48.050781 3.679688 C 55.972656 4.066406 62.65625 7.226562 68.097656 13.167969 L 68.09375 13.167969 C 72.988281 19.4375 74.035156 26.378906 71.234375 33.992188 L 71.230469 33.992188 C 67.28125 42.46875 60.652344 47.285156 51.347656 48.445312 L 51.339844 48.445312 C 49.707031 48.585938 48.132812 48.617188 46.609375 48.542969 C 39.097656 48.179688 32.925781 45.191406 28.097656 39.578125 L 28.09375 39.578125 C 23.414062 33.609375 23.027344 26.402344 26.929688 17.957031 C 31.351562 9.527344 37.382812 4.296875 45.027344 2.253906 Z M 46.546875 0.0234375 C 46.472656 0.0195312 46.390625 0.0234375 46.3125 0.0390625 C 37.292969 1.855469 30.277344 7.542969 25.265625 17.09375 L 25.246094 17.136719 C 21.003906 26.285156 21.460938 34.148438 26.617188 40.726562 L 26.640625 40.757812 C 31.828125 46.800781 38.4375 50.015625 46.480469 50.40625 C 48.109375 50.488281 49.796875 50.449219 51.546875 50.296875 L 51.578125 50.292969 C 61.601562 49.046875 68.730469 43.847656 72.964844 34.703125 L 72.996094 34.632812 C 76.042969 26.347656 74.886719 18.792969 69.53125 11.964844 L 69.484375 11.910156 C 63.695312 5.59375 56.585938 2.226562 48.160156 1.816406 C 47.757812 1.796875 47.347656 1.785156 46.9375 1.777344 C 47.296875 1.589844 47.503906 1.183594 47.417969 0.769531 C 47.332031 0.34375 46.964844 0.0429688 46.546875 0.0234375 Z M 46.546875 0.0234375 " fill-opacity="0.996" fill-rule="nonzero"/><path fill="#000000" d="M 40.75 16.960938 C 40.632812 16.957031 40.515625 16.972656 40.398438 17.011719 C 39.910156 17.179688 39.648438 17.707031 39.816406 18.195312 C 40.390625 19.867188 40.910156 21.144531 41.375 22.03125 C 41.535156 22.335938 41.839844 22.515625 42.160156 22.53125 C 42.324219 22.539062 42.488281 22.503906 42.640625 22.425781 C 43.101562 22.1875 43.277344 21.625 43.039062 21.167969 C 42.621094 20.367188 42.136719 19.175781 41.589844 17.589844 C 41.464844 17.21875 41.121094 16.980469 40.75 16.960938 Z M 40.75 16.960938 " fill-opacity="0.996" fill-rule="nonzero"/><path fill="#000000" d="M 51.453125 14.390625 C 51.429688 14.390625 51.410156 14.390625 51.386719 14.390625 C 50.867188 14.402344 50.457031 14.828125 50.472656 15.382812 L 50.46875 15.382812 C 50.476562 15.550781 50.488281 15.769531 50.511719 16.03125 L 50.515625 16.058594 C 50.546875 16.328125 50.667969 17.625 50.878906 19.953125 L 50.878906 19.957031 C 50.953125 20.738281 51.027344 21.394531 51.105469 21.921875 C 51.171875 22.371094 51.546875 22.699219 51.988281 22.722656 C 52.046875 22.722656 52.105469 22.722656 52.167969 22.710938 C 52.679688 22.640625 53.035156 22.167969 52.960938 21.65625 C 52.890625 21.15625 52.816406 20.53125 52.746094 19.785156 C 52.542969 17.511719 52.421875 16.207031 52.382812 15.867188 C 52.359375 15.625 52.347656 15.4375 52.34375 15.304688 L 52.34375 15.257812 C 52.308594 14.785156 51.925781 14.414062 51.453125 14.390625 Z M 51.453125 14.390625 " fill-opacity="0.996" fill-rule="nonzero"/><path fill="#000000" d="M 63.820312 34.992188 C 63.542969 34.980469 63.261719 35.089844 63.066406 35.3125 C 59.007812 39.972656 54.171875 42.554688 48.5625 43.058594 L 48.550781 43.058594 C 47.796875 43.089844 47.070312 43.089844 46.367188 43.054688 C 44.339844 42.957031 42.539062 42.574219 40.964844 41.90625 C 38.347656 40.773438 36.253906 39.25 34.683594 37.335938 C 34.511719 37.121094 34.257812 37.003906 34.003906 36.992188 C 33.78125 36.980469 33.550781 37.050781 33.367188 37.199219 C 32.964844 37.523438 32.902344 38.113281 33.230469 38.511719 C 34.988281 40.664062 37.320312 42.363281 40.214844 43.617188 L 40.222656 43.617188 C 42.003906 44.375 44.019531 44.808594 46.277344 44.917969 C 47.054688 44.957031 47.855469 44.957031 48.691406 44.917969 L 48.730469 44.914062 C 54.84375 44.367188 60.09375 41.570312 64.484375 36.535156 C 64.824219 36.144531 64.78125 35.554688 64.386719 35.21875 C 64.222656 35.078125 64.023438 35.003906 63.820312 34.992188 Z M 63.820312 34.992188 " fill-opacity="0.996" fill-rule="nonzero"/><path fill="#000000" d="M 58.132812 46.429688 C 57.917969 46.417969 57.695312 46.480469 57.511719 46.621094 C 57.101562 46.9375 57.027344 47.519531 57.34375 47.929688 C 66.058594 59.179688 71.351562 71.28125 73.222656 84.234375 C 74.417969 96.167969 72.140625 103.820312 66.390625 107.1875 L 66.371094 107.1875 C 66.191406 107.246094 66.007812 107.296875 65.828125 107.339844 C 65.28125 107.472656 64.753906 107.527344 64.246094 107.503906 C 60.988281 107.34375 58.542969 103.949219 56.90625 97.316406 C 56.175781 94.128906 55.636719 89.890625 55.28125 84.601562 L 55.265625 84.476562 C 55.152344 83.84375 54.976562 78.53125 54.738281 68.539062 L 54.738281 68.511719 L 53.714844 49.839844 C 53.6875 49.359375 53.296875 48.984375 52.824219 48.960938 C 52.792969 48.960938 52.757812 48.960938 52.726562 48.960938 C 52.210938 48.988281 51.8125 49.429688 51.839844 49.941406 L 52.863281 68.613281 C 53.101562 78.679688 53.289062 84.078125 53.417969 84.804688 L 53.414062 84.804688 C 53.773438 90.15625 54.328125 94.464844 55.078125 97.730469 L 55.082031 97.742188 C 56.945312 105.304688 59.921875 109.1875 64.019531 109.386719 C 64.738281 109.421875 65.488281 109.34375 66.277344 109.152344 C 66.550781 109.085938 66.828125 109.003906 67.109375 108.90625 L 67.277344 108.832031 C 73.773438 105.074219 76.375 96.800781 75.085938 84.007812 L 75.078125 83.96875 C 73.164062 70.695312 67.746094 58.300781 58.828125 46.792969 C 58.65625 46.566406 58.394531 46.441406 58.132812 46.429688 Z M 58.132812 46.429688 " fill-opacity="0.996" fill-rule="nonzero"/><g clip-path="url(#c3eef919fd)"><path fill="#000000" d="M 99.132812 3.65625 C 98.828125 3.644531 98.519531 3.777344 98.328125 4.039062 C 95.050781 8.511719 91.5 13.785156 87.675781 19.867188 C 85.679688 22.9375 80.109375 32.394531 70.972656 48.242188 C 68.542969 52.253906 66.707031 55.058594 65.46875 56.65625 C 65.152344 57.0625 65.230469 57.648438 65.640625 57.964844 C 65.796875 58.082031 65.980469 58.148438 66.167969 58.15625 C 66.460938 58.171875 66.761719 58.042969 66.957031 57.792969 C 68.238281 56.136719 70.117188 53.269531 72.589844 49.1875 L 72.597656 49.167969 C 81.734375 33.328125 87.289062 23.894531 89.261719 20.867188 L 89.269531 20.855469 C 93.070312 14.808594 96.59375 9.570312 99.84375 5.136719 C 100.148438 4.722656 100.054688 4.136719 99.636719 3.835938 C 99.484375 3.722656 99.308594 3.667969 99.132812 3.65625 Z M 99.132812 3.65625 " fill-opacity="0.996" fill-rule="nonzero"/></g><g clip-path="url(#e6d9ecefe3)"><path fill="#000000" d="M 52.207031 49.542969 C 52.042969 49.535156 51.871094 49.574219 51.714844 49.65625 C 48.78125 51.238281 43.992188 52.25 37.347656 52.6875 C 34.042969 52.839844 30.730469 52.894531 27.417969 52.855469 L 27.414062 52.855469 C 14.9375 52.765625 6.222656 52.613281 1.273438 52.40625 C 0.753906 52.386719 0.316406 52.785156 0.296875 53.296875 C 0.273438 53.8125 0.671875 54.242188 1.1875 54.269531 C 1.191406 54.269531 1.191406 54.269531 1.195312 54.269531 C 6.167969 54.476562 14.902344 54.628906 27.398438 54.722656 L 27.394531 54.722656 C 30.753906 54.757812 34.105469 54.703125 37.453125 54.550781 L 37.472656 54.550781 C 44.390625 54.089844 49.4375 53.007812 52.609375 51.296875 C 53.066406 51.050781 53.234375 50.484375 52.988281 50.03125 C 52.824219 49.734375 52.523438 49.558594 52.207031 49.542969 Z M 52.207031 49.542969 " fill-opacity="0.996" fill-rule="nonzero"/></g><g clip-path="url(#ab9b1dab4d)"><path fill="#000000" d="M 16.816406 119.109375 C 17.109375 119.125 17.417969 119.25 17.734375 119.492188 C 17.851562 119.585938 17.992188 119.644531 18.140625 119.671875 L 18.125 119.671875 C 18.332031 119.761719 18.671875 120.003906 19.136719 120.394531 L 19.121094 120.394531 C 18.308594 124.460938 17.53125 126.875 16.789062 127.628906 L 16.691406 127.742188 C 16.386719 128.175781 16.09375 128.535156 15.8125 128.824219 C 15.3125 129.34375 14.878906 129.59375 14.515625 129.578125 C 14.367188 129.570312 14.234375 129.519531 14.109375 129.425781 L 14.089844 129.425781 C 13.144531 128.304688 13.332031 125.640625 14.660156 121.425781 L 14.652344 121.425781 C 14.941406 120.769531 15.242188 120.242188 15.546875 119.847656 C 15.941406 119.332031 16.367188 119.085938 16.816406 119.109375 Z M 61.789062 108.066406 C 61.378906 108.046875 60.988281 108.296875 60.851562 108.707031 C 57.375 119.164062 54.519531 127.15625 52.285156 132.675781 C 50.3125 137.445312 48.503906 141.652344 46.859375 145.292969 C 46.277344 146.480469 45.828125 147.128906 45.515625 147.238281 L 45.496094 147.238281 C 45.488281 147.238281 45.476562 147.238281 45.464844 147.238281 C 45.160156 147.222656 44.640625 146.796875 43.902344 145.957031 L 43.898438 145.957031 C 37.863281 137.855469 32.882812 131.722656 28.960938 127.5625 L 28.957031 127.5625 C 23.277344 121.5625 19.882812 118.351562 18.773438 117.921875 C 18.769531 117.917969 18.761719 117.917969 18.757812 117.914062 L 18.738281 117.914062 C 18.066406 117.429688 17.417969 117.171875 16.800781 117.140625 C 15.820312 117.09375 14.90625 117.617188 14.058594 118.710938 C 13.660156 119.226562 13.285156 119.878906 12.933594 120.675781 L 12.898438 120.769531 C 11.339844 125.6875 11.257812 128.972656 12.652344 130.625 L 12.722656 130.699219 C 13.277344 131.226562 13.851562 131.503906 14.449219 131.535156 C 15.3125 131.574219 16.21875 131.101562 17.167969 130.113281 C 17.488281 129.785156 17.8125 129.390625 18.140625 128.933594 L 18.128906 128.929688 C 19.042969 128 19.914062 125.640625 20.730469 121.859375 L 20.746094 121.859375 C 22.355469 123.394531 24.636719 125.71875 27.59375 128.839844 C 31.46875 132.945312 36.398438 139.023438 42.390625 147.066406 L 42.4375 147.121094 C 43.546875 148.394531 44.546875 149.050781 45.441406 149.097656 C 45.578125 149.101562 45.710938 149.09375 45.84375 149.074219 C 45.90625 149.0625 45.96875 149.046875 46.03125 149.03125 L 46.046875 149.027344 C 46.074219 149.019531 46.101562 149.007812 46.128906 149 C 46.933594 148.722656 47.746094 147.75 48.558594 146.082031 L 48.570312 146.054688 C 50.226562 142.390625 52.042969 138.164062 54.023438 133.375 L 54.027344 133.371094 C 56.273438 127.816406 59.144531 119.789062 62.632812 109.289062 C 62.796875 108.800781 62.527344 108.273438 62.039062 108.113281 C 61.953125 108.085938 61.871094 108.070312 61.789062 108.066406 Z M 61.789062 108.066406 " fill-opacity="0.996" fill-rule="nonzero"/></g><path fill="#000000" d="M 30.6875 117.445312 C 30.730469 117.449219 30.777344 117.460938 30.824219 117.484375 L 30.808594 117.480469 C 31.496094 118.257812 32.167969 119.007812 32.820312 119.734375 L 32.804688 119.730469 C 32.777344 119.839844 32.769531 119.953125 32.785156 120.070312 C 33.050781 122.15625 32.984375 123.503906 32.585938 124.101562 C 32.488281 124.246094 32.328125 124.316406 32.109375 124.304688 C 31.746094 124.285156 31.210938 124.050781 30.507812 123.601562 L 30.492188 123.601562 C 29.582031 122.734375 29.226562 121.460938 29.421875 119.789062 L 29.410156 119.789062 C 29.65625 118.882812 29.921875 118.21875 30.207031 117.789062 C 30.367188 117.550781 30.523438 117.4375 30.6875 117.445312 Z M 67.773438 108.3125 C 67.316406 108.289062 66.898438 108.601562 66.808594 109.0625 C 64.910156 118.5 62.878906 129.292969 60.722656 141.4375 C 60.589844 142.148438 60.449219 142.605469 60.308594 142.8125 L 60.296875 142.8125 C 59.914062 142.792969 59.316406 142.449219 58.507812 141.785156 C 52.332031 136.5 48.484375 133.109375 46.953125 131.609375 L 46.914062 131.570312 C 43.652344 128.722656 38.714844 123.570312 32.101562 116.121094 C 32.046875 116.058594 31.984375 116.003906 31.914062 115.957031 C 31.464844 115.664062 31.039062 115.507812 30.632812 115.488281 C 29.894531 115.449219 29.230469 115.875 28.644531 116.761719 C 28.246094 117.355469 27.898438 118.203125 27.601562 119.300781 L 27.574219 119.425781 C 27.265625 121.804688 27.816406 123.65625 29.230469 124.980469 L 29.355469 125.082031 C 30.429688 125.785156 31.351562 126.15625 32.128906 126.191406 C 32.976562 126.234375 33.648438 125.878906 34.148438 125.132812 C 34.605469 124.445312 34.824219 123.382812 34.804688 121.941406 L 34.824219 121.945312 C 39.460938 127.027344 43.078125 130.703125 45.675781 132.96875 L 45.671875 132.96875 C 47.257812 134.519531 51.128906 137.929688 57.285156 143.195312 L 57.296875 143.207031 C 58.425781 144.140625 59.414062 144.628906 60.261719 144.671875 C 60.4375 144.679688 60.609375 144.667969 60.773438 144.636719 L 60.800781 144.632812 C 61.089844 144.570312 61.347656 144.425781 61.574219 144.203125 C 62.015625 143.769531 62.347656 142.957031 62.566406 141.769531 L 62.570312 141.761719 C 64.722656 129.636719 66.75 118.859375 68.648438 109.425781 C 68.75 108.921875 68.417969 108.429688 67.910156 108.328125 C 67.863281 108.320312 67.816406 108.316406 67.773438 108.3125 Z M 67.773438 108.3125 " fill-opacity="0.996" fill-rule="nonzero"/></svg>