<svg xmlns="http://www.w3.org/2000/svg" xmlns:xlink="http://www.w3.org/1999/xlink" width="500" zoomAndPan="magnify" viewBox="0 0 375 234.749995" height="313" preserveAspectRatio="xMidYMid meet" version="1.0"><defs><clipPath id="d4bdcdb69c"><path d="M 0.199219 197.792969 L 374.800781 197.792969 L 374.800781 233.875 L 0.199219 233.875 Z M 0.199219 197.792969 " clip-rule="nonzero"/></clipPath><clipPath id="eccd0fbded"><path d="M 0.199219 16 L 374.800781 16 L 374.800781 229.957031 L 0.199219 229.957031 Z M 0.199219 16 " clip-rule="nonzero"/></clipPath></defs><g clip-path="url(#d4bdcdb69c)"><path fill="#ffde59" d="M 0.199219 197.792969 L 374.835938 197.792969 L 374.835938 233.875 L 0.199219 233.875 Z M 0.199219 197.792969 " fill-opacity="1" fill-rule="nonzero"/></g><path fill="#ffde59" d="M 168.1875 48.332031 C 168.1875 75.027344 146.546875 96.664062 119.855469 96.664062 C 93.164062 96.664062 71.523438 75.027344 71.523438 48.332031 C 71.523438 21.640625 93.164062 0 119.855469 0 C 146.546875 0 168.1875 21.640625 168.1875 48.332031 Z M 168.1875 48.332031 " fill-opacity="1" fill-rule="nonzero"/><g clip-path="url(#eccd0fbded)"><path fill="#545454" d="M 374.46875 101.625 C 374.257812 101.042969 373.878906 100.523438 373.332031 100.144531 L 307.183594 54.296875 C 306.125 53.5625 304.71875 53.5625 303.660156 54.296875 L 241.257812 97.546875 C 239.851562 98.519531 239.503906 100.449219 240.476562 101.851562 C 241.449219 103.253906 243.378906 103.601562 244.777344 102.632812 L 305.421875 60.597656 L 368.636719 104.414062 L 368.636719 223.320312 L 80.972656 223.320312 L 80.972656 206.371094 L 125.328125 206.371094 C 127.035156 206.371094 128.421875 204.984375 128.421875 203.277344 L 128.421875 142.519531 L 191.476562 98.816406 L 254.535156 142.519531 L 254.535156 203.277344 C 254.535156 204.984375 255.917969 206.371094 257.625 206.371094 L 344.3125 206.371094 C 346.019531 206.371094 347.402344 204.984375 347.402344 203.277344 C 347.402344 201.570312 346.019531 200.1875 344.3125 200.1875 L 260.71875 200.1875 L 260.71875 140.902344 C 260.71875 139.886719 260.222656 138.9375 259.386719 138.359375 L 193.238281 92.511719 C 192.179688 91.777344 190.773438 91.777344 189.714844 92.511719 L 123.566406 138.359375 C 122.734375 138.9375 122.238281 139.886719 122.238281 140.902344 L 122.238281 200.1875 L 80.972656 200.1875 L 80.972656 188.53125 C 83.402344 187.855469 85.765625 186.425781 87.835938 184.308594 C 90.265625 181.824219 92.1875 178.605469 93.539062 174.886719 C 93.566406 174.828125 93.597656 174.773438 93.621094 174.710938 C 93.652344 174.636719 93.660156 174.5625 93.683594 174.488281 C 95.1875 170.179688 95.941406 165.226562 95.820312 159.9375 C 95.429688 142.703125 85.816406 130.101562 80.117188 124.125 C 79.535156 123.515625 78.726562 123.167969 77.878906 123.167969 C 77.035156 123.167969 76.226562 123.515625 75.640625 124.125 C 69.945312 130.101562 60.328125 142.703125 59.9375 159.9375 C 59.710938 170.003906 62.621094 178.886719 67.921875 184.308594 C 69.992188 186.425781 72.359375 187.855469 74.789062 188.53125 L 74.789062 200.1875 L 28.996094 200.1875 L 28.996094 168.507812 C 31.425781 167.832031 33.792969 166.402344 35.863281 164.285156 C 41.164062 158.859375 44.074219 149.976562 43.847656 139.914062 C 43.453125 122.679688 33.839844 110.078125 28.144531 104.101562 C 27.558594 103.488281 26.75 103.144531 25.90625 103.144531 C 25.058594 103.144531 24.25 103.488281 23.667969 104.101562 C 17.96875 110.078125 8.355469 122.679688 7.964844 139.914062 C 7.933594 141.203125 7.957031 142.472656 8.03125 143.714844 C 8.03125 143.820312 8.042969 143.925781 8.054688 144.027344 C 8.597656 152.375 11.382812 159.613281 15.949219 164.285156 C 18.019531 166.402344 20.382812 167.832031 22.8125 168.507812 L 22.8125 200.1875 L 3.292969 200.1875 C 1.582031 200.1875 0.199219 201.570312 0.199219 203.277344 C 0.199219 204.984375 1.582031 206.371094 3.292969 206.371094 L 74.789062 206.371094 L 74.789062 223.320312 L 58.984375 223.320312 C 57.277344 223.320312 55.894531 224.703125 55.894531 226.410156 C 55.894531 228.121094 57.277344 229.503906 58.984375 229.503906 L 371.730469 229.503906 C 373.4375 229.503906 374.820312 228.121094 374.820312 226.410156 L 374.820312 103.027344 C 374.820312 102.519531 374.6875 102.046875 374.46875 101.625 Z M 66.121094 160.078125 C 66.203125 156.425781 66.777344 153.011719 67.652344 149.84375 L 89.519531 157.820312 C 89.578125 158.5625 89.621094 159.316406 89.640625 160.078125 C 89.714844 163.429688 89.375 166.632812 88.675781 169.546875 L 66.117188 161.066406 C 66.117188 160.738281 66.113281 160.410156 66.121094 160.078125 Z M 77.878906 130.890625 C 81.644531 135.351562 86.207031 142.171875 88.378906 150.820312 L 69.703125 144.007812 C 72.050781 138.546875 75.167969 134.105469 77.878906 130.890625 Z M 66.734375 167.90625 L 86.605469 175.375 C 85.714844 177.164062 84.648438 178.726562 83.414062 179.984375 C 81.644531 181.796875 79.679688 182.792969 77.878906 182.792969 C 76.082031 182.792969 74.117188 181.796875 72.347656 179.984375 C 69.605469 177.183594 67.664062 172.910156 66.734375 167.90625 Z M 14.144531 140.054688 C 14.226562 136.582031 14.746094 133.320312 15.546875 130.285156 L 37.585938 138.570312 C 37.617188 139.066406 37.652344 139.554688 37.664062 140.054688 C 37.742188 143.574219 37.367188 146.9375 36.597656 149.96875 L 14.140625 141.523438 C 14.132812 141.039062 14.136719 140.546875 14.144531 140.054688 Z M 25.90625 110.867188 C 29.78125 115.464844 34.492188 122.566406 36.582031 131.585938 L 17.535156 124.425781 C 19.902344 118.761719 23.121094 114.167969 25.90625 110.867188 Z M 14.859375 148.402344 L 34.421875 155.757812 C 33.574219 157.375 32.578125 158.796875 31.4375 159.960938 C 29.671875 161.773438 27.703125 162.769531 25.90625 162.769531 C 24.105469 162.769531 22.140625 161.773438 20.371094 159.960938 C 17.726562 157.257812 15.828125 153.183594 14.859375 148.402344 Z M 104.082031 109.902344 C 129.792969 109.902344 150.710938 88.984375 150.710938 63.269531 C 150.710938 37.558594 129.792969 16.640625 104.082031 16.640625 C 78.371094 16.640625 57.453125 37.558594 57.453125 63.269531 C 57.453125 88.984375 78.371094 109.902344 104.082031 109.902344 Z M 104.082031 22.824219 C 126.382812 22.824219 144.527344 40.96875 144.527344 63.269531 C 144.527344 85.574219 126.382812 103.714844 104.082031 103.714844 C 81.777344 103.714844 63.636719 85.574219 63.636719 63.269531 C 63.636719 40.96875 81.777344 22.824219 104.082031 22.824219 Z M 104.082031 22.824219 " fill-opacity="1" fill-rule="nonzero"/></g></svg>