<svg xmlns="http://www.w3.org/2000/svg" xmlns:xlink="http://www.w3.org/1999/xlink" width="500" zoomAndPan="magnify" viewBox="0 0 375 189.750001" height="253" preserveAspectRatio="xMidYMid meet" version="1.0"><defs><clipPath id="bbf9468daf"><path d="M 296 38.648438 L 373.984375 38.648438 L 373.984375 94 L 296 94 Z M 296 38.648438 " clip-rule="nonzero"/></clipPath><clipPath id="d59c0b2f2c"><path d="M 292.652344 98 L 299 98 L 299 110 L 292.652344 110 Z M 292.652344 98 " clip-rule="nonzero"/></clipPath><clipPath id="6d72ed1119"><path d="M 310 131 L 332 131 L 332 184.367188 L 310 184.367188 Z M 310 131 " clip-rule="nonzero"/></clipPath><clipPath id="ae3cd8338d"><path d="M 65 3 L 100.214844 3 L 100.214844 59 L 65 59 Z M 65 3 " clip-rule="nonzero"/></clipPath><clipPath id="5e70d84e95"><path d="M 0.246094 49 L 54 49 L 54 55 L 0.246094 55 Z M 0.246094 49 " clip-rule="nonzero"/></clipPath><clipPath id="66a4efe4c4"><path d="M 11 108 L 63 108 L 63 149.105469 L 11 149.105469 Z M 11 108 " clip-rule="nonzero"/></clipPath><clipPath id="75c8fe7d5c"><path d="M 224 90 L 284 90 L 284 178 L 224 178 Z M 224 90 " clip-rule="nonzero"/></clipPath><clipPath id="63f7023b28"><path d="M 223.949219 178.960938 L 220.546875 90.917969 L 286.578125 88.367188 L 289.980469 176.410156 Z M 223.949219 178.960938 " clip-rule="nonzero"/></clipPath><clipPath id="68b100d8e7"><path d="M 223.949219 178.960938 L 220.546875 90.917969 L 286.578125 88.367188 L 289.980469 176.410156 Z M 223.949219 178.960938 " clip-rule="nonzero"/></clipPath></defs><path fill="#000000" d="M 339.011719 44.125 C 342.121094 44.066406 345.265625 44.757812 348.445312 46.203125 C 354.476562 49.066406 358.222656 53.042969 359.679688 58.132812 L 359.679688 58.136719 C 360.933594 62.414062 359.585938 67.453125 355.640625 73.265625 C 352.074219 78.113281 347.441406 81.394531 341.738281 83.109375 L 341.730469 83.109375 C 340.019531 83.515625 338.316406 83.730469 336.625 83.761719 C 332.5 83.839844 328.429688 82.816406 324.421875 80.691406 C 319.292969 77.886719 316.28125 73.957031 315.386719 68.898438 C 314.6875 63.867188 316.039062 59.269531 319.441406 55.105469 L 319.4375 55.105469 C 324.894531 49.304688 330.25 45.800781 335.503906 44.597656 C 335.613281 44.574219 335.714844 44.523438 335.796875 44.457031 L 335.777344 44.457031 C 336.851562 44.253906 337.929688 44.144531 339.011719 44.125 Z M 338.992188 42.582031 C 336.589844 42.628906 334.207031 43.089844 331.839844 43.972656 C 331.664062 44.039062 331.527344 44.160156 331.445312 44.3125 L 331.421875 44.3125 C 327.097656 46.128906 322.734375 49.371094 318.339844 54.042969 L 318.304688 54.082031 C 314.59375 58.605469 313.117188 63.617188 313.882812 69.113281 L 313.886719 69.140625 C 314.863281 74.699219 318.132812 79 323.699219 82.042969 L 323.707031 82.046875 C 327.953125 84.300781 332.265625 85.386719 336.640625 85.300781 C 338.460938 85.269531 340.289062 85.03125 342.128906 84.597656 L 342.171875 84.585938 C 348.203125 82.765625 353.105469 79.292969 356.875 74.160156 L 356.890625 74.136719 C 361.109375 67.925781 362.527344 62.449219 361.136719 57.707031 C 359.554688 52.167969 355.53125 47.867188 349.078125 44.804688 L 349.066406 44.800781 C 345.675781 43.257812 342.316406 42.519531 338.992188 42.582031 Z M 338.992188 42.582031 " fill-opacity="1" fill-rule="nonzero"/><path fill="#000000" d="M 331.4375 75.128906 C 331.175781 75.136719 330.921875 75.277344 330.785156 75.527344 C 330.582031 75.898438 330.71875 76.367188 331.082031 76.570312 C 333.25 77.785156 335.726562 78.367188 338.519531 78.320312 C 338.527344 78.320312 338.539062 78.320312 338.546875 78.320312 C 340.085938 78.289062 341.65625 78.101562 343.257812 77.757812 C 344.964844 77.410156 346.554688 76.949219 348.023438 76.371094 C 348.414062 76.21875 348.609375 75.773438 348.457031 75.378906 C 348.339844 75.070312 348.046875 74.882812 347.734375 74.886719 C 347.648438 74.886719 347.5625 74.90625 347.476562 74.9375 C 346.089844 75.484375 344.582031 75.921875 342.957031 76.25 L 342.949219 76.253906 C 341.4375 76.578125 339.960938 76.753906 338.519531 76.78125 C 338.507812 76.78125 338.5 76.78125 338.492188 76.78125 C 335.972656 76.828125 333.75 76.308594 331.820312 75.226562 C 331.699219 75.160156 331.566406 75.128906 331.4375 75.128906 Z M 331.4375 75.128906 " fill-opacity="1" fill-rule="nonzero"/><path fill="#000000" d="M 350.167969 46.582031 C 350.105469 46.585938 350.046875 46.59375 349.984375 46.609375 C 346.269531 47.605469 341.6875 48.757812 336.242188 50.066406 L 336.234375 50.066406 L 336.214844 50.074219 C 334.546875 50.511719 333.46875 50.867188 332.980469 51.144531 L 332.976562 51.144531 C 332.894531 51.191406 332.816406 51.242188 332.746094 51.292969 L 332.746094 51.296875 C 332.726562 51.308594 332.707031 51.324219 332.691406 51.339844 C 332.152344 51.792969 332.082031 52.289062 332.488281 52.832031 C 332.535156 52.894531 332.589844 52.949219 332.652344 52.992188 C 334.03125 53.980469 334.78125 54.710938 334.902344 55.179688 L 334.894531 55.179688 C 334.886719 55.316406 334.695312 55.429688 334.320312 55.523438 L 334.316406 55.523438 C 332.425781 55.929688 330.078125 56.160156 327.277344 56.214844 C 326.832031 56.222656 326.371094 56.226562 325.902344 56.226562 L 325.890625 56.226562 C 323.285156 56.265625 320.742188 56.007812 318.261719 55.445312 C 318.203125 55.429688 318.140625 55.425781 318.082031 55.425781 C 317.738281 55.433594 317.433594 55.675781 317.355469 56.027344 C 317.265625 56.441406 317.519531 56.851562 317.929688 56.945312 C 320.527344 57.53125 323.191406 57.804688 325.914062 57.761719 L 325.90625 57.761719 C 326.382812 57.761719 326.847656 57.757812 327.300781 57.75 C 330.214844 57.695312 332.664062 57.453125 334.65625 57.023438 L 334.675781 57.015625 C 336.035156 56.683594 336.605469 55.957031 336.378906 54.835938 L 336.371094 54.792969 C 336.1875 54.085938 335.476562 53.242188 334.238281 52.269531 L 334.21875 52.269531 C 334.726562 52.082031 335.519531 51.84375 336.59375 51.5625 C 342.054688 50.25 346.648438 49.09375 350.375 48.09375 C 350.78125 47.984375 351.019531 47.566406 350.914062 47.15625 C 350.820312 46.804688 350.507812 46.578125 350.167969 46.582031 Z M 350.167969 46.582031 " fill-opacity="1" fill-rule="nonzero"/><g clip-path="url(#bbf9468daf)"><path fill="#000000" d="M 341.667969 38.925781 C 338.867188 38.976562 335.933594 39.316406 332.867188 39.9375 L 332.863281 39.9375 C 320.804688 42.472656 311.765625 48.3125 305.746094 57.457031 L 305.730469 57.484375 C 303.152344 61.761719 302.195312 65.410156 302.855469 68.429688 L 302.847656 68.429688 C 303.121094 71.636719 305.359375 76.835938 309.5625 84.03125 L 309.550781 84.03125 C 310.023438 85.289062 310.214844 86.414062 310.117188 87.40625 L 310.117188 87.433594 C 309.945312 90.214844 307.742188 91.816406 303.5 92.234375 C 300.238281 91.953125 298.523438 90.710938 298.347656 88.511719 L 298.367188 88.511719 C 298.613281 87.070312 299.679688 86.058594 301.566406 85.480469 L 301.546875 85.480469 C 301.648438 85.472656 301.746094 85.464844 301.839844 85.464844 C 301.976562 85.460938 302.105469 85.46875 302.21875 85.480469 C 302.960938 85.578125 303.257812 86.226562 303.105469 87.425781 C 303.050781 87.84375 303.34375 88.230469 303.761719 88.285156 C 303.796875 88.289062 303.835938 88.292969 303.871094 88.292969 C 304.242188 88.285156 304.5625 88.003906 304.609375 87.621094 C 304.890625 85.40625 304.160156 84.183594 302.414062 83.957031 C 302.226562 83.933594 302.023438 83.921875 301.8125 83.925781 C 301.664062 83.929688 301.507812 83.9375 301.347656 83.957031 L 301.210938 83.984375 C 298.578125 84.765625 297.117188 86.261719 296.835938 88.472656 L 296.832031 88.632812 C 297.078125 91.71875 299.28125 93.433594 303.441406 93.773438 L 303.574219 93.773438 C 308.710938 93.28125 311.394531 91.210938 311.628906 87.554688 C 311.75 86.289062 311.515625 84.890625 310.921875 83.359375 L 310.871094 83.246094 C 306.738281 76.179688 304.566406 71.164062 304.355469 68.207031 L 304.339844 68.097656 C 303.765625 65.488281 304.65625 62.226562 307.011719 58.3125 C 312.800781 49.515625 321.515625 43.894531 333.167969 41.445312 C 336.132812 40.84375 338.96875 40.515625 341.675781 40.464844 C 349.5625 40.316406 356.332031 42.507812 361.992188 47.035156 L 361.980469 47.035156 C 364.402344 49.628906 365.554688 52.8125 365.429688 56.585938 L 365.429688 56.683594 C 365.652344 59.101562 364.578125 64.894531 362.210938 74.058594 L 362.195312 74.152344 C 361.9375 76.148438 362.03125 77.644531 362.480469 78.632812 C 363.355469 80.585938 364.875 81.542969 367.03125 81.503906 C 367.816406 81.488281 368.683594 81.339844 369.640625 81.0625 L 369.707031 81.039062 C 372.5625 79.894531 373.886719 77.699219 373.679688 74.457031 L 373.660156 74.328125 C 372.992188 71.46875 371.160156 69.984375 368.15625 69.878906 L 368.074219 69.882812 C 366.15625 70.019531 365.25 70.867188 365.363281 72.421875 C 365.417969 73.207031 365.796875 74.171875 366.503906 75.3125 C 366.652344 75.550781 366.90625 75.675781 367.164062 75.671875 C 367.296875 75.667969 367.429688 75.632812 367.550781 75.554688 C 367.90625 75.328125 368.015625 74.855469 367.792969 74.496094 C 367.21875 73.570312 366.914062 72.84375 366.875 72.3125 C 366.839844 71.789062 367.257812 71.492188 368.132812 71.417969 L 368.15625 71.417969 C 370.355469 71.511719 371.699219 72.597656 372.183594 74.679688 L 372.171875 74.679688 C 372.289062 77.113281 371.28125 78.753906 369.148438 79.609375 L 369.132812 79.609375 C 368.386719 79.824219 367.710938 79.933594 367.109375 79.945312 C 365.539062 79.976562 364.457031 79.324219 363.859375 77.996094 L 363.859375 77.992188 C 363.539062 77.285156 363.480469 76.101562 363.6875 74.445312 L 363.679688 74.445312 C 366.0625 65.222656 367.152344 59.285156 366.949219 56.636719 L 366.945312 56.636719 C 367.085938 52.398438 365.773438 48.816406 363.007812 45.898438 L 362.933594 45.828125 C 356.988281 41.070312 349.898438 38.769531 341.667969 38.925781 Z M 341.667969 38.925781 " fill-opacity="1" fill-rule="nonzero"/></g><path fill="#000000" d="M 342.71875 82.6875 C 342.328125 82.695312 342 83.003906 341.976562 83.40625 C 341.699219 88.027344 342.515625 93.148438 344.421875 98.777344 C 345.601562 102.945312 348.96875 110.289062 354.519531 120.804688 L 354.515625 120.804688 C 355.316406 122.71875 355.78125 124.382812 355.90625 125.804688 L 355.910156 125.808594 C 356.0625 127.378906 355.605469 128.480469 354.546875 129.113281 L 354.542969 129.117188 C 353.199219 129.925781 350.558594 130.523438 346.613281 130.914062 C 343.660156 131.171875 340.773438 131.324219 337.945312 131.378906 C 333.539062 131.460938 329.285156 131.300781 325.183594 130.894531 L 325.175781 130.894531 C 321.238281 130.34375 319.042969 129.175781 318.589844 127.386719 L 318.566406 127.320312 C 318.105469 126.011719 318.445312 123.714844 319.578125 120.429688 C 321.867188 113.980469 325.03125 105.804688 329.070312 95.894531 L 329.089844 95.851562 L 332.90625 84.664062 C 333.042969 84.261719 332.835938 83.824219 332.4375 83.6875 C 332.351562 83.65625 332.261719 83.644531 332.175781 83.644531 C 331.867188 83.652344 331.578125 83.847656 331.472656 84.164062 L 327.652344 95.351562 C 323.613281 105.261719 320.445312 113.445312 318.148438 119.910156 L 318.148438 119.917969 C 316.894531 123.546875 316.554688 126.1875 317.136719 127.835938 C 317.789062 130.253906 320.402344 131.78125 324.96875 132.414062 L 325 132.417969 C 329.171875 132.835938 333.496094 133 337.972656 132.914062 C 340.839844 132.859375 343.765625 132.703125 346.753906 132.445312 L 346.761719 132.445312 C 350.929688 132.03125 353.78125 131.363281 355.316406 130.4375 C 356.933594 129.472656 357.632812 127.882812 357.417969 125.664062 C 357.277344 124.070312 356.765625 122.226562 355.890625 120.140625 L 355.859375 120.082031 C 350.34375 109.628906 347.011719 102.375 345.871094 98.316406 L 345.859375 98.277344 C 344.015625 92.84375 343.226562 87.917969 343.492188 83.5 C 343.515625 83.078125 343.199219 82.714844 342.78125 82.6875 C 342.757812 82.6875 342.738281 82.6875 342.71875 82.6875 Z M 342.71875 82.6875 " fill-opacity="1" fill-rule="nonzero"/><path fill="#000000" d="M 301.761719 110.480469 C 301.613281 110.601562 301.515625 110.773438 301.484375 110.957031 L 301.46875 110.957031 C 301.480469 110.746094 301.570312 110.589844 301.738281 110.484375 Z M 331.441406 85.136719 C 331.222656 85.140625 331.007812 85.238281 330.863281 85.425781 C 330.167969 86.304688 329.445312 87.105469 328.699219 87.828125 L 328.695312 87.832031 C 322.582031 93.511719 318.640625 97.308594 316.867188 99.222656 C 313.492188 102.722656 310.003906 106.664062 306.410156 111.050781 C 306.011719 111.484375 305.675781 111.757812 305.40625 111.867188 L 305.339844 111.898438 C 305.253906 111.945312 305.152344 111.96875 305.042969 111.972656 C 304.519531 111.984375 303.761719 111.5 302.761719 110.527344 C 302.699219 110.46875 302.632812 110.421875 302.558594 110.386719 L 302.539062 110.386719 C 301.898438 109.78125 299.292969 106.695312 294.71875 101.132812 C 294.566406 100.949219 294.34375 100.851562 294.121094 100.855469 C 293.953125 100.859375 293.789062 100.917969 293.648438 101.035156 C 293.328125 101.304688 293.285156 101.789062 293.550781 102.117188 C 298.433594 108.054688 301.144531 111.242188 301.679688 111.667969 C 301.757812 111.730469 301.835938 111.777344 301.914062 111.8125 L 301.890625 111.8125 C 303.113281 112.957031 304.1875 113.519531 305.109375 113.503906 C 305.417969 113.496094 305.707031 113.425781 305.980469 113.292969 L 305.976562 113.292969 C 306.464844 113.09375 306.988281 112.683594 307.554688 112.058594 L 307.578125 112.03125 C 311.152344 107.675781 314.613281 103.757812 317.964844 100.285156 L 317.976562 100.273438 C 319.722656 98.390625 323.636719 94.617188 329.722656 88.964844 L 329.746094 88.941406 C 330.542969 88.167969 331.3125 87.316406 332.046875 86.386719 C 332.308594 86.054688 332.257812 85.570312 331.929688 85.304688 C 331.785156 85.1875 331.613281 85.132812 331.441406 85.136719 Z M 331.441406 85.136719 " fill-opacity="1" fill-rule="nonzero"/><path fill="#000000" d="M 343.410156 84.136719 L 343.433594 84.144531 L 343.4375 84.148438 L 343.414062 84.136719 C 344.203125 84.484375 345.132812 85.011719 346.207031 85.722656 L 346.21875 85.730469 C 351.683594 89.507812 357.269531 93.242188 362.984375 96.933594 L 362.992188 96.941406 C 364.96875 98.25 366.113281 99.195312 366.421875 99.765625 C 366.570312 100.039062 366.609375 100.308594 366.539062 100.566406 L 366.460938 99.980469 C 366.546875 100.128906 366.605469 100.292969 366.632812 100.46875 C 366.761719 101.292969 366.160156 102.515625 364.824219 104.140625 L 364.816406 104.152344 C 361.070312 108.542969 357.195312 112.867188 353.199219 117.132812 C 352.910156 117.441406 352.429688 117.453125 352.125 117.160156 C 351.820312 116.871094 351.808594 116.382812 352.097656 116.074219 C 356.078125 111.828125 359.933594 107.519531 363.667969 103.148438 L 363.65625 103.160156 C 364.699219 101.890625 365.191406 101.074219 365.132812 100.710938 C 365.132812 100.722656 365.140625 100.734375 365.148438 100.75 C 365.046875 100.574219 365.019531 100.363281 365.074219 100.164062 C 365.035156 100.300781 365.042969 100.414062 365.089844 100.5 C 364.902344 100.15625 363.925781 99.394531 362.160156 98.226562 L 362.167969 98.230469 C 356.441406 94.53125 350.839844 90.785156 345.363281 87 L 345.378906 87.011719 C 344.375 86.347656 343.519531 85.859375 342.804688 85.546875 L 342.78125 85.535156 C 342.421875 85.375 342.246094 84.921875 342.414062 84.53125 C 342.578125 84.144531 343.027344 83.964844 343.410156 84.136719 Z M 343.410156 84.136719 " fill-opacity="1" fill-rule="nonzero"/><g clip-path="url(#d59c0b2f2c)"><path fill="#000000" d="M 297.496094 98.988281 C 297.449219 98.988281 297.398438 98.996094 297.347656 99.003906 C 296.941406 99.09375 296.679688 99.503906 296.769531 99.917969 C 297.324219 102.519531 297.398438 104.601562 296.992188 106.164062 L 296.972656 106.164062 C 296.855469 106.34375 296.644531 106.515625 296.339844 106.6875 L 296.332031 106.691406 C 296.222656 106.753906 296.050781 106.832031 295.820312 106.929688 L 295.816406 106.929688 C 294.421875 107.429688 293.535156 107.785156 293.148438 108 C 292.78125 108.203125 292.648438 108.671875 292.847656 109.042969 C 292.988281 109.304688 293.253906 109.449219 293.527344 109.441406 C 293.648438 109.441406 293.769531 109.410156 293.878906 109.347656 C 294.195312 109.171875 295.023438 108.84375 296.363281 108.363281 L 296.398438 108.351562 C 296.6875 108.230469 296.910156 108.125 297.070312 108.035156 C 297.746094 107.660156 298.195312 107.203125 298.425781 106.664062 L 298.460938 106.554688 C 298.929688 104.753906 298.859375 102.433594 298.25 99.59375 C 298.175781 99.230469 297.851562 98.980469 297.496094 98.988281 Z M 297.496094 98.988281 " fill-opacity="1" fill-rule="nonzero"/></g><g clip-path="url(#6d72ed1119)"><path fill="#000000" d="M 330.230469 131.199219 C 329.890625 131.207031 329.585938 131.445312 329.507812 131.792969 C 328.8125 134.796875 328.140625 140.203125 327.488281 148.015625 L 327.484375 148.015625 C 327.113281 152.515625 326.761719 162.269531 326.429688 177.269531 C 326.304688 179.675781 326.152344 181.054688 325.96875 181.414062 L 325.96875 181.417969 L 325.925781 181.511719 C 325.628906 182.296875 324.097656 182.714844 321.328125 182.769531 C 320.777344 182.777344 320.179688 182.773438 319.535156 182.757812 L 319.527344 182.757812 C 315.574219 182.523438 313.136719 182.097656 312.214844 181.488281 L 312.191406 181.488281 C 313.625 180.550781 316.371094 180.042969 320.433594 179.96875 C 321.898438 179.941406 323.527344 179.96875 325.332031 180.050781 C 325.347656 180.054688 325.363281 180.054688 325.378906 180.050781 C 325.777344 180.046875 326.105469 179.726562 326.125 179.320312 C 326.140625 178.894531 325.820312 178.535156 325.398438 178.515625 C 323.664062 178.4375 322.074219 178.410156 320.628906 178.4375 C 315.429688 178.535156 312.085938 179.328125 310.59375 180.816406 C 310.375 181.039062 310.308594 181.371094 310.425781 181.65625 C 311.011719 183.09375 314.015625 183.96875 319.4375 184.289062 L 319.460938 184.292969 C 320.023438 184.308594 320.558594 184.3125 321.0625 184.300781 C 324.667969 184.234375 326.753906 183.503906 327.324219 182.113281 L 327.320312 182.113281 C 327.601562 181.558594 327.808594 179.964844 327.949219 177.328125 L 327.949219 177.304688 C 328.277344 162.414062 328.625 152.71875 328.992188 148.214844 L 328.988281 148.214844 L 329 148.144531 C 329.644531 140.40625 330.308594 135.074219 330.984375 132.144531 C 331.078125 131.730469 330.824219 131.316406 330.417969 131.222656 C 330.355469 131.207031 330.292969 131.199219 330.230469 131.199219 Z M 330.230469 131.199219 " fill-opacity="1" fill-rule="nonzero"/></g><path fill="#000000" d="M 353.652344 178.058594 C 356.148438 178.011719 357.597656 178.550781 358 179.679688 L 357.976562 179.679688 C 357.679688 180.695312 355.597656 181.417969 351.734375 181.84375 L 351.714844 181.84375 C 351.222656 181.871094 350.761719 181.886719 350.324219 181.894531 C 350.203125 181.898438 350.085938 181.898438 349.972656 181.898438 C 346.890625 181.921875 345.351562 181.550781 345.34375 180.785156 C 345.34375 180.675781 345.320312 180.566406 345.273438 180.464844 C 345.183594 180.269531 345.097656 179.933594 345.015625 179.460938 L 344.996094 179.460938 C 348.640625 178.566406 351.527344 178.097656 353.652344 178.058594 Z M 342.648438 131.84375 C 342.265625 131.851562 341.945312 132.144531 341.90625 132.539062 C 341.480469 137.179688 341.417969 143.199219 341.71875 150.589844 L 341.71875 150.601562 L 343.019531 174.359375 C 343.113281 176 343.226562 177.355469 343.351562 178.425781 L 343.332031 178.425781 C 343.164062 178.609375 343.089844 178.875 343.15625 179.132812 C 343.210938 179.351562 343.355469 179.527344 343.539062 179.625 L 343.519531 179.625 C 343.625 180.257812 343.738281 180.726562 343.859375 181.03125 L 343.839844 181.03125 C 344.027344 182.664062 346.074219 183.464844 349.980469 183.4375 C 350.101562 183.4375 350.226562 183.433594 350.347656 183.433594 C 350.820312 183.421875 351.324219 183.402344 351.851562 183.375 L 351.894531 183.371094 C 356.785156 182.832031 359.328125 181.597656 359.519531 179.664062 C 359.53125 179.570312 359.523438 179.472656 359.496094 179.378906 C 358.957031 177.46875 356.910156 176.546875 353.355469 176.613281 C 351.109375 176.65625 348.265625 177.089844 344.8125 177.921875 C 344.714844 176.960938 344.621094 175.742188 344.535156 174.273438 L 343.234375 150.515625 C 342.9375 143.199219 343 137.253906 343.417969 132.683594 C 343.457031 132.257812 343.152344 131.886719 342.734375 131.847656 C 342.703125 131.84375 342.675781 131.84375 342.648438 131.84375 Z M 342.648438 131.84375 " fill-opacity="1" fill-rule="nonzero"/><path fill="#000000" d="M 334.476562 60.953125 C 334.066406 60.953125 333.707031 61.253906 333.640625 61.679688 C 333.613281 61.84375 333.585938 62.101562 333.550781 62.453125 L 333.550781 62.457031 C 333.53125 62.644531 333.519531 62.851562 333.507812 63.085938 C 333.480469 63.640625 333.472656 64.257812 333.484375 64.929688 C 333.492188 65.398438 333.867188 65.777344 334.332031 65.777344 C 334.335938 65.777344 334.339844 65.777344 334.34375 65.777344 C 334.8125 65.769531 335.1875 65.378906 335.179688 64.90625 C 335.167969 64.265625 335.175781 63.6875 335.203125 63.164062 C 335.210938 62.960938 335.222656 62.78125 335.238281 62.625 C 335.269531 62.304688 335.292969 62.078125 335.316406 61.945312 C 335.386719 61.476562 335.070312 61.039062 334.609375 60.964844 C 334.566406 60.957031 334.519531 60.953125 334.476562 60.953125 Z M 334.476562 60.953125 " fill-opacity="1" fill-rule="nonzero"/><path fill="#000000" d="M 343.191406 60.484375 C 342.808594 60.484375 342.460938 60.746094 342.367188 61.140625 C 342.195312 61.871094 342.085938 62.410156 342.039062 62.757812 C 341.988281 63.082031 341.941406 63.632812 341.898438 64.410156 C 341.871094 64.882812 342.226562 65.289062 342.695312 65.316406 C 342.710938 65.316406 342.726562 65.316406 342.746094 65.316406 C 343.191406 65.316406 343.5625 64.964844 343.589844 64.507812 C 343.632812 63.769531 343.675781 63.269531 343.71875 63.015625 L 343.722656 62.984375 C 343.761719 62.695312 343.859375 62.214844 344.015625 61.539062 C 344.125 61.078125 343.84375 60.617188 343.390625 60.507812 C 343.324219 60.488281 343.257812 60.484375 343.191406 60.484375 Z M 343.191406 60.484375 " fill-opacity="1" fill-rule="nonzero"/><path fill="#000000" d="M 45.046875 2.253906 C 44.96875 2.394531 44.921875 2.554688 44.925781 2.722656 C 44.933594 3.21875 45.328125 3.617188 45.816406 3.640625 C 45.835938 3.644531 45.855469 3.644531 45.878906 3.644531 C 46.613281 3.632812 47.335938 3.644531 48.050781 3.679688 C 55.972656 4.066406 62.65625 7.226562 68.097656 13.167969 L 68.09375 13.167969 C 72.988281 19.4375 74.035156 26.378906 71.234375 33.992188 L 71.230469 33.992188 C 67.28125 42.46875 60.652344 47.285156 51.347656 48.445312 L 51.339844 48.445312 C 49.707031 48.585938 48.132812 48.617188 46.609375 48.542969 C 39.097656 48.179688 32.925781 45.191406 28.097656 39.578125 L 28.09375 39.578125 C 23.414062 33.609375 23.027344 26.402344 26.929688 17.957031 C 31.351562 9.527344 37.382812 4.296875 45.027344 2.253906 Z M 46.546875 0.0234375 C 46.472656 0.0195312 46.390625 0.0234375 46.3125 0.0390625 C 37.292969 1.855469 30.277344 7.542969 25.265625 17.09375 L 25.246094 17.136719 C 21.003906 26.285156 21.460938 34.148438 26.617188 40.726562 L 26.640625 40.757812 C 31.828125 46.800781 38.4375 50.015625 46.480469 50.40625 C 48.109375 50.488281 49.796875 50.449219 51.546875 50.296875 L 51.578125 50.292969 C 61.601562 49.046875 68.730469 43.847656 72.964844 34.703125 L 72.996094 34.632812 C 76.042969 26.347656 74.886719 18.792969 69.53125 11.964844 L 69.484375 11.910156 C 63.695312 5.59375 56.585938 2.226562 48.160156 1.816406 C 47.757812 1.796875 47.347656 1.785156 46.9375 1.777344 C 47.296875 1.589844 47.503906 1.183594 47.417969 0.769531 C 47.332031 0.34375 46.964844 0.0429688 46.546875 0.0234375 Z M 46.546875 0.0234375 " fill-opacity="0.996" fill-rule="nonzero"/><path fill="#000000" d="M 40.75 16.960938 C 40.632812 16.957031 40.515625 16.972656 40.398438 17.011719 C 39.910156 17.179688 39.648438 17.707031 39.816406 18.195312 C 40.390625 19.867188 40.910156 21.144531 41.375 22.03125 C 41.535156 22.335938 41.839844 22.515625 42.160156 22.53125 C 42.324219 22.539062 42.488281 22.503906 42.640625 22.425781 C 43.101562 22.1875 43.277344 21.625 43.039062 21.167969 C 42.621094 20.367188 42.136719 19.175781 41.589844 17.589844 C 41.464844 17.21875 41.121094 16.980469 40.75 16.960938 Z M 40.75 16.960938 " fill-opacity="0.996" fill-rule="nonzero"/><path fill="#000000" d="M 51.453125 14.390625 C 51.429688 14.390625 51.410156 14.390625 51.386719 14.390625 C 50.867188 14.402344 50.457031 14.828125 50.472656 15.382812 L 50.46875 15.382812 C 50.476562 15.550781 50.488281 15.769531 50.511719 16.03125 L 50.515625 16.058594 C 50.546875 16.328125 50.667969 17.625 50.878906 19.953125 L 50.878906 19.957031 C 50.953125 20.738281 51.027344 21.394531 51.105469 21.921875 C 51.171875 22.371094 51.546875 22.699219 51.988281 22.722656 C 52.046875 22.722656 52.105469 22.722656 52.167969 22.710938 C 52.679688 22.640625 53.035156 22.167969 52.960938 21.65625 C 52.890625 21.15625 52.816406 20.53125 52.746094 19.785156 C 52.542969 17.511719 52.421875 16.207031 52.382812 15.867188 C 52.359375 15.625 52.347656 15.4375 52.34375 15.304688 L 52.34375 15.257812 C 52.308594 14.785156 51.925781 14.414062 51.453125 14.390625 Z M 51.453125 14.390625 " fill-opacity="0.996" fill-rule="nonzero"/><path fill="#000000" d="M 63.820312 34.992188 C 63.542969 34.980469 63.261719 35.089844 63.066406 35.3125 C 59.007812 39.972656 54.171875 42.554688 48.5625 43.058594 L 48.550781 43.058594 C 47.796875 43.089844 47.070312 43.089844 46.367188 43.054688 C 44.339844 42.957031 42.539062 42.574219 40.964844 41.90625 C 38.347656 40.773438 36.253906 39.25 34.683594 37.335938 C 34.511719 37.121094 34.257812 37.003906 34.003906 36.992188 C 33.78125 36.980469 33.550781 37.050781 33.367188 37.199219 C 32.964844 37.523438 32.902344 38.113281 33.230469 38.511719 C 34.988281 40.664062 37.320312 42.363281 40.214844 43.617188 L 40.222656 43.617188 C 42.003906 44.375 44.019531 44.808594 46.277344 44.917969 C 47.054688 44.957031 47.855469 44.957031 48.691406 44.917969 L 48.730469 44.914062 C 54.84375 44.367188 60.09375 41.570312 64.484375 36.535156 C 64.824219 36.144531 64.78125 35.554688 64.386719 35.21875 C 64.222656 35.078125 64.023438 35.003906 63.820312 34.992188 Z M 63.820312 34.992188 " fill-opacity="0.996" fill-rule="nonzero"/><path fill="#000000" d="M 58.132812 46.429688 C 57.917969 46.417969 57.695312 46.480469 57.511719 46.621094 C 57.101562 46.9375 57.027344 47.519531 57.34375 47.929688 C 66.058594 59.179688 71.351562 71.28125 73.222656 84.234375 C 74.417969 96.167969 72.140625 103.820312 66.390625 107.1875 L 66.371094 107.1875 C 66.191406 107.246094 66.007812 107.296875 65.828125 107.339844 C 65.28125 107.472656 64.753906 107.527344 64.246094 107.503906 C 60.988281 107.34375 58.542969 103.949219 56.90625 97.316406 C 56.175781 94.128906 55.636719 89.890625 55.28125 84.601562 L 55.265625 84.476562 C 55.152344 83.84375 54.976562 78.53125 54.738281 68.539062 L 54.738281 68.511719 L 53.714844 49.839844 C 53.6875 49.359375 53.296875 48.984375 52.824219 48.960938 C 52.792969 48.960938 52.757812 48.960938 52.726562 48.960938 C 52.210938 48.988281 51.8125 49.429688 51.839844 49.941406 L 52.863281 68.613281 C 53.101562 78.679688 53.289062 84.078125 53.417969 84.804688 L 53.414062 84.804688 C 53.773438 90.15625 54.328125 94.464844 55.078125 97.730469 L 55.082031 97.742188 C 56.945312 105.304688 59.921875 109.1875 64.019531 109.386719 C 64.738281 109.421875 65.488281 109.34375 66.277344 109.152344 C 66.550781 109.085938 66.828125 109.003906 67.109375 108.90625 L 67.277344 108.832031 C 73.773438 105.074219 76.375 96.800781 75.085938 84.007812 L 75.078125 83.96875 C 73.164062 70.695312 67.746094 58.300781 58.828125 46.792969 C 58.65625 46.566406 58.394531 46.441406 58.132812 46.429688 Z M 58.132812 46.429688 " fill-opacity="0.996" fill-rule="nonzero"/><g clip-path="url(#ae3cd8338d)"><path fill="#000000" d="M 99.132812 3.65625 C 98.828125 3.644531 98.519531 3.777344 98.328125 4.039062 C 95.050781 8.511719 91.5 13.785156 87.675781 19.867188 C 85.679688 22.9375 80.109375 32.394531 70.972656 48.242188 C 68.542969 52.253906 66.707031 55.058594 65.46875 56.65625 C 65.152344 57.0625 65.230469 57.648438 65.640625 57.964844 C 65.796875 58.082031 65.980469 58.148438 66.167969 58.15625 C 66.460938 58.171875 66.761719 58.042969 66.957031 57.792969 C 68.238281 56.136719 70.117188 53.269531 72.589844 49.1875 L 72.597656 49.167969 C 81.734375 33.328125 87.289062 23.894531 89.261719 20.867188 L 89.269531 20.855469 C 93.070312 14.808594 96.59375 9.570312 99.84375 5.136719 C 100.148438 4.722656 100.054688 4.136719 99.636719 3.835938 C 99.484375 3.722656 99.308594 3.667969 99.132812 3.65625 Z M 99.132812 3.65625 " fill-opacity="0.996" fill-rule="nonzero"/></g><g clip-path="url(#5e70d84e95)"><path fill="#000000" d="M 52.207031 49.542969 C 52.042969 49.535156 51.871094 49.574219 51.714844 49.65625 C 48.78125 51.238281 43.992188 52.25 37.347656 52.6875 C 34.042969 52.839844 30.730469 52.894531 27.417969 52.855469 L 27.414062 52.855469 C 14.9375 52.765625 6.222656 52.613281 1.273438 52.40625 C 0.753906 52.386719 0.316406 52.785156 0.296875 53.296875 C 0.273438 53.8125 0.671875 54.242188 1.1875 54.269531 C 1.191406 54.269531 1.191406 54.269531 1.195312 54.269531 C 6.167969 54.476562 14.902344 54.628906 27.398438 54.722656 L 27.394531 54.722656 C 30.753906 54.757812 34.105469 54.703125 37.453125 54.550781 L 37.472656 54.550781 C 44.390625 54.089844 49.4375 53.007812 52.609375 51.296875 C 53.066406 51.050781 53.234375 50.484375 52.988281 50.03125 C 52.824219 49.734375 52.523438 49.558594 52.207031 49.542969 Z M 52.207031 49.542969 " fill-opacity="0.996" fill-rule="nonzero"/></g><g clip-path="url(#66a4efe4c4)"><path fill="#000000" d="M 16.816406 119.109375 C 17.109375 119.125 17.417969 119.25 17.734375 119.492188 C 17.851562 119.585938 17.992188 119.644531 18.140625 119.671875 L 18.125 119.671875 C 18.332031 119.761719 18.671875 120.003906 19.136719 120.394531 L 19.121094 120.394531 C 18.308594 124.460938 17.53125 126.875 16.789062 127.628906 L 16.691406 127.742188 C 16.386719 128.175781 16.09375 128.535156 15.8125 128.824219 C 15.3125 129.34375 14.878906 129.59375 14.515625 129.578125 C 14.367188 129.570312 14.234375 129.519531 14.109375 129.425781 L 14.089844 129.425781 C 13.144531 128.304688 13.332031 125.640625 14.660156 121.425781 L 14.652344 121.425781 C 14.941406 120.769531 15.242188 120.242188 15.546875 119.847656 C 15.941406 119.332031 16.367188 119.085938 16.816406 119.109375 Z M 61.789062 108.066406 C 61.378906 108.046875 60.988281 108.296875 60.851562 108.707031 C 57.375 119.164062 54.519531 127.15625 52.285156 132.675781 C 50.3125 137.445312 48.503906 141.652344 46.859375 145.292969 C 46.277344 146.480469 45.828125 147.128906 45.515625 147.238281 L 45.496094 147.238281 C 45.488281 147.238281 45.476562 147.238281 45.464844 147.238281 C 45.160156 147.222656 44.640625 146.796875 43.902344 145.957031 L 43.898438 145.957031 C 37.863281 137.855469 32.882812 131.722656 28.960938 127.5625 L 28.957031 127.5625 C 23.277344 121.5625 19.882812 118.351562 18.773438 117.921875 C 18.769531 117.917969 18.761719 117.917969 18.757812 117.914062 L 18.738281 117.914062 C 18.066406 117.429688 17.417969 117.171875 16.800781 117.140625 C 15.820312 117.09375 14.90625 117.617188 14.058594 118.710938 C 13.660156 119.226562 13.285156 119.878906 12.933594 120.675781 L 12.898438 120.769531 C 11.339844 125.6875 11.257812 128.972656 12.652344 130.625 L 12.722656 130.699219 C 13.277344 131.226562 13.851562 131.503906 14.449219 131.535156 C 15.3125 131.574219 16.21875 131.101562 17.167969 130.113281 C 17.488281 129.785156 17.8125 129.390625 18.140625 128.933594 L 18.128906 128.929688 C 19.042969 128 19.914062 125.640625 20.730469 121.859375 L 20.746094 121.859375 C 22.355469 123.394531 24.636719 125.71875 27.59375 128.839844 C 31.46875 132.945312 36.398438 139.023438 42.390625 147.066406 L 42.4375 147.121094 C 43.546875 148.394531 44.546875 149.050781 45.441406 149.097656 C 45.578125 149.101562 45.710938 149.09375 45.84375 149.074219 C 45.90625 149.0625 45.96875 149.046875 46.03125 149.03125 L 46.046875 149.027344 C 46.074219 149.019531 46.101562 149.007812 46.128906 149 C 46.933594 148.722656 47.746094 147.75 48.558594 146.082031 L 48.570312 146.054688 C 50.226562 142.390625 52.042969 138.164062 54.023438 133.375 L 54.027344 133.371094 C 56.273438 127.816406 59.144531 119.789062 62.632812 109.289062 C 62.796875 108.800781 62.527344 108.273438 62.039062 108.113281 C 61.953125 108.085938 61.871094 108.070312 61.789062 108.066406 Z M 61.789062 108.066406 " fill-opacity="0.996" fill-rule="nonzero"/></g><path fill="#000000" d="M 30.6875 117.445312 C 30.730469 117.449219 30.777344 117.460938 30.824219 117.484375 L 30.808594 117.480469 C 31.496094 118.257812 32.167969 119.007812 32.820312 119.734375 L 32.804688 119.730469 C 32.777344 119.839844 32.769531 119.953125 32.785156 120.070312 C 33.050781 122.15625 32.984375 123.503906 32.585938 124.101562 C 32.488281 124.246094 32.328125 124.316406 32.109375 124.304688 C 31.746094 124.285156 31.210938 124.050781 30.507812 123.601562 L 30.492188 123.601562 C 29.582031 122.734375 29.226562 121.460938 29.421875 119.789062 L 29.410156 119.789062 C 29.65625 118.882812 29.921875 118.21875 30.207031 117.789062 C 30.367188 117.550781 30.523438 117.4375 30.6875 117.445312 Z M 67.773438 108.3125 C 67.316406 108.289062 66.898438 108.601562 66.808594 109.0625 C 64.910156 118.5 62.878906 129.292969 60.722656 141.4375 C 60.589844 142.148438 60.449219 142.605469 60.308594 142.8125 L 60.296875 142.8125 C 59.914062 142.792969 59.316406 142.449219 58.507812 141.785156 C 52.332031 136.5 48.484375 133.109375 46.953125 131.609375 L 46.914062 131.570312 C 43.652344 128.722656 38.714844 123.570312 32.101562 116.121094 C 32.046875 116.058594 31.984375 116.003906 31.914062 115.957031 C 31.464844 115.664062 31.039062 115.507812 30.632812 115.488281 C 29.894531 115.449219 29.230469 115.875 28.644531 116.761719 C 28.246094 117.355469 27.898438 118.203125 27.601562 119.300781 L 27.574219 119.425781 C 27.265625 121.804688 27.816406 123.65625 29.230469 124.980469 L 29.355469 125.082031 C 30.429688 125.785156 31.351562 126.15625 32.128906 126.191406 C 32.976562 126.234375 33.648438 125.878906 34.148438 125.132812 C 34.605469 124.445312 34.824219 123.382812 34.804688 121.941406 L 34.824219 121.945312 C 39.460938 127.027344 43.078125 130.703125 45.675781 132.96875 L 45.671875 132.96875 C 47.257812 134.519531 51.128906 137.929688 57.285156 143.195312 L 57.296875 143.207031 C 58.425781 144.140625 59.414062 144.628906 60.261719 144.671875 C 60.4375 144.679688 60.609375 144.667969 60.773438 144.636719 L 60.800781 144.632812 C 61.089844 144.570312 61.347656 144.425781 61.574219 144.203125 C 62.015625 143.769531 62.347656 142.957031 62.566406 141.769531 L 62.570312 141.761719 C 64.722656 129.636719 66.75 118.859375 68.648438 109.425781 C 68.75 108.921875 68.417969 108.429688 67.910156 108.328125 C 67.863281 108.320312 67.816406 108.316406 67.773438 108.3125 Z M 67.773438 108.3125 " fill-opacity="0.996" fill-rule="nonzero"/><g clip-path="url(#75c8fe7d5c)"><g clip-path="url(#63f7023b28)"><g clip-path="url(#68b100d8e7)"><path fill="#0cc0df" d="M 231.363281 131.25 C 231.449219 147.820312 229.332031 157.792969 229.097656 158.089844 C 227.316406 165.785156 223.648438 171.207031 224.660156 174.558594 C 225.386719 176.957031 227.335938 178.816406 233.164062 177.03125 C 248.289062 172.414062 251.285156 167.707031 257.671875 159.519531 C 269.554688 144.28125 287.925781 119.875 281.894531 101.503906 C 278.125 90.019531 255.453125 89.097656 243.5 90.722656 C 224.953125 93.242188 231.199219 100.773438 231.363281 131.25 Z M 231.363281 131.25 " fill-opacity="1" fill-rule="nonzero"/></g></g></g><path fill="#0cc0df" d="M 101.613281 152.257812 C 104.957031 166.371094 115.980469 169.820312 134.023438 173.476562 C 165.160156 179.78125 216.261719 183.9375 224.984375 153.503906 C 227.839844 143.535156 229.886719 110.386719 216.316406 98.875 C 206.921875 90.902344 183.964844 84.6875 178.296875 82.90625 C 131.820312 68.355469 122.707031 69.835938 114.792969 74.296875 C 99.417969 82.957031 98.386719 138.65625 101.613281 152.257812 Z M 101.613281 152.257812 " fill-opacity="1" fill-rule="nonzero"/><path fill="#000001" d="M 186.988281 94.828125 C 185.238281 98.398438 184.957031 102.058594 184.945312 103.910156 C 184.917969 108.46875 186.222656 111.253906 186.804688 111.261719 C 187.058594 111.261719 188.019531 110.089844 188.160156 104.320312 C 188.246094 100.632812 187.855469 97.464844 186.988281 94.828125 Z M 189.238281 123.953125 C 189.488281 126.363281 189.484375 129.503906 189.300781 132.570312 C 218.082031 132.484375 242.6875 131.839844 246.894531 131.082031 C 243.210938 127.453125 236.882812 121.785156 234.210938 121.3125 C 230.757812 120.703125 195.851562 119.867188 191.632812 120.140625 C 190.785156 120.195312 189.894531 121.636719 189.238281 123.953125 Z M 188.410156 128.503906 C 188.28125 129.773438 188.21875 131.144531 188.234375 132.574219 C 188.246094 132.574219 188.253906 132.574219 188.261719 132.574219 C 188.347656 131.210938 188.398438 129.828125 188.410156 128.503906 Z M 128.011719 130.804688 C 130.886719 131.9375 154.296875 132.652344 187.238281 132.578125 C 187.207031 129.535156 187.554688 126.378906 188.230469 123.890625 C 188.109375 122.769531 187.929688 121.835938 187.671875 121.1875 C 187.484375 120.71875 187.265625 120.4375 187.085938 120.4375 C 185.6875 120.4375 177.59375 120.65625 168.222656 120.910156 C 155.992188 121.238281 142.125 121.613281 138.988281 121.613281 C 136.078125 121.613281 130.695312 126.570312 128.011719 130.804688 Z M 188.78125 137.949219 C 189.460938 141.136719 190.808594 143.628906 193.085938 143.683594 C 199.695312 143.851562 234.527344 143.734375 245.042969 143.695312 C 246.285156 143.691406 247.320312 142.714844 247.398438 141.472656 C 247.585938 138.511719 247.851562 135.035156 248.226562 131.488281 C 248.207031 131.542969 248.171875 131.59375 248.132812 131.644531 C 247.875 131.945312 247.390625 132.511719 228.867188 133.027344 C 218.082031 133.328125 203.671875 133.523438 189.234375 133.566406 C 189.125 135.101562 188.96875 136.597656 188.78125 137.949219 Z M 151.585938 157.953125 C 169.300781 158.683594 214.445312 160.25 242.160156 158.570312 C 241.523438 157.90625 240.789062 157.503906 239.953125 157.441406 C 202.941406 154.546875 166.75 156.742188 151.585938 157.953125 Z M 239.847656 161.664062 C 239.652344 161.664062 239.476562 161.753906 239.363281 161.910156 C 239.25 162.070312 239.21875 162.265625 239.28125 162.449219 L 243.632812 175.417969 C 243.71875 175.675781 243.972656 175.84375 244.238281 175.824219 L 245.320312 175.753906 C 245.632812 175.734375 245.878906 175.46875 245.878906 175.152344 C 245.835938 170.261719 245.273438 165.136719 243.957031 161.664062 Z M 123.632812 158.324219 C 125.851562 159.207031 128.183594 159.558594 129.539062 159.699219 C 129.972656 159.742188 130.371094 159.96875 130.636719 160.3125 C 130.902344 160.660156 131.015625 161.105469 130.945312 161.539062 L 128.398438 177.25 C 128.371094 177.425781 128.417969 177.597656 128.535156 177.730469 C 128.648438 177.867188 128.808594 177.941406 128.988281 177.941406 L 130.953125 177.941406 C 131.234375 177.941406 131.472656 177.753906 131.535156 177.480469 L 135.832031 159.058594 C 135.875 158.878906 135.835938 158.695312 135.71875 158.550781 C 135.605469 158.40625 135.433594 158.324219 135.25 158.324219 Z M 100.316406 157.328125 L 119.890625 157.328125 C 118.953125 156.566406 118.15625 155.636719 117.628906 154.503906 C 115.269531 149.433594 104.933594 118.191406 109.113281 111.117188 C 109.695312 110.132812 110.519531 109.597656 111.570312 109.527344 C 116.792969 109.164062 119.503906 118.851562 122.136719 128.210938 C 124.078125 135.128906 126.089844 142.277344 128.820312 143.746094 C 131.570312 145.222656 143.496094 145.910156 159.207031 145.496094 C 174.855469 145.085938 185.582031 143.847656 186.546875 142.9375 C 186.96875 142.542969 187.40625 140.574219 187.753906 137.949219 C 187.492188 136.652344 187.328125 135.1875 187.265625 133.574219 C 172.253906 133.601562 129.980469 133.503906 127.207031 131.492188 C 126.828125 131.222656 126.820312 130.835938 126.980469 130.574219 C 129.515625 126.417969 135.308594 120.617188 138.988281 120.617188 C 142.109375 120.617188 155.96875 120.242188 168.195312 119.914062 C 177.574219 119.660156 185.675781 119.441406 187.085938 119.441406 C 187.722656 119.441406 188.230469 119.90625 188.597656 120.820312 C 188.714844 121.121094 188.820312 121.480469 188.914062 121.882812 C 189.609375 120.261719 190.503906 119.21875 191.570312 119.148438 C 195.804688 118.871094 230.90625 119.71875 234.386719 120.332031 C 238.128906 120.992188 247.089844 129.863281 248.097656 130.875 C 248.1875 130.960938 248.242188 131.070312 248.261719 131.179688 C 249.375 120.855469 251.425781 110.019531 255.140625 109.53125 C 255.757812 109.449219 256.035156 109.285156 256.035156 109.15625 C 256.054688 107.898438 249.714844 104 245.113281 103.253906 C 243.941406 103.0625 242.902344 103.320312 241.929688 104.046875 C 238.46875 106.632812 237.152344 114.289062 236.746094 117.460938 C 236.585938 118.710938 235.480469 119.59375 234.222656 119.476562 C 228.894531 118.964844 213.777344 117.773438 188.515625 117.773438 C 163.59375 117.773438 144.914062 119.050781 139.78125 119.445312 C 138.773438 119.519531 137.882812 118.832031 137.703125 117.835938 C 137.179688 114.917969 135.011719 105.246094 129.207031 103.230469 C 127.726562 102.71875 125.148438 103.480469 122.535156 104.625 C 119.199219 108.09375 114.980469 108.742188 114.910156 108.75 C 114.679688 108.785156 114.457031 108.652344 114.375 108.433594 C 114.292969 108.214844 114.375 107.96875 114.566406 107.84375 C 114.820312 107.675781 118.324219 105.382812 122.0625 103.738281 C 123.984375 101.613281 125.535156 98.394531 125.535156 93.535156 C 125.535156 91.058594 126.375 89.015625 128.03125 87.457031 C 133.179688 82.625 145.140625 83.375 153.875 83.925781 C 156.242188 84.074219 158.285156 84.203125 159.894531 84.203125 C 161.09375 84.203125 162.492188 84.121094 163.972656 84.035156 C 170.257812 83.667969 178.867188 83.164062 184.199219 88.320312 C 185.402344 89.480469 186.386719 90.890625 187.15625 92.539062 C 187.453125 92.085938 187.773438 91.640625 188.128906 91.203125 C 191.695312 86.773438 197.191406 84.519531 204.457031 84.496094 C 208.53125 84.484375 212.378906 84.425781 215.769531 84.375 C 236.882812 84.050781 247.484375 83.886719 248.539062 95.648438 C 249.183594 102.882812 252.382812 103.785156 256.085938 104.828125 C 258.898438 105.621094 261.808594 106.441406 263.699219 110.089844 C 267.15625 116.769531 261.824219 142.382812 255.859375 153.425781 C 253.988281 156.890625 252.167969 158.734375 250.449219 158.910156 C 248.460938 159.117188 246.320312 159.292969 244.046875 159.449219 C 244.261719 159.828125 244.460938 160.238281 244.648438 160.667969 L 265.796875 160.667969 C 265.808594 160.667969 265.824219 160.667969 265.835938 160.667969 C 265.941406 160.675781 266.453125 161.710938 265.78125 161.664062 L 245.035156 161.664062 C 246.5625 165.964844 246.847656 171.867188 246.875 175.144531 C 246.878906 175.988281 246.226562 176.691406 245.386719 176.746094 L 244.304688 176.820312 C 243.582031 176.863281 242.917969 176.421875 242.6875 175.734375 L 238.335938 162.765625 C 238.171875 162.277344 238.25 161.75 238.554688 161.328125 C 238.855469 160.910156 239.328125 160.667969 239.847656 160.667969 L 243.535156 160.667969 C 243.339844 160.25 243.128906 159.867188 242.90625 159.523438 C 208.09375 161.71875 144.753906 158.652344 144.066406 158.617188 C 143.808594 158.605469 143.601562 158.394531 143.59375 158.136719 C 143.585938 157.875 143.78125 157.652344 144.039062 157.625 C 144.511719 157.578125 191.566406 152.660156 240.03125 156.449219 C 241.421875 156.554688 242.53125 157.316406 243.417969 158.492188 C 245.890625 158.328125 248.210938 158.140625 250.34375 157.921875 C 251.289062 157.824219 252.859375 156.882812 254.980469 152.953125 C 260.761719 142.253906 266.070312 116.835938 262.8125 110.546875 C 261.121094 107.285156 258.542969 106.558594 255.816406 105.785156 C 252.097656 104.738281 248.253906 103.652344 247.546875 95.738281 C 246.574219 84.898438 236.925781 85.046875 215.785156 85.371094 C 212.390625 85.421875 208.539062 85.480469 204.460938 85.492188 C 195.058594 85.523438 190.160156 89.367188 187.625 93.648438 C 188.742188 96.5625 189.253906 100.136719 189.152344 104.34375 C 189.027344 109.617188 188.230469 112.28125 186.789062 112.257812 C 185.003906 112.234375 183.925781 107.902344 183.949219 103.902344 C 183.964844 101.5625 184.351562 97.453125 186.523438 93.578125 C 185.773438 91.769531 184.765625 90.253906 183.507812 89.035156 C 178.488281 84.1875 170.472656 84.652344 164.03125 85.027344 C 162.535156 85.117188 161.121094 85.199219 159.894531 85.199219 C 158.253906 85.199219 156.195312 85.070312 153.8125 84.917969 C 145.261719 84.382812 133.546875 83.644531 128.714844 88.183594 C 127.242188 89.5625 126.53125 91.3125 126.53125 93.535156 C 126.53125 97.734375 125.40625 100.792969 123.855469 103.015625 C 126.027344 102.222656 128.117188 101.800781 129.53125 102.289062 C 135.679688 104.421875 137.980469 113.75 138.683594 117.660156 C 138.769531 118.148438 139.210938 118.488281 139.707031 118.449219 C 144.847656 118.058594 163.558594 116.777344 188.515625 116.777344 C 213.820312 116.777344 228.976562 117.972656 234.316406 118.484375 C 235.039062 118.554688 235.667969 118.050781 235.757812 117.335938 C 236.28125 113.238281 237.699219 105.960938 241.335938 103.25 C 242.515625 102.367188 243.84375 102.035156 245.273438 102.269531 C 249.386719 102.9375 257.066406 106.832031 257.03125 109.171875 C 257.023438 109.683594 256.710938 110.328125 255.273438 110.519531 C 252.207031 110.921875 249.570312 122.804688 248.394531 141.535156 C 248.28125 143.300781 246.8125 144.683594 245.046875 144.691406 C 234.527344 144.730469 199.6875 144.847656 193.058594 144.679688 C 190.996094 144.628906 189.394531 143.070312 188.394531 140.300781 C 188.054688 142.019531 187.65625 143.261719 187.230469 143.660156 C 185.425781 145.367188 168.125 146.257812 159.230469 146.492188 C 146.601562 146.824219 131.859375 146.507812 128.347656 144.621094 C 125.246094 142.953125 123.269531 135.925781 121.175781 128.480469 C 118.769531 119.921875 116.042969 110.21875 111.636719 110.519531 C 110.925781 110.570312 110.378906 110.929688 109.96875 111.625 C 106.042969 118.277344 116.292969 149.269531 118.53125 154.082031 C 119.179688 155.476562 120.304688 156.53125 121.613281 157.328125 L 135.25 157.328125 C 135.742188 157.328125 136.195312 157.546875 136.5 157.933594 C 136.804688 158.316406 136.914062 158.808594 136.804688 159.285156 L 132.507812 177.707031 C 132.335938 178.429688 131.699219 178.9375 130.953125 178.9375 L 128.988281 178.9375 C 128.519531 178.9375 128.078125 178.734375 127.773438 178.378906 C 127.472656 178.019531 127.339844 177.550781 127.414062 177.089844 L 129.960938 161.378906 C 129.988281 161.214844 129.949219 161.050781 129.847656 160.917969 C 129.746094 160.789062 129.601562 160.707031 129.4375 160.691406 C 127.625 160.503906 124.171875 159.949219 121.351562 158.324219 L 100.316406 158.324219 C 98.929688 158.324219 98.554688 157.328125 100.316406 157.328125 " fill-opacity="1" fill-rule="nonzero"/></svg>