<svg xmlns="http://www.w3.org/2000/svg" xmlns:xlink="http://www.w3.org/1999/xlink" width="500" zoomAndPan="magnify" viewBox="0 0 375 189.750001" height="253" preserveAspectRatio="xMidYMid meet" version="1.0"><defs><clipPath id="690809d8be"><path d="M 296 38.648438 L 374.753906 38.648438 L 374.753906 94 L 296 94 Z M 296 38.648438 " clip-rule="nonzero"/></clipPath><clipPath id="ac4d2ce92a"><path d="M 292.652344 98 L 299 98 L 299 110 L 292.652344 110 Z M 292.652344 98 " clip-rule="nonzero"/></clipPath><clipPath id="2fb34a5f98"><path d="M 310 130 L 332 130 L 332 183.957031 L 310 183.957031 Z M 310 130 " clip-rule="nonzero"/></clipPath><clipPath id="619fbf21c0"><path d="M 341 131 L 361 131 L 361 183.957031 L 341 183.957031 Z M 341 131 " clip-rule="nonzero"/></clipPath><clipPath id="66cf32c379"><path d="M 64 3 L 99.867188 3 L 99.867188 59 L 64 59 Z M 64 3 " clip-rule="nonzero"/></clipPath><clipPath id="75d2accb9c"><path d="M 0.246094 49 L 53 49 L 53 55 L 0.246094 55 Z M 0.246094 49 " clip-rule="nonzero"/></clipPath><clipPath id="0c1ae9f217"><path d="M 224 90 L 284 90 L 284 178 L 224 178 Z M 224 90 " clip-rule="nonzero"/></clipPath><clipPath id="2dc7d7a2c6"><path d="M 223.949219 178.96875 L 220.539062 90.648438 L 286.402344 88.105469 L 289.8125 176.421875 Z M 223.949219 178.96875 " clip-rule="nonzero"/></clipPath><clipPath id="d8f1a1d069"><path d="M 223.949219 178.96875 L 220.539062 90.648438 L 286.402344 88.105469 L 289.8125 176.421875 Z M 223.949219 178.96875 " clip-rule="nonzero"/></clipPath></defs><path fill="#efefef" d="M 339.449219 44.113281 C 342.589844 44.054688 345.761719 44.746094 348.972656 46.1875 C 355.0625 49.042969 358.84375 53.007812 360.3125 58.082031 L 360.3125 58.089844 C 361.578125 62.351562 360.21875 67.378906 356.234375 73.171875 C 352.636719 78.003906 347.957031 81.277344 342.203125 82.988281 L 342.195312 82.988281 C 340.46875 83.390625 338.75 83.605469 337.042969 83.640625 C 332.875 83.714844 328.769531 82.695312 324.722656 80.574219 C 319.546875 77.78125 316.503906 73.863281 315.601562 68.816406 L 315.597656 68.816406 C 314.894531 63.800781 316.257812 59.214844 319.695312 55.0625 L 319.691406 55.0625 C 325.199219 49.277344 330.605469 45.789062 335.90625 44.589844 C 336.019531 44.5625 336.121094 44.515625 336.207031 44.449219 L 336.183594 44.449219 C 337.269531 44.246094 338.359375 44.136719 339.449219 44.113281 Z M 339.429688 42.578125 C 337.003906 42.621094 334.597656 43.085938 332.210938 43.964844 C 332.035156 44.027344 331.894531 44.152344 331.808594 44.304688 L 331.789062 44.304688 C 327.421875 46.113281 323.019531 49.347656 318.582031 54.007812 L 318.546875 54.046875 C 314.800781 58.554688 313.3125 63.550781 314.082031 69.03125 L 314.085938 69.058594 C 315.070312 74.601562 318.375 78.890625 323.992188 81.925781 L 324 81.929688 C 328.285156 84.175781 332.636719 85.257812 337.058594 85.175781 C 338.890625 85.140625 340.738281 84.90625 342.59375 84.46875 L 342.640625 84.457031 C 348.730469 82.644531 353.675781 79.179688 357.480469 74.0625 L 357.5 74.039062 C 361.757812 67.847656 363.1875 62.386719 361.785156 57.65625 C 360.183594 52.132812 356.125 47.847656 349.609375 44.792969 L 349.601562 44.789062 C 346.175781 43.253906 342.785156 42.515625 339.429688 42.578125 Z M 339.429688 42.578125 " fill-opacity="1" fill-rule="nonzero"/><path fill="#efefef" d="M 331.804688 75.03125 C 331.539062 75.035156 331.285156 75.179688 331.148438 75.425781 C 330.941406 75.796875 331.078125 76.265625 331.445312 76.46875 C 333.632812 77.679688 336.136719 78.261719 338.953125 78.210938 C 338.960938 78.210938 338.972656 78.210938 338.980469 78.210938 C 340.535156 78.183594 342.117188 77.996094 343.734375 77.652344 C 345.460938 77.304688 347.066406 76.84375 348.546875 76.269531 C 348.941406 76.117188 349.136719 75.671875 348.984375 75.277344 C 348.867188 74.96875 348.566406 74.78125 348.253906 74.789062 C 348.167969 74.789062 348.078125 74.808594 347.992188 74.839844 C 346.59375 75.382812 345.074219 75.820312 343.433594 76.148438 L 343.425781 76.152344 C 341.898438 76.476562 340.410156 76.652344 338.949219 76.679688 C 338.941406 76.679688 338.933594 76.679688 338.925781 76.679688 C 336.382812 76.722656 334.136719 76.207031 332.1875 75.128906 C 332.066406 75.058594 331.933594 75.03125 331.804688 75.03125 Z M 331.804688 75.03125 " fill-opacity="1" fill-rule="nonzero"/><path fill="#efefef" d="M 350.710938 46.566406 C 350.648438 46.566406 350.585938 46.578125 350.527344 46.59375 C 346.777344 47.585938 342.152344 48.734375 336.65625 50.039062 L 336.644531 50.042969 L 336.628906 50.046875 C 334.945312 50.484375 333.855469 50.839844 333.359375 51.113281 C 333.273438 51.160156 333.195312 51.210938 333.125 51.265625 C 333.105469 51.28125 333.085938 51.292969 333.066406 51.308594 C 332.523438 51.761719 332.457031 52.257812 332.863281 52.796875 C 332.910156 52.859375 332.96875 52.914062 333.03125 52.960938 C 334.421875 53.945312 335.175781 54.671875 335.300781 55.140625 L 335.292969 55.140625 C 335.285156 55.277344 335.089844 55.390625 334.710938 55.480469 C 332.800781 55.886719 330.429688 56.117188 327.601562 56.171875 C 327.152344 56.179688 326.691406 56.183594 326.214844 56.183594 L 326.203125 56.183594 C 323.574219 56.222656 321.007812 55.964844 318.503906 55.402344 C 318.441406 55.390625 318.382812 55.382812 318.320312 55.382812 C 317.976562 55.390625 317.667969 55.632812 317.589844 55.984375 C 317.496094 56.398438 317.757812 56.804688 318.167969 56.898438 C 320.792969 57.484375 323.476562 57.757812 326.226562 57.714844 L 326.21875 57.714844 C 326.699219 57.714844 327.167969 57.710938 327.628906 57.703125 C 330.566406 57.648438 333.042969 57.40625 335.054688 56.976562 L 335.074219 56.96875 C 336.445312 56.640625 337.019531 55.914062 336.792969 54.792969 L 336.785156 54.753906 C 336.597656 54.046875 335.878906 53.207031 334.628906 52.234375 L 334.609375 52.238281 C 335.125 52.046875 335.921875 51.8125 337.007812 51.53125 C 342.523438 50.222656 347.15625 49.070312 350.917969 48.074219 C 351.328125 47.964844 351.570312 47.546875 351.464844 47.136719 C 351.371094 46.789062 351.054688 46.5625 350.710938 46.566406 Z M 350.710938 46.566406 " fill-opacity="1" fill-rule="nonzero"/><g clip-path="url(#690809d8be)"><path fill="#efefef" d="M 342.128906 38.933594 C 339.300781 38.984375 336.34375 39.320312 333.25 39.941406 L 333.242188 39.941406 C 321.070312 42.46875 311.945312 48.292969 305.871094 57.410156 L 305.855469 57.4375 C 303.25 61.703125 302.285156 65.339844 302.953125 68.351562 L 302.945312 68.351562 C 303.21875 71.546875 305.480469 76.734375 309.722656 83.90625 L 309.710938 83.90625 C 310.1875 85.160156 310.378906 86.285156 310.28125 87.273438 L 310.28125 87.300781 C 310.109375 90.074219 307.882812 91.667969 303.601562 92.085938 C 300.3125 91.804688 298.578125 90.566406 298.398438 88.371094 L 298.421875 88.371094 C 298.671875 86.933594 299.746094 85.929688 301.648438 85.351562 L 301.628906 85.351562 C 301.734375 85.34375 301.832031 85.335938 301.929688 85.335938 C 302.066406 85.332031 302.191406 85.339844 302.308594 85.351562 C 303.058594 85.449219 303.355469 86.09375 303.203125 87.289062 C 303.148438 87.710938 303.445312 88.09375 303.867188 88.148438 C 303.902344 88.152344 303.941406 88.15625 303.976562 88.152344 C 304.351562 88.148438 304.675781 87.867188 304.722656 87.484375 C 305.007812 85.277344 304.269531 84.058594 302.503906 83.832031 C 302.316406 83.808594 302.113281 83.796875 301.898438 83.800781 C 301.75 83.804688 301.589844 83.816406 301.429688 83.832031 L 301.292969 83.859375 C 298.632812 84.640625 297.160156 86.132812 296.875 88.335938 L 296.871094 88.496094 C 297.121094 91.570312 299.34375 93.28125 303.542969 93.621094 L 303.679688 93.617188 C 308.863281 93.132812 311.574219 91.066406 311.808594 87.421875 C 311.929688 86.160156 311.691406 84.765625 311.09375 83.234375 L 311.042969 83.125 C 306.871094 76.078125 304.679688 71.078125 304.464844 68.128906 L 304.449219 68.019531 C 303.871094 65.417969 304.769531 62.164062 307.148438 58.261719 L 307.144531 58.261719 C 312.988281 49.492188 321.789062 43.886719 333.550781 41.441406 C 336.542969 40.84375 339.40625 40.519531 342.136719 40.46875 C 350.097656 40.320312 356.933594 42.503906 362.644531 47.015625 L 362.636719 47.019531 C 365.082031 49.605469 366.242188 52.777344 366.117188 56.539062 L 366.117188 56.636719 C 366.339844 59.050781 365.257812 64.824219 362.871094 73.960938 L 362.851562 74.054688 C 362.589844 76.046875 362.6875 77.539062 363.140625 78.523438 C 364.023438 80.472656 365.554688 81.425781 367.734375 81.386719 C 368.527344 81.371094 369.402344 81.226562 370.367188 80.945312 L 370.4375 80.921875 C 373.316406 79.78125 374.652344 77.59375 374.445312 74.359375 L 374.425781 74.230469 C 373.753906 71.378906 371.898438 69.902344 368.871094 69.796875 L 368.789062 69.796875 C 366.851562 69.9375 365.9375 70.78125 366.046875 72.332031 C 366.105469 73.113281 366.488281 74.074219 367.203125 75.210938 C 367.351562 75.449219 367.605469 75.578125 367.867188 75.570312 C 368 75.570312 368.136719 75.53125 368.257812 75.453125 C 368.617188 75.230469 368.726562 74.757812 368.5 74.398438 C 367.921875 73.476562 367.613281 72.75 367.578125 72.222656 C 367.539062 71.699219 367.964844 71.402344 368.847656 71.332031 L 368.867188 71.328125 C 371.089844 71.421875 372.445312 72.507812 372.933594 74.582031 L 372.921875 74.582031 C 373.039062 77.007812 372.023438 78.644531 369.871094 79.5 L 369.855469 79.5 C 369.101562 79.710938 368.421875 79.820312 367.8125 79.832031 C 366.226562 79.863281 365.132812 79.214844 364.53125 77.890625 L 364.53125 77.886719 C 364.207031 77.179688 364.148438 76 364.359375 74.347656 L 364.351562 74.347656 C 366.757812 65.152344 367.855469 59.230469 367.652344 56.589844 L 367.648438 56.589844 C 367.789062 52.363281 366.464844 48.796875 363.675781 45.886719 L 363.597656 45.816406 C 357.597656 41.070312 350.441406 38.777344 342.128906 38.933594 Z M 342.128906 38.933594 " fill-opacity="1" fill-rule="nonzero"/></g><path fill="#efefef" d="M 343.191406 82.566406 C 342.796875 82.574219 342.464844 82.882812 342.441406 83.285156 C 342.164062 87.890625 342.984375 92.996094 344.910156 98.609375 C 346.101562 102.765625 349.5 110.089844 355.105469 120.574219 L 355.101562 120.574219 C 355.910156 122.480469 356.375 124.140625 356.503906 125.558594 L 356.503906 125.5625 C 356.660156 127.128906 356.199219 128.226562 355.128906 128.859375 C 353.773438 129.667969 351.105469 130.265625 347.125 130.65625 L 347.121094 130.65625 C 344.144531 130.910156 341.226562 131.0625 338.375 131.117188 C 333.925781 131.199219 329.632812 131.039062 325.488281 130.632812 L 325.484375 130.632812 C 321.507812 130.085938 319.292969 128.917969 318.832031 127.136719 L 318.8125 127.070312 C 318.347656 125.765625 318.6875 123.476562 319.832031 120.199219 C 322.144531 113.769531 325.339844 105.617188 329.414062 95.734375 L 329.433594 95.695312 L 333.289062 84.539062 C 333.425781 84.136719 333.214844 83.703125 332.8125 83.5625 C 332.726562 83.53125 332.636719 83.519531 332.550781 83.519531 C 332.238281 83.527344 331.945312 83.726562 331.839844 84.039062 L 327.984375 95.195312 L 327.980469 95.195312 C 323.902344 105.074219 320.707031 113.238281 318.390625 119.679688 L 318.386719 119.6875 C 317.121094 123.308594 316.78125 125.9375 317.367188 127.582031 C 318.027344 129.992188 320.664062 131.515625 325.277344 132.152344 L 325.304688 132.15625 C 329.515625 132.566406 333.882812 132.734375 338.402344 132.648438 C 341.292969 132.59375 344.246094 132.4375 347.261719 132.179688 L 347.273438 132.179688 C 351.476562 131.769531 354.355469 131.101562 355.910156 130.179688 C 357.539062 129.21875 358.246094 127.628906 358.03125 125.417969 C 357.886719 123.828125 357.371094 121.992188 356.484375 119.914062 L 356.457031 119.851562 C 350.886719 109.429688 347.527344 102.195312 346.371094 98.148438 L 346.359375 98.109375 C 344.5 92.691406 343.703125 87.78125 343.972656 83.378906 C 343.996094 82.957031 343.675781 82.59375 343.253906 82.566406 C 343.234375 82.566406 343.210938 82.566406 343.191406 82.566406 Z M 343.191406 82.566406 " fill-opacity="1" fill-rule="nonzero"/><path fill="#efefef" d="M 301.847656 110.28125 C 301.699219 110.398438 301.597656 110.570312 301.570312 110.753906 L 301.550781 110.753906 C 301.5625 110.546875 301.65625 110.386719 301.824219 110.28125 Z M 331.808594 85.007812 C 331.589844 85.011719 331.371094 85.109375 331.222656 85.296875 C 330.523438 86.171875 329.792969 86.972656 329.039062 87.691406 L 329.035156 87.695312 C 322.863281 93.359375 318.882812 97.148438 317.097656 99.054688 L 317.09375 99.054688 C 313.6875 102.542969 310.167969 106.476562 306.539062 110.847656 C 306.136719 111.28125 305.800781 111.554688 305.527344 111.664062 L 305.460938 111.695312 C 305.371094 111.742188 305.269531 111.765625 305.15625 111.765625 C 304.632812 111.777344 303.867188 111.296875 302.855469 110.328125 C 302.792969 110.265625 302.726562 110.21875 302.652344 110.183594 L 302.628906 110.183594 C 301.984375 109.582031 299.355469 106.503906 294.738281 100.960938 C 294.582031 100.773438 294.359375 100.679688 294.136719 100.683594 C 293.96875 100.6875 293.800781 100.746094 293.660156 100.859375 C 293.335938 101.132812 293.289062 101.613281 293.5625 101.941406 C 298.488281 107.863281 301.226562 111.035156 301.765625 111.464844 C 301.84375 111.523438 301.921875 111.570312 302 111.605469 L 301.980469 111.605469 C 303.210938 112.746094 304.296875 113.308594 305.230469 113.292969 C 305.539062 113.285156 305.832031 113.21875 306.105469 113.085938 L 306.101562 113.085938 C 306.59375 112.886719 307.125 112.476562 307.695312 111.851562 L 307.71875 111.824219 C 311.324219 107.480469 314.820312 103.578125 318.203125 100.113281 L 318.214844 100.101562 C 319.976562 98.222656 323.929688 94.464844 330.074219 88.824219 L 330.074219 88.820312 L 330.089844 88.808594 L 330.097656 88.800781 C 330.902344 88.03125 331.675781 87.183594 332.421875 86.253906 C 332.683594 85.921875 332.632812 85.441406 332.300781 85.175781 C 332.15625 85.058594 331.980469 85.003906 331.808594 85.007812 Z M 331.808594 85.007812 " fill-opacity="1" fill-rule="nonzero"/><path fill="#efefef" d="M 343.890625 84.011719 L 343.914062 84.019531 L 343.914062 84.023438 L 343.890625 84.011719 C 344.6875 84.359375 345.628906 84.886719 346.714844 85.59375 L 346.726562 85.601562 C 352.238281 89.367188 357.878906 93.089844 363.648438 96.773438 L 363.65625 96.777344 C 365.652344 98.085938 366.808594 99.023438 367.117188 99.597656 C 367.265625 99.867188 367.304688 100.132812 367.238281 100.394531 L 367.160156 99.808594 C 367.246094 99.957031 367.300781 100.121094 367.332031 100.296875 C 367.460938 101.117188 366.851562 102.339844 365.507812 103.960938 L 365.496094 103.96875 C 361.714844 108.347656 357.804688 112.660156 353.769531 116.914062 C 353.476562 117.21875 352.992188 117.230469 352.6875 116.941406 C 352.378906 116.648438 352.367188 116.164062 352.65625 115.855469 C 356.675781 111.621094 360.570312 107.324219 364.339844 102.96875 L 364.328125 102.980469 C 365.378906 101.714844 365.875 100.902344 365.816406 100.539062 C 365.820312 100.546875 365.824219 100.5625 365.832031 100.578125 C 365.730469 100.402344 365.703125 100.191406 365.757812 99.992188 C 365.71875 100.128906 365.726562 100.242188 365.773438 100.328125 C 365.582031 99.984375 364.597656 99.226562 362.816406 98.058594 L 362.824219 98.066406 C 357.042969 94.375 351.390625 90.640625 345.863281 86.867188 L 345.875 86.875 C 344.863281 86.214844 343.996094 85.730469 343.28125 85.414062 L 343.253906 85.40625 C 342.890625 85.246094 342.714844 84.796875 342.882812 84.40625 C 343.050781 84.019531 343.503906 83.839844 343.890625 84.011719 Z M 343.890625 84.011719 " fill-opacity="1" fill-rule="nonzero"/><g clip-path="url(#ac4d2ce92a)"><path fill="#efefef" d="M 297.542969 98.820312 C 297.492188 98.820312 297.445312 98.828125 297.394531 98.835938 C 296.980469 98.925781 296.71875 99.335938 296.804688 99.75 C 297.367188 102.34375 297.445312 104.417969 297.035156 105.976562 L 297.011719 105.976562 C 296.898438 106.152344 296.683594 106.324219 296.375 106.496094 L 296.367188 106.5 C 296.257812 106.5625 296.082031 106.640625 295.847656 106.738281 C 294.441406 107.238281 293.542969 107.59375 293.152344 107.804688 C 292.78125 108.007812 292.648438 108.476562 292.851562 108.847656 C 292.992188 109.105469 293.261719 109.25 293.535156 109.242188 C 293.65625 109.242188 293.777344 109.210938 293.890625 109.148438 C 294.210938 108.972656 295.046875 108.648438 296.398438 108.167969 L 296.4375 108.15625 C 296.722656 108.035156 296.949219 107.929688 297.109375 107.839844 C 297.792969 107.464844 298.25 107.011719 298.480469 106.472656 L 298.515625 106.363281 C 298.988281 104.570312 298.917969 102.257812 298.304688 99.425781 C 298.226562 99.0625 297.902344 98.8125 297.542969 98.820312 Z M 297.542969 98.820312 " fill-opacity="1" fill-rule="nonzero"/></g><g clip-path="url(#2fb34a5f98)"><path fill="#efefef" d="M 330.585938 130.9375 C 330.242188 130.945312 329.933594 131.183594 329.855469 131.53125 C 329.152344 134.523438 328.476562 139.914062 327.816406 147.703125 L 327.816406 147.707031 C 327.441406 152.195312 327.085938 161.917969 326.75 176.875 C 326.621094 179.273438 326.46875 180.648438 326.285156 181.007812 L 326.28125 181.011719 L 326.238281 181.105469 C 325.941406 181.886719 324.394531 182.304688 321.597656 182.355469 C 321.042969 182.367188 320.441406 182.363281 319.789062 182.34375 L 319.78125 182.34375 C 315.789062 182.113281 313.328125 181.691406 312.398438 181.078125 L 312.378906 181.078125 C 313.824219 180.144531 316.597656 179.640625 320.699219 179.566406 C 322.171875 179.539062 323.820312 179.566406 325.640625 179.648438 C 325.65625 179.648438 325.671875 179.648438 325.6875 179.648438 C 326.089844 179.640625 326.421875 179.324219 326.4375 178.917969 C 326.457031 178.496094 326.132812 178.136719 325.707031 178.117188 C 323.957031 178.039062 322.351562 178.011719 320.890625 178.039062 C 315.644531 178.136719 312.269531 178.925781 310.765625 180.414062 C 310.542969 180.632812 310.476562 180.960938 310.59375 181.25 C 311.183594 182.679688 314.214844 183.554688 319.691406 183.875 L 319.714844 183.875 C 320.285156 183.890625 320.824219 183.894531 321.332031 183.886719 C 324.972656 183.820312 327.078125 183.089844 327.652344 181.703125 L 327.648438 181.703125 C 327.933594 181.152344 328.140625 179.558594 328.28125 176.929688 L 328.28125 176.90625 C 328.613281 162.0625 328.964844 152.394531 329.335938 147.90625 L 329.332031 147.90625 L 329.34375 147.832031 C 329.996094 140.117188 330.664062 134.800781 331.347656 131.878906 C 331.441406 131.46875 331.1875 131.054688 330.773438 130.960938 C 330.710938 130.945312 330.648438 130.9375 330.585938 130.9375 Z M 330.585938 130.9375 " fill-opacity="1" fill-rule="nonzero"/></g><g clip-path="url(#619fbf21c0)"><path fill="#efefef" d="M 354.230469 177.660156 C 356.75 177.613281 358.210938 178.152344 358.617188 179.277344 L 358.59375 179.277344 C 358.292969 180.289062 356.191406 181.007812 352.292969 181.433594 L 352.273438 181.433594 C 351.777344 181.460938 351.308594 181.476562 350.867188 181.488281 C 350.746094 181.488281 350.628906 181.488281 350.511719 181.492188 C 347.402344 181.515625 345.847656 181.144531 345.839844 180.378906 C 345.839844 180.269531 345.816406 180.160156 345.769531 180.0625 C 345.679688 179.867188 345.59375 179.53125 345.511719 179.058594 L 345.488281 179.058594 C 349.171875 178.164062 352.082031 177.699219 354.230469 177.660156 Z M 343.121094 131.578125 C 342.734375 131.585938 342.410156 131.882812 342.371094 132.273438 C 341.941406 136.902344 341.878906 142.902344 342.179688 150.273438 L 342.179688 150.285156 L 343.492188 173.96875 L 343.492188 173.972656 C 343.589844 175.609375 343.703125 176.960938 343.828125 178.027344 L 343.808594 178.027344 C 343.640625 178.210938 343.566406 178.472656 343.632812 178.730469 C 343.6875 178.953125 343.832031 179.125 344.019531 179.222656 L 343.996094 179.222656 C 344.105469 179.855469 344.21875 180.320312 344.34375 180.625 L 344.324219 180.625 C 344.511719 182.253906 346.578125 183.054688 350.523438 183.023438 C 350.644531 183.023438 350.769531 183.019531 350.894531 183.019531 C 351.371094 183.011719 351.878906 182.992188 352.410156 182.960938 L 352.453125 182.957031 C 357.390625 182.421875 359.960938 181.1875 360.152344 179.261719 C 360.164062 179.167969 360.152344 179.070312 360.128906 178.976562 C 359.582031 177.070312 357.519531 176.152344 353.929688 176.21875 C 351.664062 176.261719 348.789062 176.695312 345.308594 177.527344 C 345.207031 176.566406 345.109375 175.351562 345.023438 173.886719 L 343.710938 150.199219 C 343.414062 142.902344 343.476562 136.972656 343.898438 132.417969 C 343.9375 131.996094 343.628906 131.621094 343.207031 131.582031 C 343.175781 131.578125 343.148438 131.578125 343.121094 131.578125 Z M 343.121094 131.578125 " fill-opacity="1" fill-rule="nonzero"/></g><path fill="#efefef" d="M 334.871094 60.894531 C 334.457031 60.894531 334.09375 61.195312 334.027344 61.617188 C 334 61.785156 333.972656 62.042969 333.9375 62.390625 L 333.933594 62.398438 C 333.917969 62.582031 333.902344 62.789062 333.894531 63.019531 C 333.867188 63.578125 333.859375 64.191406 333.867188 64.859375 C 333.875 65.328125 334.257812 65.703125 334.722656 65.703125 C 334.730469 65.703125 334.734375 65.703125 334.738281 65.703125 C 335.210938 65.695312 335.589844 65.308594 335.582031 64.835938 C 335.570312 64.199219 335.578125 63.621094 335.601562 63.101562 L 335.601562 63.097656 C 335.613281 62.898438 335.625 62.71875 335.640625 62.5625 C 335.671875 62.242188 335.699219 62.019531 335.71875 61.882812 C 335.792969 61.417969 335.472656 60.980469 335.003906 60.90625 C 334.960938 60.898438 334.914062 60.894531 334.871094 60.894531 Z M 334.871094 60.894531 " fill-opacity="1" fill-rule="nonzero"/><path fill="#efefef" d="M 343.667969 60.425781 C 343.28125 60.425781 342.929688 60.691406 342.835938 61.082031 C 342.664062 61.8125 342.554688 62.347656 342.507812 62.695312 C 342.453125 63.019531 342.40625 63.566406 342.363281 64.34375 C 342.335938 64.816406 342.695312 65.21875 343.167969 65.246094 C 343.183594 65.246094 343.199219 65.246094 343.21875 65.246094 C 343.667969 65.246094 344.046875 64.894531 344.070312 64.441406 C 344.113281 63.703125 344.15625 63.207031 344.199219 62.953125 L 344.203125 62.917969 C 344.242188 62.632812 344.339844 62.152344 344.503906 61.480469 C 344.613281 61.023438 344.328125 60.558594 343.867188 60.449219 C 343.800781 60.433594 343.734375 60.425781 343.667969 60.425781 Z M 343.667969 60.425781 " fill-opacity="1" fill-rule="nonzero"/><path fill="#efefef" d="M 44.726562 2.253906 C 44.648438 2.390625 44.605469 2.550781 44.609375 2.722656 C 44.613281 3.214844 45.003906 3.613281 45.492188 3.636719 C 45.511719 3.640625 45.53125 3.640625 45.550781 3.640625 C 46.28125 3.628906 47 3.640625 47.710938 3.675781 C 55.574219 4.0625 62.210938 7.222656 67.613281 13.15625 L 67.609375 13.15625 C 72.46875 19.417969 73.507812 26.355469 70.726562 33.960938 L 70.722656 33.960938 C 66.800781 42.429688 60.222656 47.242188 50.980469 48.402344 L 50.976562 48.402344 C 49.355469 48.542969 47.789062 48.574219 46.277344 48.5 C 38.820312 48.136719 32.691406 45.148438 27.898438 39.542969 C 23.25 33.578125 22.863281 26.378906 26.742188 17.941406 L 26.738281 17.941406 C 31.128906 9.519531 37.117188 4.292969 44.710938 2.253906 Z M 46.21875 0.0234375 C 46.140625 0.0195312 46.0625 0.0234375 45.984375 0.0390625 C 37.027344 1.855469 30.0625 7.535156 25.089844 17.078125 L 25.066406 17.121094 C 20.855469 26.261719 21.308594 34.117188 26.429688 40.6875 L 26.453125 40.71875 C 31.601562 46.757812 38.167969 49.972656 46.148438 50.363281 C 47.769531 50.441406 49.445312 50.40625 51.179688 50.253906 L 51.214844 50.25 C 61.164062 49 68.242188 43.808594 72.445312 34.671875 L 72.476562 34.601562 C 75.5 26.324219 74.351562 18.777344 69.035156 11.957031 L 68.988281 11.902344 C 63.242188 5.585938 56.183594 2.226562 47.820312 1.816406 C 47.417969 1.796875 47.011719 1.785156 46.605469 1.777344 C 46.960938 1.589844 47.167969 1.183594 47.082031 0.769531 C 46.996094 0.339844 46.632812 0.0429688 46.21875 0.0234375 Z M 46.21875 0.0234375 " fill-opacity="0.996" fill-rule="nonzero"/><path fill="#efefef" d="M 40.460938 16.945312 C 40.347656 16.941406 40.230469 16.957031 40.113281 16.996094 C 39.628906 17.164062 39.367188 17.691406 39.535156 18.179688 C 40.105469 19.847656 40.621094 21.125 41.082031 22.011719 C 41.242188 22.3125 41.542969 22.496094 41.863281 22.511719 C 42.023438 22.519531 42.1875 22.484375 42.339844 22.40625 C 42.792969 22.167969 42.972656 21.605469 42.734375 21.148438 C 42.316406 20.347656 41.839844 19.15625 41.296875 17.574219 C 41.167969 17.203125 40.832031 16.964844 40.460938 16.945312 Z M 40.460938 16.945312 " fill-opacity="0.996" fill-rule="nonzero"/><path fill="#efefef" d="M 51.089844 14.378906 C 51.066406 14.375 51.042969 14.375 51.019531 14.375 C 50.507812 14.386719 50.097656 14.8125 50.113281 15.371094 C 50.117188 15.539062 50.132812 15.753906 50.15625 16.015625 L 50.15625 16.042969 C 50.1875 16.3125 50.308594 17.609375 50.519531 19.933594 L 50.519531 19.9375 C 50.589844 20.71875 50.664062 21.375 50.742188 21.902344 C 50.808594 22.351562 51.179688 22.679688 51.617188 22.699219 C 51.675781 22.703125 51.738281 22.699219 51.796875 22.691406 C 52.304688 22.617188 52.660156 22.144531 52.585938 21.636719 C 52.511719 21.136719 52.441406 20.511719 52.371094 19.765625 L 52.375 19.765625 C 52.167969 17.496094 52.046875 16.191406 52.011719 15.851562 L 52.007812 15.851562 C 51.988281 15.613281 51.976562 15.425781 51.972656 15.289062 L 51.972656 15.242188 C 51.9375 14.773438 51.558594 14.398438 51.089844 14.378906 Z M 51.089844 14.378906 " fill-opacity="0.996" fill-rule="nonzero"/><path fill="#efefef" d="M 63.367188 34.960938 C 63.089844 34.949219 62.8125 35.054688 62.617188 35.28125 C 58.585938 39.9375 53.785156 42.515625 48.21875 43.019531 L 48.207031 43.019531 C 47.457031 43.050781 46.734375 43.050781 46.039062 43.015625 C 44.023438 42.917969 42.234375 42.535156 40.675781 41.867188 C 38.074219 40.738281 35.996094 39.214844 34.441406 37.300781 C 34.265625 37.085938 34.019531 36.972656 33.761719 36.957031 C 33.542969 36.949219 33.316406 37.015625 33.128906 37.167969 C 32.730469 37.492188 32.671875 38.078125 32.996094 38.476562 C 34.742188 40.625 37.054688 42.324219 39.929688 43.578125 L 39.9375 43.578125 C 41.703125 44.335938 43.707031 44.769531 45.949219 44.878906 C 46.71875 44.914062 47.519531 44.914062 48.34375 44.875 L 48.382812 44.875 C 54.453125 44.324219 59.667969 41.535156 64.023438 36.5 C 64.363281 36.113281 64.320312 35.523438 63.929688 35.1875 C 63.765625 35.046875 63.566406 34.96875 63.367188 34.960938 Z M 63.367188 34.960938 " fill-opacity="0.996" fill-rule="nonzero"/><path fill="#efefef" d="M 57.71875 46.386719 C 57.503906 46.378906 57.289062 46.4375 57.105469 46.578125 C 56.695312 46.894531 56.621094 47.476562 56.933594 47.886719 C 65.589844 59.125 70.84375 71.21875 72.703125 84.160156 L 72.699219 84.160156 C 73.890625 96.082031 71.628906 103.726562 65.917969 107.089844 L 65.902344 107.089844 C 65.71875 107.148438 65.539062 107.199219 65.363281 107.242188 C 64.816406 107.375 64.292969 107.429688 63.789062 107.40625 C 60.554688 107.246094 58.128906 103.855469 56.503906 97.226562 C 55.777344 94.042969 55.238281 89.8125 54.890625 84.527344 L 54.871094 84.398438 C 54.757812 83.769531 54.585938 78.460938 54.351562 68.476562 L 54.347656 68.449219 L 53.332031 49.796875 C 53.304688 49.316406 52.921875 48.941406 52.449219 48.917969 C 52.417969 48.914062 52.386719 48.914062 52.351562 48.917969 C 51.839844 48.945312 51.445312 49.382812 51.472656 49.898438 L 52.488281 68.550781 C 52.726562 78.609375 52.910156 84.003906 53.039062 84.726562 L 53.035156 84.726562 C 53.394531 90.074219 53.945312 94.378906 54.6875 97.640625 L 54.691406 97.65625 C 56.539062 105.210938 59.496094 109.085938 63.5625 109.285156 C 64.277344 109.320312 65.023438 109.242188 65.804688 109.050781 C 66.078125 108.984375 66.351562 108.90625 66.632812 108.808594 L 66.796875 108.734375 C 73.246094 104.980469 75.832031 96.714844 74.550781 83.933594 L 74.546875 83.894531 C 72.644531 70.628906 67.265625 58.25 58.410156 46.75 C 58.238281 46.523438 57.980469 46.398438 57.71875 46.386719 Z M 57.71875 46.386719 " fill-opacity="0.996" fill-rule="nonzero"/><g clip-path="url(#66cf32c379)"><path fill="#efefef" d="M 98.425781 3.652344 C 98.121094 3.640625 97.816406 3.773438 97.625 4.035156 C 94.371094 8.503906 90.847656 13.773438 87.050781 19.847656 C 85.070312 22.914062 79.539062 32.367188 70.464844 48.199219 C 68.054688 52.207031 66.234375 55.007812 65.003906 56.605469 C 64.691406 57.011719 64.765625 57.597656 65.171875 57.910156 C 65.332031 58.03125 65.511719 58.09375 65.695312 58.101562 C 65.988281 58.117188 66.285156 57.992188 66.480469 57.742188 C 67.753906 56.085938 69.617188 53.21875 72.074219 49.140625 L 72.082031 49.125 C 81.152344 33.300781 86.664062 23.875 88.625 20.847656 L 88.632812 20.835938 C 92.40625 14.796875 95.90625 9.5625 99.132812 5.132812 C 99.433594 4.71875 99.34375 4.132812 98.925781 3.832031 C 98.773438 3.722656 98.601562 3.664062 98.425781 3.652344 Z M 98.425781 3.652344 " fill-opacity="0.996" fill-rule="nonzero"/></g><g clip-path="url(#75d2accb9c)"><path fill="#efefef" d="M 51.835938 49.5 C 51.671875 49.492188 51.503906 49.527344 51.347656 49.613281 C 48.4375 51.191406 43.683594 52.203125 37.085938 52.640625 L 37.082031 52.640625 C 33.800781 52.792969 30.515625 52.847656 27.222656 52.808594 L 27.21875 52.808594 C 14.835938 52.71875 6.183594 52.566406 1.265625 52.359375 C 0.753906 52.335938 0.320312 52.738281 0.296875 53.25 C 0.277344 53.761719 0.671875 54.195312 1.183594 54.21875 C 1.183594 54.21875 1.1875 54.21875 1.1875 54.21875 C 6.128906 54.429688 14.800781 54.578125 27.203125 54.671875 C 30.539062 54.710938 33.867188 54.652344 37.1875 54.5 L 37.207031 54.5 C 44.078125 54.042969 49.085938 52.957031 52.238281 51.25 C 52.6875 51.003906 52.855469 50.4375 52.613281 49.988281 C 52.449219 49.691406 52.152344 49.515625 51.835938 49.5 Z M 51.835938 49.5 " fill-opacity="0.996" fill-rule="nonzero"/></g><path fill="#efefef" d="M 16.699219 119 C 16.992188 119.015625 17.296875 119.144531 17.609375 119.386719 C 17.726562 119.476562 17.867188 119.535156 18.011719 119.5625 L 17.996094 119.5625 C 18.207031 119.652344 18.539062 119.894531 19 120.285156 L 18.984375 120.285156 C 18.179688 124.347656 17.40625 126.757812 16.671875 127.511719 L 16.574219 127.628906 C 16.269531 128.058594 15.980469 128.417969 15.703125 128.710938 C 15.207031 129.226562 14.777344 129.476562 14.414062 129.460938 C 14.269531 129.453125 14.132812 129.402344 14.011719 129.308594 L 13.992188 129.308594 C 13.050781 128.191406 13.242188 125.527344 14.558594 121.316406 L 14.550781 121.316406 C 14.839844 120.660156 15.136719 120.132812 15.4375 119.738281 C 15.832031 119.226562 16.253906 118.980469 16.699219 119 Z M 61.347656 107.96875 C 60.941406 107.949219 60.554688 108.199219 60.421875 108.605469 C 56.96875 119.058594 54.132812 127.039062 51.914062 132.554688 C 49.953125 137.320312 48.160156 141.523438 46.527344 145.164062 C 45.949219 146.347656 45.503906 146.996094 45.191406 147.105469 L 45.175781 147.105469 C 45.164062 147.105469 45.152344 147.105469 45.144531 147.105469 C 44.839844 147.089844 44.324219 146.664062 43.59375 145.824219 L 43.589844 145.824219 C 37.597656 137.730469 32.652344 131.605469 28.757812 127.449219 L 28.753906 127.445312 C 23.113281 121.453125 19.742188 118.242188 18.644531 117.816406 C 18.636719 117.8125 18.632812 117.808594 18.625 117.808594 L 18.609375 117.808594 C 17.941406 117.320312 17.296875 117.0625 16.683594 117.035156 C 15.707031 116.984375 14.800781 117.507812 13.960938 118.605469 C 13.566406 119.117188 13.195312 119.773438 12.847656 120.566406 L 12.808594 120.660156 C 11.261719 125.574219 11.179688 128.855469 12.5625 130.507812 L 12.632812 130.582031 C 13.183594 131.109375 13.757812 131.386719 14.351562 131.414062 C 15.203125 131.457031 16.105469 130.984375 17.050781 129.996094 C 17.363281 129.667969 17.6875 129.273438 18.015625 128.816406 L 18 128.816406 C 18.910156 127.882812 19.773438 125.527344 20.585938 121.746094 L 20.601562 121.75 C 22.199219 123.28125 24.464844 125.605469 27.398438 128.722656 C 31.246094 132.828125 36.140625 138.898438 42.089844 146.933594 L 42.136719 146.988281 C 43.238281 148.261719 44.230469 148.917969 45.117188 148.960938 C 45.253906 148.96875 45.386719 148.960938 45.515625 148.9375 C 45.582031 148.925781 45.644531 148.914062 45.707031 148.894531 L 45.722656 148.890625 C 45.746094 148.882812 45.773438 148.875 45.800781 148.867188 C 46.601562 148.585938 47.40625 147.613281 48.214844 145.949219 L 48.226562 145.925781 C 49.867188 142.261719 51.671875 138.039062 53.640625 133.257812 L 53.644531 133.25 C 55.875 127.703125 58.722656 119.679688 62.1875 109.191406 C 62.351562 108.703125 62.085938 108.175781 61.597656 108.015625 C 61.515625 107.988281 61.429688 107.972656 61.347656 107.96875 Z M 61.347656 107.96875 " fill-opacity="0.996" fill-rule="nonzero"/><path fill="#efefef" d="M 30.46875 117.339844 C 30.515625 117.339844 30.5625 117.355469 30.609375 117.375 L 30.59375 117.375 C 31.273438 118.148438 31.941406 118.898438 32.589844 119.625 L 32.574219 119.625 C 32.546875 119.730469 32.539062 119.84375 32.554688 119.960938 C 32.816406 122.046875 32.75 123.390625 32.355469 123.992188 C 32.257812 124.136719 32.101562 124.203125 31.882812 124.191406 C 31.523438 124.175781 30.992188 123.941406 30.292969 123.488281 L 30.277344 123.488281 C 29.375 122.621094 29.019531 121.351562 29.214844 119.679688 L 29.203125 119.679688 C 29.449219 118.777344 29.710938 118.109375 29.996094 117.679688 C 30.152344 117.445312 30.308594 117.332031 30.46875 117.339844 Z M 67.289062 108.214844 C 66.835938 108.191406 66.421875 108.503906 66.332031 108.960938 C 64.445312 118.394531 62.433594 129.175781 60.289062 141.308594 C 60.160156 142.019531 60.019531 142.476562 59.878906 142.683594 L 59.867188 142.683594 C 59.488281 142.664062 58.894531 142.320312 58.09375 141.65625 C 51.960938 136.378906 48.136719 132.988281 46.621094 131.488281 L 46.582031 131.453125 C 43.34375 128.605469 38.441406 123.460938 31.875 116.015625 C 31.820312 115.953125 31.757812 115.898438 31.691406 115.855469 C 31.242188 115.558594 30.820312 115.402344 30.417969 115.382812 C 29.683594 115.347656 29.023438 115.769531 28.441406 116.65625 C 28.046875 117.25 27.703125 118.097656 27.40625 119.191406 L 27.382812 119.316406 C 27.074219 121.695312 27.621094 123.546875 29.023438 124.867188 L 29.148438 124.96875 C 30.214844 125.671875 31.132812 126.042969 31.902344 126.078125 C 32.746094 126.121094 33.414062 125.765625 33.90625 125.019531 C 34.359375 124.332031 34.578125 123.269531 34.558594 121.832031 L 34.578125 121.832031 C 39.183594 126.910156 42.773438 130.585938 45.351562 132.851562 L 45.347656 132.851562 C 46.921875 134.398438 50.765625 137.804688 56.878906 143.066406 L 56.886719 143.078125 C 58.011719 144.011719 58.992188 144.5 59.832031 144.539062 C 60.007812 144.546875 60.179688 144.535156 60.34375 144.507812 L 60.367188 144.5 C 60.652344 144.4375 60.910156 144.296875 61.136719 144.074219 C 61.574219 143.636719 61.902344 142.828125 62.125 141.640625 L 62.125 141.632812 C 64.265625 129.519531 66.273438 118.75 68.160156 109.328125 C 68.257812 108.824219 67.933594 108.332031 67.425781 108.230469 C 67.382812 108.222656 67.335938 108.214844 67.289062 108.214844 Z M 67.289062 108.214844 " fill-opacity="0.996" fill-rule="nonzero"/><g clip-path="url(#0c1ae9f217)"><g clip-path="url(#2dc7d7a2c6)"><g clip-path="url(#d8f1a1d069)"><path fill="#0cc0df" d="M 231.363281 131.253906 C 231.453125 147.824219 229.335938 157.796875 229.101562 158.09375 C 227.316406 165.789062 223.648438 171.210938 224.664062 174.5625 C 225.386719 176.960938 227.339844 178.820312 233.167969 177.035156 C 248.292969 172.417969 251.289062 167.710938 257.675781 159.523438 C 269.558594 144.285156 287.933594 119.875 281.902344 101.503906 C 278.132812 90.019531 255.457031 89.097656 243.503906 90.722656 C 224.953125 93.242188 231.203125 100.773438 231.363281 131.253906 Z M 231.363281 131.253906 " fill-opacity="1" fill-rule="nonzero"/></g></g></g><path fill="#0cc0df" d="M 101.605469 152.269531 C 104.953125 166.386719 115.976562 169.835938 134.019531 173.488281 C 165.164062 179.796875 216.269531 183.953125 224.992188 153.515625 C 227.851562 143.542969 229.898438 110.394531 216.328125 98.878906 C 206.929688 90.90625 183.96875 84.691406 178.300781 82.90625 C 131.816406 68.355469 122.703125 69.835938 114.789062 74.296875 C 99.410156 82.957031 98.378906 138.667969 101.605469 152.269531 Z M 101.605469 152.269531 " fill-opacity="1" fill-rule="nonzero"/><path fill="#efefef" d="M 186.992188 94.828125 C 185.242188 98.398438 184.960938 102.058594 184.949219 103.910156 C 184.921875 108.46875 186.226562 111.253906 186.808594 111.265625 C 187.0625 111.265625 188.023438 110.089844 188.160156 104.320312 C 188.25 100.636719 187.859375 97.464844 186.992188 94.828125 Z M 189.242188 123.957031 C 189.492188 126.363281 189.488281 129.503906 189.304688 132.574219 C 218.085938 132.488281 242.691406 131.839844 246.898438 131.082031 C 243.214844 127.453125 236.886719 121.785156 234.21875 121.3125 C 230.761719 120.703125 195.855469 119.867188 191.636719 120.140625 C 190.789062 120.195312 189.898438 121.640625 189.242188 123.957031 Z M 188.414062 128.503906 C 188.285156 129.777344 188.222656 131.144531 188.238281 132.574219 C 188.25 132.574219 188.257812 132.574219 188.265625 132.574219 C 188.351562 131.210938 188.402344 129.828125 188.414062 128.503906 Z M 128.011719 130.804688 C 130.886719 131.9375 154.300781 132.652344 187.242188 132.578125 C 187.207031 129.535156 187.558594 126.378906 188.234375 123.894531 C 188.113281 122.769531 187.933594 121.835938 187.675781 121.1875 C 187.488281 120.71875 187.269531 120.4375 187.089844 120.4375 C 185.691406 120.4375 177.597656 120.65625 168.226562 120.910156 C 155.992188 121.242188 142.128906 121.617188 138.992188 121.617188 C 136.078125 121.617188 130.699219 126.570312 128.011719 130.804688 Z M 188.785156 137.953125 C 189.464844 141.136719 190.8125 143.628906 193.089844 143.6875 C 199.699219 143.855469 234.53125 143.738281 245.050781 143.699219 C 246.292969 143.691406 247.328125 142.71875 247.402344 141.476562 C 247.589844 138.515625 247.855469 135.039062 248.234375 131.488281 C 248.210938 131.542969 248.179688 131.59375 248.136719 131.644531 C 247.878906 131.949219 247.394531 132.515625 228.871094 133.03125 C 218.085938 133.328125 203.675781 133.527344 189.238281 133.570312 C 189.128906 135.105469 188.972656 136.597656 188.785156 137.953125 Z M 151.589844 157.957031 C 169.304688 158.6875 214.449219 160.25 242.167969 158.574219 C 241.527344 157.90625 240.792969 157.507812 239.957031 157.441406 C 202.945312 154.550781 166.753906 156.742188 151.589844 157.957031 Z M 239.851562 161.664062 C 239.65625 161.664062 239.480469 161.753906 239.367188 161.914062 C 239.253906 162.070312 239.222656 162.269531 239.285156 162.453125 L 243.636719 175.421875 C 243.722656 175.679688 243.976562 175.847656 244.242188 175.828125 L 245.324219 175.757812 C 245.640625 175.734375 245.886719 175.472656 245.882812 175.152344 C 245.839844 170.265625 245.277344 165.140625 243.960938 161.664062 Z M 123.636719 158.328125 C 125.855469 159.207031 128.1875 159.5625 129.542969 159.703125 C 129.972656 159.746094 130.375 159.96875 130.640625 160.316406 C 130.90625 160.664062 131.015625 161.109375 130.949219 161.542969 L 128.402344 177.25 C 128.371094 177.425781 128.421875 177.597656 128.535156 177.734375 C 128.652344 177.871094 128.8125 177.945312 128.992188 177.945312 L 130.957031 177.945312 C 131.234375 177.945312 131.472656 177.753906 131.539062 177.484375 L 135.835938 159.0625 C 135.878906 158.882812 135.835938 158.699219 135.722656 158.554688 C 135.609375 158.410156 135.4375 158.328125 135.253906 158.328125 Z M 100.316406 157.332031 L 119.894531 157.332031 C 118.953125 156.570312 118.160156 155.640625 117.632812 154.503906 C 115.269531 149.4375 104.9375 118.191406 109.113281 111.117188 C 109.695312 110.132812 110.519531 109.601562 111.570312 109.527344 C 116.792969 109.164062 119.503906 118.851562 122.136719 128.210938 C 124.082031 135.128906 126.09375 142.28125 128.820312 143.746094 C 131.574219 145.222656 143.5 145.914062 159.207031 145.5 C 174.859375 145.089844 185.585938 143.851562 186.550781 142.9375 C 186.96875 142.542969 187.410156 140.574219 187.757812 137.949219 C 187.496094 136.65625 187.332031 135.191406 187.269531 133.574219 C 172.257812 133.605469 129.984375 133.503906 127.207031 131.496094 C 126.832031 131.222656 126.824219 130.835938 126.984375 130.574219 C 129.519531 126.417969 135.3125 120.621094 138.992188 120.621094 C 142.113281 120.621094 155.972656 120.246094 168.199219 119.914062 C 177.578125 119.660156 185.675781 119.441406 187.089844 119.441406 C 187.726562 119.441406 188.234375 119.90625 188.601562 120.820312 C 188.71875 121.121094 188.824219 121.480469 188.917969 121.882812 C 189.613281 120.261719 190.503906 119.21875 191.570312 119.148438 C 195.808594 118.871094 230.910156 119.71875 234.390625 120.332031 C 238.132812 120.992188 247.09375 129.867188 248.105469 130.875 C 248.191406 130.964844 248.246094 131.070312 248.265625 131.179688 C 249.378906 120.855469 251.429688 110.019531 255.148438 109.53125 C 255.761719 109.449219 256.039062 109.285156 256.042969 109.160156 C 256.0625 107.898438 249.722656 104 245.121094 103.253906 C 243.949219 103.0625 242.90625 103.324219 241.9375 104.046875 C 238.472656 106.632812 237.15625 114.289062 236.753906 117.460938 C 236.59375 118.714844 235.484375 119.597656 234.226562 119.476562 C 228.898438 118.964844 213.78125 117.773438 188.519531 117.773438 C 163.597656 117.773438 144.917969 119.054688 139.785156 119.445312 C 138.777344 119.523438 137.882812 118.832031 137.707031 117.835938 C 137.179688 114.921875 135.015625 105.246094 129.207031 103.230469 C 127.730469 102.722656 125.148438 103.480469 122.535156 104.625 C 119.203125 108.09375 114.984375 108.742188 114.914062 108.75 C 114.679688 108.785156 114.460938 108.652344 114.378906 108.433594 C 114.296875 108.214844 114.375 107.96875 114.570312 107.84375 C 114.820312 107.675781 118.324219 105.382812 122.066406 103.742188 C 123.988281 101.613281 125.535156 98.394531 125.535156 93.535156 C 125.535156 91.058594 126.375 89.015625 128.035156 87.457031 C 133.179688 82.625 145.144531 83.375 153.878906 83.925781 C 156.246094 84.074219 158.289062 84.203125 159.898438 84.203125 C 161.09375 84.203125 162.496094 84.121094 163.976562 84.035156 C 170.261719 83.667969 178.871094 83.164062 184.203125 88.320312 C 185.40625 89.480469 186.390625 90.890625 187.160156 92.539062 C 187.457031 92.085938 187.777344 91.640625 188.132812 91.203125 C 191.699219 86.773438 197.195312 84.519531 204.460938 84.496094 C 208.535156 84.484375 212.382812 84.425781 215.773438 84.375 C 236.890625 84.050781 247.488281 83.886719 248.542969 95.648438 C 249.191406 102.882812 252.386719 103.785156 256.09375 104.828125 C 258.90625 105.625 261.8125 106.445312 263.703125 110.089844 C 267.164062 116.769531 261.828125 142.386719 255.863281 153.429688 C 253.992188 156.890625 252.171875 158.738281 250.453125 158.914062 C 248.464844 159.117188 246.324219 159.296875 244.050781 159.449219 C 244.265625 159.828125 244.46875 160.238281 244.652344 160.667969 L 265.804688 160.667969 C 265.816406 160.667969 265.828125 160.667969 265.839844 160.667969 C 265.945312 160.675781 266.457031 161.710938 265.785156 161.664062 L 245.042969 161.664062 C 246.566406 165.964844 246.851562 171.867188 246.878906 175.144531 C 246.886719 175.988281 246.230469 176.695312 245.390625 176.75 L 244.308594 176.824219 C 243.585938 176.867188 242.921875 176.425781 242.691406 175.738281 L 238.339844 162.769531 C 238.175781 162.277344 238.253906 161.753906 238.558594 161.332031 C 238.863281 160.910156 239.332031 160.667969 239.851562 160.667969 L 243.539062 160.667969 C 243.34375 160.253906 243.136719 159.871094 242.910156 159.523438 C 208.097656 161.722656 144.757812 158.65625 144.070312 158.621094 C 143.8125 158.609375 143.605469 158.398438 143.597656 158.136719 C 143.589844 157.878906 143.785156 157.65625 144.042969 157.628906 C 144.511719 157.578125 191.570312 152.660156 240.035156 156.449219 C 241.429688 156.558594 242.539062 157.320312 243.425781 158.492188 C 245.894531 158.332031 248.214844 158.140625 250.351562 157.921875 C 251.296875 157.824219 252.863281 156.886719 254.988281 152.957031 C 260.769531 142.253906 266.074219 116.835938 262.820312 110.550781 C 261.128906 107.285156 258.550781 106.558594 255.820312 105.789062 C 252.105469 104.738281 248.257812 103.65625 247.550781 95.738281 C 246.578125 84.898438 236.929688 85.046875 215.789062 85.371094 C 212.394531 85.421875 208.546875 85.480469 204.464844 85.492188 C 195.0625 85.523438 190.164062 89.367188 187.628906 93.648438 C 188.746094 96.5625 189.257812 100.140625 189.15625 104.34375 C 189.03125 109.617188 188.234375 112.28125 186.792969 112.261719 C 185.007812 112.234375 183.929688 107.902344 183.953125 103.90625 C 183.96875 101.5625 184.355469 97.453125 186.527344 93.578125 C 185.777344 91.769531 184.769531 90.253906 183.511719 89.035156 C 178.492188 84.1875 170.476562 84.652344 164.03125 85.027344 C 162.539062 85.117188 161.125 85.199219 159.898438 85.199219 C 158.257812 85.199219 156.199219 85.070312 153.816406 84.917969 C 145.261719 84.382812 133.546875 83.644531 128.714844 88.183594 C 127.246094 89.5625 126.53125 91.3125 126.53125 93.535156 C 126.53125 97.734375 125.40625 100.792969 123.855469 103.015625 C 126.027344 102.222656 128.117188 101.800781 129.535156 102.292969 C 135.679688 104.421875 137.980469 113.75 138.6875 117.660156 C 138.773438 118.148438 139.214844 118.488281 139.707031 118.453125 C 144.847656 118.058594 163.5625 116.777344 188.519531 116.777344 C 213.824219 116.777344 228.980469 117.972656 234.324219 118.488281 C 235.046875 118.554688 235.675781 118.050781 235.765625 117.335938 C 236.289062 113.242188 237.707031 105.960938 241.339844 103.25 C 242.523438 102.367188 243.847656 102.039062 245.28125 102.269531 C 249.394531 102.9375 257.074219 106.832031 257.039062 109.175781 C 257.03125 109.683594 256.71875 110.328125 255.277344 110.519531 C 252.210938 110.921875 249.574219 122.808594 248.398438 141.539062 C 248.289062 143.300781 246.816406 144.6875 245.054688 144.695312 C 234.53125 144.734375 199.691406 144.851562 193.0625 144.683594 C 191 144.628906 189.398438 143.070312 188.398438 140.300781 C 188.058594 142.019531 187.660156 143.261719 187.234375 143.664062 C 185.429688 145.371094 168.128906 146.261719 159.234375 146.496094 C 146.605469 146.828125 131.859375 146.507812 128.351562 144.625 C 125.246094 142.957031 123.269531 135.925781 121.179688 128.480469 C 118.769531 119.921875 116.046875 110.21875 111.636719 110.523438 C 110.925781 110.570312 110.382812 110.929688 109.972656 111.625 C 106.042969 118.277344 116.292969 149.269531 118.535156 154.085938 C 119.183594 155.480469 120.304688 156.535156 121.613281 157.332031 L 135.253906 157.332031 C 135.742188 157.332031 136.199219 157.550781 136.503906 157.933594 C 136.804688 158.316406 136.917969 158.8125 136.804688 159.289062 L 132.507812 177.710938 C 132.339844 178.433594 131.699219 178.941406 130.957031 178.941406 L 128.992188 178.941406 C 128.523438 178.941406 128.082031 178.738281 127.777344 178.378906 C 127.472656 178.023438 127.34375 177.554688 127.417969 177.089844 L 129.964844 161.382812 C 129.992188 161.21875 129.949219 161.054688 129.847656 160.921875 C 129.75 160.789062 129.601562 160.707031 129.441406 160.691406 C 127.628906 160.507812 124.175781 159.953125 121.355469 158.328125 L 100.316406 158.328125 C 98.929688 158.328125 98.554688 157.332031 100.316406 157.332031 " fill-opacity="1" fill-rule="nonzero"/></svg>