<svg xmlns="http://www.w3.org/2000/svg" xmlns:xlink="http://www.w3.org/1999/xlink" width="486" zoomAndPan="magnify" viewBox="0 0 364.5 296.250004" height="395" preserveAspectRatio="xMidYMid meet" version="1.0"><defs><clipPath id="6a748ea5b7"><path d="M 0.210938 290 L 68 290 L 68 295.5 L 0.210938 295.5 Z M 0.210938 290 " clip-rule="nonzero"/></clipPath><clipPath id="36f317cb96"><path d="M 0.210938 0 L 299 0 L 299 6 L 0.210938 6 Z M 0.210938 0 " clip-rule="nonzero"/></clipPath><clipPath id="a7137b5f74"><path d="M 0.210938 0 L 6 0 L 6 295.5 L 0.210938 295.5 Z M 0.210938 0 " clip-rule="nonzero"/></clipPath><clipPath id="c65ccf6c7f"><path d="M 34 99 L 81 99 L 81 153.816406 L 34 153.816406 Z M 34 99 " clip-rule="nonzero"/></clipPath><clipPath id="10f67675b4"><path d="M 25.472656 2.769531 L 90.207031 2.769531 L 90.207031 149 L 25.472656 149 Z M 25.472656 2.769531 " clip-rule="nonzero"/></clipPath><clipPath id="126313e4dc"><path d="M 34 76 L 90.207031 76 L 90.207031 149 L 34 149 Z M 34 76 " clip-rule="nonzero"/></clipPath><clipPath id="81a8f78a1f"><path d="M 244 218 L 291 218 L 291 288 L 244 288 Z M 244 218 " clip-rule="nonzero"/></clipPath><clipPath id="992f0fcfe7"><path d="M 243.585938 288.792969 L 240.878906 218.714844 L 293.4375 216.683594 L 296.144531 286.761719 Z M 243.585938 288.792969 " clip-rule="nonzero"/></clipPath><clipPath id="5934198a47"><path d="M 243.585938 288.792969 L 240.878906 218.714844 L 293.4375 216.683594 L 296.144531 286.761719 Z M 243.585938 288.792969 " clip-rule="nonzero"/></clipPath><clipPath id="5491b6bb83"><path d="M 145 213 L 277 213 L 277 288.441406 L 145 288.441406 Z M 145 213 " clip-rule="nonzero"/></clipPath><clipPath id="17fd3cffcb"><path d="M 301 173.144531 L 363 173.144531 L 363 218 L 301 218 Z M 301 173.144531 " clip-rule="nonzero"/></clipPath><clipPath id="5a3280f3df"><path d="M 298.410156 210 L 330 210 L 330 233 L 298.410156 233 Z M 298.410156 210 " clip-rule="nonzero"/></clipPath><clipPath id="5cb157e726"><path d="M 298.410156 221 L 304 221 L 304 230 L 298.410156 230 Z M 298.410156 221 " clip-rule="nonzero"/></clipPath><clipPath id="bd2ef76fac"><path d="M 312 246 L 329 246 L 329 289.125 L 312 289.125 Z M 312 246 " clip-rule="nonzero"/></clipPath><clipPath id="6779872b4d"><path d="M 83 142.382812 L 125 142.382812 L 125 183 L 83 183 Z M 83 142.382812 " clip-rule="nonzero"/></clipPath><clipPath id="b9ecf1545a"><path d="M 117 145 L 145.242188 145 L 145.242188 189 L 117 189 Z M 117 145 " clip-rule="nonzero"/></clipPath><clipPath id="62341d3286"><path d="M 65.671875 181 L 108 181 L 108 186 L 65.671875 186 Z M 65.671875 181 " clip-rule="nonzero"/></clipPath><clipPath id="7fc0de0c6f"><path d="M 74 228 L 116 228 L 116 261.0625 L 74 261.0625 Z M 74 228 " clip-rule="nonzero"/></clipPath></defs><g clip-path="url(#6a748ea5b7)"><path stroke-linecap="butt" transform="matrix(1.348641, 0, 0, 1.348641, 0.210856, 290.034263)" fill="none" stroke-linejoin="miter" d="M 0.0000605186 1.999202 L 47.681152 1.999202 " stroke="#000000" stroke-width="4" stroke-opacity="1" stroke-miterlimit="4"/></g><g clip-path="url(#36f317cb96)"><path stroke-linecap="butt" transform="matrix(1.348641, 0, 0, 1.348641, 2.981186, 0.0730575)" fill="none" stroke-linejoin="miter" d="M -0.000531715 1.9994 L 217.055314 1.9994 " stroke="#000000" stroke-width="4" stroke-opacity="1" stroke-miterlimit="4"/></g><g clip-path="url(#a7137b5f74)"><path stroke-linecap="butt" transform="matrix(0, -1.348641, 1.348641, 0, 0.282933, 295.500931)" fill="none" stroke-linejoin="miter" d="M 0.000690497 2.000188 L 219.110108 2.000188 " stroke="#000000" stroke-width="4" stroke-opacity="1" stroke-miterlimit="4"/></g><path stroke-linecap="butt" transform="matrix(0, -1.348641, 1.348641, 0, 293.014095, 131.493893)" fill="none" stroke-linejoin="miter" d="M 0.00126456 1.999674 L 97.501016 1.999674 " stroke="#000000" stroke-width="4" stroke-opacity="1" stroke-miterlimit="4"/><g clip-path="url(#c65ccf6c7f)"><path fill="#ffcd69" d="M 75.363281 99.375 C 78.410156 99.375 80.914062 101.84375 80.914062 104.925781 C 80.914062 107.972656 78.445312 110.476562 75.363281 110.476562 C 72.285156 110.476562 69.8125 108.003906 69.8125 104.925781 C 69.84375 101.84375 72.316406 99.375 75.363281 99.375 Z M 34.617188 148.175781 C 34.617188 151.222656 37.085938 153.726562 40.167969 153.726562 C 43.214844 153.726562 45.71875 151.253906 45.71875 148.175781 C 45.71875 145.128906 43.246094 142.625 40.167969 142.625 C 37.085938 142.65625 34.617188 145.128906 34.617188 148.175781 Z M 34.617188 148.175781 " fill-opacity="1" fill-rule="nonzero"/></g><g clip-path="url(#10f67675b4)"><path fill="#121212" d="M 90.058594 91.511719 L 90.058594 105.4375 L 60.699219 105.4375 L 60.699219 91.511719 C 60.699219 84.871094 66.15625 79.417969 72.796875 79.417969 L 72.894531 79.417969 L 72.894531 2.925781 L 77.160156 2.925781 L 77.160156 79.449219 L 77.960938 79.449219 C 84.605469 79.449219 90.058594 84.871094 90.058594 91.511719 Z M 42.734375 122.699219 L 42.058594 122.699219 L 42.058594 2.925781 L 37.792969 2.925781 L 37.792969 122.699219 L 37.566406 122.699219 C 30.925781 122.699219 25.472656 128.152344 25.472656 134.796875 L 25.472656 148.71875 L 54.828125 148.71875 L 54.828125 134.796875 C 54.828125 128.152344 49.375 122.699219 42.734375 122.699219 Z M 42.734375 122.699219 " fill-opacity="1" fill-rule="nonzero"/></g><g clip-path="url(#126313e4dc)"><path fill="#121212" d="M 90.058594 91.511719 L 90.058594 105.4375 L 85.824219 105.4375 L 85.824219 91.929688 C 85.824219 86.539062 82.808594 81.886719 78.539062 79.867188 L 69.84375 79.867188 L 69.84375 76.175781 L 80.914062 76.175781 L 80.914062 79.769531 C 86.144531 81.117188 90.058594 85.898438 90.058594 91.511719 Z M 45.683594 123.085938 L 45.683594 119.492188 L 34.617188 119.492188 L 34.617188 123.085938 L 43.148438 123.085938 C 47.511719 125.074219 50.59375 129.789062 50.59375 135.246094 L 50.59375 148.753906 L 54.828125 148.753906 L 54.828125 134.796875 C 54.828125 129.179688 50.914062 124.398438 45.683594 123.085938 Z M 45.683594 123.085938 " fill-opacity="1" fill-rule="nonzero"/></g><g clip-path="url(#81a8f78a1f)"><g clip-path="url(#992f0fcfe7)"><g clip-path="url(#5934198a47)"><path fill="#ffbb02" d="M 249.425781 251.214844 C 249.496094 264.265625 247.828125 272.121094 247.640625 272.355469 C 246.238281 278.417969 243.351562 282.6875 244.148438 285.328125 C 244.71875 287.21875 246.253906 288.679688 250.847656 287.277344 C 262.757812 283.636719 265.117188 279.929688 270.148438 273.480469 C 279.507812 261.480469 293.980469 242.253906 289.230469 227.785156 C 286.261719 218.738281 268.402344 218.011719 258.988281 219.292969 C 244.378906 221.277344 249.300781 227.210938 249.425781 251.214844 Z M 249.425781 251.214844 " fill-opacity="1" fill-rule="nonzero"/></g></g></g><path fill="#ffbb02" d="M 147.222656 267.769531 C 149.859375 278.886719 158.542969 281.605469 172.753906 284.480469 C 197.28125 289.449219 237.535156 292.722656 244.40625 268.75 C 246.65625 260.894531 248.269531 234.785156 237.578125 225.71875 C 230.179688 219.4375 212.09375 214.539062 207.628906 213.136719 C 171.019531 201.675781 163.839844 202.839844 157.605469 206.355469 C 145.492188 213.175781 144.679688 257.054688 147.222656 267.769531 Z M 147.222656 267.769531 " fill-opacity="1" fill-rule="nonzero"/><g clip-path="url(#5491b6bb83)"><path fill="#000001" d="M 214.472656 222.527344 C 213.09375 225.339844 212.871094 228.21875 212.863281 229.679688 C 212.839844 233.269531 213.867188 235.464844 214.324219 235.46875 C 214.324219 235.46875 214.328125 235.46875 214.328125 235.46875 C 214.523438 235.46875 215.285156 234.546875 215.394531 230 C 215.460938 227.097656 215.152344 224.601562 214.472656 222.527344 Z M 216.242188 245.464844 C 216.441406 247.363281 216.4375 249.835938 216.292969 252.253906 C 238.960938 252.1875 258.339844 251.675781 261.652344 251.078125 C 258.753906 248.222656 253.769531 243.757812 251.667969 243.386719 C 248.945312 242.90625 221.453125 242.246094 218.128906 242.460938 C 217.460938 242.507812 216.761719 243.640625 216.242188 245.464844 Z M 215.589844 249.050781 C 215.492188 250.050781 215.441406 251.128906 215.453125 252.257812 C 215.460938 252.257812 215.46875 252.257812 215.476562 252.257812 C 215.542969 251.179688 215.582031 250.09375 215.589844 249.050781 Z M 168.019531 250.859375 C 170.28125 251.753906 188.722656 252.316406 214.667969 252.257812 C 214.640625 249.859375 214.917969 247.375 215.449219 245.417969 C 215.355469 244.53125 215.210938 243.796875 215.007812 243.289062 C 214.863281 242.917969 214.6875 242.695312 214.546875 242.695312 C 213.445312 242.695312 207.074219 242.867188 199.691406 243.066406 C 190.054688 243.328125 179.136719 243.625 176.664062 243.625 C 174.371094 243.625 170.132812 247.527344 168.019531 250.859375 Z M 215.886719 256.488281 C 216.417969 259 217.480469 260.960938 219.273438 261.007812 C 224.480469 261.140625 251.914062 261.046875 260.199219 261.015625 C 261.175781 261.011719 261.992188 260.242188 262.050781 259.265625 C 262.199219 256.933594 262.410156 254.195312 262.707031 251.398438 C 262.6875 251.441406 262.664062 251.484375 262.628906 251.523438 C 262.425781 251.761719 262.046875 252.207031 247.457031 252.613281 C 238.960938 252.851562 227.609375 253.003906 216.242188 253.039062 C 216.152344 254.246094 216.03125 255.425781 215.886719 256.488281 Z M 186.585938 272.246094 C 200.539062 272.820312 236.097656 274.054688 257.929688 272.730469 C 257.425781 272.207031 256.847656 271.890625 256.1875 271.839844 C 227.035156 269.5625 198.53125 271.289062 186.585938 272.246094 Z M 256.105469 275.167969 C 255.953125 275.167969 255.8125 275.238281 255.722656 275.363281 C 255.632812 275.488281 255.609375 275.640625 255.65625 275.789062 L 259.085938 286 C 259.152344 286.203125 259.351562 286.335938 259.5625 286.320312 L 260.414062 286.265625 C 260.664062 286.25 260.855469 286.039062 260.855469 285.789062 C 260.820312 281.941406 260.378906 277.902344 259.339844 275.167969 Z M 164.570312 272.539062 C 166.320312 273.230469 168.15625 273.511719 169.222656 273.621094 C 169.5625 273.65625 169.878906 273.832031 170.085938 274.105469 C 170.296875 274.378906 170.386719 274.730469 170.332031 275.070312 L 168.324219 287.441406 C 168.300781 287.582031 168.339844 287.714844 168.429688 287.824219 C 168.519531 287.929688 168.648438 287.988281 168.789062 287.988281 L 170.335938 287.988281 C 170.554688 287.988281 170.746094 287.839844 170.796875 287.625 L 174.179688 273.117188 C 174.214844 272.976562 174.179688 272.828125 174.089844 272.714844 C 174 272.601562 173.867188 272.539062 173.722656 272.539062 Z M 146.203125 271.753906 L 161.625 271.753906 C 160.882812 271.152344 160.257812 270.421875 159.84375 269.527344 C 157.984375 265.535156 149.84375 240.925781 153.132812 235.355469 C 153.589844 234.582031 154.242188 234.160156 155.070312 234.101562 C 159.183594 233.816406 161.316406 241.449219 163.390625 248.820312 C 164.921875 254.265625 166.507812 259.898438 168.65625 261.054688 C 170.824219 262.21875 180.214844 262.757812 192.589844 262.433594 C 204.914062 262.113281 213.363281 261.136719 214.125 260.417969 C 214.453125 260.105469 214.800781 258.554688 215.074219 256.488281 C 214.867188 255.46875 214.738281 254.316406 214.6875 253.042969 C 202.867188 253.066406 169.570312 252.988281 167.386719 251.40625 C 167.089844 251.191406 167.082031 250.886719 167.207031 250.679688 C 169.203125 247.40625 173.769531 242.839844 176.664062 242.839844 C 179.125 242.839844 190.039062 242.542969 199.671875 242.285156 C 207.058594 242.085938 213.4375 241.910156 214.546875 241.910156 C 215.050781 241.910156 215.449219 242.277344 215.738281 242.996094 C 215.832031 243.234375 215.914062 243.515625 215.988281 243.835938 C 216.535156 242.558594 217.238281 241.734375 218.078125 241.679688 C 221.414062 241.464844 249.0625 242.128906 251.804688 242.613281 C 254.75 243.132812 261.808594 250.121094 262.605469 250.917969 C 262.671875 250.984375 262.714844 251.070312 262.730469 251.15625 C 263.609375 243.023438 265.222656 234.492188 268.152344 234.105469 C 268.636719 234.042969 268.855469 233.914062 268.855469 233.8125 C 268.871094 232.820312 263.878906 229.75 260.253906 229.160156 C 259.332031 229.011719 258.511719 229.214844 257.746094 229.785156 C 255.019531 231.824219 253.980469 237.855469 253.664062 240.351562 C 253.539062 241.335938 252.664062 242.035156 251.675781 241.9375 C 247.476562 241.535156 235.570312 240.597656 215.671875 240.597656 C 196.046875 240.597656 181.332031 241.605469 177.289062 241.914062 C 176.496094 241.976562 175.792969 241.429688 175.652344 240.648438 C 175.238281 238.351562 173.535156 230.730469 168.960938 229.144531 C 167.796875 228.742188 165.765625 229.339844 163.703125 230.242188 C 161.078125 232.972656 157.757812 233.484375 157.699219 233.492188 C 157.519531 233.519531 157.34375 233.414062 157.28125 233.242188 C 157.214844 233.070312 157.277344 232.875 157.429688 232.777344 C 157.628906 232.644531 160.386719 230.839844 163.335938 229.546875 C 164.847656 227.871094 166.066406 225.335938 166.066406 221.507812 C 166.066406 219.558594 166.730469 217.945312 168.035156 216.71875 C 172.089844 212.914062 181.511719 213.503906 188.390625 213.9375 C 190.253906 214.054688 191.863281 214.15625 193.132812 214.15625 C 194.074219 214.15625 195.175781 214.09375 196.34375 214.023438 C 201.292969 213.734375 208.074219 213.339844 212.273438 217.398438 C 213.222656 218.3125 213.996094 219.425781 214.601562 220.722656 C 214.835938 220.367188 215.089844 220.015625 215.367188 219.671875 C 218.179688 216.183594 222.507812 214.40625 228.230469 214.386719 C 231.441406 214.378906 234.46875 214.332031 237.140625 214.292969 C 253.769531 214.035156 262.117188 213.910156 262.949219 223.171875 C 263.460938 228.871094 265.976562 229.578125 268.894531 230.402344 C 271.109375 231.027344 273.402344 231.675781 274.890625 234.546875 C 277.617188 239.808594 273.414062 259.980469 268.714844 268.679688 C 267.242188 271.40625 265.808594 272.859375 264.453125 273 C 262.890625 273.160156 261.203125 273.300781 259.410156 273.421875 C 259.582031 273.722656 259.738281 274.042969 259.886719 274.382812 L 276.542969 274.382812 C 276.554688 274.382812 276.5625 274.382812 276.574219 274.382812 C 276.65625 274.390625 277.058594 275.203125 276.53125 275.167969 L 260.191406 275.167969 C 261.394531 278.554688 261.617188 283.203125 261.636719 285.785156 C 261.644531 286.449219 261.128906 287.003906 260.464844 287.046875 L 259.613281 287.105469 C 259.046875 287.140625 258.523438 286.792969 258.339844 286.25 L 254.914062 276.035156 C 254.785156 275.648438 254.847656 275.238281 255.085938 274.90625 C 255.324219 274.574219 255.695312 274.382812 256.105469 274.382812 L 259.007812 274.382812 C 258.855469 274.054688 258.691406 273.753906 258.511719 273.480469 C 231.09375 275.210938 181.207031 272.796875 180.667969 272.769531 C 180.460938 272.757812 180.300781 272.59375 180.292969 272.390625 C 180.289062 272.183594 180.441406 272.007812 180.644531 271.988281 C 181.015625 271.949219 218.078125 268.074219 256.25 271.058594 C 257.34375 271.144531 258.21875 271.746094 258.917969 272.667969 C 260.863281 272.542969 262.691406 272.390625 264.375 272.21875 C 265.117188 272.144531 266.351562 271.402344 268.023438 268.308594 C 272.578125 259.878906 276.757812 239.859375 274.191406 234.90625 C 272.863281 232.335938 270.832031 231.765625 268.683594 231.15625 C 265.753906 230.332031 262.726562 229.476562 262.167969 223.242188 C 261.402344 214.703125 253.804688 214.820312 237.152344 215.074219 C 234.476562 215.117188 231.445312 215.164062 228.234375 215.171875 C 220.828125 215.195312 216.972656 218.226562 214.972656 221.597656 C 215.851562 223.890625 216.257812 226.707031 216.175781 230.019531 C 216.078125 234.175781 215.449219 236.273438 214.3125 236.253906 C 212.910156 236.234375 212.058594 232.824219 212.078125 229.675781 C 212.089844 227.832031 212.394531 224.59375 214.105469 221.542969 C 213.515625 220.117188 212.722656 218.921875 211.730469 217.960938 C 207.777344 214.144531 201.460938 214.511719 196.390625 214.808594 C 195.210938 214.875 194.097656 214.941406 193.132812 214.941406 C 191.839844 214.941406 190.21875 214.839844 188.339844 214.722656 C 181.605469 214.296875 172.378906 213.71875 168.574219 217.292969 C 167.414062 218.378906 166.851562 219.757812 166.851562 221.507812 C 166.851562 224.816406 165.964844 227.226562 164.746094 228.976562 C 166.457031 228.351562 168.101562 228.015625 169.21875 228.402344 C 174.058594 230.082031 175.871094 237.429688 176.425781 240.507812 C 176.496094 240.894531 176.839844 241.160156 177.230469 241.132812 C 181.28125 240.824219 196.019531 239.8125 215.671875 239.8125 C 235.605469 239.8125 247.542969 240.753906 251.75 241.160156 C 252.320312 241.214844 252.8125 240.816406 252.886719 240.253906 C 253.296875 237.027344 254.414062 231.296875 257.277344 229.15625 C 258.207031 228.464844 259.253906 228.203125 260.378906 228.386719 C 263.621094 228.914062 269.667969 231.980469 269.640625 233.824219 C 269.632812 234.226562 269.386719 234.734375 268.253906 234.882812 C 265.839844 235.199219 263.761719 244.5625 262.835938 259.316406 C 262.75 260.703125 261.589844 261.792969 260.199219 261.800781 C 251.914062 261.832031 224.472656 261.921875 219.253906 261.792969 C 217.628906 261.75 216.367188 260.523438 215.578125 258.339844 C 215.3125 259.695312 214.996094 260.671875 214.664062 260.988281 C 213.238281 262.332031 199.613281 263.035156 192.609375 263.21875 C 182.664062 263.480469 171.050781 263.230469 168.285156 261.746094 C 165.839844 260.433594 164.285156 254.894531 162.636719 249.03125 C 160.738281 242.289062 158.59375 234.648438 155.121094 234.886719 C 154.5625 234.925781 154.132812 235.207031 153.808594 235.753906 C 150.714844 240.992188 158.789062 265.40625 160.554688 269.195312 C 161.0625 270.296875 161.949219 271.125 162.980469 271.753906 L 173.722656 271.753906 C 174.105469 271.753906 174.464844 271.925781 174.707031 272.230469 C 174.945312 272.53125 175.03125 272.917969 174.945312 273.292969 L 171.558594 287.804688 C 171.425781 288.375 170.921875 288.773438 170.335938 288.773438 L 168.789062 288.773438 C 168.421875 288.773438 168.070312 288.613281 167.832031 288.332031 C 167.59375 288.050781 167.492188 287.679688 167.550781 287.316406 L 169.554688 274.945312 C 169.578125 274.816406 169.542969 274.683594 169.464844 274.582031 C 169.386719 274.476562 169.269531 274.414062 169.140625 274.402344 C 167.714844 274.253906 164.996094 273.816406 162.773438 272.539062 L 146.203125 272.539062 C 145.113281 272.539062 144.820312 271.753906 146.203125 271.753906 " fill-opacity="1" fill-rule="nonzero"/></g><path fill="#000000" d="M 335.3125 177.5 C 337.785156 177.453125 340.289062 178.007812 342.820312 179.15625 C 347.621094 181.433594 350.601562 184.601562 351.761719 188.652344 L 351.761719 188.65625 C 352.757812 192.058594 351.6875 196.070312 348.546875 200.695312 C 345.707031 204.554688 342.019531 207.167969 337.480469 208.535156 L 337.476562 208.535156 C 336.113281 208.855469 334.757812 209.027344 333.410156 209.050781 C 330.125 209.113281 326.886719 208.300781 323.695312 206.605469 C 319.617188 204.375 317.21875 201.246094 316.503906 197.21875 C 315.949219 193.214844 317.023438 189.554688 319.734375 186.242188 L 319.730469 186.242188 C 324.074219 181.625 328.335938 178.835938 332.515625 177.878906 C 332.605469 177.859375 332.683594 177.820312 332.753906 177.765625 L 332.734375 177.769531 C 333.589844 177.605469 334.449219 177.519531 335.3125 177.5 Z M 335.292969 176.273438 C 333.382812 176.3125 331.484375 176.679688 329.601562 177.382812 C 329.460938 177.433594 329.355469 177.53125 329.285156 177.652344 L 329.269531 177.652344 C 325.824219 179.097656 322.355469 181.675781 318.855469 185.398438 L 318.828125 185.429688 C 315.875 189.03125 314.699219 193.015625 315.308594 197.390625 L 315.3125 197.414062 C 316.089844 201.839844 318.691406 205.261719 323.121094 207.683594 L 323.128906 207.6875 C 326.507812 209.480469 329.9375 210.34375 333.421875 210.277344 C 334.871094 210.25 336.324219 210.0625 337.789062 209.714844 L 337.824219 209.707031 C 342.625 208.261719 346.527344 205.492188 349.527344 201.40625 L 349.542969 201.390625 C 352.898438 196.445312 354.027344 192.085938 352.921875 188.3125 C 351.660156 183.902344 348.460938 180.480469 343.320312 178.042969 L 343.3125 178.039062 C 340.613281 176.8125 337.9375 176.222656 335.292969 176.273438 Z M 335.292969 176.273438 " fill-opacity="1" fill-rule="nonzero"/><path fill="#000000" d="M 329.28125 202.179688 C 329.074219 202.183594 328.871094 202.296875 328.761719 202.496094 C 328.601562 202.792969 328.707031 203.164062 329 203.328125 C 330.722656 204.292969 332.695312 204.757812 334.917969 204.71875 C 334.925781 204.71875 334.933594 204.71875 334.941406 204.71875 C 336.164062 204.695312 337.414062 204.546875 338.6875 204.273438 C 340.050781 203.996094 341.3125 203.628906 342.484375 203.167969 C 342.792969 203.046875 342.949219 202.691406 342.828125 202.378906 C 342.734375 202.132812 342.5 201.984375 342.253906 201.988281 C 342.183594 201.988281 342.113281 202.003906 342.046875 202.027344 C 340.941406 202.460938 339.742188 202.808594 338.449219 203.074219 L 338.445312 203.074219 C 337.242188 203.332031 336.066406 203.472656 334.917969 203.496094 C 334.910156 203.496094 334.902344 203.496094 334.898438 203.496094 C 332.890625 203.53125 331.121094 203.117188 329.585938 202.257812 C 329.488281 202.203125 329.382812 202.179688 329.28125 202.179688 Z M 329.28125 202.179688 " fill-opacity="1" fill-rule="nonzero"/><path fill="#000000" d="M 344.1875 179.460938 C 344.140625 179.460938 344.09375 179.464844 344.042969 179.480469 C 341.085938 180.273438 337.441406 181.1875 333.105469 182.230469 L 333.097656 182.234375 L 333.085938 182.238281 C 331.757812 182.585938 330.898438 182.871094 330.507812 183.089844 C 330.4375 183.128906 330.378906 183.167969 330.324219 183.210938 L 330.320312 183.210938 C 330.308594 183.222656 330.292969 183.234375 330.277344 183.246094 C 329.847656 183.605469 329.796875 184 330.117188 184.429688 C 330.152344 184.480469 330.199219 184.523438 330.25 184.5625 C 331.34375 185.347656 331.941406 185.929688 332.039062 186.304688 L 332.03125 186.304688 C 332.027344 186.410156 331.871094 186.5 331.574219 186.574219 C 330.066406 186.898438 328.199219 187.082031 325.96875 187.125 C 325.613281 187.132812 325.25 187.132812 324.875 187.132812 L 324.867188 187.132812 C 322.792969 187.167969 320.769531 186.960938 318.792969 186.511719 C 318.746094 186.5 318.699219 186.496094 318.648438 186.496094 C 318.378906 186.503906 318.132812 186.695312 318.070312 186.976562 C 318 187.304688 318.203125 187.632812 318.53125 187.707031 C 320.597656 188.175781 322.714844 188.390625 324.882812 188.359375 L 324.878906 188.359375 C 325.257812 188.359375 325.625 188.355469 325.988281 188.347656 C 328.308594 188.304688 330.257812 188.109375 331.84375 187.769531 L 331.859375 187.765625 C 332.941406 187.5 333.394531 186.917969 333.214844 186.027344 L 333.207031 185.992188 C 333.0625 185.429688 332.496094 184.761719 331.507812 183.984375 L 331.492188 183.984375 C 331.898438 183.835938 332.527344 183.648438 333.386719 183.421875 C 337.730469 182.378906 341.386719 181.457031 344.351562 180.664062 C 344.675781 180.574219 344.867188 180.242188 344.78125 179.914062 C 344.710938 179.636719 344.460938 179.453125 344.1875 179.460938 Z M 344.1875 179.460938 " fill-opacity="1" fill-rule="nonzero"/><g clip-path="url(#17fd3cffcb)"><path fill="#000000" d="M 337.421875 173.363281 C 335.195312 173.40625 332.859375 173.675781 330.421875 174.167969 L 330.414062 174.167969 C 320.816406 176.1875 313.625 180.835938 308.832031 188.117188 L 308.820312 188.136719 C 306.765625 191.542969 306.003906 194.445312 306.53125 196.847656 L 306.527344 196.847656 C 306.742188 199.402344 308.523438 203.539062 311.871094 209.265625 L 311.859375 209.265625 C 312.238281 210.265625 312.386719 211.164062 312.3125 211.953125 L 312.308594 211.976562 C 312.175781 214.1875 310.421875 215.460938 307.042969 215.796875 C 304.449219 215.570312 303.082031 214.582031 302.941406 212.832031 L 302.957031 212.832031 C 303.15625 211.683594 304.003906 210.878906 305.503906 210.417969 L 305.488281 210.417969 C 305.570312 210.410156 305.648438 210.40625 305.722656 210.40625 C 305.832031 210.402344 305.933594 210.410156 306.023438 210.421875 C 306.617188 210.496094 306.851562 211.011719 306.730469 211.964844 C 306.6875 212.300781 306.921875 212.609375 307.25 212.652344 C 307.28125 212.65625 307.3125 212.65625 307.339844 212.65625 C 307.636719 212.652344 307.890625 212.425781 307.929688 212.121094 C 308.152344 210.359375 307.570312 209.386719 306.179688 209.207031 C 306.03125 209.1875 305.871094 209.179688 305.703125 209.183594 C 305.582031 209.183594 305.457031 209.191406 305.328125 209.207031 L 305.222656 209.226562 C 303.125 209.851562 301.964844 211.042969 301.742188 212.800781 L 301.738281 212.929688 C 301.933594 215.386719 303.6875 216.75 307 217.019531 L 307.105469 217.019531 C 311.191406 216.628906 313.328125 214.980469 313.515625 212.070312 C 313.609375 211.0625 313.421875 209.949219 312.953125 208.730469 L 312.910156 208.640625 C 309.621094 203.015625 307.894531 199.023438 307.722656 196.671875 L 307.710938 196.582031 C 307.257812 194.507812 307.964844 191.910156 309.839844 188.792969 C 314.445312 181.792969 321.386719 177.316406 330.65625 175.367188 C 333.019531 174.890625 335.277344 174.628906 337.429688 174.589844 C 343.707031 174.472656 349.097656 176.214844 353.601562 179.820312 L 353.589844 179.820312 C 355.519531 181.882812 356.433594 184.417969 356.335938 187.421875 L 356.335938 187.496094 C 356.511719 189.421875 355.660156 194.03125 353.777344 201.328125 L 353.761719 201.402344 C 353.554688 202.992188 353.632812 204.179688 353.988281 204.96875 C 354.6875 206.523438 355.894531 207.285156 357.613281 207.253906 C 358.234375 207.242188 358.929688 207.125 359.6875 206.902344 L 359.742188 206.882812 C 362.011719 205.972656 363.066406 204.226562 362.902344 201.644531 L 362.886719 201.542969 C 362.355469 199.265625 360.898438 198.085938 358.507812 198.003906 L 358.441406 198.003906 C 356.914062 198.113281 356.195312 198.789062 356.28125 200.027344 C 356.328125 200.652344 356.628906 201.417969 357.191406 202.324219 C 357.308594 202.515625 357.511719 202.617188 357.714844 202.613281 C 357.824219 202.609375 357.929688 202.582031 358.027344 202.519531 C 358.308594 202.339844 358.394531 201.960938 358.214844 201.675781 C 357.761719 200.941406 357.519531 200.359375 357.488281 199.9375 C 357.457031 199.523438 357.792969 199.285156 358.488281 199.226562 L 358.507812 199.226562 C 360.257812 199.300781 361.324219 200.167969 361.710938 201.824219 L 361.703125 201.824219 C 361.796875 203.757812 360.992188 205.066406 359.296875 205.746094 L 359.285156 205.746094 C 358.691406 205.914062 358.152344 206.003906 357.671875 206.015625 C 356.425781 206.039062 355.5625 205.519531 355.089844 204.460938 L 355.085938 204.460938 C 354.832031 203.894531 354.785156 202.953125 354.949219 201.636719 L 354.945312 201.636719 C 356.839844 194.292969 357.707031 189.570312 357.546875 187.460938 L 357.542969 187.460938 C 357.65625 184.085938 356.609375 181.238281 354.410156 178.914062 L 354.347656 178.859375 C 349.617188 175.070312 343.976562 173.242188 337.421875 173.363281 Z M 337.421875 173.363281 " fill-opacity="1" fill-rule="nonzero"/></g><path fill="#000000" d="M 338.261719 208.195312 C 337.949219 208.199219 337.6875 208.449219 337.667969 208.769531 C 337.449219 212.445312 338.097656 216.523438 339.617188 221 L 339.613281 221 C 340.554688 224.320312 343.234375 230.167969 347.652344 238.535156 C 348.289062 240.058594 348.65625 241.382812 348.757812 242.515625 L 348.757812 242.519531 C 348.878906 243.769531 348.519531 244.644531 347.671875 245.148438 L 347.671875 245.152344 C 346.601562 245.792969 344.5 246.273438 341.359375 246.582031 C 339.011719 246.785156 336.710938 246.910156 334.460938 246.953125 C 330.953125 247.015625 327.570312 246.890625 324.300781 246.566406 L 324.296875 246.566406 C 321.164062 246.128906 319.414062 245.199219 319.054688 243.773438 L 319.039062 243.71875 C 318.671875 242.679688 318.9375 240.851562 319.839844 238.238281 C 321.664062 233.105469 324.183594 226.59375 327.398438 218.707031 L 327.410156 218.675781 L 330.449219 209.769531 C 330.558594 209.449219 330.390625 209.101562 330.078125 208.992188 C 330.007812 208.96875 329.9375 208.957031 329.867188 208.957031 C 329.621094 208.960938 329.394531 209.121094 329.308594 209.371094 L 326.269531 218.277344 L 326.265625 218.277344 C 323.050781 226.164062 320.53125 232.679688 318.703125 237.824219 L 318.703125 237.828125 C 317.703125 240.71875 317.4375 242.820312 317.898438 244.132812 C 318.417969 246.054688 320.496094 247.269531 324.132812 247.777344 L 324.15625 247.78125 C 327.476562 248.109375 330.921875 248.242188 334.484375 248.175781 C 336.761719 248.132812 339.09375 248.007812 341.46875 247.800781 L 341.476562 247.800781 C 344.792969 247.472656 347.0625 246.941406 348.289062 246.203125 C 349.574219 245.433594 350.132812 244.167969 349.960938 242.402344 C 349.847656 241.132812 349.441406 239.667969 348.742188 238.007812 L 348.71875 237.960938 C 344.328125 229.640625 341.675781 223.867188 340.769531 220.636719 L 340.757812 220.605469 C 339.292969 216.277344 338.664062 212.359375 338.875 208.84375 C 338.894531 208.507812 338.640625 208.21875 338.308594 208.195312 C 338.292969 208.195312 338.277344 208.195312 338.261719 208.195312 Z M 338.261719 208.195312 " fill-opacity="1" fill-rule="nonzero"/><g clip-path="url(#5a3280f3df)"><path fill="#000000" d="M 305.660156 230.320312 C 305.542969 230.414062 305.464844 230.550781 305.441406 230.695312 L 305.425781 230.699219 C 305.4375 230.53125 305.507812 230.40625 305.644531 230.320312 Z M 329.285156 210.144531 C 329.109375 210.148438 328.941406 210.226562 328.824219 210.375 C 328.269531 211.074219 327.695312 211.714844 327.101562 212.289062 L 327.097656 212.292969 C 322.230469 216.8125 319.09375 219.835938 317.683594 221.359375 C 314.996094 224.144531 312.222656 227.28125 309.359375 230.769531 C 309.042969 231.117188 308.777344 231.335938 308.5625 231.421875 L 308.511719 231.445312 C 308.4375 231.484375 308.359375 231.503906 308.269531 231.503906 C 307.855469 231.511719 307.25 231.128906 306.457031 230.355469 C 306.40625 230.308594 306.351562 230.269531 306.292969 230.242188 L 306.277344 230.242188 C 305.769531 229.761719 303.695312 227.304688 300.054688 222.878906 C 299.933594 222.730469 299.757812 222.65625 299.578125 222.65625 C 299.445312 222.660156 299.3125 222.707031 299.203125 222.800781 C 298.949219 223.015625 298.914062 223.402344 299.125 223.660156 C 303.011719 228.386719 305.167969 230.921875 305.597656 231.265625 C 305.65625 231.3125 305.71875 231.351562 305.78125 231.375 L 305.765625 231.378906 C 306.734375 232.289062 307.589844 232.738281 308.328125 232.722656 C 308.570312 232.71875 308.800781 232.664062 309.019531 232.558594 L 309.015625 232.558594 C 309.402344 232.398438 309.820312 232.070312 310.269531 231.574219 L 310.289062 231.550781 C 313.132812 228.085938 315.890625 224.96875 318.558594 222.203125 L 318.566406 222.195312 C 319.953125 220.695312 323.070312 217.691406 327.917969 213.191406 L 327.9375 213.171875 C 328.570312 212.558594 329.179688 211.882812 329.765625 211.140625 C 329.976562 210.875 329.933594 210.492188 329.671875 210.28125 C 329.558594 210.1875 329.421875 210.144531 329.285156 210.144531 Z M 329.285156 210.144531 " fill-opacity="1" fill-rule="nonzero"/></g><path fill="#000000" d="M 338.8125 209.347656 L 338.832031 209.355469 L 338.832031 209.359375 L 338.8125 209.347656 C 339.441406 209.625 340.183594 210.046875 341.039062 210.613281 L 341.046875 210.621094 C 345.394531 213.625 349.84375 216.597656 354.390625 219.535156 L 354.394531 219.539062 C 355.972656 220.585938 356.882812 221.335938 357.125 221.789062 C 357.242188 222.007812 357.273438 222.21875 357.21875 222.425781 L 357.160156 221.960938 C 357.226562 222.078125 357.273438 222.207031 357.292969 222.347656 C 357.398438 223.003906 356.917969 223.980469 355.855469 225.273438 L 355.847656 225.28125 C 352.867188 228.773438 349.78125 232.21875 346.601562 235.613281 C 346.371094 235.859375 345.988281 235.867188 345.746094 235.636719 C 345.503906 235.402344 345.496094 235.015625 345.722656 234.769531 C 348.894531 231.390625 351.964844 227.960938 354.933594 224.480469 L 354.925781 224.492188 C 355.753906 223.480469 356.144531 222.832031 356.101562 222.542969 C 356.101562 222.550781 356.105469 222.5625 356.113281 222.574219 C 356.03125 222.433594 356.011719 222.265625 356.050781 222.109375 C 356.023438 222.214844 356.027344 222.304688 356.066406 222.375 C 355.917969 222.097656 355.140625 221.496094 353.734375 220.5625 L 353.742188 220.566406 C 349.183594 217.621094 344.722656 214.644531 340.367188 211.628906 L 340.375 211.636719 C 339.578125 211.109375 338.894531 210.71875 338.328125 210.472656 L 338.3125 210.460938 L 338.308594 210.460938 C 338.023438 210.335938 337.882812 209.976562 338.015625 209.664062 C 338.148438 209.355469 338.503906 209.214844 338.8125 209.347656 Z M 338.8125 209.347656 " fill-opacity="1" fill-rule="nonzero"/><g clip-path="url(#5cb157e726)"><path fill="#000000" d="M 302.265625 221.171875 C 302.226562 221.171875 302.1875 221.175781 302.148438 221.183594 C 301.824219 221.257812 301.613281 221.582031 301.6875 221.910156 C 302.128906 223.980469 302.1875 225.640625 301.867188 226.882812 L 301.847656 226.882812 C 301.757812 227.023438 301.589844 227.164062 301.34375 227.296875 L 301.339844 227.300781 C 301.25 227.351562 301.117188 227.414062 300.929688 227.492188 C 299.820312 227.890625 299.113281 228.171875 298.804688 228.34375 C 298.511719 228.507812 298.40625 228.878906 298.566406 229.175781 C 298.675781 229.378906 298.890625 229.496094 299.109375 229.492188 C 299.203125 229.488281 299.296875 229.464844 299.386719 229.417969 C 299.640625 229.277344 300.296875 229.015625 301.363281 228.632812 L 301.394531 228.621094 C 301.621094 228.527344 301.796875 228.441406 301.925781 228.371094 C 302.464844 228.074219 302.824219 227.710938 303.003906 227.28125 L 303.035156 227.195312 C 303.40625 225.761719 303.351562 223.914062 302.867188 221.652344 C 302.804688 221.363281 302.546875 221.164062 302.265625 221.171875 Z M 302.265625 221.171875 " fill-opacity="1" fill-rule="nonzero"/></g><g clip-path="url(#bd2ef76fac)"><path fill="#000000" d="M 328.320312 246.808594 C 328.050781 246.816406 327.808594 247.003906 327.742188 247.28125 C 327.191406 249.671875 326.65625 253.976562 326.136719 260.191406 L 326.136719 260.195312 C 325.839844 263.777344 325.558594 271.539062 325.296875 283.476562 C 325.195312 285.390625 325.074219 286.492188 324.929688 286.777344 L 324.925781 286.78125 L 324.929688 286.78125 L 324.894531 286.855469 C 324.660156 287.480469 323.4375 287.8125 321.234375 287.855469 C 320.796875 287.863281 320.320312 287.859375 319.808594 287.84375 L 319.800781 287.84375 C 316.65625 287.660156 314.714844 287.324219 313.980469 286.835938 L 313.964844 286.835938 C 315.101562 286.089844 317.289062 285.6875 320.523438 285.625 C 321.6875 285.605469 322.984375 285.625 324.417969 285.691406 C 324.433594 285.695312 324.445312 285.695312 324.460938 285.695312 C 324.773438 285.6875 325.035156 285.433594 325.050781 285.109375 C 325.066406 284.773438 324.808594 284.484375 324.476562 284.46875 C 323.09375 284.40625 321.828125 284.386719 320.675781 284.40625 C 316.539062 284.484375 313.878906 285.117188 312.691406 286.304688 C 312.515625 286.476562 312.464844 286.742188 312.558594 286.972656 C 313.023438 288.113281 315.414062 288.8125 319.730469 289.066406 L 319.75 289.066406 C 320.199219 289.082031 320.621094 289.082031 321.023438 289.074219 C 323.894531 289.023438 325.554688 288.441406 326.007812 287.332031 L 326.003906 287.332031 C 326.226562 286.890625 326.394531 285.621094 326.503906 283.523438 L 326.503906 283.503906 C 326.765625 271.652344 327.042969 263.9375 327.335938 260.351562 L 327.332031 260.351562 L 327.339844 260.296875 C 327.855469 254.136719 328.382812 249.890625 328.921875 247.5625 C 328.996094 247.230469 328.792969 246.902344 328.46875 246.824219 C 328.417969 246.8125 328.371094 246.808594 328.320312 246.808594 Z M 328.320312 246.808594 " fill-opacity="1" fill-rule="nonzero"/></g><path fill="#000000" d="M 346.964844 284.105469 C 348.949219 284.066406 350.101562 284.5 350.421875 285.398438 L 350.40625 285.398438 C 350.167969 286.207031 348.511719 286.777344 345.4375 287.117188 L 345.417969 287.117188 C 345.03125 287.140625 344.660156 287.152344 344.3125 287.160156 C 344.21875 287.160156 344.125 287.164062 344.03125 287.164062 C 341.582031 287.183594 340.355469 286.886719 340.351562 286.277344 C 340.347656 286.1875 340.328125 286.101562 340.292969 286.023438 C 340.222656 285.867188 340.152344 285.601562 340.089844 285.222656 L 340.070312 285.222656 C 342.972656 284.507812 345.273438 284.136719 346.964844 284.105469 Z M 338.203125 247.320312 C 337.898438 247.328125 337.644531 247.5625 337.613281 247.875 C 337.273438 251.570312 337.226562 256.359375 337.464844 262.242188 L 337.464844 262.25 L 338.5 281.160156 L 338.5 281.164062 C 338.574219 282.46875 338.664062 283.546875 338.761719 284.398438 L 338.746094 284.398438 C 338.613281 284.546875 338.554688 284.753906 338.605469 284.960938 C 338.652344 285.136719 338.765625 285.273438 338.914062 285.351562 L 338.894531 285.355469 C 338.980469 285.859375 339.070312 286.230469 339.167969 286.472656 L 339.152344 286.472656 C 339.300781 287.773438 340.929688 288.410156 344.042969 288.386719 C 344.136719 288.386719 344.234375 288.386719 344.332031 288.382812 C 344.710938 288.375 345.109375 288.359375 345.53125 288.335938 L 345.5625 288.335938 C 349.457031 287.90625 351.480469 286.921875 351.632812 285.386719 C 351.640625 285.308594 351.636719 285.230469 351.613281 285.15625 C 351.183594 283.636719 349.554688 282.902344 346.726562 282.953125 C 344.941406 282.988281 342.671875 283.335938 339.929688 284 C 339.847656 283.230469 339.773438 282.261719 339.707031 281.09375 L 338.671875 262.183594 C 338.433594 256.359375 338.484375 251.628906 338.816406 247.988281 C 338.847656 247.652344 338.605469 247.355469 338.273438 247.324219 C 338.25 247.320312 338.226562 247.320312 338.203125 247.320312 Z M 338.203125 247.320312 " fill-opacity="1" fill-rule="nonzero"/><path fill="#000000" d="M 331.699219 190.898438 C 331.375 190.898438 331.085938 191.136719 331.035156 191.472656 C 331.011719 191.605469 330.988281 191.8125 330.960938 192.089844 L 330.960938 192.09375 C 330.949219 192.242188 330.9375 192.40625 330.929688 192.59375 C 330.90625 193.035156 330.902344 193.527344 330.910156 194.0625 C 330.914062 194.4375 331.214844 194.734375 331.582031 194.734375 C 331.585938 194.734375 331.589844 194.734375 331.59375 194.734375 C 331.96875 194.730469 332.265625 194.417969 332.257812 194.042969 C 332.25 193.535156 332.257812 193.074219 332.277344 192.65625 C 332.285156 192.496094 332.292969 192.351562 332.304688 192.226562 C 332.332031 191.972656 332.351562 191.792969 332.367188 191.6875 C 332.425781 191.3125 332.171875 190.964844 331.804688 190.90625 C 331.769531 190.898438 331.734375 190.898438 331.699219 190.898438 Z M 331.699219 190.898438 " fill-opacity="1" fill-rule="nonzero"/><path fill="#000000" d="M 338.636719 190.523438 C 338.332031 190.523438 338.054688 190.734375 337.980469 191.046875 C 337.84375 191.628906 337.757812 192.058594 337.71875 192.332031 C 337.679688 192.589844 337.640625 193.03125 337.605469 193.648438 C 337.585938 194.027344 337.871094 194.347656 338.242188 194.371094 C 338.253906 194.371094 338.265625 194.371094 338.28125 194.371094 C 338.636719 194.371094 338.933594 194.089844 338.953125 193.726562 C 338.988281 193.136719 339.019531 192.742188 339.054688 192.539062 L 339.058594 192.511719 C 339.089844 192.28125 339.167969 191.898438 339.292969 191.363281 C 339.378906 190.996094 339.15625 190.628906 338.792969 190.542969 C 338.742188 190.527344 338.6875 190.523438 338.636719 190.523438 Z M 338.636719 190.523438 " fill-opacity="1" fill-rule="nonzero"/><g clip-path="url(#6779872b4d)"><path fill="#000000" d="M 101.328125 144.175781 C 101.265625 144.285156 101.230469 144.414062 101.234375 144.550781 C 101.238281 144.945312 101.554688 145.261719 101.941406 145.28125 C 101.957031 145.28125 101.976562 145.28125 101.992188 145.28125 C 102.574219 145.273438 103.152344 145.28125 103.722656 145.308594 C 110.027344 145.617188 115.34375 148.132812 119.675781 152.863281 L 119.671875 152.859375 C 123.570312 157.851562 124.402344 163.378906 122.171875 169.4375 L 122.167969 169.4375 C 119.027344 176.183594 113.75 180.019531 106.34375 180.941406 L 106.339844 180.941406 C 105.039062 181.054688 103.785156 181.078125 102.574219 181.019531 C 96.59375 180.730469 91.679688 178.351562 87.839844 173.882812 L 87.835938 173.882812 C 84.113281 169.132812 83.804688 163.394531 86.910156 156.675781 C 90.429688 149.964844 95.230469 145.800781 101.316406 144.175781 Z M 102.523438 142.398438 C 102.464844 142.394531 102.402344 142.402344 102.339844 142.414062 C 95.15625 143.859375 89.574219 148.382812 85.585938 155.988281 L 85.570312 156.019531 C 82.191406 163.304688 82.554688 169.5625 86.660156 174.796875 L 86.679688 174.820312 C 90.808594 179.632812 96.070312 182.191406 102.46875 182.503906 C 103.765625 182.566406 105.113281 182.539062 106.503906 182.414062 L 106.53125 182.414062 C 114.507812 181.417969 120.179688 177.28125 123.550781 170.003906 L 123.574219 169.945312 C 126 163.355469 125.082031 157.339844 120.816406 151.90625 L 120.78125 151.863281 C 116.171875 146.832031 110.515625 144.15625 103.808594 143.828125 C 103.488281 143.8125 103.160156 143.800781 102.832031 143.796875 C 103.121094 143.648438 103.285156 143.324219 103.21875 142.992188 C 103.148438 142.652344 102.855469 142.414062 102.523438 142.398438 Z M 102.523438 142.398438 " fill-opacity="0.996" fill-rule="nonzero"/></g><path fill="#000000" d="M 97.910156 155.882812 C 97.816406 155.878906 97.722656 155.890625 97.632812 155.921875 C 97.242188 156.054688 97.03125 156.476562 97.167969 156.863281 C 97.625 158.195312 98.039062 159.210938 98.40625 159.917969 C 98.535156 160.160156 98.777344 160.300781 99.035156 160.316406 C 99.160156 160.320312 99.292969 160.292969 99.414062 160.230469 C 99.78125 160.042969 99.921875 159.59375 99.730469 159.230469 C 99.398438 158.59375 99.011719 157.644531 98.578125 156.382812 C 98.476562 156.085938 98.207031 155.898438 97.910156 155.882812 Z M 97.910156 155.882812 " fill-opacity="0.996" fill-rule="nonzero"/><path fill="#000000" d="M 106.429688 153.835938 C 106.410156 153.835938 106.394531 153.835938 106.375 153.835938 C 105.964844 153.84375 105.636719 154.183594 105.648438 154.625 L 105.644531 154.625 C 105.648438 154.761719 105.660156 154.933594 105.679688 155.140625 L 105.683594 155.160156 C 105.707031 155.378906 105.804688 156.410156 105.972656 158.261719 L 105.972656 158.265625 C 106.03125 158.886719 106.089844 159.410156 106.152344 159.832031 C 106.203125 160.1875 106.503906 160.449219 106.851562 160.464844 C 106.902344 160.46875 106.949219 160.464844 106.996094 160.460938 C 107.40625 160.402344 107.6875 160.023438 107.628906 159.617188 C 107.570312 159.21875 107.515625 158.722656 107.460938 158.128906 C 107.296875 156.320312 107.199219 155.28125 107.167969 155.011719 C 107.152344 154.820312 107.140625 154.667969 107.136719 154.5625 L 107.136719 154.527344 C 107.109375 154.148438 106.804688 153.855469 106.429688 153.835938 Z M 106.429688 153.835938 " fill-opacity="0.996" fill-rule="nonzero"/><path fill="#000000" d="M 116.273438 170.234375 C 116.050781 170.222656 115.828125 170.308594 115.671875 170.488281 C 112.441406 174.199219 108.59375 176.25 104.128906 176.652344 L 104.121094 176.652344 C 103.519531 176.679688 102.9375 176.679688 102.382812 176.652344 C 100.765625 176.574219 99.332031 176.269531 98.082031 175.738281 C 95.996094 174.835938 94.332031 173.625 93.082031 172.097656 C 92.941406 171.929688 92.742188 171.835938 92.539062 171.824219 C 92.363281 171.816406 92.179688 171.871094 92.03125 171.992188 C 91.710938 172.25 91.664062 172.714844 91.925781 173.035156 C 93.324219 174.746094 95.179688 176.101562 97.484375 177.097656 L 97.488281 177.097656 C 98.90625 177.703125 100.511719 178.046875 102.308594 178.132812 C 102.925781 178.164062 103.566406 178.164062 104.230469 178.132812 L 104.261719 178.128906 C 109.125 177.695312 113.304688 175.46875 116.800781 171.460938 C 117.070312 171.148438 117.035156 170.683594 116.722656 170.414062 C 116.59375 170.300781 116.433594 170.242188 116.273438 170.234375 Z M 116.273438 170.234375 " fill-opacity="0.996" fill-rule="nonzero"/><path fill="#000000" d="M 111.746094 179.335938 C 111.574219 179.328125 111.398438 179.378906 111.253906 179.488281 C 110.925781 179.738281 110.863281 180.207031 111.117188 180.53125 C 118.054688 189.484375 122.269531 199.117188 123.757812 209.425781 L 123.753906 209.425781 C 124.707031 218.925781 122.894531 225.015625 118.316406 227.695312 L 118.304688 227.695312 C 118.160156 227.742188 118.015625 227.785156 117.871094 227.820312 C 117.4375 227.925781 117.015625 227.96875 116.609375 227.949219 C 114.019531 227.820312 112.074219 225.117188 110.769531 219.839844 C 110.1875 217.304688 109.757812 213.929688 109.476562 209.71875 L 109.464844 209.621094 C 109.371094 209.117188 109.234375 204.890625 109.042969 196.9375 L 109.042969 196.914062 L 108.230469 182.050781 C 108.207031 181.667969 107.898438 181.371094 107.519531 181.351562 C 107.496094 181.351562 107.46875 181.351562 107.441406 181.351562 C 107.03125 181.375 106.714844 181.722656 106.738281 182.132812 L 107.550781 196.992188 C 107.742188 205.007812 107.890625 209.304688 107.992188 209.882812 C 108.277344 214.140625 108.71875 217.570312 109.316406 220.167969 L 109.316406 220.179688 C 110.800781 226.199219 113.171875 229.289062 116.429688 229.445312 C 117 229.472656 117.601562 229.410156 118.226562 229.257812 C 118.445312 229.207031 118.667969 229.140625 118.890625 229.066406 L 119.023438 229.003906 C 124.191406 226.015625 126.265625 219.429688 125.238281 209.25 L 125.234375 209.21875 C 123.710938 198.648438 119.398438 188.785156 112.300781 179.625 C 112.160156 179.445312 111.957031 179.347656 111.746094 179.335938 Z M 111.746094 179.335938 " fill-opacity="0.996" fill-rule="nonzero"/><g clip-path="url(#b9ecf1545a)"><path fill="#000000" d="M 144.378906 145.292969 C 144.136719 145.28125 143.890625 145.386719 143.738281 145.597656 C 141.128906 149.15625 138.304688 153.355469 135.261719 158.195312 C 133.671875 160.636719 129.238281 168.167969 121.964844 180.78125 C 120.03125 183.972656 118.570312 186.203125 117.585938 187.476562 C 117.332031 187.800781 117.394531 188.265625 117.722656 188.515625 C 117.847656 188.613281 117.992188 188.664062 118.140625 188.671875 C 118.375 188.683594 118.613281 188.582031 118.769531 188.382812 C 119.789062 187.0625 121.285156 184.78125 123.25 181.53125 L 123.261719 181.515625 C 130.53125 168.910156 134.949219 161.402344 136.519531 158.992188 L 136.527344 158.980469 C 139.550781 154.167969 142.359375 150 144.945312 146.46875 C 145.1875 146.140625 145.113281 145.675781 144.78125 145.433594 C 144.660156 145.347656 144.519531 145.300781 144.378906 145.292969 Z M 144.378906 145.292969 " fill-opacity="0.996" fill-rule="nonzero"/></g><g clip-path="url(#62341d3286)"><path fill="#000000" d="M 107.03125 181.816406 C 106.898438 181.808594 106.761719 181.839844 106.636719 181.90625 C 104.304688 183.164062 100.492188 183.96875 95.203125 184.320312 L 95.199219 184.320312 C 92.570312 184.4375 89.9375 184.484375 87.296875 184.453125 L 87.292969 184.453125 C 77.363281 184.378906 70.429688 184.261719 66.488281 184.09375 C 66.078125 184.078125 65.726562 184.394531 65.710938 184.804688 C 65.695312 185.210938 66.011719 185.554688 66.421875 185.578125 C 66.421875 185.578125 66.421875 185.578125 66.425781 185.578125 C 70.386719 185.742188 77.335938 185.863281 87.28125 185.9375 C 89.953125 185.96875 92.621094 185.921875 95.285156 185.800781 L 95.300781 185.800781 C 100.808594 185.433594 104.824219 184.570312 107.351562 183.210938 C 107.710938 183.015625 107.847656 182.5625 107.648438 182.203125 C 107.519531 181.96875 107.28125 181.828125 107.03125 181.816406 Z M 107.03125 181.816406 " fill-opacity="0.996" fill-rule="nonzero"/></g><g clip-path="url(#7fc0de0c6f)"><path fill="#000000" d="M 78.859375 237.1875 C 79.09375 237.199219 79.335938 237.300781 79.589844 237.492188 C 79.683594 237.5625 79.796875 237.613281 79.914062 237.632812 L 79.898438 237.632812 C 80.066406 237.707031 80.335938 237.898438 80.707031 238.207031 L 80.691406 238.207031 C 80.046875 241.445312 79.429688 243.367188 78.835938 243.964844 L 78.757812 244.058594 C 78.515625 244.402344 78.285156 244.6875 78.0625 244.917969 C 77.664062 245.332031 77.320312 245.53125 77.027344 245.519531 C 76.910156 245.511719 76.804688 245.472656 76.703125 245.398438 L 76.6875 245.398438 C 75.9375 244.507812 76.085938 242.382812 77.140625 239.03125 L 77.136719 239.027344 C 77.367188 238.507812 77.605469 238.085938 77.851562 237.773438 C 78.164062 237.363281 78.503906 237.167969 78.859375 237.1875 Z M 114.65625 228.394531 C 114.328125 228.378906 114.019531 228.582031 113.910156 228.90625 C 111.144531 237.230469 108.871094 243.589844 107.09375 247.984375 C 105.519531 251.78125 104.082031 255.128906 102.773438 258.027344 C 102.308594 258.96875 101.953125 259.488281 101.703125 259.574219 L 101.6875 259.574219 C 101.679688 259.574219 101.671875 259.574219 101.664062 259.574219 C 101.421875 259.5625 101.007812 259.222656 100.417969 258.554688 C 95.613281 252.105469 91.648438 247.226562 88.527344 243.914062 L 88.523438 243.914062 C 84 239.140625 81.300781 236.582031 80.417969 236.242188 C 80.414062 236.238281 80.410156 236.238281 80.402344 236.234375 L 80.390625 236.234375 C 79.855469 235.847656 79.339844 235.640625 78.847656 235.617188 C 78.066406 235.582031 77.339844 235.996094 76.664062 236.871094 C 76.347656 237.277344 76.050781 237.800781 75.769531 238.429688 L 75.742188 238.507812 C 74.5 242.421875 74.4375 245.039062 75.546875 246.351562 L 75.601562 246.410156 C 76.042969 246.832031 76.5 247.050781 76.976562 247.074219 C 77.660156 247.109375 78.382812 246.730469 79.140625 245.945312 C 79.394531 245.683594 79.652344 245.367188 79.914062 245.003906 L 79.902344 245.003906 C 80.632812 244.261719 81.324219 242.386719 81.976562 239.375 L 81.988281 239.375 C 83.269531 240.597656 85.085938 242.449219 87.4375 244.929688 C 90.519531 248.199219 94.445312 253.035156 99.214844 259.4375 L 99.253906 259.480469 C 100.132812 260.496094 100.929688 261.019531 101.640625 261.054688 C 101.75 261.058594 101.859375 261.050781 101.964844 261.035156 C 102.015625 261.027344 102.066406 261.015625 102.113281 261 L 102.128906 260.996094 C 102.148438 260.992188 102.167969 260.984375 102.191406 260.976562 C 102.832031 260.753906 103.476562 259.980469 104.125 258.65625 L 104.136719 258.632812 C 105.453125 255.71875 106.898438 252.355469 108.476562 248.542969 L 108.476562 248.535156 C 110.265625 244.117188 112.550781 237.726562 115.328125 229.371094 C 115.457031 228.980469 115.246094 228.5625 114.851562 228.433594 C 114.789062 228.410156 114.722656 228.398438 114.65625 228.394531 Z M 114.65625 228.394531 " fill-opacity="0.996" fill-rule="nonzero"/></g><path fill="#000000" d="M 89.898438 235.863281 C 89.9375 235.863281 89.972656 235.875 90.011719 235.890625 L 89.996094 235.890625 C 90.546875 236.507812 91.078125 237.105469 91.597656 237.683594 L 91.585938 237.679688 C 91.5625 237.765625 91.558594 237.859375 91.570312 237.949219 C 91.78125 239.613281 91.726562 240.683594 91.410156 241.160156 C 91.332031 241.277344 91.207031 241.328125 91.035156 241.320312 C 90.742188 241.308594 90.320312 241.121094 89.757812 240.761719 L 89.746094 240.761719 C 89.023438 240.070312 88.738281 239.058594 88.890625 237.726562 L 88.882812 237.726562 C 89.082031 237.007812 89.292969 236.476562 89.519531 236.132812 C 89.644531 235.945312 89.769531 235.855469 89.898438 235.863281 Z M 119.417969 228.59375 C 119.054688 228.574219 118.722656 228.824219 118.648438 229.1875 C 117.140625 236.703125 115.523438 245.292969 113.804688 254.957031 C 113.699219 255.523438 113.589844 255.886719 113.476562 256.054688 L 113.46875 256.050781 C 113.160156 256.039062 112.6875 255.765625 112.042969 255.234375 C 107.128906 251.027344 104.0625 248.328125 102.847656 247.132812 L 102.816406 247.105469 C 100.21875 244.835938 96.289062 240.738281 91.027344 234.808594 C 90.984375 234.757812 90.933594 234.714844 90.878906 234.679688 C 90.519531 234.445312 90.179688 234.320312 89.859375 234.300781 C 89.269531 234.273438 88.742188 234.613281 88.273438 235.316406 C 87.957031 235.789062 87.683594 236.464844 87.445312 237.335938 L 87.421875 237.4375 C 87.175781 239.332031 87.613281 240.804688 88.742188 241.859375 L 88.839844 241.9375 C 89.695312 242.5 90.429688 242.792969 91.046875 242.824219 C 91.722656 242.855469 92.257812 242.574219 92.65625 241.980469 C 93.019531 241.433594 93.191406 240.585938 93.179688 239.441406 L 93.191406 239.441406 C 96.882812 243.488281 99.761719 246.414062 101.828125 248.21875 C 103.089844 249.453125 106.167969 252.164062 111.070312 256.359375 L 111.078125 256.367188 C 111.976562 257.109375 112.765625 257.496094 113.4375 257.53125 C 113.582031 257.539062 113.714844 257.527344 113.847656 257.503906 L 113.867188 257.5 C 114.097656 257.449219 114.304688 257.335938 114.484375 257.160156 C 114.835938 256.8125 115.097656 256.167969 115.277344 255.222656 L 115.277344 255.214844 C 116.992188 245.566406 118.605469 236.988281 120.113281 229.480469 C 120.195312 229.078125 119.933594 228.6875 119.527344 228.605469 C 119.492188 228.597656 119.453125 228.59375 119.417969 228.59375 Z M 119.417969 228.59375 " fill-opacity="0.996" fill-rule="nonzero"/></svg>