<svg xmlns="http://www.w3.org/2000/svg" xmlns:xlink="http://www.w3.org/1999/xlink" width="500" zoomAndPan="magnify" viewBox="0 0 375 189.750001" height="253" preserveAspectRatio="xMidYMid meet" version="1.0"><defs><clipPath id="ee783b0b34"><path d="M 224 96 L 283 96 L 283 184 L 224 184 Z M 224 96 " clip-rule="nonzero"/></clipPath><clipPath id="ad74db6d92"><path d="M 223.773438 184.550781 L 220.371094 96.507812 L 286.40625 93.957031 L 289.804688 182 Z M 223.773438 184.550781 " clip-rule="nonzero"/></clipPath><clipPath id="4987d43aca"><path d="M 223.773438 184.550781 L 220.371094 96.507812 L 286.40625 93.957031 L 289.804688 182 Z M 223.773438 184.550781 " clip-rule="nonzero"/></clipPath><clipPath id="39152eb0d6"><path d="M 100 90 L 266 90 L 266 184.109375 L 100 184.109375 Z M 100 90 " clip-rule="nonzero"/></clipPath><clipPath id="45442bffc4"><path d="M 296 39.253906 L 373.984375 39.253906 L 373.984375 95 L 296 95 Z M 296 39.253906 " clip-rule="nonzero"/></clipPath><clipPath id="c3ed01ecbf"><path d="M 292.652344 99 L 299 99 L 299 110 L 292.652344 110 Z M 292.652344 99 " clip-rule="nonzero"/></clipPath><clipPath id="1b433cbc15"><path d="M 310 131 L 332 131 L 332 184.972656 L 310 184.972656 Z M 310 131 " clip-rule="nonzero"/></clipPath><clipPath id="99b25fa1b6"><path d="M 22 0.605469 L 75 0.605469 L 75 52 L 22 52 Z M 22 0.605469 " clip-rule="nonzero"/></clipPath><clipPath id="fff24e07cc"><path d="M 0.246094 50 L 53 50 L 53 56 L 0.246094 56 Z M 0.246094 50 " clip-rule="nonzero"/></clipPath><clipPath id="a84ac3b1a8"><path d="M 11 108 L 63 108 L 63 149.710938 L 11 149.710938 Z M 11 108 " clip-rule="nonzero"/></clipPath></defs><g clip-path="url(#ee783b0b34)"><g clip-path="url(#ad74db6d92)"><g clip-path="url(#4987d43aca)"><path fill="#ffbb02" d="M 231.109375 137.339844 C 231.199219 153.738281 229.101562 163.605469 228.871094 163.902344 C 227.105469 171.515625 223.476562 176.878906 224.480469 180.199219 C 225.195312 182.574219 227.125 184.410156 232.894531 182.644531 C 247.859375 178.074219 250.824219 173.417969 257.144531 165.316406 C 268.90625 150.234375 287.085938 126.082031 281.117188 107.90625 C 277.386719 96.539062 254.949219 95.625 243.121094 97.234375 C 224.765625 99.726562 230.949219 107.179688 231.109375 137.339844 Z M 231.109375 137.339844 " fill-opacity="1" fill-rule="nonzero"/></g></g></g><path fill="#ffbb02" d="M 102.703125 158.136719 C 106.015625 172.105469 116.925781 175.519531 134.78125 179.136719 C 165.597656 185.375 216.171875 189.492188 224.804688 159.367188 C 227.632812 149.503906 229.65625 116.699219 216.226562 105.304688 C 206.925781 97.414062 184.207031 91.261719 178.597656 89.5 C 132.601562 75.097656 123.582031 76.566406 115.75 80.980469 C 100.53125 89.550781 99.511719 144.675781 102.703125 158.136719 Z M 102.703125 158.136719 " fill-opacity="1" fill-rule="nonzero"/><g clip-path="url(#39152eb0d6)"><path fill="#ffffff" d="M 187.195312 101.296875 C 185.460938 104.832031 185.183594 108.449219 185.171875 110.285156 C 185.144531 114.792969 186.4375 117.550781 187.011719 117.558594 C 187.261719 117.558594 188.214844 116.398438 188.351562 110.6875 C 188.441406 107.042969 188.050781 103.90625 187.195312 101.296875 Z M 189.421875 130.117188 C 189.667969 132.5 189.664062 135.609375 189.484375 138.644531 C 217.964844 138.558594 242.308594 137.921875 246.472656 137.167969 C 242.828125 133.578125 236.566406 127.96875 233.925781 127.503906 C 230.507812 126.898438 195.964844 126.074219 191.789062 126.34375 C 190.953125 126.398438 190.070312 127.824219 189.421875 130.117188 Z M 188.601562 134.621094 C 188.476562 135.878906 188.410156 137.230469 188.429688 138.648438 C 188.4375 138.648438 188.445312 138.648438 188.457031 138.648438 C 188.539062 137.296875 188.589844 135.929688 188.601562 134.621094 Z M 128.832031 136.894531 C 131.675781 138.019531 154.84375 138.722656 187.445312 138.652344 C 187.410156 135.640625 187.753906 132.515625 188.421875 130.054688 C 188.304688 128.945312 188.125 128.019531 187.871094 127.378906 C 187.683594 126.914062 187.46875 126.636719 187.289062 126.636719 C 185.90625 126.636719 177.898438 126.851562 168.625 127.105469 C 156.519531 127.429688 142.800781 127.800781 139.695312 127.800781 C 136.8125 127.800781 131.492188 132.707031 128.832031 136.894531 Z M 188.96875 143.96875 C 189.640625 147.121094 190.976562 149.585938 193.226562 149.644531 C 199.769531 149.808594 234.238281 149.695312 244.644531 149.652344 C 245.875 149.648438 246.898438 148.683594 246.972656 147.453125 C 247.160156 144.523438 247.421875 141.085938 247.792969 137.570312 C 247.773438 137.625 247.742188 137.679688 247.699219 137.726562 C 247.441406 138.027344 246.964844 138.585938 228.636719 139.097656 C 217.960938 139.394531 203.703125 139.585938 189.417969 139.632812 C 189.308594 141.152344 189.15625 142.628906 188.96875 143.96875 Z M 152.160156 163.761719 C 169.691406 164.484375 214.367188 166.035156 241.792969 164.371094 C 241.160156 163.714844 240.433594 163.320312 239.605469 163.253906 C 202.980469 160.390625 167.167969 162.5625 152.160156 163.761719 Z M 239.5 167.433594 C 239.308594 167.433594 239.132812 167.523438 239.019531 167.679688 C 238.90625 167.835938 238.878906 168.03125 238.941406 168.210938 L 243.246094 181.046875 C 243.332031 181.300781 243.582031 181.46875 243.84375 181.445312 L 244.914062 181.375 C 245.226562 181.355469 245.46875 181.09375 245.46875 180.78125 C 245.425781 175.941406 244.871094 170.871094 243.566406 167.433594 Z M 124.5 164.128906 C 126.699219 165 129.003906 165.351562 130.34375 165.488281 C 130.773438 165.535156 131.167969 165.753906 131.433594 166.097656 C 131.695312 166.441406 131.804688 166.882812 131.738281 167.3125 L 129.214844 182.855469 C 129.1875 183.027344 129.234375 183.199219 129.351562 183.332031 C 129.464844 183.46875 129.625 183.542969 129.800781 183.542969 L 131.746094 183.542969 C 132.019531 183.542969 132.257812 183.355469 132.320312 183.085938 L 136.574219 164.855469 C 136.617188 164.679688 136.574219 164.496094 136.460938 164.355469 C 136.347656 164.210938 136.179688 164.128906 135.996094 164.128906 Z M 101.425781 163.144531 L 120.796875 163.144531 C 119.867188 162.390625 119.082031 161.46875 118.558594 160.347656 C 116.222656 155.332031 105.996094 124.414062 110.132812 117.414062 C 110.707031 116.441406 111.523438 115.914062 112.5625 115.84375 C 117.730469 115.480469 120.414062 125.070312 123.019531 134.332031 C 124.941406 141.175781 126.933594 148.25 129.632812 149.703125 C 132.355469 151.164062 144.15625 151.84375 159.703125 151.4375 C 175.1875 151.03125 185.804688 149.804688 186.757812 148.902344 C 187.171875 148.511719 187.609375 146.5625 187.953125 143.964844 C 187.691406 142.683594 187.527344 141.234375 187.46875 139.636719 C 172.613281 139.664062 130.785156 139.566406 128.035156 137.578125 C 127.664062 137.308594 127.65625 136.925781 127.8125 136.667969 C 130.320312 132.554688 136.054688 126.816406 139.695312 126.816406 C 142.785156 126.816406 156.5 126.445312 168.597656 126.117188 C 177.878906 125.867188 185.894531 125.652344 187.289062 125.652344 C 187.921875 125.652344 188.425781 126.109375 188.785156 127.015625 C 188.90625 127.316406 189.007812 127.667969 189.101562 128.066406 C 189.785156 126.464844 190.671875 125.429688 191.726562 125.359375 C 195.917969 125.089844 230.652344 125.925781 234.097656 126.53125 C 237.800781 127.1875 246.667969 135.964844 247.667969 136.964844 C 247.753906 137.054688 247.808594 137.15625 247.828125 137.269531 C 248.929688 127.050781 250.957031 116.328125 254.636719 115.84375 C 255.242188 115.765625 255.519531 115.601562 255.519531 115.476562 C 255.539062 114.230469 249.265625 110.371094 244.714844 109.632812 C 243.554688 109.445312 242.523438 109.703125 241.5625 110.417969 C 238.136719 112.976562 236.835938 120.554688 236.433594 123.691406 C 236.277344 124.929688 235.179688 125.804688 233.933594 125.6875 C 228.664062 125.179688 213.703125 124 188.703125 124 C 164.046875 124 145.558594 125.265625 140.480469 125.65625 C 139.484375 125.730469 138.601562 125.046875 138.425781 124.0625 C 137.90625 121.175781 135.761719 111.605469 130.015625 109.613281 C 128.550781 109.105469 126 109.859375 123.414062 110.992188 C 120.113281 114.421875 115.941406 115.0625 115.871094 115.074219 C 115.640625 115.105469 115.421875 114.976562 115.339844 114.757812 C 115.257812 114.542969 115.339844 114.300781 115.53125 114.175781 C 115.777344 114.011719 119.246094 111.742188 122.949219 110.113281 C 124.851562 108.011719 126.382812 104.824219 126.382812 100.015625 C 126.382812 97.566406 127.214844 95.542969 128.855469 94.003906 C 133.945312 89.21875 145.785156 89.964844 154.425781 90.507812 C 156.769531 90.652344 158.792969 90.78125 160.386719 90.78125 C 161.570312 90.78125 162.953125 90.699219 164.417969 90.613281 C 170.640625 90.253906 179.15625 89.753906 184.433594 94.855469 C 185.625 96.003906 186.601562 97.398438 187.359375 99.03125 C 187.652344 98.582031 187.972656 98.140625 188.320312 97.707031 C 191.851562 93.328125 197.289062 91.09375 204.480469 91.074219 C 208.511719 91.058594 212.316406 91 215.675781 90.949219 C 236.570312 90.628906 247.058594 90.46875 248.101562 102.109375 C 248.742188 109.265625 251.90625 110.160156 255.570312 111.191406 C 258.355469 111.976562 261.234375 112.789062 263.101562 116.398438 C 266.527344 123.007812 261.246094 148.355469 255.34375 159.28125 C 253.492188 162.707031 251.691406 164.535156 249.992188 164.710938 C 248.023438 164.910156 245.90625 165.085938 243.65625 165.242188 C 243.867188 165.617188 244.066406 166.019531 244.25 166.445312 L 265.179688 166.445312 C 265.191406 166.445312 265.207031 166.445312 265.21875 166.449219 C 265.320312 166.457031 265.828125 167.480469 265.164062 167.433594 L 244.636719 167.433594 C 246.144531 171.6875 246.425781 177.527344 246.453125 180.773438 C 246.460938 181.605469 245.8125 182.304688 244.980469 182.359375 L 243.910156 182.429688 C 243.195312 182.472656 242.539062 182.039062 242.3125 181.359375 L 238.003906 168.527344 C 237.84375 168.039062 237.921875 167.519531 238.21875 167.101562 C 238.519531 166.6875 238.988281 166.445312 239.5 166.445312 L 243.152344 166.445312 C 242.957031 166.035156 242.75 165.65625 242.527344 165.3125 C 208.078125 167.488281 145.402344 164.453125 144.722656 164.421875 C 144.464844 164.40625 144.261719 164.199219 144.253906 163.941406 C 144.246094 163.683594 144.4375 163.464844 144.695312 163.4375 C 145.160156 163.390625 191.722656 158.523438 239.683594 162.273438 C 241.058594 162.378906 242.160156 163.132812 243.035156 164.292969 C 245.480469 164.132812 247.777344 163.945312 249.890625 163.730469 C 250.824219 163.632812 252.378906 162.703125 254.476562 158.8125 C 260.199219 148.226562 265.449219 123.070312 262.226562 116.851562 C 260.554688 113.621094 258.003906 112.902344 255.304688 112.140625 C 251.625 111.101562 247.820312 110.03125 247.117188 102.195312 C 246.15625 91.46875 236.609375 91.617188 215.691406 91.9375 C 212.332031 91.988281 208.523438 92.046875 204.484375 92.058594 C 195.179688 92.085938 190.335938 95.894531 187.824219 100.128906 C 188.929688 103.011719 189.4375 106.550781 189.335938 110.710938 C 189.210938 115.929688 188.421875 118.566406 186.996094 118.542969 C 185.230469 118.519531 184.164062 114.234375 184.1875 110.277344 C 184.199219 107.960938 184.585938 103.894531 186.734375 100.058594 C 185.992188 98.269531 184.996094 96.769531 183.75 95.5625 C 178.785156 90.765625 170.851562 91.226562 164.476562 91.597656 C 162.996094 91.683594 161.597656 91.765625 160.386719 91.765625 C 158.761719 91.765625 156.722656 91.640625 154.363281 91.492188 C 145.902344 90.957031 134.3125 90.230469 129.527344 94.71875 C 128.074219 96.085938 127.367188 97.820312 127.367188 100.015625 C 127.367188 104.171875 126.253906 107.199219 124.71875 109.398438 C 126.871094 108.613281 128.9375 108.195312 130.339844 108.679688 C 136.417969 110.789062 138.695312 120.019531 139.394531 123.890625 C 139.480469 124.375 139.917969 124.710938 140.40625 124.671875 C 145.492188 124.285156 164.011719 123.015625 188.703125 123.015625 C 213.746094 123.015625 228.742188 124.195312 234.027344 124.707031 C 234.746094 124.773438 235.367188 124.273438 235.457031 123.566406 C 235.972656 119.515625 237.378906 112.3125 240.972656 109.628906 C 242.144531 108.753906 243.457031 108.429688 244.871094 108.660156 C 248.941406 109.320312 256.542969 113.175781 256.507812 115.492188 C 256.5 115.996094 256.1875 116.636719 254.765625 116.824219 C 251.730469 117.21875 249.121094 128.980469 247.957031 147.515625 C 247.847656 149.261719 246.394531 150.632812 244.648438 150.640625 C 234.238281 150.679688 199.757812 150.792969 193.203125 150.628906 C 191.160156 150.578125 189.574219 149.035156 188.585938 146.292969 C 188.25 147.996094 187.855469 149.222656 187.433594 149.621094 C 185.648438 151.308594 168.53125 152.191406 159.726562 152.421875 C 147.230469 152.75 132.640625 152.4375 129.167969 150.570312 C 126.097656 148.921875 124.140625 141.964844 122.070312 134.597656 C 119.6875 126.128906 116.992188 116.527344 112.628906 116.824219 C 111.925781 116.875 111.386719 117.230469 110.980469 117.917969 C 107.09375 124.5 117.234375 155.167969 119.453125 159.933594 C 120.09375 161.3125 121.207031 162.355469 122.5 163.144531 L 135.996094 163.144531 C 136.480469 163.144531 136.933594 163.363281 137.234375 163.742188 C 137.535156 164.121094 137.644531 164.609375 137.535156 165.078125 L 133.28125 183.308594 C 133.113281 184.027344 132.480469 184.527344 131.746094 184.527344 L 129.800781 184.527344 C 129.335938 184.527344 128.898438 184.324219 128.597656 183.972656 C 128.296875 183.617188 128.167969 183.15625 128.242188 182.695312 L 130.765625 167.152344 C 130.789062 166.988281 130.75 166.828125 130.648438 166.695312 C 130.550781 166.566406 130.40625 166.488281 130.246094 166.46875 C 128.453125 166.285156 125.035156 165.738281 122.242188 164.128906 L 101.425781 164.128906 C 100.054688 164.128906 99.683594 163.144531 101.425781 163.144531 " fill-opacity="1" fill-rule="nonzero"/></g><path fill="#efefef" d="M 339.449219 44.710938 C 342.589844 44.652344 345.761719 45.34375 348.972656 46.785156 C 355.0625 49.640625 358.84375 53.605469 360.3125 58.679688 L 360.3125 58.6875 C 361.578125 62.949219 360.21875 67.976562 356.234375 73.769531 C 352.632812 78.601562 347.957031 81.875 342.203125 83.585938 L 342.195312 83.585938 C 340.46875 83.988281 338.75 84.207031 337.039062 84.238281 C 332.875 84.316406 328.769531 83.292969 324.722656 81.171875 C 319.546875 78.378906 316.503906 74.460938 315.601562 69.414062 L 315.597656 69.414062 C 314.894531 64.398438 316.257812 59.8125 319.695312 55.660156 L 319.691406 55.660156 C 325.199219 49.878906 330.605469 46.386719 335.90625 45.1875 C 336.019531 45.160156 336.121094 45.113281 336.207031 45.046875 L 336.183594 45.046875 C 337.269531 44.84375 338.359375 44.734375 339.449219 44.710938 Z M 339.429688 43.175781 C 337.003906 43.222656 334.597656 43.683594 332.210938 44.5625 C 332.035156 44.628906 331.894531 44.75 331.808594 44.902344 L 331.789062 44.902344 C 327.421875 46.710938 323.019531 49.945312 318.582031 54.605469 L 318.546875 54.644531 C 314.800781 59.152344 313.3125 64.148438 314.082031 69.628906 L 314.085938 69.65625 C 315.070312 75.199219 318.375 79.488281 323.992188 82.523438 L 324 82.527344 C 328.285156 84.773438 332.636719 85.855469 337.058594 85.773438 C 338.890625 85.738281 340.738281 85.503906 342.59375 85.066406 L 342.640625 85.054688 C 348.730469 83.246094 353.675781 79.777344 357.480469 74.660156 L 357.5 74.636719 C 361.757812 68.445312 363.1875 62.984375 361.785156 58.253906 C 360.183594 52.730469 356.125 48.445312 349.609375 45.390625 L 349.601562 45.386719 C 346.175781 43.851562 342.785156 43.113281 339.429688 43.175781 Z M 339.429688 43.175781 " fill-opacity="1" fill-rule="nonzero"/><path fill="#efefef" d="M 331.804688 75.628906 C 331.539062 75.636719 331.285156 75.777344 331.148438 76.023438 C 330.941406 76.394531 331.074219 76.863281 331.445312 77.066406 C 333.632812 78.277344 336.136719 78.859375 338.953125 78.808594 C 338.960938 78.808594 338.972656 78.808594 338.980469 78.808594 C 340.53125 78.78125 342.117188 78.59375 343.734375 78.25 C 345.460938 77.902344 347.066406 77.441406 348.546875 76.867188 C 348.941406 76.714844 349.136719 76.269531 348.984375 75.875 C 348.863281 75.566406 348.566406 75.382812 348.253906 75.386719 C 348.167969 75.386719 348.078125 75.40625 347.992188 75.4375 C 346.59375 75.980469 345.074219 76.417969 343.433594 76.746094 L 343.425781 76.75 C 341.898438 77.074219 340.410156 77.25 338.949219 77.277344 C 338.941406 77.277344 338.933594 77.277344 338.925781 77.277344 C 336.382812 77.320312 334.136719 76.804688 332.1875 75.726562 C 332.066406 75.65625 331.933594 75.628906 331.804688 75.628906 Z M 331.804688 75.628906 " fill-opacity="1" fill-rule="nonzero"/><path fill="#efefef" d="M 350.710938 47.164062 C 350.648438 47.167969 350.585938 47.175781 350.527344 47.191406 C 346.777344 48.183594 342.152344 49.332031 336.65625 50.636719 L 336.644531 50.640625 L 336.628906 50.644531 C 334.945312 51.082031 333.855469 51.4375 333.359375 51.710938 C 333.273438 51.761719 333.195312 51.808594 333.125 51.863281 C 333.105469 51.878906 333.085938 51.890625 333.066406 51.910156 C 332.523438 52.359375 332.457031 52.855469 332.863281 53.394531 C 332.910156 53.457031 332.96875 53.511719 333.03125 53.558594 C 334.421875 54.542969 335.175781 55.269531 335.300781 55.738281 L 335.292969 55.738281 C 335.285156 55.875 335.089844 55.988281 334.710938 56.078125 C 332.800781 56.484375 330.429688 56.714844 327.601562 56.769531 C 327.152344 56.777344 326.691406 56.78125 326.214844 56.78125 L 326.203125 56.78125 C 323.574219 56.820312 321.007812 56.5625 318.503906 56 C 318.441406 55.988281 318.382812 55.980469 318.320312 55.984375 C 317.976562 55.988281 317.667969 56.230469 317.589844 56.582031 C 317.496094 56.996094 317.757812 57.40625 318.167969 57.496094 C 320.792969 58.082031 323.476562 58.355469 326.226562 58.3125 L 326.21875 58.3125 C 326.699219 58.3125 327.167969 58.308594 327.628906 58.300781 C 330.566406 58.246094 333.042969 58.003906 335.050781 57.574219 L 335.074219 57.570312 C 336.445312 57.238281 337.019531 56.511719 336.792969 55.390625 L 336.78125 55.351562 C 336.597656 54.644531 335.878906 53.804688 334.628906 52.835938 L 334.609375 52.835938 C 335.125 52.648438 335.921875 52.410156 337.007812 52.128906 C 342.519531 50.820312 347.15625 49.667969 350.917969 48.671875 C 351.328125 48.5625 351.570312 48.144531 351.464844 47.734375 C 351.371094 47.386719 351.054688 47.160156 350.710938 47.164062 Z M 350.710938 47.164062 " fill-opacity="1" fill-rule="nonzero"/><g clip-path="url(#45442bffc4)"><path fill="#efefef" d="M 342.128906 39.53125 C 339.300781 39.582031 336.34375 39.917969 333.25 40.539062 L 333.242188 40.539062 C 321.070312 43.066406 311.945312 48.890625 305.871094 58.007812 L 305.855469 58.035156 C 303.25 62.300781 302.285156 65.9375 302.953125 68.949219 L 302.945312 68.949219 C 303.21875 72.148438 305.480469 77.332031 309.722656 84.503906 L 309.710938 84.503906 C 310.1875 85.757812 310.378906 86.882812 310.28125 87.871094 L 310.28125 87.898438 C 310.109375 90.671875 307.882812 92.265625 303.601562 92.683594 C 300.3125 92.402344 298.578125 91.164062 298.398438 88.972656 L 298.421875 88.96875 C 298.671875 87.53125 299.746094 86.527344 301.648438 85.949219 L 301.628906 85.949219 C 301.734375 85.941406 301.832031 85.933594 301.929688 85.933594 C 302.066406 85.929688 302.191406 85.9375 302.308594 85.949219 C 303.058594 86.046875 303.355469 86.691406 303.203125 87.886719 C 303.148438 88.308594 303.445312 88.691406 303.867188 88.746094 C 303.902344 88.75 303.941406 88.753906 303.976562 88.753906 C 304.351562 88.746094 304.675781 88.464844 304.722656 88.082031 C 305.007812 85.875 304.269531 84.65625 302.503906 84.429688 C 302.316406 84.40625 302.113281 84.394531 301.898438 84.398438 C 301.75 84.402344 301.589844 84.414062 301.429688 84.429688 L 301.292969 84.457031 C 298.632812 85.238281 297.160156 86.730469 296.875 88.933594 L 296.871094 89.09375 C 297.121094 92.167969 299.34375 93.878906 303.542969 94.21875 L 303.679688 94.21875 C 308.863281 93.730469 311.570312 91.664062 311.808594 88.019531 C 311.929688 86.757812 311.691406 85.363281 311.09375 83.832031 L 311.042969 83.722656 C 306.871094 76.675781 304.679688 71.675781 304.464844 68.726562 L 304.449219 68.617188 C 303.871094 66.015625 304.769531 62.761719 307.148438 58.859375 L 307.144531 58.859375 C 312.988281 50.089844 321.789062 44.484375 333.550781 42.042969 C 336.542969 41.441406 339.40625 41.117188 342.136719 41.066406 C 350.097656 40.917969 356.933594 43.101562 362.644531 47.617188 L 362.636719 47.617188 C 365.082031 50.203125 366.242188 53.375 366.117188 57.140625 L 366.117188 57.234375 C 366.339844 59.648438 365.257812 65.421875 362.871094 74.558594 L 362.851562 74.652344 C 362.589844 76.644531 362.683594 78.136719 363.136719 79.121094 C 364.023438 81.070312 365.554688 82.023438 367.734375 81.984375 C 368.523438 81.96875 369.402344 81.824219 370.367188 81.546875 L 370.4375 81.519531 C 373.316406 80.378906 374.652344 78.191406 374.445312 74.957031 L 374.425781 74.828125 C 373.75 71.976562 371.898438 70.5 368.871094 70.394531 L 368.789062 70.394531 C 366.847656 70.535156 365.9375 71.378906 366.046875 72.929688 C 366.105469 73.710938 366.488281 74.671875 367.203125 75.808594 C 367.351562 76.046875 367.605469 76.175781 367.867188 76.167969 C 368 76.167969 368.136719 76.128906 368.257812 76.050781 C 368.617188 75.828125 368.726562 75.355469 368.5 74.996094 C 367.921875 74.074219 367.613281 73.347656 367.578125 72.820312 C 367.539062 72.296875 367.960938 72 368.847656 71.929688 L 368.867188 71.929688 C 371.089844 72.019531 372.445312 73.105469 372.933594 75.179688 L 372.921875 75.183594 C 373.039062 77.605469 372.023438 79.242188 369.871094 80.097656 L 369.855469 80.097656 C 369.101562 80.308594 368.421875 80.417969 367.8125 80.429688 C 366.226562 80.460938 365.132812 79.8125 364.53125 78.488281 L 364.53125 78.484375 C 364.207031 77.777344 364.148438 76.597656 364.359375 74.945312 L 364.351562 74.945312 C 366.757812 65.75 367.855469 59.828125 367.652344 57.191406 L 367.648438 57.191406 C 367.789062 52.960938 366.464844 49.394531 363.671875 46.484375 L 363.597656 46.414062 C 357.59375 41.667969 350.441406 39.375 342.128906 39.53125 Z M 342.128906 39.53125 " fill-opacity="1" fill-rule="nonzero"/></g><path fill="#efefef" d="M 343.191406 83.164062 C 342.796875 83.171875 342.464844 83.480469 342.441406 83.882812 C 342.160156 88.488281 342.984375 93.597656 344.910156 99.207031 C 346.101562 103.363281 349.5 110.6875 355.105469 121.171875 L 355.101562 121.171875 C 355.910156 123.078125 356.375 124.742188 356.503906 126.15625 L 356.503906 126.160156 C 356.660156 127.726562 356.199219 128.824219 355.128906 129.457031 L 355.125 129.457031 C 353.773438 130.265625 351.105469 130.863281 347.121094 131.253906 C 344.144531 131.507812 341.226562 131.660156 338.375 131.714844 C 333.925781 131.796875 329.632812 131.636719 325.488281 131.230469 L 325.484375 131.230469 C 321.507812 130.683594 319.292969 129.519531 318.832031 127.734375 L 318.8125 127.667969 C 318.347656 126.363281 318.6875 124.074219 319.832031 120.796875 C 322.144531 114.367188 325.335938 106.214844 329.414062 96.335938 L 329.433594 96.292969 L 333.289062 85.136719 C 333.425781 84.734375 333.214844 84.300781 332.8125 84.160156 C 332.726562 84.132812 332.636719 84.117188 332.546875 84.121094 C 332.238281 84.125 331.945312 84.324219 331.839844 84.636719 L 327.984375 95.792969 L 327.980469 95.792969 C 323.902344 105.671875 320.707031 113.835938 318.390625 120.28125 L 318.386719 120.285156 C 317.121094 123.90625 316.78125 126.539062 317.367188 128.183594 C 318.027344 130.589844 320.664062 132.113281 325.273438 132.75 L 325.304688 132.753906 C 329.515625 133.164062 333.882812 133.332031 338.402344 133.246094 C 341.292969 133.191406 344.246094 133.035156 347.261719 132.777344 L 347.273438 132.777344 C 351.476562 132.367188 354.355469 131.699219 355.910156 130.777344 C 357.539062 129.816406 358.246094 128.226562 358.03125 126.015625 C 357.886719 124.425781 357.371094 122.589844 356.484375 120.511719 L 356.457031 120.449219 C 350.886719 110.027344 347.523438 102.792969 346.371094 98.746094 L 346.359375 98.707031 C 344.5 93.289062 343.703125 88.378906 343.972656 83.976562 C 343.996094 83.554688 343.675781 83.191406 343.253906 83.164062 C 343.230469 83.164062 343.210938 83.164062 343.191406 83.164062 Z M 343.191406 83.164062 " fill-opacity="1" fill-rule="nonzero"/><path fill="#efefef" d="M 301.847656 110.878906 C 301.699219 110.996094 301.597656 111.167969 301.570312 111.351562 L 301.550781 111.351562 C 301.5625 111.144531 301.65625 110.984375 301.824219 110.878906 Z M 331.808594 85.605469 C 331.585938 85.609375 331.371094 85.710938 331.222656 85.894531 C 330.523438 86.769531 329.792969 87.570312 329.039062 88.292969 L 329.035156 88.292969 C 322.863281 93.957031 318.882812 97.746094 317.097656 99.652344 L 317.09375 99.652344 C 313.6875 103.140625 310.167969 107.074219 306.539062 111.445312 C 306.136719 111.878906 305.800781 112.152344 305.527344 112.261719 L 305.460938 112.292969 C 305.371094 112.339844 305.269531 112.363281 305.15625 112.363281 C 304.632812 112.375 303.867188 111.894531 302.855469 110.925781 C 302.792969 110.863281 302.726562 110.816406 302.652344 110.78125 L 302.628906 110.785156 C 301.984375 110.179688 299.355469 107.105469 294.738281 101.558594 C 294.582031 101.371094 294.359375 101.277344 294.136719 101.28125 C 293.96875 101.285156 293.800781 101.34375 293.660156 101.457031 C 293.335938 101.730469 293.289062 102.210938 293.5625 102.539062 C 298.488281 108.460938 301.226562 111.632812 301.765625 112.0625 C 301.84375 112.121094 301.921875 112.167969 302 112.203125 L 301.980469 112.203125 C 303.210938 113.34375 304.296875 113.90625 305.230469 113.890625 C 305.539062 113.882812 305.832031 113.816406 306.105469 113.683594 L 306.101562 113.683594 C 306.59375 113.484375 307.125 113.074219 307.695312 112.453125 L 307.71875 112.421875 C 311.324219 108.078125 314.820312 104.175781 318.203125 100.710938 L 318.214844 100.699219 C 319.976562 98.820312 323.929688 95.0625 330.074219 89.421875 L 330.097656 89.398438 C 330.902344 88.632812 331.675781 87.78125 332.421875 86.851562 C 332.683594 86.519531 332.632812 86.039062 332.300781 85.773438 C 332.15625 85.65625 331.980469 85.601562 331.808594 85.605469 Z M 331.808594 85.605469 " fill-opacity="1" fill-rule="nonzero"/><path fill="#efefef" d="M 343.890625 84.609375 L 343.914062 84.621094 L 343.890625 84.609375 C 344.6875 84.957031 345.628906 85.484375 346.714844 86.191406 L 346.726562 86.199219 C 352.238281 89.964844 357.878906 93.6875 363.648438 97.371094 L 363.65625 97.375 C 365.652344 98.683594 366.808594 99.621094 367.117188 100.195312 C 367.265625 100.46875 367.304688 100.734375 367.234375 100.992188 L 367.160156 100.40625 C 367.246094 100.554688 367.300781 100.71875 367.332031 100.894531 C 367.460938 101.714844 366.851562 102.9375 365.507812 104.558594 L 365.496094 104.570312 C 361.714844 108.945312 357.804688 113.257812 353.769531 117.511719 C 353.476562 117.816406 352.992188 117.828125 352.6875 117.539062 C 352.378906 117.246094 352.367188 116.761719 352.65625 116.457031 C 356.675781 112.21875 360.570312 107.921875 364.335938 103.566406 L 364.328125 103.578125 C 365.378906 102.3125 365.875 101.5 365.816406 101.136719 C 365.816406 101.144531 365.824219 101.160156 365.832031 101.175781 C 365.730469 101 365.703125 100.789062 365.757812 100.589844 C 365.71875 100.726562 365.726562 100.839844 365.773438 100.925781 C 365.582031 100.582031 364.597656 99.824219 362.816406 98.65625 L 362.824219 98.664062 C 357.042969 94.972656 351.390625 91.242188 345.863281 87.464844 L 345.875 87.476562 C 344.863281 86.8125 343.996094 86.328125 343.277344 86.015625 L 343.253906 86.003906 C 342.890625 85.84375 342.714844 85.394531 342.882812 85.003906 C 343.050781 84.617188 343.503906 84.441406 343.890625 84.609375 Z M 343.890625 84.609375 " fill-opacity="1" fill-rule="nonzero"/><g clip-path="url(#c3ed01ecbf)"><path fill="#efefef" d="M 297.542969 99.417969 C 297.492188 99.417969 297.445312 99.425781 297.394531 99.433594 C 296.980469 99.523438 296.71875 99.933594 296.804688 100.347656 C 297.367188 102.941406 297.445312 105.015625 297.035156 106.574219 L 297.011719 106.574219 C 296.898438 106.75 296.683594 106.925781 296.375 107.09375 L 296.367188 107.097656 C 296.257812 107.160156 296.082031 107.238281 295.847656 107.335938 C 294.441406 107.835938 293.542969 108.191406 293.152344 108.402344 C 292.78125 108.605469 292.648438 109.074219 292.851562 109.445312 C 292.992188 109.703125 293.261719 109.847656 293.535156 109.84375 C 293.65625 109.839844 293.777344 109.808594 293.890625 109.746094 C 294.210938 109.570312 295.046875 109.246094 296.398438 108.765625 L 296.4375 108.753906 C 296.722656 108.632812 296.949219 108.527344 297.109375 108.4375 C 297.792969 108.0625 298.25 107.609375 298.480469 107.070312 L 298.515625 106.964844 C 298.988281 105.167969 298.917969 102.855469 298.304688 100.023438 C 298.226562 99.660156 297.902344 99.410156 297.542969 99.417969 Z M 297.542969 99.417969 " fill-opacity="1" fill-rule="nonzero"/></g><g clip-path="url(#1b433cbc15)"><path fill="#efefef" d="M 330.585938 131.535156 C 330.242188 131.542969 329.933594 131.78125 329.855469 132.128906 C 329.152344 135.121094 328.472656 140.511719 327.816406 148.300781 L 327.816406 148.304688 C 327.4375 152.792969 327.085938 162.515625 326.75 177.472656 C 326.621094 179.871094 326.46875 181.246094 326.285156 181.605469 L 326.28125 181.609375 L 326.238281 181.703125 C 325.941406 182.484375 324.394531 182.902344 321.597656 182.953125 C 321.042969 182.964844 320.441406 182.960938 319.789062 182.941406 L 319.78125 182.941406 C 315.789062 182.710938 313.328125 182.289062 312.398438 181.675781 L 312.378906 181.675781 C 313.824219 180.742188 316.597656 180.238281 320.699219 180.164062 C 322.171875 180.136719 323.820312 180.164062 325.636719 180.246094 C 325.65625 180.246094 325.671875 180.246094 325.6875 180.246094 C 326.089844 180.238281 326.421875 179.921875 326.4375 179.515625 C 326.457031 179.09375 326.132812 178.734375 325.707031 178.714844 C 323.957031 178.632812 322.351562 178.609375 320.890625 178.636719 C 315.644531 178.734375 312.269531 179.523438 310.765625 181.011719 C 310.542969 181.230469 310.476562 181.558594 310.59375 181.847656 C 311.183594 183.277344 314.214844 184.152344 319.691406 184.472656 L 319.714844 184.472656 C 320.285156 184.488281 320.824219 184.492188 321.332031 184.484375 C 324.972656 184.417969 327.078125 183.6875 327.648438 182.300781 C 327.929688 181.75 328.140625 180.15625 328.28125 177.527344 L 328.28125 177.503906 C 328.613281 162.660156 328.964844 152.992188 329.335938 148.503906 L 329.332031 148.503906 L 329.34375 148.429688 C 329.996094 140.714844 330.664062 135.398438 331.347656 132.476562 C 331.441406 132.066406 331.1875 131.652344 330.773438 131.558594 C 330.710938 131.542969 330.648438 131.535156 330.585938 131.535156 Z M 330.585938 131.535156 " fill-opacity="1" fill-rule="nonzero"/></g><path fill="#efefef" d="M 354.230469 178.257812 C 356.746094 178.210938 358.210938 178.75 358.613281 179.875 L 358.59375 179.875 C 358.292969 180.886719 356.191406 181.605469 352.292969 182.03125 L 352.273438 182.03125 C 351.777344 182.058594 351.308594 182.074219 350.867188 182.082031 C 350.746094 182.085938 350.628906 182.085938 350.511719 182.089844 C 347.402344 182.113281 345.847656 181.742188 345.839844 180.976562 C 345.839844 180.867188 345.816406 180.757812 345.769531 180.660156 C 345.679688 180.464844 345.59375 180.128906 345.511719 179.65625 L 345.488281 179.65625 C 349.171875 178.761719 352.082031 178.296875 354.230469 178.257812 Z M 343.121094 132.175781 C 342.734375 132.183594 342.410156 132.480469 342.371094 132.871094 C 341.941406 137.5 341.878906 143.5 342.179688 150.871094 L 342.179688 150.882812 L 343.492188 174.566406 L 343.492188 174.570312 C 343.589844 176.207031 343.703125 177.558594 343.828125 178.625 L 343.808594 178.625 C 343.640625 178.808594 343.566406 179.070312 343.632812 179.328125 C 343.6875 179.550781 343.832031 179.722656 344.019531 179.820312 L 343.996094 179.820312 C 344.105469 180.453125 344.21875 180.917969 344.34375 181.222656 L 344.324219 181.222656 C 344.511719 182.851562 346.578125 183.652344 350.523438 183.621094 C 350.644531 183.621094 350.769531 183.617188 350.894531 183.617188 C 351.371094 183.609375 351.878906 183.589844 352.410156 183.558594 L 352.453125 183.554688 C 357.390625 183.019531 359.957031 181.785156 360.152344 179.859375 C 360.164062 179.765625 360.152344 179.667969 360.128906 179.574219 C 359.582031 177.667969 357.515625 176.75 353.929688 176.816406 C 351.664062 176.859375 348.789062 177.292969 345.308594 178.125 C 345.207031 177.164062 345.109375 175.949219 345.023438 174.484375 L 343.710938 150.796875 C 343.414062 143.5 343.472656 137.570312 343.898438 133.015625 C 343.9375 132.59375 343.628906 132.21875 343.207031 132.179688 C 343.175781 132.175781 343.148438 132.175781 343.121094 132.175781 Z M 343.121094 132.175781 " fill-opacity="1" fill-rule="nonzero"/><path fill="#efefef" d="M 334.871094 61.492188 C 334.457031 61.492188 334.09375 61.792969 334.027344 62.214844 C 334 62.382812 333.96875 62.640625 333.933594 62.988281 L 333.933594 62.996094 C 333.917969 63.179688 333.902344 63.386719 333.894531 63.617188 C 333.867188 64.175781 333.859375 64.789062 333.867188 65.460938 C 333.875 65.925781 334.257812 66.300781 334.722656 66.300781 C 334.730469 66.300781 334.734375 66.300781 334.738281 66.300781 C 335.210938 66.296875 335.585938 65.90625 335.582031 65.433594 C 335.570312 64.796875 335.578125 64.21875 335.601562 63.699219 L 335.601562 63.695312 C 335.613281 63.496094 335.625 63.316406 335.640625 63.160156 C 335.671875 62.839844 335.695312 62.617188 335.71875 62.480469 C 335.792969 62.015625 335.472656 61.578125 335.003906 61.503906 C 334.960938 61.496094 334.914062 61.492188 334.871094 61.492188 Z M 334.871094 61.492188 " fill-opacity="1" fill-rule="nonzero"/><path fill="#efefef" d="M 343.667969 61.023438 C 343.28125 61.023438 342.929688 61.289062 342.835938 61.679688 C 342.664062 62.410156 342.550781 62.945312 342.507812 63.292969 C 342.453125 63.617188 342.40625 64.164062 342.363281 64.941406 C 342.335938 65.414062 342.695312 65.816406 343.167969 65.84375 C 343.183594 65.84375 343.199219 65.84375 343.21875 65.84375 C 343.667969 65.84375 344.046875 65.492188 344.070312 65.039062 C 344.113281 64.300781 344.15625 63.804688 344.199219 63.550781 L 344.203125 63.519531 C 344.242188 63.230469 344.339844 62.75 344.5 62.078125 C 344.613281 61.621094 344.328125 61.15625 343.867188 61.046875 C 343.800781 61.03125 343.734375 61.023438 343.667969 61.023438 Z M 343.667969 61.023438 " fill-opacity="1" fill-rule="nonzero"/><g clip-path="url(#99b25fa1b6)"><path fill="#efefef" d="M 44.726562 2.859375 C 44.648438 2.996094 44.605469 3.15625 44.605469 3.328125 C 44.613281 3.820312 45.003906 4.21875 45.492188 4.242188 C 45.511719 4.246094 45.53125 4.246094 45.550781 4.246094 C 46.28125 4.234375 47 4.246094 47.710938 4.28125 C 55.574219 4.667969 62.210938 7.828125 67.613281 13.761719 L 67.609375 13.761719 C 72.464844 20.023438 73.503906 26.960938 70.726562 34.566406 L 70.722656 34.566406 C 66.800781 43.035156 60.21875 47.847656 50.980469 49.007812 L 50.976562 49.007812 C 49.355469 49.148438 47.789062 49.179688 46.277344 49.105469 C 38.816406 48.742188 32.691406 45.753906 27.898438 40.148438 L 27.894531 40.148438 C 23.25 34.183594 22.863281 26.984375 26.738281 18.546875 C 31.128906 10.125 37.117188 4.894531 44.707031 2.859375 Z M 46.214844 0.628906 C 46.140625 0.625 46.0625 0.628906 45.984375 0.644531 C 37.027344 2.460938 30.0625 8.140625 25.085938 17.683594 L 25.066406 17.726562 C 20.855469 26.867188 21.308594 34.722656 26.425781 41.292969 L 26.453125 41.324219 C 31.601562 47.363281 38.167969 50.578125 46.148438 50.96875 C 47.765625 51.046875 49.445312 51.011719 51.179688 50.859375 L 51.210938 50.855469 C 61.164062 49.605469 68.238281 44.414062 72.445312 35.277344 L 72.472656 35.207031 C 75.5 26.929688 74.351562 19.382812 69.035156 12.5625 L 68.988281 12.507812 C 63.242188 6.191406 56.183594 2.832031 47.820312 2.421875 C 47.417969 2.402344 47.011719 2.390625 46.601562 2.382812 C 46.960938 2.195312 47.167969 1.789062 47.082031 1.371094 C 46.996094 0.945312 46.632812 0.648438 46.214844 0.628906 Z M 46.214844 0.628906 " fill-opacity="0.996" fill-rule="nonzero"/></g><path fill="#efefef" d="M 40.460938 17.550781 C 40.34375 17.546875 40.226562 17.5625 40.113281 17.601562 C 39.625 17.769531 39.367188 18.296875 39.535156 18.785156 C 40.105469 20.453125 40.621094 21.730469 41.082031 22.617188 C 41.238281 22.917969 41.542969 23.101562 41.863281 23.117188 C 42.023438 23.125 42.183594 23.089844 42.335938 23.011719 C 42.792969 22.773438 42.96875 22.210938 42.734375 21.753906 C 42.316406 20.953125 41.835938 19.761719 41.296875 18.179688 C 41.167969 17.808594 40.828125 17.570312 40.460938 17.550781 Z M 40.460938 17.550781 " fill-opacity="0.996" fill-rule="nonzero"/><path fill="#efefef" d="M 51.085938 14.984375 C 51.066406 14.980469 51.042969 14.980469 51.019531 14.980469 C 50.507812 14.992188 50.097656 15.417969 50.113281 15.976562 L 50.109375 15.976562 C 50.117188 16.144531 50.128906 16.359375 50.152344 16.621094 L 50.15625 16.648438 C 50.1875 16.917969 50.308594 18.214844 50.515625 20.539062 L 50.515625 20.542969 C 50.589844 21.324219 50.664062 21.980469 50.742188 22.507812 C 50.804688 22.957031 51.179688 23.285156 51.617188 23.304688 C 51.675781 23.308594 51.734375 23.304688 51.796875 23.296875 C 52.304688 23.222656 52.660156 22.75 52.585938 22.242188 C 52.511719 21.742188 52.441406 21.117188 52.371094 20.371094 C 52.167969 18.101562 52.046875 16.796875 52.007812 16.457031 C 51.988281 16.214844 51.976562 16.03125 51.972656 15.894531 L 51.96875 15.851562 L 51.96875 15.847656 C 51.9375 15.378906 51.558594 15.003906 51.085938 14.984375 Z M 51.085938 14.984375 " fill-opacity="0.996" fill-rule="nonzero"/><path fill="#efefef" d="M 63.367188 35.566406 C 63.089844 35.554688 62.8125 35.660156 62.617188 35.886719 C 58.585938 40.542969 53.785156 43.121094 48.214844 43.625 L 48.207031 43.625 C 47.457031 43.65625 46.734375 43.65625 46.039062 43.625 C 44.023438 43.523438 42.234375 43.140625 40.671875 42.472656 C 38.074219 41.34375 35.996094 39.820312 34.4375 37.90625 C 34.265625 37.691406 34.015625 37.578125 33.761719 37.5625 C 33.539062 37.554688 33.3125 37.621094 33.128906 37.773438 C 32.730469 38.097656 32.667969 38.683594 32.992188 39.082031 C 34.742188 41.230469 37.054688 42.929688 39.929688 44.183594 L 39.933594 44.183594 C 41.703125 44.941406 43.707031 45.375 45.945312 45.484375 C 46.71875 45.519531 47.515625 45.519531 48.34375 45.480469 L 48.382812 45.480469 C 54.453125 44.929688 59.664062 42.140625 64.023438 37.105469 C 64.359375 36.71875 64.320312 36.128906 63.929688 35.792969 C 63.765625 35.652344 63.566406 35.578125 63.367188 35.566406 Z M 63.367188 35.566406 " fill-opacity="0.996" fill-rule="nonzero"/><path fill="#efefef" d="M 57.71875 46.992188 C 57.503906 46.984375 57.285156 47.046875 57.105469 47.1875 C 56.695312 47.5 56.621094 48.085938 56.933594 48.492188 C 65.589844 59.730469 70.84375 71.824219 72.699219 84.765625 C 73.886719 96.6875 71.628906 104.332031 65.917969 107.695312 L 65.898438 107.695312 C 65.71875 107.753906 65.539062 107.808594 65.359375 107.851562 C 64.816406 107.984375 64.292969 108.039062 63.789062 108.011719 C 60.554688 107.855469 58.128906 104.460938 56.503906 97.832031 C 55.777344 94.652344 55.238281 90.417969 54.890625 85.132812 L 54.871094 85.007812 C 54.757812 84.375 54.585938 79.066406 54.351562 69.085938 L 54.347656 69.054688 L 53.332031 50.402344 C 53.304688 49.921875 52.917969 49.546875 52.449219 49.523438 C 52.417969 49.519531 52.382812 49.519531 52.351562 49.523438 C 51.835938 49.550781 51.445312 49.988281 51.472656 50.503906 L 52.488281 69.15625 C 52.726562 79.214844 52.910156 84.609375 53.039062 85.335938 L 53.035156 85.335938 C 53.394531 90.679688 53.941406 94.984375 54.6875 98.246094 L 54.691406 98.261719 C 56.539062 105.816406 59.496094 109.695312 63.5625 109.894531 C 64.277344 109.929688 65.023438 109.851562 65.804688 109.660156 C 66.074219 109.59375 66.351562 109.511719 66.628906 109.417969 L 66.796875 109.339844 C 73.246094 105.585938 75.828125 97.320312 74.550781 84.539062 L 74.542969 84.5 C 72.640625 71.234375 67.265625 58.855469 58.410156 47.355469 C 58.238281 47.128906 57.980469 47.007812 57.71875 46.992188 Z M 57.71875 46.992188 " fill-opacity="0.996" fill-rule="nonzero"/><path fill="#efefef" d="M 98.425781 4.257812 C 98.121094 4.246094 97.816406 4.378906 97.625 4.640625 C 94.371094 9.105469 90.847656 14.378906 87.050781 20.453125 C 85.070312 23.519531 79.539062 32.972656 70.464844 48.804688 C 68.054688 52.8125 66.234375 55.613281 65.003906 57.210938 C 64.691406 57.617188 64.765625 58.203125 65.171875 58.515625 C 65.328125 58.636719 65.511719 58.699219 65.695312 58.710938 C 65.988281 58.722656 66.285156 58.597656 66.480469 58.347656 C 67.753906 56.691406 69.617188 53.824219 72.070312 49.746094 L 72.082031 49.730469 C 81.152344 33.90625 86.664062 24.480469 88.625 21.453125 L 88.632812 21.441406 C 92.40625 15.402344 95.90625 10.167969 99.132812 5.738281 C 99.433594 5.320312 99.34375 4.738281 98.925781 4.4375 C 98.773438 4.324219 98.601562 4.269531 98.425781 4.257812 Z M 98.425781 4.257812 " fill-opacity="0.996" fill-rule="nonzero"/><g clip-path="url(#fff24e07cc)"><path fill="#efefef" d="M 51.835938 50.105469 C 51.671875 50.097656 51.503906 50.132812 51.347656 50.21875 C 48.4375 51.796875 43.679688 52.808594 37.082031 53.246094 C 33.800781 53.398438 30.515625 53.453125 27.222656 53.414062 L 27.21875 53.414062 C 14.832031 53.324219 6.183594 53.171875 1.265625 52.964844 C 0.75 52.945312 0.316406 53.34375 0.296875 53.855469 C 0.273438 54.367188 0.667969 54.800781 1.179688 54.824219 C 1.183594 54.824219 1.183594 54.824219 1.1875 54.824219 C 6.125 55.035156 14.796875 55.183594 27.203125 55.277344 C 30.535156 55.316406 33.863281 55.257812 37.1875 55.105469 L 37.207031 55.105469 C 44.074219 54.648438 49.085938 53.5625 52.234375 51.855469 C 52.6875 51.609375 52.855469 51.042969 52.609375 50.59375 C 52.449219 50.296875 52.152344 50.121094 51.835938 50.105469 Z M 51.835938 50.105469 " fill-opacity="0.996" fill-rule="nonzero"/></g><g clip-path="url(#a84ac3b1a8)"><path fill="#efefef" d="M 16.699219 119.609375 C 16.992188 119.625 17.292969 119.75 17.609375 119.992188 C 17.726562 120.082031 17.863281 120.144531 18.011719 120.171875 L 17.996094 120.167969 C 18.203125 120.261719 18.539062 120.5 19 120.890625 L 18.984375 120.890625 C 18.179688 124.957031 17.40625 127.367188 16.667969 128.121094 L 16.574219 128.234375 C 16.269531 128.664062 15.980469 129.027344 15.703125 129.316406 C 15.207031 129.835938 14.777344 130.085938 14.414062 130.066406 C 14.265625 130.0625 14.132812 130.011719 14.007812 129.917969 L 13.988281 129.917969 C 13.050781 128.796875 13.238281 126.132812 14.554688 121.921875 L 14.550781 121.921875 C 14.839844 121.265625 15.132812 120.742188 15.4375 120.34375 C 15.832031 119.832031 16.25 119.585938 16.699219 119.609375 Z M 61.347656 108.574219 C 60.941406 108.554688 60.554688 108.808594 60.417969 109.214844 C 56.96875 119.664062 54.132812 127.648438 51.914062 133.160156 C 49.953125 137.929688 48.15625 142.132812 46.527344 145.769531 C 45.949219 146.953125 45.503906 147.601562 45.191406 147.714844 L 45.171875 147.710938 C 45.164062 147.714844 45.152344 147.714844 45.140625 147.710938 C 44.839844 147.699219 44.324219 147.269531 43.589844 146.433594 L 43.585938 146.433594 C 37.59375 138.335938 32.652344 132.210938 28.753906 128.054688 C 23.109375 122.058594 19.742188 118.851562 18.640625 118.421875 C 18.636719 118.417969 18.628906 118.417969 18.625 118.414062 L 18.609375 118.414062 C 17.9375 117.929688 17.296875 117.671875 16.683594 117.640625 C 15.707031 117.59375 14.800781 118.117188 13.960938 119.210938 C 13.566406 119.726562 13.195312 120.378906 12.84375 121.171875 L 12.808594 121.265625 C 11.261719 126.183594 11.179688 129.464844 12.5625 131.113281 L 12.632812 131.1875 C 13.183594 131.714844 13.753906 131.992188 14.347656 132.023438 C 15.203125 132.0625 16.101562 131.589844 17.046875 130.605469 C 17.363281 130.273438 17.683594 129.878906 18.011719 129.421875 L 18 129.421875 C 18.910156 128.492188 19.773438 126.136719 20.585938 122.355469 L 20.601562 122.355469 C 22.199219 123.890625 24.464844 126.214844 27.398438 129.332031 C 31.242188 133.433594 36.140625 139.503906 42.089844 147.539062 L 42.136719 147.597656 C 43.234375 148.867188 44.230469 149.523438 45.117188 149.570312 C 45.253906 149.574219 45.386719 149.566406 45.515625 149.546875 C 45.582031 149.535156 45.644531 149.519531 45.707031 149.503906 L 45.722656 149.5 C 45.746094 149.492188 45.773438 149.484375 45.800781 149.472656 C 46.601562 149.195312 47.40625 148.222656 48.214844 146.558594 L 48.226562 146.53125 C 49.867188 142.871094 51.671875 138.648438 53.640625 133.863281 L 53.640625 133.855469 C 55.875 128.308594 58.722656 120.289062 62.1875 109.796875 C 62.347656 109.308594 62.082031 108.78125 61.59375 108.621094 C 61.515625 108.59375 61.429688 108.578125 61.347656 108.574219 Z M 61.347656 108.574219 " fill-opacity="0.996" fill-rule="nonzero"/></g><path fill="#efefef" d="M 30.46875 117.945312 C 30.515625 117.949219 30.5625 117.960938 30.605469 117.984375 L 30.589844 117.984375 C 31.273438 118.757812 31.941406 119.507812 32.585938 120.230469 L 32.570312 120.230469 C 32.546875 120.339844 32.539062 120.453125 32.550781 120.570312 C 32.816406 122.65625 32.75 123.996094 32.351562 124.597656 C 32.257812 124.742188 32.101562 124.808594 31.882812 124.800781 C 31.523438 124.78125 30.992188 124.546875 30.292969 124.097656 L 30.277344 124.097656 C 29.375 123.230469 29.019531 121.960938 29.210938 120.289062 L 29.203125 120.285156 C 29.449219 119.382812 29.710938 118.71875 29.996094 118.289062 C 30.152344 118.050781 30.308594 117.9375 30.46875 117.945312 Z M 67.289062 108.820312 C 66.835938 108.800781 66.421875 109.109375 66.332031 109.570312 C 64.445312 119 62.433594 129.785156 60.289062 141.917969 C 60.15625 142.625 60.019531 143.085938 59.878906 143.292969 L 59.867188 143.289062 C 59.484375 143.273438 58.894531 142.929688 58.089844 142.261719 C 51.960938 136.984375 48.136719 133.597656 46.621094 132.097656 L 46.578125 132.058594 C 43.339844 129.210938 38.441406 124.066406 31.875 116.621094 C 31.820312 116.5625 31.757812 116.507812 31.6875 116.460938 C 31.242188 116.167969 30.820312 116.007812 30.417969 115.988281 C 29.683594 115.953125 29.023438 116.378906 28.441406 117.261719 C 28.046875 117.859375 27.703125 118.703125 27.40625 119.800781 L 27.378906 119.921875 C 27.070312 122.300781 27.617188 124.152344 29.023438 125.476562 L 29.148438 125.574219 C 30.210938 126.277344 31.128906 126.648438 31.902344 126.6875 C 32.742188 126.726562 33.410156 126.375 33.90625 125.625 C 34.359375 124.941406 34.578125 123.878906 34.558594 122.441406 L 34.574219 122.441406 C 39.179688 127.519531 42.773438 131.191406 45.351562 133.457031 L 45.347656 133.457031 C 46.921875 135.003906 50.761719 138.410156 56.875 143.675781 L 56.886719 143.683594 C 58.007812 144.617188 58.992188 145.105469 59.832031 145.148438 C 60.007812 145.15625 60.175781 145.144531 60.339844 145.113281 L 60.367188 145.109375 C 60.652344 145.046875 60.910156 144.902344 61.136719 144.679688 L 61.132812 144.679688 C 61.574219 144.246094 61.902344 143.433594 62.121094 142.246094 L 62.125 142.238281 C 64.261719 130.128906 66.273438 119.359375 68.15625 109.933594 C 68.257812 109.429688 67.929688 108.9375 67.425781 108.839844 C 67.378906 108.828125 67.335938 108.824219 67.289062 108.820312 Z M 67.289062 108.820312 " fill-opacity="0.996" fill-rule="nonzero"/></svg>