<svg xmlns="http://www.w3.org/2000/svg" width="500" height="500" version="1.0" viewBox="0 0 375 375"><defs><clipPath id="a"><path d="M1.5 1.5h372v372H1.5Zm0 0"/></clipPath><clipPath id="b"><path d="M187.5 1.5c-102.727 0-186 83.273-186 186s83.273 186 186 186 186-83.273 186-186-83.273-186-186-186Zm0 0"/></clipPath><clipPath id="c"><path d="M26.25 26.25h322.5v322.5H26.25Zm0 0"/></clipPath></defs><g clip-path="url(#a)"><g clip-path="url(#b)"><path fill="#fff" d="M1.5 1.5h372v372H1.5Zm0 0"/></g></g><g clip-path="url(#c)"><path d="m151.625 216.723 119.766-69.141L348 191.809c.035-1.434.105-2.864.105-4.309 0-15.621-2.273-30.703-6.43-44.98l-70.284-40.583v24.895l-119.766 69.152v-49.789l119.766-69.144 56.644 32.703c-13.465-24.285-33.043-44.703-56.644-59.2-24.418-15-53.137-23.66-83.891-23.66-88.7 0-160.605 71.903-160.605 160.606 0 88.7 71.906 160.605 160.605 160.605 30.77 0 59.469-8.722 83.89-23.738 21.012-12.918 38.864-30.476 52.016-51.332L271.391 243v24.895l-119.766 69.148v-49.79l119.766-69.144 62.27 35.953a159.345 159.345 0 0 0 11.987-38.714l-74.257-42.875v24.89l-119.766 69.145v-49.785"/></g></svg>