<svg xmlns="http://www.w3.org/2000/svg" xmlns:xlink="http://www.w3.org/1999/xlink" version="1.0"><defs><clipPath id="1c2b0818d9"><path d="M 0.75 0.75 L 188.75 0.75 L 188.75 188.75 L 0.75 188.75 Z M 0.75 0.75 " clip-rule="nonzero"/></clipPath><clipPath id="1cb3b5437a"><path d="M 94.75 0.75 C 42.835938 0.75 0.75 42.835938 0.75 94.75 C 0.75 146.664062 42.835938 188.75 94.75 188.75 C 146.664062 188.75 188.75 146.664062 188.75 94.75 C 188.75 42.835938 146.664062 0.75 94.75 0.75 Z M 94.75 0.75 " clip-rule="nonzero"/></clipPath><clipPath id="b8c1d05812"><path d="M 1.496094 1.496094 L 188.003906 1.496094 L 188.003906 188.003906 L 1.496094 188.003906 Z M 1.496094 1.496094 " clip-rule="nonzero"/></clipPath><clipPath id="3740681de9"><path d="M 94.75 1.496094 C 43.25 1.496094 1.496094 43.25 1.496094 94.75 C 1.496094 146.25 43.25 188.003906 94.75 188.003906 C 146.25 188.003906 188.003906 146.25 188.003906 94.75 C 188.003906 43.25 146.25 1.496094 94.75 1.496094 Z M 94.75 1.496094 " clip-rule="nonzero"/></clipPath><clipPath id="0e4e79d6a4"><path d="M 8.335938 8.335938 L 181.164062 8.335938 L 181.164062 181.164062 L 8.335938 181.164062 Z M 8.335938 8.335938 " clip-rule="nonzero"/></clipPath><clipPath id="ab33b6c7b0"><path d="M 94.75 8.335938 C 47.023438 8.335938 8.335938 47.023438 8.335938 94.75 C 8.335938 142.476562 47.023438 181.164062 94.75 181.164062 C 142.476562 181.164062 181.164062 142.476562 181.164062 94.75 C 181.164062 47.023438 142.476562 8.335938 94.75 8.335938 Z M 94.75 8.335938 " clip-rule="nonzero"/></clipPath><clipPath id="38125fdb5a"><path d="M 15.011719 15.011719 L 174.488281 15.011719 L 174.488281 174.488281 L 15.011719 174.488281 Z M 15.011719 15.011719 " clip-rule="nonzero"/></clipPath></defs><g clip-path="url(#1c2b0818d9)"><g clip-path="url(#1cb3b5437a)"><path fill="#737373" d="M 0.75 0.75 L 188.75 0.75 L 188.75 188.75 L 0.75 188.75 Z M 0.75 0.75 " fill-opacity="1" fill-rule="nonzero"/></g></g><g clip-path="url(#b8c1d05812)"><g clip-path="url(#3740681de9)"><path fill="#000000" d="M 1.496094 1.496094 L 188.003906 1.496094 L 188.003906 188.003906 L 1.496094 188.003906 Z M 1.496094 1.496094 " fill-opacity="1" fill-rule="nonzero"/></g></g><g clip-path="url(#0e4e79d6a4)"><g clip-path="url(#ab33b6c7b0)"><path fill="#ffffff" d="M 8.335938 8.335938 L 181.164062 8.335938 L 181.164062 181.164062 L 8.335938 181.164062 Z M 8.335938 8.335938 " fill-opacity="1" fill-rule="nonzero"/></g></g><g clip-path="url(#38125fdb5a)"><path fill="#000000" d="M 77.007812 109.203125 L 136.234375 75.011719 L 174.117188 96.878906 C 174.136719 96.171875 174.167969 95.464844 174.167969 94.75 C 174.167969 87.023438 173.046875 79.566406 170.988281 72.507812 L 136.234375 52.441406 L 136.234375 64.75 L 77.007812 98.945312 L 77.007812 74.324219 L 136.234375 40.132812 L 164.246094 56.304688 C 157.585938 44.296875 147.90625 34.199219 136.234375 27.03125 C 124.160156 19.613281 109.957031 15.332031 94.75 15.332031 C 50.890625 15.332031 15.332031 50.886719 15.332031 94.75 C 15.332031 138.613281 50.890625 174.167969 94.75 174.167969 C 109.964844 174.167969 124.15625 169.855469 136.234375 162.429688 C 146.625 156.042969 155.453125 147.359375 161.957031 137.046875 L 136.234375 122.195312 L 136.234375 134.503906 L 77.007812 168.699219 L 77.007812 144.078125 L 136.234375 109.886719 L 167.027344 127.664062 C 169.769531 121.644531 171.785156 115.230469 172.953125 108.519531 L 136.234375 87.320312 L 136.234375 99.628906 L 77.007812 133.820312 L 77.007812 109.203125 " fill-opacity="1" fill-rule="nonzero"/></g></svg>