<svg xmlns="http://www.w3.org/2000/svg" xmlns:xlink="http://www.w3.org/1999/xlink" width="500" zoomAndPan="magnify" viewBox="0 0 375 374.999991" height="500" preserveAspectRatio="xMidYMid meet" version="1.0"><defs><clipPath id="0fa25a5f36"><path d="M 1.5 1.5 L 373.5 1.5 L 373.5 373.5 L 1.5 373.5 Z M 1.5 1.5 " clip-rule="nonzero"/></clipPath><clipPath id="1c2dc39450"><path d="M 187.5 1.5 C 84.773438 1.5 1.5 84.773438 1.5 187.5 C 1.5 290.226562 84.773438 373.5 187.5 373.5 C 290.226562 373.5 373.5 290.226562 373.5 187.5 C 373.5 84.773438 290.226562 1.5 187.5 1.5 Z M 187.5 1.5 " clip-rule="nonzero"/></clipPath></defs><g clip-path="url(#0fa25a5f36)"><g clip-path="url(#1c2dc39450)"><path fill="#ffffff" d="M 1.5 1.5 L 373.5 1.5 L 373.5 373.5 L 1.5 373.5 Z M 1.5 1.5 " fill-opacity="1" fill-rule="nonzero"/></g></g><path fill="#000000" d="M 145.949219 221.347656 L 284.65625 141.269531 L 373.378906 192.488281 C 373.421875 190.828125 373.503906 189.171875 373.503906 187.5 C 373.503906 169.40625 370.871094 151.941406 366.054688 135.40625 L 284.65625 88.40625 L 284.65625 117.238281 L 145.949219 197.324219 L 145.949219 139.664062 L 284.65625 59.582031 L 350.261719 97.457031 C 334.667969 69.335938 311.992188 45.6875 284.65625 28.898438 C 256.378906 11.527344 223.121094 1.496094 187.5 1.496094 C 84.777344 1.496094 1.496094 84.769531 1.496094 187.5 C 1.496094 290.226562 84.777344 373.503906 187.5 373.503906 C 223.136719 373.503906 256.371094 363.402344 284.65625 346.011719 C 308.992188 331.050781 329.664062 310.714844 344.898438 286.5625 L 284.65625 251.777344 L 284.65625 280.609375 L 145.949219 360.691406 L 145.949219 303.03125 L 284.65625 222.949219 L 356.773438 264.585938 C 363.199219 250.492188 367.914062 235.464844 370.660156 219.753906 L 284.65625 170.097656 L 284.65625 198.921875 L 145.949219 279.003906 L 145.949219 221.347656 " fill-opacity="1" fill-rule="nonzero"/></svg>