<?xml version="1.0" encoding="UTF-8" standalone="no"?>
<!DOCTYPE svg PUBLIC "-//W3C//DTD SVG 1.1//EN" "http://www.w3.org/Graphics/SVG/1.1/DTD/svg11.dtd">
<!-- Created with Vectornator (http://vectornator.io/) -->
<svg height="253.0pt" stroke-miterlimit="10" style="fill-rule:nonzero;clip-rule:evenodd;stroke-linecap:round;stroke-linejoin:round;" version="1.1" viewBox="0 0 253 253" width="253.0pt" xml:space="preserve" xmlns="http://www.w3.org/2000/svg" xmlns:xlink="http://www.w3.org/1999/xlink">
<defs/>
<g id="Untitled">
<g opacity="1">
<clipPath clip-rule="nonzero" id="ClipPath">
<path d="M1 1L251.667 1L251.667 251.667L1 251.667L1 1Z"/>
</clipPath>
<g clip-path="url(#ClipPath)">
<clipPath clip-rule="nonzero" id="ClipPath_2">
<path d="M126.333 1C57.1146 1 1 57.1146 1 126.333C1 195.552 57.1146 251.667 126.333 251.667C195.552 251.667 251.667 195.552 251.667 126.333C251.667 57.1146 195.552 1 126.333 1Z"/>
</clipPath>
<g clip-path="url(#ClipPath_2)">
<path d="M1 1L251.667 1L251.667 251.667L1 251.667L1 1Z" fill="#737373" fill-rule="nonzero" opacity="1" stroke="none"/>
</g>
</g>
</g>
<g opacity="1">
<clipPath clip-rule="nonzero" id="ClipPath_3">
<path d="M1.99479 1.9948L250.672 1.9948L250.672 250.672L1.99479 250.672L1.99479 1.9948Z"/>
</clipPath>
<g clip-path="url(#ClipPath_3)">
<clipPath clip-rule="nonzero" id="ClipPath_4">
<path d="M126.333 1.9948C57.6667 1.9948 1.99479 57.6667 1.99479 126.333C1.99479 195 57.6667 250.672 126.333 250.672C195 250.672 250.672 195 250.672 126.333C250.672 57.6667 195 1.9948 126.333 1.9948Z"/>
</clipPath>
<g clip-path="url(#ClipPath_4)">
<path d="M1.99479 1.9948L250.672 1.9948L250.672 250.672L1.99479 250.672L1.99479 1.9948Z" fill="#000000" fill-rule="nonzero" opacity="1" stroke="none"/>
</g>
</g>
</g>
<g opacity="1">
<clipPath clip-rule="nonzero" id="ClipPath_5">
<path d="M11.1146 11.1146L241.552 11.1146L241.552 241.552L11.1146 241.552L11.1146 11.1146Z"/>
</clipPath>
<g clip-path="url(#ClipPath_5)">
<clipPath clip-rule="nonzero" id="ClipPath_6">
<path d="M126.333 11.1146C62.6979 11.1146 11.1146 62.6979 11.1146 126.333C11.1146 189.969 62.6979 241.552 126.333 241.552C189.969 241.552 241.552 189.969 241.552 126.333C241.552 62.6979 189.969 11.1146 126.333 11.1146Z"/>
</clipPath>
<g clip-path="url(#ClipPath_6)">
<path d="M11.1146 11.1146L241.552 11.1146L241.552 241.552L11.1146 241.552L11.1146 11.1146Z" fill="#ffffff" fill-rule="nonzero" opacity="1" stroke="none"/>
</g>
</g>
</g>
<g opacity="1">
<clipPath clip-rule="nonzero" id="ClipPath_7">
<path d="M20.0156 20.0156L232.734 20.0156L232.734 232.734L20.0156 232.734L20.0156 20.0156Z"/>
</clipPath>
<g clip-path="url(#ClipPath_7)">
<path d="M102.714 145.651L181.708 100.047L232.24 129.219C232.266 128.271 232.312 127.328 232.312 126.375C232.312 116.073 230.812 106.125 228.068 96.7083L181.708 69.9375L181.708 86.3594L102.714 131.969L102.714 99.1302L181.708 53.5208L219.073 75.0938C210.193 59.0781 197.276 45.6094 181.708 36.0469C165.604 26.1563 146.661 20.4427 126.375 20.4427C67.8698 20.4427 20.4427 67.8698 20.4427 126.375C20.4427 184.88 67.8698 232.313 126.375 232.313C146.672 232.313 165.599 226.557 181.708 216.651C195.568 208.13 207.344 196.552 216.021 182.797L181.708 162.984L181.708 179.406L102.714 225.016L102.714 192.172L181.708 146.568L222.781 170.281C226.443 162.25 229.13 153.693 230.693 144.745L181.708 116.464L181.708 132.88L102.714 178.49L102.714 145.651" fill="#000000" fill-rule="nonzero" opacity="1" stroke="none"/>
</g>
</g>
</g>
</svg>
