<?xml version="1.0" encoding="UTF-8" standalone="no"?>
<!DOCTYPE svg PUBLIC "-//W3C//DTD SVG 1.1//EN" "http://www.w3.org/Graphics/SVG/1.1/DTD/svg11.dtd">
<!-- Created with Vectornator (http://vectornator.io/) -->
<svg height="100%" stroke-miterlimit="10" style="fill-rule:nonzero;clip-rule:evenodd;stroke-linecap:round;stroke-linejoin:round;" version="1.1" viewBox="0 0 700 700" width="100%" xml:space="preserve" xmlns="http://www.w3.org/2000/svg" xmlns:vectornator="http://vectornator.io" xmlns:xlink="http://www.w3.org/1999/xlink">
<defs/>
<clipPath id="ArtboardFrame">
<rect height="700" width="700" x="0" y="0"/>
</clipPath>
<g clip-path="url(#ArtboardFrame)" id="Untitled" vectornator:layerName="Untitled">
<g opacity="1" vectornator:layerName="path">
<clipPath clip-rule="nonzero" id="ClipPath">
<path d="M-1.42109e-14 1.77636e-14L700 1.77636e-14L700 700L-1.42109e-14 700L-1.42109e-14 1.77636e-14Z"/>
</clipPath>
<g clip-path="url(#ClipPath)">
<path d="M700 350C700 156.7 543.299 1.98952e-14 350 1.98952e-14C156.701 1.98952e-14 0 156.7 0 350C0 514.143 113.001 651.87 265.448 689.693L265.448 456.954L193.276 456.954L193.276 350L265.448 350L265.448 303.913C265.448 184.784 319.36 129.568 436.316 129.568C458.489 129.568 496.749 133.915 512.401 138.264L512.401 235.219C504.14 234.35 489.793 233.915 471.967 233.915C414.576 233.915 392.402 255.654 392.402 312.175L392.402 350L506.724 350L487.085 456.954L392.402 456.954L392.402 697.436C565.702 676.505 700 528.945 700 350" fill="#0866ff" fill-rule="nonzero" opacity="1" stroke="none" vectornator:layerName="path"/>
<path d="M487.085 456.955L506.725 350L392.403 350L392.403 312.174C392.403 255.653 414.576 233.915 471.966 233.915C489.792 233.915 504.139 234.349 512.401 235.219L512.401 138.264C496.749 133.916 458.488 129.568 436.315 129.568C319.36 129.568 265.448 184.785 265.448 303.914L265.448 350L193.275 350L193.275 456.955L265.448 456.955L265.448 689.693C292.528 696.41 320.843 700 349.999 700C364.355 700 378.501 699.115 392.403 697.437L392.403 456.955L487.085 456.955Z" fill="#ffffff" fill-rule="nonzero" opacity="1" stroke="none" vectornator:layerName="path"/>
</g>
</g>
</g>
</svg>
