<svg xmlns="http://www.w3.org/2000/svg" xmlns:xlink="http://www.w3.org/1999/xlink" width="500" zoomAndPan="magnify" viewBox="0 0 375 320.250004" height="427" preserveAspectRatio="xMidYMid meet" version="1.0"><defs><clipPath id="e8adc490d3"><path d="M 6.667969 6.230469 L 320 6.230469 L 320 314 L 6.667969 314 Z M 6.667969 6.230469 " clip-rule="nonzero"/></clipPath><clipPath id="3127103396"><path d="M 295.054688 169.382812 L 316.996094 188.925781 L 316.996094 310.761719 L 295.054688 310.761719 Z M 231.324219 6.246094 L 58.121094 107.789062 L 58.121094 310.761719 L 6.683594 310.761719 L 6.683594 313.261719 L 319.492188 313.261719 L 319.492188 187.800781 L 292.554688 163.8125 L 292.554688 310.761719 L 60.621094 310.761719 L 60.621094 109.210938 L 232.585938 8.40625 Z M 231.324219 6.246094 " clip-rule="nonzero"/></clipPath><clipPath id="7a1a2ec871"><path d="M 116 8 L 351.878906 8 L 351.878906 218 L 116 218 Z M 116 8 " clip-rule="nonzero"/></clipPath><clipPath id="348b722ab1"><path d="M 117.765625 8.105469 L 351.140625 216 L 349.476562 217.859375 L 116.09375 9.976562 Z M 117.765625 8.105469 " clip-rule="nonzero"/></clipPath><clipPath id="e2a674b129"><path d="M 318.246094 310.761719 L 368.074219 310.761719 L 368.074219 313.261719 L 318.246094 313.261719 Z M 318.246094 310.761719 " clip-rule="nonzero"/></clipPath><clipPath id="1938b729a2"><path d="M 292.554688 103.390625 L 295.054688 103.390625 L 295.054688 166.597656 L 292.554688 166.597656 Z M 292.554688 103.390625 " clip-rule="nonzero"/></clipPath><clipPath id="7b673faed4"><path d="M 316.996094 103.390625 L 319.492188 103.390625 L 319.492188 188.363281 L 316.996094 188.363281 Z M 316.996094 103.390625 " clip-rule="nonzero"/></clipPath><clipPath id="749e4a1e7d"><path d="M 40.1875 178.460938 L 208.472656 178.460938 L 208.472656 180.957031 L 40.1875 180.957031 Z M 40.1875 178.460938 " clip-rule="nonzero"/></clipPath><clipPath id="349ebba778"><path d="M 143 103.4375 L 159.957031 103.4375 L 159.957031 120 L 143 120 Z M 143 103.4375 " clip-rule="nonzero"/></clipPath><clipPath id="7ea2e9b744"><path d="M 159.402344 119.765625 L 143.519531 119.765625 L 143.519531 103.878906 L 159.417969 103.878906 Z M 159.402344 119.765625 " clip-rule="nonzero"/></clipPath><clipPath id="af3bdebfe1"><path d="M 165.035156 103.878906 L 180.933594 103.878906 L 180.933594 119.765625 L 165.035156 119.765625 Z M 165.035156 103.878906 " clip-rule="nonzero"/></clipPath><clipPath id="f825c2096f"><path d="M 143 125.871094 L 159.957031 125.871094 L 159.957031 142 L 143 142 Z M 143 125.871094 " clip-rule="nonzero"/></clipPath><clipPath id="dad3ea75b8"><path d="M 159.402344 141.820312 L 143.519531 141.820312 L 143.519531 125.921875 L 159.417969 125.921875 Z M 159.402344 141.820312 " clip-rule="nonzero"/></clipPath><clipPath id="cf1430f271"><path d="M 165.035156 125.921875 L 180.933594 125.921875 L 180.933594 141.820312 L 165.035156 141.820312 Z M 165.035156 125.921875 " clip-rule="nonzero"/></clipPath><clipPath id="0955296638"><path d="M 159.828125 179.707031 L 162.324219 179.707031 L 162.324219 199.226562 L 159.828125 199.226562 Z M 159.828125 179.707031 " clip-rule="nonzero"/></clipPath><clipPath id="50f0091997"><path d="M 155 197 L 168 197 L 168 210.617188 L 155 210.617188 Z M 155 197 " clip-rule="nonzero"/></clipPath><clipPath id="6a968c43b8"><path d="M 166.546875 210.378906 L 155.058594 210.378906 L 155.058594 204.011719 L 156.304688 204.011719 L 155.058594 204.011719 C 155.058594 200.488281 157.90625 197.640625 161.425781 197.640625 L 161.425781 198.890625 L 161.425781 197.640625 C 164.949219 197.640625 167.796875 200.488281 167.796875 204.011719 L 166.546875 204.011719 L 167.796875 204.011719 L 167.796875 210.378906 L 166.546875 210.378906 M 166.546875 207.882812 L 166.546875 209.132812 L 165.296875 209.132812 L 165.296875 204.011719 C 165.296875 201.875 163.5625 200.140625 161.425781 200.140625 C 159.292969 200.140625 157.554688 201.875 157.554688 204.011719 L 157.554688 209.132812 L 156.304688 209.132812 L 156.304688 207.882812 Z M 166.546875 207.882812 " clip-rule="nonzero"/></clipPath><clipPath id="13738740ea"><path d="M 140.019531 208.125 L 182 208.125 L 182 230 L 140.019531 230 Z M 140.019531 208.125 " clip-rule="nonzero"/></clipPath><clipPath id="60a971f5e3"><path d="M 167.570312 208.433594 L 181.769531 229.425781 L 140.832031 229.425781 L 155.28125 208.433594 L 157.34375 209.84375 L 144.242188 228.886719 L 143.21875 228.175781 L 143.21875 226.929688 L 179.449219 226.929688 L 179.449219 228.175781 L 178.410156 228.875 L 165.523438 209.832031 Z M 167.570312 208.433594 " clip-rule="nonzero"/></clipPath><clipPath id="0b5b2bdc5b"><path d="M 153 228.0625 L 169.929688 228.0625 L 169.929688 239.28125 L 153 239.28125 Z M 153 228.0625 " clip-rule="nonzero"/></clipPath><clipPath id="d3ae93ffab"><path d="M 161.363281 239.078125 C 157.066406 239.078125 153.585938 235.59375 153.585938 231.296875 L 153.585938 228.789062 L 169.144531 228.789062 L 169.144531 231.296875 C 169.144531 235.59375 165.660156 239.078125 161.363281 239.078125 " clip-rule="nonzero"/></clipPath><clipPath id="e606861b57"><path d="M 186.128906 247 L 294 247 L 294 312.808594 L 186.128906 312.808594 Z M 186.128906 247 " clip-rule="nonzero"/></clipPath><clipPath id="e9dd738da7"><path d="M 293.804688 260.660156 L 204.460938 312.011719 L 186.328125 312.011719 L 186.328125 300.746094 L 200.476562 300.746094 L 200.476562 292.03125 L 212.929688 292.03125 L 212.929688 284.585938 L 226.742188 284.585938 L 226.742188 276.929688 L 239.34375 276.929688 L 239.34375 269.402344 L 253.015625 269.402344 L 253.015625 261.757812 L 266.765625 261.757812 L 266.765625 254.453125 L 279.242188 254.453125 L 279.242188 247.148438 L 293.804688 247.148438 " clip-rule="nonzero"/></clipPath><clipPath id="f9cf53b4f0"><path d="M 84 258 L 128.800781 258 L 128.800781 294 L 84 294 Z M 84 258 " clip-rule="nonzero"/></clipPath><clipPath id="589c5cd8fd"><path d="M 117.242188 293.789062 L 95.761719 293.789062 C 89.628906 293.789062 84.660156 288.820312 84.660156 282.6875 L 85.597656 282.6875 L 84.660156 282.6875 L 84.660156 269.140625 L 85.597656 269.140625 L 84.660156 269.140625 C 84.660156 263.007812 89.628906 258.035156 95.761719 258.035156 L 95.761719 258.972656 L 95.761719 258.035156 L 117.242188 258.035156 L 117.242188 258.972656 L 117.242188 258.035156 C 123.375 258.035156 128.34375 263.007812 128.34375 269.140625 L 127.410156 269.140625 L 128.34375 269.140625 L 128.34375 282.703125 L 127.410156 282.703125 L 128.34375 282.703125 C 128.34375 288.832031 123.375 293.804688 117.242188 293.804688 M 117.242188 291.929688 C 122.339844 291.929688 126.472656 287.796875 126.472656 282.703125 L 126.472656 269.140625 C 126.472656 264.042969 122.339844 259.910156 117.242188 259.910156 L 95.761719 259.910156 C 90.667969 259.910156 86.535156 264.042969 86.535156 269.140625 L 86.535156 282.703125 C 86.535156 287.796875 90.667969 291.929688 95.761719 291.929688 Z M 117.242188 291.929688 " clip-rule="nonzero"/></clipPath><clipPath id="500563c9bd"><path d="M 70.226562 273 L 104 273 L 104 307 L 70.226562 307 Z M 70.226562 273 " clip-rule="nonzero"/></clipPath><clipPath id="859e6b7421"><path d="M 86.535156 277.878906 L 86.019531 278.816406 L 85.597656 278.816406 L 84.847656 278.503906 L 85.011719 278.628906 L 84.886719 278.542969 L 84.824219 278.492188 C 83.984375 277.855469 81.101562 275.671875 78.292969 275.671875 C 76.816406 275.671875 75.292969 276.28125 74.058594 278.367188 C 70.171875 284.925781 76.878906 295.339844 76.992188 295.515625 L 77.015625 295.550781 L 77.03125 295.589844 C 77.042969 295.601562 82.050781 304.84375 96.75 304.96875 L 98.285156 304.992188 L 99.058594 305.003906 C 99.859375 305.019531 100.65625 305.042969 101.480469 305.042969 L 103.042969 305.042969 L 103.890625 306.890625 L 102.242188 306.917969 L 101.457031 306.902344 C 100.621094 306.890625 99.808594 306.878906 99.007812 306.867188 L 97.472656 306.828125 L 96.738281 305.878906 L 96.722656 306.816406 C 81.0625 306.691406 75.542969 296.777344 75.367188 296.449219 L 76.191406 296 L 75.40625 296.511719 C 75.519531 296.6875 67.839844 285.136719 72.433594 277.382812 L 73.246094 277.855469 L 72.433594 277.382812 C 74.007812 274.734375 76.128906 273.757812 78.277344 273.757812 C 81.8125 273.757812 85.195312 276.394531 85.945312 276.980469 L 86.058594 277.070312 L 86.070312 277.082031 L 85.945312 276.929688 L 85.558594 276.929688 L 84.621094 277.257812 Z M 86.535156 277.878906 " clip-rule="nonzero"/></clipPath><clipPath id="b6ef671ea4"><path d="M 109 273 L 142.511719 273 L 142.511719 307 L 109 307 Z M 109 273 " clip-rule="nonzero"/></clipPath><clipPath id="2a14d6332b"><path d="M 128.34375 277.878906 L 127.832031 276.945312 L 127.410156 276.945312 L 126.695312 277.242188 L 126.894531 277.09375 L 126.945312 277.054688 L 127.019531 276.992188 C 127.769531 276.417969 131.15625 273.773438 134.6875 273.773438 C 136.835938 273.773438 138.972656 274.746094 140.535156 277.394531 L 139.722656 277.867188 L 140.535156 277.394531 C 145.117188 285.125 137.5 296.625 137.5625 296.527344 L 136.773438 296.015625 L 137.597656 296.449219 C 137.425781 296.777344 131.878906 306.753906 116.132812 306.816406 L 116.132812 305.878906 L 116.132812 306.816406 C 115.292969 306.816406 114.445312 306.828125 113.558594 306.839844 L 110.671875 306.867188 C 110.160156 306.867188 109.636719 306.867188 109.101562 306.867188 L 109.113281 304.992188 L 110.660156 304.992188 C 111.636719 304.992188 112.597656 304.980469 113.519531 304.96875 L 116.105469 304.941406 C 130.890625 304.878906 135.925781 295.5625 135.9375 295.550781 L 135.960938 295.515625 L 135.988281 295.476562 C 136.148438 295.226562 142.792969 284.863281 138.921875 278.332031 C 137.6875 276.246094 136.164062 275.632812 134.6875 275.632812 C 131.878906 275.632812 128.996094 277.816406 128.15625 278.457031 L 128.019531 278.554688 L 127.96875 278.59375 L 127.78125 278.792969 L 127.394531 278.792969 L 126.460938 278.46875 Z M 128.34375 277.878906 " clip-rule="nonzero"/></clipPath><clipPath id="8bfc1cdb79"><path d="M 97.296875 305.003906 L 116.007812 305.003906 L 116.007812 306.878906 L 97.296875 306.878906 Z M 97.296875 305.003906 " clip-rule="nonzero"/></clipPath><clipPath id="ae4a4b2a15"><path d="M 93.703125 305.816406 L 95.574219 305.816406 L 95.574219 312 L 93.703125 312 Z M 93.703125 305.816406 " clip-rule="nonzero"/></clipPath><clipPath id="f2fe654e5c"><path d="M 117.355469 305.828125 L 119.226562 305.828125 L 119.226562 312.011719 L 117.355469 312.011719 Z M 117.355469 305.828125 " clip-rule="nonzero"/></clipPath><clipPath id="e3ab0a19d5"><path d="M 131.292969 279.160156 L 136 279.160156 L 136 284 L 131.292969 284 Z M 131.292969 279.160156 " clip-rule="nonzero"/></clipPath><clipPath id="bf33596d74"><path d="M 135.4375 281.351562 C 135.4375 282.363281 134.625 283.175781 133.613281 283.175781 C 132.601562 283.175781 131.792969 282.351562 131.792969 281.351562 C 131.792969 280.351562 132.617188 279.527344 133.613281 279.527344 C 134.613281 279.527344 135.4375 280.351562 135.4375 281.351562 " clip-rule="nonzero"/></clipPath><clipPath id="ff66a28b1a"><path d="M 76.460938 279.160156 L 81 279.160156 L 81 284 L 76.460938 284 Z M 76.460938 279.160156 " clip-rule="nonzero"/></clipPath><clipPath id="594f910289"><path d="M 80.550781 281.351562 C 80.550781 282.363281 79.738281 283.175781 78.726562 283.175781 C 77.714844 283.175781 76.90625 282.351562 76.90625 281.351562 C 76.90625 280.351562 77.714844 279.527344 78.726562 279.527344 C 79.738281 279.527344 80.550781 280.351562 80.550781 281.351562 " clip-rule="nonzero"/></clipPath></defs><g clip-path="url(#e8adc490d3)"><g clip-path="url(#3127103396)"><path fill="#000000" d="M 0.4375 0 L 374.3125 0 L 374.3125 319.039062 L 0.4375 319.039062 Z M 0.4375 0 " fill-opacity="1" fill-rule="nonzero"/></g></g><g clip-path="url(#7a1a2ec871)"><g clip-path="url(#348b722ab1)"><path fill="#000000" d="M 0.4375 0 L 374.3125 0 L 374.3125 319.039062 L 0.4375 319.039062 Z M 0.4375 0 " fill-opacity="1" fill-rule="nonzero"/></g></g><g clip-path="url(#e2a674b129)"><path fill="#000000" d="M 0.4375 0 L 374.3125 0 L 374.3125 319.039062 L 0.4375 319.039062 Z M 0.4375 0 " fill-opacity="1" fill-rule="nonzero"/></g><g clip-path="url(#1938b729a2)"><path fill="#000000" d="M 0.4375 0 L 374.3125 0 L 374.3125 319.039062 L 0.4375 319.039062 Z M 0.4375 0 " fill-opacity="1" fill-rule="nonzero"/></g><g clip-path="url(#7b673faed4)"><path fill="#000000" d="M 0.4375 0 L 374.3125 0 L 374.3125 319.039062 L 0.4375 319.039062 Z M 0.4375 0 " fill-opacity="1" fill-rule="nonzero"/></g><g clip-path="url(#749e4a1e7d)"><path fill="#000000" d="M 0.4375 0 L 374.3125 0 L 374.3125 319.039062 L 0.4375 319.039062 Z M 0.4375 0 " fill-opacity="1" fill-rule="nonzero"/></g><g clip-path="url(#349ebba778)"><g clip-path="url(#7ea2e9b744)"><path fill="#38b6ff" d="M 0.4375 0 L 374.3125 0 L 374.3125 319.039062 L 0.4375 319.039062 Z M 0.4375 0 " fill-opacity="1" fill-rule="nonzero"/></g></g><g clip-path="url(#af3bdebfe1)"><path fill="#38b6ff" d="M 0.4375 0 L 374.3125 0 L 374.3125 319.039062 L 0.4375 319.039062 Z M 0.4375 0 " fill-opacity="1" fill-rule="nonzero"/></g><g clip-path="url(#f825c2096f)"><g clip-path="url(#dad3ea75b8)"><path fill="#38b6ff" d="M 0.4375 0 L 374.3125 0 L 374.3125 319.039062 L 0.4375 319.039062 Z M 0.4375 0 " fill-opacity="1" fill-rule="nonzero"/></g></g><g clip-path="url(#cf1430f271)"><path fill="#38b6ff" d="M 0.4375 0 L 374.3125 0 L 374.3125 319.039062 L 0.4375 319.039062 Z M 0.4375 0 " fill-opacity="1" fill-rule="nonzero"/></g><g clip-path="url(#0955296638)"><path fill="#000000" d="M 0.4375 0 L 374.3125 0 L 374.3125 319.039062 L 0.4375 319.039062 Z M 0.4375 0 " fill-opacity="1" fill-rule="nonzero"/></g><g clip-path="url(#50f0091997)"><g clip-path="url(#6a968c43b8)"><path fill="#000000" d="M 0.4375 0 L 374.3125 0 L 374.3125 319.039062 L 0.4375 319.039062 Z M 0.4375 0 " fill-opacity="1" fill-rule="nonzero"/></g></g><g clip-path="url(#13738740ea)"><g clip-path="url(#60a971f5e3)"><path fill="#000000" d="M 0.4375 0 L 374.3125 0 L 374.3125 319.039062 L 0.4375 319.039062 Z M 0.4375 0 " fill-opacity="1" fill-rule="nonzero"/></g></g><g clip-path="url(#0b5b2bdc5b)"><g clip-path="url(#d3ae93ffab)"><path fill="#ffbd59" d="M 0.4375 0 L 374.3125 0 L 374.3125 319.039062 L 0.4375 319.039062 Z M 0.4375 0 " fill-opacity="1" fill-rule="nonzero"/></g></g><g clip-path="url(#e606861b57)"><g clip-path="url(#e9dd738da7)"><path fill="#000000" d="M 0.4375 0 L 374.3125 0 L 374.3125 319.039062 L 0.4375 319.039062 Z M 0.4375 0 " fill-opacity="1" fill-rule="nonzero"/></g></g><g clip-path="url(#f9cf53b4f0)"><g clip-path="url(#589c5cd8fd)"><path fill="#000000" d="M 0.4375 0 L 374.3125 0 L 374.3125 319.039062 L 0.4375 319.039062 Z M 0.4375 0 " fill-opacity="1" fill-rule="nonzero"/></g></g><g clip-path="url(#500563c9bd)"><g clip-path="url(#859e6b7421)"><path fill="#000000" d="M 0.4375 0 L 374.3125 0 L 374.3125 319.039062 L 0.4375 319.039062 Z M 0.4375 0 " fill-opacity="1" fill-rule="nonzero"/></g></g><g clip-path="url(#b6ef671ea4)"><g clip-path="url(#2a14d6332b)"><path fill="#000000" d="M 0.4375 0 L 374.3125 0 L 374.3125 319.039062 L 0.4375 319.039062 Z M 0.4375 0 " fill-opacity="1" fill-rule="nonzero"/></g></g><g clip-path="url(#8bfc1cdb79)"><path fill="#000000" d="M 0.4375 0 L 374.3125 0 L 374.3125 319.039062 L 0.4375 319.039062 Z M 0.4375 0 " fill-opacity="1" fill-rule="nonzero"/></g><g clip-path="url(#ae4a4b2a15)"><path fill="#000000" d="M 0.4375 0 L 374.3125 0 L 374.3125 319.039062 L 0.4375 319.039062 Z M 0.4375 0 " fill-opacity="1" fill-rule="nonzero"/></g><g clip-path="url(#f2fe654e5c)"><path fill="#000000" d="M 0.4375 0 L 374.3125 0 L 374.3125 319.039062 L 0.4375 319.039062 Z M 0.4375 0 " fill-opacity="1" fill-rule="nonzero"/></g><g clip-path="url(#e3ab0a19d5)"><g clip-path="url(#bf33596d74)"><path fill="#000000" d="M 0.4375 0 L 374.3125 0 L 374.3125 319.039062 L 0.4375 319.039062 Z M 0.4375 0 " fill-opacity="1" fill-rule="nonzero"/></g></g><g clip-path="url(#ff66a28b1a)"><g clip-path="url(#594f910289)"><path fill="#000000" d="M 0.4375 0 L 374.3125 0 L 374.3125 319.039062 L 0.4375 319.039062 Z M 0.4375 0 " fill-opacity="1" fill-rule="nonzero"/></g></g></svg>