<svg height="100%" stroke-miterlimit="10" style="fill-rule:nonzero;clip-rule:evenodd;stroke-linecap:round;stroke-linejoin:round;" version="1.1" viewBox="0 0 500 353" width="100%" xml:space="preserve" xmlns="http://www.w3.org/2000/svg" xmlns:vectornator="http://vectornator.io" xmlns:xlink="http://www.w3.org/1999/xlink">
<defs/>
<clipPath id="ArtboardFrame">
<rect height="353" width="500" x="0" y="0"/>
</clipPath>
<g clip-path="url(#ArtboardFrame)" id="Layer-1" vectornator:layerName="Layer 1">
<path d="M442.431 195.126L474.897 313.645L406.972 312.784L442.431 195.126Z" fill="#a4f600" fill-rule="nonzero" opacity="1" stroke="none" vectornator:layerName="Polygon 1"/>
<path d="M149.943 249.137L197.051 249.137L197.051 340.226L149.943 340.226L149.943 249.137Z" fill="#ec0014" fill-rule="nonzero" opacity="1" stroke="none" vectornator:layerName="Rectangle 1"/>
<path d="M226.113 100.831L230.412 112.498L230.412 112.498L25.0098 223.226L25.0098 223.226L20.7105 211.559L20.7105 211.559L226.113 100.831L226.113 100.831Z" fill="#000000" fill-rule="nonzero" opacity="1" stroke="none" vectornator:layerName="rect"/>
<path d="M60.4465 194.695L71.0073 194.695L71.0073 194.695L71.0073 348.014L71.0073 348.014L60.4465 348.014L60.4465 348.014L60.4465 194.695L60.4465 194.695Z" fill="#000000" fill-rule="nonzero" opacity="1" stroke="none" vectornator:layerName="rect 1"/>
<path d="M-5.68434e-14 340.226L500 340.226L500 340.226L500 353L500 353L-5.68434e-14 353L-5.68434e-14 353L-5.68434e-14 340.226L-5.68434e-14 340.226Z" fill="#000000" fill-rule="nonzero" opacity="1" stroke="none" vectornator:layerName="rect 2"/>
<path d="M153.177 345.904L142.616 345.904L142.616 210.307L346.823 210.307L346.823 345.176L336.262 345.176L336.262 223.081L153.177 223.081L153.177 345.904Z" fill="#000000" fill-rule="nonzero" opacity="1" stroke="none" vectornator:layerName="polygon"/>
<path d="M201.288 348.014L190.727 348.014L190.727 254.305L109.159 254.305L109.159 346.595L98.5979 346.595L98.5979 241.531L201.288 241.531L201.288 348.014Z" fill="#000000" fill-rule="nonzero" opacity="1" stroke="none" vectornator:layerName="polygon 1"/>
<path d="M223.011 24.3444L233.572 24.3444L233.572 24.3444L233.572 344.484L233.572 344.484L223.011 344.484L223.011 344.484L223.011 24.3444L223.011 24.3444Z" fill="#000000" fill-rule="nonzero" opacity="1" stroke="none" vectornator:layerName="rect 3"/>
<path d="M202.032 0.956234L420.36 142.216L420.36 142.216L415.378 153.48L415.378 153.48L197.051 12.22L197.051 12.22L202.032 0.956234L202.032 0.956234Z" fill="#000000" fill-rule="nonzero" opacity="1" stroke="none" vectornator:layerName="rect 4"/>
<path d="M373.842 124.422L384.402 124.422L384.402 124.422L384.402 346.595L384.402 346.595L373.842 346.595L373.842 346.595L373.842 124.422L373.842 124.422Z" fill="#000000" fill-rule="nonzero" opacity="1" stroke="none" vectornator:layerName="rect 5"/>
<path d="M435.732 343.065L442.502 245.098L449.242 343.065L435.732 343.065Z" fill="#000000" fill-rule="nonzero" opacity="1" stroke="none" vectornator:layerName="polygon 2"/>
<path d="M439.493 307.292L428.391 286.148L445.09 300.96L439.493 307.292Z" fill="#000000" fill-rule="nonzero" opacity="1" stroke="none" vectornator:layerName="polygon 3"/>
<path d="M439.704 288.332L454.898 271.045L445.872 293.79L439.704 288.332Z" fill="#000000" fill-rule="nonzero" opacity="1" stroke="none" vectornator:layerName="polygon 4"/>
<path d="M483.301 318.573L400.499 318.573L441.9 179.702L483.301 318.573ZM411.361 309.33L472.44 309.33L441.9 206.886L411.361 309.33Z" fill="#000000" fill-rule="nonzero" opacity="1" stroke="none" vectornator:layerName="path"/>
</g>
</svg>
