<svg xmlns="http://www.w3.org/2000/svg" xmlns:xlink="http://www.w3.org/1999/xlink" width="730" zoomAndPan="magnify" viewBox="0 0 547.5 189.750001" height="253" preserveAspectRatio="xMidYMid meet" version="1.0"><defs><g/><clipPath id="94498dd2a3"><path d="M 61 146 L 546.890625 146 L 546.890625 189.5 L 61 189.5 Z M 61 146 " clip-rule="nonzero"/></clipPath><clipPath id="41a4be8ab2"><path d="M 0.859375 0.75 L 188.863281 0.75 L 188.863281 188.75 L 0.859375 188.75 Z M 0.859375 0.75 " clip-rule="nonzero"/></clipPath><clipPath id="dff32f40be"><path d="M 94.859375 0.75 C 42.945312 0.75 0.859375 42.835938 0.859375 94.75 C 0.859375 146.664062 42.945312 188.75 94.859375 188.75 C 146.777344 188.75 188.863281 146.664062 188.863281 94.75 C 188.863281 42.835938 146.777344 0.75 94.859375 0.75 Z M 94.859375 0.75 " clip-rule="nonzero"/></clipPath><clipPath id="962ccdd9c4"><path d="M 5.953125 5.839844 L 183.769531 5.839844 L 183.769531 183.660156 L 5.953125 183.660156 Z M 5.953125 5.839844 " clip-rule="nonzero"/></clipPath><clipPath id="06c72c8952"><path d="M 94.859375 5.839844 C 45.757812 5.839844 5.953125 45.648438 5.953125 94.75 C 5.953125 143.855469 45.757812 183.660156 94.859375 183.660156 C 143.964844 183.660156 183.769531 143.855469 183.769531 94.75 C 183.769531 45.648438 143.964844 5.839844 94.859375 5.839844 Z M 94.859375 5.839844 " clip-rule="nonzero"/></clipPath><clipPath id="e1695380a7"><path d="M 12.46875 12.359375 L 177.253906 12.359375 L 177.253906 177.140625 L 12.46875 177.140625 Z M 12.46875 12.359375 " clip-rule="nonzero"/></clipPath><clipPath id="3686521fdc"><path d="M 94.859375 12.359375 C 49.355469 12.359375 12.46875 49.246094 12.46875 94.75 C 12.46875 140.253906 49.355469 177.140625 94.859375 177.140625 C 140.363281 177.140625 177.253906 140.253906 177.253906 94.75 C 177.253906 49.246094 140.363281 12.359375 94.859375 12.359375 Z M 94.859375 12.359375 " clip-rule="nonzero"/></clipPath><clipPath id="826fbdbbe5"><path d="M 19 19 L 170.886719 19 L 170.886719 170.773438 L 19 170.773438 Z M 19 19 " clip-rule="nonzero"/></clipPath></defs><g clip-path="url(#94498dd2a3)"><path stroke-linecap="round" transform="matrix(0.749013, -0.000571216, 0.000571216, 0.749013, 91.942972, 177.48799)" fill="none" stroke-linejoin="miter" d="M 4.000132 3.99828 L 602.391867 4.000907 " stroke="#000000" stroke-width="8" stroke-opacity="1" stroke-miterlimit="4"/></g><g fill="#ec0014" fill-opacity="1"><g transform="translate(197.98533, 153.580772)"><g><path d="M 35.5625 -47.546875 L 35.5625 0 L 9.359375 0 L 9.359375 -121.09375 L 35.5625 -121.09375 L 35.5625 -70.375 L 56.34375 -70.375 L 56.34375 -121.09375 L 82.546875 -121.09375 L 82.546875 0 L 56.34375 0 L 56.34375 -47.546875 Z M 35.5625 -47.546875 "/></g></g></g><g fill="#ec0014" fill-opacity="1"><g transform="translate(289.879637, 153.580772)"><g><path d="M 57.46875 -122.96875 C 72.9375 -122.96875 80.671875 -114.734375 80.671875 -98.265625 L 80.671875 0 L 54.46875 0 L 54.46875 -40.609375 L 35.5625 -40.609375 L 35.5625 0 L 9.359375 0 L 9.359375 -98.265625 C 9.359375 -114.734375 17.09375 -122.96875 32.5625 -122.96875 Z M 35.5625 -60.828125 L 54.46875 -60.828125 L 54.46875 -101.453125 C 54.46875 -102.441406 54.125 -103.3125 53.4375 -104.0625 C 52.75 -104.8125 51.90625 -105.1875 50.90625 -105.1875 L 39.125 -105.1875 C 38.125 -105.1875 37.28125 -104.8125 36.59375 -104.0625 C 35.90625 -103.3125 35.5625 -102.441406 35.5625 -101.453125 Z M 35.5625 -60.828125 "/></g></g></g><g fill="#ec0014" fill-opacity="1"><g transform="translate(380.651008, 153.580772)"><g><path d="M 52.59375 -121.09375 L 78.796875 -121.09375 L 78.796875 -22.828125 C 78.796875 -6.359375 71.0625 1.875 55.59375 1.875 L 32.375 1.875 C 16.90625 1.875 9.171875 -6.359375 9.171875 -22.828125 L 9.171875 -121.09375 L 35.375 -121.09375 L 35.375 -20.59375 C 35.375 -19.59375 35.71875 -18.71875 36.40625 -17.96875 C 37.09375 -17.21875 37.9375 -16.84375 38.9375 -16.84375 L 49.03125 -16.84375 C 50.03125 -16.84375 50.875 -17.21875 51.5625 -17.96875 C 52.25 -18.71875 52.59375 -19.59375 52.59375 -20.59375 Z M 52.59375 -121.09375 "/></g></g></g><g fill="#ec0014" fill-opacity="1"><g transform="translate(468.053542, 153.580772)"><g><path d="M 76.546875 -89.28125 L 51.65625 -89.28125 L 51.65625 -98.828125 C 51.65625 -99.828125 51.3125 -100.695312 50.625 -101.4375 C 49.9375 -102.1875 49.097656 -102.5625 48.109375 -102.5625 L 37.8125 -102.5625 C 36.8125 -102.5625 35.96875 -102.1875 35.28125 -101.4375 C 34.59375 -100.695312 34.25 -99.828125 34.25 -98.828125 L 34.25 -77.296875 C 34.25 -76.296875 34.59375 -75.421875 35.28125 -74.671875 C 35.96875 -73.929688 36.8125 -73.5625 37.8125 -73.5625 L 54.65625 -73.5625 C 70.125 -73.3125 77.859375 -65.078125 77.859375 -48.859375 L 77.859375 -22.828125 C 77.859375 -6.359375 70.125 1.875 54.65625 1.875 L 32.5625 1.875 C 17.09375 1.875 9.359375 -6.359375 9.359375 -22.828125 L 9.359375 -35.375 L 34.25 -35.375 L 34.25 -21.90625 C 34.25 -20.90625 34.59375 -20.03125 35.28125 -19.28125 C 35.96875 -18.53125 36.8125 -18.15625 37.8125 -18.15625 L 49.40625 -18.15625 C 50.40625 -18.15625 51.25 -18.53125 51.9375 -19.28125 C 52.625 -20.03125 52.96875 -20.90625 52.96875 -21.90625 L 52.96875 -45.671875 C 52.96875 -46.671875 52.625 -47.539062 51.9375 -48.28125 C 51.25 -49.03125 50.40625 -49.40625 49.40625 -49.40625 L 32.5625 -49.40625 C 17.09375 -49.40625 9.359375 -57.644531 9.359375 -74.125 L 9.359375 -98.265625 C 9.359375 -114.734375 17.09375 -122.96875 32.5625 -122.96875 L 53.34375 -122.96875 C 68.8125 -122.96875 76.546875 -114.734375 76.546875 -98.265625 Z M 76.546875 -89.28125 "/></g></g></g><g clip-path="url(#41a4be8ab2)"><g clip-path="url(#dff32f40be)"><path fill="#ffffff" d="M 0.859375 0.75 L 188.863281 0.75 L 188.863281 188.75 L 0.859375 188.75 Z M 0.859375 0.75 " fill-opacity="1" fill-rule="nonzero"/></g></g><g clip-path="url(#962ccdd9c4)"><g clip-path="url(#06c72c8952)"><path fill="#000000" d="M 5.953125 5.839844 L 183.769531 5.839844 L 183.769531 183.660156 L 5.953125 183.660156 Z M 5.953125 5.839844 " fill-opacity="1" fill-rule="nonzero"/></g></g><g clip-path="url(#e1695380a7)"><g clip-path="url(#3686521fdc)"><path fill="#ffffff" d="M 12.46875 12.359375 L 177.253906 12.359375 L 177.253906 177.140625 L 12.46875 177.140625 Z M 12.46875 12.359375 " fill-opacity="1" fill-rule="nonzero"/></g></g><g clip-path="url(#826fbdbbe5)"><path fill="#000000" d="M 77.945312 108.527344 L 134.414062 75.929688 L 170.53125 96.78125 C 170.550781 96.105469 170.582031 95.429688 170.582031 94.75 C 170.582031 87.382812 169.511719 80.273438 167.550781 73.542969 L 134.414062 54.410156 L 134.414062 66.148438 L 77.945312 98.75 L 77.945312 75.277344 L 134.414062 42.675781 L 161.121094 58.09375 C 154.769531 46.644531 145.539062 37.019531 134.414062 30.183594 C 122.898438 23.113281 109.359375 19.03125 94.859375 19.03125 C 53.042969 19.03125 19.140625 52.929688 19.140625 94.75 C 19.140625 136.570312 53.042969 170.472656 94.859375 170.472656 C 109.367188 170.472656 122.898438 166.359375 134.414062 159.277344 C 144.320312 153.1875 152.734375 144.910156 158.9375 135.078125 L 134.414062 120.917969 L 134.414062 132.65625 L 77.945312 165.253906 L 77.945312 141.78125 L 134.414062 109.183594 L 163.769531 126.132812 C 166.386719 120.394531 168.304688 114.277344 169.421875 107.878906 L 134.414062 87.664062 L 134.414062 99.402344 L 77.945312 132 L 77.945312 108.527344 " fill-opacity="1" fill-rule="nonzero"/></g></svg>