<svg xmlns="http://www.w3.org/2000/svg" viewBox="0 0 464.87997 157.5">
    <defs>
        <clipPath id="a">
            <path d="M8 7.672h141.656v141.656H8Zm0 0" />
        </clipPath>
    </defs>
    <path d="M196.892 90.78v39.468h-21.766V29.702h21.766V71.81h17.25V29.7h21.75v100.547h-21.75V90.78ZM291.364 28.139c12.851 0 19.281 6.84 19.281 20.516v81.593H288.88V96.53h-15.687v33.718h-21.766V48.655c0-13.676 6.426-20.516 19.282-20.516Zm-18.172 51.61h15.687V46.013c0-.82-.289-1.547-.859-2.172-.562-.625-1.262-.937-2.094-.937h-9.78c-.837 0-1.54.312-2.11.937a3.153 3.153 0 0 0-.844 2.172ZM362.7 29.702h21.75v81.593c0 13.668-6.421 20.5-19.265 20.5h-19.266c-12.855 0-19.28-6.832-19.28-20.5V29.702h21.765v83.453c0 .836.281 1.562.843 2.187.57.617 1.274.922 2.11.922h8.39c.82 0 1.52-.305 2.094-.922.57-.625.86-1.351.86-2.187ZM455.162 56.123H434.49v-7.921c0-.832-.289-1.555-.86-2.172-.562-.625-1.26-.938-2.093-.938h-8.547c-.824 0-1.523.313-2.094.938a3.082 3.082 0 0 0-.859 2.172V66.06c0 .836.285 1.562.86 2.187.57.618 1.269.922 2.093.922h13.985c12.851.211 19.28 7.047 19.28 20.516v21.61c0 13.667-6.429 20.5-19.28 20.5h-18.329c-12.855 0-19.28-6.833-19.28-20.5v-10.423h20.671v11.188c0 .836.285 1.562.86 2.187.57.618 1.269.922 2.093.922h9.64c.821 0 1.52-.304 2.095-.922.57-.625.859-1.351.859-2.187V92.327c0-.82-.29-1.547-.86-2.172-.574-.625-1.273-.938-2.093-.938h-13.985c-12.855 0-19.28-6.836-19.28-20.515V48.655c0-13.676 6.425-20.516 19.28-20.516h17.25c12.844 0 19.266 6.84 19.266 20.516Zm0 0" />
    <g clip-path="url(#a)">
        <path d="m63.07 91.336 52.606-30.367 33.648 19.426c.02-.633.047-1.258.047-1.895 0-6.86-.996-13.484-2.824-19.758l-30.871-17.824v10.934L63.07 82.227V60.359l52.606-30.375 24.883 14.368a70.907 70.907 0 0 0-24.883-26.004c-10.727-6.586-23.34-10.391-36.848-10.391-38.96 0-70.543 31.582-70.543 70.543 0 38.96 31.582 70.547 70.543 70.547 13.516 0 26.121-3.832 36.848-10.43 9.23-5.672 17.07-13.387 22.847-22.547l-22.847-13.191v10.933L63.07 144.189v-21.872l52.606-30.37 27.351 15.792a69.946 69.946 0 0 0 5.266-17.004l-32.617-18.836v10.934L63.07 113.203V91.336" />
    </g>
</svg>