<svg xmlns="http://www.w3.org/2000/svg" xmlns:xlink="http://www.w3.org/1999/xlink" width="500" zoomAndPan="magnify" viewBox="0 0 375 374.999991" height="500" preserveAspectRatio="xMidYMid meet" version="1.0"><defs><g/><clipPath id="a843326b32"><path d="M 187.5 0 C 83.945312 0 0 83.945312 0 187.5 C 0 291.054688 83.945312 375 187.5 375 C 291.054688 375 375 291.054688 375 187.5 C 375 83.945312 291.054688 0 187.5 0 Z M 187.5 0 " clip-rule="nonzero"/></clipPath><clipPath id="d42cf7b40b"><path d="M 238.125 238.125 L 375 238.125 L 375 375 L 238.125 375 Z M 238.125 238.125 " clip-rule="nonzero"/></clipPath><clipPath id="2ad8074410"><path d="M 306.5625 238.125 C 268.765625 238.125 238.125 268.765625 238.125 306.5625 C 238.125 344.359375 268.765625 375 306.5625 375 C 344.359375 375 375 344.359375 375 306.5625 C 375 268.765625 344.359375 238.125 306.5625 238.125 Z M 306.5625 238.125 " clip-rule="nonzero"/></clipPath><clipPath id="ee35710895"><path d="M 255.355469 255.292969 L 357.925781 255.292969 L 357.925781 352.90625 L 255.355469 352.90625 Z M 255.355469 255.292969 " clip-rule="nonzero"/></clipPath><clipPath id="0d68ab3923"><path d="M 306.5625 255.292969 L 318.652344 292.578125 L 357.769531 292.578125 L 326.121094 315.621094 L 338.210938 352.90625 L 306.5625 329.863281 L 274.914062 352.90625 L 287.003906 315.621094 L 255.355469 292.578125 L 294.472656 292.578125 Z M 306.5625 255.292969 " clip-rule="nonzero"/></clipPath></defs><g clip-path="url(#a843326b32)"><rect x="-37.5" width="450" fill="#07485e" y="-37.499999" height="449.999989" fill-opacity="1"/></g><g fill="#e1ebf0" fill-opacity="1"><g transform="translate(111.701827, 274.579439)"><g><path d="M 78.21875 2.53125 C 65.976562 2.53125 55.09375 1.023438 45.5625 -1.984375 C 36.03125 -5.003906 28.082031 -8.96875 21.71875 -13.875 C 15.363281 -18.789062 10.5 -24.179688 7.125 -30.046875 L 26.3125 -53.46875 L 29.328125 -53.46875 C 34.640625 -45.582031 41.378906 -39.304688 49.546875 -34.640625 C 57.710938 -29.972656 67.269531 -27.640625 78.21875 -27.640625 C 87.550781 -27.640625 94.585938 -29.609375 99.328125 -33.546875 C 104.078125 -37.492188 106.453125 -42.925781 106.453125 -49.84375 C 106.453125 -54.03125 105.6875 -57.53125 104.15625 -60.34375 C 102.632812 -63.164062 100.101562 -65.582031 96.5625 -67.59375 C 93.019531 -69.601562 88.226562 -71.332031 82.1875 -72.78125 L 59.5 -77.96875 C 43.644531 -81.59375 31.835938 -87.609375 24.078125 -96.015625 C 16.316406 -104.421875 12.4375 -115.34375 12.4375 -128.78125 C 12.4375 -138.757812 14.925781 -147.53125 19.90625 -155.09375 C 24.894531 -162.65625 32.15625 -168.53125 41.6875 -172.71875 C 51.226562 -176.90625 62.640625 -179 75.921875 -179 C 89.515625 -179 101.160156 -177.207031 110.859375 -173.625 C 120.554688 -170.039062 128.742188 -164.546875 135.421875 -157.140625 L 118.15625 -133.484375 L 115.140625 -133.484375 C 110.148438 -138.722656 104.4375 -142.648438 98 -145.265625 C 91.5625 -147.878906 84.203125 -149.1875 75.921875 -149.1875 C 66.347656 -149.1875 59.066406 -147.492188 54.078125 -144.109375 C 49.085938 -140.734375 46.59375 -136.066406 46.59375 -130.109375 C 46.59375 -124.554688 48.34375 -120.128906 51.84375 -116.828125 C 55.34375 -113.535156 61.394531 -110.960938 70 -109.109375 L 93.171875 -104.28125 C 110.316406 -100.65625 122.75 -94.519531 130.46875 -85.875 C 138.195312 -77.226562 142.0625 -65.941406 142.0625 -52.015625 C 142.0625 -40.992188 139.6875 -31.398438 134.9375 -23.234375 C 130.1875 -15.066406 123.023438 -8.726562 113.453125 -4.21875 C 103.878906 0.28125 92.132812 2.53125 78.21875 2.53125 Z M 78.21875 2.53125 "/></g></g></g><g clip-path="url(#d42cf7b40b)"><g clip-path="url(#2ad8074410)"><path fill="#eb6e0e" d="M 238.125 238.125 L 375 238.125 L 375 375 L 238.125 375 Z M 238.125 238.125 " fill-opacity="1" fill-rule="nonzero"/><path stroke-linecap="butt" transform="matrix(0.75, 0, 0, 0.75, 238.124989, 238.124984)" fill="none" stroke-linejoin="miter" d="M 91.250021 0.0000208492 C 40.854184 0.0000208492 0.0000148492 40.85419 0.0000148492 91.250027 C 0.0000148492 141.645863 40.854184 182.500033 91.250021 182.500033 C 141.645857 182.500033 182.500027 141.645863 182.500027 91.250027 C 182.500027 40.85419 141.645857 0.0000208492 91.250021 0.0000208492 Z M 91.250021 0.0000208492 " stroke="#ffffff" stroke-width="16" stroke-opacity="1" stroke-miterlimit="4"/></g></g><g clip-path="url(#ee35710895)"><g clip-path="url(#0d68ab3923)"><path fill="#ffffff" d="M 255.355469 255.292969 L 357.925781 255.292969 L 357.925781 352.90625 L 255.355469 352.90625 Z M 255.355469 255.292969 " fill-opacity="1" fill-rule="nonzero"/></g></g></svg>