<svg xmlns="http://www.w3.org/2000/svg" version="1.0" viewBox="0 0 375 374.999991">
  <path fill="#cbd5e1" d="M234.375 265.625c0 1.535156-.074219 3.066406-.226562 4.597656-.148438 1.527344-.375 3.042969-.675782 4.546875-.296875 1.507813-.671875 2.996094-1.117187 4.464844-.445313 1.46875-.960938 2.910156-1.546875 4.332031-.589844 1.417969-1.246094 2.804688-1.96875 4.15625-.722656 1.355469-1.511719 2.667969-2.363282 3.945313-.855468 1.277343-1.769531 2.507812-2.742187 3.695312s-2.003906 2.324219-3.089844 3.410157c-1.085937 1.085937-2.21875 2.113281-3.40625 3.089843-1.1875.972657-2.417969 1.886719-3.695312 2.738281-1.277344.851563-2.59375 1.640626-3.945313 2.363282-1.355468.726562-2.742187 1.382812-4.160156 1.96875-1.417969.585937-2.859375 1.105468-4.332031 1.550781-1.46875.445313-2.953125.816406-4.460938 1.117187-1.503906.296876-3.023437.523438-4.550781.675782-1.527344.148437-3.058594.222656-4.59375.222656-1.535156 0-3.066406-.074219-4.59375-.222656-1.527344-.152344-3.046875-.378906-4.550781-.675782-1.507813-.300781-2.992188-.671874-4.460938-1.117187-1.472656-.445313-2.914062-.964844-4.332031-1.550781-1.417969-.585938-2.804688-1.242188-4.160156-1.96875-1.351563-.722656-2.667969-1.511719-3.945313-2.363282-1.277343-.851562-2.507812-1.765624-3.695312-2.738281-1.1875-.976562-2.320313-2.003906-3.40625-3.089843-1.085938-1.085938-2.117188-2.222657-3.089844-3.410157-.972656-1.1875-1.886719-2.417969-2.742187-3.695312-.851563-1.277344-1.640626-2.589844-2.363282-3.945313-.722656-1.351562-1.378906-2.738281-1.96875-4.15625-.585937-1.421875-1.101562-2.863281-1.546875-4.332031-.445312-1.46875-.820312-2.957031-1.117187-4.464844-.300782-1.503906-.527344-3.019531-.675782-4.546875-.152343-1.53125-.226562-3.0625-.226562-4.597656 0-1.535156.074219-3.066406.226562-4.59375.148438-1.527344.375-3.042969.675782-4.550781.296875-1.503907.671875-2.992188 1.117187-4.460938.445313-1.46875.960938-2.914062 1.546875-4.332031.589844-1.417969 1.246094-2.804688 1.96875-4.15625.722656-1.355469 1.511719-2.671875 2.363282-3.945312.855468-1.277344 1.769531-2.511719 2.742187-3.695313.972656-1.1875 2.003906-2.324219 3.089844-3.410156 1.085937-1.085938 2.21875-2.113281 3.40625-3.089844 1.1875-.972656 2.417969-1.886719 3.695312-2.738281 1.277344-.855469 2.59375-1.640625 3.945313-2.367188 1.355468-.722656 2.742187-1.378906 4.160156-1.964844 1.417969-.589843 2.859375-1.105468 4.332031-1.550781 1.46875-.445312 2.953125-.816406 4.460938-1.117187 1.503906-.300782 3.023437-.523438 4.550781-.675782 1.527344-.148437 3.058594-.226562 4.59375-.226562 1.535156 0 3.066406.078125 4.59375.226562 1.527344.152344 3.046875.375 4.550781.675782 1.507813.300781 2.992188.671875 4.460938 1.117187 1.472656.445313 2.914062.960938 4.332031 1.550781 1.417969.585938 2.804688 1.242188 4.160156 1.964844 1.351563.726563 2.667969 1.511719 3.945313 2.367188 1.277343.851562 2.507812 1.765625 3.695312 2.738281 1.1875.976563 2.320313 2.003906 3.40625 3.089844 1.085938 1.085937 2.117188 2.222656 3.089844 3.410156.972656 1.183594 1.886719 2.417969 2.742187 3.695313.851563 1.273437 1.640626 2.589843 2.363282 3.945312.722656 1.351562 1.378906 2.738281 1.96875 4.15625.585937 1.417969 1.101562 2.863281 1.546875 4.332031.445312 1.46875.820312 2.957031 1.117187 4.460938.300782 1.507812.527344 3.023437.675782 4.550781.152343 1.527344.226562 3.058594.226562 4.59375ZM125 46.875c0 1.535156-.074219 3.066406-.222656 4.59375-.152344 1.527344-.378906 3.046875-.675782 4.550781-.300781 1.507813-.671874 2.992188-1.117187 4.460938-.445313 1.472656-.964844 2.914062-1.550781 4.332031-.585938 1.417969-1.242188 2.804688-1.96875 4.160156-.722656 1.351563-1.511719 2.667969-2.363282 3.945313-.851562 1.277343-1.765624 2.507812-2.738281 3.695312-.976562 1.1875-2.003906 2.320313-3.089843 3.40625-1.085938 1.085938-2.222657 2.117188-3.410157 3.089844-1.1875.972656-2.417969 1.886719-3.695312 2.742187-1.277344.851563-2.589844 1.640626-3.945313 2.363282-1.351562.722656-2.738281 1.378906-4.15625 1.96875-1.421875.585937-2.863281 1.101562-4.332031 1.546875-1.46875.445312-2.957031.820312-4.464844 1.117187-1.503906.300782-3.019531.527344-4.546875.675782-1.53125.152343-3.0625.226562-4.597656.226562-1.535156 0-3.066406-.074219-4.59375-.226562-1.527344-.148438-3.042969-.375-4.550781-.675782-1.503907-.296875-2.992188-.671875-4.460938-1.117187-1.46875-.445313-2.914062-.960938-4.332031-1.546875-1.417969-.589844-2.804688-1.246094-4.15625-1.96875-1.355469-.722656-2.671875-1.511719-3.945312-2.363282-1.277344-.855468-2.511719-1.769531-3.695313-2.742187-1.1875-.972656-2.324219-2.003906-3.410156-3.089844-1.085938-1.085937-2.113281-2.21875-3.089844-3.40625-.972656-1.1875-1.886719-2.417969-2.738281-3.695312-.855469-1.277344-1.640625-2.59375-2.367188-3.945313-.722656-1.355468-1.378906-2.742187-1.964844-4.160156-.589843-1.417969-1.105468-2.859375-1.550781-4.332031-.445312-1.46875-.816406-2.953125-1.117187-4.460938-.300782-1.503906-.523438-3.023437-.675782-4.550781C31.328125 49.941406 31.25 48.410156 31.25 46.875c0-1.535156.078125-3.066406.226562-4.59375.152344-1.527344.375-3.046875.675782-4.550781.300781-1.507813.671875-2.992188 1.117187-4.460938.445313-1.472656.960938-2.914062 1.550781-4.332031.585938-1.417969 1.242188-2.804688 1.964844-4.160156.726563-1.351563 1.511719-2.667969 2.367188-3.945313.851562-1.277343 1.765625-2.507812 2.738281-3.695312.976563-1.1875 2.003906-2.320313 3.089844-3.40625 1.085937-1.085938 2.222656-2.117188 3.410156-3.089844 1.183594-.972656 2.417969-1.886719 3.695313-2.742187 1.273437-.851563 2.589843-1.640626 3.945312-2.363282 1.351562-.722656 2.738281-1.378906 4.15625-1.96875 1.417969-.585937 2.863281-1.101562 4.332031-1.546875 1.46875-.445312 2.957031-.820312 4.460938-1.117187C70.488281.601562 72.003906.375 73.53125.226562 75.058594.0742188 76.589844 0 78.125 0c1.535156 0 3.066406.0742188 4.597656.226562C84.25.375 85.765625.601562 87.269531.902344c1.507813.296875 2.996094.671875 4.464844 1.117187 1.46875.445313 2.910156.960938 4.332031 1.546875 1.417969.589844 2.804688 1.246094 4.15625 1.96875 1.355469.722656 2.667969 1.511719 3.945313 2.363282 1.277343.855468 2.507812 1.769531 3.695312 2.742187s2.324219 2.003906 3.410157 3.089844c1.085937 1.085937 2.113281 2.21875 3.089843 3.40625.972657 1.1875 1.886719 2.417969 2.738281 3.695312.851563 1.277344 1.640626 2.59375 2.363282 3.945313.726562 1.355468 1.382812 2.742187 1.96875 4.160156.585937 1.417969 1.105468 2.859375 1.550781 4.332031.445313 1.46875.816406 2.953125 1.117187 4.460938.296876 1.503906.523438 3.023437.675782 4.550781C124.925781 43.808594 125 45.339844 125 46.875ZM109.375 109.375h-62.5C20.996094 109.375 0 130.367188 0 156.25h156.25c0-25.875-20.996094-46.875-46.875-46.875ZM328.125 109.375h-62.5c-25.878906 0-46.875 20.992188-46.875 46.875H375c0-25.875-20.996094-46.875-46.875-46.875ZM218.75 328.125h-62.5c-25.882812 0-46.875 20.996094-46.875 46.875h156.246094c.003906-25.878906-20.988282-46.875-46.871094-46.875ZM343.75 46.875c0 1.535156-.078125 3.066406-.226562 4.59375-.152344 1.527344-.375 3.046875-.675782 4.550781-.300781 1.507813-.671875 2.992188-1.117187 4.460938-.445313 1.472656-.960938 2.914062-1.550781 4.332031-.585938 1.417969-1.242188 2.804688-1.964844 4.160156-.726563 1.351563-1.511719 2.667969-2.367188 3.945313-.851562 1.277343-1.765625 2.507812-2.738281 3.695312-.976563 1.1875-2.003906 2.320313-3.089844 3.40625-1.085937 1.085938-2.222656 2.117188-3.410156 3.089844-1.183594.972656-2.417969 1.886719-3.695313 2.742187-1.273437.851563-2.589843 1.640626-3.945312 2.363282-1.351562.722656-2.738281 1.378906-4.15625 1.96875-1.417969.585937-2.863281 1.101562-4.332031 1.546875-1.46875.445312-2.957031.820312-4.460938 1.117187-1.507812.300782-3.023437.527344-4.550781.675782-1.527344.152343-3.058594.226562-4.59375.226562-1.535156 0-3.066406-.074219-4.597656-.226562-1.527344-.148438-3.042969-.375-4.546875-.675782-1.507813-.296875-2.996094-.671875-4.464844-1.117187-1.46875-.445313-2.914063-.960938-4.332031-1.546875-1.417969-.589844-2.804688-1.246094-4.15625-1.96875-1.355469-.722656-2.667969-1.511719-3.945313-2.363282-1.277343-.855468-2.507812-1.769531-3.695312-2.742187s-2.324219-2.003906-3.410157-3.089844c-1.085937-1.085937-2.113281-2.21875-3.089843-3.40625-.972657-1.1875-1.886719-2.417969-2.738281-3.695312-.851563-1.277344-1.640626-2.59375-2.363282-3.945313-.726562-1.355468-1.382812-2.742187-1.96875-4.160156-.585937-1.417969-1.105468-2.859375-1.550781-4.332031-.445313-1.46875-.816406-2.953125-1.117187-4.460938-.300782-1.503906-.523438-3.023437-.675782-4.550781C250.074219 49.941406 250 48.410156 250 46.875c0-1.535156.074219-3.066406.222656-4.59375.152344-1.527344.375-3.046875.675782-4.550781.300781-1.507813.671874-2.992188 1.117187-4.460938.445313-1.472656.964844-2.914062 1.550781-4.332031.585938-1.417969 1.242188-2.804688 1.96875-4.160156.722656-1.351563 1.511719-2.667969 2.363282-3.945313.851562-1.277343 1.765624-2.507812 2.738281-3.695312.976562-1.1875 2.003906-2.320313 3.089843-3.40625 1.085938-1.085938 2.222657-2.117188 3.410157-3.089844 1.1875-.972656 2.417969-1.886719 3.695312-2.742187 1.277344-.851563 2.589844-1.640626 3.945313-2.363282 1.351562-.722656 2.738281-1.378906 4.15625-1.96875 1.417968-.585937 2.863281-1.101562 4.332031-1.546875 1.46875-.445312 2.957031-.820312 4.464844-1.117187C289.234375.601562 290.75.375 292.277344.226562 293.808594.0742188 295.339844 0 296.875 0c1.535156 0 3.066406.0742188 4.59375.226562 1.527344.148438 3.042969.375 4.550781.675782 1.503907.296875 2.992188.671875 4.460938 1.117187 1.46875.445313 2.914062.960938 4.332031 1.546875 1.417969.589844 2.804688 1.246094 4.15625 1.96875 1.355469.722656 2.671875 1.511719 3.945312 2.363282 1.277344.855468 2.511719 1.769531 3.695313 2.742187 1.1875.972656 2.324219 2.003906 3.410156 3.089844 1.085938 1.085937 2.113281 2.21875 3.089844 3.40625.972656 1.1875 1.886719 2.417969 2.738281 3.695312.855469 1.277344 1.640625 2.59375 2.367188 3.945313.722656 1.355468 1.378906 2.742187 1.964844 4.160156.589843 1.417969 1.105468 2.859375 1.550781 4.332031.445312 1.46875.816406 2.953125 1.117187 4.460938.300782 1.503906.523438 3.023437.675782 4.550781.148437 1.527344.226562 3.058594.226562 4.59375ZM78.125 281.25v-46.875H93.75L62.484375 187.5 31.25 234.375h15.625V312.5h62.5v-31.25ZM296.875 281.25v-46.875H281.25l31.265625-46.875L343.75 234.375h-15.625V312.5h-62.5v-31.25Zm0 0"/>
</svg>
