<svg xmlns="http://www.w3.org/2000/svg" version="1.0" viewBox="0 0 375 374.999991">
  <defs>
    <clipPath id="a">
      <path d="M16.878906 110.882812h153.988282v153.988282H16.878906Zm0 0"/>
    </clipPath>
    <clipPath id="b">
      <path d="M93.875 110.882812c-42.523438 0-76.996094 34.472657-76.996094 76.996094 0 42.523438 34.472656 76.992188 76.996094 76.992188s76.992188-34.46875 76.992188-76.992188c0-42.523437-34.46875-76.996094-76.992188-76.996094Zm0 0"/>
    </clipPath>
    <clipPath id="c">
      <path d="M234.230469 275.589844H327.375v93.144531h-93.144531Zm0 0"/>
    </clipPath>
    <clipPath id="d">
      <path d="M280.800781 275.589844c-25.71875 0-46.570312 20.851562-46.570312 46.574218 0 25.71875 20.851562 46.570313 46.570312 46.570313 25.722657 0 46.574219-20.851563 46.574219-46.570313 0-25.722656-20.851562-46.574218-46.574219-46.574218Zm0 0"/>
    </clipPath>
    <clipPath id="e">
      <path d="M275.527344 140.835938h93.140625v93.140624h-93.140625Zm0 0"/>
    </clipPath>
    <clipPath id="f">
      <path d="M322.097656 140.835938c-25.71875 0-46.570312 20.847656-46.570312 46.570312s20.851562 46.570312 46.570312 46.570312c25.722656 0 46.570313-20.847656 46.570313-46.570312s-20.847657-46.570312-46.570313-46.570312Zm0 0"/>
    </clipPath>
    <clipPath id="g">
      <path d="M234.230469 8.25H327.375v93.144531h-93.144531Zm0 0"/>
    </clipPath>
    <clipPath id="h">
      <path d="M280.800781 8.25c-25.71875 0-46.570312 20.851562-46.570312 46.574219 0 25.71875 20.851562 46.570312 46.570312 46.570312 25.722657 0 46.574219-20.851562 46.574219-46.570312C327.375 29.101562 306.523438 8.25 280.800781 8.25Zm0 0"/>
    </clipPath>
  </defs>
  <g clip-path="url(#a)">
    <g clip-path="url(#b)">
      <path fill="#64748b" d="M16.878906 110.882812h153.988282v153.988282H16.878906Zm0 0"/>
    </g>
  </g>
  <g clip-path="url(#c)">
    <g clip-path="url(#d)">
      <path fill="#64748b" d="M234.230469 275.589844H327.375v93.144531h-93.144531Zm0 0"/>
    </g>
  </g>
  <g clip-path="url(#e)">
    <g clip-path="url(#f)">
      <path fill="#64748b" d="M275.527344 140.835938h93.140625v93.140624h-93.140625Zm0 0"/>
    </g>
  </g>
  <g clip-path="url(#g)">
    <g clip-path="url(#h)">
      <path fill="#64748b" d="M234.230469 8.25H327.375v93.144531h-93.144531Zm0 0"/>
    </g>
  </g>
  <path fill="#cbd5e1" d="M93.75 93.75C42.054688 93.75 0 135.816406 0 187.5c0 51.703125 42.054688 93.75 93.75 93.75 51.699219 0 93.75-42.046875 93.75-93.75 0-51.683594-42.050781-93.75-93.75-93.75Zm0 156.253906c-34.460938 0-62.5-28.03125-62.5-62.503906 0-34.457031 28.039062-62.5 62.5-62.5s62.5 28.042969 62.5 62.5c0 34.472656-28.039062 62.503906-62.5 62.503906Zm0 0"/>
  <path fill="#cbd5e1" d="M279.328125 265.621094c-13.078125 0-24.929687 4.800781-34.332031 12.449218l-67.300782-48.890624c-4.6875 9.410156-10.910156 17.917968-18.335937 25.207031l-.050781.070312 68.109375 49.480469c-1.660157 5.195312-2.785157 10.632812-2.785157 16.382812C224.640625 350.527344 249.121094 375 279.328125 375c30.210937 0 54.6875-24.472656 54.6875-54.683594 0-30.199218-24.476563-54.695312-54.6875-54.695312Zm0 78.132812c-12.921875 0-23.4375-10.515625-23.4375-23.4375 0-12.929687 10.515625-23.4375 23.4375-23.4375s23.4375 10.507813 23.4375 23.4375c0 12.921875-10.515625 23.4375-23.4375 23.4375ZM320.316406 132.8125c-24.738281 0-45.386718 16.53125-52.160156 39.058594h-81.988281C187.027344 176.957031 187.5 182.175781 187.5 187.5c0 5.324219-.472656 10.542969-1.328125 15.628906h81.984375c6.761719 22.535156 27.421875 39.054688 52.160156 39.054688C350.511719 242.183594 375 217.710938 375 187.5c0-30.195312-24.488281-54.6875-54.683594-54.6875Zm0 78.125c-12.929687 0-23.4375-10.515625-23.4375-23.4375s10.507813-23.4375 23.4375-23.4375c12.921875 0 23.4375 10.515625 23.4375 23.4375s-10.515625 23.4375-23.4375 23.4375ZM279.328125 0c-30.195313 0-54.6875 24.488281-54.6875 54.6875 0 5.75 1.128906 11.179688 2.777344 16.382812l-68.117188 49.472657.050781.074219C166.78125 127.90625 173 136.421875 177.6875 145.824219l67.304688-48.902344c9.417968 7.660156 21.25 12.453125 34.320312 12.453125 30.210938 0 54.699219-24.484375 54.699219-54.691406C334.015625 24.488281 309.539062 0 279.328125 0Zm0 78.125c-12.921875 0-23.4375-10.507812-23.4375-23.4375 0-12.921875 10.515625-23.4375 23.4375-23.4375s23.4375 10.515625 23.4375 23.4375c0 12.925781-10.515625 23.4375-23.4375 23.4375Zm0 0"/>
</svg>
