<svg xmlns="http://www.w3.org/2000/svg" xmlns:xlink="http://www.w3.org/1999/xlink" width="500" zoomAndPan="magnify" viewBox="0 0 375 374.999991" height="500" preserveAspectRatio="xMidYMid meet" version="1.0"><defs><clipPath id="d7bca98d46"><path d="M 5.355469 9 L 181 9 L 181 307 L 5.355469 307 Z M 5.355469 9 " clip-rule="nonzero"/></clipPath><clipPath id="55521275b2"><path d="M 73 189 L 369.855469 189 L 369.855469 366 L 73 366 Z M 73 189 " clip-rule="nonzero"/></clipPath></defs><g clip-path="url(#d7bca98d46)"><path fill="#004aad" d="M 159.9375 9.820312 L 26.027344 9.820312 C 14.675781 9.820312 5.355469 19.117188 5.355469 30.507812 L 5.355469 285.558594 C 5.355469 296.945312 14.675781 306.238281 26.027344 306.238281 L 159.933594 306.238281 C 171.316406 306.238281 180.59375 296.945312 180.59375 285.558594 L 180.59375 30.507812 C 180.59375 19.117188 171.320312 9.820312 159.9375 9.820312 Z M 159.9375 9.820312 " fill-opacity="1" fill-rule="nonzero"/></g><path fill="#e8f2f4" d="M 17.0625 54.640625 L 168.890625 54.640625 L 168.890625 261.429688 L 17.0625 261.429688 Z M 17.0625 54.640625 " fill-opacity="1" fill-rule="nonzero"/><path fill="#e8f2f4" d="M 102.851562 32.246094 C 102.851562 37.710938 98.453125 42.109375 92.972656 42.109375 C 87.523438 42.109375 83.105469 37.710938 83.105469 32.246094 C 83.105469 26.796875 87.523438 22.347656 92.972656 22.347656 C 98.453125 22.351562 102.851562 26.800781 102.851562 32.246094 Z M 102.851562 32.246094 " fill-opacity="1" fill-rule="nonzero"/><path fill="#e8f2f4" d="M 112.734375 283.828125 C 112.734375 279.953125 109.558594 276.769531 105.679688 276.769531 L 80.269531 276.769531 C 76.386719 276.769531 73.214844 279.949219 73.214844 283.828125 C 73.214844 287.710938 76.386719 290.890625 80.269531 290.890625 L 105.679688 290.890625 C 109.558594 290.890625 112.734375 287.710938 112.734375 283.828125 Z M 112.734375 283.828125 " fill-opacity="1" fill-rule="nonzero"/><path fill="#004aad" d="M 125.039062 154.367188 C 116.832031 162.5625 105.496094 167.625 92.976562 167.625 C 67.953125 167.625 47.652344 147.324219 47.652344 122.300781 C 47.652344 103.402344 59.210938 87.207031 75.648438 80.410156 L 92.976562 122.300781 Z M 125.039062 154.367188 " fill-opacity="1" fill-rule="nonzero"/><path fill="#7cc644" d="M 138.320312 122.289062 L 92.984375 122.289062 L 92.984375 76.957031 C 118.015625 76.957031 138.320312 97.257812 138.320312 122.289062 Z M 138.320312 122.289062 " fill-opacity="1" fill-rule="nonzero"/><path fill="#e8f2f4" d="M 138.320312 122.289062 C 138.320312 134.8125 133.25 146.140625 125.039062 154.355469 L 92.980469 122.289062 Z M 138.320312 122.289062 " fill-opacity="1" fill-rule="nonzero"/><path fill="#6fa4dc" d="M 92.976562 76.957031 L 92.976562 122.300781 L 75.648438 80.410156 C 80.980469 78.175781 86.847656 76.957031 92.976562 76.957031 Z M 92.976562 76.957031 " fill-opacity="1" fill-rule="nonzero"/><path fill="#6fa4dc" d="M 27.03125 189.941406 L 63.242188 189.941406 L 63.242188 197.183594 L 27.03125 197.183594 Z M 27.03125 189.941406 " fill-opacity="1" fill-rule="nonzero"/><path fill="#6fa4dc" d="M 27.03125 204.425781 L 45.136719 204.425781 L 45.136719 211.667969 L 27.03125 211.667969 Z M 27.03125 204.425781 " fill-opacity="1" fill-rule="nonzero"/><path fill="#7cc644" d="M 27.03125 175.457031 L 34.269531 175.457031 L 34.269531 182.699219 L 27.03125 182.699219 Z M 27.03125 175.457031 " fill-opacity="1" fill-rule="nonzero"/><path fill="#6fa4dc" d="M 41.515625 175.457031 L 48.757812 175.457031 L 48.757812 182.699219 L 41.515625 182.699219 Z M 41.515625 175.457031 " fill-opacity="1" fill-rule="nonzero"/><path fill="#004aad" d="M 56 175.457031 L 63.238281 175.457031 L 63.238281 182.699219 L 56 182.699219 Z M 56 175.457031 " fill-opacity="1" fill-rule="nonzero"/><path fill="#004aad" d="M 126.992188 132.726562 L 149.660156 132.726562 L 149.660156 139.96875 L 126.992188 139.96875 Z M 126.992188 132.726562 " fill-opacity="1" fill-rule="nonzero"/><path fill="#6fa4dc" d="M 199.339844 76.957031 L 324.828125 76.957031 L 324.828125 139.703125 L 199.339844 139.703125 Z M 199.339844 76.957031 " fill-opacity="1" fill-rule="nonzero"/><path fill="#e8f2f4" d="M 209.796875 87.414062 L 314.371094 87.414062 L 314.371094 108.328125 L 209.796875 108.328125 Z M 209.796875 87.414062 " fill-opacity="1" fill-rule="nonzero"/><path fill="#004aad" d="M 209.796875 118.785156 L 241.167969 118.785156 L 241.167969 129.246094 L 209.796875 129.246094 Z M 209.796875 118.785156 " fill-opacity="1" fill-rule="nonzero"/><path fill="#7cc644" d="M 251.625 118.785156 L 282.996094 118.785156 L 282.996094 129.246094 L 251.625 129.246094 Z M 251.625 118.785156 " fill-opacity="1" fill-rule="nonzero"/><g clip-path="url(#55521275b2)"><path fill="#004aad" d="M 73.214844 210.597656 L 73.214844 344.511719 C 73.214844 355.867188 82.507812 365.179688 93.902344 365.179688 L 348.953125 365.179688 C 360.339844 365.179688 369.632812 355.867188 369.632812 344.511719 L 369.632812 210.597656 C 369.632812 199.21875 360.339844 189.945312 348.953125 189.945312 L 93.902344 189.945312 C 82.511719 189.941406 73.214844 199.21875 73.214844 210.597656 Z M 73.214844 210.597656 " fill-opacity="1" fill-rule="nonzero"/></g><path fill="#e8f2f4" d="M 118.035156 201.644531 L 324.832031 201.644531 L 324.832031 353.476562 L 118.035156 353.476562 Z M 118.035156 201.644531 " fill-opacity="1" fill-rule="nonzero"/><path fill="#e8f2f4" d="M 95.644531 267.679688 C 101.109375 267.679688 105.507812 272.082031 105.507812 277.558594 C 105.507812 283.011719 101.109375 287.433594 95.644531 287.433594 C 90.195312 287.433594 85.746094 283.011719 85.746094 277.558594 C 85.742188 272.082031 90.195312 267.679688 95.644531 267.679688 Z M 95.644531 267.679688 " fill-opacity="1" fill-rule="nonzero"/><path fill="#e8f2f4" d="M 347.226562 257.800781 C 343.351562 257.800781 340.167969 260.976562 340.167969 264.859375 L 340.167969 290.269531 C 340.167969 294.144531 343.347656 297.324219 347.226562 297.324219 C 351.105469 297.324219 354.285156 294.148438 354.285156 290.269531 L 354.285156 264.859375 C 354.28125 260.976562 351.105469 257.800781 347.226562 257.800781 Z M 347.226562 257.800781 " fill-opacity="1" fill-rule="nonzero"/><path fill="#6fa4dc" d="M 304.492188 243.738281 L 294.6875 248.210938 L 284.902344 268.914062 L 275.105469 270.75 L 265.296875 281.378906 L 255.523438 276.679688 L 244.117188 266.871094 L 235.910156 280.171875 L 226.109375 287.046875 L 216.304688 278.558594 L 206.527344 285.949219 L 196.722656 289.292969 L 186.921875 309.628906 L 177.140625 315.832031 L 167.335938 305.925781 L 157.535156 301.496094 L 147.730469 320.277344 L 137.925781 316.214844 L 128.148438 325.378906 L 118.035156 326.855469 L 118.035156 353.347656 L 324.828125 353.476562 L 324.828125 219.980469 L 314.296875 226.097656 Z M 304.492188 243.738281 " fill-opacity="1" fill-rule="nonzero"/><path fill="#e8f2f4" d="M 304.492188 293.746094 L 294.6875 296.195312 L 284.902344 307.4375 L 275.105469 308.460938 L 265.296875 315.902344 L 255.523438 311.695312 L 244.117188 303.007812 L 235.910156 313.597656 L 226.109375 317.34375 L 216.304688 312.679688 L 206.527344 316.710938 L 196.722656 318.542969 L 186.921875 329.605469 L 177.140625 334.65625 L 167.335938 327.601562 L 157.535156 325.179688 L 147.730469 335.40625 L 137.925781 333.195312 L 128.148438 338.996094 L 118.035156 340.667969 L 118.035156 353.410156 L 324.828125 353.476562 L 324.828125 280.789062 L 314.296875 284.972656 Z M 304.492188 293.746094 " fill-opacity="1" fill-rule="nonzero"/><path fill="#7cc644" d="M 304.492188 317.871094 L 294.6875 319.296875 L 284.902344 326.007812 L 275.105469 326.609375 L 265.296875 331.09375 L 255.523438 328.550781 L 244.117188 323.375 L 235.910156 329.703125 L 226.109375 331.921875 L 216.304688 329.152344 L 206.527344 331.5625 L 196.722656 332.664062 L 186.921875 339.230469 L 177.140625 342.265625 L 167.335938 338.03125 L 157.535156 336.59375 L 147.730469 342.695312 L 137.925781 341.351562 L 128.148438 344.867188 L 118.035156 345.832031 L 118.035156 353.425781 L 324.828125 353.476562 L 324.828125 310.101562 L 314.296875 312.597656 Z M 304.492188 317.871094 " fill-opacity="1" fill-rule="nonzero"/><path fill="#004aad" d="M 131.382812 214.992188 L 183.691406 214.992188 L 183.691406 251.203125 L 131.382812 251.203125 Z M 131.382812 214.992188 " fill-opacity="1" fill-rule="nonzero"/><path fill="#004aad" d="M 163.296875 251.203125 L 157.535156 261.183594 L 151.769531 251.203125 Z M 163.296875 251.203125 " fill-opacity="1" fill-rule="nonzero"/><path fill="#6fa4dc" d="M 190.933594 214.992188 L 243.246094 214.992188 L 243.246094 222.234375 L 190.933594 222.234375 Z M 190.933594 214.992188 " fill-opacity="1" fill-rule="nonzero"/><path fill="#6fa4dc" d="M 190.933594 229.472656 L 243.246094 229.472656 L 243.246094 236.714844 L 190.933594 236.714844 Z M 190.933594 229.472656 " fill-opacity="1" fill-rule="nonzero"/><path fill="#6fa4dc" d="M 190.933594 243.960938 L 217.089844 243.960938 L 217.089844 251.203125 L 190.933594 251.203125 Z M 190.933594 243.960938 " fill-opacity="1" fill-rule="nonzero"/></svg>