<svg xmlns="http://www.w3.org/2000/svg" version="1.0" viewBox="0 0 375 374.999991">
  <defs>
    <clipPath id="a">
      <path d="M18.09375 141.347656h121.519531v215.03125H18.09375Zm0 0"/>
    </clipPath>
    <clipPath id="b">
      <path d="M20.34375 141.347656h117.019531c.597657 0 1.167969.238282 1.589844.660156.421875.421876.660156.996094.660156 1.589844v210.328125c0 .597657-.238281 1.167969-.660156 1.589844s-.992187.660156-1.589844.660156H20.34375c-.597656 0-1.167969-.238281-1.589844-.660156s-.660156-.992187-.660156-1.589844V143.597656c0-.59375.238281-1.167968.660156-1.589844.421875-.421874.992188-.660156 1.589844-.660156Zm0 0"/>
    </clipPath>
    <clipPath id="c">
      <path d="M2.472656 125H157v247.222656H2.472656Zm0 0"/>
    </clipPath>
    <clipPath id="d">
      <path d="M33 2.472656h339.222656v369.75H33Zm0 0"/>
    </clipPath>
  </defs>
  <g clip-path="url(#a)">
    <g clip-path="url(#b)">
      <path fill="#cbd5e1" d="M18.09375 141.347656h121.519531v215.03125H18.09375Zm0 0"/>
    </g>
  </g>
  <path fill="#64748b" d="M94.984375 310.851562c0 1.011719-.097656 2.015626-.296875 3.007813-.195312.992187-.488281 1.957031-.875 2.894531-.386719.933594-.863281 1.820313-1.425781 2.664063-.5625.839843-1.199219 1.621093-1.917969 2.335937-.714844.714844-1.492188 1.355469-2.335938 1.917969-.839843.5625-1.730468 1.035156-2.664062 1.425781-.9375.386719-1.898438.679688-2.894531.875-.992188.199219-1.992188.296875-3.007813.296875-1.011718 0-2.011718-.097656-3.007812-.296875-.992188-.195312-1.957032-.488281-2.890625-.875-.933594-.390625-1.824219-.863281-2.664063-1.425781-.84375-.5625-1.621094-1.203125-2.335937-1.917969-.71875-.714844-1.355469-1.496094-1.917969-2.335937-.5625-.84375-1.039062-1.730469-1.425781-2.664063-.386719-.9375-.679688-1.902344-.878907-2.894531-.195312-.992187-.292968-1.996094-.292968-3.007813 0-1.011718.097656-2.015624.292968-3.007812.199219-.992188.492188-1.957031.878907-2.890625.386719-.9375.863281-1.824219 1.425781-2.667969.5625-.839844 1.199219-1.617187 1.917969-2.335937.714843-.714844 1.492187-1.355469 2.335937-1.917969.839844-.5625 1.730469-1.035156 2.664063-1.421875.933593-.386719 1.898437-.679687 2.890625-.878906.996094-.195313 1.996094-.296875 3.007812-.296875 1.015625 0 2.015625.101562 3.007813.296875.996093.199219 1.957031.492187 2.894531.878906.933594.386719 1.824219.859375 2.664062 1.421875.84375.5625 1.621094 1.203125 2.335938 1.917969.71875.71875 1.355469 1.496093 1.917969 2.335937.5625.84375 1.039062 1.730469 1.425781 2.667969.386719.933594.679688 1.898437.875 2.890625.199219.992188.296875 1.996094.296875 3.007812Zm0 0"/>
  <g clip-path="url(#c)">
    <path fill="#64748b" d="M156.65625 156.660156c0-16.953125-13.878906-30.839844-30.835938-30.839844H33.304688c-16.957032.003907-30.832032 13.886719-30.832032 30.839844V341.6875c0 16.957031 13.875 30.839844 30.839844 30.839844h92.507812c16.957032 0 30.839844-13.878906 30.839844-30.835938ZM125.824219 341.6875H33.3125V156.660156h92.511719Zm0 0"/>
  </g>
  <g clip-path="url(#d)">
    <path fill="#64748b" d="M156.660156 280.011719H341.6875V33.3125H64.144531v92.511719H33.3125V33.3125c0-16.949219 13.878906-30.839844 30.832031-30.839844H341.6875c16.953125 0 30.839844 13.886719 30.839844 30.839844v246.699219c0 16.953125-13.886719 30.839843-30.84375 30.839843H218.332031V341.6875h61.679688v30.839844H125.820312c16.957032 0 30.839844-13.878906 30.839844-30.835938v-.003906H187.5v-30.835938h-30.839844Zm0 0"/>
  </g>
  <path fill="#cbd5e1" d="M64.140625 33.3125v92.511719h61.679687c16.957032 0 30.835938 13.882812 30.835938 30.839843v123.351563h185.027344V33.3125Zm0 0"/>
</svg>
