<svg xmlns="http://www.w3.org/2000/svg" xmlns:xlink="http://www.w3.org/1999/xlink" width="500" zoomAndPan="magnify" viewBox="0 0 375 374.999991" height="500" preserveAspectRatio="xMidYMid meet" version="1.0"><defs><clipPath id="f4dafea019"><path d="M 5.25 104 L 88 104 L 88 271 L 5.25 271 Z M 5.25 104 " clip-rule="nonzero"/></clipPath></defs><path fill="#4285f4" d="M 368.632812 191.570312 C 368.632812 178.429688 367.457031 165.796875 365.265625 153.671875 L 190.765625 153.671875 L 190.765625 225.425781 L 290.480469 225.425781 C 286.101562 248.5 272.960938 268.039062 253.253906 281.179688 L 253.253906 327.835938 L 313.386719 327.835938 C 348.421875 295.496094 368.632812 247.996094 368.632812 191.570312 Z M 368.632812 191.570312 " fill-opacity="1" fill-rule="nonzero"/><path fill="#34a853" d="M 190.765625 372.640625 C 240.789062 372.640625 282.730469 356.132812 313.386719 327.835938 L 253.253906 281.179688 C 236.746094 292.292969 215.691406 299.03125 190.765625 299.03125 C 142.589844 299.03125 101.660156 266.523438 87.007812 222.730469 L 25.359375 222.730469 L 25.359375 270.566406 C 55.847656 331.035156 118.335938 372.640625 190.765625 372.640625 Z M 190.765625 372.640625 " fill-opacity="1" fill-rule="nonzero"/><g clip-path="url(#f4dafea019)"><path fill="#fbbc05" d="M 87.007812 222.5625 C 83.300781 211.445312 81.113281 199.652344 81.113281 187.359375 C 81.113281 175.0625 83.300781 163.273438 87.007812 152.15625 L 87.007812 104.320312 L 25.359375 104.320312 C 12.726562 129.246094 5.484375 157.375 5.484375 187.359375 C 5.484375 217.339844 12.726562 245.46875 25.359375 270.398438 L 73.363281 233.003906 Z M 87.007812 222.5625 " fill-opacity="1" fill-rule="nonzero"/></g><path fill="#ea4335" d="M 190.765625 75.851562 C 218.050781 75.851562 242.304688 85.285156 261.675781 103.476562 L 314.734375 50.417969 C 282.5625 20.4375 240.789062 2.078125 190.765625 2.078125 C 118.335938 2.078125 55.847656 43.679688 25.359375 104.320312 L 87.007812 152.15625 C 101.660156 108.359375 142.589844 75.851562 190.765625 75.851562 Z M 190.765625 75.851562 " fill-opacity="1" fill-rule="nonzero"/></svg>