<svg xmlns="http://www.w3.org/2000/svg" version="1.0" viewBox="0 0 375 374.999991">
  <path d="M187.582031 91.308594c-53.234375 0-96.175781 42.960937-96.175781 96.222656s42.941406 96.226562 96.175781 96.226562c53.238281 0 96.179688-42.964843 96.179688-96.226562s-42.941407-96.222656-96.179688-96.222656Zm0 158.78125c-34.402343 0-62.527343-28.054688-62.527343-62.558594s28.042968-62.558594 62.527343-62.558594c34.488281 0 62.53125 28.054688 62.53125 62.558594s-28.125 62.558594-62.53125 62.558594Zm122.546875-162.71875c0 12.476562-10.046875 22.445312-22.433594 22.445312-12.472656 0-22.433593-10.050781-22.433593-22.445312 0-12.394532 10.046875-22.445313 22.433593-22.445313 12.386719 0 22.433594 10.050781 22.433594 22.445313Zm63.699219 22.777344c-1.421875-30.0625-8.285156-56.695313-30.300781-78.636719-21.929688-21.941407-48.550782-28.808594-78.601563-30.316407-30.96875-1.757812-123.796875-1.757812-154.769531 0-29.964844 1.425782-56.585938 8.292969-78.597656 30.234376C9.542969 53.371094 2.761719 80 1.253906 110.066406c-1.757812 30.984375-1.757812 123.859375 0 154.847656 1.425782 30.066407 8.289063 56.695313 30.304688 78.636719 22.011718 21.941407 48.546875 28.808594 78.597656 30.316407 30.972656 1.757812 123.800781 1.757812 154.769531 0 30.050781-1.421876 56.671875-8.289063 78.601563-30.316407 21.929687-21.941406 28.792968-48.570312 30.300781-78.636719 1.757813-30.988281 1.757813-123.777343 0-154.765624Zm-40.011719 188.011718c-6.527344 16.414063-19.167968 29.0625-35.65625 35.675782-24.695312 9.800781-83.289062 7.539062-110.578125 7.539062-27.285156 0-85.964843 2.175781-110.574219-7.539062-16.40625-6.53125-29.042968-19.175782-35.65625-35.675782-9.792968-24.703125-7.535156-83.328125-7.535156-110.628906s-2.175781-86.007812 7.535156-110.628906c6.527344-16.414063 19.167969-29.058594 35.65625-35.675782 24.695313-9.796874 83.289063-7.535156 110.574219-7.535156 27.289063 0 85.96875-2.179687 110.578125 7.535156 16.40625 6.53125 29.042969 19.179688 35.65625 35.675782 9.792969 24.707031 7.535156 83.328125 7.535156 110.628906s2.257813 86.007812-7.535156 110.628906Zm0 0"/>
</svg>
