<svg xmlns="http://www.w3.org/2000/svg" xmlns:xlink="http://www.w3.org/1999/xlink" width="52" zoomAndPan="magnify" viewBox="0 0 39 48" height="64" preserveAspectRatio="xMidYMid meet" version="1.0"><defs><clipPath id="286ceb1817"><path d="M 2.375 33 L 36.90625 33 L 36.90625 44.863281 L 2.375 44.863281 Z M 2.375 33 " clip-rule="nonzero"/></clipPath><clipPath id="b787884698"><path d="M 5 2.25 L 33 2.25 L 33 41 L 5 41 Z M 5 2.25 " clip-rule="nonzero"/></clipPath></defs><path fill="#1976d2" d="M 22.667969 34.472656 C 30.101562 34.898438 35.707031 36.8125 35.707031 39.101562 C 35.707031 41.707031 28.453125 43.820312 19.5 43.820312 C 10.546875 43.820312 3.289062 41.707031 3.289062 39.101562 C 3.289062 36.835938 8.765625 34.945312 16.070312 34.488281 C 17.398438 36.601562 18.574219 38.488281 19.355469 39.890625 C 20.160156 38.4375 21.34375 36.558594 22.667969 34.472656 Z M 22.667969 34.472656 " fill-opacity="1" fill-rule="nonzero"/><path fill="#ffb300" d="M 19.355469 3.179688 C 26.367188 3.179688 32.054688 8.867188 32.054688 15.882812 C 32.054688 19.84375 26.703125 28.113281 22.667969 34.472656 C 21.34375 36.558594 20.160156 38.4375 19.355469 39.890625 C 18.574219 38.488281 17.398438 36.601562 16.070312 34.488281 C 12.054688 28.097656 6.652344 19.601562 6.652344 15.882812 C 6.652344 8.867188 12.339844 3.179688 19.355469 3.179688 Z M 25.03125 15.402344 C 25.03125 12.277344 22.480469 9.726562 19.355469 9.726562 C 16.226562 9.726562 13.679688 12.277344 13.679688 15.402344 C 13.679688 18.53125 16.226562 21.078125 19.355469 21.078125 C 22.480469 21.078125 25.03125 18.53125 25.03125 15.402344 Z M 25.03125 15.402344 " fill-opacity="1" fill-rule="nonzero"/><g clip-path="url(#286ceb1817)"><path fill="#000000" d="M 19.5 44.738281 C 15.085938 44.738281 10.925781 44.234375 7.78125 43.316406 C 4.246094 42.289062 2.375 40.832031 2.375 39.101562 C 2.375 35.65625 9.722656 33.96875 16.011719 33.574219 C 16.515625 33.539062 16.953125 33.925781 16.984375 34.429688 C 17.015625 34.933594 16.632812 35.371094 16.125 35.402344 C 12.644531 35.621094 9.492188 36.179688 7.25 36.980469 C 5.003906 37.78125 4.207031 38.625 4.207031 39.101562 C 4.207031 39.574219 5.066406 40.621094 8.292969 41.558594 C 11.273438 42.429688 15.253906 42.90625 19.5 42.90625 C 23.742188 42.90625 27.722656 42.429688 30.703125 41.558594 C 33.929688 40.621094 34.789062 39.574219 34.789062 39.101562 C 34.789062 37.871094 30.453125 35.835938 22.613281 35.386719 C 22.109375 35.359375 21.722656 34.925781 21.753906 34.417969 C 21.78125 33.914062 22.214844 33.527344 22.71875 33.558594 C 29.132812 33.925781 36.621094 35.601562 36.621094 39.101562 C 36.621094 40.832031 34.753906 42.289062 31.214844 43.316406 C 28.074219 44.234375 23.914062 44.738281 19.5 44.738281 Z M 19.5 44.738281 " fill-opacity="1" fill-rule="nonzero"/></g><g clip-path="url(#b787884698)"><path fill="#000000" d="M 19.355469 40.808594 C 19.023438 40.808594 18.714844 40.628906 18.554688 40.335938 C 17.796875 38.972656 16.628906 37.101562 15.292969 34.972656 L 14.984375 34.480469 C 10.863281 27.925781 5.734375 19.769531 5.734375 15.882812 C 5.734375 8.375 11.84375 2.265625 19.355469 2.265625 C 26.863281 2.265625 32.972656 8.375 32.972656 15.882812 C 32.972656 19.964844 28.144531 27.558594 23.886719 34.261719 L 23.441406 34.964844 C 22.113281 37.050781 20.953125 38.894531 20.15625 40.335938 C 19.996094 40.625 19.6875 40.808594 19.355469 40.808594 Z M 19.355469 4.09375 C 12.855469 4.09375 7.566406 9.382812 7.566406 15.882812 C 7.566406 19.242188 12.75 27.488281 16.535156 33.507812 L 16.84375 34 C 17.820312 35.554688 18.667969 36.90625 19.355469 38.0625 C 20.074219 36.859375 20.941406 35.480469 21.894531 33.980469 L 22.339844 33.28125 C 26.054688 27.4375 31.140625 19.433594 31.140625 15.882812 C 31.140625 9.382812 25.851562 4.09375 19.355469 4.09375 Z M 19.355469 4.09375 " fill-opacity="1" fill-rule="nonzero"/></g><path fill="#000000" d="M 19.355469 21.996094 C 15.71875 21.996094 12.761719 19.039062 12.761719 15.402344 C 12.761719 11.769531 15.71875 8.8125 19.355469 8.8125 C 22.988281 8.8125 25.945312 11.769531 25.945312 15.402344 C 25.945312 19.039062 22.988281 21.996094 19.355469 21.996094 Z M 19.355469 10.640625 C 16.730469 10.640625 14.59375 12.777344 14.59375 15.402344 C 14.59375 18.027344 16.730469 20.164062 19.355469 20.164062 C 21.980469 20.164062 24.113281 18.027344 24.113281 15.402344 C 24.113281 12.777344 21.980469 10.640625 19.355469 10.640625 Z M 19.355469 10.640625 " fill-opacity="1" fill-rule="nonzero"/></svg>