<svg xmlns="http://www.w3.org/2000/svg" version="1.0" viewBox="0 0 375 374.999991">
  <defs>
    <clipPath id="a">
      <path d="M144.640625 77.441406h128.566406v268.6875H144.640625Zm0 0"/>
    </clipPath>
    <clipPath id="b">
      <path d="M146.890625 77.441406h124.066406c.597657 0 1.171875.238282 1.59375.660156.421875.421876.65625.992188.65625 1.589844v264.117188c0 .597656-.234375 1.167968-.65625 1.589844-.421875.421874-.996093.660156-1.59375.660156H146.890625c-.597656 0-1.167969-.238282-1.589844-.660156-.425781-.421876-.660156-.992188-.660156-1.589844V79.691406c0-.597656.234375-1.167968.660156-1.589844.421875-.421874.992188-.660156 1.589844-.660156Zm0 0"/>
    </clipPath>
    <clipPath id="c">
      <path d="M18.367188 23.738281h144.640624V290H18.367188Zm0 0"/>
    </clipPath>
  </defs>
  <g clip-path="url(#a)">
    <g clip-path="url(#b)">
      <path fill="#64748b" d="M144.640625 77.441406h128.566406v268.6875H144.640625Zm0 0"/>
    </g>
  </g>
  <g clip-path="url(#c)">
    <path fill="#64748b" d="M18.367188 23.738281h144.640624v266.113281H18.367188Zm0 0"/>
  </g>
  <path fill="#cbd5e1" d="M328.125 70.3125v203.125l23.453125 39.070312L375 273.4375V70.3125ZM328.125 0H375v46.875h-46.875ZM187.5 218.75h46.878906V250H187.5ZM187.5 281.25h46.878906v31.257812H187.5Zm0 0"/>
  <path fill="#cbd5e1" d="M187.5 62.484375V0H0v312.507812h109.375V375h187.5V62.484375ZM31.25 281.25v-250h125.003906v250Zm234.375 62.503906H148.4375L187.5 312.507812V187.5h78.125Zm0-187.503906H187.5v-62.5h78.125Zm0 0"/>
  <path fill="#cbd5e1" d="M62.5 156.25h62.496094v31.25H62.5ZM62.5 218.75h62.496094V250H62.5ZM125 93.75c0 1.023438-.046875 2.042969-.148438 3.0625-.101562 1.019531-.25 2.03125-.449218 3.035156-.199219 1.003906-.449219 1.996094-.746094 2.972656-.296875.980469-.640625 1.945313-1.035156 2.890626-.390625.945312-.828125 1.867187-1.308594 2.769531-.484375.902343-1.007812 1.78125-1.578125 2.632812-.566406.851563-1.175781 1.671875-1.828125 2.460938-.648438.792969-1.335938 1.550781-2.058594 2.273437-.722656.722656-1.480468 1.410156-2.273437 2.058594-.789063.652344-1.609375 1.261719-2.460938 1.828125-.851562.570313-1.730469 1.09375-2.632812 1.578125-.902344.480469-1.824219.917969-2.769531 1.308594-.945313.394531-1.910157.738281-2.890626 1.035156-.976562.296875-1.96875.546875-2.972656.746094-1.003906.199218-2.015625.347656-3.035156.449218C95.792969 124.953125 94.773438 125 93.75 125s-2.042969-.046875-3.0625-.148438c-1.019531-.101562-2.03125-.25-3.035156-.449218-1.003906-.199219-1.996094-.449219-2.972656-.746094-.980469-.296875-1.945313-.640625-2.890626-1.035156-.945312-.390625-1.867187-.828125-2.769531-1.308594-.902343-.484375-1.78125-1.007812-2.632812-1.578125-.851563-.566406-1.671875-1.175781-2.460938-1.828125-.792969-.648438-1.550781-1.335938-2.273437-2.058594-.722656-.722656-1.410156-1.480468-2.058594-2.273437-.652344-.789063-1.261719-1.609375-1.828125-2.460938-.570313-.851562-1.09375-1.730469-1.578125-2.632812-.480469-.902344-.917969-1.824219-1.308594-2.769531-.394531-.945313-.738281-1.910157-1.035156-2.890626-.296875-.976562-.546875-1.96875-.746094-2.972656-.199218-1.003906-.347656-2.015625-.449218-3.035156C62.546875 95.792969 62.5 94.773438 62.5 93.75s.046875-2.042969.148438-3.0625c.101562-1.019531.25-2.03125.449218-3.035156.199219-1.003906.449219-1.996094.746094-2.972656.296875-.980469.640625-1.945313 1.035156-2.890626.390625-.945312.828125-1.867187 1.308594-2.769531.484375-.902343 1.007812-1.78125 1.578125-2.632812.566406-.851563 1.175781-1.671875 1.828125-2.460938.648438-.792969 1.335938-1.550781 2.058594-2.273437.722656-.722656 1.480468-1.410156 2.273437-2.058594.789063-.652344 1.609375-1.261719 2.460938-1.828125.851562-.570313 1.730469-1.09375 2.632812-1.578125.902344-.480469 1.824219-.917969 2.769531-1.308594.945313-.394531 1.910157-.738281 2.890626-1.035156.976562-.296875 1.96875-.546875 2.972656-.746094 1.003906-.199218 2.015625-.347656 3.035156-.449218C91.707031 62.546875 92.726562 62.5 93.75 62.5s2.042969.046875 3.0625.148438c1.019531.101562 2.03125.25 3.035156.449218 1.003906.199219 1.996094.449219 2.972656.746094.980469.296875 1.945313.640625 2.890626 1.035156.945312.390625 1.867187.828125 2.769531 1.308594.902343.484375 1.78125 1.007812 2.632812 1.578125.851563.566406 1.671875 1.175781 2.460938 1.828125.792969.648438 1.550781 1.335938 2.273437 2.058594.722656.722656 1.410156 1.480468 2.058594 2.273437.652344.789063 1.261719 1.609375 1.828125 2.460938.570313.851562 1.09375 1.730469 1.578125 2.632812.480469.902344.917969 1.824219 1.308594 2.769531.394531.945313.738281 1.910157 1.035156 2.890626.296875.976562.546875 1.96875.746094 2.972656.199218 1.003906.347656 2.015625.449218 3.035156C124.953125 91.707031 125 92.726562 125 93.75Zm0 0"/>
</svg>
