<svg xmlns="http://www.w3.org/2000/svg" version="1.0" viewBox="0 0 375 374.999991">
  <defs>
    <clipPath id="a">
      <path d="M3 18h369v337.453125H3Zm0 0"/>
    </clipPath>
  </defs>
  <g clip-path="url(#a)">
    <path fill="#64748b" d="M3.347656 148.386719c0 26.550781 8.472656 51.25 22.929688 71.84375L4.515625 272.800781c-3.234375 7.808594.476563 16.765625 8.3125 20.019531 3.90625 1.625 8.09375 1.496094 11.714844 0L85.625 267.527344c9.21875 3.824218 18.988281 6.671875 29.128906 8.585937h-.015625C138.789062 314.285156 182.777344 339.96875 233.25 339.96875c19.832031 0 38.625-4.039062 55.679688-11.136719l61.066406 25.300781c3.621094 1.492188 7.808594 1.621094 11.730468 0 7.8125-3.265624 11.53125-12.210937 8.300782-20.019531l-21.757813-52.574219c14.449219-20.597656 22.925781-45.300781 22.925781-71.878906 0-63.371094-47.960937-116.148437-111.445312-127.820312-24.089844-38.125-68.023438-63.734375-118.460938-63.734375-76.1875 0-137.941406 58.316406-137.941406 130.28125Zm0 0"/>
  </g>
  <path fill="#cbd5e1" d="M34 148.382812c0 19.285157 5.996094 38.046876 17.378906 54.242188l9.671875 13.765625-14.054687 33.949219 38.675781-16.011719 11.75 4.910156c13.957031 5.804688 28.730469 8.769531 43.875 8.769531 59.167969 0 107.289063-44.691406 107.289063-99.621093-.007813-54.933594-48.128907-99.628907-107.296876-99.628907C82.140625 48.757812 34 93.453125 34 148.382812Zm0 0"/>
  <path fill="#cbd5e1" d="M155.359375 277.984375c19.570313 19.238281 47.207031 31.335937 77.890625 31.335937 15.148438 0 29.921875-2.960937 43.871094-8.769531l11.757812-4.910156 38.667969 16.015625-14.039063-33.949219 9.671876-13.769531c11.351562-16.199219 17.355468-34.96875 17.355468-54.277344 0-41.070312-26.914062-76.398437-65.214844-91.636718h-.019531c2.488281 9.769531 3.929688 19.882812 3.929688 30.363281 0 67.445312-54.289063 122.9375-123.871094 129.597656Zm0 0"/>
  <path fill="#64748b" d="m123.841652 116.965394-22.25-10.75c0-.40625.300781-1.488281.90625-3.25.601563-1.769531 1.8125-4.140625 3.625-7.109375 1.820313-2.976562 4.117187-5.78125 6.890625-8.40625 2.78125-2.625 6.691406-4.921875 11.734375-6.890625 5.039063-1.96875 10.742187-2.953125 17.109375-2.953125 11.707031 0 21.796875 3.433594 30.265625 10.296875 8.476563 6.867187 12.71875 15.496094 12.71875 25.890625 0 12.8125-8.527344 22.851562-25.578125 30.109375-2.324219 1.011719-3.789062 2.402344-4.390625 4.171875-.605469 1.761719-.90625 4.210938-.90625 7.34375v8.46875h-24.984375v-16.5c0-2.71875.097656-4.859375.296875-6.421875.207031-1.570313.863281-3.289063 1.96875-5.15625 1.113281-1.863281 2.734375-3.503906 4.859375-4.921875 1.613281-1.007812 3.78125-2.191406 6.5-3.546875 2.726562-1.363281 4.75-2.445313 6.0625-3.25 1.3125-.8125 2.519531-2.097656 3.625-3.859375 1.113281-1.769531 1.671875-3.914062 1.671875-6.4375 0-3.632812-1.1875-6.613281-3.5625-8.9375-2.367187-2.320312-5.265625-3.484375-8.703125-3.484375-4.949219 0-8.914062 1.589844-11.890625 4.765625-2.96875 3.179688-4.960937 6.789062-5.96875 10.828125Zm17.5625 55.40625c4.84375 0 8.953125 1.695313 12.328125 5.078125 3.382812 3.375 5.078125 7.484375 5.078125 12.328125 0 4.742187-1.695313 8.804687-5.078125 12.1875-3.375 3.375-7.484375 5.0625-12.328125 5.0625-4.75 0-8.820313-1.6875-12.203125-5.0625-3.375-3.382813-5.0625-7.445313-5.0625-12.1875 0-4.84375 1.6875-8.953125 5.0625-12.328125 3.382812-3.382812 7.453125-5.078125 12.203125-5.078125Zm0 0"/>
</svg>
