<svg xmlns="http://www.w3.org/2000/svg" xmlns:xlink="http://www.w3.org/1999/xlink" width="500" zoomAndPan="magnify" viewBox="0 0 375 374.999991" height="500" preserveAspectRatio="xMidYMid meet" version="1.0"><defs><clipPath id="001413a0a4"><path d="M 114 197 L 278 197 L 278 322.273438 L 114 322.273438 Z M 114 197 " clip-rule="nonzero"/></clipPath><clipPath id="52a0c4e140"><path d="M 96 47.773438 L 270 47.773438 L 270 164 L 96 164 Z M 96 47.773438 " clip-rule="nonzero"/></clipPath></defs><path fill="#f9b317" d="M 61.597656 277.421875 C 66.019531 269.453125 64.449219 258.292969 62.140625 249.839844 C 60.191406 250.382812 58.257812 250.945312 56.332031 251.546875 C 55.074219 251.933594 53.71875 252.121094 52.328125 252.121094 C 47.015625 252.121094 41.140625 249.402344 37.746094 244.769531 C 26.648438 229.390625 15.542969 214.007812 4.445312 198.628906 C 0.15625 192.78125 4.082031 187.289062 11.066406 182.347656 C 35.445312 165.105469 72.34375 142.773438 108.710938 124.71875 C 109.933594 129.179688 111.152344 133.640625 112.375 138.097656 C 114.339844 145.074219 121.074219 150.578125 127.414062 150.949219 C 129.425781 151.058594 131.4375 151.210938 133.449219 151.386719 C 132.652344 160.109375 130.207031 171.113281 123.28125 177.03125 C 123.28125 177.03125 150.472656 164.746094 163.214844 155.679688 C 163.921875 155.816406 164.632812 155.953125 165.335938 156.082031 C 167.816406 169.894531 170.289062 183.707031 172.769531 197.515625 C 155.078125 195.300781 137.386719 193.703125 120.976562 193.074219 C 120.8125 193.066406 120.65625 193.066406 120.496094 193.066406 C 112.234375 193.066406 107.136719 201.722656 109.070312 211.945312 C 110.757812 221.230469 112.457031 230.511719 114.148438 239.796875 C 106.597656 240.988281 99.035156 242.148438 91.527344 243.453125 C 82.765625 256.402344 61.597656 277.421875 61.597656 277.421875 " fill-opacity="1" fill-rule="nonzero"/><g clip-path="url(#001413a0a4)"><path fill="#ed1063" d="M 254.769531 322.273438 C 254.769531 322.273438 227.582031 309.992188 214.835938 300.929688 C 189.601562 305.660156 164.359375 312.171875 139.128906 313.144531 C 139.035156 313.148438 138.949219 313.148438 138.855469 313.148438 C 132.597656 313.148438 126.027344 304.535156 124.089844 294.253906 C 120.777344 276.101562 117.460938 257.949219 114.148438 239.796875 C 132.039062 236.976562 149.863281 233.972656 166.722656 228.402344 C 172.75 226.421875 176.003906 215.902344 174.191406 205.453125 C 173.714844 202.808594 173.242188 200.160156 172.769531 197.515625 C 187.222656 199.328125 201.675781 201.558594 215.429688 204.011719 C 217.957031 213.339844 220.476562 222.667969 223.003906 231.992188 C 225.707031 241.765625 232.617188 249.613281 238.71875 249.613281 C 239 249.613281 239.285156 249.597656 239.566406 249.5625 C 252.164062 248.015625 264.644531 245.078125 277.082031 241.667969 C 273.28125 255.5625 269.476562 269.453125 265.675781 283.347656 C 263.707031 290.316406 256.976562 295.820312 250.640625 296.195312 C 248.628906 296.300781 246.613281 296.453125 244.597656 296.628906 C 245.398438 305.351562 247.84375 316.359375 254.769531 322.273438 " fill-opacity="1" fill-rule="nonzero"/></g><path fill="#ed1e27" d="M 114.148438 239.796875 C 112.457031 230.511719 110.757812 221.230469 109.070312 211.945312 C 107.136719 201.722656 112.234375 193.066406 120.496094 193.066406 C 120.65625 193.066406 120.8125 193.066406 120.976562 193.074219 C 137.386719 193.703125 155.078125 195.300781 172.769531 197.515625 C 173.242188 200.160156 173.714844 202.808594 174.191406 205.453125 C 176.003906 215.902344 172.75 226.421875 166.722656 228.402344 C 149.863281 233.972656 132.039062 236.976562 114.148438 239.796875 " fill-opacity="1" fill-rule="nonzero"/><g clip-path="url(#52a0c4e140)"><path fill="#55bcea" d="M 204.5625 163.835938 C 191.488281 161.507812 178.414062 158.582031 165.335938 156.082031 C 163.363281 145.089844 161.394531 134.09375 159.421875 123.09375 C 157.9375 114.53125 152.25 108.707031 145.902344 108.707031 C 144.503906 108.707031 143.078125 108.988281 141.652344 109.582031 C 130.976562 114.046875 119.867188 119.179688 108.710938 124.71875 C 104.925781 110.886719 101.140625 97.054688 97.355469 83.222656 C 95.386719 76.246094 100.984375 72.472656 109.261719 70.289062 C 146.992188 60.335938 207.808594 49.71875 257.078125 47.828125 C 257.238281 47.820312 257.398438 47.816406 257.550781 47.816406 C 265.820312 47.816406 270.914062 56.472656 268.984375 66.703125 C 265.054688 88.234375 261.121094 109.769531 257.195312 131.300781 C 249.722656 131.054688 242.285156 130.921875 234.976562 130.921875 C 226.929688 130.921875 219.035156 131.082031 211.4375 131.425781 C 202.894531 131.804688 198.320312 141.007812 201.152344 151.226562 C 202.289062 155.429688 203.425781 159.632812 204.5625 163.835938 " fill-opacity="1" fill-rule="nonzero"/></g><path fill="#5d8d3e" d="M 123.28125 177.03125 C 130.207031 171.113281 132.652344 160.109375 133.449219 151.386719 C 131.4375 151.210938 129.425781 151.058594 127.414062 150.949219 C 121.074219 150.578125 114.339844 145.074219 112.375 138.097656 C 111.152344 133.640625 109.933594 129.179688 108.710938 124.71875 C 119.867188 119.179688 130.976562 114.046875 141.652344 109.582031 C 143.078125 108.988281 144.503906 108.707031 145.902344 108.707031 C 152.25 108.707031 157.9375 114.53125 159.421875 123.09375 C 161.394531 134.09375 163.363281 145.089844 165.335938 156.082031 C 164.632812 155.953125 163.921875 155.816406 163.214844 155.679688 C 150.472656 164.746094 123.28125 177.03125 123.28125 177.03125 " fill-opacity="1" fill-rule="nonzero"/><path fill="#97c22e" d="M 355.570312 249.007812 C 355.570312 249.007812 327.445312 239.035156 313.992188 231.066406 C 301.679688 234.457031 289.398438 238.292969 277.082031 241.667969 C 278.289062 237.265625 279.492188 232.871094 280.699219 228.464844 C 282.664062 221.492188 277.0625 217.71875 268.792969 215.539062 C 253.890625 211.605469 235.394531 207.570312 215.429688 204.011719 C 211.808594 190.621094 208.183594 177.230469 204.5625 163.835938 C 216.015625 165.875 227.46875 167.460938 238.925781 167.898438 C 239.011719 167.902344 239.105469 167.90625 239.191406 167.90625 C 245.453125 167.90625 252.023438 159.292969 253.960938 149.011719 C 255.039062 143.105469 256.117188 137.203125 257.195312 131.300781 C 294.886719 132.539062 333.492188 136.6875 360.617188 141.472656 C 369.042969 142.957031 374.941406 146.246094 373.5625 153.363281 C 370.101562 172.011719 366.640625 190.65625 363.183594 209.300781 C 361.804688 216.414062 355.554688 222.460938 349.273438 223.363281 C 347.277344 223.636719 345.285156 223.957031 343.292969 224.296875 C 344.816406 232.925781 348.167969 243.6875 355.570312 249.007812 " fill-opacity="1" fill-rule="nonzero"/><path fill="#a12930" d="M 238.71875 249.613281 C 232.617188 249.613281 225.707031 241.765625 223.003906 231.992188 C 220.476562 222.667969 217.957031 213.339844 215.429688 204.011719 C 235.394531 207.570312 253.890625 211.605469 268.792969 215.539062 C 277.0625 217.71875 282.664062 221.492188 280.699219 228.464844 C 279.492188 232.871094 278.289062 237.265625 277.082031 241.667969 C 264.644531 245.078125 252.164062 248.015625 239.566406 249.5625 C 239.285156 249.597656 239 249.613281 238.71875 249.613281 " fill-opacity="1" fill-rule="nonzero"/><path fill="#37a048" d="M 239.191406 167.90625 C 239.105469 167.90625 239.011719 167.902344 238.925781 167.898438 C 227.46875 167.460938 216.015625 165.875 204.5625 163.835938 C 203.425781 159.632812 202.289062 155.429688 201.152344 151.226562 C 198.320312 141.007812 202.894531 131.804688 211.4375 131.425781 C 219.035156 131.082031 226.929688 130.921875 234.976562 130.921875 C 242.285156 130.921875 249.722656 131.054688 257.195312 131.300781 C 256.117188 137.203125 255.039062 143.105469 253.960938 149.011719 C 252.023438 159.292969 245.453125 167.90625 239.191406 167.90625 " fill-opacity="1" fill-rule="nonzero"/><path fill="#ffffff" d="M 179.042969 135.125 C 179.660156 135.742188 179.972656 136.460938 179.972656 137.285156 C 179.972656 138.105469 179.660156 138.828125 179.042969 139.445312 C 178.425781 140.0625 177.703125 140.371094 176.882812 140.371094 C 176.058594 140.371094 175.339844 140.0625 174.71875 139.445312 C 174.101562 138.828125 173.796875 138.105469 173.796875 137.285156 C 173.796875 136.460938 174.101562 135.742188 174.71875 135.125 C 175.339844 134.507812 176.058594 134.199219 176.882812 134.199219 C 177.703125 134.199219 178.425781 134.507812 179.042969 135.125 Z M 170.5 83.589844 C 171.9375 79.40625 174.550781 76.027344 178.324219 73.457031 C 182.09375 70.882812 186.148438 69.425781 190.472656 69.082031 C 195 68.742188 199.066406 69.789062 202.667969 72.222656 C 206.273438 74.65625 208.550781 78.445312 209.511719 83.589844 C 210.613281 90.101562 208.828125 95.386719 204.160156 99.433594 C 200.382812 102.722656 195.34375 104.675781 189.027344 105.292969 C 188.820312 105.292969 186.730469 105.328125 182.75 105.398438 C 181.582031 105.464844 180.65625 105.535156 179.972656 105.605469 L 179.558594 105.605469 C 179.488281 105.945312 179.421875 106.390625 179.355469 106.941406 C 179.214844 108.519531 179.148438 110.644531 179.148438 113.316406 C 179.148438 115.308594 179.199219 117.65625 179.300781 120.363281 C 179.40625 123.070312 179.457031 124.496094 179.457031 124.632812 C 179.457031 125.457031 179.148438 126.175781 178.53125 126.792969 C 177.910156 127.410156 177.191406 127.71875 176.367188 127.71875 C 175.546875 127.71875 174.824219 127.410156 174.207031 126.792969 C 173.589844 126.175781 173.277344 125.457031 173.277344 124.632812 C 173.277344 124.496094 173.226562 123.070312 173.125 120.363281 C 173.023438 117.65625 172.972656 115.339844 172.972656 113.417969 C 172.972656 110.402344 173.074219 108.003906 173.277344 106.222656 C 173.417969 105.054688 173.589844 104.09375 173.796875 103.339844 C 174.273438 101.902344 175.03125 100.90625 176.058594 100.355469 C 176.8125 99.878906 177.875 99.566406 179.25 99.433594 C 180.140625 99.359375 181.273438 99.292969 182.644531 99.226562 L 188.410156 99.121094 C 193.417969 98.644531 197.332031 97.203125 200.144531 94.800781 C 203.03125 92.265625 204.089844 88.867188 203.335938 84.617188 C 202.785156 81.261719 201.378906 78.792969 199.117188 77.210938 C 196.855469 75.632812 194.109375 74.984375 190.882812 75.253906 C 187.726562 75.460938 184.757812 76.527344 181.976562 78.445312 C 179.199219 80.367188 177.292969 82.765625 176.265625 85.648438 C 175.988281 86.46875 175.472656 87.054688 174.71875 87.394531 C 173.964844 87.738281 173.175781 87.773438 172.355469 87.5 C 171.527344 87.222656 170.945312 86.710938 170.605469 85.953125 C 170.257812 85.203125 170.226562 84.414062 170.5 83.589844 " fill-opacity="1" fill-rule="nonzero"/><path fill="#ffffff" d="M 89.542969 219.332031 C 90.203125 219.902344 90.566406 220.597656 90.625 221.417969 C 90.683594 222.238281 90.429688 222.980469 89.859375 223.640625 C 89.285156 224.300781 88.589844 224.660156 87.769531 224.722656 C 86.949219 224.785156 86.207031 224.527344 85.546875 223.957031 C 84.882812 223.386719 84.527344 222.691406 84.464844 221.867188 C 84.40625 221.046875 84.660156 220.308594 85.230469 219.648438 C 85.800781 218.984375 86.496094 218.628906 87.320312 218.566406 C 88.140625 218.503906 88.878906 218.761719 89.542969 219.332031 Z M 77.253906 168.558594 C 78.386719 164.28125 80.742188 160.722656 84.316406 157.878906 C 87.890625 155.039062 91.824219 153.292969 96.113281 152.636719 C 100.601562 151.960938 104.734375 152.707031 108.503906 154.871094 C 112.277344 157.039062 114.828125 160.652344 116.160156 165.707031 C 117.734375 172.125 116.339844 177.523438 111.980469 181.902344 C 108.460938 185.457031 103.570312 187.773438 97.320312 188.851562 C 97.117188 188.867188 95.027344 189.054688 91.0625 189.410156 C 89.90625 189.566406 88.988281 189.699219 88.308594 189.820312 L 87.894531 189.851562 C 87.851562 190.199219 87.816406 190.648438 87.789062 191.203125 C 87.769531 192.78125 87.855469 194.910156 88.050781 197.578125 C 88.195312 199.558594 88.417969 201.898438 88.722656 204.59375 C 89.019531 207.289062 89.175781 208.703125 89.1875 208.835938 C 89.246094 209.65625 88.992188 210.402344 88.421875 211.058594 C 87.847656 211.71875 87.152344 212.082031 86.332031 212.140625 C 85.511719 212.203125 84.769531 211.945312 84.105469 211.378906 C 83.445312 210.804688 83.085938 210.109375 83.027344 209.285156 C 83.015625 209.152344 82.859375 207.738281 82.5625 205.042969 C 82.257812 202.351562 82.039062 200.046875 81.898438 198.128906 C 81.675781 195.121094 81.605469 192.71875 81.679688 190.921875 C 81.734375 189.753906 81.832031 188.78125 81.984375 188.015625 C 82.355469 186.542969 83.035156 185.496094 84.023438 184.875 C 84.742188 184.339844 85.78125 183.957031 87.140625 183.714844 C 88.019531 183.585938 89.148438 183.433594 90.511719 183.261719 L 96.25 182.742188 C 101.210938 181.898438 105.007812 180.175781 107.640625 177.578125 C 110.328125 174.832031 111.140625 171.375 110.078125 167.183594 C 109.285156 163.875 107.703125 161.515625 105.328125 160.105469 C 102.953125 158.699219 100.167969 158.25 96.972656 158.757812 C 93.835938 159.191406 90.957031 160.472656 88.328125 162.589844 C 85.691406 164.707031 83.96875 167.238281 83.15625 170.1875 C 82.941406 171.03125 82.46875 171.648438 81.742188 172.046875 C 81.011719 172.445312 80.230469 172.535156 79.390625 172.320312 C 78.546875 172.109375 77.925781 171.636719 77.527344 170.910156 C 77.128906 170.183594 77.039062 169.398438 77.253906 168.558594 " fill-opacity="1" fill-rule="nonzero"/><path fill="#ffffff" d="M 188.898438 284.855469 C 189.515625 285.472656 189.820312 286.191406 189.820312 287.015625 C 189.820312 287.835938 189.515625 288.558594 188.898438 289.175781 C 188.28125 289.792969 187.558594 290.101562 186.734375 290.101562 C 185.914062 290.101562 185.191406 289.792969 184.574219 289.175781 C 183.957031 288.558594 183.644531 287.835938 183.644531 287.015625 C 183.644531 286.191406 183.957031 285.472656 184.574219 284.855469 C 185.191406 284.238281 185.914062 283.929688 186.734375 283.929688 C 187.558594 283.929688 188.28125 284.238281 188.898438 284.855469 Z M 180.351562 233.320312 C 181.792969 229.136719 184.398438 225.757812 188.175781 223.1875 C 191.949219 220.613281 195.996094 219.15625 200.320312 218.816406 C 204.851562 218.472656 208.917969 219.519531 212.519531 221.953125 C 216.121094 224.386719 218.402344 228.175781 219.367188 233.320312 C 220.460938 239.835938 218.679688 245.113281 214.015625 249.160156 C 210.238281 252.453125 205.191406 254.40625 198.882812 255.023438 C 198.675781 255.023438 196.582031 255.058594 192.601562 255.128906 C 191.433594 255.195312 190.507812 255.261719 189.820312 255.335938 L 189.410156 255.335938 C 189.339844 255.675781 189.269531 256.117188 189.203125 256.667969 C 189.066406 258.25 189 260.371094 189 263.046875 C 189 265.039062 189.050781 267.382812 189.152344 270.09375 C 189.253906 272.800781 189.308594 274.222656 189.308594 274.363281 C 189.308594 275.1875 189 275.902344 188.382812 276.523438 C 187.761719 277.136719 187.042969 277.449219 186.21875 277.449219 C 185.394531 277.449219 184.675781 277.136719 184.054688 276.523438 C 183.441406 275.902344 183.132812 275.1875 183.132812 274.363281 C 183.132812 274.222656 183.078125 272.800781 182.976562 270.09375 C 182.871094 267.382812 182.820312 265.070312 182.820312 263.152344 C 182.820312 260.132812 182.925781 257.730469 183.132812 255.949219 C 183.265625 254.785156 183.441406 253.824219 183.644531 253.070312 C 184.128906 251.628906 184.878906 250.636719 185.914062 250.085938 C 186.664062 249.609375 187.730469 249.296875 189.101562 249.160156 C 189.992188 249.089844 191.125 249.023438 192.5 248.953125 L 198.265625 248.851562 C 203.273438 248.371094 207.179688 246.933594 210 244.53125 C 212.878906 241.996094 213.941406 238.601562 213.191406 234.347656 C 212.640625 230.988281 211.234375 228.519531 208.96875 226.941406 C 206.703125 225.363281 203.957031 224.710938 200.734375 224.988281 C 197.574219 225.195312 194.609375 226.257812 191.828125 228.175781 C 189.050781 230.09375 187.148438 232.496094 186.117188 235.375 C 185.839844 236.199219 185.328125 236.785156 184.574219 237.125 C 183.816406 237.46875 183.027344 237.5 182.207031 237.226562 C 181.382812 236.957031 180.796875 236.441406 180.453125 235.683594 C 180.109375 234.929688 180.074219 234.140625 180.351562 233.320312 " fill-opacity="1" fill-rule="nonzero"/><path fill="#ffffff" d="M 283.175781 217.847656 C 283.792969 218.464844 284.101562 219.183594 284.101562 220.007812 C 284.101562 220.828125 283.792969 221.550781 283.175781 222.167969 C 282.558594 222.785156 281.835938 223.09375 281.011719 223.09375 C 280.1875 223.09375 279.46875 222.785156 278.851562 222.167969 C 278.234375 221.550781 277.925781 220.828125 277.925781 220.007812 C 277.925781 219.183594 278.234375 218.464844 278.851562 217.847656 C 279.46875 217.230469 280.1875 216.921875 281.011719 216.921875 C 281.835938 216.921875 282.558594 217.230469 283.175781 217.847656 Z M 274.628906 166.3125 C 276.070312 162.132812 278.675781 158.75 282.453125 156.179688 C 286.226562 153.605469 290.277344 152.148438 294.597656 151.808594 C 299.128906 151.464844 303.199219 152.511719 306.800781 154.945312 C 310.402344 157.382812 312.683594 161.167969 313.644531 166.3125 C 314.738281 172.828125 312.957031 178.105469 308.289062 182.15625 C 304.515625 185.445312 299.472656 187.398438 293.160156 188.015625 C 292.953125 188.015625 290.859375 188.050781 286.882812 188.121094 C 285.714844 188.1875 284.785156 188.257812 284.101562 188.328125 L 283.691406 188.328125 C 283.621094 188.667969 283.550781 189.117188 283.484375 189.660156 C 283.34375 191.242188 283.28125 193.367188 283.28125 196.039062 C 283.28125 198.03125 283.332031 200.378906 283.429688 203.085938 C 283.535156 205.792969 283.585938 207.21875 283.585938 207.355469 C 283.585938 208.179688 283.28125 208.902344 282.65625 209.515625 C 282.042969 210.132812 281.324219 210.441406 280.5 210.441406 C 279.671875 210.441406 278.957031 210.132812 278.335938 209.515625 C 277.722656 208.902344 277.410156 208.179688 277.410156 207.355469 C 277.410156 207.21875 277.359375 205.792969 277.253906 203.085938 C 277.152344 200.378906 277.097656 198.0625 277.097656 196.144531 C 277.097656 193.125 277.203125 190.726562 277.410156 188.945312 C 277.546875 187.777344 277.722656 186.816406 277.925781 186.0625 C 278.402344 184.625 279.160156 183.628906 280.1875 183.078125 C 280.945312 182.601562 282.007812 182.289062 283.378906 182.15625 C 284.269531 182.085938 285.402344 182.015625 286.777344 181.949219 L 292.542969 181.84375 C 297.550781 181.367188 301.464844 179.925781 304.277344 177.523438 C 307.15625 174.988281 308.222656 171.59375 307.46875 167.339844 C 306.917969 163.984375 305.511719 161.515625 303.25 159.933594 C 300.980469 158.355469 298.238281 157.707031 295.011719 157.980469 C 291.855469 158.1875 288.890625 159.25 286.109375 161.167969 C 283.332031 163.089844 281.421875 165.488281 280.394531 168.371094 C 280.121094 169.191406 279.605469 169.777344 278.851562 170.117188 C 278.09375 170.460938 277.308594 170.496094 276.484375 170.222656 C 275.660156 169.949219 275.074219 169.433594 274.734375 168.675781 C 274.390625 167.925781 274.355469 167.136719 274.628906 166.3125 " fill-opacity="1" fill-rule="nonzero"/></svg>