<svg xmlns="http://www.w3.org/2000/svg" xmlns:xlink="http://www.w3.org/1999/xlink" width="252" zoomAndPan="magnify" viewBox="0 0 189 137.249994" height="183" preserveAspectRatio="xMidYMid meet" version="1.0"><defs><clipPath id="d9a509a6c6"><path d="M 0.511719 1 L 188.484375 1 L 188.484375 136 L 0.511719 136 Z M 0.511719 1 " clip-rule="nonzero"/></clipPath></defs><g clip-path="url(#d9a509a6c6)"><path fill="#000000" d="M 13.996094 81.5 L 134.515625 81.5 C 135.867188 81.5 137.097656 82.316406 137.613281 83.570312 C 138.132812 84.824219 137.84375 86.265625 136.886719 87.226562 L 111.847656 112.261719 C 109.3125 114.796875 107.917969 118.164062 107.917969 121.746094 C 107.917969 125.328125 109.3125 128.695312 111.847656 131.230469 C 116.914062 136.304688 125.753906 136.304688 130.820312 131.230469 L 184.488281 77.570312 C 187.027344 75.035156 188.421875 71.667969 188.421875 68.085938 C 188.421875 64.503906 187.027344 61.132812 184.488281 58.597656 L 130.820312 4.933594 C 125.753906 -0.132812 116.914062 -0.132812 111.847656 4.933594 C 109.3125 7.46875 107.917969 10.835938 107.917969 14.421875 C 107.917969 18.007812 109.3125 21.375 111.847656 23.910156 L 136.886719 48.945312 C 137.84375 49.902344 138.132812 51.34375 137.613281 52.597656 C 137.097656 53.855469 135.867188 54.667969 134.515625 54.667969 L 13.996094 54.667969 C 6.597656 54.667969 0.578125 60.6875 0.578125 68.085938 C 0.578125 75.484375 6.597656 81.5 13.996094 81.5 Z M 13.996094 81.5 " fill-opacity="1" fill-rule="nonzero"/></g></svg>