<svg xmlns="http://www.w3.org/2000/svg" version="1.0" viewBox="0 0 375 374.999991">
  <path fill="#040606" d="M187.5 34.15625c84.660156 0 153.34375 68.683594 153.34375 153.34375S272.160156 340.84375 187.5 340.84375 34.15625 272.160156 34.15625 187.5 102.839844 34.15625 187.5 34.15625ZM187.5 0C84.027344 0 0 83.828125 0 187.5S83.828125 375 187.5 375 375 290.972656 375 187.5 290.972656 0 187.5 0"/>
  <path fill="#040606" d="M137.796875 95.480469c6.355469-5.726563 15.777344-5.925781 22.304687-.796875l1.832032 1.628906 76.269531 82.796875c5.527344 6.125 5.925781 15.117187 1.230469 21.472656l-1.828125 2.066407-76.273438 76.238281c-6.757812 6.757812-17.378906 6.757812-24.136719 0-6.125-6.125-6.523437-15.515625-1.628906-22.273438l1.628906-1.832031 64.621094-64.617188-65.21875-70.746093c-5.726562-6.359375-5.925781-15.746094-.832031-22.304688l2.03125-1.632812"/>
</svg>
