<svg xmlns="http://www.w3.org/2000/svg" xmlns:xlink="http://www.w3.org/1999/xlink" width="500" zoomAndPan="magnify" viewBox="0 0 375 374.999991" height="500" preserveAspectRatio="xMidYMid meet" version="1.0"><path fill="#4b7fca" d="M 295.738281 57.007812 L 256.6875 57.007812 L 256.6875 77.132812 L 293.253906 77.132812 L 293.253906 354.929688 L 81.746094 354.929688 L 81.746094 77.132812 L 118.3125 77.132812 L 118.3125 57.007812 L 79.261719 57.007812 C 69.527344 57.007812 61.625 64.914062 61.625 74.664062 L 61.625 357.414062 C 61.625 367.167969 69.527344 375.070312 79.261719 375.070312 L 295.738281 375.070312 C 305.472656 375.070312 313.375 367.167969 313.375 357.414062 L 313.375 74.664062 C 313.375 64.914062 305.472656 57.007812 295.738281 57.007812 " fill-opacity="1" fill-rule="nonzero"/><path fill="#c5dceb" d="M 275.96875 179.484375 L 163.546875 179.484375 L 163.546875 168.574219 L 275.96875 168.574219 Z M 275.96875 204.632812 L 163.546875 204.632812 L 163.546875 193.722656 L 275.96875 193.722656 Z M 275.96875 238.097656 L 163.546875 238.097656 L 163.546875 227.183594 L 275.96875 227.183594 Z M 275.96875 263.246094 L 163.546875 263.246094 L 163.546875 252.335938 L 275.96875 252.335938 Z M 275.96875 296.710938 L 163.546875 296.710938 L 163.546875 285.796875 L 275.96875 285.796875 Z M 275.96875 321.859375 L 163.546875 321.859375 L 163.546875 310.945312 L 275.96875 310.945312 Z M 146.617188 163.714844 L 146.617188 209.492188 L 100.785156 209.492188 L 100.785156 163.714844 L 129.726562 163.714844 C 132.195312 158.503906 134.660156 153.289062 137.183594 147.945312 C 140.582031 148.953125 143.386719 150.410156 146.617188 152.113281 C 144.917969 156.035156 143.21875 159.902344 141.519531 163.714844 Z M 146.617188 268.105469 L 100.785156 268.105469 L 100.785156 222.328125 L 146.617188 222.328125 Z M 146.617188 326.714844 L 100.785156 326.714844 L 100.785156 280.941406 L 146.617188 280.941406 Z M 256.6875 77.152344 L 256.6875 80.550781 C 256.6875 88.640625 250.128906 95.199219 241.984375 95.199219 L 132.960938 95.199219 C 124.871094 95.199219 118.3125 88.640625 118.3125 80.550781 L 118.3125 77.152344 L 81.730469 77.152344 L 81.730469 354.910156 L 293.269531 354.910156 L 293.269531 77.152344 L 256.6875 77.152344 " fill-opacity="1" fill-rule="nonzero"/><path fill="#ffffff" d="M 275.96875 285.796875 L 275.96875 296.710938 L 163.546875 296.710938 L 163.546875 285.796875 L 275.96875 285.796875 " fill-opacity="1" fill-rule="nonzero"/><path fill="#ffffff" d="M 275.96875 310.945312 L 275.96875 321.859375 L 163.546875 321.859375 L 163.546875 310.945312 L 275.96875 310.945312 " fill-opacity="1" fill-rule="nonzero"/><path fill="#ffffff" d="M 275.96875 227.183594 L 275.96875 238.097656 L 163.546875 238.097656 L 163.546875 227.183594 L 275.96875 227.183594 " fill-opacity="1" fill-rule="nonzero"/><path fill="#ffffff" d="M 275.96875 252.335938 L 275.96875 263.246094 L 163.546875 263.246094 L 163.546875 252.335938 L 275.96875 252.335938 " fill-opacity="1" fill-rule="nonzero"/><path fill="#ffffff" d="M 275.96875 168.574219 L 275.96875 179.484375 L 163.546875 179.484375 L 163.546875 168.574219 L 275.96875 168.574219 " fill-opacity="1" fill-rule="nonzero"/><path fill="#ffffff" d="M 275.96875 193.722656 L 275.96875 204.632812 L 163.546875 204.632812 L 163.546875 193.722656 L 275.96875 193.722656 " fill-opacity="1" fill-rule="nonzero"/><path fill="#004aad" d="M 187.5 11.847656 C 199.71875 11.847656 209.660156 21.769531 209.660156 34.007812 C 209.660156 35.148438 209.566406 36.25 209.398438 37.355469 C 207.792969 47.984375 198.597656 56.148438 187.5 56.148438 C 176.402344 56.148438 167.207031 47.984375 165.582031 37.355469 C 165.414062 36.25 165.320312 35.148438 165.320312 34.007812 C 165.320312 21.769531 175.261719 11.847656 187.5 11.847656 Z M 242 37.355469 L 221.394531 37.355469 C 221.523438 36.25 221.5625 35.148438 221.5625 34.007812 C 221.5625 15.175781 206.296875 -0.0703125 187.5 -0.0703125 C 168.683594 -0.0703125 153.421875 15.175781 153.421875 34.007812 C 153.421875 35.148438 153.476562 36.25 153.589844 37.355469 L 132.980469 37.355469 C 124.871094 37.355469 118.3125 43.949219 118.3125 52.039062 L 118.3125 80.550781 C 118.3125 88.640625 124.871094 95.21875 132.980469 95.21875 L 242 95.21875 C 250.109375 95.21875 256.6875 88.640625 256.6875 80.550781 L 256.6875 52.039062 C 256.6875 43.949219 250.109375 37.355469 242 37.355469 " fill-opacity="1" fill-rule="nonzero"/><path fill="#6fa4dc" d="M 142.734375 70.59375 C 142.734375 73.320312 141.332031 75.730469 139.21875 77.132812 C 137.988281 77.972656 136.492188 78.457031 134.867188 78.457031 C 133.257812 78.457031 131.765625 77.972656 130.511719 77.132812 C 128.402344 75.730469 127.019531 73.320312 127.019531 70.59375 C 127.019531 66.238281 130.53125 62.726562 134.867188 62.726562 C 139.21875 62.726562 142.734375 66.238281 142.734375 70.59375 " fill-opacity="1" fill-rule="nonzero"/><path fill="#6fa4dc" d="M 247.980469 70.59375 C 247.980469 73.320312 246.597656 75.730469 244.488281 77.132812 C 243.253906 77.972656 241.757812 78.457031 240.132812 78.457031 C 238.507812 78.457031 237.011719 77.972656 235.761719 77.132812 C 233.667969 75.730469 232.265625 73.320312 232.265625 70.59375 C 232.265625 66.238281 235.78125 62.726562 240.132812 62.726562 C 244.46875 62.726562 247.980469 66.238281 247.980469 70.59375 " fill-opacity="1" fill-rule="nonzero"/><path fill="#4b7fca" d="M 146.617188 163.714844 L 146.617188 209.492188 L 100.785156 209.492188 L 100.785156 163.714844 L 129.726562 163.714844 C 129.035156 165.117188 128.382812 166.59375 127.691406 167.992188 C 126.160156 171.636719 124.570312 175.261719 122.816406 179.371094 C 120.761719 175.5625 119.003906 172.382812 117.246094 169.113281 L 108.109375 174.085938 C 108.109375 174.085938 118.125 193.367188 123.28125 203.398438 C 128.925781 191.199219 134.304688 179.539062 139.707031 167.882812 C 140.285156 166.480469 140.9375 165.117188 141.519531 163.714844 L 146.617188 163.714844 " fill-opacity="1" fill-rule="nonzero"/><path fill="#4b7fca" d="M 146.617188 222.328125 L 146.617188 268.105469 L 100.785156 268.105469 L 100.785156 222.328125 L 146.617188 222.328125 " fill-opacity="1" fill-rule="nonzero"/><path fill="#4b7fca" d="M 146.617188 280.941406 L 146.617188 326.714844 L 100.785156 326.714844 L 100.785156 280.941406 L 146.617188 280.941406 " fill-opacity="1" fill-rule="nonzero"/><path fill="#ffffff" d="M 146.617188 152.113281 C 144.917969 156.035156 143.21875 159.902344 141.519531 163.714844 C 140.9375 165.117188 140.285156 166.480469 139.707031 167.882812 C 134.304688 179.539062 128.925781 191.199219 123.28125 203.398438 C 118.125 193.367188 108.109375 174.085938 108.109375 174.085938 L 117.246094 169.113281 C 119.003906 172.382812 120.761719 175.5625 122.816406 179.371094 C 124.570312 175.261719 126.160156 171.636719 127.691406 167.992188 C 128.382812 166.59375 129.035156 165.117188 129.726562 163.714844 C 132.195312 158.503906 134.660156 153.289062 137.183594 147.945312 C 140.582031 148.953125 143.386719 150.410156 146.617188 152.113281 " fill-opacity="1" fill-rule="nonzero"/></svg>