<svg xmlns="http://www.w3.org/2000/svg" xmlns:xlink="http://www.w3.org/1999/xlink" width="500" zoomAndPan="magnify" viewBox="0 0 375 374.999991" height="500" preserveAspectRatio="xMidYMid meet" version="1.0"><defs><g/><clipPath id="b6208d8768"><path d="M 46.445312 6.449219 L 327.09375 6.449219 L 327.09375 367.128906 L 46.445312 367.128906 Z M 46.445312 6.449219 " clip-rule="nonzero"/></clipPath><clipPath id="8e77ae6756"><path d="M 63.695312 6.449219 L 309.84375 6.449219 C 314.417969 6.449219 318.804688 8.265625 322.042969 11.503906 C 325.277344 14.738281 327.09375 19.125 327.09375 23.699219 L 327.09375 349.835938 C 327.09375 354.414062 325.277344 358.800781 322.042969 362.035156 C 318.804688 365.269531 314.417969 367.085938 309.84375 367.085938 L 63.695312 367.085938 C 59.117188 367.085938 54.730469 365.269531 51.496094 362.035156 C 48.261719 358.800781 46.445312 354.414062 46.445312 349.835938 L 46.445312 23.699219 C 46.445312 19.125 48.261719 14.738281 51.496094 11.503906 C 54.730469 8.265625 59.117188 6.449219 63.695312 6.449219 Z M 63.695312 6.449219 " clip-rule="nonzero"/></clipPath><clipPath id="3ab5d8c262"><path d="M 51.394531 91.386719 L 327.394531 91.386719 L 327.394531 367.386719 L 51.394531 367.386719 Z M 51.394531 91.386719 " clip-rule="nonzero"/></clipPath><clipPath id="3952229635"><path d="M 40.707031 0.0078125 L 333.957031 0.0078125 L 333.957031 375 L 40.707031 375 Z M 40.707031 0.0078125 " clip-rule="nonzero"/></clipPath><clipPath id="ae4b48d1ee"><path d="M 57.957031 0.0078125 L 317.035156 0.0078125 C 321.609375 0.0078125 325.996094 1.824219 329.230469 5.058594 C 332.46875 8.292969 334.285156 12.679688 334.285156 17.253906 L 334.285156 357.746094 C 334.285156 362.320312 332.46875 366.707031 329.230469 369.941406 C 325.996094 373.175781 321.609375 374.992188 317.035156 374.992188 L 57.957031 374.992188 C 53.382812 374.992188 48.992188 373.175781 45.757812 369.941406 C 42.523438 366.707031 40.707031 362.320312 40.707031 357.746094 L 40.707031 17.253906 C 40.707031 12.679688 42.523438 8.292969 45.757812 5.058594 C 48.992188 1.824219 53.382812 0.0078125 57.957031 0.0078125 Z M 57.957031 0.0078125 " clip-rule="nonzero"/></clipPath><clipPath id="a2dd63fd64"><path d="M 72.121094 136.5 L 303 136.5 L 303 153 L 72.121094 153 Z M 72.121094 136.5 " clip-rule="nonzero"/></clipPath><clipPath id="46faf84e05"><path d="M 71.371094 144.75 C 71.371094 149.71875 75.402344 153.75 80.371094 153.75 L 294.628906 153.75 C 299.597656 153.75 303.628906 149.71875 303.628906 144.75 C 303.628906 139.78125 299.597656 135.75 294.628906 135.75 L 80.371094 135.75 C 75.402344 135.75 71.371094 139.78125 71.371094 144.75 Z M 71.371094 144.75 " clip-rule="nonzero"/></clipPath><clipPath id="df740d0797"><path d="M 80.371094 136.648438 L 294.628906 136.648438 C 296.777344 136.648438 298.835938 137.503906 300.355469 139.023438 C 301.875 140.542969 302.730469 142.601562 302.730469 144.75 C 302.730469 146.898438 301.875 148.957031 300.355469 150.476562 C 298.835938 151.996094 296.777344 152.851562 294.628906 152.851562 L 80.371094 152.851562 C 75.898438 152.851562 72.269531 149.222656 72.269531 144.75 C 72.269531 140.277344 75.898438 136.648438 80.371094 136.648438 Z M 80.371094 136.648438 " clip-rule="nonzero"/></clipPath><clipPath id="810a6deee8"><path d="M 71.371094 135.75 L 303.867188 135.75 L 303.867188 153.75 L 71.371094 153.75 Z M 71.371094 135.75 " clip-rule="nonzero"/></clipPath><clipPath id="1e4bb1ea5c"><path d="M 71.371094 144.75 C 71.371094 149.71875 75.402344 153.75 80.371094 153.75 L 294.628906 153.75 C 299.597656 153.75 303.628906 149.71875 303.628906 144.75 C 303.628906 139.78125 299.597656 135.75 294.628906 135.75 L 80.371094 135.75 C 75.402344 135.75 71.371094 139.78125 71.371094 144.75 Z M 71.371094 144.75 " clip-rule="nonzero"/></clipPath><clipPath id="d6bb3229d3"><path d="M 71.371094 144.75 C 71.371094 149.71875 75.398438 153.75 80.371094 153.75 L 294.625 153.75 C 299.59375 153.75 303.625 149.71875 303.625 144.75 C 303.625 139.78125 299.59375 135.75 294.625 135.75 L 80.371094 135.75 C 75.398438 135.75 71.371094 139.78125 71.371094 144.75 Z M 71.371094 144.75 " clip-rule="nonzero"/></clipPath><clipPath id="3bf66ef505"><path d="M 72.121094 173.25 L 303 173.25 L 303 189.75 L 72.121094 189.75 Z M 72.121094 173.25 " clip-rule="nonzero"/></clipPath><clipPath id="103111776b"><path d="M 71.371094 181.5 C 71.371094 186.46875 75.402344 190.5 80.371094 190.5 L 294.628906 190.5 C 299.597656 190.5 303.628906 186.46875 303.628906 181.5 C 303.628906 176.53125 299.597656 172.5 294.628906 172.5 L 80.371094 172.5 C 75.402344 172.5 71.371094 176.53125 71.371094 181.5 Z M 71.371094 181.5 " clip-rule="nonzero"/></clipPath><clipPath id="b4ab031381"><path d="M 80.371094 173.398438 L 294.628906 173.398438 C 296.777344 173.398438 298.835938 174.253906 300.355469 175.773438 C 301.875 177.292969 302.730469 179.351562 302.730469 181.5 C 302.730469 183.648438 301.875 185.707031 300.355469 187.226562 C 298.835938 188.746094 296.777344 189.601562 294.628906 189.601562 L 80.371094 189.601562 C 75.898438 189.601562 72.269531 185.972656 72.269531 181.5 C 72.269531 177.027344 75.898438 173.398438 80.371094 173.398438 Z M 80.371094 173.398438 " clip-rule="nonzero"/></clipPath><clipPath id="14a5775551"><path d="M 71.371094 172.5 L 303.867188 172.5 L 303.867188 190.5 L 71.371094 190.5 Z M 71.371094 172.5 " clip-rule="nonzero"/></clipPath><clipPath id="aaebd80a95"><path d="M 71.371094 181.5 C 71.371094 186.46875 75.402344 190.5 80.371094 190.5 L 294.628906 190.5 C 299.597656 190.5 303.628906 186.46875 303.628906 181.5 C 303.628906 176.53125 299.597656 172.5 294.628906 172.5 L 80.371094 172.5 C 75.402344 172.5 71.371094 176.53125 71.371094 181.5 Z M 71.371094 181.5 " clip-rule="nonzero"/></clipPath><clipPath id="b2127c28d6"><path d="M 71.371094 181.5 C 71.371094 186.46875 75.398438 190.5 80.371094 190.5 L 294.625 190.5 C 299.59375 190.5 303.625 186.46875 303.625 181.5 C 303.625 176.53125 299.59375 172.5 294.625 172.5 L 80.371094 172.5 C 75.398438 172.5 71.371094 176.53125 71.371094 181.5 Z M 71.371094 181.5 " clip-rule="nonzero"/></clipPath><clipPath id="5da8bf3b1c"><path d="M 72.121094 210 L 303 210 L 303 226.5 L 72.121094 226.5 Z M 72.121094 210 " clip-rule="nonzero"/></clipPath><clipPath id="523b4c39fa"><path d="M 71.371094 218.25 C 71.371094 223.21875 75.402344 227.25 80.371094 227.25 L 294.628906 227.25 C 299.597656 227.25 303.628906 223.21875 303.628906 218.25 C 303.628906 213.28125 299.597656 209.25 294.628906 209.25 L 80.371094 209.25 C 75.402344 209.25 71.371094 213.28125 71.371094 218.25 Z M 71.371094 218.25 " clip-rule="nonzero"/></clipPath><clipPath id="43db5e5f21"><path d="M 80.371094 210.148438 L 294.628906 210.148438 C 296.777344 210.148438 298.835938 211.003906 300.355469 212.523438 C 301.875 214.042969 302.730469 216.101562 302.730469 218.25 C 302.730469 220.398438 301.875 222.457031 300.355469 223.976562 C 298.835938 225.496094 296.777344 226.351562 294.628906 226.351562 L 80.371094 226.351562 C 75.898438 226.351562 72.269531 222.722656 72.269531 218.25 C 72.269531 213.777344 75.898438 210.148438 80.371094 210.148438 Z M 80.371094 210.148438 " clip-rule="nonzero"/></clipPath><clipPath id="aa827714cb"><path d="M 71.371094 209.25 L 303.867188 209.25 L 303.867188 227.25 L 71.371094 227.25 Z M 71.371094 209.25 " clip-rule="nonzero"/></clipPath><clipPath id="7687bc5470"><path d="M 71.371094 218.25 C 71.371094 223.21875 75.402344 227.25 80.371094 227.25 L 294.628906 227.25 C 299.597656 227.25 303.628906 223.21875 303.628906 218.25 C 303.628906 213.28125 299.597656 209.25 294.628906 209.25 L 80.371094 209.25 C 75.402344 209.25 71.371094 213.28125 71.371094 218.25 Z M 71.371094 218.25 " clip-rule="nonzero"/></clipPath><clipPath id="3325647556"><path d="M 71.371094 218.25 C 71.371094 223.21875 75.398438 227.25 80.371094 227.25 L 294.625 227.25 C 299.59375 227.25 303.625 223.21875 303.625 218.25 C 303.625 213.28125 299.59375 209.25 294.625 209.25 L 80.371094 209.25 C 75.398438 209.25 71.371094 213.28125 71.371094 218.25 Z M 71.371094 218.25 " clip-rule="nonzero"/></clipPath><clipPath id="a4e07c978b"><path d="M 72.121094 246.75 L 303 246.75 L 303 263.25 L 72.121094 263.25 Z M 72.121094 246.75 " clip-rule="nonzero"/></clipPath><clipPath id="5f66960ab5"><path d="M 71.371094 255 C 71.371094 259.96875 75.402344 264 80.371094 264 L 294.628906 264 C 299.597656 264 303.628906 259.96875 303.628906 255 C 303.628906 250.03125 299.597656 246 294.628906 246 L 80.371094 246 C 75.402344 246 71.371094 250.03125 71.371094 255 Z M 71.371094 255 " clip-rule="nonzero"/></clipPath><clipPath id="2dc3ccc6ed"><path d="M 80.371094 246.898438 L 294.628906 246.898438 C 296.777344 246.898438 298.835938 247.753906 300.355469 249.273438 C 301.875 250.792969 302.730469 252.851562 302.730469 255 C 302.730469 257.148438 301.875 259.207031 300.355469 260.726562 C 298.835938 262.246094 296.777344 263.101562 294.628906 263.101562 L 80.371094 263.101562 C 75.898438 263.101562 72.269531 259.472656 72.269531 255 C 72.269531 250.527344 75.898438 246.898438 80.371094 246.898438 Z M 80.371094 246.898438 " clip-rule="nonzero"/></clipPath><clipPath id="d761cfe1ac"><path d="M 71.371094 246 L 303.867188 246 L 303.867188 264 L 71.371094 264 Z M 71.371094 246 " clip-rule="nonzero"/></clipPath><clipPath id="d7696bd128"><path d="M 71.371094 255 C 71.371094 259.96875 75.402344 264 80.371094 264 L 294.628906 264 C 299.597656 264 303.628906 259.96875 303.628906 255 C 303.628906 250.03125 299.597656 246 294.628906 246 L 80.371094 246 C 75.402344 246 71.371094 250.03125 71.371094 255 Z M 71.371094 255 " clip-rule="nonzero"/></clipPath><clipPath id="d140cf87aa"><path d="M 71.371094 255 C 71.371094 259.96875 75.398438 264 80.371094 264 L 294.625 264 C 299.59375 264 303.625 259.96875 303.625 255 C 303.625 250.03125 299.59375 246 294.625 246 L 80.371094 246 C 75.398438 246 71.371094 250.03125 71.371094 255 Z M 71.371094 255 " clip-rule="nonzero"/></clipPath><clipPath id="501cd7fce6"><path d="M 72.121094 283.5 L 303 283.5 L 303 300 L 72.121094 300 Z M 72.121094 283.5 " clip-rule="nonzero"/></clipPath><clipPath id="6126449a86"><path d="M 71.371094 291.75 C 71.371094 296.71875 75.402344 300.75 80.371094 300.75 L 294.628906 300.75 C 299.597656 300.75 303.628906 296.71875 303.628906 291.75 C 303.628906 286.78125 299.597656 282.75 294.628906 282.75 L 80.371094 282.75 C 75.402344 282.75 71.371094 286.78125 71.371094 291.75 Z M 71.371094 291.75 " clip-rule="nonzero"/></clipPath><clipPath id="337ad803ca"><path d="M 80.371094 283.648438 L 294.628906 283.648438 C 296.777344 283.648438 298.835938 284.503906 300.355469 286.023438 C 301.875 287.542969 302.730469 289.601562 302.730469 291.75 C 302.730469 293.898438 301.875 295.957031 300.355469 297.476562 C 298.835938 298.996094 296.777344 299.851562 294.628906 299.851562 L 80.371094 299.851562 C 75.898438 299.851562 72.269531 296.222656 72.269531 291.75 C 72.269531 287.277344 75.898438 283.648438 80.371094 283.648438 Z M 80.371094 283.648438 " clip-rule="nonzero"/></clipPath><clipPath id="98ca71e926"><path d="M 71.371094 282.75 L 303.867188 282.75 L 303.867188 300.75 L 71.371094 300.75 Z M 71.371094 282.75 " clip-rule="nonzero"/></clipPath><clipPath id="54a2fba565"><path d="M 71.371094 291.75 C 71.371094 296.71875 75.402344 300.75 80.371094 300.75 L 294.628906 300.75 C 299.597656 300.75 303.628906 296.71875 303.628906 291.75 C 303.628906 286.78125 299.597656 282.75 294.628906 282.75 L 80.371094 282.75 C 75.402344 282.75 71.371094 286.78125 71.371094 291.75 Z M 71.371094 291.75 " clip-rule="nonzero"/></clipPath><clipPath id="e31ba221b2"><path d="M 71.371094 291.75 C 71.371094 296.71875 75.398438 300.75 80.371094 300.75 L 294.625 300.75 C 299.59375 300.75 303.625 296.71875 303.625 291.75 C 303.625 286.78125 299.59375 282.75 294.625 282.75 L 80.371094 282.75 C 75.398438 282.75 71.371094 286.78125 71.371094 291.75 Z M 71.371094 291.75 " clip-rule="nonzero"/></clipPath><clipPath id="4f9ca75d3e"><path d="M 72.121094 320.25 L 303 320.25 L 303 336.75 L 72.121094 336.75 Z M 72.121094 320.25 " clip-rule="nonzero"/></clipPath><clipPath id="5d681a49a1"><path d="M 71.371094 328.5 C 71.371094 333.46875 75.402344 337.5 80.371094 337.5 L 294.628906 337.5 C 299.597656 337.5 303.628906 333.46875 303.628906 328.5 C 303.628906 323.53125 299.597656 319.5 294.628906 319.5 L 80.371094 319.5 C 75.402344 319.5 71.371094 323.53125 71.371094 328.5 Z M 71.371094 328.5 " clip-rule="nonzero"/></clipPath><clipPath id="b140ec8f26"><path d="M 80.371094 320.398438 L 294.628906 320.398438 C 296.777344 320.398438 298.835938 321.253906 300.355469 322.773438 C 301.875 324.292969 302.730469 326.351562 302.730469 328.5 C 302.730469 330.648438 301.875 332.707031 300.355469 334.226562 C 298.835938 335.746094 296.777344 336.601562 294.628906 336.601562 L 80.371094 336.601562 C 75.898438 336.601562 72.269531 332.972656 72.269531 328.5 C 72.269531 324.027344 75.898438 320.398438 80.371094 320.398438 Z M 80.371094 320.398438 " clip-rule="nonzero"/></clipPath><clipPath id="43c982d4ef"><path d="M 71.371094 319.5 L 303.867188 319.5 L 303.867188 337.5 L 71.371094 337.5 Z M 71.371094 319.5 " clip-rule="nonzero"/></clipPath><clipPath id="776d08ebe3"><path d="M 71.371094 328.5 C 71.371094 333.46875 75.402344 337.5 80.371094 337.5 L 294.628906 337.5 C 299.597656 337.5 303.628906 333.46875 303.628906 328.5 C 303.628906 323.53125 299.597656 319.5 294.628906 319.5 L 80.371094 319.5 C 75.402344 319.5 71.371094 323.53125 71.371094 328.5 Z M 71.371094 328.5 " clip-rule="nonzero"/></clipPath><clipPath id="43909d3aea"><path d="M 71.371094 328.5 C 71.371094 333.46875 75.398438 337.5 80.371094 337.5 L 294.625 337.5 C 299.59375 337.5 303.625 333.46875 303.625 328.5 C 303.625 323.53125 299.59375 319.5 294.625 319.5 L 80.371094 319.5 C 75.398438 319.5 71.371094 323.53125 71.371094 328.5 Z M 71.371094 328.5 " clip-rule="nonzero"/></clipPath></defs><g clip-path="url(#b6208d8768)"><g clip-path="url(#8e77ae6756)"><path fill="#ffffff" d="M 46.445312 6.449219 L 327.09375 6.449219 L 327.09375 367.128906 L 46.445312 367.128906 Z M 46.445312 6.449219 " fill-opacity="1" fill-rule="nonzero"/></g></g><g clip-path="url(#3ab5d8c262)"><path fill="#5ce1e6" d="M 327.089844 91.386719 L 327.089844 367.082031 L 51.394531 367.082031 Z M 327.089844 91.386719 " fill-opacity="1" fill-rule="nonzero"/></g><g clip-path="url(#3952229635)"><g clip-path="url(#ae4b48d1ee)"><path stroke-linecap="butt" transform="matrix(0.75, 0, 0, 0.75, 40.706253, 0.00598602)" fill="none" stroke-linejoin="miter" d="M 23.001041 0.0024353 L 368.438585 0.0024353 C 374.537545 0.0024353 380.386504 2.424311 384.699004 6.736811 C 389.016713 11.049312 391.438588 16.898271 391.438588 22.99723 L 391.438588 476.986872 C 391.438588 483.085831 389.016713 488.93479 384.699004 493.247291 C 380.386504 497.559791 374.537545 499.981667 368.438585 499.981667 L 23.001041 499.981667 C 16.902081 499.981667 11.047914 497.559791 6.735414 493.247291 C 2.422913 488.93479 0.00103763 483.085831 0.00103763 476.986872 L 0.00103763 22.99723 C 0.00103763 16.898271 2.422913 11.049312 6.735414 6.736811 C 11.047914 2.424311 16.902081 0.0024353 23.001041 0.0024353 Z M 23.001041 0.0024353 " stroke="#2d3642" stroke-width="48" stroke-opacity="1" stroke-miterlimit="4"/></g></g><g clip-path="url(#a2dd63fd64)"><g clip-path="url(#46faf84e05)"><g clip-path="url(#df740d0797)"><path fill="#2d3642" d="M 71.371094 135.816406 L 303.625 135.816406 L 303.625 153.683594 L 71.371094 153.683594 Z M 71.371094 135.816406 " fill-opacity="1" fill-rule="nonzero"/></g></g></g><g clip-path="url(#810a6deee8)"><g clip-path="url(#1e4bb1ea5c)"><g clip-path="url(#d6bb3229d3)"><path stroke-linecap="butt" transform="matrix(0.75, 0, 0, 0.75, 71.370967, 135.749991)" fill="none" stroke-linejoin="miter" d="M 0.000168982 12.000013 C 0.000168982 18.625013 5.369961 24.000013 12.000171 24.000013 L 297.672083 24.000013 C 304.297083 24.000013 309.672084 18.625013 309.672084 12.000013 C 309.672084 5.375012 304.297083 0.0000118857 297.672083 0.0000118857 L 12.000171 0.0000118857 C 5.369961 0.0000118857 0.000168982 5.375012 0.000168982 12.000013 Z M 0.000168982 12.000013 " stroke="#2d3642" stroke-width="48" stroke-opacity="1" stroke-miterlimit="4"/></g></g></g><g clip-path="url(#3bf66ef505)"><g clip-path="url(#103111776b)"><g clip-path="url(#b4ab031381)"><path fill="#2d3642" d="M 71.371094 172.566406 L 303.625 172.566406 L 303.625 190.433594 L 71.371094 190.433594 Z M 71.371094 172.566406 " fill-opacity="1" fill-rule="nonzero"/></g></g></g><g clip-path="url(#14a5775551)"><g clip-path="url(#aaebd80a95)"><g clip-path="url(#b2127c28d6)"><path stroke-linecap="butt" transform="matrix(0.75, 0, 0, 0.75, 71.370967, 172.499989)" fill="none" stroke-linejoin="miter" d="M 0.000168982 12.000016 C 0.000168982 18.625016 5.369961 24.000017 12.000171 24.000017 L 297.672083 24.000017 C 304.297083 24.000017 309.672084 18.625016 309.672084 12.000016 C 309.672084 5.375015 304.297083 0.0000151033 297.672083 0.0000151033 L 12.000171 0.0000151033 C 5.369961 0.0000151033 0.000168982 5.375015 0.000168982 12.000016 Z M 0.000168982 12.000016 " stroke="#2d3642" stroke-width="48" stroke-opacity="1" stroke-miterlimit="4"/></g></g></g><g clip-path="url(#5da8bf3b1c)"><g clip-path="url(#523b4c39fa)"><g clip-path="url(#43db5e5f21)"><path fill="#2d3642" d="M 71.371094 209.316406 L 303.625 209.316406 L 303.625 227.183594 L 71.371094 227.183594 Z M 71.371094 209.316406 " fill-opacity="1" fill-rule="nonzero"/></g></g></g><g clip-path="url(#aa827714cb)"><g clip-path="url(#7687bc5470)"><g clip-path="url(#3325647556)"><path stroke-linecap="butt" transform="matrix(0.75, 0, 0, 0.75, 71.370967, 209.249986)" fill="none" stroke-linejoin="miter" d="M 0.000168982 12.000019 C 0.000168982 18.62502 5.369961 24.00002 12.000171 24.00002 L 297.672083 24.00002 C 304.297083 24.00002 309.672084 18.62502 309.672084 12.000019 C 309.672084 5.375019 304.297083 0.000018321 297.672083 0.000018321 L 12.000171 0.000018321 C 5.369961 0.000018321 0.000168982 5.375019 0.000168982 12.000019 Z M 0.000168982 12.000019 " stroke="#2d3642" stroke-width="48" stroke-opacity="1" stroke-miterlimit="4"/></g></g></g><g clip-path="url(#a4e07c978b)"><g clip-path="url(#5f66960ab5)"><g clip-path="url(#2dc3ccc6ed)"><path fill="#2d3642" d="M 71.371094 246.066406 L 303.625 246.066406 L 303.625 263.933594 L 71.371094 263.933594 Z M 71.371094 246.066406 " fill-opacity="1" fill-rule="nonzero"/></g></g></g><g clip-path="url(#d761cfe1ac)"><g clip-path="url(#d7696bd128)"><g clip-path="url(#d140cf87aa)"><path stroke-linecap="butt" transform="matrix(0.75, 0, 0, 0.75, 71.370967, 245.999984)" fill="none" stroke-linejoin="miter" d="M 0.000168982 12.000022 C 0.000168982 18.625023 5.369961 24.000023 12.000171 24.000023 L 297.672083 24.000023 C 304.297083 24.000023 309.672084 18.625023 309.672084 12.000022 C 309.672084 5.375022 304.297083 0.0000215387 297.672083 0.0000215387 L 12.000171 0.0000215387 C 5.369961 0.0000215387 0.000168982 5.375022 0.000168982 12.000022 Z M 0.000168982 12.000022 " stroke="#2d3642" stroke-width="48" stroke-opacity="1" stroke-miterlimit="4"/></g></g></g><g clip-path="url(#501cd7fce6)"><g clip-path="url(#6126449a86)"><g clip-path="url(#337ad803ca)"><path fill="#2d3642" d="M 71.371094 282.816406 L 303.625 282.816406 L 303.625 300.683594 L 71.371094 300.683594 Z M 71.371094 282.816406 " fill-opacity="1" fill-rule="nonzero"/></g></g></g><g clip-path="url(#98ca71e926)"><g clip-path="url(#54a2fba565)"><g clip-path="url(#e31ba221b2)"><path stroke-linecap="butt" transform="matrix(0.75, 0, 0, 0.75, 71.370967, 282.749981)" fill="none" stroke-linejoin="miter" d="M 0.000168982 12.000026 C 0.000168982 18.625026 5.369961 24.000026 12.000171 24.000026 L 297.672083 24.000026 C 304.297083 24.000026 309.672084 18.625026 309.672084 12.000026 C 309.672084 5.375025 304.297083 0.0000247563 297.672083 0.0000247563 L 12.000171 0.0000247563 C 5.369961 0.0000247563 0.000168982 5.375025 0.000168982 12.000026 Z M 0.000168982 12.000026 " stroke="#2d3642" stroke-width="48" stroke-opacity="1" stroke-miterlimit="4"/></g></g></g><g clip-path="url(#4f9ca75d3e)"><g clip-path="url(#5d681a49a1)"><g clip-path="url(#b140ec8f26)"><path fill="#2d3642" d="M 71.371094 319.566406 L 303.625 319.566406 L 303.625 337.433594 L 71.371094 337.433594 Z M 71.371094 319.566406 " fill-opacity="1" fill-rule="nonzero"/></g></g></g><g clip-path="url(#43c982d4ef)"><g clip-path="url(#776d08ebe3)"><g clip-path="url(#43909d3aea)"><path stroke-linecap="butt" transform="matrix(0.75, 0, 0, 0.75, 71.370967, 319.499979)" fill="none" stroke-linejoin="miter" d="M 0.000168982 12.000029 C 0.000168982 18.625029 5.369961 24.00003 12.000171 24.00003 L 297.672083 24.00003 C 304.297083 24.00003 309.672084 18.625029 309.672084 12.000029 C 309.672084 5.375028 304.297083 0.000027974 297.672083 0.000027974 L 12.000171 0.000027974 C 5.369961 0.000027974 0.000168982 5.375028 0.000168982 12.000029 Z M 0.000168982 12.000029 " stroke="#2d3642" stroke-width="48" stroke-opacity="1" stroke-miterlimit="4"/></g></g></g><g fill="#2d3642" fill-opacity="1"><g transform="translate(87.37409, 97.650345)"><g><path d="M 10.828125 -34.890625 C 10.609375 -34.890625 10.179688 -34.84375 9.546875 -34.75 C 8.921875 -34.65625 8.1875 -34.535156 7.34375 -34.390625 C 6.507812 -34.253906 5.628906 -34.09375 4.703125 -33.90625 C 3.773438 -33.726562 2.90625 -33.566406 2.09375 -33.421875 C 1.28125 -33.285156 0.578125 -33.164062 -0.015625 -33.0625 C -0.617188 -32.96875 -1.019531 -32.921875 -1.21875 -32.921875 C -3.09375 -32.921875 -4.03125 -33.898438 -4.03125 -35.859375 C -4.03125 -36.390625 -3.976562 -36.914062 -3.875 -37.4375 C -3.78125 -37.957031 -3.609375 -38.429688 -3.359375 -38.859375 C -3.109375 -39.296875 -2.769531 -39.664062 -2.34375 -39.96875 C -1.925781 -40.28125 -1.394531 -40.492188 -0.75 -40.609375 C 2.519531 -41.109375 5.78125 -41.640625 9.03125 -42.203125 C 12.28125 -42.765625 15.554688 -43.351562 18.859375 -43.96875 C 19.585938 -44.101562 20.242188 -44.234375 20.828125 -44.359375 C 21.410156 -44.484375 22.066406 -44.660156 22.796875 -44.890625 C 23.585938 -45.109375 24.441406 -45.320312 25.359375 -45.53125 C 26.285156 -45.75 27.21875 -45.941406 28.15625 -46.109375 C 29.09375 -46.273438 30 -46.414062 30.875 -46.53125 C 31.757812 -46.644531 32.566406 -46.703125 33.296875 -46.703125 C 34.191406 -46.703125 34.867188 -46.410156 35.328125 -45.828125 C 35.796875 -45.253906 36.03125 -44.453125 36.03125 -43.421875 C 36.03125 -42.890625 35.988281 -42.378906 35.90625 -41.890625 C 35.820312 -41.398438 35.664062 -40.957031 35.4375 -40.5625 C 35.21875 -40.175781 34.910156 -39.851562 34.515625 -39.59375 C 34.128906 -39.34375 33.625 -39.191406 33 -39.140625 C 31.40625 -38.910156 29.695312 -38.632812 27.875 -38.3125 C 26.0625 -37.988281 24.484375 -37.632812 23.140625 -37.25 C 22.578125 -37.082031 22.15625 -36.804688 21.875 -36.421875 C 21.59375 -36.046875 21.410156 -35.578125 21.328125 -35.015625 C 21.242188 -34.484375 21.195312 -33.945312 21.1875 -33.40625 C 21.175781 -32.863281 21.171875 -32.335938 21.171875 -31.828125 C 21.171875 -30.648438 21.21875 -29.472656 21.3125 -28.296875 C 21.40625 -27.128906 21.492188 -25.957031 21.578125 -24.78125 C 21.835938 -20.75 22.222656 -16.757812 22.734375 -12.8125 C 23.253906 -8.863281 23.820312 -4.875 24.4375 -0.84375 C 24.5 -0.695312 24.53125 -0.550781 24.53125 -0.40625 C 24.53125 -0.269531 24.53125 -0.132812 24.53125 0 C 24.53125 1.539062 23.660156 2.632812 21.921875 3.28125 L 20.03125 3.859375 C 19.53125 4.023438 19.039062 4.109375 18.5625 4.109375 C 17.832031 4.109375 17.242188 3.878906 16.796875 3.421875 C 16.347656 2.960938 16.054688 2.285156 15.921875 1.390625 C 15.128906 -3.429688 14.4375 -8.226562 13.84375 -13 C 13.257812 -17.769531 12.882812 -22.578125 12.71875 -27.421875 C 12.664062 -28.203125 12.625 -29.054688 12.59375 -29.984375 C 12.570312 -30.910156 12.5625 -31.863281 12.5625 -32.84375 C 12.5625 -34.207031 11.984375 -34.890625 10.828125 -34.890625 Z M 10.828125 -34.890625 "/></g></g></g><g fill="#2d3642" fill-opacity="1"><g transform="translate(120.460926, 97.650345)"><g><path d="M 4.03125 -13.9375 C 4.03125 -14.414062 4.085938 -14.945312 4.203125 -15.53125 C 4.316406 -16.125 4.375 -16.769531 4.375 -17.46875 C 4.375 -17.945312 4.171875 -18.3125 3.765625 -18.5625 C 3.359375 -18.8125 2.898438 -19.085938 2.390625 -19.390625 C 1.890625 -19.703125 1.4375 -20.097656 1.03125 -20.578125 C 0.625 -21.054688 0.421875 -21.742188 0.421875 -22.640625 C 0.421875 -23.273438 0.59375 -23.914062 0.9375 -24.5625 C 1.289062 -25.207031 1.804688 -25.796875 2.484375 -26.328125 C 4.128906 -27.554688 5.835938 -28.660156 7.609375 -29.640625 C 9.390625 -30.617188 11.171875 -31.441406 12.953125 -32.109375 C 14.734375 -32.785156 16.488281 -33.304688 18.21875 -33.671875 C 19.957031 -34.035156 21.625 -34.21875 23.21875 -34.21875 C 25.90625 -34.21875 28.429688 -33.722656 30.796875 -32.734375 C 33.160156 -31.742188 35.21875 -30.382812 36.96875 -28.65625 C 38.71875 -26.9375 40.101562 -24.921875 41.125 -22.609375 C 42.15625 -20.304688 42.671875 -17.835938 42.671875 -15.203125 C 42.671875 -12.628906 42.128906 -10.1875 41.046875 -7.875 C 39.972656 -5.5625 38.523438 -3.535156 36.703125 -1.796875 C 34.878906 -0.0664062 32.742188 1.304688 30.296875 2.328125 C 27.847656 3.347656 25.265625 3.859375 22.546875 3.859375 C 19.890625 3.859375 17.425781 3.410156 15.15625 2.515625 C 12.894531 1.617188 10.9375 0.382812 9.28125 -1.1875 C 7.625 -2.769531 6.332031 -4.644531 5.40625 -6.8125 C 4.488281 -8.988281 4.03125 -11.363281 4.03125 -13.9375 Z M 23.46875 -3.703125 C 24.644531 -3.703125 25.863281 -3.9375 27.125 -4.40625 C 28.382812 -4.882812 29.539062 -5.578125 30.59375 -6.484375 C 31.644531 -7.398438 32.507812 -8.515625 33.1875 -9.828125 C 33.875 -11.140625 34.21875 -12.625 34.21875 -14.28125 C 34.21875 -15.957031 33.910156 -17.523438 33.296875 -18.984375 C 32.679688 -20.441406 31.832031 -21.707031 30.75 -22.78125 C 29.675781 -23.851562 28.40625 -24.695312 26.9375 -25.3125 C 25.46875 -25.9375 23.878906 -26.25 22.171875 -26.25 C 19.066406 -26.25 16.6875 -25.441406 15.03125 -23.828125 C 13.382812 -22.222656 12.5625 -19.753906 12.5625 -16.421875 C 12.5625 -14.597656 12.832031 -12.910156 13.375 -11.359375 C 13.914062 -9.804688 14.675781 -8.460938 15.65625 -7.328125 C 16.644531 -6.191406 17.800781 -5.300781 19.125 -4.65625 C 20.457031 -4.019531 21.90625 -3.703125 23.46875 -3.703125 Z M 23.46875 -3.703125 "/></g></g></g><g fill="#2d3642" fill-opacity="1"><g transform="translate(165.094563, 97.650345)"><g/></g></g><g fill="#2d3642" fill-opacity="1"><g transform="translate(185.458922, 97.650345)"><g><path d="M -0.59375 -32.078125 C -0.957031 -32.023438 -1.265625 -31.984375 -1.515625 -31.953125 C -1.765625 -31.929688 -1.972656 -31.921875 -2.140625 -31.921875 C -3.085938 -31.972656 -3.757812 -32.242188 -4.15625 -32.734375 C -4.550781 -33.222656 -4.75 -34.039062 -4.75 -35.1875 C -4.75 -37.457031 -3.65625 -38.882812 -1.46875 -39.46875 C 0.457031 -39.914062 2.523438 -40.242188 4.734375 -40.453125 C 6.953125 -40.671875 9.421875 -40.78125 12.140625 -40.78125 C 15.773438 -40.78125 19.390625 -40.425781 22.984375 -39.71875 C 26.585938 -39.019531 30.019531 -38.0625 33.28125 -36.84375 C 36.539062 -35.625 39.566406 -34.179688 42.359375 -32.515625 C 45.160156 -30.859375 47.59375 -29.054688 49.65625 -27.109375 C 51.71875 -25.160156 53.328125 -23.113281 54.484375 -20.96875 C 55.648438 -18.832031 56.234375 -16.6875 56.234375 -14.53125 C 56.234375 -12.34375 55.492188 -10.257812 54.015625 -8.28125 C 52.546875 -6.3125 50.566406 -4.570312 48.078125 -3.0625 C 45.585938 -1.550781 42.703125 -0.347656 39.421875 0.546875 C 36.148438 1.441406 32.722656 1.890625 29.140625 1.890625 C 26.285156 1.890625 23.300781 1.625 20.1875 1.09375 C 17.082031 0.5625 13.65625 -0.289062 9.90625 -1.46875 C 8.175781 -1.945312 7.3125 -3.007812 7.3125 -4.65625 C 7.3125 -5.019531 7.394531 -5.351562 7.5625 -5.65625 C 7.726562 -5.96875 7.898438 -6.265625 8.078125 -6.546875 C 8.265625 -6.828125 8.441406 -7.097656 8.609375 -7.359375 C 8.773438 -7.628906 8.859375 -7.90625 8.859375 -8.1875 C 8.859375 -9.78125 8.78125 -11.488281 8.625 -13.3125 C 8.476562 -15.132812 8.269531 -16.953125 8 -18.765625 C 7.726562 -20.585938 7.414062 -22.332031 7.0625 -24 C 6.71875 -25.664062 6.363281 -27.140625 6 -28.421875 C 5.632812 -29.710938 5.265625 -30.742188 4.890625 -31.515625 C 4.515625 -32.285156 4.171875 -32.671875 3.859375 -32.671875 C 3.390625 -32.671875 2.8125 -32.613281 2.125 -32.5 C 1.4375 -32.382812 0.53125 -32.242188 -0.59375 -32.078125 Z M 15.578125 -32.75 C 14.765625 -32.75 14.359375 -32.472656 14.359375 -31.921875 C 14.359375 -31.773438 14.398438 -31.535156 14.484375 -31.203125 C 14.566406 -30.867188 14.691406 -30.335938 14.859375 -29.609375 C 15.117188 -28.429688 15.359375 -27.171875 15.578125 -25.828125 C 15.804688 -24.484375 16.03125 -22.976562 16.25 -21.3125 C 16.476562 -19.644531 16.695312 -17.78125 16.90625 -15.71875 C 17.113281 -13.664062 17.328125 -11.351562 17.546875 -8.78125 C 17.578125 -8.351562 17.957031 -7.953125 18.6875 -7.578125 C 19.414062 -7.203125 20.378906 -6.863281 21.578125 -6.5625 C 22.785156 -6.269531 24.164062 -6.03125 25.71875 -5.84375 C 27.269531 -5.664062 28.875 -5.578125 30.53125 -5.578125 C 32.707031 -5.578125 34.796875 -5.835938 36.796875 -6.359375 C 38.804688 -6.878906 40.570312 -7.570312 42.09375 -8.4375 C 43.625 -9.3125 44.84375 -10.320312 45.75 -11.46875 C 46.65625 -12.613281 47.109375 -13.800781 47.109375 -15.03125 C 47.109375 -17.070312 46.300781 -19.054688 44.6875 -20.984375 C 43.082031 -22.921875 40.863281 -24.679688 38.03125 -26.265625 C 35.207031 -27.847656 31.878906 -29.207031 28.046875 -30.34375 C 24.210938 -31.476562 20.054688 -32.28125 15.578125 -32.75 Z M 15.578125 -32.75 "/></g></g></g><g fill="#2d3642" fill-opacity="1"><g transform="translate(241.513396, 97.650345)"><g><path d="M 4.03125 -13.9375 C 4.03125 -14.414062 4.085938 -14.945312 4.203125 -15.53125 C 4.316406 -16.125 4.375 -16.769531 4.375 -17.46875 C 4.375 -17.945312 4.171875 -18.3125 3.765625 -18.5625 C 3.359375 -18.8125 2.898438 -19.085938 2.390625 -19.390625 C 1.890625 -19.703125 1.4375 -20.097656 1.03125 -20.578125 C 0.625 -21.054688 0.421875 -21.742188 0.421875 -22.640625 C 0.421875 -23.273438 0.59375 -23.914062 0.9375 -24.5625 C 1.289062 -25.207031 1.804688 -25.796875 2.484375 -26.328125 C 4.128906 -27.554688 5.835938 -28.660156 7.609375 -29.640625 C 9.390625 -30.617188 11.171875 -31.441406 12.953125 -32.109375 C 14.734375 -32.785156 16.488281 -33.304688 18.21875 -33.671875 C 19.957031 -34.035156 21.625 -34.21875 23.21875 -34.21875 C 25.90625 -34.21875 28.429688 -33.722656 30.796875 -32.734375 C 33.160156 -31.742188 35.21875 -30.382812 36.96875 -28.65625 C 38.71875 -26.9375 40.101562 -24.921875 41.125 -22.609375 C 42.15625 -20.304688 42.671875 -17.835938 42.671875 -15.203125 C 42.671875 -12.628906 42.128906 -10.1875 41.046875 -7.875 C 39.972656 -5.5625 38.523438 -3.535156 36.703125 -1.796875 C 34.878906 -0.0664062 32.742188 1.304688 30.296875 2.328125 C 27.847656 3.347656 25.265625 3.859375 22.546875 3.859375 C 19.890625 3.859375 17.425781 3.410156 15.15625 2.515625 C 12.894531 1.617188 10.9375 0.382812 9.28125 -1.1875 C 7.625 -2.769531 6.332031 -4.644531 5.40625 -6.8125 C 4.488281 -8.988281 4.03125 -11.363281 4.03125 -13.9375 Z M 23.46875 -3.703125 C 24.644531 -3.703125 25.863281 -3.9375 27.125 -4.40625 C 28.382812 -4.882812 29.539062 -5.578125 30.59375 -6.484375 C 31.644531 -7.398438 32.507812 -8.515625 33.1875 -9.828125 C 33.875 -11.140625 34.21875 -12.625 34.21875 -14.28125 C 34.21875 -15.957031 33.910156 -17.523438 33.296875 -18.984375 C 32.679688 -20.441406 31.832031 -21.707031 30.75 -22.78125 C 29.675781 -23.851562 28.40625 -24.695312 26.9375 -25.3125 C 25.46875 -25.9375 23.878906 -26.25 22.171875 -26.25 C 19.066406 -26.25 16.6875 -25.441406 15.03125 -23.828125 C 13.382812 -22.222656 12.5625 -19.753906 12.5625 -16.421875 C 12.5625 -14.597656 12.832031 -12.910156 13.375 -11.359375 C 13.914062 -9.804688 14.675781 -8.460938 15.65625 -7.328125 C 16.644531 -6.191406 17.800781 -5.300781 19.125 -4.65625 C 20.457031 -4.019531 21.90625 -3.703125 23.46875 -3.703125 Z M 23.46875 -3.703125 "/></g></g></g></svg>