<svg xmlns="http://www.w3.org/2000/svg" xmlns:xlink="http://www.w3.org/1999/xlink" width="500" zoomAndPan="magnify" viewBox="0 0 375 374.999991" height="500" preserveAspectRatio="xMidYMid meet" version="1.0"><defs><clipPath id="b576fc4f4c"><path d="M 9 74.53125 L 362 74.53125 L 362 289 L 9 289 Z M 9 74.53125 " clip-rule="nonzero"/></clipPath><clipPath id="bb38c9c5c3"><path d="M 0 255 L 45 255 L 45 300.28125 L 0 300.28125 Z M 0 255 " clip-rule="nonzero"/></clipPath><clipPath id="da98581700"><path d="M 51 107 L 71 107 L 71 127 L 51 127 Z M 51 107 " clip-rule="nonzero"/></clipPath><clipPath id="6df70e354c"><path d="M 51.765625 107.410156 L 70.496094 108.332031 L 69.570312 127.0625 L 50.84375 126.136719 Z M 51.765625 107.410156 " clip-rule="nonzero"/></clipPath><clipPath id="ee80124806"><path d="M 61.132812 107.871094 C 55.960938 107.617188 51.5625 111.601562 51.304688 116.773438 C 51.050781 121.945312 55.035156 126.34375 60.207031 126.597656 C 65.378906 126.855469 69.777344 122.867188 70.03125 117.695312 C 70.289062 112.527344 66.300781 108.125 61.132812 107.871094 Z M 61.132812 107.871094 " clip-rule="nonzero"/></clipPath><clipPath id="24d215657a"><path d="M 51 139 L 70 139 L 70 158 L 51 158 Z M 51 139 " clip-rule="nonzero"/></clipPath><clipPath id="6d0120dec7"><path d="M 51.460938 138.773438 L 70.199219 139.390625 L 69.582031 158.132812 L 50.84375 157.515625 Z M 51.460938 138.773438 " clip-rule="nonzero"/></clipPath><clipPath id="6ac83bcab2"><path d="M 60.832031 139.082031 C 55.65625 138.914062 51.324219 142.96875 51.152344 148.144531 C 50.980469 153.320312 55.039062 157.652344 60.214844 157.824219 C 65.386719 157.992188 69.722656 153.9375 69.890625 148.761719 C 70.0625 143.585938 66.003906 139.253906 60.832031 139.082031 Z M 60.832031 139.082031 " clip-rule="nonzero"/></clipPath><clipPath id="cdace44552"><path d="M 51 169 L 70 169 L 70 189 L 51 189 Z M 51 169 " clip-rule="nonzero"/></clipPath><clipPath id="a0a7991b87"><path d="M 51.199219 169.492188 L 69.945312 169.847656 L 69.589844 188.59375 L 50.84375 188.238281 Z M 51.199219 169.492188 " clip-rule="nonzero"/></clipPath><clipPath id="d4899eca82"><path d="M 60.574219 169.671875 C 55.394531 169.570312 51.121094 173.6875 51.023438 178.867188 C 50.921875 184.042969 55.039062 188.320312 60.21875 188.417969 C 65.394531 188.515625 69.671875 184.398438 69.769531 179.222656 C 69.867188 174.042969 65.75 169.769531 60.574219 169.671875 Z M 60.574219 169.671875 " clip-rule="nonzero"/></clipPath><clipPath id="a56e728e3c"><path d="M 50.84375 199.539062 L 69.59375 199.539062 L 69.59375 218.289062 L 50.84375 218.289062 Z M 50.84375 199.539062 " clip-rule="nonzero"/></clipPath><clipPath id="4c18fc7335"><path d="M 60.21875 199.539062 C 55.042969 199.539062 50.84375 203.738281 50.84375 208.914062 C 50.84375 214.09375 55.042969 218.289062 60.21875 218.289062 C 65.398438 218.289062 69.59375 214.09375 69.59375 208.914062 C 69.59375 203.738281 65.398438 199.539062 60.21875 199.539062 Z M 60.21875 199.539062 " clip-rule="nonzero"/></clipPath><clipPath id="c31d4b863b"><path d="M 51 232 L 70 232 L 70 251 L 51 251 Z M 51 232 " clip-rule="nonzero"/></clipPath><clipPath id="c48e30ce91"><path d="M 50.84375 232.40625 L 69.578125 231.671875 L 70.3125 250.410156 L 51.578125 251.140625 Z M 50.84375 232.40625 " clip-rule="nonzero"/></clipPath><clipPath id="d06048e048"><path d="M 60.210938 232.039062 C 55.039062 232.242188 51.007812 236.601562 51.210938 241.773438 C 51.414062 246.949219 55.773438 250.976562 60.945312 250.777344 C 66.121094 250.574219 70.148438 246.214844 69.945312 241.039062 C 69.742188 235.867188 65.386719 231.835938 60.210938 232.039062 Z M 60.210938 232.039062 " clip-rule="nonzero"/></clipPath></defs><path fill="#f24c3d" d="M 316.730469 103.121094 L 51.410156 89.953125 C 37.464844 89.257812 25.878906 100.269531 26.289062 113.835938 L 30.339844 250.960938 C 30.738281 264.320312 42.621094 274.613281 56.328125 273.453125 L 283.199219 254.207031 C 292.804688 253.394531 300.972656 247.042969 303.910156 238.117188 L 338.292969 133.414062 C 343.0625 118.878906 332.390625 103.902344 316.730469 103.121094 Z M 316.730469 103.121094 " fill-opacity="1" fill-rule="nonzero"/><g clip-path="url(#b576fc4f4c)"><path fill="#f24c3d" d="M 361.066406 112.050781 L 357.550781 112.050781 C 358.726562 116.542969 358.617188 121.324219 357.15625 125.914062 L 318.875 245.738281 C 315.804688 255.335938 307.351562 262.105469 297.300781 262.96875 L 44.730469 285.003906 C 42.046875 285.230469 39.40625 285.050781 36.863281 284.453125 L 34.082031 287.230469 C 36.78125 288.070312 39.609375 288.511719 42.5 288.511719 C 43.351562 288.511719 44.191406 288.476562 45.042969 288.394531 L 297.613281 266.371094 C 309.03125 265.375 318.648438 257.683594 322.136719 246.765625 L 360.417969 126.941406 C 361.976562 122.03125 362.179688 116.914062 361.066406 112.050781 Z M 38.003906 78.355469 C 38.449219 78.355469 38.878906 78.367188 39.324219 78.390625 L 334.683594 93.476562 C 337.355469 93.621094 339.921875 94.160156 342.34375 95.082031 L 342.34375 91.453125 C 339.957031 90.671875 337.453125 90.191406 334.863281 90.0625 L 39.492188 74.976562 C 31.625 74.582031 23.875 77.503906 18.226562 83.015625 C 12.605469 88.527344 9.496094 96.195312 9.714844 104.070312 L 14.234375 261.003906 C 14.292969 263.136719 14.582031 265.21875 15.109375 267.234375 L 17.988281 264.355469 C 17.785156 263.230469 17.6875 262.082031 17.652344 260.90625 L 13.132812 103.972656 C 12.929688 96.9375 15.589844 90.371094 20.613281 85.460938 C 25.339844 80.847656 31.46875 78.355469 38.003906 78.355469 Z M 38.003906 78.355469 " fill-opacity="1" fill-rule="nonzero"/></g><path fill="#f29727" d="M 358.320312 103.109375 C 364.265625 103.097656 370.023438 102.570312 374.914062 101.492188 C 370.167969 99.898438 364.496094 98.773438 358.582031 98.125 C 360.910156 95.488281 362.863281 92.699219 364.195312 89.964844 C 361.339844 90.996094 358.355469 92.648438 355.488281 94.6875 C 355.476562 88.742188 354.949219 82.992188 353.871094 78.101562 C 352.273438 82.847656 351.148438 88.515625 350.5 94.421875 C 347.859375 92.097656 345.066406 90.144531 342.332031 88.816406 C 343.363281 91.667969 345.007812 94.652344 347.046875 97.515625 C 341.097656 97.527344 335.339844 98.054688 330.460938 99.132812 C 335.210938 100.726562 340.871094 101.863281 346.78125 102.5 C 344.457031 105.136719 342.5 107.914062 341.179688 110.648438 C 344.035156 109.617188 347.023438 107.976562 349.886719 105.9375 C 349.898438 111.882812 350.425781 117.632812 351.507812 122.507812 C 353.101562 117.765625 354.242188 112.097656 354.875 106.191406 C 357.515625 108.515625 360.308594 110.46875 363.03125 111.796875 C 362 108.96875 360.355469 105.984375 358.320312 103.109375 Z M 358.320312 103.109375 " fill-opacity="1" fill-rule="nonzero"/><g clip-path="url(#bb38c9c5c3)"><path fill="#f29727" d="M 28.074219 280.246094 C 34 279.660156 39.671875 278.566406 44.445312 277.023438 C 39.5625 275.894531 33.804688 275.320312 27.859375 275.25 C 29.921875 272.398438 31.601562 269.4375 32.65625 266.585938 C 29.910156 267.890625 27.101562 269.820312 24.441406 272.121094 C 23.851562 266.203125 22.761719 260.535156 21.214844 255.765625 C 20.085938 260.640625 19.511719 266.394531 19.441406 272.324219 C 16.585938 270.265625 13.625 268.585938 10.769531 267.53125 C 12.0625 270.277344 13.996094 273.082031 16.296875 275.726562 C 10.386719 276.316406 4.699219 277.394531 -0.0585938 278.953125 C 4.820312 280.078125 10.566406 280.664062 16.511719 280.726562 C 14.449219 283.578125 12.785156 286.535156 11.726562 289.375 C 14.476562 288.082031 17.28125 286.152344 19.929688 283.851562 C 20.519531 289.757812 21.597656 295.4375 23.15625 300.195312 C 24.285156 295.320312 24.871094 289.566406 24.933594 283.625 C 27.785156 285.6875 30.75 287.351562 33.589844 288.417969 C 32.308594 285.710938 30.386719 282.90625 28.074219 280.246094 Z M 28.074219 280.246094 " fill-opacity="1" fill-rule="nonzero"/></g><g clip-path="url(#da98581700)"><g clip-path="url(#6df70e354c)"><g clip-path="url(#ee80124806)"><path fill="#ffffff" d="M 51.765625 107.410156 L 70.496094 108.332031 L 69.570312 127.0625 L 50.84375 126.136719 Z M 51.765625 107.410156 " fill-opacity="1" fill-rule="nonzero"/></g></g></g><path stroke-linecap="butt" transform="matrix(0.749316, 0.0320201, -0.0320201, 0.749316, 79.878215, 115.554602)" fill="none" stroke-linejoin="miter" d="M 0.000290968 4.498996 L 304.006667 4.499077 " stroke="#ffffff" stroke-width="9" stroke-opacity="1" stroke-miterlimit="4"/><g clip-path="url(#24d215657a)"><g clip-path="url(#6d0120dec7)"><g clip-path="url(#6ac83bcab2)"><path fill="#ffffff" d="M 51.460938 138.773438 L 70.199219 139.390625 L 69.582031 158.132812 L 50.84375 157.515625 Z M 51.460938 138.773438 " fill-opacity="1" fill-rule="nonzero"/></g></g></g><path stroke-linecap="butt" transform="matrix(0.749594, 0.0246859, -0.0246859, 0.749594, 79.745572, 145.709126)" fill="none" stroke-linejoin="miter" d="M -0.00224106 4.499719 L 294.00083 4.499822 " stroke="#ffffff" stroke-width="9" stroke-opacity="1" stroke-miterlimit="4"/><g clip-path="url(#cdace44552)"><g clip-path="url(#a0a7991b87)"><g clip-path="url(#d4899eca82)"><path fill="#ffffff" d="M 51.199219 169.492188 L 69.945312 169.847656 L 69.589844 188.59375 L 50.84375 188.238281 Z M 51.199219 169.492188 " fill-opacity="1" fill-rule="nonzero"/></g></g></g><path stroke-linecap="butt" transform="matrix(0.749865, 0.0142343, -0.0142343, 0.749865, 79.578201, 176.03196)" fill="none" stroke-linejoin="miter" d="M 0.00196806 4.499826 L 284.001071 4.500432 " stroke="#ffffff" stroke-width="9" stroke-opacity="1" stroke-miterlimit="4"/><g clip-path="url(#a56e728e3c)"><g clip-path="url(#4c18fc7335)"><path fill="#ffffff" d="M 50.84375 199.539062 L 69.59375 199.539062 L 69.59375 218.289062 L 50.84375 218.289062 Z M 50.84375 199.539062 " fill-opacity="1" fill-rule="nonzero"/></g></g><path stroke-linecap="butt" transform="matrix(0.75, 0.000000000000000156, -0.000000000000000156, 0.75, 79.341357, 205.540021)" fill="none" stroke-linejoin="miter" d="M -0.00201752 4.498722 L 274.034459 4.498722 " stroke="#ffffff" stroke-width="9" stroke-opacity="1" stroke-miterlimit="4"/><g clip-path="url(#c31d4b863b)"><g clip-path="url(#c48e30ce91)"><g clip-path="url(#d06048e048)"><path fill="#ffffff" d="M 50.84375 232.40625 L 69.578125 231.671875 L 70.3125 250.410156 L 51.578125 251.140625 Z M 50.84375 232.40625 " fill-opacity="1" fill-rule="nonzero"/></g></g></g><path stroke-linecap="butt" transform="matrix(0.749425, -0.0293606, 0.0293606, 0.749425, 79.554395, 237.286698)" fill="none" stroke-linejoin="miter" d="M 0.00125353 4.501444 L 264.005872 4.498027 " stroke="#ffffff" stroke-width="9" stroke-opacity="1" stroke-miterlimit="4"/></svg>