<svg xmlns="http://www.w3.org/2000/svg" version="1.0" viewBox="0 0 375 374.999991">
  <defs>
    <clipPath id="a">
      <path d="M41.753906 18.113281h229.859375v327.726563H41.753906Zm0 0"/>
    </clipPath>
    <clipPath id="b">
      <path d="M44.003906 18.113281h225.359375c1.242188 0 2.25 1.007813 2.25 2.25v322.941407c0 1.242187-1.007812 2.25-2.25 2.25H44.003906c-1.242187 0-2.25-1.007813-2.25-2.25V20.363281c0-1.242187 1.007813-2.25 2.25-2.25Zm0 0"/>
    </clipPath>
    <clipPath id="c">
      <path d="M201 63h155.480469v156H201Zm0 0"/>
    </clipPath>
    <clipPath id="d">
      <path d="M14.480469 1H295v373H14.480469Zm0 0"/>
    </clipPath>
    <clipPath id="e">
      <path d="M200.625 60.667969h158.148438v158.148437H200.625Zm0 0"/>
    </clipPath>
    <clipPath id="f">
      <path d="M279.699219 60.667969c-43.671875 0-79.074219 35.402343-79.074219 79.074219 0 43.671874 35.402344 79.074218 79.074219 79.074218s79.074219-35.402344 79.074219-79.074218c0-43.671876-35.402344-79.074219-79.074219-79.074219Zm0 0"/>
    </clipPath>
  </defs>
  <g clip-path="url(#a)">
    <g clip-path="url(#b)">
      <path fill="#64748b" d="M41.753906 18.113281h229.859375v327.726563H41.753906Zm0 0"/>
    </g>
  </g>
  <path fill="#cbd5e1" d="M76.792969 94.265625h93.230469v31.082031H76.792969ZM76.792969 156.421875h93.230469V187.5H76.792969ZM76.792969 218.574219h124.308593v31.082031H76.792969ZM76.792969 280.730469h155.382812v31.074219H76.792969Zm0 0"/>
  <g clip-path="url(#c)">
    <path fill="#64748b" d="M278.792969 63.1875c-42.910157 0-77.691407 34.78125-77.691407 77.695312 0 42.914063 34.78125 77.691407 77.691407 77.691407 42.910156 0 77.6875-34.777344 77.6875-77.691407 0-42.914062-34.777344-77.695312-77.6875-77.695312Zm46.613281 89.351562h-34.960938V187.5h-23.308593v-34.960938h-34.960938v-23.308593h34.960938V94.265625h23.308593v34.964844h34.960938Zm0 0"/>
  </g>
  <g clip-path="url(#d)">
    <path fill="#cbd5e1" d="M278.792969 218.574219c-5.328125 0-10.515625-.535157-15.542969-1.554688v125.871094H45.710938V32.113281h217.542968V64.75c5.027344-1.015625 10.214844-1.558594 15.542969-1.558594 5.320313 0 10.515625.542969 15.542969 1.558594V32.113281c0-17.089843-13.996094-31.078125-31.085938-31.078125H45.710938c-17.082032 0-31.074219 13.988282-31.074219 31.078125v310.777344c-.003907 17.082031 13.984375 31.074219 31.074219 31.074219h217.542968c17.089844 0 31.085938-13.992188 31.085938-31.074219V217.019531c-5.03125 1.019531-10.230469 1.554688-15.546875 1.554688Zm0 0"/>
  </g>
  <g clip-path="url(#e)">
    <g clip-path="url(#f)">
      <path fill="#cbd5e1" d="M200.625 60.667969h158.148438v158.148437H200.625Zm0 0"/>
    </g>
  </g>
  <path fill="#64748b" d="M294.605654 187.010777h-28.3125v-33.296875h-33.3125v-28.3125h33.3125V92.104527h28.3125v33.296875h33.296875v28.3125h-33.296875Zm0 0"/>
</svg>
