<svg xmlns="http://www.w3.org/2000/svg" xmlns:xlink="http://www.w3.org/1999/xlink" width="620" zoomAndPan="magnify" viewBox="0 0 464.87997 157.5" height="210" preserveAspectRatio="xMidYMid meet" version="1.0"><defs><g/><clipPath id="2fd68f1335"><path d="M 8 7.671875 L 149.65625 7.671875 L 149.65625 149.328125 L 8 149.328125 Z M 8 7.671875 " clip-rule="nonzero"/></clipPath></defs><g fill="#a6a6a6" fill-opacity="1"><g transform="translate(167.360337, 130.248421)"><g><path d="M 29.53125 -39.46875 L 29.53125 0 L 7.765625 0 L 7.765625 -100.546875 L 29.53125 -100.546875 L 29.53125 -58.4375 L 46.78125 -58.4375 L 46.78125 -100.546875 L 68.53125 -100.546875 L 68.53125 0 L 46.78125 0 L 46.78125 -39.46875 Z M 29.53125 -39.46875 "/></g></g></g><g fill="#a6a6a6" fill-opacity="1"><g transform="translate(243.660723, 130.248421)"><g><path d="M 47.703125 -102.109375 C 60.554688 -102.109375 66.984375 -95.269531 66.984375 -81.59375 L 66.984375 0 L 45.21875 0 L 45.21875 -33.71875 L 29.53125 -33.71875 L 29.53125 0 L 7.765625 0 L 7.765625 -81.59375 C 7.765625 -95.269531 14.191406 -102.109375 27.046875 -102.109375 Z M 29.53125 -50.5 L 45.21875 -50.5 L 45.21875 -84.234375 C 45.21875 -85.054688 44.929688 -85.78125 44.359375 -86.40625 C 43.796875 -87.03125 43.097656 -87.34375 42.265625 -87.34375 L 32.484375 -87.34375 C 31.648438 -87.34375 30.945312 -87.03125 30.375 -86.40625 C 29.8125 -85.78125 29.53125 -85.054688 29.53125 -84.234375 Z M 29.53125 -50.5 "/></g></g></g><g fill="#a6a6a6" fill-opacity="1"><g transform="translate(319.028725, 130.248421)"><g><path d="M 43.671875 -100.546875 L 65.421875 -100.546875 L 65.421875 -18.953125 C 65.421875 -5.285156 59 1.546875 46.15625 1.546875 L 26.890625 1.546875 C 14.035156 1.546875 7.609375 -5.285156 7.609375 -18.953125 L 7.609375 -100.546875 L 29.375 -100.546875 L 29.375 -17.09375 C 29.375 -16.257812 29.65625 -15.53125 30.21875 -14.90625 C 30.789062 -14.289062 31.492188 -13.984375 32.328125 -13.984375 L 40.71875 -13.984375 C 41.539062 -13.984375 42.238281 -14.289062 42.8125 -14.90625 C 43.382812 -15.53125 43.671875 -16.257812 43.671875 -17.09375 Z M 43.671875 -100.546875 "/></g></g></g><g fill="#a6a6a6" fill-opacity="1"><g transform="translate(391.599564, 130.248421)"><g><path d="M 63.5625 -74.125 L 42.890625 -74.125 L 42.890625 -82.046875 C 42.890625 -82.878906 42.601562 -83.601562 42.03125 -84.21875 C 41.46875 -84.84375 40.769531 -85.15625 39.9375 -85.15625 L 31.390625 -85.15625 C 30.566406 -85.15625 29.867188 -84.84375 29.296875 -84.21875 C 28.722656 -83.601562 28.4375 -82.878906 28.4375 -82.046875 L 28.4375 -64.1875 C 28.4375 -63.351562 28.722656 -62.625 29.296875 -62 C 29.867188 -61.382812 30.566406 -61.078125 31.390625 -61.078125 L 45.375 -61.078125 C 58.226562 -60.867188 64.65625 -54.03125 64.65625 -40.5625 L 64.65625 -18.953125 C 64.65625 -5.285156 58.226562 1.546875 45.375 1.546875 L 27.046875 1.546875 C 14.191406 1.546875 7.765625 -5.285156 7.765625 -18.953125 L 7.765625 -29.375 L 28.4375 -29.375 L 28.4375 -18.1875 C 28.4375 -17.351562 28.722656 -16.625 29.296875 -16 C 29.867188 -15.382812 30.566406 -15.078125 31.390625 -15.078125 L 41.03125 -15.078125 C 41.851562 -15.078125 42.550781 -15.382812 43.125 -16 C 43.695312 -16.625 43.984375 -17.351562 43.984375 -18.1875 L 43.984375 -37.921875 C 43.984375 -38.742188 43.695312 -39.46875 43.125 -40.09375 C 42.550781 -40.71875 41.851562 -41.03125 41.03125 -41.03125 L 27.046875 -41.03125 C 14.191406 -41.03125 7.765625 -47.867188 7.765625 -61.546875 L 7.765625 -81.59375 C 7.765625 -95.269531 14.191406 -102.109375 27.046875 -102.109375 L 44.296875 -102.109375 C 57.140625 -102.109375 63.5625 -95.269531 63.5625 -81.59375 Z M 63.5625 -74.125 "/></g></g></g><g clip-path="url(#2fd68f1335)"><path fill="#a6a6a6" d="M 63.070312 91.335938 L 115.675781 60.96875 L 149.324219 80.394531 C 149.34375 79.761719 149.371094 79.136719 149.371094 78.5 C 149.371094 71.640625 148.375 65.015625 146.546875 58.742188 L 115.675781 40.917969 L 115.675781 51.851562 L 63.070312 82.226562 L 63.070312 60.359375 L 115.675781 29.984375 L 140.558594 44.351562 C 134.644531 33.683594 126.042969 24.714844 115.675781 18.347656 C 104.949219 11.761719 92.335938 7.957031 78.828125 7.957031 C 39.867188 7.957031 8.285156 39.539062 8.285156 78.5 C 8.285156 117.460938 39.867188 149.046875 78.828125 149.046875 C 92.34375 149.046875 104.949219 145.214844 115.675781 138.617188 C 124.90625 132.945312 132.746094 125.230469 138.523438 116.070312 L 115.675781 102.878906 L 115.675781 113.8125 L 63.070312 144.1875 L 63.070312 122.316406 L 115.675781 91.945312 L 143.027344 107.738281 C 145.464844 102.390625 147.253906 96.691406 148.292969 90.734375 L 115.675781 71.898438 L 115.675781 82.832031 L 63.070312 113.203125 L 63.070312 91.335938 " fill-opacity="1" fill-rule="nonzero"/></g></svg>