<svg xmlns="http://www.w3.org/2000/svg" xmlns:xlink="http://www.w3.org/1999/xlink" width="500" zoomAndPan="magnify" viewBox="0 0 375 104.249996" height="139" preserveAspectRatio="xMidYMid meet" version="1.0"><defs><g/><clipPath id="1fa7549b5d"><path d="M 11.691406 5.449219 L 104 5.449219 L 104 97.785156 L 11.691406 97.785156 Z M 11.691406 5.449219 " clip-rule="nonzero"/></clipPath></defs><g fill="#000000" fill-opacity="1"><g transform="translate(117.465028, 91.591065)"><g><path d="M 23.25 -31.09375 L 23.25 0 L 6.125 0 L 6.125 -79.1875 L 23.25 -79.1875 L 23.25 -46.015625 L 36.84375 -46.015625 L 36.84375 -79.1875 L 53.96875 -79.1875 L 53.96875 0 L 36.84375 0 L 36.84375 -31.09375 Z M 23.25 -31.09375 "/></g></g></g><g fill="#000000" fill-opacity="1"><g transform="translate(177.558018, 91.591065)"><g><path d="M 37.578125 -80.40625 C 47.691406 -80.40625 52.75 -75.019531 52.75 -64.25 L 52.75 0 L 35.609375 0 L 35.609375 -26.5625 L 23.25 -26.5625 L 23.25 0 L 6.125 0 L 6.125 -64.25 C 6.125 -75.019531 11.179688 -80.40625 21.296875 -80.40625 Z M 23.25 -39.78125 L 35.609375 -39.78125 L 35.609375 -66.328125 C 35.609375 -66.984375 35.382812 -67.554688 34.9375 -68.046875 C 34.488281 -68.535156 33.941406 -68.78125 33.296875 -68.78125 L 25.578125 -68.78125 C 24.921875 -68.78125 24.367188 -68.535156 23.921875 -68.046875 C 23.472656 -67.554688 23.25 -66.984375 23.25 -66.328125 Z M 23.25 -39.78125 "/></g></g></g><g fill="#000000" fill-opacity="1"><g transform="translate(236.916682, 91.591065)"><g><path d="M 34.390625 -79.1875 L 51.53125 -79.1875 L 51.53125 -14.9375 C 51.53125 -4.164062 46.46875 1.21875 36.34375 1.21875 L 21.171875 1.21875 C 11.054688 1.21875 6 -4.164062 6 -14.9375 L 6 -79.1875 L 23.125 -79.1875 L 23.125 -13.46875 C 23.125 -12.8125 23.347656 -12.238281 23.796875 -11.75 C 24.253906 -11.257812 24.804688 -11.015625 25.453125 -11.015625 L 32.0625 -11.015625 C 32.71875 -11.015625 33.269531 -11.257812 33.71875 -11.75 C 34.164062 -12.238281 34.390625 -12.8125 34.390625 -13.46875 Z M 34.390625 -79.1875 "/></g></g></g><g fill="#000000" fill-opacity="1"><g transform="translate(294.072346, 91.591065)"><g><path d="M 50.0625 -58.375 L 33.78125 -58.375 L 33.78125 -64.625 C 33.78125 -65.269531 33.554688 -65.835938 33.109375 -66.328125 C 32.660156 -66.816406 32.109375 -67.0625 31.453125 -67.0625 L 24.71875 -67.0625 C 24.070312 -67.0625 23.519531 -66.816406 23.0625 -66.328125 C 22.613281 -65.835938 22.390625 -65.269531 22.390625 -64.625 L 22.390625 -50.546875 C 22.390625 -49.890625 22.613281 -49.316406 23.0625 -48.828125 C 23.519531 -48.335938 24.070312 -48.09375 24.71875 -48.09375 L 35.734375 -48.09375 C 45.859375 -47.9375 50.921875 -42.550781 50.921875 -31.9375 L 50.921875 -14.9375 C 50.921875 -4.164062 45.859375 1.21875 35.734375 1.21875 L 21.296875 1.21875 C 11.179688 1.21875 6.125 -4.164062 6.125 -14.9375 L 6.125 -23.125 L 22.390625 -23.125 L 22.390625 -14.3125 C 22.390625 -13.664062 22.613281 -13.097656 23.0625 -12.609375 C 23.519531 -12.117188 24.070312 -11.875 24.71875 -11.875 L 32.3125 -11.875 C 32.96875 -11.875 33.519531 -12.117188 33.96875 -12.609375 C 34.414062 -13.097656 34.640625 -13.664062 34.640625 -14.3125 L 34.640625 -29.859375 C 34.640625 -30.515625 34.414062 -31.085938 33.96875 -31.578125 C 33.519531 -32.066406 32.96875 -32.3125 32.3125 -32.3125 L 21.296875 -32.3125 C 11.179688 -32.3125 6.125 -37.695312 6.125 -48.46875 L 6.125 -64.25 C 6.125 -75.019531 11.179688 -80.40625 21.296875 -80.40625 L 34.875 -80.40625 C 45 -80.40625 50.0625 -75.019531 50.0625 -64.25 Z M 50.0625 -58.375 "/></g></g></g><g clip-path="url(#1fa7549b5d)"><path fill="#000000" d="M 47.585938 59.984375 L 81.875 40.1875 L 103.8125 52.851562 C 103.820312 52.441406 103.839844 52.03125 103.839844 51.617188 C 103.839844 47.144531 103.191406 42.828125 102 38.738281 L 81.875 27.121094 L 81.875 34.246094 L 47.585938 54.046875 L 47.585938 39.792969 L 81.875 19.992188 L 98.09375 29.359375 C 94.238281 22.40625 88.632812 16.558594 81.875 12.40625 C 74.886719 8.113281 66.664062 5.632812 57.855469 5.632812 C 32.460938 5.632812 11.875 26.21875 11.875 51.617188 C 11.875 77.011719 32.460938 97.601562 57.855469 97.601562 C 66.667969 97.601562 74.882812 95.101562 81.875 90.804688 C 87.890625 87.105469 93.003906 82.078125 96.769531 76.105469 L 81.875 67.507812 L 81.875 74.636719 L 47.585938 94.433594 L 47.585938 80.179688 L 81.875 60.382812 L 99.703125 70.675781 C 101.292969 67.191406 102.460938 63.476562 103.136719 59.589844 L 81.875 47.316406 L 81.875 54.441406 L 47.585938 74.238281 L 47.585938 59.984375 " fill-opacity="1" fill-rule="nonzero"/></g></svg>