<svg xmlns="http://www.w3.org/2000/svg" viewBox="0 0 375 375" version="1.0">
  <defs>
    <clipPath id="a">
      <path d="M0 67.2h375v243H0Zm0 0"/>
    </clipPath>
  </defs>
  <g clip-path="url(#a)">
    <path d="M299.9 310a38 38 0 0 0 33.3-27.2c.7-2.6 1-4.4 1-8.2a35.7 35.7 0 0 0-18-30.7c-.2 0 0-.5.2-1 .4-1.3.7-3.2 1.2-7.2l.5-3.2c0-.1.4 0 1.4.8l-.2 1.2a105.7 105.7 0 0 0-.8 10c.4 0 .7-2 1.3-7.5.1-1.6.3-2.9.4-3l1 .6.7.8v1c-.3 2.4-1 7.3-1.3 8.2-.3 1-.3 1.3.2 1.1.5-.2 1.2-3.6 1.6-7.5l.4-2 1 .9c1 .9 1 .9.8 1.3a34 34 0 0 0-.8 9.5s.2-.4.2-1.4l.3-2.4a80.7 80.7 0 0 0 .8-5.3c0-.1.2 0 .4 0 .3.3.3.9-.1 4.8-.5 3.6-.6 5.3-.3 5.4.2 0 .7-2.3 1-5.3.2-1.8.4-2.6.5-2.4.2.5.4.4.5-.1v-.5l.4.5c.3.5.3.5 0 1.8s-1 5.1-1 6c0 .8.4.6.7-.2l.6-3.6.5-2.8.7 1.2c.7 1 .7 1 .5 2a353 353 0 0 0-1.2 7.4c.3.2.3.2.6-.3.2-.5.8-3.4 1-5.5.2-1.7.3-1.8 1-.2l.6 1.4-.4 2a57.3 57.3 0 0 0-1 4.7c-.2 0-.3.3-.3 1s0 .9.3.9c.4 0 .7-1 1.2-4.2l.7-3.2c0-.1.8 1.6.8 2a32.1 32.1 0 0 1-1 5.5c-.2 0-.3.3-.3 1.2 0 .8 0 1 .3 1 .4 0 .6-.5 1-2.7l.4-2.9.2-.8.3 1.2c.4 1.1.4 1.2.2 2.3a23 23 0 0 0-.4 2.3l-.3 2.2v1.3c.3.3.5-.5 1-3.2l.3-2.3.4.7c.2.7.2 1-.1 2.7l-.5 2.2c-.3.5-.2 1.1 0 1.4.4.3.7-.2 1-2 .2-1 .3-1.6.5-1.6l.4-.3c.2-.4.1.6-.2 3-.2 1.2-.3 1.5-.7 2-.5.4-.7 1-.3 1.2h.2c0-.2.3-.3.4-.3.2 0 1.3-.5 2.4-1.2 2-1.2 2.3-1.3 2.3-1 0 .1.1.2.3.2.1 0 .2-.2.2-.5s0-.6.2-.6l.2.2c0 .1 0 .2.2.2s.3-.2.3-.5c0-.6.4-.8.7-.3.3.4.3.4.2-.2 0-.5 0-.6.6-1 .7-.5.8-.7.5-1-.3-.4-.6-.3-1.2 0-.5.5-.5.5-.8.1l-.2-.4a49.5 49.5 0 0 1 7.3-.4l4.4-1.4 6-2a98.9 98.9 0 0 0 13.2-6.5c.1.1.3.2.5.1.2 0 .3-.4.2-2.8l-.2-2.6.7-.4c.4-.2.8-.6.9-.9.3-.8.5-11 .2-12.3a8 8 0 0 0-1.5-3.1l-.4-.5-.2-11.1c-.1-6.3-.2-17-.1-24.2v-13l-1.2-4.3-3.8-14c-3-11.8-7.7-28.5-11.4-40.8-1.2-3.9-4.2-13-8.8-26.2a476.4 476.4 0 0 1-6.1-18.6c-.4-1.4-.8-2-1.8-3.2-.5-.5-1-1.1-1-1.3 0-.3-.3-.4-1-.5l-3-.3c-2.4-.4-13.2-1.3-17.7-1.5a582 582 0 0 0-49.9 0c-13 .6-15.3 1-16.7 3l-.9 1.6-.4.9-.1 67.6-.1 70.8-.2 3.4H247c-2 0-2.6 0-2.5.5 0 .3.2.4.6.4h3.5v2.9l-1.4-1.3c-1.3-1.1-1.8-1.4-1.7-1l1.6 1.5c1.3 1.1 1.4 1.2 1.4 2v.7l-.2-.4c-.4-.6-1.8-2-3.2-3l-1.2-.9v-14.4c0-13.4 0-14.4-.3-14.6a2 2 0 0 0-.8-.4l-87.6-.1H68v24.1l-.1 24.2h-.4c-.3 0-.3.1 0 .7.2.5.3.6 1.1.6.9 0 1 0 1 .5v.7c0 .1 0 .2-.2.2l-2-.2c-2.1-.3-2.4-.2-1.9.5s.8 2.8.7 4.5l-.2 2.7c-.1 1.2-.1 1.4.2 1.6.3.2.6.2 1 .2l1.3-.1c.6 0 .7.1.7.5s.4 1 .7 1c.2 0 .3-.4.4-1l.3-2.7.1-5v-3.3h12.6c0 .2-2.3 2.4-4 3.7l-4 3.2c-2.7 2-4.5 3.8-4.3 4.1h.5l1.1-.5 3-2.1 2.4-1.9 1.3 1.3 2 2.2c.9 1.2 1.5 2 1.7 2l.1-.5c0-.7-1-2.1-2.7-3.8l-1.5-1.8a220 220 0 0 1 3.8-3.3l1.9 1.5c1.5 1.3 2.6 2.5 2.6 2.8 0 .1-.2.2-.5.2-1 .1-.7.4.3.5 1 0 1.2-.2 1-1a11 11 0 0 0-3.3-3.3l-1.4-1.2.4-.5c.5-.6.5-1 .1-1.4-.2-.3.1-.3 11.5-.3h11.8l1.3 1.2 1.2 1.3h-2l-2 .2-.8-.7-1.1-.9c-.5-.2-.4.3.3 1l.6.6-1.6.2-1.5.2-.8-.7c-.8-.8-1.9-1.6-2-1.6-.3 0 0 .6.6 1.2 1 .8 1 1.3.2 1.5a39 39 0 0 0-11.4 5A50.2 50.2 0 0 0 73 261.6c-1.7 3.2-3 7.2-3.5 11-.3 2.5-.2 8.5.2 10.8A30.1 30.1 0 0 0 84 304c3.9 2.4 7.7 3.8 14.2 5a37 37 0 0 0 17.4 0 38 38 0 0 0 27.1-26.2c.7-2.6 1-4.4 1-8.2 0-6.9-1.7-12.6-5.2-18.3a36.4 36.4 0 0 0-19.7-15.2c-2-.7-2.2-.8-2.5-1.4-.1-.3-.9-1-1.6-1.6a14 14 0 0 1-1.3-1.3l2.7-.1c2.7 0 2.7 0 3 .4.4.5 4.2 3.2 4.2 3 0-.2-.6-.8-1.5-1.5l-1.9-1.5-.4-.4h10.7l1.3 1.1c.6.7 2.7 2.3 4.6 3.7 1.8 1.4 3.5 2.7 3.7 3 .6.6 1 .6.6 0-.6-1-1.8-2-5-4.5-3.5-2.6-4-3-4-3.2l2.6-.1h2.6l1.3 1.2 4.2 3.2c3.5 2.7 5.4 4.2 6 5 .5.5.6.4.3-.4-.4-1-2-2.5-7.5-6.5l-3.1-2.4 2.4-.1h2.5l1.4 1.1c.7.7 2.4 2 3.8 3a570.9 570.9 0 0 1 8 5.2c-.5-.8-3.1-3-5.7-4.8-3.9-2.6-6-4.2-6-4.4l2.6-.1h2.7l1.7 1.5a138.2 138.2 0 0 0 10 7.7 28 28 0 0 0-6.5-5.8l-4.5-3.3h2.5l2.5-.1 1.2 1.1c1.3 1.3 2.3 2 6.7 5.2a183 183 0 0 1 5 3.4v-.3c-2.3-2-3.4-3-5.4-4.4-2.9-2-6.3-4.6-6.4-4.8-.1-.2 3.1-.2 10-.2h10.2l.7.8c.8 1 2.4 2.2 8.4 6a166.4 166.4 0 0 1 5.4 3.6c.3-.3-2.9-2.8-7.4-5.7a117.3 117.3 0 0 1-6.3-4.6l2.7-.1c2.2 0 2.6 0 2.6.2 0 .5 3.4 3.1 9 7 4.4 3 5.2 3.5 5.1 3.1a40 40 0 0 0-5.3-4.2l-5.5-3.9-3.1-2.1h7.5l7.6-.1.6.4a322.1 322.1 0 0 0 14.6 10.4l-1.7-1.6a145 145 0 0 0-12.2-9c0-.2 1.2-.2 2.8-.2h3l1 .8c.5.5 2.6 2 4.5 3.3a100.5 100.5 0 0 1 8.2 6c.2-.3-2.8-3-5.4-4.8l-5-3.5-2.4-1.7h2.4c2.2-.1 2.4-.1 2.7.2.4.5 3 2.3 7.7 5.5a61.3 61.3 0 0 1 7 5c.1-.1-.3-.6-.9-1.1-1-1-3.2-2.6-9.8-7l-3.6-2.6 2.3-.1h2.3l1.8 1.4a227.3 227.3 0 0 0 12.8 9.3v-.2l-8-6.2c-2.9-2-5.2-3.9-5.4-4-.2-.3.3-.3 7.7-.3h7.9l1 1c.6.6 3 2.6 5.4 4.4 6.2 4.6 6.2 4.6 6.4 4.6.4 0-1.8-2-6-5-4.6-3.6-6-4.7-6-4.9l5-.1h5.1l3.2 3c2.9 2.8 3.1 3 3.2 3.7l.9 7 1 7.7.2 1.5h.9c.9-.2.9-.2 1.2.4a31.5 31.5 0 0 0 2.6 3.6c.1-.1-.6-1.7-1.3-2.8a6 6 0 0 1-.7-1.2c0-.1.5-.2 1.1-.2 1.1-.1 1.2-.1 1.3-.6 0-.3.7-1.8 1.3-3.4l1-2.9 1.8 1.8 2.7 2.9 1.1 1.2-.4.7-.5.8-.7-.8c-.9-1-3.9-3.8-4.1-3.8l.9 1.1 2.3 2.6 1.3 1.5-.4.7-.4.8-.4-.6c-.8-1-3.6-3.8-3.8-3.7l.5.8c.8.8 3.3 4 3.3 4.1l-.8 2a31.6 31.6 0 0 0-2.3 13.7c.1 4.6.7 7.6 1.9 10.6 3.3 8.4 10.2 15 19.2 18.2 2.3.8 3.8 1.2 7.6 2 4.4.8 7.5 1 11.5.9Zm-8-1.6c-3.6-.3-5.5-.6-8.6-1.5a29.3 29.3 0 0 1-22.2-30 27.4 27.4 0 0 1 3.8-14.6l.4-.8 1.1-1.7a51 51 0 0 1 14.2-13.9c8-5 17.5-6.5 26.7-4.2a33.4 33.4 0 0 1 24.2 23 27 27 0 0 1 1.1 9.6c0 3.8 0 4.4-.4 6a35.5 35.5 0 0 1-11.2 18.9c-5.5 5-12.8 8.4-20.4 9.4-1.4.2-4.2 0-8.7-.2Zm5.2-11c5.8-.3 11.1-2 15.1-4.6 3.7-2.4 6.6-6.1 8.1-10.2.4-1 .5-1.7.5-3.7.1-2.8 0-4-.8-6.3a25.4 25.4 0 0 0-17-16.3c-3.8-1-7-1.5-9.3-1.2a33 33 0 0 0-8.2 2.1c-5.1 2.5-8.8 7.5-10.7 14.7-.5 2-.6 2.4-.7 5.7a20 20 0 0 0 2 10.7c.7 1.6 1 2 2.6 3.5 2.8 2.9 6.1 4.4 11.4 5.3 1.5.3 5.3.5 7 .4Zm-7.4-1.6c-4.3-.7-8-2.4-10.4-4.7a13.3 13.3 0 0 1-3.3-6.2c-.4-1.6-.4-2-.4-5.6 0-3.3 0-4.2.3-5.4a25 25 0 0 1 6-12.1c3.5-3.5 7.4-5 14.4-5.5 2.3-.2 4 0 5.9.7l1.8.6c1.3.3 3.9 1.6 5.7 2.8 1.8 1.1 5 4.2 6 6 2.8 4.2 4.2 8.4 4 12-.2 2-.6 3.2-1.4 5-3.4 7.4-11.5 12-21.8 12.6-2.6.2-4.7 0-6.8-.2Zm8-4.4c.7-.2 1-.8 1-1.6 0-1.6-.9-3-2-3l-1.3-.2c-.6 0-.8 0-1.2.3-.3.3-.4.5-.4 1.3 0 2 1 3.2 2.7 3.3h1.2Zm-2.4-1.4-.3-1c-.1-.7 0-.9.3-1.2 1-.7 1.9-.3 2.2.8.2.9.2 1-.2 1.4-.4.5-1.5.5-2 0Zm16-2.5c.7-.3 1-1 .8-1.9-.3-1.5-.8-2-2.3-2-1-.2-1.3-.1-1.7.2-.6.5-.7 1.2-.3 2.2.7 1.3 2.3 2 3.5 1.5Zm-2.3-1.4c-.2-.2-.3-.6-.3-.8 0-.3.9-1 1.4-1 .8 0 1.3 1.4.7 2-.4.4-1.4.3-1.8-.2Zm-24.8-4.2c.9-.3 1-.7 1-1.7 0-1.5-.9-3.1-1.8-3.1-.3 0-.3 0-.2.4.2.3.2.3-.2.2-1.5-.4-2.4-.2-2.8.7-.7 1.7 2.2 4.2 4 3.5Zm-2.2-1.4c-.7-.5-1-1.2-.7-1.6.7-.8 2.4-1 2.8-.1.2.6.2 1.5-.1 1.8-.4.4-1.3.3-2-.1Zm19 .3c2.8-.9 4-2.5 3.5-5.3-.4-3.3-3.3-6.3-5.8-6.3-1.2 0-1.6.2-1.5.8l.1.5-1.6.1c-1.3 0-1.8.2-2.6.5a3.9 3.9 0 0 0-2.3 4c.2 2.4 2.6 4.8 5.6 5.7 1.2.3 3.6.3 4.6 0Zm-4-1.1a6.1 6.1 0 0 1-3.8-2c-2.1-2.3-1.2-5 2.3-6.3.6-.2 1.4-.3 2-.3 1 0 1.2 0 1.2-.2s-.3-.3-.5-.3l-.4-.2c0-.3.7-.4 1.3-.3 2.1.5 4 2.8 4.2 5.1.1 1.5 0 2.2-.8 3-.9 1-2 1.4-4 1.6l-1.4-.1Zm15.8-8.3c.5-.5.6-1.1.4-2.1-.3-1.2-1-2.3-1.6-2.6-.7-.3-1-.3-1.2 0 0 .2-.5.4-1 .4-.8.2-1.4.7-1.4 1.2 0 1.2.9 2.5 2 3.1 1 .5 2.3.5 2.8 0Zm-3-1.5c-.7-.6-.8-1-.4-1.8.2-.5.6-.6 1.5-.5.5 0 .7.2 1 .7l.2 1.2c0 1.3-1.3 1.6-2.4.4Zm-18-4c.4-.4.5-.6.5-1.3a3 3 0 0 0-1.5-2.6c-.9-.5-3-.6-3.9-.3-1.2.5-1.2 1.7 0 3 1 1.1 2.3 1.7 3.5 1.7.8 0 1 0 1.4-.5Zm-2.8-.7a5 5 0 0 1-1.1-.8c-.8-.7-1-1.3-.3-1.7.6-.4 2.1-.2 3 .4.6.4.7.5.7 1 0 .6-.1.8-.4 1-.4.3-1.3.4-1.9.1Zm-187.6 43.2c-5.7-.5-10-1.6-14.7-4a29.1 29.1 0 0 1-15-17.2c-1-3.2-1-4.2-1-9.2 0-4.2 0-4.8.3-6.4 1.3-6 3.2-9.9 7.5-15.2 2.8-3.6 7.8-8 11.6-10.5a34.2 34.2 0 0 1 51 19 27 27 0 0 1 1 9.4c0 3.8 0 4.4-.3 6a35.5 35.5 0 0 1-11.2 18.9c-5.6 5-13 8.4-20.5 9.4-1.4.2-4.2 0-8.7-.2Zm5.3-11c5.7-.3 11-2 15-4.6 3.7-2.4 6.6-6.1 8.1-10.2.4-1 .5-1.7.5-3.7.1-2.8 0-4-.8-6.3a25.5 25.5 0 0 0-17-16.3c-3.8-1-7-1.5-9.3-1.2a33 33 0 0 0-8.2 2.1c-5.1 2.5-8.8 7.5-10.7 14.7-.5 2-.6 2.4-.6 5.8-.2 5 .3 7.7 2 11 1 1.9 3.6 4.5 5.6 5.6 2.4 1.4 5 2.3 8.3 2.8 1.5.3 5.3.5 7 .4Zm-7.6-1.7c-4.4-.7-7.9-2.3-10.3-4.6a13.3 13.3 0 0 1-3.2-6.2 17 17 0 0 1-.5-5.6c0-3.3 0-4.2.3-5.4a25 25 0 0 1 6.1-12.1c3.4-3.5 7.4-5 14.3-5.5 2.3-.2 4 0 5.9.7l1.8.6c1.3.3 4 1.6 5.7 2.8 1.8 1.1 5 4.2 6 6 2.8 4.2 4.2 8.4 4 12-.2 2-.6 3.2-1.4 5-2.9 6.1-8.9 10.4-17 12-3.7.8-8.2.9-11.7.3Zm8-4.3c.8-.2 1.1-.8 1.1-1.6 0-1.6-.9-3-2-3l-1.3-.2c-.6 0-.8 0-1.2.3-.3.3-.4.5-.4 1.3 0 2 1 3.2 2.7 3.3h1.2ZM105 290c-.2-.2-.4-.7-.4-1-.1-.7 0-.9.4-1.2.8-.7 1.8-.3 2 .8.3.9.3 1 0 1.4-.5.5-1.6.5-2 0Zm16-2.5c.6-.3.9-1 .7-1.9-.3-1.5-.8-2-2.3-2-1-.2-1.3-.1-1.7.2-.6.5-.7 1.2-.3 2.2.7 1.3 2.4 2 3.6 1.5Zm-2.4-1.4c-.2-.2-.3-.6-.3-.8 0-.3.9-1 1.4-1 .8 0 1.3 1.4.7 2-.4.4-1.4.3-1.8-.2ZM93.8 282c.9-.4 1-.7 1-2a3 3 0 0 0-.6-1.8c-.5-.7-1.3-1.2-1.6-1l.1.4c.3.3.2.3-.3.2-1.7-.4-2.8 0-2.8 1.2 0 1.8 2.6 3.7 4.2 3Zm-2.3-1.4c-.7-.5-1-1.2-.7-1.6.7-.8 2.4-1 2.8-.1.2.6.2 1.5-.1 1.8-.4.4-1.3.3-2-.1Zm19 .3c2.8-.9 4-2.6 3.5-5.4-.5-3.2-3.3-6.2-5.8-6.2-1.2 0-1.6.2-1.5.8l.1.5-1.6.1c-1.3 0-1.8.2-2.6.5a3.9 3.9 0 0 0-2.3 4c.3 2.4 2.6 4.8 5.7 5.7 1 .3 3.5.3 4.5 0Zm-3.9-1.1a6.1 6.1 0 0 1-3.9-2c-2.1-2.3-1.1-5 2.3-6.3.6-.2 1.4-.3 2.1-.3.8 0 1.1 0 1-.2 0-.2-.2-.3-.4-.3-.5 0-.5-.4 0-.5 1-.2 3 .8 4 2.1.7 1 1.1 2.5 1.1 3.6 0 2.4-1.5 3.7-4.9 4l-1.3-.1Zm15.7-8.3c.5-.5.6-1.1.4-2.1-.3-1.2-1-2.3-1.6-2.6-.6-.3-1-.3-1.2 0 0 .2-.5.4-1 .4-.8.2-1.4.7-1.4 1.2 0 1.2 1 2.5 2 3.1 1 .5 2.3.5 2.8 0Zm-3-1.5c-.6-.6-.7-1-.4-1.8.2-.5.6-.6 1.5-.5.5 0 .7.2 1 .7l.2 1.2c0 1.3-1.3 1.6-2.4.4Zm-18-4c.7-.7.7-1.8 0-3-.5-.9-1.3-1.2-3-1.4-2.8-.2-3.6 1.3-1.8 3.2 1 1.1 2.2 1.7 3.4 1.7.8 0 1 0 1.4-.5Zm-2.8-.7c-.2 0-.7-.4-1.1-.8-.8-.7-1-1.3-.3-1.7.6-.4 2.1-.2 3 .4.6.4.7.5.7 1 0 .6 0 .8-.4 1-.4.3-1.3.4-1.9.1Zm237.7-1.4.4-1.8c.5-2.8.4-2.7 1.2-1 .3 1 .6 1.7.5 1.8-.1.2-1.8 1.2-2 1.2-.1 0-.1 0 0-.2Zm2.2-2.8-.7-1.4h.5c.4 0 .5 0 1 1.1.4.9.5 1.3.4 1.4-.4.4-.6.2-1.2-1Zm1.4-.2c-.2-.5-.3-.8-.2-1 .1-.3.2-.1.6.6.4.8.5 1.2.1 1.2l-.5-.8Zm1-.5c-.4-.7-.4-.7-.1-.7.2 0 .8.8.8 1.1 0 .5-.6.2-.8-.4Zm-86.4-2.3c-.7 0-1.1 0-1.2-.2a608.3 608.3 0 0 1-3-29.1c-.4-5.3-.5-16.4-.5-88.6V74l.5-1c.6-1.3 1.6-2.5 2-2.5.3 0 .4-.1.5-.2.2-.4 1.2-.6 2.2-.6.5 0 2.8 0 5.2-.2 11.5-.7 19-1 32.2-1a439.7 439.7 0 0 1 42.7 2c1.9.3 2.2.4 2.9.9 1 .7 1.7 1.6 2.1 2.9l.9 2.2 1.8 5.7 7.3 22c5.5 16.2 11.1 35.4 16.6 56.8 1.8 7 2.6 9.8 4 14.7l.8 2.9v3.3c0 1.8 0 5.2-.2 7.7-.2 5.8-.2 13.3 0 21l.3 11.3v5l-1 .2c-.9.2-1.9.7-2 1a158.2 158.2 0 0 0-.2 15.3c.3.3.4.4 1 .3l1.5.3 1 .3v.9l.1 1.7v.8l-1.4 1a83.2 83.2 0 0 1-21.5 8.9c-.6.4-2.5.5-8.2.5h-4.5l-1.1-3.2a37.2 37.2 0 0 1-1.3-4.2c-.2-.1-.5-.8-.8-1.4a18 18 0 0 0-.6-1.5 21.3 21.3 0 0 1-1.9-4c-.4-.2-2-2.7-2-3.2 0-.2 0-.3-.2-.3s-.6-.2-1-.9l-2.6-2.7c-1.7-1.7-1.9-1.9-1.9-2.5 0-.6-.4-1.2-.7-1l-.1.5v.4l-.8-.6c-.4-.3-.7-.7-.7-1 0-.3 0-.4-.5-.2l-1-.5a49 49 0 0 0-11.5-5.4 36.7 36.7 0 0 0-13.2-1.6 39.3 39.3 0 0 0-26.3 12 41.3 41.3 0 0 0-11 19c-.7 2.8-.6 2.6-1.1 2.4a6 6 0 0 0-1.6-.2Zm10.8-73.5a64.3 64.3 0 0 1 9.6-.3c.5.1.5.1.7-.2.3-.7-.1-4.6-.5-5.1l-.3-.5h-6.2c-4-.1-6.2 0-6.4 0l-.3 2.7c-.1 2.3 0 2.5.2 2.9.3.4.5.4 1.7.5h1.5Zm-2.2-3c0-1 .2-1.7.2-1.8.1-.2 10.9-.2 11 0l.1 1.6v1.4l-4.1.2a85.4 85.4 0 0 0-6 .2h-1.3Zm9.7-5.9c9.3 0 26.8-.4 31.8-.5 13.3-.4 20.7-.5 37.2-.6 9.6 0 18.1-.2 19-.2 1.5 0 2.3-.3 2.3-.6l-7.6-31.4a666 666 0 0 0-13.7-48l-2.7-9.7a115 115 0 0 0-2.4-8.5c0-.2-.4-.3-.7-.4l-38.8-.2a418 418 0 0 0-31.3 1c-8.6.4-8.3.4-8.5.5l-.6.2c-.3 0-.5 0-.4.2 0 .1.2.2.4.1.4 0 .4 0 .3 1a6431.6 6431.6 0 0 0-.9 78.3v18.8h16.6Zm-15.4-11.8v-20.2a8988.2 8988.2 0 0 0 .6-61.9l.1-4 1.6.1c.8 0 4.6 0 8.3-.3l11-.5c2.8-.2 12.2-.3 30.6-.3 26.3 0 26.5 0 26.6.4l1.8 7c1 3.6 2.6 9.8 3.8 13.7 8 26.5 10 33.5 14 50.6a5550.7 5550.7 0 0 0 6 24.8l-22.8.2c-13.4 0-26.8.2-32.6.4-13.8.4-24.2.5-37.5.6h-11.3Zm10.4 10 .2-.4c0-.2-4.2-2.1-5.5-2.5l-.8-.2-.1-1-.2-2.7-.1-1.6.5.3c4.4 1.8 9.3 4.2 11.6 5.6 1.4.8 2.2.9 2.2.3 0-.2-.2-.4-.6-.5l-1.7-1a78.4 78.4 0 0 0-12-5.6c-.2-.3-1.3-15-1.4-19.5 0-2.3-.3-2 2.4-2.5l1.7-.3 1.1.6a78 78 0 0 0 4.8 2.4l3.7 1.8.1 3 .2 3.9c.1.8.2.8-.9 0-.9-.5-5.4-2.8-7-3.4-1.5-.6-4.3-1.5-4.5-1.3l1 .5a150.8 150.8 0 0 1 11.1 5.3c.4.1.4.3.5 1.1l1 8.4.2.6-3.4-1.7a37.4 37.4 0 0 0-7.8-3.4l-.8-.1.4.4 2 1 5.6 2.8c3.7 1.8 4 2 4.2 2.5a329 329 0 0 1 1.2 6.8l.4.1c.3 0 .3-1.1-.5-6.8-1.2-9.3-1.4-11.6-1.8-19-.2-3.9-.3-5.5-.5-5.8-.5-.8-3-1.1-7.5-1-3.6 0-6.6.5-7.6 1l-.6.2v3.3a288.5 288.5 0 0 0 1 18.8v.3c.2.3.4 1.5.7 4.5l.4 4.3.6.2h.5v-2.2l.5.3c.7.5 4.1 2 4.8 2.2h.7Zm4-28.6c-6.2-3-6.4-3-6-3.2.6-.2 4.6-.1 6 0 1.9.3 1.7.1 1.7 2.2l-.1 1.8-1.7-.8Zm8.7 26.9-.5-5.3c-.7-9-.9-17.5-.2-17.5a63.4 63.4 0 0 0 6.5 6.2 352 352 0 0 0 15.5 11.5c2 1.5 2.4 1.6 2.8 1.5l2-.6a77.3 77.3 0 0 0 26.9-16l.5.9c.3.6.9 1.2 1.4 1.6l.9.7c0 .3-3.6 9.3-5 12.5-1 2.4-1.4 3-1.7 3.2-.5.2-.7.6-.4 1l.2.6c0 .3.6.3 1 0 0-.2.5-.3 1-.3.8 0 1 0 1-.3l-.3-.7c-.1-.3-.1-.4.2-.3l.6.1.1.3c0 .4.4.6.7.4.3-.2 2.5-4 3.7-6.7l3.6-8.1c0-.2.3-.3 1-.3 2.7 0 4.9-.7 5.7-1.8.5-.7.5-2 0-3l-.6-1.4c-.3-1-1-2.2-1.6-2.7l-.6-.4.5-1.6c.5-1.4.5-1.7.4-2l-.4-1.1c-.4-1.4-1.6-2-2.4-1l-.8.4c-.4 0-.6.3-1.2 1.9l-.8 1.8h-1.7c-1.4 0-1.7 0-2.4.4-1.3.7-1.7 1-2.4 2.2-.4.7-.8 1.2-.9 1.1l-3.3 1.6c-8.5 4.3-14.8 7.2-20.8 9.3l-3.1 1-1-.4-4.3-1.8c-5-2-10.5-4.8-17-8.7-2.8-1.6-3.6-2.3-3.6-3.4l.4-4.3.8.3c2.3 1.5 6.3 3 9.1 3.5a28 28 0 0 0 27.7-12.3c.8-1.4 1.6-3.4 2-5.2.5-2 .4-8.3 0-11a26.4 26.4 0 0 0-9.2-15.6c-1.4-1-3-1.8-5.6-2.7-2.9-1-3.3-1.1-3.1-1.2.2-.2 4-.4 5.9-.3 2.8.3 6.6 1.3 7.5 2 .4.5.3 0-.2-.6-.9-1-2.7-1.8-5.6-2.3-2.2-.4-7.9-.3-9.1.2-.8.3-1 .3-2.4 0-.8-.2-2-.3-2.6-.3-.6 0-1.2 0-1.2-.2-.2-.3 1.6-1.8 2.8-2.4 1.6-.8 2.8-1.1 5-1.4 3.2-.3 8 .2 10 1 .9.3 1.3.4 1 0-.3-.3-4-1.5-5.9-1.9-1.8-.4-6.6-.3-8.4.2-3 .7-5.8 2.8-5.8 4.2 0 .5 0 .5-.6.5-2.8.1-5.6 1-8.8 2.6a25.2 25.2 0 0 0-14.2 22.4 24.5 24.5 0 0 0 7.7 17.6l2.2 2.2-.4 3.5c-.4 3-.4 4.5-.4 8.8 0 5.4.2 8.7.9 15 .5 4.4.5 4.3 1 4.3h.4l-.1-1.4Zm20.5-6.8c-3.6-2.5-12.4-9.1-14-10.5a24 24 0 0 1-3.3-3l2.3 1.2a111 111 0 0 0 20.3 9.3c.4 0 5.4-1.7 7.9-2.7 3-1.2 6.4-2.8 12.3-5.7a284 284 0 0 1 5.8-2.9c0 .1-6.1 4.9-7.8 6a120 120 0 0 1-14.7 8.2c-1.4.6-5.4 2.1-5.7 2.1l-3-2Zm32.8.3c0-.3.3-.3.5.1.3.4.3.4-.1.3l-.4-.4Zm1-2.5c0-.2.2-.2.3 0l-.1.2-.3-.2Zm.8-2 .2-.1.1.1-.1.2c-.1 0-.2 0-.2-.2Zm.3-1c0-.2 0-.2.3 0l.2.3h-.2c-.2 0-.3 0-.3-.2Zm.9-1.9v-.2l.2.2c.1.1 0 .2 0 .2l-.2-.2Zm.7-1.7c0-.3 0-.2.4.2.3.4.3.4 0 .2l-.4-.4Zm4.2-1.4s-.6-.2-1.2-.1c-1.6 0-3-.4-4.1-1.2-1.2-.7-1.7-1.5-1.7-2.6 0-1.2.3-1.7 1.6-2.5 1-.6 1.3-.6 2.3-.6 1.5 0 3.3.2 4.5.6.8.2 1.2.5 2.1 1.4 2.1 2 2.2 3.5.3 4.4-.8.4-2 .7-3.4.8l-.4-.2Zm3.4-6.3c-.6-.5-.8-1-.3-1 .2 0 1 1 1.4 1.6.1.3 0 .3-1.1-.6Zm-3.8-2.2.1.2v.2c-.1 0-.1-.2 0-.4Zm-4 .2c.3-.2 1-.3 1.5-.3 1.4 0 1 .3-.5.4H337l.3-.1Zm-48.3-2a22.8 22.8 0 0 1-18.2-18.2c-.2-1.2-.2-6 0-7a25.6 25.6 0 0 1 15.1-19.4c2.7-1.3 5-1.7 9-1.8 2.7 0 3.4 0 5.2.4 2 .5 2 .5 1.2.6-2 .2-1.4.7 1 .8 2.2.2 3.8.6 5.7 1.7 2.5 1.3 4.5 3 6.2 5.7l2 3.3-1-.5c-.4-.4-1-.7-1.1-.7-.6 0-.6.4.2 1l1.9 1.7c1 1 1.2 1.3 1.5 2.4 1.2 4 1.5 9.3.8 13-.5 2.4-2 6-2.8 6.4-.5.3-6.8.3-8.5 0a41.2 41.2 0 0 1-16.3-7c-.5 0-.5.6 0 1 .4.5 3 2.1 5.3 3.3 5.9 3 10.3 4.2 15.7 4.2h2.9l-.8 1c-1.7 1.9-5.3 4.5-8.5 6-3.9 2-6.8 2.6-11.5 2.6a19 19 0 0 1-5-.4Zm22.7-22.2.5-.7c.7-1.4.2-5-1-6.3-.3-.4-.4-.4-.9-.2-.8.5-1.5 1.4-1.6 2.3-.4 2.2 1 5 2.2 5h.8Zm5.5-.5c.4-.3.4-.5.4-1.6 0-1.2-.6-3.6-1-4.3-.3-.5-1.4-.7-1.9-.4-1.2.8-.9 5.2.5 6.4.6.5 1.5.5 2 0Zm-14-7.1c.7-1 3.7-3.8 4.9-4.4 1-.6 1-.6.7-.8-.1-.2-.4-.3-.6-.3-.6 0-2.1 1-3.3 2.1-1 1-1.4 1.5-1.8 2.5l-.5 1.3c0 .3.3 0 .6-.4Zm42.5 57.5 1-1.6a98 98 0 0 1 6.7-10.8l.5-.6.2.4 4.4 6.3c.3.4.3-.1-.1-1a55.8 55.8 0 0 0-4-6c0-.2.3-.7.7-1.2l.8-.8.6 1 1.5 2.6c.1-.1-.6-2.2-1.1-3.2-.4-.7-.4-.8-.1-1.3.3-.4.3-1.1 0-1.6-.2-.3-3.8 3.6-5.8 6.4-2 2.7-6.1 9.8-6.6 11.2 0 .3 0 .4.5.4l.7-.2Zm5.3-1.3c-.4-1.5-.7-2-.9-2-.2.1-.1.7.3 1.4.3.7.8 1.1.6.6Zm-6.8-.2-1-1-1-1c0-.3-.4-1.3-.6-1.3-.2 0-.2.4 0 1 .2.4.2.4-.5 0l-.7-.5c0-.3.6-1.4.7-1.4l1 .6c.6.4.8.7 1 1.7.3.7.5 1.2.7 1.2.3 0 .3-.1 0-1.1-.3-.8-.3-.8 0-.7l.2.4c0 .3.7 1.9.9 1.9v-.9c0-.7 0-.8.2-.7.2 0 .3 0 .3-.3s-.6-.8-2-1.7l-1.9-1.3V162c-.3-.3-1.3-1-1.6-1-.3 0-.2.4.3.8.4.4.4.5.3 1.8 0 1.5-.8 3-2.2 5-.8 1-1 1.1-1.4 1.1l-.7.1c-.2.2.2.8.6.8.2 0 .4 0 .4.2.3.4 1.4-.2 2.2-1.4l.4-.5 1.2.8c.7.4 1.6.9 2.1 1 1 .5 1 .5 1 .3Zm13.9-.2-1.4-2.5a72.2 72.2 0 0 0-4.6-5.4c0 .3.5 1 3.3 4.8 2 2.8 2.7 3.5 2.7 3.1Zm-2.5-.4-.4-1c-.3-.6-3.6-4.7-3.8-4.7-.4 0 0 .6 1.2 2.5 2.3 3.1 3.3 4.3 3 3.2Zm-3.9-.8c0-.5-.8-2-1.2-2.4-.6-.5-.6 0-.1 1.2.8 1.6 1.3 2.2 1.3 1.2Zm6.7-1c0-.6-1.7-3.4-3.7-6-1-1.5-1.4-1.9-1.4-1.5a135.8 135.8 0 0 0 5.1 7.5Zm0-5.5a69.4 69.4 0 0 0-3-5c-.3 0 0 .8 1.1 2.5l1.3 2c.3.5.6.8.6.5Zm-84.3-3.3c.1-.2-.6-.7-3.1-2-2-1.1-7.2-3.6-7.5-3.6l-.1.4a73.6 73.6 0 0 0 10.3 5.4l.4-.2Zm-.8-9.9a41.2 41.2 0 0 0-12.4-5v.2l.3.2c.5 0 7.2 2.7 9.3 3.8 2 1 3 1.3 2.8.8Zm-13 101.4c.5-1 .6-1.1.9-.6.2.2 1.4 1.7 2.9 3.2l2.5 2.7-.4.7-.4.6-5.8-5.8Zm3.1 1.2a15.2 15.2 0 0 1-2.3-2.7c0-.2.1-.5.3-.7.2-.4.3-.3 2.5 2.1a116.8 116.8 0 0 0 3.8 4.1l-.4.6-.4.4-.6-.7-2.9-3.1Zm2.1-.1-3-3.3-.7-.8.4-.7.5-.8c.3 0 6.2 6.5 6.2 6.9 0 .2-.7 1.2-.8 1.2l-2.6-2.5Zm2.9-.1c-1-1.4-2.5-3.1-4.1-4.8l-1.3-1.4.5-.7.4-.8 3 3c1.6 1.7 3.2 3.3 3.4 3.7l.5.5-.7.8-.9.8-.8-1.1Zm1.8-1.7-3.3-3.7-2.6-2.7.7-1 .8-1.1 2.2 2.3 3.5 4 1.4 1.4-.9.8c-.4.5-.8.9-1 .9l-.8-1Zm2.2-2-5.3-6.2-.8-1 .4-.5.6-.6.5.5a104.6 104.6 0 0 0 6.4 7.5c0-.3-4.6-6-6-7.5l-.7-.8 1.7-1.8a42 42 0 0 1 12.4-9c.2 0 1.2 1.3 2.5 2.9a25.2 25.2 0 0 1 3.9 5l.6.7 1.2 1.4.7.9-.9.2-2 .6-1.2.4-1.3-1.3a69.6 69.6 0 0 1-5.1-6.1c-1.2-1.6-2-2.2-1.5-1.3a57.7 57.7 0 0 0 7 9l-1.7.8a49.3 49.3 0 0 0-4.5 2.4c-.2 0-3.8-4.7-5.2-6.8-1.3-1.9-1.8-2.5-1.8-2.1 0 .5 2.4 4 4.7 7l1.7 2.3-1 .7-1.5 1c-.3.4-.5.4-.6.2l-1.9-2.3a96 96 0 0 0-3.2-3.9c-1.4-1.6-2-2.1-2-1.6.1.3 4.8 6 6.2 7.5l.7.8-1 1-1.2 1-.8-1Zm4.4-2.8-.1-.2-2.5-3.2c-3.1-4.2-3-4.1-3.2-4a48 48 0 0 0 5 7c.4.6.8.7.8.4Zm4.3-2.4-1.4-1.9a118.4 118.4 0 0 1-5.1-6c-.3 0 0 .6 2 3.1 1.5 2 4 5 4.3 5l.2-.2Zm2.3-1.3c0-.1-.4-.7-1.2-1.5-.7-.7-2-2-2.7-3-2-2.4-2.5-3-2.6-2.8-.3.2 2.3 3.6 4 5.4 2 2 2.4 2.3 2.5 2Zm4.2-2-1.6-2a113 113 0 0 1-5-6c-.2 0 0 .3 1 1.8 1.5 2.3 2.9 4 4.1 5.2 1 1 1.5 1.4 1.5 1Zm-220.5 6 .2-1.8c.1-1.3.1-2 0-3.2-.4-2.5-.5-2.3.6-2.2 1.7 0 1.8.1 1.9 1.4 0 .6 0 2.2-.2 3.6l-.2 2.4-1.1-.1a21 21 0 0 1-1.2-.1Zm246.8-3.4s0-.8.3-1.6l.8-4.5c.2-1.8.4-2.7.5-2.4.2 1 .4.4.4-1.3 0-1 .1-1.7.2-1.7l1.4.7-.1 1-.6 3.9-1 6.8c-.2.1-1.5-.5-2-.9Zm57.2.3c-.2-.2-.7-.3-1-.4l-.8-.1v-6.2l.3-6.9c.2-.5.3-.7 1-1 .8-.2 1.6-.3 2.2-.1.1 0 .4.6.6 1.3.4 1.2.4 1.6.4 5.3l-.1 5.7-.2 1.7-.8.4c-1.1.6-1.1.6-1.6.3Zm-59.2-1c-.3-.3-.3-.4-.1-1.3.3-1.3.5-2.9 1-6.8 0-1.7.3-3.4.4-3.6l.2-.5.9.4c1.1.6 1 .5.8 1 0 .1-.5 2.5-.8 5.2-1 6.7-.8 6-1.5 5.9-.3 0-.7-.2-.9-.4Zm-63.6-1.7-3-3.3-1.4-1.5v-1c0-.6.1-1.1.2-1.1a40.2 40.2 0 0 1 5.7 6.2c.2 1 .3 2.6.2 2.5l-1.7-1.8Zm60.7.6a41 41 0 0 0-5.3-1.4s0-1 .3-2a43 43 0 0 0 1-7c.3-3.7.2-3.6 1.3-3.3l1.8.5c1.3.4 1.7.7 1.6.9a248.7 248.7 0 0 0-1.3 11.4c-.1.6.3.3.5-.3.4-1.2.7-3.3 1-7.2l.5-3.9a8 8 0 0 1 2.5 1l-.3 1.2a177.4 177.4 0 0 0-1.6 10.7l-2-.6Zm-2.3-2.9c.6-2.3.7-3.1 1.3-8.9.1-.8 0-1.4-.5-1.4-.2 0-.2.4-.8 5.4a79 79 0 0 1-.7 5.3c-.2.5 0 .8.2.8l.5-1.2Zm-195.3 1.4c-.6 0-.8-.2-2-1.4l-1.5-1.3h4.6l1.6 1.5c.9.9 1.6 1.6 1.5 1.7l-1.8-.2-2.4-.3Zm178.2-1.5c-1.4-1.9-1.6-2.3-1.4-3 .1-.2.5.1 1.3 1.3.7.8 1.2 1.6 1.2 1.7 0 .3 1 .5 1.1.3 0 0 0-.2-.2-.3-.4-.3-.4-.4-.2-1.7l.2-1.3 1.5 1.5c1.1 1.3 1.4 1.7 1.4 2.1 0 .4 0 .6.3.6l.2-.4c0-.4 0-.4.5-.1.5.2.5 0 0-.5-.3-.3-.3-.4-.1-1l.2-.7 1.5 1.4 1.6 1.4-2 .1a44 44 0 0 0-5.3.6c-.2 0-1-.8-1.8-2Zm10.6 1.4h-1l-1.8-1.8c-1.5-1.4-1.7-1.7-1.6-2l.5-6.6c0-1.5 0-1.7-.3-1.7-.4 0-.4.2-.7 4.1l-.4 3.5s-.2 0-.3-.2l-1.5-2-1.3-1.6v-1.8l-.1-2c-.3-.4-.6.3-.6 1.4 0 .6-.1 1-.2 1l-.5-.6c-.4-.5-.7-.8-.7-.5l.7 1.2c.6 1 .7 1.1.7 2.2 0 .7-.1 1.2-.2 1.1-.3 0-4.5-5.3-4.5-5.5 0-.1 2.4-.8 4.3-1.1 2.4-.4 9.2-.4 11.8 0 2.4.4 2.6.4 2.3.7a40 40 0 0 0-1 7c-.2 1.9-.4 3.8-.6 4.4l-.1 1h-1l-1.9-.2Zm.7-.6.3-2.4c.4-2.5 1-9.1.7-9.3-.2-.3-.3-.1-.8 4.4-.6 5.5-.7 7.4-.4 7.6 0 0 .2 0 .2-.3Zm-2.4-3.2a56.5 56.5 0 0 0 .8-8.8c-.3.1-.6 1.8-1 5.6a1017 1017 0 0 1-.4 5.3l.6-2.1Zm-49.7 1.8a27 27 0 0 0-2.8-3.1l-2-2v-2.3c.2 0 1.3 1.2 2.7 2.6l2.6 2.6.2 1 .2 1.6v.7l-.9-1Zm43-3.3v-1.2l.2-.8 1.1 1.4 1.5 1.7c.2.2.3 1.3.1 1.8 0 .3-.3 0-1.4-1.1-.8-.8-1.4-1.6-1.5-1.8Zm-2.2 1.2-1.1-1.5v-2.5l.6.7c1.4 1.6 2 2.4 2 2.9a9 9 0 0 1-.3 2l-1.2-1.6ZM69.2 212v-23.5l86.7-.1h86.7v23a530.6 530.6 0 0 1-.1 23.8l.2.4H156l-86.7-.1-.1-23.5Zm171.3-7.3c.3-.6.3-1.1.3-4 0-1.9-.1-3.5-.2-3.7-.2-.3-1.4-.3-84.1-.4-55.8 0-84 0-84.1.2v.5l.2 2.7c0 2.4.2 3.6.5 3.6l.5-.7c.2-.6.3-.8 0-2.7a11 11 0 0 1 0-2.2h166l.2 6.2H77.1c-.2.2-.2.3.1.6.4.3 1 .3 81 .3l81.4.1c.6.1.6 0 1-.5Zm-165.4.3c.3-.3-.2-1-.8-1-.4 0-.4.5 0 .8.3.3.6.4.8.2Zm211 28.6a130 130 0 0 0-3.7-4.6l.6-.3c.6-.2.7-.2.8 0a67 67 0 0 0 2.8 4c.9 1 1 1.5 1 2v.5c-.2 0-.8-.7-1.5-1.6Zm-39.6-2.2c-2.6-2.6-2.7-2.7-2.7-3.4v-.7l2.2 2a21 21 0 0 0 2.3 2.1c.5 0-.6-1.4-2.5-3.2-1.6-1.6-2-2-2-2.5l.2-.5 2 2 2 1.8c.3-.2-.5-1.3-2.3-3l-1.9-1.9v-2l2.1 2c1.4 1.5 2 2 2 1.9 0-.5-.7-1.5-2.5-3.3l-1.6-1.5v-1l.2-1 2.1 2c1.2 1.2 2.1 2.1 2.2 2 .2-.2-.4-1-2.3-2.9-1.7-1.6-2.2-2.1-2.2-2.5v-.5l.5.3 2.3 2.1 1.9 1.8v1.9a171 171 0 0 0 .7 10.7l-2.7-2.7Zm40.6.8a47.8 47.8 0 0 1-2.9-3.9l.8-.3c.6-.2.7-.2 1 .2l1 1.4c.5.6.8 1.1.8 1.3l-.1 1-.1.7-.5-.4Zm-20 76.8-3-.8-4.5-.9c-1.3-.4-2-.4-1.4 0a58.3 58.3 0 0 0 9 1.7Zm-197-2 .6-.4c0-.2-1.3-.3-3.8-.3-4-.2-7.4-.6-12.3-1.5-4.6-.9-4.4-.9-4.3-.6a461.5 461.5 0 0 1 14 2.7c2.2.3 4.9.3 5.8 0Zm6.9-1.1c.4-.4.2-.7-.6-.7-.4 0-3-.4-5.8-1a247.9 247.9 0 0 0-20.3-3.4l1.2.4a789.3 789.3 0 0 1 12 2.5l8 1.5c4.4.9 5 1 5.5.7Zm193-.1c.3-.4-.1-.5-1.8-.6-.9 0-3.8-.5-6.4-1a167.3 167.3 0 0 0-13.4-2.2l2.7.7 4.2.9a53 53 0 0 0 14.8 2.2Zm5.3-.3a78.2 78.2 0 0 1-11-3.7c-5.9-2.2-9-3.2-12.5-4-2.6-.7-3.5-.8-3.5-.5l.4.2c1.3 0 11.3 3.4 20.7 7 1.1.4 4.5 1.3 5.2 1.3.5 0 .7-.1.7-.3ZM82 304.8c-.1-.5.2-.4-11.3-3.7a400.5 400.5 0 0 0-19.5-5 178.2 178.2 0 0 1 6 1.8 775.5 775.5 0 0 0 22.3 6.7c2.3.7 2.5.7 2.5.2Zm65.9-16c1.5-3 2-4.4 2.3-6a37 37 0 0 0 0-7.9c-.2-1.5-1-3.5-1.3-3.5-.1 0-.2.1-.1.3.8 2.8 1 7.9.3 11.9-.5 2.6-.9 3.9-1.9 5.6-.5 1-.7 1.7-.4 1.7l1-2Zm188.8-1.6.3-1.3.8-2.6c.4-1.4.4-1.7.4-5 0-2.5 0-3.6-.3-4.6-.3-1.5-.9-2.8-1.2-2.8-.3 0-.3 0 0 1.1.5 1.8.8 4 .8 6.7s-.3 5.6-.7 6.6c-.3.8-.5 2-.3 2 0 .1.2 0 .2 0Zm-85.3-9.1a17 17 0 0 1 1.3-5.8c.6-1.6.7-2 .4-2a15.7 15.7 0 0 0-2 9.4c.1.1.2-.5.3-1.6Zm-186.4-.4V275c0-2 0-3 .4-4.8a18 18 0 0 1 2.6-7.2c1-1.5.8-2-.3-1-.9 1-2 3-2.5 5.2-.4 1.6-.4 2-.5 6v4.5h.3Zm196-11.3c0-.4-.4-.7-1.3-1.2l-1.5-1c-.5-.5-.5-.6-.4-.2v.4l-2.4-.9c-2.3-1-2.8-1.3-3-2.5-.2-.8-.5-1-.5-.4 0 .2 0 .6.2 1 .3.6.7.8-4.2-1.5l-3.9-1.8c-.1 0-.3-.2-.3-.5-.2-.7-.8-2-2.2-4.3l-1.2-2c0-.1 0-.3-.2-.4-.4-.2.5-.3 3.3-.3h2l1 1 2.1 2.9c1.3 1.8 1.8 2.4 1.5 1.5-.3-1-1-2.2-2.6-4l-.9-1.3 1.6-.1 1.6-.2s0-.3-.2-.5l-.4-.4h-57c-34.1 0-57.2.1-57.2.2-.2.3 0 .7.6.9l18.9.1h18.4v1.8l.1 2.3c.2.3.2.5 0 .7-.1.2-.1.3.1.6.3.3.6.3 23.2.3 22.8 0 22.9 0 23 .4.1.2.3.3.4.3.2 0 .3-.6.3-3.2V251h19.4v.5l.4 1 1.6 2.8 2 3.2 1 1.1 4.5 2.1a131 131 0 0 0 12.2 4.8Zm-65.4-10.8h-21.6l-.1-.6-.1-2.3V251h45v1.7l.2 2.5.1.8-1-.2-22.5-.1Zm-154.3 9.8c1 0 1.2-.2.8-.4l-6.1-.3a209.2 209.2 0 0 1-8.3-.1c.2.5 9.8 1 13.6.8Zm220.2-.5c0-.4-1.8-2.8-2.1-2.8-.3 0 0 .5 1 1.8.7 1 1 1.4 1 1ZM246 257l-.5-.8c-.5-.6-1.5-2.5-1.8-3.4 0-.2-.2-.3-.3-.3-.3 0 0 1 .4 2 .5 1 2.2 2.9 2.2 2.5Zm-38.7-8.3c0-.4-2.7-2.7-4.7-4.2a190 190 0 0 0-11-7.3c0 .4 2 2.1 5.3 4.3a213 213 0 0 1 10.4 7.2Zm-23.3-2.2c-.5-.5-3.1-2.3-5.7-4a136.3 136.3 0 0 1-7.1-4.9c-.2.2.4 1 1.3 1.8a170.5 170.5 0 0 0 12.3 8.1l-.8-1Zm55.2-.5a246.3 246.3 0 0 0-11.6-9c-.4 0 0 .4 1.2 1.5 2.2 1.8 11 8.5 11.4 8.6l-1-1Zm-3.7 1a65 65 0 0 0-9.7-7.6c-.4 0 .2.5 3 2.7a294.5 294.5 0 0 1 6.7 5Zm-60.5-.7c0-.5-2.5-2.5-7.7-6.3-3.9-2.8-5.1-3.6-4.2-2.6.9 1 3.5 3 6.4 5.1a356 356 0 0 1 5.5 3.8Zm-39-.1c0-.7-2.5-3.3-5-5.3a48.8 48.8 0 0 0-5.5-3.7c0 .2 2.2 2.1 4.6 4 4 3.3 4.9 4 5.1 4.4.3.5.8.8.8.6ZM84.5 245l-.7-.7-2-1.4c-1.3-1-1.4-1-1.4-.7 0 .4 1.6 1.8 2.7 2.4 1 .5 1.4.6 1.4.4Zm162.3-.8a31.6 31.6 0 0 0-7.7-7.2c-.4 0-.4.4 0 .8a292.8 292.8 0 0 0 6 5 8 8 0 0 0 1.7 1.4ZM91 242.4c0-.2-.3-.7-1-1.3-1.3-1.2-3.4-2.6-3.6-2.5-.1.2.5.8 2.9 2.8.7.5 1 1 1 1.2 0 .2.1.3.4.3.2 0 .3-.2.3-.5Zm2.8-1.2c0-.5-.4-.9-1.8-2-1.6-1.2-2.2-1.5-1.9-.8.2.3 1 1 2.2 1.9.4.3.7.6.7.8-.1.1 0 .2.3.2l.5-.1Zm3.2-1.3c0-.3-1.5-2-2.2-2.4-.7-.3-.4.3.5 1.3.6.6.8 1 .6 1-.5 0-.3.3.3.4.8.1.8.1.8-.3Zm-48-1.3c.3-.2.3-.3 0-.5-.4-.3-1-.4-5-.5-2.4 0-7-.2-10.2-.5A433.7 433.7 0 0 0 9 236a708.3 708.3 0 0 1 11 1c17.9 1.4 28.5 2 29 1.6Zm10.8-16.9c-.2-.5-.4-7.7-.4-16.6 0-7.8 0-9-.3-9.2l-.3-.2-.3 3.4c-.3 5.5 0 12 .9 22.9h.3c.1 0 .2 0 .1-.3Zm5-7c.1-5.9-.1-17.8-.4-21-.2-1.4-.5-2.2-.7-1.7a458.7 458.7 0 0 0 .7 28.7c.2 0 .3-1.5.4-6Zm-32.4-11c.3 0 .5-.2.5-.3-.1-.2-6.2-.4-21.1-.8a53.5 53.5 0 0 0-11.7 0l2.7.3c6.5.1 10.4.2 14.5.5 4.7.2 14.3.4 15.1.3Zm71-54.4c1.1 0 2.8-.6 2.7-.8a374.8 374.8 0 0 1-33-.6 1685.3 1685.3 0 0 0-39.4-1.2c-5.2-.2-6.6-.2-6.4.2a142.5 142.5 0 0 1 14.2.5c13 .7 26 1.3 39.6 1.8 5.8.2 20.3.3 22.4.1Zm79.7-41.7c3-.1 3.4-.2 3.2-.5 0-.1-3.8-.2-10.8-.2a353.2 353.2 0 0 1-24.5-.6 986.8 986.8 0 0 1-23.5-1.1c-.8 0-1.1.2-.3.3a1917.8 1917.8 0 0 0 24.4 1.4l8.2.6c4 .2 19.6.3 23.3.1Zm42-36.9a165.2 165.2 0 0 0 6.1-1c-.1-.2-.8-.1-6 .3-3.8.2-17.7 0-25.4-.4a935 935 0 0 0-76.2-1.8 1697.1 1697.1 0 0 0-26.2.3l29.6.3c39.1.2 45.6.4 71 2a449.2 449.2 0 0 0 27 .4Zm0 0"/>
  </g>
  <path d="m296.4 196-.3.1c-.2-2.4-.5-4.5-1-5.7-.3-.7-.7-1-1.2-1.1-.2 0-.3 0-.3.4.4 1.3.5 3.8.6 6.5-2.5.2-5.8.6-6.8 1 0-2.9 0-5.4-.6-6.8-.1-.7-.5-1.1-1-1.2-.2 0-.3 0-.3.4.3 1.6.2 4.7 0 8-.5.1-1 .4-1.4.6.1 1.3.7 1.6.8 2.7h.4l-.2 4.2c.2 1 .8 3.6 1.6 3.8.2-.3.2-.7.3-1l.4-7.5a71 71 0 0 1 6.8-.6v1.2c.1 1.6.1 3 .3 4.1.2 1.1 1 3.6 1.8 3.8.2-.2.2-.6.2-1 0-1.7 0-4.6-.2-7.7v-.4h.3Zm0 0"/>
  <path d="M308 205c.3 1.2.9 2.2 2.4 2.3-.8-2.2-4.8-14.2-3.6-16.2.4-.8 0-1.7-.9-1.8-1 2.4-9.6 16.7-8 18 .1.4.5.7 1 1 .3.4.8.8 1-.2.5-1.3.1-4 2.2-4.6l5.2-.9Zm-5.7-4.2a34 34 0 0 1 3.4-7c.2 1.8.6 5.6 1.1 7.1-1.6 0-4.5.5-4.5-.1Zm0 0"/>
  <path d="M323.3 192c-.1-1.9-3-3-3-1.9 3.9 12-3 21.2-5.8 14a26 26 0 0 1 0-13.4c.3-.8-2.7-1.3-3-.6-1.2 4.4-1 18.8 5.1 18.8 7.8-.6 7-11.4 6.7-16.9Zm0 0"/>
  <path d="M335.8 201.7c-.3-1.2-.7-2-2.8-3.1l-6-1.6c-.7-.4-.1-1.1 0-1.3a7 7 0 0 1 8.6-2.6c1.3.3 1.5.4 1-1l-1.3-2.7c-.3 0-.8-.4-1.4.6-.8.4-2.8 0-4.7 1.2-1.7 1-4.3 2.4-4.7 4.4-.4 2 1.8 4.2 3.4 4.8 1.1.4 7.4 1.2 6.8 2.8-.6 1.8-4.4 3-6.2 3.2-1.7.2-4.3-1.4-3.5.7 1.2 1.3 2 2.5 4.3 2.2a34 34 0 0 0 5.8-2c1.7-.5 1.4-2.2 1.3-3.4Zm-8.4-1.3Zm0 0Zm0 0"/>
</svg>
