<svg xmlns="http://www.w3.org/2000/svg" viewBox="0 0 375 375" version="1.0">
  <defs>
    <clipPath id="a">
      <path d="M.7 0h373.5v375H.7Zm0 0"/>
    </clipPath>
  </defs>
  <g clip-path="url(#a)">
    <path d="M307 374.6c-1.6-.3-2.8-1-3-1.7-.3-1.2 1-2.7 3.2-3.8l1.2-.8-.6-1.4c-1.6-3.4-6.2-15.9-8.3-22.7-2.9-9-6.5-22.4-8.3-30.2l-1.8-8a464.2 464.2 0 0 1-6.8-32.9c-.3-.2 0 13 .5 20.4a499.5 499.5 0 0 0 10.4 73c.3.7-1 1.8-3.5 3a17 17 0 0 1-9.6 1.9 15 15 0 0 1-4.9-.6c-1.3-.5-2.5-1.4-2.5-2 0-1.4 2.5-2.5 7-3.3a62.8 62.8 0 0 1 11.9.1l-1-5.2c-2.8-12.3-5.4-28-6.8-40.8a483.7 483.7 0 0 1-3-47.3l-.4-9.8c-.7-5.3-1-19.5-.7-26.5a329 329 0 0 1 3.3-33.6c1-6.6 1-6.5-1.4 2.8-3.1 12.3-4.6 20-6.6 35.3a291 291 0 0 0-2.6 35.5l-.2 10v3l.7 1a14 14 0 0 1 2.2 9.7c-.2 2.9-.9 4.6-2.5 6.3-1.6 1.7-2.9 1.7-3.8 0-.9-1.8-1.2-6.6-.6-9.5.4-1.8 1.5-4.6 2.2-5.7.5-.7.5-1 .6-10.5A506 506 0 0 1 273 249c1.2-11 3.2-23.9 5-32.6 1.8-8.7 6.3-25.8 7.4-27.4l1.5-6c.9-4.6 2-9.3 2.5-11.1.1-.4 0-.5-.5-.5a37 37 0 0 1-23.7-11.5 24.1 24.1 0 0 1-5.8-11.2c-.6-2.5-.5-10.6.2-14 2-10.4 8.5-19.4 16-22.4l9.9-3.4c.5-.2 0-.6-2.4-1.8a40.2 40.2 0 0 0-18.9-4.4c-.3 0-.4 0-.4-.2 0-.4 2.8-.8 5.4-.8a33.5 33.5 0 0 1 18.7 6.2c.3.3.8.3 3.4.2h3l-1.6-1.7c-1.7-1.6-3.7-3-5.8-4-2.2-1.2-6.3-2.6-7.9-2.9-1.5-.2-1.9-.4-1.4-.7a25.7 25.7 0 0 1 14.2 4.6c.8.5 2.2 1.9 3.2 3l1.9 2 1.6.2c4.2 1 10.3 4 13.9 7l.8.8-.6.8-.6.8-2-1.6a31.4 31.4 0 0 0-12.2-6 35 35 0 0 0-14.8.3l-1 .2h.9c.5 0 1.1.2 1.3.3.7.4-.2.8-2.6 1-1.3 0-3 .3-3.9.5-1.8.6-5 2.2-6.1 3.2l-.8.7 1.2-.2c1.4-.2 3 0 3.6.3.3.2.3.2 0 .5-.1.3-.9.4-2.7.5l-3 .1c-1 0-4 4-5.9 8-2 4.2-3 7.7-3.3 12.8-.7 9 1.4 15.3 7 21a39 39 0 0 0 13.9 8.4 27 27 0 0 0 10 1.6c4 0 4.6 0 7-.5a29.6 29.6 0 0 0 15.9-8.6c3.6-4 6.6-10 7.4-14.8.3-1.4.3-7.5.1-8.9-.3-1.8-1.3-5.7-2-7.3-.6-1.6-1.8-4-2.7-5.3-.8-1.2-.8-1.2-.3-1.4 1.4-.4 1.8-.2 2.6 1.2 1.3 2.2 1.8 3.4 2.7 5.9 1.3 3.9 1.7 6.2 1.7 10 0 5.2-.7 8.2-2.8 12.8-2.4 5-6.2 9.8-10.2 12.6a33 33 0 0 1-18 6.1c-2 0-2.3.1-2.4.5-.4 1-3.7 17.2-3.5 17.4l1-.1 5.6-1.1c15-3 25.8-6 50-13.7 4.5-1.4 10.2-3.2 12.5-4.1a407 407 0 0 1 14.8-5.2c1.2-.3 1.3-.4 1-.7l-1.5-2-2.8-3.7-4.6-6.2-6.3-8c-8-10.3-16.3-20.7-19.8-24.8l-3-3.7-.8-.8-1.7 1.7c-2.3 2.2-4 3.1-7.9 4-6 1.6-8.5 1.6-10.1 0-.7-.6-.8-.7-.7-1.7.2-2 2.2-3.6 6.1-5.4 3.3-1.4 7.3-2.6 9.5-2.7 1.5-.1 2 0 3 .3.9.3 1.5.7 1.7 1a719.3 719.3 0 0 1 41 52.4c-.2.2-.2.4-.2.6a94.8 94.8 0 0 0-12.9 4.4 709.9 709.9 0 0 1-44.7 14.2c-9.1 2.5-12.6 3.4-23.8 5.7-5.1 1-5.7 1.2-5.9 1.6a308.3 308.3 0 0 0-5.4 50.3c-.1 6.9.2 15.8.6 18.3a603 603 0 0 0 22.5 94.2 90 90 0 0 0 5.7 14.1l1.3.2c1.3 0 4 .6 5.1 1.1 2.2 1 2.5 2.5 1 4-1.3 1.2-2.6 1.5-6 1.5a27 27 0 0 1-4.3-.4Zm9-1.4c1-.5 1-1 .6-1.5-1-1-3.6-2-6.2-2-2.3-.1-5.1 1.1-5.1 2.2s2.7 1.8 7 1.7c2.4 0 3.1-.1 3.7-.4Zm-29.7-3.7a17 17 0 0 0 5.4-2.4c0-.6-9.1-.7-12.5-.1-2.6.4-4.1.9-4.4 1.3-.2.2-.2.4.4.7 1.4.6 3 1 6.2 1 2.5 0 3.6-.2 4.9-.5Zm-14-64.6c1.3-1.7 1.6-3 1.7-6.1 0-2.7 0-2.8-1-5.4l-1-2.7c-.1-.2-1.2 2.3-1.7 4.2-.7 2.5-1 4.5-.6 6.6.3 2.3.7 3.3 1.2 3.9.5.6.7.5 1.4-.5ZM323 119.8c3.6-.9 6-2 7.7-3.7 1.3-1.3 1.5-2.1.7-2.9a5 5 0 0 0-2.8-.9c-1.9 0-6.9 1.5-10.1 3-2.4 1.1-3.7 2-4.1 3-.4.8-.4.8 0 1.3l1 .8c1 .4 4.2.2 7.6-.6Zm-205 253c0-.5.4-.9 1-.9.4 0 .4.5 0 1-.6.4-1 .4-1 0Zm-24.7-.7c-.2-.3.5-1 1-1 .3 0 .3.8-.2 1-.6.3-.6.3-.8 0Zm8-1.6c-.2-.8 1-1.7 2.7-2 1.3-.2 1.5.2.6.8-.9.5-.6.5 1.2.2 1.7-.3 2-.6.8-.8-1.3-.2-1.2-.7.3-.8 3.2-.3 2.6 1.8-.7 2.6-2 .4-4.7.4-4.8 0Zm28.4 0c-.7-.3-.7-1.5 0-2.2.5-.5 1.8-1 2.7-1 .8 0 1.7 1 1.5 1.6-.2.7-.6 1-1.5 1.5-1 .5-2 .5-2.7.1Zm2.5-1.2c.4-.2.2-.6-.6-1-.6-.3-.7-.3-.9.1-.1.3-.2.6-.1.8.1.3 1.2.4 1.6.1Zm6.2.7c-.4-.1-.6-.4-.3-.6.3-.1 1.6.3 1.5.5-.1.3-.6.3-1.2.1Zm-13.6-.4c0-.1.1-.4.3-.5.3-.2.4-.2.9 0 .7.5.5.8-.5.8-.4 0-.7 0-.7-.3Zm-47.4-.1c-1-.2-1.1-.4-.6-.8.5-.4 2.7-.4 5.6 0 2 .2 2 .3 1.1.4l-2.3.4c-1.5.2-2.7.3-3.8 0Zm37-.1c-.3-.5.5-1.2 1.1-1.2.7 0 .7.5 0 1-.8.6-1 .6-1.2.2Zm59.6.2c-.2-.1-.4-.8-.2-.8.5 0 1.3.5 1.2.7-.2.2-.5.3-1 0Zm-11.8-.7a65 65 0 0 1-11-1c-.4-.3-.3-1 0-1.2.2-.3.1-.3-.5-.2-1 .2-1.3-.1-.8-.7.2-.2.9-.3 2.1-.4 1.6 0 1.8 0 1.8.3s-.2.6-.4.7l-.2.5 2.5.4c2 .2 2.4.2 2.5 0 .3-1 2.9-2 5.1-2 2.4 0 3.8.8 4 2.3.2.8-.2 1.2-.5.5 0-.2-.6-.6-1.3-1-.8-.4-1.4-.5-2.5-.5-1.4 0-3.7.5-3.7.9a90.4 90.4 0 0 0 11.8 1.6c0 .2-.8.2-8.9-.2Zm-73.8-.4c-.1 0-.3-.3-.3-.5 0-.4.3-.4 2.5-.5l4.7-.4c2.2-.3 7.5-.2 6.9 0l-2.3.4-5 .7c-3 .4-5.9.5-6.5.3Zm92.3-.3-7.8-.6c-2.2-.2-3-.5-2.5-1a1269.4 1269.4 0 0 1 20 1.3c.7 0 1 .1.9.3-.2.5-4.3.4-10.6 0Zm-73.4-1.1-1.2-.2c-1 0-1.3-.4-1.4-1.3-.1-1 .3-1.2 2.1-1.4h1.6L107 363c-1.5-1.1-2-2-1.4-2.4.8-.6 5.9.5 7.7 1.6.8.5 3.5 2.9 3.5 3.1 0 .3-.5.1-1.2-.4-1.4-1.1-8.1-3.7-7.3-2.8.2.2 1.2.9 2.4 1.5 1.2.7 2.2 1.4 2.3 1.6l-.4.6c-.5.2-.7.2-2-.2l-3.1-.7c-1.4-.1-1.5 0-1.4.3 0 .3.3.4 1.2.5 1.4 0 2 .6 1.3 1.2-.5.3-.6.3-1.2 0Zm-12.9-.4c-.8-.8 1.8-3 4-3.3.9-.1 2 .2 2 .6 0 .2-.2.2-.4.1-.7-.2-3.5 1-4.4 1.9-1 1-1 1-1.2.7Zm46.9-.2c0-.8.8-1 9.4-2.7 4.9-1 5.4-1 5.2-.6a96.6 96.6 0 0 0-9.2 2.4c-3.2.9-5.4 1.3-5.4.9Zm-1.6-1.2c0-.3 0-.3-.8-.1-1 .3-1.6 0-1.4-.5.1-.6 1.3-2 1.7-2 .4 0 .4.5 0 .8-.4.5 0 .5.9.2 1.4-.6 1.8 0 .9 1.3-.5.8-1.3 1-1.3.3Zm-16.2-.1a14 14 0 0 1 1.7-5l.9-1.8c.2-.6-3.1 4.1-3.6 5.1-.4.8-.7 1-1 1l-.2-.4-1.1-1.3a53 53 0 0 1-2.9-3.3l-3.2-3.8c-1.6-2-2.2-2.9-1.9-3.2h.7a54 54 0 0 1 8.6 10.4l1.5-2c1.8-2.6 4-5.4 4.8-6.2 1-.8 1.5-.7 1.2.3-.3.8-2 4.2-3.4 6.4a20 20 0 0 0-1.7 3.4l1-.9c1.2-1.1 2.5-2 4-2.7 1-.4 1.3-.5 1.5-.3.5.4.4.7-.2 1.9l-.5 1.1c.2.3 1.7-.6 2.7-1.6l1-1.1-.5-.5-.7-.4s-.2-29.7-.2-65.9v-65.8h-10.6l-.1 65.6-.1 65.6-.7-.8-.6-.8-.2-64.8v-64.8h-8.4a755 755 0 0 0-46.2 1.2l-11 .5h-1V220c0-15.4.4-33.8.6-34.1.7-.5 4.3-.7 19-.9a4090.8 4090.8 0 0 0 41.2-.7h5.8v-7.6c0-7.2 0-7.7-.3-7.7-1 0-9.4 1.4-22.2 3.7l-8.5 1.4-9.6 1.6c-7.8 1.3-11.5 1.8-12.4 1.8-.6 0-1.5-.3-6.2-2.4a233 233 0 0 1-14.2-7.2 61.2 61.2 0 0 0-9.3-4.6c-.4 0-.3-.5.2-1.5l.7-1.7 5.9-9a302.6 302.6 0 0 0 10.8-16.8c.6-.5 21.1-6 32.9-8.7 6.1-1.5 16.6-4 26.9-6.8l5.2-1.3.1-6v-6l-.4-.1-4.4-.8-6.6-1.2a882.3 882.3 0 0 0-36-5.8l-7-1.2c-3-.7-5-.9-5.6-.6-.8.4-2.3.1-2.8-.5-.4-.5-.5-1.4-.2-2.5.5-1.7 2.2-18.3 2.7-25.7.2-4 1.1-14.7 1.5-18.7.3-2.3.6-3.2 1.3-3 .1 0 .8 0 1.5-.2s1.6-.3 2-.2l9.8 2.7 11.3 3.2a1757.2 1757.2 0 0 1 32.8 9.4c.3 0 .4-.4.4-3 0-2.1-.1-3-.3-3.1-.1-.1-4.7-.3-10-.4-8.7-.2-10-.2-10.7-.6a11 11 0 0 0-1.5-.5c-.7-.2-.8-.6 0-.5l8.4.3c15.9.2 29.3.6 57.7 1.7 21 .9 26.6 1 40 1l12.5.1v-1a380.7 380.7 0 0 1 .4-42.7l.2-1.6-3.5-.1-6.7-.4a826.7 826.7 0 0 0-66.8-1.8 2694 2694 0 0 0-104.6.9l-6.2.2-2.2 2-6.4 6.3a333.4 333.4 0 0 1-18 16.1c0 .4 9.4 6 14.5 8.8l13.5 7.6 2.2 1.6 1.5 1.3h12.5l12.4-.1v1l-4.8.2H32.6l-.6-.7c-.9-1-2.2-1.8-8.3-5.2l-9.2-5A97 97 0 0 1 .7 33.5c0-.6 1.5-2 7.2-7C13.5 21.7 23 13 26.7 9.2l1.6-1.6h1.5L49 6.8l37.8-.3 33.2-.2V4.1l-.1-2.7c-.3-.5 0-.9 1-1.1.9-.2 13-.3 13.5-.1.6.2.4 1-.2 1.7-.6.5-.7.6-.6 2v2.5l22 .1a653.5 653.5 0 0 1 53 1.8l7.4.5 1.8.1-.2 2.2a2366.4 2366.4 0 0 0 .1 44.4c1 .2-1.2.5-6 .8-7.2.4-27.3.2-40.7-.4a3146.8 3146.8 0 0 0-36-1.4h-1.3v10l2.5.7a1203.6 1203.6 0 0 0 20.8 6.3l7.3 2.3 9.3 2.8a1322.8 1322.8 0 0 0 19.6 6l6 1.8c4.6 1.4 6 2 7 2.7l4.2 3.8 5.4 4.9 6.2 6a52 52 0 0 0 5 5c.2.6-.4 1.4-.8 1.2a31 31 0 0 0-7.5 3.7A134.1 134.1 0 0 1 202 120c-1.2.6-1.2.6-3.3.3-6.2-.6-18.6-2.6-19.1-3-.2-.2 0-.4.2-.7l.5-.5 7.5 1.1 12.4 1.7c.7 0 1.2-.1 2.3-.7l5.7-2.7 7-3.5a126.4 126.4 0 0 1 9.2-5 462.8 462.8 0 0 0-20.3-19.7L200 86a805.3 805.3 0 0 0-71.6-21.5l-9.6-2.8-9.8-2.9-9.8-2.8-9-2.6a726.3 726.3 0 0 0-17-4.9l-7.7-2.3A378.2 378.2 0 0 1 63 70.9C62.5 75.4 61 92 61 94c0 .4-.6.3 10 1.8L88 98.6l11.8 1.8a492.7 492.7 0 0 1 21.5 3.8l7.7 1.2c4 .6 10.7 1.8 12.7 2.4 1.6.5 4.7 1.5 4.8 1.7a112.5 112.5 0 0 1-12.7-1.8 12 12 0 0 0-.1 3c0 2.6 0 3 .3 3a1118 1118 0 0 0 34-8.8c2-.4 3.9-1 4.5-1.3.4-.3.6-.3 1 0l1.5.6c1.1.5 1.3.8 1.8 3l2.9 18c.9 7 2 23.5 2 29.4 0 2 0 2.7-.2 3-.3.5-.3.5-.5 0-.3-1-.8-7.3-1.4-16.2-.5-6.8-1.1-12.6-2-19L175 106l-.6-.2c-.6-.1-.6-.1-.6.7l.4 3.7c.7 5 1.5 11.7 1.8 15.3a392.6 392.6 0 0 0 2.4 27.9c.3 5 .3 5 1 4.9.5-.1 2 .5 2 .8 0 .3-1.3.5-2.8.5-1 0-2.6.2-5 .8-5.5 1.4-10.4 2.2-31.2 5.2l-8.7 1.3v8.7l-.1 8.7 28.5.1 29.9.3h1.4l6.4 4.2a546.6 546.6 0 0 1 21.4 14 64.2 64.2 0 0 1 6.1 3.9c.6 0 1.5.7 1.2 1l-4.7 2.6c-8.3 4.5-13.5 7.6-18.4 11.2l-10.5 7-1.3.7h-10c-5.6 0-13.6-.2-17.9-.4-4.2-.1-13.1-.3-19.8-.3h-12.2v132.3l2.5-1.4c4.3-2.7 8.9-4.6 9.3-3.9.3.5-.3 1.1-2.3 2.5a33.3 33.3 0 0 0-6.5 6.2c-.7 1-1.1 1.3-1.1.8a22.2 22.2 0 0 1 5.7-6.9c.6-.4.4-.4-1.3.4-2.9 1.5-6.2 3.6-7.8 5.2-1 1-1.4 1.3-1.7 1.1h-1c-1.3.4-1.5-.2-.6-1.7.3-.6.5-1 .4-1.1-.2-.2-2.5 1.3-3.7 2.4-1.2 1-1.8 1.3-2 .7ZM59.1 228.7l9.2-.4 11.6-.6a2872 2872 0 0 1 101.3.1l10.5.4c1.2 0 1.4 0 2.3-.5 2-1.3 9.9-6.5 11.6-7.9 4-2.8 11.2-7.2 17.4-10.4l2.8-1.5-1.1-.8-4.4-2.6c-1.8-1-4.8-3-6.7-4.3l-12.4-8.3-8.9-6h-49.7c-46.9 0-84 .4-86.6.8l-1 .2-.1 9.9a3687.1 3687.1 0 0 1-.4 32.2h.6l4-.3ZM163 215c-1.1-.4-2.9-2-3.3-3.2-.5-1.4-.3-4.8.4-6.7.7-2.2 2.7-4 3.1-3 .1.2 0 .6-.3 1-.8 1-1.4 3.3-1.3 5.3 0 1.4.2 1.8.7 2.6a4 4 0 0 0 3.6 1.7c1.2-.1 2.6-1 3.3-2.2.5-.8.5-1.1.5-2.9-.1-1.7-.2-2.1-.8-3.2-.9-1.5-1.8-2.2-3-2.2-.7 0-1 .2-1.5.6-.5.5-1 .7-1 .4 0-.3 2-2.3 2.6-2.6.3-.2.9-.3 1.3-.3 2.6 0 4.6 2.9 4.7 6.8 0 1.5-.1 2-.6 3-1.6 3.5-5.4 5.7-8.4 4.9ZM182 213c-2-2-2.9-3.2-4.3-6l-1-2-.2 1.5-.3 4.3c-.1 2.7-.2 3-.7 3.4-.6.5-1.1.4-1.5-.3-.3-.7-.2-3.4.4-7.8.6-3.4.9-4.4 1.6-4.7.5-.3.7-.2 1.3.4.4.4 1 1.5 1.6 2.5.4 1 1.3 2.4 1.8 3.2 1 1.5 3.6 4.2 4 4.2l.4-.8c.2-1 .2-5.4 0-7.3 0-1 0-1.4.4-1.8.5-.6 1.2-.5 1.7.3.4.5.5 1 .6 3.2.1 4.2-.7 7.5-2.1 8.8-1.2 1-1.6 1-3.7-1.1Zm-112.4 1.2c-.4-.3-.5-.6-.5-7 0-6.2 0-6.9.4-7.4.6-.8 1.4-.8 1.7 0l.1 7.2v6.7l-.5.4c-.6.5-.7.5-1.2.1Zm85-.4c-.3-.6-.4-1.6-.3-6.5v-5.8l.6-.4c.6-.4.7-.4 1-.1.4.4.4 1 .4 6.3 0 5.7 0 5.8-.5 6.5l-.7.8-.5-.8Zm-25.7-.2c-.4-.6-.5-2.8-.1-6l.1-2.4-.7 1c-1.4 2.8-2.5 3-4.5.7-.5-.6-.9-1-.9-.8l-.2 2.8c-.2 2.8-.5 3.5-1.3 3.8-1 .3-1.2-.4-1-2.5l.3-5.6c.2-3 .3-3.9.7-4.3.7-1 1.7-.8 1.7.3a13 13 0 0 0 2.4 4.5l.8 1 .8-1.3 1.7-3c1-1.9 1.6-2.5 2.2-2.4.7.2.8.7.5 4.2l-.4 6.5c-.1 2.6-.2 3.2-.6 3.6-.5.5-1.1.5-1.5 0Zm11.8.1-.9-1.8-.5-1.4-3.7-.1-.5 1.2c-.7 1.4-1.5 2.3-2.1 2.3-.6 0-.8-.5-.5-1.3 0-.3 1.2-2.7 2.4-5.2s2.4-5 2.5-5.6c.2-.8.4-1 1.2-1.5 1.1-.6 1.4-.5 1.3.7-.2 1 1.2 7 1.8 7.7.1.2.5.4.8.4.7 0 .6.5-.2.6l-.6.1.6 1.3c.6 1.7.6 2 0 2.5-.5.6-1 .6-1.6.1Zm-2.2-6.9-.4-1.4c-.1-.1-1.4 2.4-1.4 2.7h2ZM99 213.4a4.5 4.5 0 0 1-2.5-3.2c-.2-1.1-.2-3 .1-4.2.1-.3-.1-.2-1.4.3-.9.4-2.2.7-2.9.8l-1.3.2v1.6c0 1.7-.5 3.8-.9 4.1-.4.3-1-.1-1.3-.7-.2-.4-.3-2.3-.4-6.2-.1-5.5-.1-5.6.4-6.2.5-.6 1-.8 1.4-.4l3 .4c3.1 0 4 .3 4.3.9.3.8-1.3 1.3-4.3 1.3h-2.4v1.5c0 1.6-.1 1.5 2.4 1.2 1-.2 1.6-.2 2.3 0 1.2.5 1.3.5 1.6-.4.6-2 2.4-3.7 3.8-3.5.5 0 1-.1 1.7-.5 1.3-.6 2.6-.6 3.7.1 1 .8 1.5 1.2 2.3 2.8 1.7 3.5-.1 7.8-4.1 9.7-1.8.8-4.2 1-5.5.4Zm5.5-2.6c1.7-.8 2.2-1.6 2.2-3.7 0-1.7 0-1.9-.8-3a4.5 4.5 0 0 0-1.8-1.7c-1-.5-2.2-.6-2.5-.2 0 0-.4.2-.6 0-.6 0-1.3.6-1.7 1.6-.4 1-.6 3.6-.4 4.8.5 2.5 3 3.5 5.6 2.2Zm-20.8 2.3c0-.5-.4-.8-.7-.4l-.9.2c-1 0-3.4-2.6-4.8-5.3l-.7-1.3-.2 1.8c-.3 3.5-.7 4.8-1.6 4.5-.9-.3-1-1.3-.5-6.6.3-4.4.4-4.8.9-5.3 1-1.1 1.6-.6 3.3 3.2 1.1 2.6 1.9 3.8 3.5 5.5l1 1.2.2-1.1c.3-2.3.5-5.6.5-7.2 0-1.5.1-1.8.6-2.3 1.2-1.2 1.6-.5 1.6 3.2 0 3.9-.6 8.1-1.5 9.9-.2.5-.7.5-.7 0Zm61.1-.2c-.2-.4-.1-1.2.2-3.7l.5-4.6V203h-2c-2.3-.2-2.7-.4-2.3-1.3.5-.9 1.2-1 5.4-1 3.3 0 4 0 4.5.4.4.2.7.5.7.6 0 .4-1.6 1-3 1.2l-1 .1-.1 1.2c-.1 1.9-1 7.5-1.2 8-.4.7-.9 1.3-1.2 1.3-.1 0-.4-.3-.5-.7Zm-33.3-.3a5 5 0 0 1-.6-3.2c.3-.5.7-5 .7-7v-1h-1c-.8 0-1 0-1-.3 0-.9.8-1.3 2.8-1.3 2 0 3.5.6 4.8 1.9 2 2 1.3 4.6-2.2 6.8-.7.5-1.1 1-1 1l1.7.4c2 .6 2.7 1.5 1.6 2.1-.5.3-3.2.2-4 0-.2-.2-.4 0-.5.3-.3.6-1 .8-1.3.3Zm4-6.4c.6-.4.7-.8.7-1.3 0-.8-.8-2-1.7-2.4l-.6-.3-.2 2-.1 2.6c0 .6 0 .6.6.3l1.4-1Zm8.6-29.9v-8l-1.2.2-1.4.2c-.1 0-.2 3.6-.2 7.9v7.7h2.8Zm8-.5V167l-1 .2-1.2.2c-.1 0-.3 1.2-.4 2.5l-.3 4.6a72.5 72.5 0 0 0-.4 5.9c-.1 0-.2-2.5-.2-6.3l-.1-6.4c-.1-.1-2.9.3-3 .4l-.3 5-.4 8v3l3.6.1h3.6Zm-52.6-1.6c10-1.6 21-3.5 29.2-5a378 378 0 0 1 16-2.5 2420.9 2420.9 0 0 0 52.3-8c.3-.2.1-2.4-.7-9.8-.9-7.6-1.5-14.2-1.9-20.9a552.2 552.2 0 0 0-2.1-22.7c-.4 0-7 1.6-12.3 3a2651 2651 0 0 1-28.4 7.5l-21.7 5.7c-8 2.1-14.2 3.7-22.6 5.6-7.2 1.7-21.5 5.3-27.5 7l-3.8 1c-.3 0-.8.4-1.1.9l-2.6 4a523 523 0 0 1-6.6 10.3 81.6 81.6 0 0 0-7.2 11.7l2.2 1.1 7 3.7c6 3.2 14 7.2 18.4 9 1.3.5 0 .6 13.4-1.6ZM64 162a27 27 0 0 1-.3-7.4c0-6.1 0-7.2.4-7.8.4-.8 1-1 2-.9.6.1.7.3 2 4 1.5 3.7 3 7 3.3 7 .2 0 .6-2.9 1-7.5.3-3.6.5-4.2 1.3-4.6.7-.4 1-.1 1.1 1.2.3 2.5-.8 12-1.6 13.7-.5 1-.6 1-1.4 1.1-.6 0-1 0-1.3-.3a20 20 0 0 1-3.4-5.8l-.8-2.3-.2 1.7v4.4c.1 2.5.1 2.7-.4 3.3-.5.7-1.3.8-1.7.2Zm-4.7-.2c-.7-.6-1-2.7-1-7.7 0-4 .1-4.9.5-5.5.4-.7 1.1-1.1 1.5-.7.2.1.3 2 .4 5.3.1 3 .2 5.6.4 6.2.4 1.2.1 2-.8 2.4-.6.3-.7.3-1 0Zm17.9-2c-.1-.2-.3-3.4-.3-7.3 0-7.5 0-7.3 1.3-7.9.9-.3 3.4-.8 5.9-1.2 2.3-.3 3.3-.2 3.3.5 0 .5-1.7 1.3-3.3 1.6l-3.1.5-1.5.2v2c0 1 .1 1.8.2 1.8l2.5-.7a9 9 0 0 1 3.3-.6h.8l.3-1.3a8 8 0 0 1 2-4.2c1-1 2.3-1.9 3.2-1.9 2.8 0 5.5 3.6 5.5 7.4 0 1 .1 1.2.3 1 .1-.3.2-2 .1-4V142h-.8c-.7.1-.9 0-.9-.3 0-.7.8-1.2 2.2-1.5 1.5-.4 4.6-.4 5.5 0 2.9 1 2 4.5-2 7.7l-1.3 1.2 1.9.5c2.1.4 3 .8 3 1.6 0 1-1.3 1.4-3.5.9-.8-.2-1.5-.3-1.6-.2-.6 2-2 2.1-2.2.3 0-.5-.3-1-.4-1.2-.3-.3-.4-.2-1 .9a9.3 9.3 0 0 1-3.6 3.8c-1.5.8-3.4.7-4.5 0-1.2-.8-2.2-2.8-2.2-4.7 0-.8-.1-1.5-.2-1.5l-1.2.8c-.6.4-2 1-3.2 1.3l-2 .7-.2 1.5c-.1.9-.2 2.3-.1 3.2 0 1.8-.2 2.5-1 2.8-.8.4-1 .3-1.2-.1Zm16.5-6.7c1-.9 1.3-1.9 1.2-3.7-.2-3-2-5.5-4.3-6-.7-.1-.8 0-1.3 1.2-.5 1-.6 1.6-.7 3.6 0 2.3 0 2.6.5 3.7.7 1.6 1.6 2.2 3 2 .6 0 1.1-.2 1.7-.8Zm9.1-8.4c1-1.5.4-2.5-1.6-2.7l-1.2-.1v2.5l.1 2.7c.2.2 2.2-1.5 2.7-2.4Zm4.7 7c-.2-.1-.4-1-.5-1.8-.3-2-.5-9.7-.3-10.4.1-.7 1-1.3 1.5-1.2l1.3 1.9c.9 1.5 2.4 3.3 2.6 3a41 41 0 0 0 1.7-5.2 4 4 0 0 1 .9-1.8c.5-.6 1.2-.8 1.4-.4l.4 5.3c0 2.8.3 6 .4 7 .2 2.2 0 3.2-1 3.6-.5.2-.6.2-.9-.1-.4-.4-.7-2.7-.7-5 0-1.5-.3-2-.5-1.3l-.8.7c-.7.3-.8.3-1.4 0-.4-.2-1.2-.8-1.8-1.4l-1-1v.8l.3 3.5c.3 2.9.2 3.5-.5 4-.6.2-.8.2-1.1-.2Zm10.6-.7c-.2-.3-.1-2 .3-3.5l.5-2.1c0-.3 0-.6.2-.7.3-.2 2.3-6.5 2.2-7.2 0-.8 1-2.2 1.6-2.6.6-.3 1 .1.9 1-.1.7 0 1.2 1.3 3.4a251.4 251.4 0 0 1 4.3 8.4c0 .6-.8 1.5-1.5 1.5-.4 0-1.3-1.2-2.2-3l-.5-1.1-1 .3-2 .4c-1.3.2-1.6.5-1.7 2.1 0 1.5-.5 2.6-1 3-.5.3-1.1.4-1.4.1Zm5.9-7.7c.2-.2-.9-2.8-1.2-3-.2 0-1 2.5-1 3 0 .4 1.9.3 2.2 0Zm7.7 5.1V146c0-2.1-.5-9.4-.6-9.9-.1-.2-.6-.1-1.8.2-2 .5-2.7.5-2.6-.2.1-.7 1-1.3 2.6-1.7 1-.3 1.8-.7 2.3-1 .6-.6.8-.7 1-.4.4.3.6.3 2.2 0 2.1-.6 3.5-.6 3.8-.2.2.2.2.4.2.5-.3.4-1.6 1-3.5 1.4l-2 .5.1 1.8c.7 8 .6 10.3-.3 11.2-.5.6-1.2.7-1.4.2Zm9.6-2.5-.3-1c-.4-.5-.8-3.1-1-6.9l-.2-4.4c0-1.4 0-1.6.5-2.1 1-1 1.4-.5 1.6 2.8l.5 5.8c.2 2.8.2 3.3-.2 4.6-.3 1.4-1 2.1-1 1.2Zm6.6-1.4c-3.8-2-5.3-7.7-3.1-12.4 1.5-3.2 3.3-4 6-2.3 1.2.6 2.8 2.5 3.5 3.8 2 3.7.6 8.6-2.8 10.6-1.3.7-2.5.8-3.6.3Zm3.8-2.5c1.6-1.4 1.9-4.5.7-7-1-2-4.2-4.6-5.3-4.2-.5.2-1.2 2.5-1.4 4.1-.2 2.8 1 5.9 3 7 1.3.9 2 .9 3 0Zm13.9-1a28.4 28.4 0 0 1-5.2-7.7l-.3-.1c-.3 0 0 4.7.3 6.5.2 1 .2 1.2-.1 1.6-.3.3-.7.4-.9.4-.8-.1-1-1-1.2-6l-.4-6.3c-.1-1.3 0-1.6.3-2 .6-.6 1-.5 1.5.4a39.3 39.3 0 0 0 7.7 11.2c.1 0 .2-1.8.2-3.8 0-3-.1-4-.5-5.6-1.3-5.5-1.2-5.4-.7-6 .4-.3.5-.4.8-.2 1 .6 2 4 2.5 8.4a24 24 0 0 1-.6 8c-.3 1-1.5 2.4-2 2.4-.2 0-.8-.5-1.4-1.2Zm-42.7-24.4.6-.2-.2-5.2-.1-5.2-1-.1-1-.2V117l.6-.2 1-.2Zm6-4 .2-4.1v-1.6l-2.3-.3c-1.3-.2-2.3-.4-2.4-.3l-.1 5-.1 4.9 2.3-.6 2.3-.6Zm2.5 1.7.6-.2v-3.3c0-2.5 0-3.4-.2-3.4-1.5-.5-1.4-.5-1.6 1.3a91 91 0 0 1-.7 5.2v.9l.6-.1 1.3-.4ZM59.6 93.9a468.3 468.3 0 0 1 4-42.9l.5-3.9c.1-.6.1-.7-.3-.6l-1 .2c-.5.2-.6.2-.6 1.3l-.9 11-.5 7.8a163 163 0 0 1-2.9 23l-.5 3.8v1h1c1.1-.1 1.2-.2 1.2-.7ZM132 59.3l-.1-4.8c-.1-.1-1.6-.2-3.4-.2h-3.2V62l2 .6L132 64l.1-4.7Zm-8-1.4v-3.7h-2.8V60.4c0 .3.4.5 1.2.8l1.5.3c.2 0 .2-.7.2-3.6Zm3.7-52.6.2-2.4.1-1.3h-7V4l.2 2.4 3.3.1h3.1Zm2.2-1.1c0-1.2-.2-2.3-.3-2.5-.4-.4-.6.3-.6 2.5s0 2.2.5 2.2h.5Zm2.2 1.7V1.7h-.8c-.8-.1-.8 0-.7.4l.1 2.4v2h.7c.5 0 .6-.1.7-.6Zm-12.7 358.3c-1-1.1-4-3-8.5-5.4-1.8-1-3.2-1.8-3.2-2 0 0 .5-.2 1-.1 1.5 0 7.4 3 9 4.5 1 1.1 2.7 3.2 2.9 3.7.2.5-.4.2-1.2-.7Zm24-1.8c0-.6.7-.9 1.5-.7.9.2 1 .5.2.8-.8.3-1.6.2-1.6-.1Zm-20-11.4a663.7 663.7 0 0 1-.1-27c.1-.2.3-.1.4 0 .4.6.7 5.5.7 11 0 6.6-.4 18.7-.7 19l-.3-3Zm6.3-.7c.2-3 .3-3.5.7-3.4.4.2 0 5-.5 5.5-.2.2-.3-.3-.2-2.1Zm-.4-78v-17.1l.2-14.1c-.1-3.8 0-4.5.2-4.5.5 0 .6.6.9 6.7.2 4.5.1 8.2-.1 17.1-.4 17.5-.5 19.1-.8 19.2-.2 0-.3-2-.4-7.3Zm142.5-125.7c-2.9-.2-4.7-.5-7-1.3-2-.6-2.3-.9-1.7-1.5.5-.4.6-.4 3.3.3a41 41 0 0 0 17 .4c6.2-1 10.4-2 14.5-3.6 2.1-.9 2.5-.9 1.8.1-1.1 1.6-8.2 3.8-16.4 5-4.1.6-8 .8-11.5.6Zm7.4-15.4c-.6-.4-1-1.1-1-2.5 0-4 3.5-8.4 5.7-7.3 1 .4 1.5 1.5 1.3 3.4-.2 2.7-1.7 5.2-3.7 6.2-1 .5-1.5.5-2.3.2Zm-10-2.2c-.5-.5-.6-.8-.6-1.8 0-1.6.7-3.8 1.8-5.4 1.4-2.2 3-2.8 4.3-1.7 1 .8 1.2 1.6 1.1 3.4a7.1 7.1 0 0 1-3.4 5.5c-1.3.9-2.3.9-3.1 0Zm55.1-4.4c-.3-.5.1-1 1-1.3l2.6-1 2.4-.9c.4 0 .8-.2.8-.3.2-.3.8-.3.8 0l-1.5 1.2c-2.5 1.7-5.7 3-6.1 2.3Zm-33-3.3c-1.8-1.8-3.7-3-5.5-3.5-1-.2-1-.3-.6-.7.4-.4.6-.4 1.3-.3 1.2.2 3.3 1.2 4.7 2.3 1.3 1 2.6 3.2 2.2 3.7-.2.2-.7-.1-2-1.5Zm25-11.2c-.3-.6 1.2-1.5 4-2.3 1.9-.5 2.2-.6 4.5-.4l1.8.2c-2.3.2-4 .6-6.7 1.6-3.4 1.2-3.3 1.2-3.5 1Zm-128.7-4c-.2-.4-.4-.6-.8-.6-1.2 0-2.8-2.4-4.5-6.7-.4-1.2-.8-2-.9-2-.2 0-.4 3.5-.3 5 .2 1.6.2 1.8-.3 2.3-.8.8-1.2.7-1.6-.3-.6-1.8.4-9.5 1.3-10.8.8-1 1.3-.9 2.2 1l1.2 2.8c.7 1.8 2.3 4.8 3 5.6l.6.8.2-1c.4-2.3 1.7-7.1 2-7.5l.8-.4c.7.1.7 1.2 0 4l-.8 4.7c-.1 1.2-.5 2.5-.7 2.9-.4.8-1 1-1.4.2Zm-17.6-3.8c-2.2-.6-3.1-1.8-3.1-4 0-1.7.7-4 1.5-5.5 1.3-2.2 3.1-3.6 3.6-2.7.3.3.4.4 1.3.2 1.4-.3 2.5.2 3.3 1.5a9 9 0 0 1 .5 7.5 6.2 6.2 0 0 1-7.1 3Zm4.4-2.4c.9-.5 1.2-1.4 1-3.4 0-1.4-.1-2.1-.5-3-.6-1.1-1.6-1.9-2.4-1.7-.4 0-.5 0-.7-.4l-.2-.5-.5.6c-1.6 1.5-2.7 5.6-1.9 7.2.8 1.5 3.4 2.1 5.2 1.2Zm-12.1 0c-.4-.5-.2-4.6.4-8.5.4-3 .7-3.8 1.3-4.3.5-.3.6-.3 1 0 .2.3.2.6-.1 3.2l-.6 5.7c-.1 3-.4 3.8-1.3 4.3-.3.1-.5 0-.7-.3Zm-9.4-3.2c-.3-.5 0-2 1-6 .6-1.8 1-3.3.9-3.4l-1.6-.6c-2.5-.6-2.7-.9-1.7-1.8.5-.5.7-.5 1.8-.4 1.5.1 6.8 1.6 7.2 2 .5.4.3 1.3-.4 1.6-.7.3-1.8.2-3-.3-.3 0-.5.4-1.2 3l-1 4.3c-.2 1.6-1.4 2.7-2 1.6Zm-4.3-.5c-.2-.1-.3-.7-.3-1.2l-.2-2.1-.1-1.1-1.2-.2-2.2-.3-.9-.1-.5 1c-.6 1.1-1 1.4-1.6 1.4-.6 0-.3-1.2 1-3.8 1.4-2.8 3.8-6.5 4.7-7.3.3-.3.7-.5 1-.5.3.1.4.8 1.1 5 .5 2.6.9 5.6 1 6.6 0 1.8 0 1.8-.6 2.4-.7.6-.9.6-1.2.2Zm-1-7.1a33 33 0 0 1-.8-3.6l-2 3.5a7 7 0 0 0 2.2.4c.5 0 .6 0 .6-.3Zm-9.8 4.5c-.4-.4-.3-2.6.3-5.5l.5-2.8-1.4 1.3c-2.1 2-2.4 2.1-3 1.8-.8-.3-1.5-1.3-2.4-3.2-.7-1.4-.8-1.5-1-1a47 47 0 0 0-.7 5.6c0 1.3-.3 2-1 2.4-.5.3-.6.3-1 0-.2-.1-.2-.5-.1-1.8.1-1.9 1.5-10 1.9-11 .3-1 1.1-1.5 1.6-1.1a38.7 38.7 0 0 0 2.8 6.7c.3.5.7 1 .9 1 .2 0 2-1.8 4.7-4.6.9-1 1.5-.9 1.5 0l-.8 4.4a67 67 0 0 0-.8 5.3c-.1 1.6-.6 2.4-1.4 2.6l-.6-.1Zm-15.3-3.3c-1.3-.8-1.9-1-2.4-1s-.7 0-.8-.5c0-.3-.4-.8-.6-1-.6-.7-.6-1 .2-1.9.4-.5.6-1 .8-2.4l.7-3.5.4-2-.8-.7c-1-.7-1.1-1.2-.4-1.8.4-.2.5-.2 1.2 0 .4.2 1 .4 1.4.4.4 0 .6 0 .7.3 0 .2.6.7 1.1 1 4 2.5 3.6 5.9-1 8-1 .6-1.5 1-1.5 1.2 0 .2.6.7 1.5 1.3 3.1 1.8 3.8 3.1 1.8 3.6-.4.1-1 0-2.3-1Zm1.2-7.2c1.1-.6 1.3-1.3.8-2.4-.4-.8-1.6-1.7-1.9-1.4-.2.1-.9 3.8-.9 4.4 0 .4.7.2 2-.6Zm-14.4 4.7a4.8 4.8 0 0 1-2.9-2.1c-1-2 .4-7.7 2.7-10.3.8-.8 1.4-1.1 1.4-.6 0 0 .4 0 .9-.4 1.7-1 3.1-.9 4.5.6 1.3 1.4 1.7 3 1.8 6 0 2.2-.1 2.6-.6 3.6a6.2 6.2 0 0 1-3 3.1 8 8 0 0 1-4.8 0Zm5.5-2.5c.8-1 1.1-2.8.8-4.9-.6-3.9-2.5-5.7-5-4.5-.8.4-1 .6-1.5 1.9-1.2 3.3-1.3 6-.3 7 .8.8 2 1.1 3.9 1.1 1.4 0 1.6 0 2-.6Zm-20.2.3c-.3-.5-.4-1-.4-2.7 0-2 .7-8.3 1.2-11 .3-1.4.9-2.3 1.8-2.3a91 91 0 0 1 9 2.4c1 .4 1.2 1 .7 1.8-.3.5-.5.5-1.3.5-.5 0-2.5-.6-4.4-1.2-1.9-.5-3.5-1-3.6-.9l-.5 3.1c0 .2.9.6 2 .9 3 .9 3.7 1.2 4 1.6.1.3.4.5.5.5.7 0 .2.5-.7.7-1.5.3-2.3.2-4.2-.5L97 78l-.1.7-.3 3.5c-.1 1.5-.4 3-.5 3.4-.4.8-1 .8-1.4.1Zm-6-1.8c-.5 0-.8-.3-1.5-1.3-1-1.6-2.4-4.6-3.2-6.9-.6-2.1-.6-2.1-1 1.6-.3 2.6-.7 3.8-1.4 4-.8.3-1.1-.4-1-2.5.2-2.9 1-10.2 1.2-10.7.4-1.3 1.5-1.5 2.1-.5l1.6 4.2c1.2 3.8 3.1 8.2 3.4 8 .2-.3.9-3.8 1.4-7.3.5-2.5.8-3.4 1.5-3.8 1-.4 1.3.2 1.1 1.6-.3 2.7-1.2 7.5-1.7 9.3-1 4-1.3 4.5-1.6 4.4h-.9ZM75 80.7c-.4-1.4.7-13.6 1.3-15.3 0-.3.4-.7.8-.9.5-.4.6-.4.8 0 .2.2.3.7.2 1l-.5 6.8c-.6 7.6-.6 8-1.1 8.7-.7.9-1.3.7-1.5-.3ZM48.3 37.5c-.4-.8-.4-1.4.4-14.3.2-2.3.5-3.2 1.3-3.5 1-.3 1.2 1.3.8 9-.4 7.2-.5 7.9-1.2 8.4-.6.5-1.1.7-1.3.4Zm7 0c-.2-.2-.1-2 .2-5.5a73.1 73.1 0 0 0 .5-9.4c.2-1.5.3-1.8.8-2.2.3-.3.7-.5.9-.4.4.1 1.3 2 3.1 6.5 1.6 3.9 3 6.6 3.4 6.9.1 0 .2-2 .2-5.8 0-6.4.1-7.2 1.2-7.5.4 0 .7 0 .8.2.6 1 .5 13.2-.1 15-.4 1-1.4 1.9-2.2 1.9-1 0-3.4-4-5.2-8.6l-.7-1.8L58 28l-.4 4.8c-.3 2.8-.4 3.8-.7 4.2-.4.5-1.3.8-1.7.5Zm16.1-1.7a31 31 0 0 1 0-6.8v-6.3h-1c-1.2-.1-1.4-.5-.8-1.3.5-.6 2-.9 5.7-1 3.3-.2 3.8 0 3.8.8s-1 1.2-3.3 1.2l-2.2.1v2.7c0 2.4 0 2.6.4 2.5 1-.3 2.5-.6 3.2-.6 1 0 2.5.6 2.2 1-.4.3-1.7.7-3.6 1.2l-2 .5c-.3.1-.4.7-.4 2.7 0 2.4 0 2.7-.4 3.2-.6.8-1.2.8-1.6.1Zm78 0c-.3-.5-.3-1-.1-3.4 0-1.5.4-4.5.7-6.6.6-3.6.7-3.9 1.2-4.3.6-.4.6-.4 1 0 .4.5.4.8-.2 4.5-.2 1.8-.5 4.7-.5 6.4 0 2.1-.2 3.4-.4 3.6-.4.5-1.2.4-1.6-.3Zm32.9-.7c-2.5-2-4.1-4.6-5.2-8.3-.4-1-.7-1.9-.8-1.7-.3 1-.8 4.3-1 6.5 0 2.5-.3 3.3-1.2 3.6-.3.1-.6 0-.9-.2-.3-.3-.4-.6-.2-2.5.2-4.1 1.7-10 2.7-11 .5-.5.7-.6 1.2-.4.4 0 .8.2.9.3l.7 2.1c1.1 3.8 3.3 7.6 5.2 9.1.5.4 1 .6 1 .5.6-.3 1-3.5 1-7.5v-4.1h.6c1.6-.3 2 1 1.9 5.3-.2 4.5-1.3 7.8-2.9 8.9-1 .6-1.6.5-3-.6ZM130.8 34c-.9-2.8-.8-2.7-1.8-2.3a8 8 0 0 1-3 .4h-2.4l-.3 1c-.5 1.6-2 1.9-2 .4 0-1 .5-2.5 2.3-6.4 1.8-4 2.6-5.7 3-6.1.5-.5 1.5-.5 1.5 0 0 .1.6 1.6 1.4 3.1 2.1 4.3 3.9 8.8 3.9 10.2 0 .8-.8 1.7-1.5 1.7-.4 0-.6-.3-1-2Zm-1.9-5.1-1.2-2.9-.8-1.7-1.1 2.5a173 173 0 0 0-1.2 2.6l2.2.4c1.3 0 2.3.2 2.4.2.1 0 0-.5-.3-1.1ZM83.1 35c-1.3-.9-1.7-1.5-1.7-3.5-.2-4 1.7-8.5 4.3-10.3a5.1 5.1 0 0 1 4-.8c1 .3 2.4 1.7 3.2 3.3.5 1 .6 1.5.6 3a6 6 0 0 1-.7 3.4c-1 2-2.6 3.6-4.7 4.7-2 1-3.8 1-5 .2Zm4.7-2.3c2.2-1 3.3-2.6 3.3-4.9-.1-2.6-1.4-4.6-3.4-5.2-1.1-.4-1.4-.2-2.4 1.2a9.4 9.4 0 0 0-1.5 5.7c0 2 .1 2.3.5 2.8.8.9 2 1 3.5.4Zm19 2.5a100.6 100.6 0 0 1 .9-14.3c1-1.1 2-.8 3.7 1.4l2.2 2.7 1 1 1.2-2c1.4-2.5 2.4-3.6 3.1-3.6.4 0 .7.2.8.4.6 1 .1 11.3-.5 13.1-.6 1.4-1 1.5-1.5.2-.3-.9-.3-1.3-.1-3.9.1-1.6.2-3.6.1-4.5v-1.6l-1.2 2.2-1.7 2.7c-.6.5-1.2.4-1.2-.2 0-.3-.4-.8-1-1.2l-2-2.2-1-1.3-.2 1.2-.3 5.2c-.2 3.4-.2 4-.6 4.5-.5.6-1.4.7-1.6.2Zm30.6.1.1-3.7.3-6.1v-2.5h-2.3c-2.4 0-2.7 0-2.5-1 .2-.8 1.4-1.2 3.5-1.2a7 7 0 0 0 2.4-.2c.3-.2.5-.2.8 0 .3.2 1.5.2 3.6.2 2 0 3.3.1 3.3.3v.7c-.2.9-1.3 1.2-4 1.4l-2.6.1-.1 4.7c-.2 5-.4 6.3-1.1 7-.5.6-1.1.7-1.4.3Zm23.8 0c-1.4-.5-2.8-2-3.3-3.4-1-2.6.1-7 2-8.8.8-.6 1-.7 1.4-.5.3.2.5.1 1.2-.3 2-1.4 5.7-1 7.3.9 1.1 1.2 1.4 2 1.4 3.9 0 2.2-.6 3.7-2.4 5.6-2.3 2.4-5.1 3.3-7.6 2.5Zm4.9-2.6c3-1.6 3.8-5.5 1.5-7.9-1-.9-2-1.1-4.6-1h-2.2l-.5 1.2c-.5 1.4-.7 3.7-.5 5 .2.9 1.5 2.4 2.4 2.8 1 .5 2.9.4 3.9 0Zm-70.3 1.7c-.2-.3-.2-1-.1-1.8l-.1-1.6a52 52 0 0 0 1.1-8.8c0-.4-.1-.5-1-.5-1.3-.1-1.5-.5-.7-1.3.4-.4.6-.5 2.4-.4 1.6.1 2.1.2 3.4.9 1.1.5 1.6 1 2.2 1.8 1.4 2 .8 4-1.7 5.8-1 .7-1.1.8-.7 1l2.2 1.8c2.5 2.1 3 3.4 1.2 3.4-1 0-1.4-.3-3.4-2.2a7.6 7.6 0 0 0-1.8-1.3l-.5-.1-.3 1.4c-.1 1.7-.6 2.4-1.4 2.4a.9.9 0 0 1-.8-.5ZM101 27c.8-.8 1-1.4.4-2.5-.3-.5-2-2-2.3-2-.1 0-.7 4.4-.7 5.5v.5l1-.4a10 10 0 0 0 1.6-1.1Zm0 0"/>
  </g>
</svg>
