<svg xmlns="http://www.w3.org/2000/svg" version="1.0" viewBox="0 0 300 374.999991">
  <defs>
    <clipPath id="a">
      <path d="M156 0h118.875v118.875H156Zm0 0"/>
    </clipPath>
    <clipPath id="b">
      <path d="M241.109375 1.0625 273.8125 33.765625c.679688.679687 1.0625 1.601563 1.0625 2.5625v46.21875c0 .960937-.382812 1.882813-1.0625 2.5625L241.109375 117.8125c-.679687.679688-1.601563 1.0625-2.5625 1.0625h-46.21875c-.960937 0-1.882813-.382812-2.5625-1.0625L157.0625 85.109375c-.679688-.679687-1.0625-1.601563-1.0625-2.5625v-46.21875c0-.960937.382812-1.882813 1.0625-2.5625L189.765625 1.0625C190.445312.382812 191.367188 0 192.328125 0h46.21875c.960937 0 1.882813.382812 2.5625 1.0625Zm0 0"/>
    </clipPath>
    <clipPath id="c">
      <path d="M158.0625 2.0625h114.75v114.75h-114.75Zm0 0"/>
    </clipPath>
    <clipPath id="d">
      <path d="M240.253906 3.125 271.75 34.621094c.679688.679687 1.0625 1.597656 1.0625 2.558594v44.515624c0 .960938-.382812 1.878907-1.0625 2.558594L240.253906 115.75c-.679687.679688-1.597656 1.0625-2.558594 1.0625h-44.515624c-.960938 0-1.878907-.382812-2.558594-1.0625L159.125 84.253906c-.679688-.679687-1.0625-1.597656-1.0625-2.558594V37.179688c0-.960938.382812-1.878907 1.0625-2.558594L190.621094 3.125c.679687-.679688 1.597656-1.0625 2.558594-1.0625h44.515624c.960938 0 1.878907.382812 2.558594 1.0625Zm0 0"/>
    </clipPath>
    <clipPath id="e">
      <path d="M160.625 4.625H270.25V114.25H160.625Zm0 0"/>
    </clipPath>
    <clipPath id="f">
      <path d="M239.195312 5.6875 269.1875 35.679688c.679688.679687 1.0625 1.601562 1.0625 2.5625v42.390624c0 .960938-.382812 1.882813-1.0625 2.5625L239.195312 113.1875c-.679687.679688-1.601562 1.0625-2.5625 1.0625h-42.390624c-.960938 0-1.882813-.382812-2.5625-1.0625L161.6875 83.195312c-.679688-.679687-1.0625-1.601562-1.0625-2.5625V38.242188c0-.960938.382812-1.882813 1.0625-2.5625L191.679688 5.6875c.679687-.679688 1.601562-1.0625 2.5625-1.0625h42.390624c.960938 0 1.882813.382812 2.5625 1.0625Zm0 0"/>
    </clipPath>
    <clipPath id="g">
      <path d="M162.113281 6.113281h106.234375v106.234375H162.113281Zm0 0"/>
    </clipPath>
    <clipPath id="h">
      <path d="m238.40625 7.585938 28.882812 28.882812c.675782.679688 1.058594 1.601562 1.058594 2.558594v40.820312c0 .957032-.382812 1.878906-1.058594 2.558594l-28.882812 28.882812c-.679688.675782-1.601562 1.058594-2.558594 1.058594h-40.820312c-.957032 0-1.878906-.382812-2.558594-1.058594L163.585938 82.40625c-.675782-.679688-1.058594-1.601562-1.058594-2.558594V39.027344c0-.957032.382812-1.878906 1.058594-2.558594L192.46875 7.585938c.679688-.675782 1.601562-1.058594 2.558594-1.058594h40.820312c.957032 0 1.878906.382812 2.558594 1.058594Zm0 0"/>
    </clipPath>
  </defs>
  <path fill="#fff" fill-rule="evenodd" d="m156.96875 35.449219 34.550781-34.347657 47.714844-.203124 34.960937 34.136718-.410156 48.746094-32.90625 33.933594-49.152344.617187-33.320312-33.9375Zm0 0"/>
  <path fill="#ec0014" fill-rule="evenodd" d="m161.699219 38.328125 31.261719-33.113281 45.246093-.203125 31.671875 31.671875.410156 45.65625-31.054687 31.671875h-46.273437l-30.851563-32.289063Zm0 0"/>
  <path fill="#fff" fill-rule="evenodd" d="m192.855469 39.148438 20.15625-.101563-.207031 7.40625-6.992188.203125-.101562 31.570312-5.554688-.207031-.101562-31.566406-6.992188-.414063Zm-8.019531 11.929687h5.550781l-.308594-4.214844-1.230469-4.214843-2.265625-2.46875-2.671875-1.441407-2.777344-.203125-3.703124.304688-2.980469 2.058594-2.160157 3.703124-1.027343 3.699219.207031 4.113281 1.234375 3.804688 2.671875 3.292969 4.832031 2.160156 3.804688 1.847656 1.234375 1.648438v2.773437l-.511719 1.75-2.265625 1.75-2.570312-.105468-1.644532-1.128907-1.234375-2.160156-.617187-2.46875-.410156-1.335937-5.347657.617187-.207031 1.644531 1.132812 4.9375 1.746094 3.597656 1.851563 2.363282 3.085937 1.339844 3.597656.308593 2.675782-.617187 2.363281-.925782 1.648437-1.75 1.746094-2.777343.617188-4.007813.308594-3.910156-.71875-3.699219-1.335938-2.878906-1.648438-2.058594-2.160156-1.335937-3.699218-1.75-2.570313-1.335938-1.648437-1.4375-.613282-1.339844.511719-2.160156 1.851563-1.128906 2.363281-.308594L183.5 46.761719l.925781 2.261719Zm29.820312 2.570313.617188-3.597657 1.335937-4.320312 2.058594-3.390625 2.777343-2.675782 2.878907-1.234374 3.496093-.101563 3.390626 1.027344 3.191406 2.46875L236.25 44.703125l2.058594 5.554687.617187 4.625.203125 5.863282-.511718 4.625-1.132813 4.730468-1.851563 4.113282-2.570312 2.675781-2.363281 1.644531-3.496094.515625-3.292969-.207031-2.773437-1.75-2.984375-2.671875-1.644532-3.804687-1.542968-4.421876-.308594-4.011718.101562-5.039063Zm27.457031-14.601563v38.972656l.824219.414063 5.140625-.414063-.207031-14.292969 2.878906.101563 3.910156-.410156 2.570313-.820313 2.363281-2.058594 1.234375-2.980468.925781-2.675782-.101562-4.523437-.207032-3.085937-.410156-2.46875-1.234375-2.363282-1.542969-1.75-2.261718-1.027344-4.421875-.617187Zm0 0"/>
  <path fill="#ec0014" fill-rule="evenodd" d="m222.882812 47.992188-1.542968 3.085937L220.519531 55.5l-.105469 4.9375.515626 3.804688 1.027343 3.085937 1.335938 2.570313 2.675781 1.4375 2.46875-.203126 2.160156-1.648437 1.539063-2.570313.824219-3.699218.101562-4.113282-.101562-3.292968-.308594-3.496094-.824219-2.777344-1.4375-1.953125-2.058594-1.335937-1.644531-.515625-2.261719.925781Zm24.988282-1.847657.101562 10.382813 4.21875-.410156 1.953125-.515626 1.234375-1.335937.617188-2.777344-.515625-2.980469-1.234375-1.542968-1.128906-.410156Zm0 0"/>
  <path d="M9.492188 374.945312c-8.011719-.074218-9.195313-.140624-9.34375-.527343-.0937505-.246094.042968-.65625.304687-.917969.429687-.433594 2.082031-.484375 18.0625-.570312 15.003906-.085938 17.5625-.160157 17.429687-.5-.304687-.796876.226563-1.835938 1.300782-2.546876 1.921875-1.273437 5.675781-1.875 11.089844-1.777343L53 368.191406l.664062-5.113281c2.554688-19.699219 4.089844-32.429687 6.070313-50.285156 1.25-11.25 3.480469-30.238281 4.957031-42.191407 1.476563-11.957031 3.019532-25.3125 3.425782-29.691406.398437-4.375.898437-9.429687 1.097656-11.222656.203125-1.800781.320312-3.777344.269531-4.40625-.050781-.621094-.355469-4.078125-.667969-7.671875-1.070312-12.246094-1.589844-24.957031-2.15625-52.839844-.207031-10.097656.273438-32.515625.859375-40.058593.214844-2.8125.355469-5.15625.304688-5.207032-.25-.246094-3.664063 9.417969-6.449219 18.273438-5.34375 16.964844-8.757812 30.679687-10.847656 43.609375-2.367188 14.601562-4.984375 39.179687-5.472656 51.367187l-.195313 4.910156.746094.78125c.839843.871094 1.5 2.621094 2.488281 6.585938.597656 2.375.675781 3.339844.667969 8.097656-.015625 6.03125-.453125 8.839844-1.675781 10.6875-.941407 1.421875-2.425782 1.882813-3.691407 1.152344-1.464843-.847656-1.828125-2.492188-1.84375-8.292969-.011719-4.914062.617188-13.820312 1.128907-16.042969.144531-.625.269531-3.382812.273437-6.117187.011719-5.742187.3125-10.433594 1.296875-20.171875 3-29.769531 5.535156-44.097656 11.308594-64.066406 3.878906-13.410156 6.292968-20.613282 10.417968-31.109375l2.515626-6.394531.308593-4.117188c.292969-3.917969.730469-7.625 1.058594-9.019531.136719-.597657.054687-.644531-1.195313-.644531-6.335937 0-15.648437-3.152344-22.441406-7.597657-7.808594-5.109375-12.507812-10.632812-15.023437-17.636719-1.554688-4.332031-1.738281-5.664062-1.726563-12.550781.007813-7.253906.472656-10.445312 2.261719-15.589843 3.730469-10.714844 9.769531-18.390626 17.476563-22.222657 1.5625-.78125 3.078124-1.824219 4.308593-2.980469 3.59375-3.363281 10.082031-7.203124 15.574219-9.222656 3.664062-1.34375 10.792969-3.085937 13.484375-3.292968 1.671875-.128907 2.8125-.066407 3.765625.203124l1.363281.382813-1 .195313c-.542969.109374-2.511719.472656-4.378906.808593-8.960937 1.613281-16.285156 4.113281-21.46875 7.328125-2.347656 1.453125-6.003906 4.105469-5.859375 4.25.050781.050782 1.804688-.527344 3.898438-1.292968 4.789062-1.75 7.289062-2.335938 11.046874-2.582032 2.632813-.175781 3.234376-.320312 5.117188-1.230468 3.03125-1.46875 7.011719-2.707032 10.765625-3.351563 3.640625-.628906 8.726563-.78125 9.628906-.304687.324219.175781.855469.320312 1.179688.320312.324219 0 .585937.144531.585937.3125 0 .175781-.183594.246094-.410156.160156-.226562-.085937-.835938-.03125-1.347656.117188-.519532.15625-2.796875.46875-5.058594.695312-2.269531.230469-5.144531.621094-6.394531.875-2.757813.550782-7.53125 2.046875-7.53125 2.355469 0 .121094.5.238281 1.101562.265625 3.238281.125 8.144531 1.734375 12.777344 4.183594C100.75 27.09375 107.738281 35.03125 111.253906 45.320312c1.710938 5.023438 2.226563 8.019532 2.230469 13.050782.011719 6.625-.867187 10.574218-3.648437 16.453125-3.074219 6.480469-8.03125 12.632812-13.164063 16.328125C90.277344 95.757812 81.042969 98.988281 74.230469 99c-1.183594.003906-2.300781.097656-2.472657.214844-.351562.222656-.820312 4.148437-1.132812 9.402344-.191406 3.179687-.183594 3.226562.394531 3.039062.355469-.113281 2.105469.273438 4.398438.96875 6.738281 2.035156 13.933593 3.558594 31.605469 6.6875 19.0625 3.382812 31.164062 5.75 33.386718 6.53125 3.421875 1.207031 13.191406 1.808594 34.945313 2.144531 9.609375.148438 18.75.394531 20.3125.542969 1.5625.148438 3.671875.277344 4.683593.285156 1.773438.007813 1.882813-.027344 2.640626-.972656 1.015624-1.28125 2.871093-2.351562 5.414062-3.125l2.035156-.625v-5.070312l-9.472656.113281-9.464844.113281-16.667968-16.835938c-9.167969-9.265624-16.78125-17.035156-16.917969-17.265624-.132813-.226563-.476563-10.152344-.761719-22.054688-.285156-11.898438-.558594-23.007812-.601562-24.695312l-.082032-3.0625 17.324219-17.292969L191.125.753906l13.207031-.175781c7.265625-.09375 18.222657-.253906 24.347657-.355469l11.136718-.1796872 7.613282 7.4101562c4.191406 4.070313 12.128906 11.855469 17.644531 17.300781l10.03125 9.890625-.082031 17.328125c-.039063 9.535156-.117188 20.632813-.164063 24.664063l-.085937 7.339843-16.660157 17.09375c-9.160156 9.410157-16.863281 17.230469-17.105469 17.390626-.269531.164062-4.5625.339843-10.535156.421874l-10.089844.140626v5.386718l1.925782.71875c1.054687.390625 2.324218 1.074219 2.816406 1.511719.488281.4375 1.15625.929687 1.484375 1.097656 1.355469.695313 2.15625 1.738281 2.15625 2.804688 0 1.988281-2.144531 3.410156-6.09375 4.035156l-2.144531.34375v114.019531c0 101.507813-.046875 114.113282-.429688 114.859375l-.433594.832031 15.421876.078126 15.414062.074218.082031 4.042969.078125 4.054687h24.117188c13.265625 0 24.320312.074219 24.566406.167969.660156.253907.550781 1.171875-.191406 1.59375-.511719.300781-27.105469.367188-140.558594.371094-76.960938.003906-144.058594-.03125-149.101562-.070313Zm81.765624-2.4375c-.539062-.273437-.703124-.570312-.667968-1.203124.019531-.460938-.324219-2.566407-.765625-4.675782-1.316407-6.242187-2.691407-14.992187-4.402344-27.984375-1.589844-12.0625-2.75-20.332031-6.648437-47.304687-1.09375-7.578125-2.765626-20.296875-3.714844-28.265625-1.640625-13.734375-3.890625-30.554688-4.113282-30.785157-.191406-.183593-.417968 1.703126-1 8.335938-.734374 8.339844-.746093 8.429688-3.40625 30.546875-2.691406 22.277344-3.246093 27.121094-5.113281 44.320313-1.59375 14.730468-3.519531 30.832031-4.992187 41.765624-.535156 3.984376-.972656 7.707032-.972656 8.277344-.003907 1.65625-.871094 5.449219-1.382813 6.035156-.257813.292969-.851563.703126-1.320313.910157-.714843.320312 2.3125.378906 19.179688.386719 16.460938.003906 19.902344-.0625 19.320312-.359376Zm89.683594-3.425781c.03125-2.277343.171875-3.777343.371094-3.980469.226562-.226562 4.472656-.34375 14.648438-.398437l14.335937-.089844V249.765625l.003906-114.851563-2.574219-.488281c-3.40625-.644531-5.140624-1.535156-5.671874-2.910156-.199219-.53125-.617188-.613281-4.582032-.933594-6.429687-.507812-9.394531-.609375-25.808594-.917969-22.445312-.417968-24.621093-.632812-43.757812-4.359374-4.453125-.871094-13.144531-2.484376-19.320312-3.585938C94.324219 119.175781 90.5625 118.460938 86 117.429688c-4.417969-.996094-11.195312-2.894532-13.695312-3.835938-1.339844-.503906-1.835938-.585938-1.910157-.320312-.164062.539062-.992187 12.414062-1.300781 18.675781-.414062 8.285156-.335938 34.316406.136719 50.574219.496093 16.710937.820312 23.085937 1.605469 31.679687.320312 3.4375.636718 7.273437.714843 8.523437.070313 1.25.507813 4.257813.972657 6.679688 1.125 5.941406 2.464843 15.558594 4.527343 32.386719 1.925781 15.675781 3.164063 24.921875 4.855469 36.082031 1.875 12.371094 3.285156 22.339844 4.949219 35.019531.871093 6.601563 1.898437 14.175781 2.292969 16.828125.648437 4.40625 3.21875 19.234375 3.359374 19.386719.035157.035156.882813-.078125 1.890626-.253906 1.003906-.175781 3.878906-.320313 6.375-.324219 7.90625-.015625 11.457031 1.417969 9.050781 3.652344l-.753907.699218 35.914063-.074218 35.90625-.070313Zm57.597656 3.398438c-.214843-.566407.585938-2.003907 1.933594-3.464844 2.046875-2.222656 1.902344-.589844-.183594 2.019531-.5.621094-1.003906 1.296875-1.117187 1.492188-.164063.277344.839844.355468 4.636719.355468h4.84375v-6.253906h-5.660156c-5.460938 0-5.671876.019532-5.847657.582032-.300781.945312-3.554687 5.101562-3.992187 5.101562-.824219 0-.359375-1.160156 1.292968-3.246094.941407-1.175781 1.707032-2.210937 1.707032-2.289062 0-.082032-.882813-.148438-1.960938-.148438-2.195312 0-2.226562.027344-4.289062 3.070313-.546875.808593-1.152344 1.53125-1.347656 1.605469-.71875.277343-.335938-1.085938.78125-2.753907.621093-.933593 1.136718-1.75 1.136718-1.8125s-10.773437-.078125-23.941406-.035156l-23.933594.070313-.085937 2.128906c-.046875 1.171875-.011719 2.542968.082031 3.054687l.175781.925781h27.960938c23.941406 0 27.941406-.058593 27.808593-.402343Zm-187.699218-1.320313c.976562-.203125 1.777344-.457031 1.777344-.566406 0-.324219-1.632813-.566406-4.96875-.742188-3.21875-.167968-7.730469.378907-9.050782 1.097657l-.613281.332031.710937.21875c1.074219.332031 10.125.074219 12.144532-.339844Zm56.695312-.011718c-.71875-.71875-4.539062-1.160157-9.039062-1.046876-4.800782.121094-6.660156.519532-4.359375.925782 3.253906.578125 13.953125.675781 13.398437.121094Zm111.183594-7.144532c-.097656-.355468-.175781-52.003906-.175781-114.78125l-.003907-114.144531h-6.253906v113.976563c.007813 100.992187-.046875 114.054687-.421875 114.628906-.234375.359375-.425781.71875-.425781.808594 0 .082031 1.675781.148437 3.722656.148437 3.726563 0 3.726563 0 3.558594-.636719ZM45.925781 262.574219c1.054688-2.550781 1.390625-10.828125.617188-15.199219-.570313-3.222656-1.609375-6.605469-2.027344-6.605469-.421875 0-.605469 1.761719-1.007813 9.515625-.40625 7.863282-.101562 11.410156 1.074219 12.714844.644531.710938.910157.621094 1.34375-.425781Zm174.738281-129.492188c3.128907-.304687 5.582032-.914062 6.082032-1.511719.570312-.6875-.710938-1.832031-3.765625-3.355468-1.582031-.796875-2.945313-1.539063-3.023438-1.65625-.078125-.113282-.574219-.433594-1.109375-.707032-1.253906-.640624-6.496094-.75-9.039062-.183593-4.042969.898437-6.839844 3.089843-6.078125 4.757812.617187 1.359375 3.707031 2.296875 8.699219 2.644531 4.519531.316407 5.097656.316407 8.234374.011719Zm.640626-6.699219c-.097657-.09375-.339844-.101562-.542969-.019531-.226563.085938-.160157.152344.167969.167969.296874.011719.46875-.054688.375-.148438Zm-2.484376-5.007812v-2.507812l-3.335937.082031-3.335937.074219-.089844 2.105468c-.042969 1.15625-.023438 2.257813.046875 2.441406.09375.238282 1.128906.339844 3.425781.328126l3.289062-.007813Zm10.460938-4.667969 10.878906-.191406L256.484375 99.75l16.320313-16.761719V35.203125l-16.65625-16.332031c-9.160157-8.980469-16.800782-16.40625-16.976563-16.5-.175781-.089844-10.832031-.023438-23.6875.144531l-23.367187.308594-16.757813 16.761719-16.761719 16.761718.585938 23.84375.582031 23.839844 3.980469 4.144531c2.1875 2.277344 9.433594 9.65625 16.101562 16.394531l12.125 12.25 13.214844.035157c7.261719.019531 18.105469-.046875 24.09375-.148438Zm-37.570312-2.546875c-1.554688-1.179687-25.117188-25.777344-28.328126-29.554687-.683593-.804688-1.496093-1.511719-1.808593-1.5625-.566407-.097657-.570313-.324219-.570313-22.289063V38.570312l.710938-.875c2.707031-3.335937 12.601562-13.863281 20.222656-21.519531 4.976562-5 9.371094-9.535156 9.761719-10.085937 1.480469-2.066406.261719-1.972656 24.992187-1.972656l22.160156-.007813L249.25 14.402344c9.621094 9.535156 20.898438 21.117187 21.316406 21.898437.097656.179688.242188 10.203125.324219 22.257813.160156 23.558594.183594 23.109375-1.246094 23.109375-.558593 0-.5625-.207031-.523437-22.234375l.035156-22.230469-6.183594-6.390625c-3.402344-3.519531-10.351562-10.523438-15.441406-15.566406l-9.25-9.171875-22.296875.003906-22.304687.007813-.84375 1.066406c-.46875.585937-4.761719 5.035156-9.546876 9.878906-4.789062 4.84375-10.777343 11.089844-13.3125 13.878906-2.535156 2.785156-5.054687 5.457032-5.597656 5.9375-1.867187 1.640625-1.777344.285156-1.609375 23.234375l.152344 20.875 6.296875 6.390625c3.46875 3.515625 10.363281 10.699219 15.3125 15.964844 4.957031 5.269531 9.132812 9.652344 9.28125 9.742188.148438.09375 10.253906.160156 22.449219.148437 20.046875-.007813 22.195312.03125 22.355469.445313.476562 1.246093.648437 1.242187-23.1875 1.320312l-22.566407.082031Zm48.132812-.914062c0-.585938 2.171875-3.042969 10.339844-11.691406 9.09375-9.632813 12.671875-13.199219 17.257812-17.214844 2.605469-2.277344 3.660156-2.855469 3.660156-2.003906 0 .210937-2.195312 2.472656-4.871093 5.03125-2.675781 2.5625-6.984375 6.894531-9.578125 9.632812-2.585938 2.738281-6.753906 7.125-9.265625 9.746094-5.242188 5.488281-7.542969 7.464844-7.542969 6.5Zm-61.773438-34.324219c-4.121093-1.265625-6.585937-4.984375-7.574218-11.414063-.269532-1.765624-.273438-2.386718-.015625-2.695312.417969-.503906 5.640625-1.246094 6.027343-.859375.148438.144531.40625 1.023437.574219 1.949219.632813 3.425781 1.96875 4.964844 4.292969 4.964844 1.71875 0 2.277344-.28125 3.042969-1.519532.433593-.695312.597656-1.433594.597656-2.664062 0-2.15625-.589844-2.808594-3.644531-4.058594-5.640625-2.300781-7.367188-3.621094-8.8125-6.757812-1.332032-2.890626-1.703125-5.847657-1.105469-8.859376 1.171875-5.976562 4.316406-8.890624 9.582031-8.890624 4.914063 0 8.144532 2.703124 9.496094 7.945312.601562 2.332031.707031 4.867188.210938 5.171875-.609376.378906-5.484376.636719-5.875.308594-.195313-.160157-.433594-.808594-.535157-1.445313-.328125-2.0625-.914062-3.082031-2.042969-3.546875-2.242187-.9375-4.664062.429688-4.664062 2.628907 0 1.535156 1.292969 2.609374 4.851562 4.03125 3.730469 1.492187 5.480469 2.625 6.863282 4.445312 3.46875 4.5625 3.21875 14.167969-.492188 18.566406-2.289062 2.714844-6.941406 3.875-10.777344 2.699219Zm7.65625-1.363281c.839844-.417969 1.863282-1.148438 2.269532-1.628906 4.09375-4.859376 3.898437-15.273438-.351563-19.003907-1.09375-.960937-3.289062-2.097656-6.28125-3.253906-3.871093-1.503906-5.289062-3.589844-4.203125-6.191406.746094-1.785157 3.347656-2.648438 5.398438-1.789063 1.332031.554688 2.105468 1.679688 2.507812 3.632813.308594 1.492187.421875 1.671875.929688 1.535156.320312-.082031 1.378906-.15625 2.355468-.160156H190.125v-1.265625c0-2.996094-1.367188-6.589844-3.167969-8.308594-1.578125-1.507812-3.164062-2.0625-5.921875-2.066406-2.796875-.007813-4.625.679687-6.164062 2.296875-3.464844 3.660156-3.707032 11.851562-.472656 16.09375 1.042968 1.371093 3.25 2.742187 6.554687 4.066406 1.613281.648437 3.304687 1.527344 3.757813 1.949219 2.519531 2.355468 1.203124 7.320312-2.179688 8.238281-2.992188.800781-5.210938-1.03125-6.160156-5.082031-.226563-.976563-.472656-1.835938-.542969-1.90625-.074219-.078125-1.171875.023437-2.4375.214844l-2.304687.355468.171874 1.445313c.558594 4.792969 2.3125 8.617187 4.699219 10.273437 2.496094 1.730469 6.859375 1.976563 9.769531.554688Zm37.886719 1.304687c-5.300781-1.746093-8.539062-7.449219-9.363281-16.472656-.859375-9.394531 1.433594-17.976563 5.835938-21.851563 3.824218-3.363281 9.789062-3.277343 13.578124.207032 3.59375 3.292968 5.496094 8.609375 5.816407 16.230468.453125 10.746094-2.726563 18.90625-8.371094 21.492188-2.152344.988281-5.21875 1.152344-7.496094.394531Zm7.402344-1.308593c4.480469-2.269532 7.101563-8.027344 7.582031-16.628907.554688-10.03125-2.285156-18.136719-7.3125-20.882812-1.296875-.703125-1.917968-.847657-4.113281-.945313-2.359375-.101562-2.75-.046875-4.351563.675782-3.082031 1.382812-5.503906 4.863281-6.894531 9.925781-.566406 2.054687-.625 2.949219-.625 9.09375 0 6.128906.058594 7.042969.617188 9.03125 1.539062 5.539062 4.324219 9.082031 8.113281 10.324219 1.863281.613281 5.160156.335937 6.984375-.59375Zm-5.484375-5.898438c-2.175781-.582031-3.980469-3.140625-4.914062-6.976562-.714844-2.933594-.625-9.734376.167968-12.707032 1.027344-3.859375 3.007813-6.066406 5.667969-6.324218 4.425781-.425782 7.15625 4.601562 7.128906 13.144531-.019531 8.851562-3.320312 14.128906-8.050781 12.863281Zm3.457031-1.359375c2.480469-1.511719 3.613281-5.257813 3.59375-11.925781-.015625-7.476563-1.652343-11.292969-5.078125-11.847656-1.371094-.222657-2.261718.0625-3.4375 1.09375-2.148437 1.886718-2.957031 4.867187-2.96875 10.910156-.003906 6.253906.808594 9.230468 3.078125 11.277344 1.015625.914062 1.371094 1.0625 2.53125 1.0625.84375 0 1.699219-.214844 2.28125-.570313Zm-28.703125 8.21875c-.46875-.269531-.496094-1.332031-.496094-15.898437V47h-3.25c-4.226562 0-4.140624.09375-4.140624-4.117188 0-2.554687.09375-3.320312.449218-3.671874.390625-.390626 1.710938-.445313 10.203125-.445313 8.5 0 9.820313.054687 10.210938.445313.355469.351562.449219 1.117187.449219 3.671874 0 4.210938.085937 4.117188-4.144532 4.117188h-3.246094v15.621094c0 15.148437-.011718 15.621094-.546874 15.910156-.707032.375-4.835938.363281-5.488282-.015625Zm5.183594-16.597656V46.152344h7.105469v-6.535156h-19.039063v6.535156h7.105469V77.6875h4.828125Zm36.9375 16.710937c-.238281-.09375-.523438-.316406-.636719-.484375-.113281-.175781-.210937-8.960937-.210937-19.527343-.007813-16.535157.050781-19.265626.410156-19.558594.308594-.257813 2.128906-.324219 7.027344-.253906 6.25.09375 6.695312.140624 7.960937.761718 3.273438 1.609375 5.144531 5.929688 5.136719 11.839844-.003906 4.746094-1.117188 8.199219-3.351562 10.421875-1.828126 1.816406-4.09375 2.5-8.308594 2.503906h-2.0625l-.007813 6.746094c0 3.753906-.121093 6.941406-.269531 7.179687-.203125.3125-.90625.441407-2.765625.488282-1.375.03125-2.691406-.019532-2.921875-.113282Zm5.109375-8v-7.0625l3.480469-.179687c1.914062-.101563 3.972656-.324219 4.566406-.488281 2.371094-.667969 4.617188-3.757813 5.316406-7.300782.515625-2.621094.238282-8.632812-.488281-10.46875-.917969-2.347656-2.195313-3.957031-3.707031-4.699218-1.273438-.625-1.730469-.667969-7.816406-.769532l-6.460938-.105468V77.6875h5.109375Zm0-19.066406v-5.464844l2.96875.097656c2.445313.082032 3.097656.199219 3.761719.683594 1.886718 1.382813 2.496094 4.890625 1.300781 7.5625-.816406 1.832032-1.777344 2.277344-5.257813 2.449219l-2.773437.132813Zm6.679687 3.382812c.785157-.785156.859376-1.027343.945313-3.1875.082031-2.074218.023437-2.453124-.570313-3.320312-.785156-1.164062-1.394531-1.371094-4.136718-1.40625L248.371094 47v9.179688l2.488281-.191407c2.257813-.175781 2.558594-.265625 3.335937-1.042969ZM80.765625 96.035156c8.046875-1.675781 15.660156-5.832031 20.40625-11.148437 4.699219-5.265625 8.589844-13.011719 9.613281-19.132813.308594-1.851562.386719-9.714844.113282-11.507812-.363282-2.386719-1.714844-7.378906-2.550782-9.445313-4.023437-9.9375-11.664062-17.574219-22.71875-22.707031-6.644531-3.082031-17.472656-3.792969-25.242187-1.660156l-1.375.382812 1.277343.023438c.699219.023437 1.464844.15625 1.703126.300781.878906.558594-.261719.960937-3.332032 1.171875-9.707031.671875-17.527344 6.75-22.808594 17.726562-2.617187 5.457032-3.792968 9.992188-4.289062 16.570313-.617188 8.121094.414062 13.976563 3.4375 19.574219 3.496094 6.480468 9.882812 12.109375 18.46875 16.285156 6.410156 3.117188 11.207031 4.179688 19.039062 4.222656 4.21875.023438 5.464844-.078125 8.257813-.65625ZM50.460938 75.871094c-.238282-.617188.367187-1.3125 1.144531-1.3125 1.441406 0 11.683593-1.847656 19.609375-3.539063 8.707031-1.863281 22.628906-4.414062 24.070312-4.414062.519532 0 .800782.148437.800782.421875 0 1.050781-1.851563 1.554687-12.5 3.414062-2.421876.421875-7.675782 1.457032-11.671876 2.292969-7.277343 1.53125-15.777343 3.023437-19.367187 3.398437-1.625.171876-1.9375.128907-2.085937-.261718Zm25.71875-21.023438c-1.527344-.492187-2.347657-2.3125-2.136719-4.75.207031-2.371094.921875-4.609375 1.757812-5.519531.488281-.523437.941407-.703125 1.816407-.703125 2.464843 0 3.984374 1.652344 3.96875 4.296875-.015626 1.875-.640626 4.921875-1.140626 5.523437-.882812 1.070313-2.867187 1.605469-4.265624 1.152344Zm-15.550782-.878906c-1.742187-1.464844-2.160156-3.613281-1.324218-6.816406.558593-2.152344 1.300781-3.332032 2.480468-3.972656.851563-.457032 1.082032-.464844 2.320313-.117188 2 .566406 2.546875 1.433594 2.671875 4.226562.128906 2.871094-.464844 4.773438-1.976563 6.285157-1.378906 1.375-2.839843 1.515625-4.171875.394531Zm-5.453125-17.445312c0-1.148438 3.644531-4.125 7.242188-5.917969 2.058593-1.027344 3-1.277344 3.539062-.941407.667969.410157-.0625 1.003907-3.429687 2.75-1.808594.941407-3.785156 2.238282-4.765625 3.125-1.75 1.582032-2.585938 1.898438-2.585938.984376Zm32.710938-.058594c-.371094-.140625-1.300781-.828125-2.070313-1.515625-1.457031-1.316407-3.96875-2.71875-4.851562-2.71875-.667969 0-.957032-.734375-.503906-1.28125.554687-.667969 2.417968-.507813 4.167968.351562 2.167969 1.058594 4.355469 3.140625 4.355469 4.136719 0 .421875.007813.863281.023437.976562.027344.324219-.390624.34375-1.121093.050782Zm0 0"/>
  <g clip-path="url(#a)">
    <g clip-path="url(#b)">
      <path fill="#010101" d="M156 0h118.875v118.875H156Zm0 0"/>
    </g>
  </g>
  <g clip-path="url(#c)">
    <g clip-path="url(#d)">
      <path fill="#fff" d="M158.0625 2.0625h114.75v114.75h-114.75Zm0 0"/>
    </g>
  </g>
  <g clip-path="url(#e)">
    <g clip-path="url(#f)">
      <path fill="#010101" d="M160.625 4.625H270.25V114.25H160.625Zm0 0"/>
    </g>
  </g>
  <g clip-path="url(#g)">
    <g clip-path="url(#h)">
      <path fill="#ec0014" d="M162.527344 6.527344h105.820312v105.820312H162.527344Zm0 0"/>
    </g>
  </g>
  <path fill="none" stroke="#000" stroke-width="2.2863375" d="M182.39843775 70.30078275c7.12890675 0 12.16015725-5.484375 12.16015725-12.128907 0-6.61328175-5.0312505-12.18750075-12.16015725-12.18750075-7.13671875 0-12.1601565 5.5429695-12.1601565 12.16015725 0 6.61328175 5.02343775 12.1562505 12.1601565 12.1562505Zm8.04296925-12.128907c0 4.7539065-3.31640625 8.476563-8.101563 8.476563-4.824219 0-7.9921875-3.75-7.9921875-8.476563 0-4.96875 3.5429685-8.53515675 7.9921875-8.53515675 4.449219 0 8.101563 3.5351565 8.101563 8.53515675Zm19.13672025 12.128907c7.12890675 0 12.15625125-5.484375 12.15625125-12.128907 0-6.61328175-5.0273445-12.18750075-12.15625125-12.18750075-7.13671875 0-12.16015725 5.5429695-12.16015725 12.16015725 0 6.61328175 5.0234385 12.1562505 12.16015725 12.1562505Zm8.04296925-12.128907c0 4.7539065-3.32031225 8.476563-8.105469 8.476563-4.820313 0-7.99218825-3.75-7.99218825-8.476563 0-4.96875 3.54296925-8.53515675 7.99218825-8.53515675 4.449219 0 8.105469 3.5351565 8.105469 8.53515675Zm8.64843825-10.542969V68.1054705c0 1.1015625.9140625 2.019531 2.00781225 2.019531 1.164063 0 2.0781255-.9179685 2.0781255-2.019531V61.765626h2.70703125c4.48046925 0 8.53515675-2.804688 8.53515675-8.011719 0-5.67187575-4.7539065-7.40625075-9.35156325-7.40625075H227.519535c-.66796875 0-1.25000025.5820315-1.25000025 1.2812505Zm6.58593825 2.34375c2.4609375 0 4.62890625 1.0624995 4.62890625 3.99609375 0 3.19921875-2.621094 4.17578175-5.0312505 4.17578175h-2.09765625v-8.1718755Zm28.335939 12.89453175c0-5.00000025-4.171875-5.91406275-7.773438-6.83203125-3.8125005-.972657-5.574219-1.45703175-5.574219-3.5312505 0-1.734375 1.25000025-2.86718775 4.0546875-2.86718775 1.67578125 0 2.98437525.46093725 4.2343755 1.28124975.45312525.3046875.97265625.460938 1.457031.460938.984375 0 1.957032-.796875 1.957032-1.92578175 0-2.1289065-4.820313-3.46875-7.50000075-3.46875-4.66406325 0-8.19921975 2.617188-8.19921975 6.91406325 0 4.5742185 3.96484425 5.51953125 7.31250075 6.43359375 4.08593775 1.0937505 6.0664065 1.67578125 6.0664065 4.07812575 0 2.1367185-1.61328075 3.328125-4.72656225 3.328125-2.15625075 0-3.742188-.609375-5.148438-1.7031255-.45312525-.375-.976563-.55078125-1.48828125-.55078125-1.01171925 0-2.01562575.85546875-2.01562575 1.97656275 0 .3945315.12500025.76171875.460938 1.03515675 1.98046875 1.68359325 4.6875 2.80468725 8.16406275 2.80468725 5.60937525 0 8.71875075-3.140625 8.71875075-7.43359425Zm0 0"/>
  <path fill="#fff" d="M182.396477 70.304683c7.132812 0 12.160156-5.488282 12.160156-12.132813 0-6.613281-5.027344-12.191406-12.160156-12.191406s-12.160156 5.546875-12.160156 12.160156c0 6.617187 5.027344 12.164063 12.160156 12.164063Zm8.046875-12.132813c0 4.753906-3.320313 8.472656-8.109375 8.472656-4.8125 0-7.984375-3.746093-7.984375-8.472656 0-4.96875 3.535156-8.535156 7.984375-8.535156 4.453125 0 8.109375 3.535156 8.109375 8.535156ZM209.574659 70.304683c7.132812 0 12.160156-5.488282 12.160156-12.132813 0-6.613281-5.027344-12.191406-12.160156-12.191406s-12.160156 5.546875-12.160156 12.160156c0 6.617187 5.027344 12.164063 12.160156 12.164063Zm8.046875-12.132813c0 4.753906-3.320313 8.472656-8.109375 8.472656-4.8125 0-7.984375-3.746093-7.984375-8.472656 0-4.96875 3.535156-8.535156 7.984375-8.535156 4.453125 0 8.109375 3.535156 8.109375 8.535156ZM226.268467 47.624995V68.10937c0 1.097656.914063 2.011719 2.011719 2.011719 1.15625 0 2.070312-.914063 2.070312-2.011719v-6.339844h2.714844c4.480469 0 8.535156-2.804687 8.535156-8.015625 0-5.671875-4.757812-7.40625-9.359375-7.40625h-4.722656c-.671875 0-1.25.578125-1.25 1.277344Zm6.582031 2.347656c2.46875 0 4.632813 1.066406 4.632813 3.992188 0 3.203125-2.621094 4.175781-5.027344 4.175781h-2.105469v-8.167969ZM261.190386 62.867183c0-5-4.175781-5.914063-7.773437-6.828126-3.808594-.976562-5.574219-1.464843-5.574219-3.535156 0-1.738281 1.246094-2.867187 4.050781-2.867187 1.675782 0 2.988282.457031 4.238282 1.28125.457031.304687.976562.457031 1.460937.457031.976563 0 1.953125-.792969 1.953125-1.921875 0-2.132813-4.816406-3.472656-7.5-3.472656-4.664062 0-8.199219 2.621093-8.199219 6.917969 0 4.574218 3.964844 5.519531 7.316407 6.433593 4.085937 1.097657 6.066406 1.675781 6.066406 4.082031 0 2.132813-1.617188 3.324219-4.726563 3.324219-2.164062 0-3.746093-.609375-5.148437-1.707031-.457032-.367188-.976563-.550781-1.496094-.550781-1.003906 0-2.011719.855469-2.011719 1.980469 0 .398437.125.765624.457031 1.039062 1.984376 1.675781 4.695313 2.804688 8.171876 2.804688 5.605468 0 8.714843-3.140626 8.714843-7.4375Zm0 0"/>
</svg>
