<svg xmlns="http://www.w3.org/2000/svg" version="1.0" viewBox="0 0 375 374.999991">
  <defs>
    <clipPath id="a">
      <path d="M1.054688 372.339844h150V375h-150Zm0 0"/>
    </clipPath>
    <clipPath id="b">
      <path d="M142 372h233v3H142Zm0 0"/>
    </clipPath>
    <clipPath id="c">
      <path d="m142.019531 369.824219 232.460938 4.429687-.117188 5.996094-232.457031-4.429688Zm0 0"/>
    </clipPath>
    <clipPath id="d">
      <path d="m142.019531 369.824219 232.460938 4.429687-.117188 5.996094-232.457031-4.429688Zm0 0"/>
    </clipPath>
    <clipPath id="e">
      <path d="M.351562 0h373.5v375h-373.5Zm0 0"/>
    </clipPath>
  </defs>
  <g clip-path="url(#a)">
    <path d="M80.171875 374.320312c-2.851563 0-6.445313-.039062-10.035156.007813-11.773438.148437-23.542969.28125-35.3125.515625-4.058594.082031-8.125.035156-12.179688.28125-4.46875.273438-8.941406.394531-13.40625.707031-2.175781.15625-4.363281.21875-6.542969-.007812-.414062-.042969-.828124-.105469-1.179687-.34375-.265625-.183594-.449219-.4375-.3125-.773438.136719-.328125.417969-.296875.707031-.21875.898438.25 1.8125.136719 2.714844.109375 4.890625-.144531 9.757812-.609375 14.644531-.820312 12.234375-.53125 24.46875-.667969 36.710938-.488282 6.109375.089844 12.214843-.140624 18.320312-.117187h.082031c5.558594.050781 11.105469-.25 16.660157-.308594 7.40625-.074219 14.808593-.097656 22.214843-.164062 5.082032-.042969 10.167969-.132813 15.25-.183594 3.59375-.03125 7.183594-.082031 10.777344.074219 2.980469.128906 5.964844-.105469 8.949219-.085938.550781 0 1.105469-.019531 1.65625-.011718.722656.019531 1.121094.3125 1.144531.820312.023438.511719-.363281.839844-1.082031.882812-.664063.035157-1.328125.070313-1.988281.0625-2.761719-.027343-5.523438.15625-8.285156.058594-7.015626-.25-14.035157-.261718-21.054688-.222656-5.109375.03125-10.222656.152344-15.335938.105469-7.460937-.066407-14.921874-.152344-23.121093.125Zm0 0"/>
  </g>
  <g clip-path="url(#b)">
    <g clip-path="url(#c)">
      <g clip-path="url(#d)">
        <path d="M264.65625 375.234375c-4.421875-.082031-9.992188-.246094-15.5625-.285156-18.261719-.117188-36.515625-.257813-54.777344-.242188-6.296875.007813-12.597656-.1875-18.894531.078125-6.9375.289063-13.878906.34375-20.816406.703125-3.375.171875-6.769531.207031-10.144531-.210937-.640626-.082032-1.277344-.1875-1.816407-.566406-.410156-.292969-.6875-.691407-.460937-1.207032.21875-.507812.652344-.453125 1.097656-.324218 1.386719.417968 2.808594.269531 4.210938.253906 7.585937-.082032 15.152343-.65625 22.734374-.84375 18.988282-.460938 37.964844-.308594 56.949219.332031 9.46875.316406 18.945313.144531 28.414063.363281h.125c8.617187.246094 17.230468-.0625 25.84375.011719 11.488281.105469 22.96875.285156 34.457031.40625 7.882813.082031 15.773437.09375 23.65625.164063 5.574219.054687 11.140625.082031 16.707031.429687 4.625.289063 9.257813.011719 13.886719.132813.851563.015624 1.714844 0 2.566406.03125 1.121094.050781 1.726563.519531 1.75 1.308593.023438.789063-.589843 1.292969-1.703125 1.332031-1.03125.039063-2.058594.074219-3.082031.042969-4.285156-.125-8.574219.078125-12.855469-.15625-10.871094-.59375-21.757812-.820312-32.640625-.964843-7.925781-.101563-15.859375-.070313-23.789062-.289063-11.570313-.328125-23.136719-.679687-35.859375-.492187Zm0 0"/>
      </g>
    </g>
  </g>
  <g clip-path="url(#e)">
    <path d="M306.71875 374.628906c-1.691406-.363281-2.839844-1.023437-3.011719-1.757812-.3125-1.207032.917969-2.699219 3.121094-3.769532.660156-.3125 1.183594-.683593 1.183594-.808593 0-.113281-.261719-.773438-.570313-1.433594-1.582031-3.386719-6.148437-15.832031-8.304687-22.691406-2.847657-9.050781-6.496094-22.332031-8.25-30.125-.460938-2.066407-1.320313-5.714844-1.863281-8.128907-3.039063-13.070312-4.59375-20.488281-5.914063-28.207031-.433594-2.453125-.835937-4.519531-.894531-4.578125-.261719-.277344.113281 12.90625.546875 20.375.261719 4.394532 1.578125 19.394532 2.191406 25.144532 1.019531 9.25 3.472656 25.21875 5.273437 34.269531 1.121094 5.578125 2.699219 12.824219 2.964844 13.605469.222656.710937-1.058594 1.78125-3.535156 2.988281-3.410156 1.65625-5.363281 2.027343-9.644531 1.890625-2.824219-.085938-3.773438-.199219-4.832031-.570313-1.355469-.5-2.523438-1.40625-2.523438-1.992187 0-1.40625 2.5-2.578125 7.066406-3.296875 1.804688-.289063 8.589844-.3125 10.394532-.027344.722656.113281 1.355468.164063 1.40625.113281.0625-.039062-.425782-2.390625-1.035157-5.203125-2.75-12.324219-5.3125-27.933593-6.71875-40.792969-1.867187-16.878906-2.898437-32.589843-3.074219-47.328124-.0625-4.480469-.199218-8.875-.324218-9.769532-.734375-5.339844-1.105469-19.519531-.710938-26.578125.773438-13.730469 1.671875-22.679687 3.324219-33.597656 1.007813-6.546875.960937-6.460937-1.40625 2.851563-3.148437 12.324218-4.589844 20.027343-6.605469 35.253906-1.65625 12.359375-2.378906 22.292968-2.640625 35.574218-.085937 3.871094-.171875 8.367188-.222656 9.996094L272.070312 289l.808594 1.09375c.972656 1.28125 1.90625 3.734375 2.191406 5.761719.109376.847656.109376 2.390625 0 3.835937-.234374 2.886719-.921874 4.59375-2.527343 6.3125-1.578125 1.691406-2.875 1.691406-3.746094-.027344-.90625-1.730468-1.230469-6.570312-.632813-9.445312.371094-1.820312 1.46875-4.667969 2.191407-5.753906.457031-.683594.484375-.894532.632812-10.480469.136719-8.539063.769531-23.738281 1.09375-26.214844.078125-.484375.339844-2.765625.574219-5.054687 1.195312-10.953125 3.148438-23.914063 4.964844-32.613282 1.804687-8.738281 6.371094-25.765624 7.378906-27.460937.261719-.472656.859375-2.761719 1.519531-6.039063.921875-4.492187 1.992188-9.171874 2.527344-11.039062.097656-.421875.0625-.484375-.476563-.484375-1.476562 0-5.484374-.773437-7.675781-1.46875-6-1.945313-12.445312-6-16.003906-10.058594-3.097656-3.535156-4.679687-6.609375-5.800781-11.167969-.597656-2.5-.523438-10.605468.140625-13.914062 2.074219-10.480469 8.558593-19.507812 16.0625-22.433594 1.007812-.386718 8.898437-3.183594 9.855469-3.460937.511718-.160157-.0625-.621094-2.363282-1.828125-2.785156-1.445313-6.65625-2.765625-10.019531-3.421875-2.847656-.550781-8.1875-1.121094-8.882813-.921875-.285156.0625-.449218 0-.449218-.175782 0-.421874 2.789062-.859374 5.390625-.832031 3.816406.035157 9.65625 1.441407 13.710937 3.285157 1.46875.683593 4.160156 2.238281 4.945313 2.898437.371093.3125.882812.335937 3.496093.25l3.046876-.113281-1.691407-1.601563c-1.730469-1.644531-3.710937-3.039062-5.800781-4.085937-2.152344-1.09375-6.296875-2.578125-7.875-2.835938-1.519531-.238281-1.867188-.414062-1.410156-.6875.375-.234375 5.628906.574219 7.382812 1.144532 2.277344.710937 5.140625 2.15625 6.832032 3.425781.746093.558593 2.191406 1.890625 3.199218 2.972656l1.863282 1.957031 1.632812.324219c4.230469.882813 10.316406 3.957031 13.875 7.007813l.835938.71875-.601563.8125-.570313.796874-2.128906-1.582031c-4.105468-3.125-8.273437-5.164062-12.09375-5.976562-4.707031-.980469-10.71875-.894531-14.847656.238281l-1.070312.285156.980468.023438c.550782.027344 1.148438.140625 1.320313.25.6875.410156-.199219.746094-2.5625.898437-1.371094.085938-3.035157.371094-3.90625.632813-1.867188.574218-4.964844 2.179687-6.136719 3.164062l-.847656.722656 1.292968-.214843c1.320313-.222657 3-.085938 3.574219.289062.261719.148438.261719.234375.050781.496094-.199218.25-.945312.375-2.726562.460937-1.355469.074219-2.726562.160157-3.074219.160157-1.058593.0625-3.90625 3.921875-5.859375 7.992187-2.015625 4.21875-2.949218 7.707032-3.324218 12.796875-.671876 9.074219 1.40625 15.25 7.078124 20.964844 3.363282 3.359375 8.777344 6.671875 13.792969 8.398437 3.246094 1.148438 5.3125 1.484376 10.003907 1.582032 4.082031.113281 4.59375.074218 7.054687-.433594 6.324219-1.320312 12.1875-4.496094 15.867187-8.652344 3.625-4.058594 6.636719-10.03125 7.433594-14.777344.234375-1.429687.296875-7.515624.085938-8.898437-.289063-1.84375-1.320313-5.714844-1.953125-7.292969-.660157-1.609375-1.855469-3.910156-2.777344-5.328125-.746094-1.195312-.757813-1.222656-.285156-1.371093 1.40625-.398438 1.765625-.238282 2.613281 1.207031 1.28125 2.179687 1.828125 3.410156 2.6875 5.890625 1.308594 3.882812 1.707031 6.199218 1.707031 10.082031.023438 5.113281-.660156 8.164063-2.8125 12.707031-2.367187 5.019532-6.210937 9.785156-10.167969 12.636719-5.152343 3.710937-11.761718 5.949219-17.996093 6.097656-2.042969.050781-2.289063.101563-2.464844.511719-.398437.984375-3.644531 17.175781-3.472656 17.328125.050781.046875.535156 0 1.082031-.113281.550781-.113282 3-.585938 5.488281-1.09375 14.972657-2.988282 25.863281-5.949219 50.066407-13.617188 4.519531-1.433594 10.167968-3.289062 12.507812-4.144531 5.9375-2.179687 13.265625-4.734375 14.785156-5.167969 1.15625-.324218 1.246094-.398437.980469-.773437-.148437-.199219-.832031-1.117188-1.515625-1.988281-.660156-.910157-1.90625-2.578126-2.738281-3.710938-.832031-1.144531-2.949219-3.910156-4.679688-6.148438-1.753906-2.242187-4.542969-5.851562-6.234375-8.019531-7.992187-10.253906-16.289062-20.675781-19.8125-24.820312-1.308594-1.582031-2.710937-3.234375-3.085937-3.699219l-.683594-.808594-1.730469 1.695313c-2.289062 2.265625-4.070312 3.1875-7.914062 4.132812-6.011719 1.492188-8.511719 1.492188-10.121094-.027343-.71875-.683594-.769531-.808594-.683594-1.730469.226563-1.941407 2.179688-3.644531 6.148438-5.414063 3.273437-1.441406 7.269531-2.601562 9.507812-2.761718 1.457032-.089844 1.980469-.023438 3.035156.371093.808594.3125 1.40625.6875 1.617188 1.058594.226562.324219 1.085938 1.382813 1.945312 2.355469 5.113282 5.785156 14.171876 16.929687 23.160157 28.441406 1.730469 2.230469 4.21875 5.402344 5.488281 7.019531 5.375 6.871094 9.445312 12.523438 9.445312 13.109375 0 .1875.234376.558594.546876.847656.324218.273438.484374.558594.347656.632813-.125.089844-.148438.300781-.085938.472656.109375.289063.023438.335938-.3125.226563-.433594-.125-5.921875 1.667968-12.582031 4.15625C350.472656 173.542969 329.59375 180.191406 315.914062 184c-9.085937 2.527344-12.605468 3.359375-23.792968 5.664062-5.078125 1.03125-5.6875 1.207032-5.875 1.617188-.175782.511719-1.90625 10.816406-2.476563 14.8125-1.617187 11.390625-2.726562 24.597656-2.925781 35.464844-.097656 6.921875.1875 15.859375.597656 18.386718 3.996094 23.738282 4.53125 26.402344 9.246094 47.175782 4.230469 18.671875 8.078125 32.265625 13.269531 47.003906 2.785157 7.878906 5.125 13.769531 5.660157 14.09375.148437.085938.722656.171875 1.292968.171875 1.382813 0 4.046875.574219 5.140625 1.109375 2.152344 1.046875 2.539063 2.539062 1.007813 3.96875-1.269532 1.183594-2.585938 1.519531-6.058594 1.496094-1.582031-.027344-3.511719-.148438-4.28125-.335938Zm8.933594-1.46875c.921875-.5 1.070312-.921875.574218-1.496094-.921874-1.03125-3.621093-1.902343-6.148437-1.992187-2.328125-.085937-5.140625 1.132813-5.140625 2.253906 0 1.085938 2.738281 1.742188 7.03125 1.679688 2.339844-.046875 3.109375-.136719 3.683594-.445313ZM285.921875 369.5c1.84375-.460938 5.402344-2.042969 5.402344-2.402344 0-.636718-9.085938-.746094-12.433594-.125-2.625.460938-4.144531.921875-4.457031 1.292969-.210938.261719-.148438.398437.402344.6875 1.402343.695313 2.957031.957031 6.195312.957031 2.5.023438 3.570312-.0625 4.890625-.410156Zm-13.925781-64.59375c1.230468-1.691406 1.582031-3.074219 1.605468-6.136719.023438-2.675781 0-2.8125-.921874-5.378906-.507813-1.441406-.96875-2.675781-1.03125-2.722656-.148438-.152344-1.183594 2.375-1.730469 4.269531-.710938 2.414062-.882813 4.453125-.546875 6.582031.324218 2.28125.632812 3.300781 1.132812 3.847657.570313.609374.746094.574218 1.492188-.460938Zm50.613281-185.125c3.609375-.835938 6.113281-2.03125 7.730469-3.648438 1.292968-1.292968 1.515625-2.152343.730468-2.902343-.53125-.484375-1.851562-.917969-2.8125-.917969-1.863281 0-6.878906 1.492188-10.140624 3.023438-2.351563 1.097656-3.644532 2.042968-4.109376 3.011718-.359374.722656-.332031.785156.066407 1.234375.222656.261719.71875.609375 1.066406.785157.972656.445312 4.074219.199218 7.46875-.585938Zm-204.96875 253.054688c0-.511719.414063-.921876.921875-.921876.5 0 .5.484376 0 .945313-.523438.472656-.921875.460937-.921875-.023437Zm-24.703125-.722657c-.171875-.273437.5-1.082031.921875-1.082031.4375 0 .351563.832031-.136719 1.09375-.546875.289062-.609375.289062-.785156-.011719Zm8.105469-1.605469c-.339844-.835937.832031-1.742187 2.5625-2.003906 1.292969-.199218 1.578125.175782.597656.773438-.835937.507812-.574219.546875 1.269531.199218 1.667969-.3125 1.953125-.574218.796875-.773437-1.320312-.199219-1.171875-.660156.234375-.808594 3.234375-.3125 2.664063 1.804688-.695312 2.5625-1.980469.460938-4.617188.484375-4.765625.050781Zm28.296875.039063c-.695313-.324219-.671875-1.558594.027344-2.253906.519531-.535157 1.804687-.996094 2.722656-.996094.75 0 1.644531.996094 1.445312 1.605469-.210937.722656-.546875 1.058594-1.519531 1.492187-.980469.460938-1.953125.511719-2.675781.152344Zm2.550781-1.246094c.375-.25.152344-.597656-.632813-1.007812-.597656-.3125-.660156-.3125-.882812.125-.148438.246093-.199219.597656-.125.769531.125.324219 1.15625.410156 1.640625.113281Zm6.125.695313c-.398437-.109375-.523437-.410156-.226563-.570313.289063-.148437 1.605469.285157 1.484376.507813-.136719.226562-.597657.238281-1.257813.0625Zm-13.566406-.371094c0-.148438.125-.410156.300781-.550781.273438-.222657.445312-.199219.882812.089843.722657.484376.546876.769532-.4375.769532-.484374 0-.746093-.109375-.746093-.308594Zm-47.390625-.125c-.957032-.222656-1.117188-.425781-.609375-.796875.546875-.398437 2.703125-.398437 5.574219-.039063 2.042968.261719 2.09375.289063 1.148437.4375-.550781.085938-1.582031.261719-2.316406.375-1.492188.257813-2.738281.285157-3.796875.023438Zm36.914062-.113281c-.175781-.460938.546875-1.207031 1.179688-1.207031.683594 0 .660156.5-.0625 1.070312-.695313.546875-.945313.574219-1.117188.136719Zm59.722656.175781c-.261718-.085938-.410156-.722656-.199218-.722656.421875 0 1.230468.484375 1.117187.660156-.148437.234375-.472656.261719-.917969.0625Zm-11.8125-.636719c-5.511718-.246093-10.5625-.746093-11.113281-1.082031-.285156-.199219-.234375-.859375.089844-1.183594.222656-.234375.109375-.261718-.550781-.148437-.917969.175781-1.292969-.160157-.769532-.683594.222657-.238281.910157-.375 2.117188-.425781 1.617188-.085938 1.777344-.035156 1.777344.339844 0 .222656-.160156.519531-.335938.683593-.175781.148438-.285156.347657-.210937.433594.035156.089844 1.15625.285156 2.453125.4375 1.925781.222656 2.375.222656 2.460937-.027344.324219-1.019531 2.9375-2.050781 5.179688-2.039062 2.414062.023437 3.734375.820312 3.992187 2.378906.136719.808594-.234375 1.144531-.519531.457031-.0625-.199218-.636719-.609375-1.257813-.921875-.847656-.433593-1.445312-.59375-2.539062-.59375-1.382812 0-3.734375.59375-3.734375.945313 0 .171875 6.523437.984375 9.945313 1.230468 1.058593.089844 1.914062.238282 1.914062.347657 0 .25-.882812.226562-8.898438-.148438Zm-73.820312-.460937c-.152344-.046875-.289062-.285156-.289062-.484375 0-.347657.3125-.421875 2.488281-.523438 1.332031-.074219 3.449219-.25 4.65625-.371093 2.238281-.25 7.503906-.226563 6.90625.011718-.171875.085938-1.207031.261719-2.300781.398438-1.070313.136718-3.359376.433594-5.054688.683594-2.898438.398437-5.808594.546874-6.40625.285156Zm92.265625-.308594c-3.011719-.226562-6.496094-.488281-7.753906-.597656-2.238281-.175782-3-.460938-2.523438-.933594.171875-.1875 1.191407-.1875 3.605469 0 1.867188.125 5.550781.382812 8.214844.582031 2.648437.175781 5.351562.425781 6.011718.523438.660157.136719 1.628907.226562 2.175782.226562.660156 0 .921875.085938.871094.285157-.148438.421874-4.253907.375-10.601563-.085938Zm-73.339844-1.070312c-.234375-.113282-.78125-.199219-1.230469-.199219-.921874-.027344-1.269531-.363281-1.40625-1.296875-.101562-.933594.273438-1.167969 2.128907-1.34375l1.605469-.136719-1.496094-1.046875c-1.503906-1.105469-2.0625-1.976562-1.441406-2.402344.832031-.570312 5.859374.511719 7.679687 1.632813.855469.546875 3.496094 2.875 3.496094 3.109375 0 .289062-.488281.113281-1.171875-.433594-1.355469-1.070312-8.113282-3.621094-7.265625-2.726562.136719.136718 1.207031.820312 2.402343 1.492187 1.179688.710937 2.1875 1.371094 2.238282 1.519531.039062.136719-.136719.398438-.421875.597656-.460938.285157-.660157.261719-2.042969-.199218-.832031-.261719-2.214844-.570313-3.023438-.632813-1.367187-.136719-1.492187-.113281-1.429687.234375.035156.3125.347656.425782 1.242187.511719 1.40625.125 1.980469.671875 1.257813 1.21875-.484375.363281-.511719.363281-1.121094.101563Zm-12.902343-.375c-.796876-.773438 1.789062-2.925782 3.945312-3.273438.90625-.136719 2.039062.199219 2.039062.574219 0 .148437-.175781.183593-.410156.097656-.710937-.210937-3.472656.972656-4.441406 1.890625-.984375.949219-.949219.921875-1.132812.710938Zm46.828124-.222657c0-.746093.808594-.984375 9.445313-2.703125 4.855469-.945312 5.351563-1.007812 5.226563-.632812-.050782.148437-1.40625.523437-3.035157.859375-1.617187.320312-4.394531 1.007812-6.148437 1.503906-3.296875.972656-5.488282 1.34375-5.488282.972656Zm-1.53125-1.148437c0-.347656-.097656-.371094-.84375-.171875-1.046874.285156-1.582031.109375-1.421874-.460938.152343-.609375 1.359374-2.015625 1.730468-2.015625.375 0 .398438.472656.050782.832032-.449219.4375-.074219.5.808593.152343 1.429688-.613281 1.867188 0 .945313 1.355469-.546875.796875-1.269532.96875-1.269532.308594Zm-16.191406-.148438c-.171875-.484375.710938-3.160156 1.667969-5.027344.449219-.859374.824219-1.65625.859375-1.753906.226562-.601562-3.097656 4.105469-3.597656 5.089844-.371094.769531-.65625 1.09375-.882813 1.007812-.171875-.0625-.308593-.222656-.308593-.375 0-.121093-.5-.746093-1.121094-1.34375-.609375-.609374-1.878906-2.078124-2.851563-3.285156-.945312-1.207031-2.363281-2.949218-3.160156-3.847656-1.667969-1.902344-2.214844-2.8125-1.902344-3.109375.121094-.136719.410157-.164063.632813-.101563.871094.285157 7.28125 7.917969 8.140625 9.734376.199219.398437.398437.722656.484375.722656.0625 0 .769531-.921875 1.542968-2.042969 1.753907-2.539063 3.921876-5.339844 4.777344-6.171875.886719-.808594 1.433594-.648438 1.144532.308594-.222657.773437-2.015626 4.171875-3.359376 6.375-.695312 1.15625-1.691406 3.113281-1.691406 3.386718 0 .035157.421875-.335937.945313-.824218 1.257812-1.15625 2.5625-2.039063 4.019531-2.722656.972656-.4375 1.269531-.476563 1.519531-.277344.460938.375.410157.648437-.226562 1.855468-.308594.574219-.519531 1.085938-.484375 1.121094.25.25 1.71875-.648437 2.664062-1.644531l1.070313-1.09375-.523438-.4375c-.285156-.246094-.597656-.445313-.683593-.457031-.113282 0-.199219-29.640625-.222657-65.851563l-.0625-65.824219h-10.542969l-.109374 65.601563-.101563 65.625-.660156-.835937-.660157-.808594-.109374-64.792969-.113282-64.789063-8.335937-.0625c-8.441407-.0625-25.042969.234376-32.285157.609376-2.175781.136718-8.449218.421874-13.9375.660156-5.488281.25-10.429687.460937-10.988281.484375l-.984375.0625v-10.320313c0-15.433594.347656-33.882812.636719-34.132812.683594-.546875 4.242187-.722656 19.015625-.894532 8.523438-.113281 19.9375-.3125 25.363281-.425781 5.449219-.121093 12.519531-.210937 15.765625-.234375h5.863282v-7.691406c0-7.183594-.027344-7.683594-.375-7.683594-.882813.027344-9.332032 1.445313-22.140626 3.734375-2.648437.488281-6.496093 1.121094-8.558593 1.421875-2.042969.3125-6.347657 1.019532-9.546875 1.542969-7.816406 1.292969-11.550782 1.867187-12.40625 1.867187-.609375 0-1.558594-.351562-6.261719-2.414062-3.023437-1.34375-9.542969-4.683594-14.160156-7.246094-4.59375-2.574218-8.675781-4.617187-9.261719-4.617187-.398438 0-.359375-.414063.125-1.433594.226562-.472656.574219-1.242187.773438-1.679687.171874-.460938 2.824218-4.570313 5.859374-9.125 5.949219-8.886719 10.515626-15.984376 10.515626-16.292969 0-.113281.136718-.3125.3125-.4375.585937-.507813 21.117187-5.925781 32.84375-8.699219 6.171874-1.445312 16.601562-4.082031 26.902343-6.761719l5.265625-1.378906.0625-5.976563.050782-5.972656-.488282-.113281c-.285156-.0625-2.238281-.425781-4.339844-.773437-2.117187-.371094-5.078124-.894532-6.597656-1.207032-2.675781-.496094-12.132812-2.078125-17.894531-2.960937-1.558594-.226563-5.027344-.773438-7.679687-1.207031-2.664063-.4375-7.355469-1.171876-10.429688-1.644532-3.097656-.484375-6.257812-1.019531-7.03125-1.195312-3.023438-.660156-5-.871094-5.597656-.609375-.785156.375-2.328125.109375-2.789063-.484375-.433593-.523438-.496093-1.433594-.175781-2.554688.488281-1.617187 2.179688-18.269531 2.640625-25.691406.234375-4.019531 1.144531-14.710938 1.554687-18.671875.25-2.304687.621094-3.199219 1.230469-2.988281.152344.078125.835938-.039063 1.53125-.210938.75-.199218 1.605469-.261718 2.054688-.199218 1.007812.199218 5.203125 1.359374 9.769531 2.703124 2.066406.609376 7.128906 2.066407 11.300781 3.210938 7.554688 2.078125 17.398438 4.914062 27.277344 7.816406 2.851563.847656 5.328125 1.53125 5.527344 1.53125.308593 0 .359375-.398437.359375-2.9375 0-2.128906-.085938-3.011718-.273438-3.148437-.148437-.089844-4.667968-.238281-10.054687-.347657-8.6875-.175781-9.855469-.238281-10.640625-.585937-.511719-.226563-1.171875-.488281-1.496094-.5625-.707031-.1875-.820312-.585937-.085938-.460937.261719.074218 4.082032.1875 8.488282.25 15.855468.238281 29.320312.660156 57.644531 1.78125 21.082031.808593 26.605469.957031 40.136719 1.007812l12.457031.0625-.113281-.984375c-.398438-3.957031-.597656-11.339844-.488282-18.234375.199219-12.015625.601563-22.792969.898438-24.511719l.261719-1.554687-3.511719-.140625c-1.949219-.085938-4.960938-.234375-6.71875-.371094-19.101562-1.355469-25.199219-1.503906-66.742188-1.769531-45.285156-.285156-77.519531-.160156-89.925781.351562-4.691406.199219-11.351562.410156-14.746093.496094l-6.199219.164062-2.152344 2.078126c-1.183594 1.144531-4.082031 3.957031-6.433594 6.234374-3.96875 3.871094-9.195312 8.550782-15.40625 13.867188-1.433593 1.207031-2.589843 2.242188-2.589843 2.304688.011718.324218 9.433593 6.035156 14.488281 8.789062 6.171875 3.359375 12.867187 7.09375 13.5 7.53125.375.234375 1.355469 1.007812 2.203125 1.667969l1.53125 1.230469 12.46875-.050782 12.457031-.058594v1.054688l-4.878906.148438c-2.699219.089843-8.609375.113281-13.152344.0625l-8.25-.0625-.648437-.683594c-.871094-.945313-2.191407-1.753906-8.3125-5.140625-2.898438-1.59375-7.058594-3.910157-9.199219-5.113281C9.832031 40.25 7.21875 38.644531 4.34375 36.625.898438 34.210938.386719 33.8125.386719 33.566406c0-.609375 1.46875-2.042968 7.15625-6.960937 5.648437-4.878907 15.109375-13.617188 18.839843-17.414063l1.546876-1.542968 1.527343-.035157c7.417969-.265625 15.285157-.574219 19.128907-.773437 2.539062-.125 19.539062-.289063 37.769531-.375l33.152343-.121094.0625-2.269531c.027344-1.230469-.035156-2.414063-.148437-2.636719-.3125-.574219 0-.921875.984375-1.144531.945312-.214844 13.015625-.3007815 13.5625-.089844.5625.226563.425781 1.058594-.257812 1.667969-.574219.511718-.613282.648437-.550782 2.066406.027344.835938.050782 1.71875.0625 1.980469v.460937l21.902344.136719c21.519531.125 29.59375.347656 42.179688 1.121094 2.984374.199219 7.875.496093 10.910156.671875 3.011718.1875 6.296875.398437 7.292968.460937l1.816407.136719-.136719 2.152344c-.125 2.179687-.148438 38.351562-.035156 41.179687.035156.859375 0 1.914063-.089844 2.351563-.109375.660156-.058594.832031.226562.894531 1.046876.25-1.234374.550781-6.109374.824219-7.09375.375-27.207032.171875-40.621094-.421875-5.488282-.238281-13.066406-.550781-16.800782-.6875-3.757812-.125-9.285156-.324219-12.296874-.433594-3.023438-.140625-6.097657-.226563-6.867188-.226563h-1.371094v9.871094l2.488282.761719c1.332031.421875 6.175781 1.867187 10.691406 3.210937 4.53125 1.34375 9.074218 2.726563 10.105468 3.097657 1.035157.375 4.34375 1.410156 7.355469 2.304687 3.023438.894532 7.21875 2.175782 9.332031 2.839844 5.402344 1.640625 11.125 3.359375 13.714844 4.105469 1.207032.324219 3.820313 1.132812 5.824219 1.792969 2.003906.660156 4.65625 1.492187 5.925781 1.890624 4.703125 1.433594 6.046875 1.929688 7.027344 2.640626.414062.296874 2.355469 2.015624 4.28125 3.820312 1.929688 1.792969 4.34375 4.023438 5.378906 4.917969 1.03125.882812 3.820313 3.644531 6.222656 6.101562 2.390626 2.464844 4.492188 4.480469 4.652344 4.480469.152344 0 .324219.222656.386719.484375.160156.546875-.433594 1.34375-.847656 1.183594-.421875-.152344-3.359375 1.253906-7.550781 3.609375-2.003907 1.121094-3.722657 2.101562-3.847657 2.191406-.460937.371094-6.917969 3.519531-9.21875 4.503906-1.320312.550782-2.925781 1.320313-3.535156 1.667969-1.121094.636719-1.121094.636719-3.300781.425781-6.121094-.597656-18.578125-2.617187-19.078125-3.101562-.136719-.136719-.050781-.375.238281-.660156l.460938-.433594 7.554687 1.09375c6.878906.984375 9.929687 1.40625 12.382813 1.644531.683593.0625 1.207031-.085937 2.3125-.660156.785156-.410157 3.363281-1.644531 5.703124-2.738281 2.347657-1.085938 5.472657-2.664063 6.917969-3.472657 5.027344-2.863281 7.144531-3.996093 8.175781-4.457031.585938-.25 1.070313-.460938 1.09375-.484375.113282-.089844-9.160156-9.425781-14.296874-14.417969-3.335938-3.199218-5.6875-5.324218-6.039063-5.402344-.308594-.0625-2.152344-.660156-4.082031-1.304687-1.941406-.648437-4.304688-1.371094-5.273438-1.582031-.960937-.25-4.480468-1.234375-7.792968-2.238282-3.308594-.996093-7.703126-2.316406-9.769532-2.902343-2.039062-.597657-4.765625-1.40625-6.035156-1.828125-1.28125-.398438-4.042969-1.246094-6.148438-1.867188-2.113281-.613281-5.910156-1.792968-8.460937-2.628906-4.144531-1.371094-18.269531-5.625-21.839844-6.597656-.796875-.210938-3.609375-1.046875-6.261719-1.867188-2.664062-.808594-7.003906-2.078125-9.65625-2.875-2.664062-.769531-7.054687-2.039062-9.78125-2.835937-2.714843-.785157-7.105468-2.082031-9.769531-2.851563-2.652343-.773437-6.695312-1.929687-8.996093-2.617187-2.292969-.65625-6.546876-1.867188-9.449219-2.648438-2.898438-.796875-6.296875-1.78125-7.578125-2.203125-3.257813-1.046875-7.417969-2.304687-7.675782-2.304687-.136718 0-.226562.550781-.226562 1.257812 0 2.242188-.945312 11.9375-2.300781 23.425781-.523438 4.546876-1.867188 21.152344-1.867188 23.21875 0 .398438-.609375.285157 9.992188 1.839844C75.617188 96.675781 77.804688 97 87.5625 98.582031c1.867188.285157 7.15625 1.144531 11.75 1.867188 4.578125.746093 9.019531 1.492187 9.855469 1.667969 1.46875.308593 3.335937.632812 11.671875 2.066406 2.066406.347656 5.515625.894531 7.691406 1.207031 4.019531.570313 10.742188 1.839844 12.707031 2.414063 1.65625.460937 4.679688 1.542968 4.855469 1.71875.085938.085937-.015625.148437-.265625.148437-.894531 0-7.066406-.921875-9.59375-1.445313-1.441406-.285156-2.726563-.535156-2.8125-.535156-.097656 0-.199219 1.347656-.199219 2.964844 0 2.664062.050782 2.972656.375 2.972656.421875 0 15.878906-4.007812 26.097656-6.746094 3.371094-.894531 6.867188-1.777343 7.765626-1.953124 2.152343-.421876 3.980468-.945313 4.589843-1.34375.4375-.261719.597657-.261719.984375-.011719.261719.171875.945313.472656 1.492188.671875 1.167968.445312 1.320312.71875 1.832031 3.011718.410156 1.980469 2.386719 14.476563 2.847656 18.011719.894531 6.847657 2.089844 23.414063 2.105469 29.339844 0 1.90625-.089844 2.738281-.300781 3.050781-.285157.398438-.308594.398438-.421875-.023437-.300782-1.046875-.871094-7.335938-1.46875-16.222657-.460938-6.808593-1.070313-12.582031-2.003906-19.007812-.671876-4.804688-2.425782-16.332031-2.476563-16.40625 0-.011719-.285156-.085938-.636719-.175781-.570312-.148438-.59375-.121094-.59375.6875 0 .484375.199219 2.128906.421875 3.707031.746094 4.96875 1.53125 11.726562 1.777344 15.261719.671875 9.996093 1.035156 14.078125 1.867187 21.425781.175782 1.554688.414063 4.480469.546876 6.472656.324218 4.988282.324218 5.003906.960937 4.902344.535156-.113281 2.113281.5 2.113281.808594 0 .261718-1.34375.5-2.863281.488281-.957031 0-2.5625.257813-4.9375.832031-5.578125 1.382813-10.464844 2.191406-31.289063 5.226563l-8.671874 1.269531-.0625 8.703125-.050782 8.6875 28.488282.136719c15.679687.089844 29.132812.175781 29.902343.226562l1.410157.085938 6.457031 4.121094c8.015625 5.164062 10.542969 6.808593 15.03125 9.882812 1.980469 1.34375 4.832031 3.1875 6.375 4.132812 1.527343.921876 3.445312 2.179688 4.253906 2.789063.808594.597656 1.65625 1.082031 1.84375 1.082031.570313 0 1.480469.785156 1.207031 1.046875-.101562.109375-2.242187 1.292969-4.71875 2.613281-8.324218 4.457032-13.476562 7.605469-18.441406 11.140626-2.839844 2.042968-8.414062 5.777343-10.453125 7.007812l-1.320313.785156-10.09375-.0625c-5.539062-.050781-13.527343-.199218-17.769531-.335937-4.207031-.148438-13.167969-.300781-19.863281-.300781l-12.195312-.046876-.0625 66.148438c-.023438 36.398438.023437 66.183594.085937 66.183594s1.183594-.65625 2.464844-1.480469c4.320312-2.699219 8.886719-4.582031 9.347656-3.820313.285156.460938-.300781 1.082032-2.328125 2.441407-2.101562 1.429687-5.238281 4.417969-6.535156 6.210937-.707032.992188-1.105469 1.28125-1.105469.820313 0-.113281.449219-.921875.96875-1.804688.898437-1.492187 2.875-3.597656 4.742187-5.066406.636719-.484375.398438-.425781-1.257812.386719-2.910156 1.429687-6.207031 3.621094-7.765625 5.191406-1.082031 1.070312-1.429687 1.316406-1.714844 1.132812-.199219-.101562-.609375-.125-.960937-.039062-1.34375.371094-1.578125-.199219-.683594-1.71875.3125-.546875.511719-1.03125.4375-1.09375-.199219-.199219-2.527344 1.269531-3.757812 2.390625-1.207032 1.105469-1.769532 1.292969-2.019532.707031ZM58.792969 228.738281c2-.136719 6.109375-.363281 9.109375-.484375 3.035156-.136718 8.261718-.375 11.644531-.574218 8.191406-.4375 70.066406-.660157 83.320313-.3125 4.902343.164062 13.003906.363281 18.007812.460937 5.003906.113281 9.707031.273437 10.453125.363281 1.207031.097656 1.433594.0625 2.304687-.460937 2.089844-1.320313 9.867188-6.574219 11.660157-7.894531 3.867187-2.824219 11.113281-7.207032 17.371093-10.453126l2.8125-1.472656-1.167968-.769531c-.636719-.410156-2.613282-1.617187-4.371094-2.652344-1.753906-1.058593-4.789062-2.988281-6.691406-4.304687-1.917969-1.320313-7.492188-5.03125-12.359375-8.28125l-8.898438-5.910156h-49.730469c-46.902343 0-84.050781.308593-86.578124.707031l-1.03125.175781-.113282 9.882812c-.0625 5.425782-.222656 14.863282-.335937 20.976563-.101563 6.097656-.125 11.175781-.089844 11.265625.078125.109375.339844.125.597656.085938.238281-.0625 2.09375-.222657 4.085938-.347657Zm103.789062-13.878906c-1.160156-.335937-2.886719-1.980469-3.347656-3.164063-.535156-1.394531-.335937-4.753906.371094-6.707031.785156-2.167969 2.789062-4.007812 3.175781-2.964843.074219.175781-.089844.597656-.324219.910156-.808593 1.03125-1.40625 3.398437-1.320312 5.328125.0625 1.457031.175781 1.851562.722656 2.613281.832031 1.207031 2.238281 1.890625 3.585937 1.742188 1.242188-.136719 2.636719-1.082032 3.308594-2.242188.449219-.769531.511719-1.117188.449219-2.859375-.074219-1.730469-.1875-2.15625-.746094-3.191406-.859375-1.476563-1.832031-2.1875-3.0625-2.1875-.671875 0-1.035156.136719-1.417969.546875-.511718.535156-1.109374.722656-1.109374.371094 0-.257813 2.042968-2.261719 2.6875-2.585938.261718-.152344.871093-.285156 1.332031-.3125 2.578125-.011719 4.566406 2.925781 4.640625 6.808594.015625 1.582031-.074219 2.042968-.570313 3.125-1.570312 3.363281-5.453125 5.578125-8.375 4.769531Zm19.101563-1.804687c-2.078125-2.042969-2.886719-3.164063-4.34375-5.953126l-1.007813-1.929687-.171875 1.382813c-.089844.757812-.226562 2.714843-.3125 4.34375-.125 2.726562-.199218 2.964843-.683594 3.363281-.636718.519531-1.121093.433593-1.496093-.261719-.347657-.683594-.210938-3.410156.425781-7.78125.511719-3.449219.808594-4.40625 1.601562-4.765625.488282-.214844.613282-.175781 1.246094.445313.375.375 1.082032 1.507812 1.570313 2.503906.472656.984375 1.292969 2.4375 1.816406 3.222656.945313 1.433594 3.597656 4.171875 4.042969 4.171875.113281 0 .300781-.375.386718-.835937.1875-.871094.226563-5.3125.074219-7.304688-.085937-1.007812-.023437-1.347656.300781-1.71875.558594-.609375 1.167969-.523438 1.742188.261719.394531.507812.484375 1.019531.546875 3.210937.148437 4.21875-.636719 7.53125-2.09375 8.800782-1.15625 1.03125-1.554687.910156-3.644531-1.15625Zm-112.476563 1.292968c-.398437-.3125-.421875-.636718-.421875-7.09375 0-6.125.046875-6.847656.398438-7.382812.519531-.808594 1.40625-.808594 1.617187 0 .085938.359375.160157 3.621094.171875 7.269531v6.683594l-.519531.410156c-.613281.511719-.699219.511719-1.246094.113281Zm85.011719-.4375c-.300781-.65625-.347656-1.566406-.300781-6.519531l.0625-5.765625.609375-.4375c.574218-.433594.625-.433594.996094-.085938.324218.351563.375.972657.375 6.261719 0 5.777344 0 5.863281-.511719 6.574219-.285157.386719-.597657.722656-.695313.722656-.089844 0-.335937-.335937-.535156-.75Zm-25.6875-.171875c-.421875-.597656-.460938-2.875-.109375-6.113281.136719-1.230469.195313-2.277344.136719-2.351562-.078125-.0625-.398438.421874-.710938 1.082031-1.40625 2.789062-2.527344 2.964843-4.480468.683593-.484376-.597656-.894532-.96875-.894532-.847656 0 .117188-.113281 1.394532-.226562 2.816406-.199219 2.75-.484375 3.523438-1.332032 3.785157-.882812.285156-1.144531-.398438-.992187-2.527344.085937-1.035156.246094-3.535156.359375-5.601563.1875-3.039062.296875-3.847656.632812-4.28125.722657-.984374 1.757813-.796874 1.78125.347657 0 .707031 1.40625 3.359375 2.339844 4.457031l.859375.96875.769531-1.292969c.4375-.722656 1.207032-2.042969 1.695313-2.964843 1.007813-1.851563 1.578125-2.464844 2.152344-2.351563.757812.148437.859375.660156.546875 4.171875-.164063 1.839844-.347656 4.765625-.4375 6.484375-.109375 2.613281-.199219 3.160156-.558594 3.546875-.546875.597656-1.121094.597656-1.53125-.011719Zm11.835938.0625c-.199219-.238281-.597657-1.058593-.882813-1.820312l-.5-1.390625-3.734375-.125-.546875 1.207031C134.070312 213.078125 133.222656 214 132.613281 214c-.546875 0-.722656-.460938-.496093-1.257812.097656-.324219 1.207031-2.703126 2.425781-5.226563 1.230469-2.542969 2.375-5.042969 2.5-5.601563.226562-.8125.425781-1.074218 1.195312-1.496093 1.144531-.632813 1.445313-.472657 1.269531.660156-.171874 1.03125 1.257813 7.058594 1.804688 7.691406.175781.226563.574219.398438.859375.398438.722656 0 .546875.5-.222656.660156l-.574219.101563.523438 1.320312c.660156 1.605469.683593 1.867188.109374 2.488281-.570312.585938-1.117187.609375-1.640624.0625Zm-2.238282-6.871093c-.175781-.773438-.351562-1.40625-.402344-1.457032-.085937-.085937-1.417968 2.464844-1.417968 2.703125 0 .074219.472656.109375 1.070312.109375h1.058594ZM98.652344 213.375c-1.320313-.609375-2.230469-1.765625-2.527344-3.199219-.222656-1.09375-.160156-3.046875.125-4.132812.113281-.324219-.113281-.285157-1.417969.265625-.859375.371094-2.152343.730468-2.886719.820312l-1.308593.125v1.691406c0 1.644532-.460938 3.796876-.882813 4.058594-.398437.25-1.03125-.101562-1.320312-.722656-.199219-.410156-.308594-2.277344-.398438-6.1875-.085937-5.511719-.085937-5.601562.398438-6.222656.488281-.609375 1.058594-.757813 1.457031-.375.097656.113281 1.492187.273437 3.046875.363281 3.015625.125 3.945312.324219 4.171875.921875.335937.84375-1.234375 1.355469-4.308594 1.355469h-2.386719v1.429687c0 1.621094-.113281 1.582032 2.386719 1.210938 1.085938-.164063 1.632813-.140625 2.316407.109375 1.269531.460937 1.332031.410156 1.617187-.511719.597656-1.976562 2.390625-3.644531 3.785156-3.496094.496094.050782 1.09375-.085937 1.730469-.4375 1.316406-.671875 2.5625-.65625 3.667969.0625 1.121093.75 1.507812 1.234375 2.304687 2.839844 1.691406 3.496094-.113281 7.78125-4.082031 9.660156-1.742187.820313-4.183594.996094-5.488281.371094Zm5.5-2.539062c1.71875-.796876 2.179687-1.605469 2.179687-3.78125 0-1.667969-.039062-1.84375-.808593-2.988282-.550782-.847656-1.097657-1.359375-1.757813-1.695312-1.058594-.496094-2.265625-.609375-2.5-.210938-.074219.125-.375.199219-.660156.125-.597657-.101562-1.257813.484375-1.628907 1.496094-.410156 1.105469-.636718 3.644531-.410156 4.816406.457032 2.476563 2.960938 3.472656 5.585938 2.238282Zm-20.769532 2.304687c0-.546875-.386718-.808594-.722656-.484375-.125.136719-.523437.246094-.871094.246094-1.03125 0-3.445312-2.613282-4.855468-5.277344l-.734375-1.355469-.148438 1.839844c-.308593 3.511719-.746093 4.746094-1.628906 4.484375-.847656-.289062-.933594-1.34375-.496094-6.574219.371094-4.40625.433594-4.832031.894531-5.3125 1.082032-1.136719 1.65625-.589843 3.296876 3.160157 1.144531 2.613281 1.890624 3.820312 3.484374 5.5625l1.058594 1.160156.148438-1.097656c.3125-2.304688.5625-5.550782.574218-7.207032 0-1.503906.074219-1.78125.546876-2.238281 1.257812-1.273437 1.65625-.527344 1.65625 3.121094 0 3.933593-.660157 8.15625-1.519532 9.921875-.261718.511718-.683594.558594-.683594.050781Zm61.066407-.199219c-.199219-.484375-.148438-1.269531.175781-3.773437.246094-1.753907.457031-3.820313.484375-4.617188l.0625-1.429687-2.015625-.101563c-2.265625-.136719-2.703125-.359375-2.265625-1.195312.484375-.894531 1.144531-1.03125 5.3125-1.03125 3.386719-.011719 3.996094.046875 4.59375.375.347656.21875.660156.53125.660156.65625 0 .359375-1.558593.945312-2.964843 1.144531l-1.09375.152344-.074219 1.203125c-.085938 1.859375-.921875 7.519531-1.183594 8.019531-.347656.660156-.882813 1.21875-1.167969 1.21875-.152344 0-.386718-.285156-.523437-.621094Zm-33.328125-.324218c-.460938-.546876-.796875-2.550782-.535156-3.1875.25-.574219.660156-5.027344.683593-7.03125v-.921876h-.980469c-.824218 0-.996093-.0625-.996093-.398437 0-.871094.796875-1.246094 2.722656-1.246094 2.09375.027344 3.5.523438 4.816406 1.820313 2.105469 2.039062 1.296875 4.65625-2.140625 6.894531-.757812.484375-1.15625.859375-.980468.921875.171874.074219.894531.273438 1.628906.460938 1.964844.558593 2.714844 1.519531 1.59375 2.113281-.460938.261719-3.222656.175781-3.921875-.109375-.246094-.113282-.421875.023437-.597657.410156-.261718.597656-.945312.734375-1.292968.273438Zm4.082031-6.433594c.511719-.425782.683594-.75.683594-1.296875 0-.835938-.796875-1.917969-1.765625-2.414063l-.585938-.3125-.160156 1.992188c-.0625 1.109375-.125 2.289062-.125 2.640625 0 .621093 0 .621093.632812.308593.351563-.199218.945313-.597656 1.320313-.917968Zm8.585937-29.875v-8.019532l-1.253906.164063c-.699218.0625-1.332031.171875-1.421875.234375-.109375.039062-.183593 3.597656-.183593 7.878906v7.78125h2.859374Zm7.902344-.550782v-8.613281l-1.007812.160157c-.546875.0625-1.082032.175781-1.167969.238281-.085937.050781-.238281 1.171875-.324219 2.464843-.0625 1.292969-.25 3.359376-.347656 4.566407-.113281 1.210937-.199219 3.003906-.226562 4 0 .980469-.085938 1.839843-.195313 1.902343-.113281.085938-.203125-2.503906-.203125-6.238281 0-3.507812-.035156-6.433593-.085938-6.472656-.085937-.109375-2.847656.3125-2.984374.410156-.027344.050781-.152344 2.328125-.289063 5.105469-.109375 2.761719-.285156 6.324219-.382813 7.878906-.101562 1.554688-.136718 2.925782-.101562 3.015625.050781.109375 1.71875.171875 3.722656.171875h3.59375Zm-52.589844-1.519531c10.078126-1.640625 21.054688-3.558593 29.207032-5.050781 4.703125-.847656 11.199218-1.882812 16.03125-2.515625 7.152344-.945313 33.871094-4.929687 41.9375-6.261719 4.34375-.707031 8.414062-1.34375 9-1.429687.621094-.0625 1.253906-.226563 1.378906-.3125.285156-.175781.136719-2.367188-.722656-9.796875-.871094-7.59375-1.46875-14.140625-1.867188-20.863282-.199218-3.199218-1.007812-11.640624-1.753906-18.449218-.113281-1.09375-.222656-2.5-.222656-3.132813 0-.625-.0625-1.148437-.148438-1.148437-.375-.023438-7.046875 1.667968-12.246094 3.101562-5.851562 1.582032-15.707031 4.167969-28.4375 7.441406-7.714843 1.980469-10.429687 2.703126-21.742187 5.691407-7.976563 2.101562-14.210937 3.671875-22.613281 5.625-7.117188 1.667969-21.429688 5.238281-27.453125 6.894531-1.753907.460938-3.445313.921875-3.769531.984375-.375.089844-.820313.460937-1.144532.972656-.261718.433594-1.433594 2.277344-2.550781 4.105469-1.132813 1.792969-4.121094 6.414062-6.671875 10.207031-4.53125 6.835938-7.242188 11.269531-7.117188 11.664063.046876.113281 1.007813.636718 2.152344 1.148437 1.144532.519531 4.304688 2.164063 7.007813 3.65625 5.921875 3.261719 14.011719 7.207031 18.355469 8.988281 1.316406.523438.023437.683594 13.390624-1.519531Zm-15.496093-12.222656c-.246094-.285156-.308594-1.71875-.273438-7.429687.027344-6.085938.074219-7.183594.398438-7.769532.425781-.820312 1.035156-1.105468 1.953125-.90625.660156.132813.75.285156 2.128906 3.992188 1.40625 3.734375 2.949219 6.984375 3.273438 6.984375.199218 0 .574218-2.875.996093-7.503907.296875-3.5625.460938-4.171874 1.230469-4.59375.722656-.375 1.007812-.089843 1.160156 1.207032.285156 2.550781-.859375 11.925781-1.667968 13.667968-.460938.984376-.574219 1.070313-1.359376 1.132813-.570312.050781-.992187-.0625-1.304687-.324219-.894531-.808594-2.515625-3.597656-3.359375-5.800781l-.847656-2.277344-.160156 1.753907c-.101563.972656-.101563 2.9375-.039063 4.394531.125 2.476562.113281 2.675781-.347656 3.222656-.535157.710937-1.34375.796875-1.78125.25Zm-4.675781-.1875c-.660157-.660156-.910157-2.714844-.910157-7.679687.023438-4.132813.074219-4.941407.398438-5.539063.421875-.757813 1.167969-1.121094 1.566406-.746094.148437.171875.273437 1.980469.375 5.363281.085937 3.015626.234375 5.527344.410156 6.152344.335938 1.269532.113281 1.953125-.859375 2.4375-.570312.300782-.671875.300782-.980468.011719Zm17.894531-2.039063c-.113281-.210937-.25-3.375-.261719-7.246093-.050781-7.53125-.074219-7.382813 1.292969-7.902344.859375-.339844 3.359375-.859375 5.863281-1.234375 2.300781-.347656 3.285156-.199219 3.285156.523438 0 .511718-1.617187 1.28125-3.285156 1.566406-.835938.125-2.214844.351562-3.074219.5l-1.542969.246094.074219 1.867187c.039063 1.035156.097657 1.882813.125 1.90625.023438.027344 1.167969-.3125 2.550781-.722656 1.816407-.546875 2.738282-.71875 3.308594-.632813l.796875.125.261719-1.382812c.375-1.867188.882812-2.9375 2.015625-4.21875.945313-1.046875 2.316406-1.867188 3.164063-1.878906 2.859374-.027344 5.585937 3.570312 5.597656 7.390624.023437.949219.074218 1.195313.25.910157.109375-.222657.171875-1.867188.148437-3.957031l-.0625-3.585938-.820312.074219c-.695313.0625-.835938 0-.835938-.347657 0-.648437.746094-1.171874 2.140625-1.496093 1.507813-.359375 4.632813-.398438 5.488282-.074219 2.914062 1.097656 2.078124 4.570312-1.867188 7.78125-.746094.609375-1.367188 1.144531-1.367188 1.207031s.832032.285157 1.867188.484375c2.152344.386719 2.960938.835938 2.960938 1.582032 0 1.070312-1.269532 1.40625-3.421876.894531-.832031-.199219-1.53125-.257813-1.582031-.171875-.683593 1.929687-1.988281 2.128906-2.261719.324218-.0625-.476562-.238281-1.046874-.414062-1.246093-.257812-.3125-.347656-.199219-.894531.921875-.746094 1.53125-2.3125 3.160156-3.695313 3.847656-1.445312.71875-3.386718.695312-4.503906-.050781-1.183594-.808594-2.128906-2.789063-2.167969-4.679688-.023437-.8125-.113281-1.46875-.171875-1.46875-.089844 0-.636718.332031-1.234375.722657-.597656.394531-2.015625 1.019531-3.183593 1.367187l-2.105469.632813-.136719 1.535156c-.085938.855468-.136719 2.3125-.109375 3.210937.074219 1.804688-.203125 2.4375-1.046875 2.835938-.734375.324219-.910156.300781-1.144531-.160157Zm16.574219-6.648437c.972656-.945313 1.269531-1.917969 1.144531-3.710937-.222657-3.121094-1.976563-5.5625-4.304688-6-.707031-.148438-.746093-.109376-1.316406 1.121093-.488281 1.058594-.597656 1.644531-.660156 3.683594-.089844 2.292969-.0625 2.554687.460937 3.699219.71875 1.554687 1.628906 2.167968 2.960938 2.042968.707031-.089843 1.167968-.289062 1.714844-.835937Zm9.085937-8.414063c.945313-1.542968.375-2.503906-1.617187-2.703124l-1.230469-.136719v2.527343c0 1.382813.058593 2.589844.136719 2.664063.210937.210937 2.1875-1.519531 2.710937-2.351563Zm4.617187 7.007813c-.136718-.175781-.347656-.996094-.460937-1.804687-.261719-2.066407-.535156-9.722657-.335937-10.457032.164062-.671875 1.019531-1.320312 1.519531-1.132812.171875.085937.769531.898437 1.320312 1.816406.882813 1.519531 2.4375 3.335938 2.636719 3.101562.210938-.261718 1.492188-4.195312 1.703125-5.253906.164063-.746094.460937-1.445312.824219-1.816406.558594-.597656 1.21875-.773438 1.441406-.398438.085938.109376.238281 2.5.375 5.339844.113281 2.800782.308594 5.949219.398438 6.980469.210937 2.15625-.0625 3.140625-.972657 3.5625-.460937.1875-.632812.1875-.894531-.101563-.398438-.382812-.722656-2.625-.746094-4.953124 0-1.480469-.226562-2.027344-.511718-1.28125-.0625.175781-.433594.484374-.785157.683593-.621093.3125-.746093.3125-1.378906-.023437-.398437-.199219-1.195313-.808594-1.769531-1.355469l-1.042969-1.011719v.746094c.023437.414062.148437 1.992188.296875 3.511719.3125 2.875.226562 3.5625-.496094 3.933593-.574218.324219-.796875.3125-1.121094-.085937Zm10.691407-.710937c-.289063-.285157-.152344-1.953126.285156-3.535157.238281-.855469.433594-1.816406.433594-2.101562 0-.3125.089843-.613281.226562-.6875.3125-.199219 2.265625-6.472657 2.238281-7.242188-.023437-.722656.882813-2.191406 1.53125-2.550781.660157-.351562 1.109376.132812.933594 1.03125-.113281.621094.085938 1.121094 1.292969 3.324219.761719 1.417969 1.882813 3.535156 2.453125 4.667969.574219 1.144531 1.234375 2.351562 1.457031 2.6875.234375.300781.410157.808593.410157 1.097656 0 .632812-.835938 1.492187-1.46875 1.492187-.484376 0-1.355469-1.183593-2.265626-3.097656l-.496093-1.011719-.910157.261719c-.472656.152344-1.417968.351563-2.054687.4375-1.339844.1875-1.605469.511719-1.714844 2.140625-.085937 1.46875-.460937 2.515625-1.035156 2.910156-.507813.351563-1.070313.425782-1.316406.175782Zm5.859375-7.765626c.199218-.175781-.859375-2.75-1.230469-2.964843-.148437-.085938-1.046875 2.539062-1.046875 3.085937 0 .3125 1.929688.199219 2.277344-.121094Zm7.730468 5.152344c-.0625-.1875-.125-1.296875-.125-2.453125 0-2.089843-.398437-9.359375-.546874-9.855469-.074219-.191406-.5625-.140624-1.78125.171876-2.003907.523437-2.636719.484374-2.550782-.136719.113282-.722657.984375-1.320313 2.589844-1.753907.917969-.238281 1.804688-.636718 2.265625-1.035156.65625-.574218.769531-.609375 1.09375-.308594.308594.285157.546875.257813 2.113281-.101562 2.105469-.511719 3.460938-.535156 3.835938-.097656.136718.183594.199218.398437.136718.507812-.226562.375-1.542968.886719-3.511718 1.382813l-1.953125.484375.148437 1.78125c.660156 8.042968.597656 10.257812-.308594 11.226562-.585937.609375-1.207031.722656-1.40625.1875Zm9.53125-2.527344c0-.234374-.148437-.644531-.3125-.921874-.382812-.558594-.71875-3.199219-.894531-6.957032-.0625-1.519531-.175781-3.472656-.222656-4.367187-.0625-1.472657-.011719-1.667969.445313-2.132813 1.070312-1.082031 1.40625-.546875 1.644531 2.816406.113281 1.46875.324219 4.105469.460937 5.8125.222656 2.789063.222656 3.273438-.136718 4.542969-.375 1.394531-.984376 2.140625-.984376 1.207031Zm6.65625-1.417968c-3.867187-1.917969-5.3125-7.691406-3.121093-12.386719 1.492187-3.210937 3.296875-3.910156 6-2.328125 1.179687.671875 2.847656 2.527344 3.53125 3.859375 1.894531 3.734375.585937 8.589844-2.835938 10.542969-1.269531.746094-2.476562.835937-3.574219.3125Zm3.75-2.503906c1.578126-1.40625 1.890626-4.46875.707032-6.921876-1.007813-2.039062-4.21875-4.617187-5.277344-4.21875-.460938.175782-1.242188 2.527344-1.378906 4.109376-.238282 2.8125 1.03125 5.824218 2.984375 7.046874 1.269531.820313 2.003906.820313 2.964843-.015624Zm13.921876-.945313c-1.691407-1.804687-2.871094-3.410156-4.105469-5.539063-.609375-1.070312-1.121094-2.039062-1.121094-2.128906 0-.085937-.109375-.175781-.234375-.175781-.3125 0-.085938 4.746094.285156 6.523437.210938 1.035157.1875 1.210938-.160156 1.609376-.238281.257812-.609375.433593-.859375.382812-.847656-.125-1.046875-1.070312-1.246094-6.074219-.085937-2.613281-.246093-5.402343-.335937-6.234375-.125-1.257812-.085938-1.542968.25-1.917968.585937-.660157 1.121094-.523438 1.582031.375 2.738281 5.25 7.179687 11.710937 7.675781 11.203124.089844-.113281.175782-1.84375.164063-3.847656 0-2.902344-.113281-4.085937-.460938-5.640625-1.28125-5.476562-1.257812-5.375-.746093-5.914062.371093-.347657.546874-.394531.84375-.210938.972656.585938 2.003906 4.058594 2.492187 8.390625.257813 2.503906 0 6.324219-.574219 7.992188-.347656.984375-1.582031 2.367187-2.128906 2.367187-.136719 0-.722656-.523437-1.320312-1.160156Zm-42.734376-24.449219.597657-.132812-.125-5.203125c-.074219-2.851563-.136719-5.179688-.160157-5.207031 0-.023438-.4375-.085938-.945312-.171876l-.945312-.136718v11.25l.507812-.132813c.261719-.089843.746094-.199219 1.070312-.265625Zm6.0625-4.042968c.074219-1.382813.109376-3.199219.136719-4.058594l.023438-1.542969-2.300781-.347656c-1.28125-.199219-2.328126-.347657-2.351563-.324219-.027344.023438-.089844 2.265625-.164063 4.980469l-.097656 4.964843 2.324219-.574218 2.339844-.582032Zm2.527344 1.777343.59375-.234375v-3.300781c0-2.449219-.0625-3.335937-.261718-3.371094-1.453126-.472656-1.429688-.488281-1.578126 1.355469-.085937.921875-.25 2.28125-.347656 3.011719-.113281.722656-.25 1.683593-.3125 2.167969l-.113281.835937.699219-.101563c.398437-.074218.96875-.222656 1.320312-.363281ZM59.238281 93.875c0-2.910156 1.296875-18.769531 2.078125-25.582031 1.082032-9.183594 1.644532-14.140625 1.980469-17.261719.199219-1.757812.398437-3.511719.484375-3.933594.113281-.636718.0625-.722656-.285156-.613281-.25.066406-.6875.175781-1.007813.238281-.574219.136719-.625.222656-.625 1.230469 0 .996094-.285156 4.683594-.871093 11.09375-.109376 1.320313-.371094 4.828125-.546876 7.792969-.597656 9.136718-1.320312 15.074218-2.863281 22.953125-.296875 1.570312-.546875 3.296875-.546875 3.847656v.980469l1.097656-.0625c1.03125-.085938 1.105469-.125 1.105469-.683594Zm72.453125-34.578125c0-2.605469-.085937-4.769531-.171875-4.84375-.113281-.0625-1.605469-.125-3.359375-.148437l-3.164062-.027344-.0625 3.847656-.046875 3.847656 2.125.660156c2.902343.894532 4.308593 1.316407 4.53125 1.328126.085937.027343.148437-2.078126.148437-4.664063Zm-7.949218-1.410156-.0625-3.667969h-2.851563l-.074219 2.847656c-.011718 1.570313 0 3.0625.050782 3.324219.085937.324219.433593.546875 1.269531.785156.632812.199219 1.292969.359375 1.453125.371094.214844.027344.261718-.78125.214844-3.660156Zm3.644531-52.605469c.0625-.605469.164062-1.714844.199219-2.414062l.085937-1.253907h-6.957031v2.265625c0 1.253906.0625 2.351563.152344 2.414063.0625.085937 1.554687.148437 3.273437.148437h3.132813Zm2.179687-1.09375c-.0625-1.230469-.199218-2.328125-.289062-2.441406-.460938-.484375-.660156.238281-.660156 2.417968 0 2.277344 0 2.277344.550781 2.277344h.519531Zm2.152344 1.753906c0-.261718.023438-1.316406.035156-2.351562l.050782-1.867188-.859376-.0625c-.796874-.0625-.832031-.046875-.695312.4375.0625.285156.125 1.355469.125 2.414063v1.929687h.660156c.519532 0 .65625-.085937.683594-.5Zm-12.667969 358.21875c-1.058593-1.097656-3.910156-2.902344-8.476562-5.316406-1.828125-.972656-3.273438-1.867188-3.234375-1.980469.046875-.125.535156-.222656 1.054687-.199219 1.433594.027344 7.355469 3.074219 8.875 4.570313 1.09375 1.082031 2.8125 3.1875 2.960938 3.648437.175781.484376-.371094.171876-1.179688-.722656Zm24.054688-1.78125c0-.546875.621093-.859375 1.429687-.695312.898438.171875.996094.496094.199219.78125-.808594.3125-1.628906.261718-1.628906-.085938ZM123.042969 351c-.085938-1.730469-.199219-8.5-.261719-15.046875-.085938-8.976563-.050781-11.925781.125-12.027344.164062-.097656.335938-.046875.421875.089844.398437.609375.699219 5.4375.722656 11.003906 0 6.535157-.433593 18.660157-.695312 18.945313-.101563.085937-.222657-1.234375-.3125-2.964844Zm6.347656-.71875c.148437-2.925781.261719-3.472656.609375-3.335938.484375.148438.050781 4.976563-.496094 5.5-.199218.1875-.226562-.347656-.113281-2.164062Zm-.449219-78.011719c-.085937-4.085937-.085937-11.777343.027344-17.09375.109375-5.3125.171875-11.664062.136719-14.113281-.0625-3.761719-.027344-4.445312.234375-4.445312.511718 0 .574218.597656.859375 6.695312.199219 4.484375.175781 8.179688-.050781 17.128906-.433594 17.429688-.519532 19.070313-.78125 19.160156-.199219.0625-.3125-1.980468-.425782-7.332031Zm142.507813-125.703125c-2.898438-.199218-4.679688-.496094-6.933594-1.230468-2-.636719-2.375-.933594-1.742187-1.507813.449218-.398437.535156-.398437 3.25.289063 5.277343 1.304687 10.304687 1.417968 17.0625.371093 6.148437-.96875 10.390624-2.027343 14.445312-3.632812 2.15625-.835938 2.488281-.808594 1.78125.183593-1.09375 1.582032-8.1875 3.734376-16.328125 4.957032-4.15625.621094-8.0625.820312-11.535156.570312Zm7.441406-15.410156c-.660156-.308594-.957031-1.105469-.957031-2.464844 0-3.90625 3.445312-8.390625 5.636718-7.328125 1.007813.472657 1.429688 1.554688 1.292969 3.394531-.171875 2.703126-1.691406 5.203126-3.730469 6.199219-1.007812.5-1.53125.546875-2.242187.199219Zm-9.980469-2.140625c-.558594-.546875-.648437-.808594-.648437-1.84375 0-1.617187.6875-3.734375 1.765625-5.375 1.410156-2.191406 3.003906-2.8125 4.347656-1.695313.945312.796876 1.207031 1.644532 1.09375 3.363282-.175781 2.289062-1.378906 4.257812-3.449219 5.574218-1.316406.8125-2.261719.8125-3.109375-.023437Zm55.042969-4.382813c-.335937-.53125.113281-1.117187 1.035156-1.367187.496094-.125 1.664063-.574219 2.585938-.984375.921875-.421875 2.003906-.820312 2.378906-.882812.371094-.085938.746094-.234376.808594-.324219.148437-.25.746093-.261719.746093-.023438 0 .113281-.660156.660157-1.46875 1.207031-2.515624 1.71875-5.738281 2.960938-6.085937 2.375ZM291 121.285156c-1.804688-1.777344-3.757812-3-5.5625-3.484375-.945312-.25-.957031-.261719-.574219-.710937.335938-.347656.574219-.410156 1.296875-.296875 1.230469.199219 3.320313 1.21875 4.640625 2.277343 1.355469 1.082032 2.675781 3.273438 2.238281 3.695313-.222656.214844-.65625-.085937-2.039062-1.480469Zm25.027344-11.175781c-.375-.613281 1.144531-1.46875 3.992187-2.328125 1.808594-.523438 2.105469-.550781 4.457031-.386719 1.382813.101563 2.175782.210938 1.753907.234375-2.238281.199219-3.90625.597656-6.695313 1.609375-3.371094 1.207031-3.308594 1.179688-3.507812.871094Zm-128.804688-4.035156c-.152344-.335938-.410156-.535157-.785156-.535157-1.234375 0-2.835938-2.441406-4.480469-6.78125-.398437-1.121093-.820312-2.042968-.882812-2.042968-.261719 0-.460938 3.535156-.3125 5.179687.164062 1.542969.140625 1.691407-.347657 2.199219-.722656.773438-1.207031.6875-1.53125-.285156-.597656-1.828125.324219-9.507813 1.292969-10.828125.8125-1.070313 1.246094-.859375 2.15625 1.03125.433594.945312.984375 2.191406 1.21875 2.8125.683594 1.757812 2.316407 4.769531 3.011719 5.601562l.621094.773438.175781-.996094c.371094-2.277344 1.667969-7.132813 2.015625-7.503906.199219-.226563.570312-.398438.808594-.363281.683594.097656.710937 1.171874.050781 4.007812-.3125 1.332031-.710937 3.425781-.882813 4.65625-.152343 1.207031-.464843 2.527344-.660156 2.902344-.4375.84375-1.132812.917968-1.46875.171875Zm-17.609375-3.734375c-2.191406-.621094-3.113281-1.828125-3.074219-4.070313.050782-1.644531.722657-4.058593 1.542969-5.488281 1.269531-2.191406 3.074219-3.535156 3.597657-2.703125.222656.347656.398437.375 1.269531.199219 1.429687-.308594 2.460937.175781 3.296875 1.519531 1.230468 1.929687 1.46875 5.578125.496094 7.46875-1.292969 2.539063-4.34375 3.859375-7.128907 3.074219Zm4.480469-2.4375c.855469-.464844 1.144531-1.371094 1.03125-3.449219-.050781-1.371094-.199219-2.09375-.597656-2.875-.585938-1.207031-1.617188-1.980469-2.390625-1.804687-.371094.085937-.519531 0-.683594-.375l-.171875-.484376-.574219.570313c-1.554687 1.554687-2.625 5.664063-1.839843 7.183594.792968 1.554687 3.40625 2.15625 5.226562 1.234375Zm-12.160156.058594c-.359375-.582032-.1875-4.628907.386718-8.511719.449219-3.125.683594-3.894531 1.34375-4.332031.511719-.3125.597657-.324219.894532-.027344.289062.3125.289062.636718-.011719 3.164062-.199219 1.566406-.449219 4.132813-.558594 5.714844-.1875 2.960938-.460937 3.78125-1.359375 4.28125-.308594.148438-.457031.109375-.695312-.289062Zm-9.359375-3.222657c-.308594-.546875-.046875-2.039062 1.058593-6.039062.472657-1.777344.847657-3.347657.785157-3.433594-.039063-.085937-.773438-.324219-1.582031-.546875-2.464844-.660156-2.726563-.921875-1.71875-1.867188.488281-.4375.6875-.484374 1.804687-.375 1.519531.164063 6.808594 1.582032 7.246094 1.957032.507812.421875.246093 1.34375-.460938 1.691406-.609375.285156-1.78125.175781-3-.3125-.285156-.097656-.484375.421875-1.144531 3.011719-.460938 1.742187-.882812 3.625-.972656 4.246093-.210938 1.644532-1.464844 2.699219-2.015625 1.667969Zm-4.367188-.511719c-.160156-.148437-.261719-.695312-.285156-1.269531 0-.546875-.085937-1.492187-.148437-2.089843l-.164063-1.09375-1.207031-.136719c-.660156-.089844-1.617188-.214844-2.128906-.300781l-.894532-.164063-.574218 1.109375c-.535157 1.035156-.90625 1.359375-1.578126 1.359375-.625 0-.285156-1.257813 1.007813-3.847656 1.40625-2.789063 3.769531-6.472657 4.679687-7.308594.296876-.285156.71875-.484375.957032-.445313.335937.074219.511718.746094 1.207031 4.902344.460937 2.652344.859375 5.640625.882813 6.648438.0625 1.78125.039062 1.855468-.546876 2.378906-.707031.597656-.832031.632812-1.207031.257812Zm-1.007812-7.15625c-.050781-.199218-.222657-1.09375-.359375-1.980468-.152344-.855469-.300782-1.578125-.351563-1.578125-.148437 0-2.0625 3.386719-1.953125 3.472656.164063.148437 1.496094.4375 2.152344.460937.488281.023438.597656-.0625.511719-.375Zm-9.78125 4.507813c-.386719-.398437-.261719-2.613281.308593-5.476563.3125-1.496093.550782-2.714843.550782-2.765624 0-.039063-.660156.523437-1.46875 1.269531-2.089844 1.917969-2.390625 2.09375-3.011719 1.804687-.699219-.308594-1.46875-1.355468-2.390625-3.222656-.683594-1.367188-.785156-1.46875-.894531-.996094-.285157 1.230469-.796875 4.792969-.796875 5.652344 0 1.207031-.3125 1.929688-.984375 2.390625-.460938.308594-.621094.308594-.90625.058594-.300781-.234375-.324219-.558594-.214844-1.902344.175781-1.890625 1.582031-9.933594 1.90625-10.980469.308594-.917968 1.167969-1.542968 1.628906-1.144531.175781.148437.324219.410156.324219.574219 0 .484375 1.828125 4.964844 2.488281 6.085937.324219.558594.722657 1.019531.871094 1.019531.25 0 2.027344-1.703124 4.703125-4.542968.871094-.921875 1.496094-.894532 1.46875.050781 0 .375-.320312 2.328125-.71875 4.394531-.398438 2.066406-.773438 4.40625-.835938 5.226563-.136718 1.582031-.570312 2.414062-1.367187 2.628906-.238281.046875-.523437 0-.660156-.125Zm-15.257813-3.238281c-1.292968-.832032-1.878906-1.09375-2.390625-1.042969-.546875.058594-.683593-.027344-.808593-.511719-.085938-.324218-.371094-.785156-.644532-1.058594-.613281-.609374-.585937-.957031.183594-1.816406.472656-.546875.671875-1.097656.898438-2.378906.136718-.898438.433593-2.5.683593-3.546875.210938-1.058594.410157-1.980469.410157-2.054687 0-.035157-.398438-.375-.871094-.671876-.996094-.660156-1.121094-1.207031-.398438-1.71875.398438-.285156.546875-.285156 1.234375-.023437.410157.1875 1.03125.335937 1.378907.335937.398437 0 .660156.125.722656.375.0625.222657.574218.683594 1.09375 1.003907 3.984375 2.503906 3.585937 5.867187-.945313 8.042969-1.007812.5-1.554687.898437-1.554687 1.144531 0 .214843.597656.722656 1.492187 1.246093 3.125 1.867188 3.757813 3.160157 1.804688 3.671876-.445313.113281-.945313-.113282-2.289063-.996094Zm1.195313-7.21875c1.121093-.660156 1.332031-1.34375.785156-2.414063-.398437-.773437-1.632813-1.695312-1.894531-1.433593-.148438.175781-.871094 3.796874-.871094 4.445312 0 .386719.699219.175781 1.980469-.597656Zm-14.386719 4.65625c-1.34375-.398438-2.390625-1.183594-2.898438-2.105469-1.097656-2.066406.398438-7.71875 2.699219-10.257813.769531-.832031 1.40625-1.144531 1.40625-.65625 0 .121094.398438-.027343.871094-.339843 1.742187-1.09375 3.148437-.921875 4.46875.539062 1.316406 1.441407 1.777344 3.023438 1.789063 5.949219 0 2.25-.058594 2.648438-.570313 3.734375-.671875 1.441406-1.730469 2.539063-2.9375 3.085937-1.070313.507813-3.296875.535157-4.828125.050782Zm5.4375-2.480469c.859375-1.019531 1.171875-2.773437.859375-4.851563-.574219-3.910156-2.5625-5.765624-4.976563-4.59375-.859374.410157-1.007812.609376-1.496093 1.929688-1.230469 3.359375-1.367188 5.949219-.335938 6.984375.773438.796875 2.03125 1.167969 3.847657 1.179687 1.46875 0 1.605468-.035156 2.101562-.648437Zm-20.195312.300781c-.3125-.484375-.375-1.007812-.351563-2.699218.039063-2.082032.699219-8.304688 1.183594-10.929688.261719-1.496094.910156-2.328125 1.78125-2.328125.632812 0 7.726562 1.902344 8.957031 2.386719 1.035156.414062 1.269531.984375.773438 1.757812-.3125.484375-.484376.546875-1.28125.484375-.5-.0625-2.476563-.570312-4.40625-1.144531-1.917969-.574219-3.511719-.984375-3.585938-.921875-.085938.089844-.484375 2.589844-.496094 3.136719 0 .136718.847656.511718 1.929688.835937 2.960937.882813 3.757812 1.207031 3.992187 1.667969.140625.222656.398438.421875.574219.421875.683594 0 .125.546875-.710938.699219-1.503906.308594-2.335937.222656-4.191406-.4375l-1.816406-.632813-.113281.683594c-.0625.371094-.210938 1.953125-.324219 3.507813-.113281 1.53125-.359375 3.078124-.511719 3.386718-.371093.808594-.917969.847656-1.402343.125Zm-5.925782-1.777344c-.574218-.066406-.859375-.324218-1.492187-1.296874-1.085938-1.617188-2.464844-4.605469-3.210938-6.894532-.671875-2.132812-.671875-2.132812-1.070312 1.601563-.261719 2.554687-.710938 3.800781-1.40625 4.023437-.796875.261719-1.082031-.460937-.921875-2.554687.175781-2.871094.957031-10.179688 1.144531-10.664063.460937-1.296875 1.53125-1.570312 2.128906-.550781.199219.351563.894531 2.242187 1.554688 4.210937 1.234375 3.757813 3.160156 8.238282 3.421875 7.953126.175781-.199219.910156-3.773438 1.457031-7.207032.410156-2.539062.757813-3.460937 1.507813-3.796875.855468-.398437 1.253906.171875 1.082031 1.554688-.335938 2.664062-1.207031 7.457031-1.71875 9.273437-1.070313 3.933594-1.292969 4.542969-1.617188 4.457032-.085937 0-.460937-.0625-.859375-.109376Zm-13.675781-3.140624c-.363281-1.34375.695313-13.617188 1.304687-15.234376.113282-.3125.472657-.734374.796876-.933593.546874-.375.597656-.375.882812 0 .152344.222656.238281.660156.1875.996093-.0625.308594-.296875 3.382813-.546875 6.832032-.546875 7.554687-.585937 7.992187-1.132813 8.675781-.660156.835937-1.207031.699219-1.492187-.335937Zm-26.644531-43.21875c-.410156-.710938-.386719-1.34375.421875-14.214844.148437-2.363282.460937-3.285156 1.230469-3.535156 1.121093-.347657 1.269531 1.320312.808593 9.023437-.421875 7.144531-.507812 7.816406-1.179687 8.390625-.574219.511719-1.09375.636719-1.28125.335938Zm7.03125.039062c-.238282-.238281-.175782-2.066406.171875-5.464844.175781-1.695312.335937-4.109375.351562-5.378906 0-1.28125.085938-3.074219.171875-4.046875.136719-1.492187.222656-1.777344.746094-2.238281.335938-.285156.734375-.460938.886719-.398438.394531.171875 1.316406 2.113282 3.160156 6.570313 1.578125 3.824219 2.921875 6.546875 3.359375 6.8125.136719.085937.222656-1.957031.222656-5.714844 0-6.460937.125-7.207031 1.207032-7.496094.398437-.085937.660156-.035156.761718.140625.621094 1.007813.535156 13.179688-.101562 14.972656-.375 1.035157-1.367188 1.941407-2.152344 1.941407-1.007812 0-3.410156-3.910157-5.226562-8.574219l-.746094-1.867188-.0625 1.21875c-.027344.648438-.199219 2.824219-.375 4.828126-.273438 2.816406-.421875 3.746093-.746094 4.171874-.398438.523438-1.320312.832032-1.628906.523438Zm16.078125-1.667969c-.199219-.351562-.222657-2.128906-.101563-6.785156l.164063-6.324219-1.058594-.0625c-1.207031-.074218-1.441406-.472656-.808594-1.230468.523438-.636719 1.902344-.910157 5.710938-1.058594 3.3125-.152344 3.796875-.039063 3.796875.808594 0 .796874-1.007813 1.171874-3.335938 1.257812l-2.152344.085938v2.640624c0 2.390626.039063 2.613282.386719 2.5.996094-.308593 2.425781-.570312 3.148438-.570312 1.070312 0 2.527343.609375 2.214843.917969-.347656.351562-1.667968.8125-3.621093 1.269531-.921875.226562-1.84375.464844-2.015625.539062-.273438.085938-.335938.632813-.335938 2.722657 0 2.328125-.039062 2.679687-.460937 3.199219-.546875.710937-1.183594.75-1.53125.089843Zm78.054687-.089843c-.335937-.460938-.347656-.945313-.226562-3.332032.078125-1.546875.425781-4.507812.75-6.613281.570312-3.609375.65625-3.871094 1.230468-4.28125.597657-.460937.609376-.460937.921876-.050781.398437.574218.398437.859375-.148438 4.570312-.25 1.742188-.488281 4.617188-.539062 6.398438-.058594 2.066406-.171876 3.371094-.347657 3.570312-.410156.511719-1.242187.375-1.640625-.261718Zm32.804688-.632813c-2.441406-1.917969-4.132813-4.59375-5.226563-8.277344-.347656-1.121093-.683593-1.894531-.746093-1.71875-.324219.921875-.835938 4.332031-.949219 6.484375-.121094 2.539063-.371094 3.285156-1.230469 3.597656-.347656.136719-.609375.085938-.898438-.171874-.371093-.3125-.394531-.574219-.257812-2.554688.234375-4.105469 1.703125-9.96875 2.726562-11.003906.457032-.433594.695313-.523438 1.214844-.382813.375.058594.75.183594.859375.273438.089844.097656.425781 1.03125.722657 2.140625 1.121093 3.820312 3.300781 7.640625 5.226562 9.148437.449219.335938.886719.546875.996094.484375.546875-.324218.945312-3.507812.984375-7.53125l.023437-4.105468.597656-.0625c1.59375-.199219 2.015626 1.042968 1.867188 5.375-.160156 4.484374-1.257812 7.84375-2.898438 8.851562-1.058593.660156-1.628906.546875-3.011718-.546875ZM130.460938 33.9375c-.871094-2.824219-.808594-2.738281-1.792969-2.300781-.570313.261719-1.457031.371093-3.097657.371093l-2.289062.027344-.324219.945313c-.535156 1.582031-2.027343 1.890625-2.027343.410156 0-.980469.535156-2.453125 2.289062-6.359375 1.816406-4.097656 2.648438-5.714844 3.097656-6.175781.460938-.460938 1.417969-.460938 1.417969-.023438 0 .171875.648437 1.628907 1.433594 3.1875 2.125 4.253907 3.84375 8.796875 3.84375 10.207031 0 .820313-.769531 1.652344-1.492188 1.652344-.398437 0-.546875-.285156-1.058593-1.941406Zm-1.867188-5.152344c-.234375-.621094-.808594-1.929687-1.246094-2.875l-.820312-1.742187-1.09375 2.488281c-.609375 1.355469-1.121094 2.539062-1.15625 2.625-.027344.089844.957031.25 2.1875.375 1.257812.113281 2.328125.222656 2.414062.25.089844.023438-.035156-.484375-.285156-1.121094Zm-45.871094 6.363282c-1.308594-.898438-1.644531-1.535157-1.707031-3.511719-.171875-3.949219 1.78125-8.539063 4.371094-10.296875 1.207031-.820313 2.761719-1.144532 3.882812-.855469 1.117188.308594 2.488281 1.667969 3.273438 3.269531.507812 1.046875.597656 1.535156.621093 3.113282 0 1.667968-.101562 2.042968-.710937 3.363281-.917969 1.914062-2.613281 3.582031-4.703125 4.640625-1.964844.984375-3.832031 1.097656-5.027344.277344Zm4.730469-2.332032c2.238281-1.007812 3.269531-2.585937 3.246094-4.914062-.050781-2.566406-1.382813-4.632813-3.386719-5.242188-1.09375-.335937-1.378906-.1875-2.351562 1.246094-1.042969 1.554688-1.46875 3.136719-1.46875 5.738281 0 1.929688.0625 2.300781.4375 2.714844.859374.945313 2.089843 1.121094 3.523437.457031Zm19.050781 2.492188c-.125-.351563-.023437-3.5.347656-10.371094.136719-2.300781.289063-3.683594.488282-3.90625.96875-1.171875 1.976562-.796875 3.667968 1.40625.722657.921875 1.757813 2.101562 2.277344 2.636719l.972656.949219 1.183594-1.980469c1.453125-2.488281 2.402344-3.535157 3.148438-3.535157.347656 0 .671875.175782.808594.410157.546874 1.035156.085937 11.265625-.597657 13.109375-.523437 1.40625-.957031 1.480468-1.417969.199218-.335937-.898437-.363281-1.359374-.164062-3.910156.136719-1.59375.199219-3.625.164062-4.519531l-.078124-1.605469-1.179688 2.191406c-.636719 1.230469-1.40625 2.441407-1.691406 2.714844-.574219.546875-1.183594.433594-1.183594-.226562 0-.246094-.421875-.769532-.945312-1.207032-.523438-.433593-1.445313-1.378906-2.042969-2.128906l-1.070313-1.367187-.136718 1.195312c-.085938.660157-.222657 2.988281-.308594 5.203125-.152344 3.460938-.238282 4.105469-.585938 4.566406-.484375.585938-1.433594.699219-1.65625.175782Zm30.566406.125c-.0625-.101563-.027343-1.820313.109376-3.773438.113281-1.980468.226562-4.703125.226562-6.0625v-2.464844h-2.292969c-2.414062 0-2.675781-.097656-2.449219-.957031.199219-.835937 1.355469-1.234375 3.507813-1.234375 1.121094 0 2.066406-.109375 2.328125-.257812.347656-.226563.523438-.226563.882812 0 .273438.171875 1.46875.257812 3.597657.257812 1.992187 0 3.222656.089844 3.308593.238282.089844.113281.089844.460937.027344.734374-.222656.835938-1.382812 1.21875-4.144531 1.382813l-2.515625.125-.125 4.640625c-.148438 5.003906-.371094 6.335938-1.082031 7.085938-.472657.53125-1.132813.65625-1.378907.285156Zm23.78125-.101563c-1.355468-.449219-2.851562-1.917969-3.308593-3.296875-.910157-2.613281.148437-7.046875 2.0625-8.789062.699219-.636719.933593-.746094 1.296875-.546875.324218.171875.582031.109375 1.207031-.324219 2.015625-1.371094 5.699219-.910156 7.363281.921875 1.109375 1.15625 1.398438 2.015625 1.398438 3.90625 0 2.242187-.660156 3.746094-2.441406 5.613281-2.238282 2.378906-5.078126 3.300782-7.578126 2.515625Zm4.851563-2.515625c3.074219-1.578125 3.820313-5.488281 1.496094-7.878906-.898438-.917969-1.917969-1.183594-4.570313-1.117188l-2.175781.058594-.460937 1.210938c-.496094 1.394531-.757813 3.734375-.546876 4.941406.171876.945312 1.46875 2.488281 2.4375 2.898438.984376.449218 2.851563.375 3.820313-.113282Zm-70.261719 1.695313c-.148437-.285157-.199218-.945313-.113281-1.78125.085937-.84375.050781-1.417969-.109375-1.617188-.199219-.222656-.175781-.484375.085938-1.121093.285156-.710938 1.03125-6.210938 1.03125-7.667969 0-.410157-.125-.484375-1.03125-.546875-1.21875-.089844-1.46875-.523438-.699219-1.292969.414062-.425781.636719-.464844 2.414062-.375 1.667969.085937 2.15625.199219 3.425781.859375 1.144532.570312 1.652344.984375 2.214844 1.816406 1.367188 2.039063.796875 3.957032-1.730468 5.773438-1.035157.75-1.097657.8125-.683594 1.035156.246094.136719 1.253906.921875 2.226562 1.78125 2.476563 2.128906 2.886719 3.398438 1.183594 3.398438-.996094 0-1.433594-.273438-3.421875-2.128907-.824219-.757812-1.632813-1.382812-1.804687-1.382812-.175782 0-.398438-.023438-.488282-.0625-.109375-.023438-.234375.609375-.308594 1.433593-.125 1.644532-.5625 2.363282-1.421874 2.363282-.308594 0-.621094-.199219-.769532-.484375Zm5.175782-7.65625c.859374-.769531.972656-1.394531.449218-2.425781-.3125-.5625-1.941406-1.957032-2.316406-1.957032-.121094 0-.660156 4.285156-.660156 5.453125v.484375l.886718-.433594c.484376-.25 1.207032-.746093 1.640626-1.121093Zm0 0"/>
  </g>
</svg>
