<svg xmlns="http://www.w3.org/2000/svg" version="1.0" viewBox="0 0 375 374.999991">
  <defs>
    <clipPath id="a">
      <path d="M46.09375 0h282.882812v372.316406H46.09375Zm0 0"/>
    </clipPath>
    <clipPath id="b">
      <path d="M20 369.769531h132.457031V373H20Zm0 0"/>
    </clipPath>
    <clipPath id="c">
      <path d="M144 369h206v6H144Zm0 0"/>
    </clipPath>
    <clipPath id="d">
      <path d="m144.476562 367.546875 205.335938 3.914063-.101562 5.296874L144.375 372.84375Zm0 0"/>
    </clipPath>
    <clipPath id="e">
      <path d="m144.476562 367.546875 205.335938 3.914063-.101562 5.296874L144.375 372.84375Zm0 0"/>
    </clipPath>
  </defs>
  <g clip-path="url(#a)">
    <path d="M223.8125 371.886719c-4.097656-.738281-5.414062-2.144531-4.097656-4.375 1.910156-3.234375 10.425781-5.121094 19.929687-4.417969 2.25.167969 4.21875.328125 4.375.363281.390625.074219 3.367188-16.109375 8.257813-44.90625 3.011718-17.753906 8.101562-45.695312 12.09375-66.410156 1.367187-7.113281 3.617187-19.671875 5-27.914063l2.511718-14.984374-.765624-4.558594c-1.855469-11.066406-3.765626-33.265625-4.136719-48.046875-.191407-7.628907.222656-29.765625.734375-39.230469.164062-2.992188.332031-6.222656.371094-7.183594l.078124-1.753906-1.46875-.40625c-3.429687-.953125-38.535156-12.40625-48.035156-15.671875C206.257812 88.125 203.9375 87.1875 202.539062 85.863281c-1.546874-1.472656-7.207031-8.210937-11.640624-13.859375-3.710938-4.734375-15.601563-19.480468-23.773438-29.484375-3.082031-3.773437-5.761719-7.0625-5.953125-7.3125-.308594-.386719-.5625-.261719-1.902344.910157-1.546875 1.351562-5.292969 3.417968-6.203125 3.417968-.5 0-.675781.492188-1.507812 4.113282-.714844 3.117187-.992188 5.273437-1.90625 14.691406-1.515625 15.589844-1.550782 16.761718-1.417969 44.667968.132813 27.285157.375 34.847657 1.820313 57.007813 1.8125 27.789063 2.335937 37.597656 2.804687 52.601563.308594 9.90625.425781 12.175781 1.453125 27.769531.308594 4.6875.644531 13.148437.742188 18.804687.105468 5.65625.4375 13.855469.742187 18.21875.304687 4.363282.636719 10.378906.730469 13.371094.09375 2.988281.378906 10.789062.625 17.339844.601562 15.570312.4375 39.6875-.292969 43.488281-.976563 5.082031-2.824219 9.953125-4.71875 12.4375-.476563.621094-1.503906 1.390625-2.472656 1.855469l-1.660157.785156-23.648437-.203125c-13.003906-.109375-31.84375-.398437-41.863281-.644531-10.015625-.25-18.960938-.363282-19.875-.261719-1.269532.140625-1.921875.066406-2.730469-.316406-2.453125-1.164063-6.105469-6.519531-6.511719-9.539063-.09375-.730468-.027344-1.886718.164063-2.574218l.332031-1.246094h12.777344l.351562-2.421875c.195313-1.335938.75-4.671875 1.242188-7.421875 3.394531-19.097656 4.996094-37.917969 4.996094-58.601563 0-17.457031-.457032-28.53125-2.222657-53.796875-1.703125-24.328125-2.285156-34.949218-3.125-57.007812-.238281-6.199219-.378906-20.679688-.378906-39.082032 0-27.015624.046875-30.015624.652344-39.378906.621093-9.632812 1.019531-17.476562 1.402343-27.621094.375-9.972656 1.039063-16.011718 2.378907-21.746093.960937-4.125 2.4375-8.523438 2.859375-8.527344h62.152344l.554687-1.253906c1.09375-2.472657 3.78125-4.308594 7.835937-5.355469 2.351563-.609375 8.570313-.601562 11.53125 0 3.464844.71875 4.34375 1.167969 5.566407 2.875 1.0625 1.480469 6.179687 7.894531 19.019531 23.84375 3.507812 4.363281 8.386719 10.515625 10.832031 13.667969 9.078125 11.691406 10.921875 13.84375 12.554688 14.675781 2.226562 1.136719 17.078125 6.320312 39.21875 13.683594 12.761719 4.246094 23.425781 7.8125 23.699219 7.921875.5625.230469.59375.082031 1.144531-6.164063.183593-2.097656.503906-4.875.710937-6.171875.207032-1.289062.324219-2.40625.261719-2.476562-.066406-.066407-1.644531-.226563-3.511719-.351563-4.378906-.292968-7.496094-.886718-11.199218-2.136718-7.796876-2.625-16.164063-7.964844-20.78125-13.265626-4.128907-4.730468-6.253907-8.835937-7.730469-14.917968-.816407-3.355469-.722657-14.203125.164062-18.636719 2.429688-12.167969 9.566407-23.394531 17.976563-28.277344 2.097656-1.214843 3.546875-1.804687 10.210937-4.132812 3.171875-1.113281 4.394531-1.660157 4.171875-1.886719-.195312-.191406-2.054687-.308594-4.925781-.308594-4.335937 0-4.808594.058594-7.949219.960938-1.835937.527344-4.347656 1.4375-5.582031 2.011718-4.261719 2-4.167969 1.972657-3.898437 1.214844.511718-1.433594 4.808593-3.578125 9.816406-4.886718 5.203125-1.363282 11.453125-1.398438 14.429687-.082032 1.191407.527344 1.4375.542969 3.160157.171875 1.023437-.21875 2.949218-.40625 4.269531-.40625 1.324219 0 2.480469-.132812 2.570312-.277343.089844-.144532-.300781-.675782-.871093-1.175782-2.832032-2.480468-7.261719-3.558594-14.671876-3.554687-4.070312 0-5.945312.257812-10.976562 1.5-1.996094.496093-3.707031.816406-3.800781.714843-.566407-.5625 2.914062-2.15625 6.917969-3.175781C249.9375.0742188 250.984375 0 256.414062.015625c4.59375 0 6.714844.136719 8.320313.496094 4.023437.902343 7.195313 2.792969 8.292969 4.945312.320312.628907.8125 1.15625 1.089844 1.175781 4.960937.320313 9.375 1.628907 14.582031 4.324219 10.949219 5.664063 18.347656 13.980469 22.027343 24.757813 1.773438 5.195312 2.304688 8.296875 2.3125 13.492187 0 6.859375-.902343 10.945313-3.78125 17.027344-3.175781 6.703125-8.300781 13.058594-13.609374 16.886719-6.328126 4.550781-16.203126 8.109375-22.539063 8.109375-1.375 0-1.574219.074219-1.707031.660156-.179688.789063-1.035156 11.949219-1.035156 13.496094 0 1.210937-.058594 1.152343 8.371093 8.917969 16.085938 14.816406 48.371094 46.386718 49.277344 48.183593.78125 1.550781.9375 2.316407.441406 2.125-.269531-.101562-2.769531 1.417969-6.421875 3.902344-10.855468 7.382813-17.675781 11.921875-22.292968 14.84375-5.53125 3.5-8.714844 5.609375-13.433594 8.902344l-3.589844 2.503906.859375.527344c1.582031.960937 1.917969 2.035156 1.917969 6.132812 0 2.765625-.128906 4.042969-.523438 5.171875-.753906 2.164063-2.054687 4.078125-3.472656 5.101563-1.027344.746093-1.507812.894531-2.878906.886719-.984375 0-2.144532-.234376-2.894532-.570313-.6875-.3125-1.246093-.503906-1.246093-.425781 0 .082031.523437 2.226562 1.160156 4.761718 1.164063 4.648438 2.949219 12.742188 4.125 18.722657 1.203125 6.101562 4.09375 18.816406 6.578125 28.941406 1.375 5.574219 3.617188 14.964844 4.992188 20.863281 5.484374 23.527344 9.207031 38.585938 12.863281 52.015625 1.292969 4.765625 3.332031 12.363281 4.527343 16.875 1.191407 4.515625 2.316407 8.300781 2.496094 8.40625.179688.113281 1.796875.273438 3.605469.359375 5.222656.25 10.167969 1.574219 11.390625 3.054688.660156.792968.484375 2.609375-.335938 3.492187-1.785156 1.914063-5.007812 2.773438-10.421874 2.773438-7.617188 0-13.367188-2.089844-13.367188-4.855469 0-1.128906 1.558594-2.597656 3.882812-3.652344 1.175782-.539062 2.183594-1.011718 2.234376-1.054687.054687-.039063-1.320313-5.339844-3.050782-11.78125-5.429687-20.210938-5.964844-22.28125-9.082031-35.070313-2.902344-11.898437-4.878906-20.269531-8.5-35.996094-.890625-3.878906-2.550781-10.839843-3.679687-15.46875-2.679688-10.953124-3.347657-14.003906-6.351563-28.847656-2.804687-13.875-4.199219-20.222656-4.507813-20.554687-.113281-.121094-.640624 2.523437-1.175781 5.878906-1.722656 10.878906-2.949219 17.878906-5.042969 28.84375-4.6875 24.535156-9.601562 51.773437-13.652343 75.695313-1.230469 7.273437-3.203125 18.578124-4.386719 25.125-1.183594 6.542968-2.234375 12.519531-2.34375 13.277343-.105469.757813-.511719 1.949219-.902344 2.648438-.390625.695312-.984375 1.773437-1.324218 2.390625-.753907 1.378906-2.199219 2.078125-5.976563 2.894531-3.03125.65625-11.929687.984375-14.421875.535156Zm14.421875-2.597657c3.902344-.835937 5.261719-1.503906 5.503906-2.703124.105469-.53125.160157-.996094.117188-1.039063-.3125-.308594-5.441407-.714844-9.03125-.714844-4.578125 0-7.378907.390625-10.417969 1.457031-4.230469 1.476563-4.0625 2.710938.492188 3.527344 2.460937.441406 10.25.132813 13.335937-.527344Zm81.226563.5625c2.546874-.417968 3.957031-.859374 4.710937-1.46875.671875-.546874.675781-.566406.132813-1.164062-.738282-.816406-3.078126-1.664062-6.242188-2.253906-4.789062-.898438-13.070312-.214844-13.964844 1.148437-.328125.503907.300782 1.328125 1.464844 1.921875 3.214844 1.640625 9.75 2.492188 13.898438 1.816406Zm-174.242188-4.902343c0-.097657-.320312-.558594-.710938-1.023438-1.332031-1.585937-2.722656-6.726562-2.453124-9.09375l.078124-.722656-15.277343-.066406c-25.832031-.109375-69.566407-.394531-70.652344-.460938-1.023437-.0625-1.027344-.058593-.933594 1.097657.175781 2.203124 2.863281 6.503906 5.101563 8.175781l.972656.730469 15.425781.332031c8.484375.1875 25.007813.417969 36.71875.515625 11.71875.097656 22.292969.273437 23.503907.398437 2.773437.273438 8.226562.355469 8.226562.117188Zm5.257812-1.261719c1.835938-1.835938 4.226563-8.402344 4.1875-11.488281 0-1.054688.191407-3.035157.464844-4.410157.425782-2.167968.480469-4.519531.425782-17.777343-.035157-8.40625-.195313-18.785157-.355469-23.066407-.160157-4.285156-.421875-11.359374-.582031-15.722656-.164063-4.363281-.5-10.445312-.746094-13.515625-.25-3.074219-.574219-11.402343-.722656-18.515625-.152344-7.171875-.53125-16.394531-.851563-20.714844-.761719-10.179687-1.136719-17.839843-1.496094-30.414062-.164062-5.65625-.363281-11.277344-.445312-12.492188-.082031-1.210937-.414063-6.832031-.738281-12.488281C148.835938 169.5 148.527344 164.398438 148 156.636719c-1.070312-15.796875-1.40625-27.1875-1.527344-52.304688-.136718-27.394531-.039062-30.515625 1.390625-44.609375 1.160157-11.40625 1.898438-15.960937 3.074219-19.03125.152344-.398437-.246094-.4375-3.332031-.332031-4.070313.148437-7.289063-.417969-8.996094-1.578125l-1.054687-.714844h-30.945313c-24.558594 0-31.007813.078125-31.25.367188-.496094.59375-2.085937 7.28125-2.703125 11.335937-.667969 4.417969-1.0625 10.308594-1.476562 22.089844-.292969 8.332031-.863282 20.042969-1.46875 30.265625-.511719 8.585938-.679688 33.28125-.324219 48.046875.773437 32.234375 1.328125 44.183594 3.421875 74.199219 2.257812 32.375 2.597656 41.035156 2.410156 61.855468-.144531 16.179688-.371094 20.496094-1.699219 33.058594-1.242187 11.671875-3.765625 27.5625-4.9375 31.023438l-.515625 1.535156 37.472656.117188c20.613282.066406 37.582032.03125 37.714844-.074219.128906-.105469-.929687-.265625-2.351562-.351563-3.121094-.191406-3.679688-.382812-3.558594-1.210937.101562-.710938.214844-.714844 7.246094-.46875l3.925781.136719 1.152344-1.910157c1.507812-2.488281 2.171875-3.230469 2.898437-3.230469 1.398438 0 .953125 1.570313-1.617187 5.730469-.734375 1.191407-1.582031 3.125-2 4.582031-.941407 3.25-1.527344 4.378907-2.28125 4.378907-.75 0-.964844-.570313-.589844-1.566407.324219-.84375.03125-1.046874-.550781-.359374-.195313.230468-.597656.464843-.898438.511718-.53125.089844-.53125.136719.027344 1.683594 1.042969 2.949219 2.46875 4.410156 4.320312 4.425781.554688 0 1.1875-.226562 1.511719-.550781Zm-7.285156-17.929688c-.226562-.140624-1.847656-.355468-3.605468-.46875-2.347657-.152343-3.363282-.34375-3.820313-.714843l-.621094-.503907.621094-.578124c.746094-.699219 1.453125-4.851563 1.726563-10.175782.117187-2.25.308593-3.5625.550781-3.765625.226562-.1875 2.5625-.34375 5.886719-.390625 4.929687-.074218 5.546874-.136718 5.828124-.605468 1.039063-1.761719 1.570313-2.363282 2.082032-2.363282.925781 0 .875 1.546875-.140625 4.15625-.878907 2.261719-.898438 2.414063-.898438 7.488282 0 6.660156.214844 6.328124-4.996093 7.546874-.726563.171876-1.519532.386719-1.761719.472657-.242188.09375-.625.046875-.851563-.097657Zm5.203125-6.277343-.089843-1.242188-.8125 2.0625c-.441407 1.136719-.804688 2.21875-.804688 2.40625 0 .191407.363281.382813.804688.433594.761718.089844.816406.03125.902343-1.164063.046875-.691406.046875-1.816406 0-2.496093Zm-7.753906 1.183593c-.367187-1.335937-.761719-2.820312-.882813-3.304687-.175781-.71875-.304687-.304687-.699218 2.203125-.261719 1.695312-.433594 3.183594-.375 3.304688.058594.121093.671875.21875 1.363281.21875h1.257813Zm5.722656-4.027343c1.144531-2.660157 2.085938-4.945313 2.085938-5.078125 0-.132813-1.941407-.203125-4.308594-.160156-3.207031.0625-4.34375.179687-4.4375.460937-.089844.273437.082031.328125.613281.195313 1-.25 1.480469.546874 2.121094 3.539062.5625 2.605469 1.59375 6.140625 1.742188 5.980469.054687-.054688 1.035156-2.28125 2.183593-4.9375Zm-25.9375 4.515625c-.101562-.253906-.179687-.71875-.179687-1.027344 0-.683594.15625-.6875-1.917969.03125-2.011719.691406-2.78125.558594-2.78125-.488281 0-.476563-.128906-.683594-.367187-.589844-1.582032.652344-3.46875 1.128906-3.859376.980469-.261718-.101563-.472656-.515625-.472656-.925782 0-.410156-.140625-.742187-.316406-.742187-.171875 0-1.328125.46875-2.570312 1.042969-1.238282.574218-2.707032 1.070312-3.257813 1.101562-.898437.050782-1.027344-.039062-1.253906-.882812-.140625-.515625-.363281-1.011719-.503907-1.097656-.140624-.085938-1.019531.105468-1.953124.425781-2.113282.726562-2.398438.726562-2.632813 0-.167969-.535157-.25-.550781-.984375-.171875-.4375.226562-1.277344.503906-1.863281.613281-.898438.167969-1.117188.105469-1.394531-.417969-.320313-.589844-.371094-.597656-1.246094-.140625-.578125.296875-1.285156.410157-1.90625.3125-.574219-.097656-1.429688.027344-2.039063.277344-1.601562.667969-3.105469.441406-3.578125-.546875-.382812-.800781-.390625-.804688-1.324218-.320312-2.117188 1.097656-4.5625 1-5.207032-.210938-.25-.46875-.421875-.519531-.890625-.269531-.929687.496093-1.203125.078125-.710937-1.097657.917968-2.195312 2.171875-2.402343 3.292968-.546874.433594.71875 1.027344 1.367187 1.320313 1.445312.292969.074219 1.328125-.257812 2.300781-.746094.96875-.484375 1.941406-.8125 2.160156-.730468.214844.082031.484376.625.589844 1.203124.269532 1.421876 1.078125 1.390626 3.109375-.121093 1.789063-1.339844 2.050781-1.410157 2.261719-.601563.148438.574219.160156.574219 1.316406-.027344 1.460938-.746093 2.410156-.648437 2.542969.261719.105469.773438.496094.71875 2.734375-.410156 1.164062-.582031 1.421875-.625 1.710938-.277344.261718.316407.261718.570313 0 1.066407-.335938.625-.3125.640624.640624.410156.542969-.128906 1.515626-.25 2.164063-.265625 1.054687-.027344 1.21875.074219 1.59375.933593.230469.523438.554687.953126.71875.953126.164063 0 1.65625-.660157 3.316406-1.464844 3.019531-1.46875 3.917969-1.597656 3.917969-.5625 0 .714844.476562.703125 2.175781-.046875 1.738281-.769531 2.679688-.675781 2.644531.261719-.03125.742187-.03125.742187 2.40625.03125 1.53125-.460938 2.136719-.21875 2.371094.941406l.183594.921875 1.589844-.160157c1.992187-.207031 1.929687.160157-.21875 1.296876-1.789063.945312-3.351563 1.113281-3.628906.382812ZM141.730469 325c-.324219-.414062-.808594-1.40625-1.074219-2.207031l-.480469-1.449219h-1.574219c-.867187 0-1.636718-.101562-1.710937-.222656-.070313-.117188-.046875-3.554688.058594-7.628906.167969-6.453126.253906-7.472657.695312-7.914063.433594-.433594.609375-.449219 1.214844-.128906.535156.289062 1.835937.34375 5.222656.222656 2.484375-.089844 4.847657-.203125 5.25-.253906.652344-.082031.722657 0 .664063.789062-.058594.75.050781.644531.734375-.734375.652343-1.3125.941406-1.613281 1.539062-1.613281.636719 0 .746094.144531.824219 1.105469.09375 1.125-.90625 5.421875-1.988281 8.5625-.328125.957031-.609375 2.410156-.617188 3.234375-.042969 3.636719-.894531 5.625-2.257812 5.277343-.367188-.089843-.765625.269532-1.371094 1.238282-1.523437 2.429687-3.933594 3.238281-5.128906 1.722656Zm3.195312-3.070312c.273438-.515626.222657-.585938-.429687-.585938-.703125 0-1 .527344-.550782.976562.339844.339844.65625.214844.980469-.390624Zm-5.539062-4.144532-.285157-.996094-.03125 1.304688c-.027343.925781.066407 1.21875.285157.996094.214843-.214844.226562-.628906.03125-1.304688Zm7.714843-.78125c.667969-1.742187.761719-2.433594.761719-5.511718v-3.519532h-8.519531v1.558594c0 1.484375.027344 1.542969.605469 1.234375.921875-.492187 1.339843.058594 1.742187 2.296875.195313 1.085938.550782 2.867188.789063 3.957031l.433593 1.984375h3.429688l.757812-1.988281Zm-57.046874 1.816406c-.4375-.191406-1.1875-.757812-1.664063-1.261718-.703125-.746094-.886719-1.234375-.988281-2.640625-.109375-1.539063-.050782-1.773438.550781-2.199219.972656-.675781 1.335937-.210938 1.5625 2.019531.265625 2.585938.597656 3.371094 1.421875 3.371094.523438 0 .851562-.378906 1.523438-1.761719.472656-.96875 1.003906-1.785156 1.175781-1.808594.175781-.027343 1.046875-.074218 1.933593-.109374 3.316407-.136719 5.796876-.390626 7.007813-.714844 1.667969-.449219 2.285156-.199219 2.707031 1.105468.667969 2.082032 1.144532 2.121094 3.703125.285157 1.027344-.738281 1.410157-.871094 1.796875-.628907.378906.238282.679688.179688 1.277344-.265624.9375-.691407 1.542969-.433594 1.296875.550781-.148437.59375-.066406.703125.53125.703125.9375 0 2.371094-.667969 4.113281-1.914063.785156-.5625 1.511719-1.019531 1.613282-1.019531.660156.03125 1.015624.648438.976562 1.714844-.058594 1.445312.359375 1.640625 2.574219 1.222656 2.867187-.542969 4.300781-.398438 5.355469.542969l.9375.835937-.789063.519532c-.570313.371093-1.011719.453124-1.59375.285156-.445313-.128906-2.332031-.203125-4.199219-.164063-3.832031.074219-4.269531-.121093-4.445312-2.023437l-.097656-1.027344-1.027344 1.019531c-1 .996094-1.089844 1.023438-3.523438 1.058594-2.980468.042969-4.476562.3125-5.929687 1.070313-.667969.347656-1.511719.527343-2.203125.46875-1.011719-.082032-1.191406-.226563-1.816406-1.488282-.796876-1.617187-1.4375-1.773437-2.148438-.53125-.519531.917969-2.566406 2.367188-3.339844 2.367188-.386718 0-.429687-.226563-.257812-1.363282l.203125-1.371093-1.140625.191406c-.628906.101563-1.421875.1875-1.757813.191406-.421875 0-.902343.460938-1.507812 1.4375-.753907 1.210938-1.054688 1.449219-1.960938 1.554688-.585937.070312-1.429687-.03125-1.871093-.222657ZM79.296875 316.6875c-.324219-.523438.804687-1.523438 3.207031-2.832031 1.644532-.894531 2.777344-1.335938 3.304688-1.273438.746094.085938.808594.199219.890625 1.65625.097656 1.742188-.289063 2.480469-1.238281 2.34375-.457032-.0625-.636719-.335937-.703126-1.035156l-.09375-.953125-2.324218 1.171875c-2.429688 1.21875-2.792969 1.332031-3.042969.921875Zm60.84375-14.519531c-.269531-.203125-.796875-.964844-1.179687-1.6875-.628907-1.203125-.804688-1.339844-1.972657-1.472657l-1.277343-.144531-.0625-1.324219c-.035157-.726562-.152344-3.988281-.261719-7.25-.25-7.578124-.542969-7.148437 4.796875-7.148437 2.078125 0 4.386718-.082031 5.132812-.183594 1.246094-.171875 1.40625-.292969 1.980469-1.472656 1.066406-2.207031 2.902344-2.0625 2.40625.1875-.121094.566406-.230469 3.011719-.238281 5.4375-.03125 9.960937-.058594 10.386719-.84375 11.164063-.472656.472656-1.199219.773437-2.199219.90625-1.285156.171874-1.582031.339843-2.105469 1.183593-1.15625 1.871094-3.015625 2.675781-4.175781 1.804688Zm6.945313-6.285157c.363281-2.652343.175781-2.996093-.527344-.988281-.695313 1.96875-.699219 2.351563-.042969 2.351563.238281 0 .460937-.535156.570313-1.363282Zm-3.273438-.839843c.679688-2.234375 2.578125-9.675781 2.578125-10.097657 0-.230468-.226563-.230468-.804687 0-.445313.175782-2.425782.335938-4.40625.359376l-3.601563.039062v.796875c0 .691406 2.746094 9.964844 3.140625 10.601563.082031.128906.6875.199218 1.351562.148437 1.199219-.089844 1.207032-.097656 1.742188-1.851563Zm-33.777344 1.777343c-.847656-.398437-2.140625-1.132812-2.863281-1.632812-.726563-.5-1.320313-.761719-1.320313-.585938 0 .175782-.328124.648438-.730468 1.050782-.601563.601562-.839844.675781-1.316406.421875-.324219-.171875-.917969-.226563-1.324219-.125-.40625.101562-.96875.09375-1.253907-.03125-.425781-.164063-.34375-.273438.445313-.605469.527344-.222656 1.027344-.644531 1.117187-.933594.085938-.289062.34375-.894531.570313-1.339844.328125-.640624.34375-.976562.082031-1.558593-.289062-.628907-.25-.832031.285156-1.363281.78125-.785157 1.277344-.445313 1.835938 1.257812.226562.683594.832031 1.5625 1.402344 2.03125 1.0625.871094 3.859375 2.484375 4.011718 2.3125.050782-.054688-.101562-1.203125-.332031-2.554688-.378906-2.195312-.375-2.519531.042969-3.160156.753906-1.144531 1.535156-.875 3.523438 1.203125 1.007812 1.050781 1.90625 1.910157 1.996093 1.910157.09375 0 .027344-.460938-.148437-1.023438-.265625-.867188-.230469-1.117188.21875-1.617188.816406-.898437 1.292968-.71875 1.914062.730469.542969 1.269531.84375 1.464844 2.085938 1.347657.777344-.078126 1.199218.675781.863281 1.558593-.367187.957031-.027344.984375.84375.0625.382813-.410156.726563-1.238281.820313-1.984375.171874-1.339844.78125-2.304687 1.464843-2.304687.222657 0 .675781.464843 1.011719 1.03125.359375.609375.921875 1.101562 1.382812 1.210937 1.28125.308594 1.515626.667969 1.515626 2.355469 0 1.203125-.117188 1.636719-.480469 1.773437-.734375.28125-1.421875-.308593-1.519531-1.308593-.070313-.6875-.289063-.972657-.90625-1.1875-.734376-.257813-.902344-.183594-1.628907.734375-2.171875 2.722656-5.066406 2.894531-4.40625.261718.257813-1.019531-.597656-1.039062-1.394531-.03125-.949219 1.207032-2.136719.925782-4.160156-.988281l-1.128906-1.066406.101562 2.351563c.089844 2.167968.050781 2.355468-.488281 2.425781-.324219.042969-1.285157-.25-2.132813-.648438Zm-17.875-2c-.121094-.523437-.1875-2.144531-.152344-3.597656.054688-2.117187.175782-2.753906.609376-3.195312.777343-.785156 1.191406-.359375 1.191406 1.230468 0 1.660157-.894532 6.519532-1.203125 6.519532-.121094 0-.320313-.429688-.445313-.957032Zm2.410156-1.5625c-.792968-1.519531-.808593-1.625-.351562-2.324218.265625-.40625.738281-.738282 1.054688-.738282.519531 0 .566406.203126.527343 2.21875-.03125 1.222657-.125 2.269532-.222656 2.328126-.097656.058593-.546875-.609376-1.007813-1.484376Zm3.105469-1.300781c.117188-2.070312.695313-3.238281 1.390625-2.808593.878906.539062-.089844 4.867187-1.089844 4.867187-.332031 0-.394531-.417969-.300781-2.058594Zm-8.6875.5625c-.328125-.664062-.46875-1.757812-.46875-3.675781 0-2.488281.058594-2.773438.652344-3.1875 1.402344-.980469 1.519531.171875.703125 6.8125-.128906 1.050781-.378906 1.0625-.886719.050781Zm51.242188-15.398437c-.199219-.234375-.722657-1.324219-1.167969-2.421875-.441406-1.09375-.988281-2.015625-1.21875-2.042969-2.332031-.304688-2.605469-.429688-3.023438-1.355469-.230468-.519531-.503906-2.332031-.601562-4.027343-.097656-1.699219-.328125-4.582032-.511719-6.40625-.464843-4.589844-.929687-4.296876 6.933594-4.417969 6.226563-.097657 6.277344-.09375 6.734375.5625l.464844.660156.277344-.707031c.976562-2.476563 1.25-2.914063 1.8125-2.914063.871093 0 1.226562 1.199219.847656 2.878907-.167969.757812-.769532 2.96875-1.339844 4.90625-.957031 3.269531-1.019531 3.714843-.839844 6.113281.222656 2.992187-.117187 3.847656-1.675781 4.253906-.742187.191406-1.105469.578125-1.757813 1.84375-1.476562 2.886719-3.859374 4.371094-4.933593 3.074219Zm2.632812-4.042969c0-.550781-.234375-.640625-.765625-.289063-.226562.144532-.242187.449219-.058594.941407.222657.59375.324219.648437.546876.296875.148437-.242188.277343-.667969.277343-.949219Zm-5.296875-3.382813c0-.28125-.257812-1.636718-.558594-3.011718l-.542968-2.496094-.03125 3.011719c-.03125 2.828125 0 3.011719.558594 3.011719.371093 0 .582031-.191407.574218-.515626Zm7.570313-2.570312c.867187-2.617188.957031-3.175781.804687-5.113281-.09375-1.195313-.234375-2.515625-.320312-2.9375l-.152344-.761719-4.824219.085938-4.828125.085937v.796875c0 1.179688.390625 1.671875.863282 1.101562.46875-.566406 1.300781-.589843 1.742187-.054687.1875.222656.601563 1.644531.921875 3.160156.320312 1.515625.796875 3.65625 1.058594 4.753907l.472656 1.996093 3.28125-.171875.976562-2.941406Zm-46.019531 5.546875c-.367188-.46875-.609376-1.207031-.609376-1.867187v-1.089844l-1.429687.050781c-.953125.03125-1.695313.257813-2.21875.667969-1.03125.8125-2.328125 1.078125-3.136719.644531-.535156-.289063-.695312-.261719-.929687.164063-.855469 1.523437-2.304688 2.089843-2.8125 1.101562-.144531-.285156-.34375-1.378906-.441407-2.425781-.105468-1.050781-.265624-2.195313-.363281-2.542969-.214843-.753906.808594-1.9375 1.457031-1.691406.566407.21875.757813 1.078125.765626 3.425781 0 1.089844.128906 1.984375.285156 1.984375.4375 0 .890625-1.039062.890625-2.058594 0-1.226562.480469-2.054687 1.1875-2.054687.457031 0 .574219.199219.574219.992187 0 1.949219 1.808593 2.179688 2.003906.253906.179687-1.785156 1.96875-2.433593 2.164062-.78125.144532 1.226563.878906 1.519532 2.117188.851563.570312-.304687 1.128906-.464844 1.242187-.355469.109375.113282.175781 1.140625.144531 2.289063-.058593 1.882812 0 2.101562.539063 2.242187.722656.1875.785156.546875.140625.792969-.75.285156-.929688.21875-1.570312-.59375Zm4.097656-3.449219c-.203125-1.089844-.535156-1.976562-.769532-2.066406-.546874-.210938-.53125-1.242188.027344-1.457031.613282-.234375.980469.59375 1.316406 2.945312.363282 2.597657-.097656 3.074219-.566406.578125Zm10.921875 1.046875c-.460938-.460937-.648438-.480469-1.394531-.160156-1.171876.5-2.042969.484375-2.484376-.042969-.199218-.246094-.71875-.441406-1.152343-.441406-.4375 0-1.042969-.1875-1.355469-.414062-1.179688-.863282-.351562-4.289063 1.042969-4.289063.527343 0 .558593.144531.390625 1.761719-.125 1.175781-.078125 1.765625.132812 1.765625.171875 0 .40625-.296875.515625-.664063.488281-1.605468 2.484375-2.710937 2.484375-1.371094 0 .332032-.144531.871094-.320312 1.195313-.175782.328125-.246094.667969-.15625.757813.277344.277343 1.847656-.515626 2.496094-1.261719.339843-.394531.898437-.714844 1.234374-.714844.554688 0 .597657.117187.417969 1.175781-.257812 1.53125.296875 1.570313 1.898438.125 1.285156-1.164062 2.257812-1.25 2.144531-.1875-.085938.78125-.078125.78125 1.238281.15625 1.285157-.617187 1.789063-.28125 1.34375.886719-.289062.765625-.269531.785156.839844.785156.621094 0 1.511719-.199219 1.976563-.441406 1.085937-.566406 2.457031-.582031 2.457031-.027344 0 .230469-.367188.703125-.808594 1.054688-.710937.558593-1.03125.609375-2.675781.433593-3.757813-.402343-6.566406-.390624-7.757813.03125-1.523437.535157-1.871093.523438-2.507812-.113281Zm24.140625-18.992187c-.34375-.242188-.851563-.925782-1.132813-1.515625-.507812-1.070313-.515625-1.074219-1.976562-.902344-.808594.09375-1.652344.328125-1.875.511719-.222657.1875-.609375.257812-.851563.164062-.679687-.261718-.664062-15.792968.03125-16.476562.613282-.613282 1.21875-.582032 1.429688.074218.148437.46875.367187.503907 1.710937.3125.84375-.117187 2.613281-.226562 3.925781-.238281 3.882813-.035156 4.121094-.136719 5.125-2.117187.476563-.949219 1-1.722656 1.164063-1.722656.730469 0 .984375 1.472656.625 3.617187-.242187 1.460937-.292969 3.855469-.15625 7.75l.199219 5.640625-1.042969 1.046875c-.746094.746094-1.304687 1.042969-1.949219 1.042969-.6875 0-1.003906.195312-1.324218.808594-.96875 1.867187-2.773438 2.796874-3.886719 2.003906Zm-2.464844-4.792969c0-.121094-.324219-1.410156-.710938-2.867187l-.699218-2.644532-.03125 2.863282-.027344 2.867187h.734375c.402344 0 .730469-.101563.726563-.21875Zm5.976562-5.730469c.765626-2.949218 1.386719-5.4375 1.382813-5.527344 0-.089843-.769531-.066406-1.699219.050782-.929687.113281-2.914062.222656-4.40625.234375-2.117187.03125-2.71875.117187-2.71875.4375 0 .273437.3125.394531.945313.367187l.945312-.042968.839844 2.9375c2.050781 7.203124 1.933594 6.902343 2.652344 6.902343.617187 0 .769531-.394531 2.058593-5.359375Zm2.246094 4.113282c0-1.308594-.324218-1.109376-.691406.441406-.148438.609375-.085938.804687.253906.804687.332032 0 .441406-.320312.4375-1.246093Zm-41.65625.144531c-.15625-.765625-.21875-1.839844-.132812-2.382813.089844-.558594.03125-1.070312-.15625-1.179687-.480469-.296875-1.054688-2.761719-.84375-3.601563.257812-1.035156 1.484375-1.570312 2.128906-.925781.410156.410156.457031.960937.3125 3.734375-.203125 3.886719-.457031 5.753906-.78125 5.753906-.128906 0-.367188-.628906-.527344-1.398437Zm3.175782.953125c-.480469-.574219.140624-3.730469.855468-4.378906.894532-.804688 1.261719-.164063.886719 1.566406-.210937 1-.230469 1.652344-.046875 1.835937.183594.179688.351562-.042969.464844-.625.125-.621093.503906-1.097656 1.214844-1.515625.570312-.335937 1.035156-.835937 1.035156-1.113281 0-.554687 1.027344-1.789063 1.488281-1.789063.566406 0 .636719.917969.164063 2.148438-.625 1.632812-.628907 1.601562.476562 2.078125.839844.355469.886719.429687.398438.632813-.3125.128906-.953126.082031-1.457032-.109376-.792968-.300781-.980468-.257812-1.644531.359376-1.484375 1.382812-3.121094 1.773437-3.835937.910156Zm-18.863282-.65625c-.90625-1.042969-1.191406-2.007813-1.335937-4.527344-.121094-2.085938-.054688-2.722656.339843-3.324219.917969-1.402343 1.285157-.957031 1.511719 1.828125.265625 3.308594.722657 4.480469 1.757813 4.480469.621094 0 .871094-.246094 1.34375-1.316406.585937-1.320313 1.617187-2.320313 2.089844-2.023438.144531.082031.167968.9375.058593 1.894531-.230469 2.050782.191407 2.324219.980469.636719.332031-.710937.75-1.132812 1.175781-1.195312.617188-.089844.644531-.03125.472657 1.25-.175782 1.269531-.148438 1.339843.515624 1.335937 1.167969 0 1.558594-.398437 1.113282-1.109375-.292969-.464843-.300782-.773437-.039063-1.347656.363281-.800781 1.960938-1.785156 2.429688-1.5.15625.097656.28125.957031.28125 1.917969 0 1.519531.09375 1.792968.726562 2.207031.394531.261719.855469.390625 1.027344.285156.167969-.105469.304687-.0625.304687.089844 0 .15625-.207031.363281-.464843.457031-.855469.332032-1.5625.1875-2.136719-.429687-.5625-.605469-.601562-.605469-2.179688-.105469-1.445312.453125-1.691406.460938-2.492187.058594-.5625-.277344-1.039063-.34375-1.289063-.183594-.21875.144531-.792968.234375-1.277343.203125-.484375-.03125-1.304688.164063-1.824219.4375-1.214844.636719-2.523438.628906-3.089844-.027344Zm31.238282-.476563c-.1875-.222656-.253907-.621093-.152344-.882812.121094-.320313.027344-.476563-.289063-.476563-.261719 0-.472656-.113281-.472656-.253906 0-.320312.890625-1.078125 1.542969-1.3125.28125-.097656.511718-.363281.511718-.582031 0-.628907 1.09375-1.472657 1.636719-1.265625.382813.148437.445313.410156.285157 1.246094l-.195313 1.058593.972656-.136719c.535157-.074218 1.203125-.238281 1.484375-.355468.746094-.324219 1.007813.601562.371094 1.304687-.414062.460938-.757812.53125-1.789062.390625-1.136719-.15625-1.390626-.070312-2.324219.746094-1.210938 1.066406-1.148438 1.042969-1.582031.519531Zm21.136718-16.914062c-.441406-.476563-1.035156-1.46875-1.316406-2.207031l-.511719-1.339844h-2.253906c-2.78125 0-3.277344-.242188-2.617187-1.253906.363281-.554688.394531-.796876.125-1.066407-.242188-.242187-.375-2.339843-.441407-6.824219-.082031-5.601562-.03125-6.546874.375-6.996093.382813-.425781 1.1875-.550781 4.5-.714844 2.21875-.105469 4.761719-.269531 5.648438-.359375 2.433593-.246094 2.722656.085938 2.921875 3.351562.089844 1.460938.242187 2.734376.34375 2.832032.097656.097656.40625-.652344.6875-1.664063.835937-3.003906 1.644531-4.660156 2.433594-4.957031.394531-.148438.832031-.195312.980468-.105469.765625.46875-.300781 4.628907-3.132812 12.246094-2.160156 5.808594-3.773438 8.636719-5.410156 9.484375-1.175782.605469-1.410157.5625-2.332032-.421875Zm2.625-3.273438c0-.148437-.195312-.273437-.4375-.273437-.457031 0-.585937.347656-.253906.679687.234375.234375.691406-.035156.691406-.40625Zm-5.40625-3.757812c-.707031-4.164063-.757812-5.066407-.34375-6.0625.285156-.679688.6875-1.078125 1.210938-1.210938.996094-.25 1.183594.058594 1.425781 2.339844.101563.992187.425781 2.730469.714844 3.863281l.527343 2.054688 1.480469.089844c1.417969.082031 1.503907.046874 1.863281-.832032.289063-.703125.339844-2.21875.191407-6.378906-.101563-3.003906-.230469-5.5-.277344-5.546875-.046875-.046875-.9375.035156-1.984375.191406-1.042969.148438-2.996094.273438-4.339844.277344h-2.445312l.066406 5.742187c.042969 4.019532-.039062 5.847657-.277344 6.085938-.570312.570312-.390625.671875 1.019532.558594l1.355468-.109375-.1875-1.070313Zm-28.746094-3.859375c-.441406-.347656-.804687-.890625-.804687-1.203125 0-.464844-.140625-.539063-.738281-.390625-.945313.238281-1.613282-.3125-1.613282-1.335938 0-.875 1.070313-2.070312 1.855469-2.070312.574219 0 .664063.886718.140625 1.410156-.554687.558594.347656.449219.972656-.117188.667969-.601562 1.144532-.296874 1.144532.722657 0 2.230469 2.601562 1.867187 5.675781-.792969.773437-.671875 1.589844-1.222656 1.816406-1.222656.671875 0 .785157.523437.304688 1.445312-.890625 1.722656-.492188 1.929688 1.164062.613282 1.34375-1.070313 1.613281-1.097657 1.613281-.164063 0 .394531.136719.796875.300782.902344.585937.359375-.085938.785156-.96875.609375-.492188-.097656-1.328125-.027344-1.855469.171875-.683594.246093-1.164063.261719-1.640625.046875-.554688-.246094-.992188-.125-2.441406.667968-2.414063 1.324219-3.875 1.535157-4.925782.707032Zm-23.84375-1.253906c-.214843-.523438-.457031-1.78125-.546874-2.792969-.125-1.476563-.054688-1.964844.359374-2.472657.332032-.410156.691407-.566406 1.011719-.441406.433594.164063.484375.609375.414063 3.425782-.066406 2.414062-.183594 3.234374-.46875 3.234374-.210938 0-.558594-.425781-.769532-.953124Zm7.175782-.214844c-.6875-.738282-.875-.8125-1.164063-.460938-.191406.230469-.757812.511719-1.261719.617188-1.214843.273437-1.6875-.398438-1.6875-2.394532 0-1.996093.203126-2.46875 1.058594-2.46875.671875 0 .703125.09375.703125 1.910157 0 1.425781.101563 1.910156.40625 1.910156.527344 0 .96875-.550781 1.210938-1.523437.445312-1.765626 2.371093-2.320313 2.019531-.578126-.195312.976563.234375 1.953126 1.046875 2.386719.78125.417969 1.304687.144531 1.691406-.882812.4375-1.148438 1.554688-1.234375 1.554688-.117188 0 .652344.113281.742188.808593.664063.695313-.082032.808594-.226563.808594-1.039063 0-1.085937.765625-2.011719 1.445313-1.75.550781.210938.601562 1.253907.117187 2.289063-.40625.863281-2.578125 1.863281-3.445312 1.589844-.324219-.101563-1.195313.027343-1.933594.269531-1.898438.644531-2.445312.574219-3.378906-.421875ZM123.332031 216c-.164062-.054688-.660156-.179688-1.101562-.277344-1.339844-.296875-.96875-.988281.804687-1.5 1.933594-.5625 2.792969-.378906 2.792969.605469 0 .980469-1.273437 1.578125-2.496094 1.171875Zm12.535157-13.984375c-.441407-.175781-.960938-.894531-1.453126-2.003906l-.761718-1.730469-1.976563-.195312c-1.265625-.121094-2.035156-.339844-2.132812-.597657-.414063-1.082031-.535157-4.449219-.339844-9.441406.207031-5.226563.25-5.535156.90625-6.1875.621094-.621094.949219-.6875 3.402344-.6875 1.492187 0 4.207031-.152344 6.039062-.335937 3.230469-.324219 3.332031-.359376 3.492188-1.101563.292969-1.328125.382812-1.5.828125-1.5.589844 0 .894531 2.246094.605468 4.515625-.125.992188-.253906 4.554688-.285156 7.921875-.054687 5.808594-.089844 6.148437-.683594 6.742187-.457031.457032-.929687.605469-1.769531.554688-1.113281-.0625-1.160156-.027344-1.921875 1.53125-1.050781 2.152344-2.519531 3.085938-3.949218 2.515625Zm-2.929688-6.308594c.089844-.085937-.027344-1.003906-.234375-2.03125-1.148437-5.484375-1.113281-6.816406.195313-7.519531 1.039062-.554688 1.382812.136719 2.417968 4.875l.960938 4.394531 1.195312.089844c1.167969.082031 1.210938.054687 1.503906-1.03125.167969-.613281.847657-3.09375 1.507813-5.515625.664063-2.417969 1.207031-4.808594 1.207031-5.316406v-.917969l-1.394531.230469c-.765625.128906-3.082031.238281-5.140625.25l-3.746094.027344v4.957031c0 6.066406.183594 7.679687.871094 7.679687.273438 0 .570312-.070312.65625-.160156Zm8.660156-.777343c-.09375-.234376-.160156-.164063-.175781.179687 0 .308594.054687.480469.152344.382813.101562-.097657.109375-.351563.03125-.5625Zm-55.824218-2.371094c1.460937-3.921875 2.75-4.734375 3.121093-1.96875.171875 1.273437.640625 2.042968 1.25 2.042968.207031 0 .929688-.460937 1.605469-1.027343 1.371094-1.144531 1.761719-1.109375 1.761719.164062 0 .476563.128906.863281.28125.863281.679687 0 1.675781-.683593 2.117187-1.453124.425782-.742188.675782-.851563 2.199219-.957032 2.167969-.148437 2.300781-.101562 3.019531 1.117188.511719.867187.742188 1 1.738282 1 1.417968 0 2.875-.585938 3.957031-1.589844.453125-.421875 1.09375-.761719 1.429687-.761719.515625 0 .582032.132813.4375.851563-.121094.625 0 .988281.429688 1.386718.589844.535157.625.515626 2.167968-1.140624.859376-.925782 1.679688-1.683594 1.820313-1.683594.511719 0 .96875.71875.96875 1.527344 0 .847656.210937.953124 1.761719.832031.40625-.03125 1.5625-.519531 2.574218-1.078125 1.828126-1.011719 2.421876-1.066406 2.421876-.214844 0 .308594.175781.386719.585937.253906.800781-.253906 1.101563.59375.457031 1.300782-.582031.648437-1.875.953124-2.539062.597656-.308594-.167969-1.0625 0-2.203125.460937-2.296875.941407-3.789063.949219-4.617188.027344l-.628906-.707031-.816406.582031c-1.433594 1.019531-2.5625 1.191406-3.636719.5625-.949219-.5625-.960938-.5625-2.664062.140625-1.804688.742188-3.59375.914062-4.496094.425781-.296875-.15625-.769532-.886719-1.050782-1.613281-.5625-1.480469-.882812-1.597656-1.980468-.734375-1.800782 1.417969-4.652344 2.191406-5.382813 1.457031-.207031-.203125-.738281-.105468-1.671875.308594-1.535156.675781-2.359375.480469-2.71875-.648438-.195312-.617187-.21875-.609374-.644531.222657-.484375.953125-1.527344 2.183593-1.851563 2.183593-.117187 0 .242188-1.226562.796876-2.71875Zm-5.617188 1.558594c-.453125-.730469 1.070312-4.125 2.386719-5.332032 1.917969-1.761718 2.828125-1.195312 2.554687 1.585938-.222656 2.289062-.566406 2.710937-.765625.941406-.082031-.742188-.242187-1.445312-.355469-1.558594-.296874-.292968-1.578124 1.390625-1.785156 2.347656C82 192.960938 81 194.394531 80.582031 194.394531c-.140625 0-.332031-.125-.425781-.277343Zm55.445312-17.414063c-.359374-.171875-.925781-.878906-1.257812-1.5625l-.605469-1.25-2.039062-.113281c-1.125-.066406-2.195313-.269532-2.382813-.457032-.210937-.214843-.507812-2.953124-.785156-7.25-.605469-9.511718-.910156-9.125 7.796875-9.800781 3.445313-.265625 5.894531-.582031 6.027344-.777343.117187-.179688.300781-.816407.402343-1.421876.222657-1.316406.839844-1.964843 1.371094-1.433593.234375.234375.332032 1.21875.285156 2.914062-.042968 1.402344-.105468 5.757813-.148437 9.671875-.074219 6.886719-.097656 7.136719-.722656 7.765625-.464844.464844-.75.558594-1.027344.339844-.707031-.550781-2.15625.121094-2.996094 1.390625-.746093 1.125-2.328125 2.363281-2.96875 2.320312-.160156 0-.585937-.160156-.949219-.335937Zm-2.808593-5.460937c.25-.160157.269531-.546876.078125-1.390626-.148438-.640624-.273438-2.449218-.28125-4.019531 0-2.613281.046875-2.886719.617187-3.191406 1.035157-.554687 1.578125.375 1.992188 3.398437.195312 1.457032.496093 3.207032.671875 3.894532.296875 1.195312.355468 1.25 1.425781 1.25h1.117187l.75-2.277344c1.089844-3.296875 2.234376-8.253906 2.234376-9.671875 0-1.015625-.085938-1.199219-.515626-1.089844-.28125.074219-2.691406.226563-5.359374.339844l-4.847657.210937v1.320313c.027344 1.945313.421875 8.765625.601563 10.210937.15625 1.257813.625 1.574219 1.5 1.015626Zm8.804687-.996094c-.09375-.234375-.160156-.164063-.175781.179687 0 .308594.054687.480469.152344.382813.101562-.097656.109375-.351563.03125-.5625Zm-36.746094-.710938c-.128906-.339844-.390624-.417968-.925781-.285156-.574219.144531-.933593 0-1.566406-.628906-.648437-.644532-1.097656-.816406-2.117187-.824219-.710938 0-1.558594-.097656-1.882813-.214844-.460937-.160156-.726563 0-1.25.8125-.8125 1.25-1.722656 1.355469-2.144531.242188-.328125-.855469-.148438-1.160157.75-1.324219.46875-.085938.589844-.339844.589844-1.226562 0-.820313.183593-1.273438.675781-1.675782.921875-.746094 1.527343-.441406 1.527343.773438 0 1.066406.632813 1.675781 2.128907 2.042968l.808593.199219v-1.75c0-1.863281.675782-2.976562 1.59375-2.625.355469.136719.402344.609375.261719 2.640625-.199219 2.792969.160157 3.488282 1.148438 2.230469 1.25-1.597656 1.449219-1.765625 1.929687-1.671875.378906.074219.476563.34375.40625 1.089844l-.101562.984375.894531-.554688c.496094-.304687 1.617187-1.066406 2.5-1.6875 1.683594-1.195312 2.386719-1.195312 2.15625 0-.152344.804688 0 .851563.796875.25.792969-.601562 1.339844-.542969 1.339844.144531 0 1.273438-2.980469 2.839844-4.09375 2.148438-.40625-.253906-.8125-.144531-1.953125.527344-1.613281.953125-3.1875 1.128906-3.472657.386718Zm-20.746093-.578125c-.15625-.414062-.285157-.949219-.285157-1.1875 0-.320312-.273437-.226562-1.027343.34375-1.304688.996094-2.304688.816407-2.761719-.5-.433594-1.234375-.414062-4.160156.027344-4.601562.746094-.746094 1.070312-.347657 1.273437 1.546875.109375 1.046875.378907 2.136718.589844 2.425781.359375.488281.46875.445313 1.5625-.617187 1.488281-1.449219 2.097656-1.300782 2.097656.511718 0 1.671875.546875 2.183594 1.59375 1.496094.414063-.269531.753907-.582031.753907-.699219 0-.390625 1.203124-1.488281 1.628906-1.488281.234375 0 .429687.195312.429687.441406 0 .582032.265625.550782 1.304688-.132812.996093-.660156 1.339843-.554688 1.339843.421875 0 .476562.191407.726562.597657.792969.328125.050781.605469.222656.613281.386718.03125.390625-2.4375.800782-2.777344.460938-.152344-.152344-.609375-.140625-1.105468.03125-.464844.160156-1.011719.238281-1.214844.160156-.207032-.070312-.863282.117188-1.464844.417969-1.605469.804687-2.820312.722656-3.175781-.210938Zm34.667969-.878906c-.421876-1.101563-.371094-1.28125.480468-1.667969.683594-.308594.835938-.269531 1.34375.359375.484375.601563.65625.65625 1.136719.355469.3125-.191406.828125-.511719 1.140625-.707031.695312-.429688 1.015625-.183594.773438.589843-.125.382813-.808594.773438-2.09375 1.199219-2.394532.785157-2.4375.785157-2.78125-.128906Zm-3.929688-.589844c-.230469-.601562.308594-1.59375.867188-1.59375.394531 0 1.011718 1.085938 1.011718 1.78125 0 .472657-1.6875.308594-1.878906-.1875Zm17.027344-15.855469c-.398438-.425781-.902344-1.328124-1.128906-2-.355469-1.082031-.539063-1.253906-1.558594-1.464843-2.511719-.527344-2.597656-.582031-2.820313-1.824219-.113281-.640625-.214843-3.820312-.222656-7.0625-.03125-6.324219.082031-6.816406 1.460937-7.046875.398438-.066406 1.386719-.25 2.191407-.40625.808593-.15625 2.261719-.289063 3.234375-.304687.96875 0 2.445312-.097657 3.277344-.199219 1.429687-.171875 1.527343-.238281 1.695312-1.132813.417969-2.214844 2.28125-2.460937 2.460938-.324218.070312.835937.257812 1.148437.808593 1.355468l.714844.277344v7.351562c0 7.054688-.027344 7.375-.609375 7.964844-.335938.335938-.792969.539063-1.019531.453125-.226563-.089843-.871094.035157-1.4375.269531-.5625.234376-1.394531.429688-1.847657.429688-.714843 0-.886718.179688-1.320312 1.410156-.535156 1.496094-1.425781 2.507813-2.5 2.835938-.492188.148437-.835938 0-1.378906-.582032Zm-2.417969-6.53125c-.113281-.441406-.367187-1.535156-.5625-2.425781l-.359375-1.613281-.03125 1.503906c-.039062 2.035156.253906 3.34375.75 3.34375.300781 0 .351562-.214844.203125-.808594Zm5.042969-1.027343c1.292968-4.308594 2.832031-10.269531 2.6875-10.410157-.089844-.089843-2.152344-.066406-4.582032.050782-4.726562.230468-4.75.238281-4.15625 1.742187.152344.394531.285157.460938.433594.222657.121094-.191407.527344-.347657.910156-.347657.828126 0 1.027344.523438 1.925782 4.996094.976562 4.875 1.113281 5.289063 1.75 5.289063.429687 0 .679687-.375 1.03125-1.542969Zm5.121094-3.378907v-4.921874l-1.300782 4.554687c-.714844 2.503906-1.304687 4.644531-1.308594 4.757813 0 .113281.496094.253906 1.101563.316406.605469.066406 1.199219.136718 1.320313.164062.121093.03125.210937-2.164062.203124-4.871094Zm-43.105469 1.695313c-.277344-.484375-.699219-.847656-.941407-.808594-.28125.042969-.472656-.210937-.53125-.695312-.066406-.574219.179688-1 .984376-1.707031 1.503906-1.320313 2.023437-1.132813 2.132812.78125.082031 1.425781.144531 1.539062.820312 1.539062.40625 0 1.15625-.21875 1.675782-.488281.515625-.269531 1.335937-.527344 1.820312-.566407 3.386719-.300781 3.609375-.402343 4.726563-2.085937 1.710937-2.578125 2.628906-2.488281 2.09375.207031-.390625 1.957032-.378907 1.9375-.941407 1.46875-.382812-.316406-.617187-.207031-1.5.699219-.894531.925781-1.179687 1.058594-1.976562.910156-.628906-.117187-1.789062.121094-3.574219.722657-3.417969 1.148437-4.140625 1.15625-4.789062.03125Zm16.800781.132813c-.714844-1.089844-.410156-4.183594.480469-4.910157.351562-.285156.75-.449219.882812-.367187.128907.082031.164063 1.148437.070313 2.375-.167969 2.207031-.164063 2.230468.519531 2.128906.449219-.066406.949219-.558594 1.457031-1.421875 1.007813-1.730469 1.761719-1.917969 1.761719-.445313v1.074219l.851563-.609375c1.121093-.796875 1.5-.765625 1.5.125 0 .5625-.25.832032-1.066407 1.175782-1.242187.519531-2.34375.574218-2.621093.125-.125-.207032-.414063-.113282-.824219.257812-.714844.652344-1.765625 1.234375-2.21875 1.234375-.167969 0-.527344-.335937-.792969-.742187Zm-34.335938-1.132813c-.621093-.625-.738281-1.015625-.738281-2.457031 0-1.691406.328125-2.425782 1.085938-2.425782.25 0 .382812.402344.382812 1.15625 0 2.730469 1.117188 3.40625 2.847657 1.722657 1.101562-1.0625 1.46875-.914063 1.609374.648437.085938.941406.164063 1.019532.957032.933594.761718-.082031.8125-.039062.464844.382812-.261719.3125-.75.445313-1.445313.386719-.839844-.074219-1.078125-.226562-1.148437-.75l-.09375-.660156-.9375.699219c-1.503907 1.128906-2.140626 1.203125-2.984376.363281Zm12.332032.40625c-.226563-.367187.488281-1.902344.871094-1.867187.15625.027343.421874.273437.585937.582031.167969.300781.425781.636719.570313.738281.292968.21875-.742188.839844-1.402344.839844-.242188 0-.523438-.132813-.625-.292969Zm-3.484375-1.027344c-.238281-.246093-.578125-.441406-.753907-.441406-.421874 0-.398437-.679687.039063-1.117187.632813-.632813 1.339844-.386719 1.730469.601562.203125.527344.429687 1.054688.492187 1.175781.21875.414063-1.0625.222657-1.507812-.21875Zm46.269531-16.113281c-.175781-.214844-.652344-1.140625-1.058594-2.054688l-.734375-1.667968h-2.722656c-1.496094 0-2.867187-.101563-3.046875-.21875-.234375-.160156-.222656-2.355469.042969-8.109375.304687-6.539063.453125-7.976563.84375-8.367188.347656-.347656 1.050781-.480469 2.601562-.488281 1.167969 0 4.175781-.042969 6.683594-.082031l4.550781-.066407.601563-1.667968c.660156-1.839844 1.429687-2.59375 1.894531-1.859375.453125.707031.347656 1.785156-.589844 5.832031-.789062 3.425781-.882812 4.3125-.882812 8.714844v4.894531l-.855469.859375c-.664063.660156-1.128906.855469-2.035156.855469-1.085938 0-1.203125.082031-1.515625 1.039062-.742188 2.253907-2.804688 3.5625-3.777344 2.390625Zm-2.808594-6.734375c-1.195312-4.121094-1.945312-7.46875-1.800781-8.054687.097656-.390626.511719-.859376.914063-1.046876 1-.453124 1.378906 0 2.027343 2.414063.285157 1.050781.902344 3.132813 1.378907 4.628906l.863281 2.71875h1.027343c.941407 0 1.074219-.109375 1.625-1.394531 1.046876-2.429688 2.609376-8.292969 2.609376-9.792969v-1.445312h-11.074219l-.1875 4.625c-.105469 2.546875-.191407 5.390625-.195313 6.320312v1.6875h1.503906c1.417969 0 1.492188-.035156 1.308594-.660156Zm8.757813.425781c.078125-.128906.039062-.402344-.09375-.613281-.167969-.273437-.273438-.210937-.390625.238281-.15625.589844.1875.855469.484375.375Zm-60.335938-.269531c-1.988281-.730469-3.472656-4.613281-2.050781-5.375.679688-.363281 1.167969-.164063 1.167969.472656 0 .835938 1.132812 2.648438 1.867187 2.984375.953125.433594 1.914063-.269531 2.679688-1.964844.832031-1.851562 1.417968-1.550781 1.6875.859376.050781.472656.265625.734374.59375.738281.835937 0 .726562.550781-.171875.867187-.722657.25-.917969.195313-1.398438-.394531l-.558593-.6875-.578126.695313c-.316406.378906-.582031.777343-.585937.878906 0 .175781-1.882813 1.160156-2.109375 1.113281-.054688 0-.300781-.097656-.542969-.1875Zm20.757813-.226563c-.238282-.238281-.488282-.59375-.554688-.792968-.09375-.273438-.445312-.234375-1.429687.140625-.726563.273437-1.863281.5-2.53125.5-1.039063 0-1.347657-.152344-2.082031-1.050781L93 115.597656 91.066406 116.5c-2.96875 1.390625-4.15625 1.117188-3.964844-.910156.074219-.75.246094-.996094.757813-1.070313.558594-.078125.660156.042969.660156.808594 0 1.003906.632813 1.21875 1.445313.484375.398437-.359375 1.867187-.988281 3.582031-1.535156.273437-.085938.902344.222656 1.476563.726562 1.519531 1.335938 2.667968 1.351563 4.023437.050782 1.261719-1.203126 1.730469-1.117188 2.398437.441406.359376.835937.753907 1.320312 1.074219 1.320312.933594 0 3.054688-1.230468 3.460938-2.007812 1.058593-2.039063 3.144531-2.800782 3.34375-1.222656.050781.402343.222656 1.230468.378906 1.835937.242187.933594.40625 1.105469 1.082031 1.101563.4375 0 1.191406-.265626 1.675782-.585938 1.113281-.738281 1.617187-.746094 1.617187-.027344 0 .917969-.421875 1.074219-3.730469 1.382813-1.796875.167969-1.828125.15625-2.382812-.753907-.511719-.84375-.59375-.878906-.96875-.429687-.65625.796875-3.835938 2.164063-5.015625 2.164063-.59375 0-1.277344-.195313-1.515625-.433594Zm14.539062-1.292968c-.3125-.195313-.257812-.378906.277344-.878906.726562-.675782 1.90625-.835938 2.09375-.277344.121094.351562.578125.226562 1.4375-.390625.257812-.1875.695312-.257813.96875-.152344.722656.277344.121094 1.230469-1.042969 1.632813-1.101562.386718-3.175781.417968-3.734375.066406Zm16.523438-23.660156c-.207032-.546876.332031-9.371094.921875-15.015626.234375-2.261718.429687-4.195312.429687-4.300781 0-.097656-.976562-.328125-2.175781-.507812-3.398437-.503907-4.332031-1.128907-3.265625-2.195313.335938-.335937.675781-.367187 1.539062-.148437.613282.15625 3.460938.269531 6.335938.257812 5.558594-.027343 5.941406.082031 5.242188 1.390625-.25.460938-.761719.605469-2.742188.773438-1.335938.109375-2.511719.296875-2.613281.40625-.230469.265625-1.148438 12.121094-1.164063 15.050781 0 1.210937-.105468 2.734375-.222656 3.378906-.183594 1.058594-.296875 1.183594-1.160156 1.265625-.644532.066406-1.007813-.046875-1.125-.355468Zm-46.386719-.164063c-1.453125-.117187-3.601563-.394531-4.773437-.617187l-2.128907-.402344v-3.125c0-3.578125 1.300781-15.75 1.800781-16.847656.355469-.785157 1.007813-1.171876 1.480469-.882813.296875.1875.226563 1.453125-.484375 8.785156-.222656 2.261719-.488281 5.394531-.589844 6.960938-.179687 2.726562-.15625 2.859375.464844 3.195312.375.199219 2.664063.425781 5.378906.53125 4.472657.175781 4.734376.21875 4.8125.792969.210938 1.476562-1.605468 1.96875-5.960937 1.609375Zm12.066406-.796875c-.105469-.269531-.117187-1.03125-.03125-1.6875.085938-.664062.414063-3.117188.730469-5.460938.3125-2.347656.714844-5.914062.898438-7.933593.324218-3.640625.753906-4.996094 1.585937-4.996094.21875 0 .476563.289063.566406.648437.226563.859376-.261719 7.21875-.988281 12.816407-.316406 2.476562-.582031 4.878906-.582031 5.34375 0 1.445312-1.726563 2.453125-2.179688 1.269531Zm15.546875-.195312c-1.871094-.484376-2.59375-.882813-3.355468-1.847657-.84375-1.074219-.785157-2.5.152343-3.613281.417969-.5.859375-.90625.976563-.90625.117187 0 .40625.625.632812 1.386719.601563 1.976562 1.65625 2.527343 5.171875 2.679687 2.703125.117188 2.722657.113282 3.609375-.777344.492188-.492187.894532-1.089843.894532-1.328124 0-.730469-1.613282-1.851563-3.878907-2.707032-6.144531-2.316406-7.765625-4.390625-6.589843-8.40625 1.332031-4.558594 6.488281-6.578125 8.917968-3.496094.710938.90625.285156 2.667969-.640625 2.652344-.167969 0-.503906-.425781-.746093-.941406-.261719-.550781-.777344-1.039062-1.265626-1.195312-2.289062-.738282-4.328124.933593-4.53125 3.707031-.203124 2.734375.878907 3.671875 6.519532 5.652343 4.265625 1.503907 5.292968 3.328126 3.492187 6.214844-1.652343 2.65625-5.617187 3.890625-9.359375 2.925782ZM81.78125 65.886719c-.527344-1.390625 1.0625-13.34375 2.332031-17.535157.289063-.953124.449219-1.804687.359375-1.894531-.089844-.089843-1.183594-.164062-2.425781-.164062-2.667969 0-3.375-.433594-2.363281-1.449219.574218-.570312.9375-.605469 6.410156-.605469 8.769531 0 10.085938.296875 8.488281 1.894531-.667969.667969-.796875.6875-4.371093.53125l-3.683594-.160156-.488282 2.148438c-.710937 3.136718-1.234374 6.890625-1.671874 12.007812-.300782 3.554688-.5 4.671875-.925782 5.214844-.695312.882812-1.324218.886719-1.660156 0Zm49.109375-.820313c-2.246094-1.113281-3.59375-3.378906-3.59375-6.050781 0-1.90625 1.074219-5.527344 2.378906-8.039063 1.902344-3.65625 4.582031-6.277343 5.035157-4.925781.082031.261719.507812.265625 1.789062 0 3.875-.777343 5.773438 1.425781 5.777344 6.710938 0 4.035156-1.464844 7.816406-4.042969 10.390625-2.488281 2.488281-4.898437 3.113281-7.34375 1.90625Zm5.25-2.398437c1.320313-.886719 2.800781-3.132813 3.378906-5.136719.261719-.882812.476563-2.703125.484375-4.042969.027344-4.015625-1.167968-5.699219-4.351562-6.164062-1.667969-.242188-2.425782.296875-3.707032 2.640625-2.6875 4.914062-3.089843 10.046875-.941406 11.957031 1.707032 1.519531 3.578125 1.789063 5.136719.746094Zm-21.976563 2.148437c-.144531-.566406-.285156-.601562-1.519531-.398437-.746093.125-1.886719.230469-2.53125.234375-.988281 0-1.191406-.09375-1.269531-.632813-.117188-.824219.605469-1.210937 3.128906-1.675781l1.957032-.359375.214843-2.191406c.335938-3.429688 1.679688-9.378907 2.730469-12.09375.144531-.367188 0-.546875-.546875-.6875-.40625-.101563-.945313-.414063-1.203125-.699219-.425781-.46875-.417969-.550781.066406-.992188.660156-.597656 1.953125-.308593 4.746094 1.070313 4.78125 2.355469 7.203125 6.980469 5.597656 10.707031-1.0625 2.472656-4.183594 4.851563-7.785156 5.941406-.851562.253907-1.296875.605469-1.617188 1.28125-.542968 1.144532-1.71875 1.445313-1.96875.496094Zm5.433594-4.46875c1.898438-.707031 4.019532-2.605468 4.34375-3.890625.566406-2.269531-1.222656-5.722656-3.886718-7.488281l-1.402344-.929688-.257813.667969c-.566406 1.488281-1.695312 7.496094-1.871093 9.996094l-.191407 2.667969.796875-.203125c.4375-.105469 1.546875-.480469 2.46875-.820313Zm-22.03125 3.285156c-1.21875-.367187-2.539062-1.414062-3.085937-2.449218-1.460938-2.769532.507812-9.902344 3.714843-13.449219.808594-.902344 1.433594-1.257813 2.75-1.59375.9375-.242187 1.996094-.433594 2.351563-.433594 1.210937 0 2.457031 1.066407 3.332031 2.839844.761719 1.558594.839844 1.996094.839844 4.8125 0 2.996094-.039062 3.179687-1.109375 5.347656-2.050781 4.144531-5.3125 5.976563-8.792969 4.925781Zm4.949219-2.625c2.210937-1.347656 3.449219-6.589843 2.335937-9.917968-.707031-2.125-1.566406-3.039063-3.03125-3.234375-1.71875-.230469-2.503906.367187-3.757812 2.851562-1.855469 3.6875-2.355469 6.875-1.390625 8.8125.949219 1.902344 3.925781 2.660157 5.84375 1.488281Zm44.464844 291.027344c0-.074218-.644531-.132812-1.429688-.132812-1.371093 0-1.441406.042968-1.617187.917968-.101563.507813-.183594 1.578126-.183594 2.382813v1.464844l1.617188-2.253907c.886718-1.238281 1.613281-2.308593 1.613281-2.378906ZM281.128906 209.9375c.816406-.675781 1.886719-3.449219 2.226563-5.777344.417969-2.878906.085937-4.988281-1.105469-7.023437-.746094-1.273438-.785156-1.296875-1.464844-.847657-.636718.414063-.722656.410157-.976562-.042968-.621094-1.113282-3.707032 1.984375-5.089844 5.109375-.84375 1.914062-.890625 4.878906-.09375 6.234375 1.371094 2.324218 4.964844 3.625 6.503906 2.347656Zm-5.488281-12.800781c1.363281-1.449219 3.679687-3.035157 4.433594-3.035157.269531 0 1.949219-1.046874 3.738281-2.324218 4.757812-3.40625 8.402344-5.824219 18.035156-11.949219 4.742188-3.015625 11.261719-7.296875 14.496094-9.515625 3.230469-2.222656 6.832031-4.609375 8.003906-5.304688 1.171875-.695312 2.128906-1.34375 2.125-1.4375 0-.425781-25.347656-25.324218-39.949218-39.265624-6.09375-5.816407-15.90625-14.976563-16.136719-15.0625-1.027344-.382813-1.519531 46.925781-.621094 59.734374.695313 9.894532 2.511719 30.160157 2.832031 31.578126.148438.671874.214844.625.984375-.695313.453125-.777344 1.382813-2.003906 2.058594-2.722656Zm3.558594-108.945313c8.320312-1.734375 16.199219-6.035156 21.101562-11.53125 4.074219-4.5625 7.90625-11.515625 9.289063-16.851562.753906-2.894532.878906-4.378906.859375-10.132813-.03125-4.992187-.070313-5.492187-.957031-8.816406-1.480469-5.550781-3.003907-9.011719-5.875-13.375-5.375-8.140625-16.378907-15.816406-25.511719-17.792969C271.871094 8.34375 263.699219 8.46875 258.128906 10l-1.421875.390625 1.320313.03125c.730468.03125 1.519531.152344 1.761718.308594.910157.578125-.273437.992187-3.445312 1.210937-10.039062.691406-18.121094 6.980469-23.582031 18.335938-2.707031 5.640625-3.925781 10.332031-4.4375 17.136718-.632813 8.398438.429687 14.453126 3.554687 20.246094 3.613282 6.703125 10.21875 12.527344 19.097656 16.84375 6.628907 3.222656 11.585938 4.324219 19.683594 4.367188 4.367188.027344 5.652344-.082032 8.539063-.679688Zm-33.363281-17.039062c-2.976563-.683594-4.109376-1.03125-4.648438-1.421875-.441406-.324219-.457031-.453125-.113281-.925781.390625-.53125.480469-.523438 3.167969.121093 8.222656 1.980469 27.148437.113281 37.070312-3.65625 2.914062-1.105469 6.175781-2.832031 9.179688-4.851562 2.800781-1.886719 3.667968-2.167969 3.667968-1.195313 0 1.09375-6.464844 5.328125-10.980468 7.1875-7.570313 3.125-17.414063 4.824219-29.117188 5.03125-4.785156.085938-6.921875 0-8.226562-.289062Zm9.980468-21.21875c-1.195312-1.292969-1.902344-3.65625-1.898437-6.371094 0-3.03125.378906-4.402344 1.558593-5.671875 1.351563-1.453125 2.496094-1.585937 3.792969-.441406 1.597657 1.402343 2.367188 3.503906 2.382813 6.492187 0 3.113282-.402344 4.375-1.878906 5.710938-1.476563 1.335937-2.886719 1.433594-3.957032.28125Zm12.050782-2.261719c-1.3125-1.3125-1.714844-2.960937-1.527344-6.226563.179687-3.125.820312-5.121093 2.023437-6.328124 1.640625-1.636719 3.210938-1.4375 4.566407.578124 1.023437 1.515626 1.328124 3.117188 1.207031 6.332032-.125 3.382812-.699219 4.871094-2.296875 5.953125-1.441406.984375-2.789063.878906-3.972656-.308594Zm-20.570313-11.96875c-.273437-.441406.582031-1.632813 2.628906-3.6875 2.246094-2.242187 6.496094-5.410156 7.269531-5.410156 1.148438 0 .382813 1.003906-2.398437 3.15625-1.539063 1.191406-3.71875 3.078125-4.855469 4.203125-2.144531 2.125-2.332031 2.246094-2.644531 1.738281Zm28.347656-8.347656c-1.253906-.6875-4.414062-1.597657-7.175781-2.070313-2.742188-.46875-3.316406-.730468-2.941406-1.339844.328125-.527343 5.34375-.152343 8.027344.601563 3.347656.941406 5.378906 2.152344 4.898437 2.929687-.265625.425782-1.921875.355469-2.808594-.121093ZM152.195312 37.609375c3.515626-.796875 7.121094-3.1875 7.121094-4.707031 0-.78125-.777344-1.082032-4.257812-1.636719-2.488282-.398437-7.890625-.152344-10.097656.453125-5.023438 1.382812-7.089844 3.96875-3.855469 4.816406.566406.148438.996093.421875.957031.601563-.042969.183593.226562.40625.589844.496093 3.054687.769532 6.109375.761719 9.542968-.027343ZM47.390625 355.792969c-1.277344-2.929688-.691406-6.363281 1.355469-7.976563.972656-.765625 2.171875-.824218 2.164062-.101562 0 .746094-.414062 1.277344-1.050781 1.367187-.347656.050781-.695313.484375-.910156 1.132813-.332031.984375-.523438 4.757812-.324219 6.363281.164062 1.320313-.5.898437-1.234375-.785156Zm115.492187-10.394531c-.027343-3.269532-.132812-6.25-.226562-6.625-.199219-.796876.324219-1.5625 1.066406-1.5625.621094 0 .875 1.25.882813 4.359374 0 2.207032-1.042969 9.121094-1.445313 9.535157-.121094.128906-.246094-2.441407-.277344-5.707031ZM69.242188 37.90625c.148437-3.214844.824218-4.859375 2.699218-6.582031 1.242188-1.148438 2.777344-1.605469 3.179688-.945313.285156.457032-.675782 1.4375-1.574219 1.613282-.652344.132812-1.132813.558593-1.777344 1.574218-1.0625 1.675782-2.050781 4.230469-2.058593 5.316406 0 .441407-.132813.996094-.296876 1.238282-.207031.308594-.261718-.367188-.171874-2.214844Zm0 0"/>
  </g>
  <g clip-path="url(#b)">
    <path d="M89.84375 371.519531c-2.515625 0-5.691406-.035156-8.863281.003907-10.398438.132812-20.792969.25-31.191407.457031-3.585937.074219-7.175781.03125-10.757812.25-3.945312.242187-7.898438.347656-11.84375.625-1.917969.136719-3.851562.191406-5.777344-.007813-.367187-.039062-.730468-.09375-1.039062-.304687-.238282-.160157-.402344-.382813-.277344-.679688.121094-.292969.367188-.265625.621094-.195312.792968.222656 1.601562.121093 2.402344.097656 4.316406-.128906 8.617187-.539063 12.933593-.726563 10.804688-.46875 21.613281-.589843 32.429688-.429687 5.390625.078125 10.785156-.125 16.179687-.101563h.074219c4.90625.042969 9.808594-.222656 14.710937-.273437 6.542969-.066406 13.082032-.089844 19.625-.144531 4.488282-.039063 8.980469-.117188 13.472657-.164063 3.171875-.03125 6.34375-.074219 9.515625.0625 2.636718.117188 5.273437-.09375 7.90625-.074219.488281 0 .976562-.019531 1.464844-.007812.636718.015625.988281.277344 1.007812.722656.023438.453125-.320312.742188-.953125.777344-.585937.035156-1.171875.066406-1.753906.058594-2.441407-.023438-4.882813.136718-7.324219.050781-6.195312-.21875-12.394531-.230469-18.59375-.195313-4.515625.027344-9.03125.132813-13.546875.09375-6.589844-.058593-13.179687-.136718-20.421875.109376Zm0 0"/>
  </g>
  <g clip-path="url(#c)">
    <g clip-path="url(#d)">
      <g clip-path="url(#e)">
        <path d="M252.804688 372.328125c-3.90625-.074219-8.828126-.21875-13.75-.253906-16.128907-.101563-32.25-.226563-48.382813-.210938-5.5625.003907-11.128906-.167969-16.691406.066407-6.125.257812-12.257813.304687-18.386719.621093-2.980469.152344-5.980469.183594-8.960938-.1875-.566406-.070312-1.128906-.164062-1.601562-.5-.363281-.257812-.609375-.609375-.410156-1.066406.195312-.449219.578125-.398437.96875-.285156 1.226562.371093 2.480468.238281 3.722656.226562 6.699219-.074219 13.382812-.582031 20.078125-.746093 16.773437-.40625 33.535156-.273438 50.304687.292968 8.363282.28125 16.734376.125 25.097657.320313h.113281c7.609375.214843 15.21875-.054688 22.824219.011719 10.148437.089843 20.289062.25 30.4375.355468 6.964843.074219 13.933593.085938 20.898437.148438 4.921875.046875 9.839844.070312 14.757813.378906 4.082031.253906 8.175781.011719 12.261719.117188.757812.011718 1.515624 0 2.273437.027343.984375.042969 1.523437.457031 1.542969 1.152344.019531.699219-.519532 1.144531-1.503906 1.179687-.910157.035157-1.820313.0625-2.726563.035157-3.78125-.109375-7.570313.070312-11.351563-.136719-9.605468-.523438-19.21875-.722656-28.832031-.851562-7.003906-.089844-14.011719-.0625-21.015625-.253907-10.214844-.289062-20.433594-.601562-31.671875-.4375Zm0 0"/>
      </g>
    </g>
  </g>
</svg>
