<svg xmlns="http://www.w3.org/2000/svg" version="1.0" viewBox="0 0 375 245.999995">
  <defs>
    <clipPath id="a">
      <path d="M0 1.5h375v243H0Zm0 0"/>
    </clipPath>
    <clipPath id="b">
      <path d="M7 243.152344h184v2.671875H7Zm0 0"/>
    </clipPath>
    <clipPath id="c">
      <path d="M189 243h181v2.769531H189Zm0 0"/>
    </clipPath>
  </defs>
  <g clip-path="url(#a)">
    <path d="M299.894531 244.277344c2.488281-.136719 3.898438-.347656 6.234375-.941406 13.019532-3.292969 23.78125-13.710938 27.109375-26.246094.671875-2.539063.867188-4.359375.867188-8.128906 0-6.921876-1.597657-12.625-5.167969-18.382813-2.707031-4.367187-6.414062-8.09375-11.03125-11.09375-.972656-.628906-1.792969-1.164063-1.824219-1.191406-.035156-.027344.101563-.535157.304688-1.132813.433593-1.277344.738281-3.085937 1.214843-7.167968.191407-1.640626.390626-3.058594.449219-3.148438.082031-.132812.402344.054688 1.421875.824219.03125.023437-.023437.53125-.125 1.128906-.101562.597656-.347656 2.828125-.542968 4.957031-.195313 2.128906-.402344 4.171875-.460938 4.539063-.082031.527343-.050781.652343.136719.585937.421875-.140625.753906-2.085937 1.277343-7.535156.152344-1.5625.335938-2.898438.40625-2.972656.070313-.074219.5.191406.953126.589844l.820312.726562-.109375 1.042969c-.253906 2.425781-.996094 7.3125-1.25 8.234375-.28125 1.03125-.242187 1.265625.1875 1.101562.488281-.1875 1.238281-3.585937 1.671875-7.558594.121094-1.113281.261719-2.023437.3125-2.019531.054688 0 .554688.414063 1.109375.914063 1.015625.90625 1.015625.90625.726563 1.347656-.515626.789062-1.25 9.238281-.824219 9.5.105469.066406.214843-.457031.285156-1.398438.0625-.828124.1875-1.933593.273437-2.457031.089844-.523437.273438-1.902343.410157-3.070312.136719-1.171875.292969-2.171875.351562-2.230469.054688-.054688.234375-.019531.394531.085938.371094.238281.359376.808593-.101562 4.703124-.433594 3.648438-.527344 5.371094-.292969 5.449219.261719.085938.726563-2.265625 1.058594-5.339843.191406-1.796876.339844-2.605469.429687-2.363282.1875.507813.457032.449219.519532-.113281l.054687-.472656.328125.488281c.324219.472656.324219.519531.027344 1.769531-.320312 1.367188-.957031 5.140625-1.011719 6.003907-.046875.792968.429688.652343.675781-.199219.113282-.390625.378907-1.996094.589844-3.5625.210938-1.570313.445313-2.816407.523438-2.769531.074218.046874.421875.550781.765625 1.121093.628906 1.035157.628906 1.039063.4375 2.101563-.105469.589844-.386719 2.230468-.621094 3.652344-.238281 1.417968-.523437 2.757812-.632813 2.972656-.160156.316406-.148437.441406.074219.664062.25.25.300781.230469.550781-.257812.277344-.535156.832032-3.441406 1.054688-5.53125.183594-1.710938.289062-1.730469 1-.175782l.636719 1.398438-.425781 1.925781c-.234376 1.058594-.523438 2.566407-.636719 3.347657-.144531.957031-.289063 1.417968-.441407 1.417968-.164062 0-.230468.277344-.230468.945313 0 .742187.058594.949219.269531.949219.421875 0 .703125-.925782 1.269531-4.210938.292969-1.695312.566406-3.117188.609375-3.160156.125-.125.8125 1.558594.835938 2.035156.015625.238281-.167969 1.574219-.390625 2.96875-.292969 1.816406-.472656 2.539062-.640625 2.539062-.171875 0-.234375.292969-.234375 1.117188 0 .867188.058594 1.117188.253906 1.117188.40625 0 .59375-.542969.957031-2.789063.191407-1.160156.40625-2.464844.480469-2.886719l.132812-.773437.390626 1.160156c.378906 1.113281.382812 1.207031.136718 2.320313-.140625.640624-.304687 1.664062-.363281 2.28125-.058594.613281-.195313 1.601562-.304687 2.195312-.148438.8125-.148438 1.128906 0 1.277344.300781.300781.53125-.484375.914062-3.117188.183594-1.273437.363281-2.339844.398438-2.375.03125-.035156.183593.292969.332031.726563.25.734375.242187.925781-.082031 2.71875-.195313 1.058593-.421876 2.058593-.507813 2.21875-.230469.429687-.191406 1.101562.078125 1.328125.390625.324218.636719-.1875.9375-1.957032.175781-1.027343.355469-1.636718.488281-1.636718.117188 0 .296875-.136719.402344-.304688.214844-.332031.148437.679688-.195313 3.117188-.160156 1.105468-.28125 1.4375-.6875 1.851562-.488281.503906-.640624 1.070313-.332031 1.261719.085938.054687.207031.023437.265625-.074219.0625-.097656.25-.175781.421875-.175781.167969 0 1.210938-.542969 2.308594-1.203125 1.996094-1.203125 2.34375-1.355469 2.34375-1.035156 0 .097656.117187.171875.257813.171875.171874 0 .257812-.171875.257812-.515625 0-.28125.078125-.515625.171875-.515625s.171875.078125.171875.171875.117188.171875.257812.171875c.171876 0 .257813-.167969.257813-.496094 0-.636719.40625-.796875.769531-.308594.273438.371094.277344.367188.191406-.175781-.078124-.492188-.019531-.605469.589844-1.035156.71875-.507813.8125-.710938.480469-1.046875-.300781-.300781-.617187-.253907-1.210937.167969-.507813.359374-.53125.363281-.757813.054687-.128906-.179687-.234375-.375-.234375-.441406 0-.144531 6.335938-.417969 6.46875-.277344.054688.050781.417969 0 .8125-.132813.390625-.121093 2.398438-.734374 4.457031-1.363281 2.058594-.628906 4.765625-1.542969 6.015625-2.03125 2.769532-1.078125 9.070313-4.210937 11.300782-5.617187 1.179687-.742188 1.691406-.980469 1.847656-.855469.117187.097656.339844.128906.492187.070313.25-.097657.269531-.394532.15625-2.75l-.121093-2.644532.671874-.378906c.40625-.226562.757813-.597656.890626-.925781.304687-.769531.484374-11.03125.210937-12.300781-.242187-1.128907-.921875-2.601563-1.457031-3.148438l-.398438-.410156-.222656-11.167969c-.121094-6.242187-.191406-16.902344-.15625-24.171875l.0625-13.007812-1.234375-4.300782c-1.398437-4.875-2.117187-7.546875-3.75-13.933594-3.019531-11.832031-7.71875-28.5625-11.464844-40.835937-1.1875-3.894531-4.226562-13-8.734375-26.179687-1.148437-3.363282-2.746094-8.238282-3.550781-10.839844-.804687-2.605469-1.65625-5.199219-1.894531-5.765625-.238282-.570313-.566406-1.496094-.730469-2.066407-.410156-1.417968-.726563-1.964843-1.796875-3.128906-.511719-.550781-.957031-1.152344-.992188-1.34375-.054687-.277344-.25-.363281-1.011718-.453125-.515625-.058593-1.871094-.230469-3.003906-.382812-2.390626-.316407-13.179688-1.21875-17.710938-1.480469-12.269531-.714844-35-.714844-49.855469 0-13.015625.621094-15.285156 1.019531-16.691406 2.941406-.332031.449219-.726563 1.1875-.878906 1.644532-.15625.457031-.347657.875-.425781.925781-.082032.058593-.148438 29.929687-.144532 67.613281 0 37.128906-.046875 69.003906-.109375 70.828125l-.113281 3.320313h-1.5c-2.074219 0-2.605469.125-2.539062.585937.039062.273437.175781.363281.566406.371094.285156 0 1.195312.027343 2.019531.042969l1.503906.035156v2.769531l-1.375-1.210937c-1.300781-1.152344-1.832031-1.46875-1.679687-1.011719.039062.109375.722656.753906 1.519531 1.425781 1.386719 1.175781 1.453125 1.261719 1.492187 1.992188l.042969.765624-.292969-.429687c-.414062-.613281-1.832031-1.941406-3.1875-2.980469l-1.160156-.886718v-14.386719c0-13.484375-.019531-14.402344-.300781-14.648438-.164063-.148437-.53125-.308593-.816406-.359375-.28125-.054687-39.71875-.121094-87.640625-.148437l-87.121094-.054688-.042969 24.171875-.042969 24.175782-.359374.050781c-.347657.050781-.351563.074219-.085938.640625.261719.558594.320312.589844 1.179688.59375.882812 0 .902343.015625.925781.519531.019531.285156.035156.613281.042969.734375.019531.117188-.0625.199219-.164063.179688-.101563-.015626-1.019531-.121094-2.035156-.230469-2.101563-.226563-2.429688-.125-1.871094.585937.488281.621094.808594 2.730469.671875 4.453125-.0625.78125-.15625 2.007813-.21875 2.726563-.09375 1.207031-.074219 1.328125.265625 1.570312.25.175782.574219.222656 1.011719.152344.351562-.058594.929687-.082031 1.285156-.050781.546875.042969.644531.113281.644531.460937 0 .445313.40625.945313.773438.945313.152343 0 .265625-.320313.335937-.988281.054688-.542969.1875-1.726563.285156-2.625.105469-.898438.160157-3.144532.125-4.988282l-.0625-3.355468 6.320313-.042969c3.585937-.027344 6.316406.019531 6.316406.105469 0 .230468-2.308593 2.375-3.953125 3.667968-.800781.636719-2.652344 2.070313-4.105468 3.183594-2.59375 1.992188-4.457032 3.820312-4.246094 4.164062.070312.113282.273437.089844.574218-.058593.261719-.128907.746094-.34375 1.074219-.484375.332031-.136719 1.671875-1.082032 2.984375-2.101563l2.382813-1.847656 1.277343 1.269531c.703126.695313 1.601563 1.6875 1.996094 2.210938.898438 1.195312 1.523438 1.890625 1.707032 1.890625.074218 0 .140624-.171875.136718-.386719 0-.703125-.992187-2.128906-2.65625-3.835938-.90625-.925781-1.585937-1.742187-1.515625-1.808593.074219-.066407.828125-.695313 1.683594-1.402344.847656-.703125 1.652344-1.410156 1.78125-1.570313.128906-.15625.289063-.285156.355469-.285156.066406 0 .886718.660156 1.828125 1.46875 1.558593 1.34375 2.652343 2.519532 2.652343 2.851563 0 .070312-.25.152343-.558593.183593-.886719.085938-.652344.394532.34375.453126.992187.054687 1.199219-.128907 1.007812-.902344-.164062-.640625-1.71875-2.238282-3.3125-3.394532-.789062-.574218-1.4375-1.082031-1.4375-1.128906s.195313-.316406.429688-.59375c.503906-.597656.539062-.941406.148437-1.375-.273437-.304687.09375-.316406 11.476563-.316406h11.765625l1.265625 1.273438 1.261719 1.269531-2.042969.070312-2.039063.070313-.773437-.671875c-.421875-.367188-.910157-.742188-1.074219-.828125-.519531-.28125-.347656.214844.304688.882812l.605468.625-1.566406.207032-1.570312.210937-.710938-.65625c-.84375-.773437-1.90625-1.59375-2.0625-1.59375-.328125 0-.03125.554687.617188 1.136719.964843.871094 1.015624 1.371094.160156 1.527344-2.78125.515624-8.222656 2.933593-11.359375 5.054687-6.152344 4.15625-12.050781 10.507813-15.203125 16.371094-1.722656 3.203125-2.972656 7.164062-3.488282 11.0625-.328124 2.472656-.234374 8.414062.167969 10.703125 1.515625 8.59375 6.558594 15.835937 14.378907 20.644531 3.929687 2.417969 7.757812 3.777344 14.269531 5.058594 3.78125.746093 5.335937.902343 8.855469.898437 3.398437 0 5.777343-.273437 8.496093-.964844 13.085938-3.316406 23.832031-13.707031 27.160157-26.257812.675781-2.542969.871093-4.363281.871093-8.132812 0-6.914063-1.597656-12.625-5.152343-18.363282-3.136719-5.058594-7.605469-9.265625-13.21875-12.445312-1.902344-1.078125-3.753907-1.875-6.4375-2.765625-2.023438-.671875-2.226563-.78125-2.492188-1.304688-.160156-.316406-.867188-1.074219-1.578125-1.6875s-1.316406-1.179687-1.347656-1.253906c-.03125-.078125 1.179687-.140625 2.6875-.140625 2.699219 0 2.753906 0 3.015625.410156.363281.558594 4.242187 3.253906 4.242187 2.945313 0-.128907-.671875-.765625-1.488281-1.410157-.820312-.644531-1.6875-1.34375-1.933594-1.550781l-.449218-.382812h10.761718l1.242188 1.171875c.675781.640625 2.742187 2.296875 4.585937 3.675781 1.84375 1.378906 3.542969 2.710937 3.769531 2.957031.578126.628906.980469.613282.589844-.019531-.609375-.988281-1.796875-2.054687-4.960937-4.445313-3.511719-2.660156-4.039063-3.082031-4.039063-3.238281 0-.054687 1.15625-.101562 2.574219-.101562h2.570313l1.339843 1.175781c.738281.644531 2.613281 2.128906 4.175781 3.292969 3.542969 2.65625 5.449219 4.195312 6.054688 4.886719.488281.558593.597656.445312.3125-.3125-.410156-1.070313-2.050781-2.484376-7.53125-6.488282-1.675781-1.222656-3.074219-2.300781-3.105469-2.390625-.035156-.101562.910157-.164062 2.433594-.164062h2.492187l1.351563 1.160156c.742187.636719 2.46875 1.929687 3.839844 2.867187 1.371093.941407 3.226562 2.222657 4.125 2.851563.894531.628906 1.921875 1.316406 2.273437 1.53125.351563.214844.832032.632813 1.066406.929687.441407.5625.769532.5625.464844 0-.410156-.769531-3.070312-3.03125-5.613281-4.765624-3.90625-2.671876-6.101563-4.265626-6.101563-4.433594 0-.078125 1.203126-.140625 2.667969-.140625h2.671875l1.757813 1.515625c.964843.835937 3.304687 2.691406 5.195312 4.128906 1.890625 1.433594 3.730469 2.851562 4.09375 3.144531.359375.296875.703125.488281.761719.429688.261719-.261719-2.429688-2.613281-6.574219-5.75l-4.46875-3.382813 2.472657-.050781L155.1875 171l1.222656 1.179688c1.328125 1.28125 2.304688 2.023437 6.71875 5.113281 1.609375 1.121093 3.371094 2.382812 3.921875 2.800781.550781.417969 1.050781.710938 1.109375.652344.058594-.058594 0-.210938-.140625-.335938-2.21875-2.058594-3.324219-2.96875-5.292969-4.363281-2.921874-2.070313-6.324218-4.625-6.46875-4.859375-.074218-.121094 3.164063-.175781 10.089844-.175781h10.199219l.652344.820312c.816406 1.03125 2.40625 2.191407 8.367187 6.089844 2.597656 1.703125 4.863282 3.21875 5.03125 3.367187.164063.148438.355469.214844.425782.148438.308593-.308594-2.886719-2.785156-7.378907-5.710938-1.789062-1.167968-3.800781-2.53125-4.472656-3.03125-.667969-.5-1.363281-1.015624-1.539063-1.144531-.175781-.132812-.320312-.304687-.320312-.386719 0-.085937 1.199219-.152343 2.667969-.152343 2.210937 0 2.664062.042969 2.664062.25 0 .476562 3.335938 3.078125 9.023438 7.039062 4.328125 3.007813 5.089843 3.472657 5.066406 3.074219-.015625-.230469-2.78125-2.417969-5.332031-4.214844-1.375-.96875-3.871094-2.730468-5.546875-3.914062l-3.050781-2.148438 7.523437-.046875 7.523437-.042969.621094.472657c3.71875 2.839843 8.765625 6.5 12.125 8.789062.863282.585938 1.707032 1.222657 1.875 1.410157.328125.359374.601563.449218.601563.191406 0-.085938-.761719-.824219-1.691407-1.640625-1.515624-1.328125-3.890624-3.097657-10.128906-7.535157-1.066406-.757812-1.980468-1.449218-2.03125-1.53125-.054687-.089843 1.171875-.152343 2.824219-.152343h2.917969l1 .832031c.554687.460938 2.589844 1.945312 4.53125 3.304688 4.304687 3.015624 6.78125 4.84375 7.519531 5.546874.304687.289063.609375.472657.683594.402344.234375-.238281-2.847657-2.964844-5.40625-4.78125-1.398438-.992187-3.625-2.574218-4.945313-3.511718l-2.410156-1.707032 2.378906-.050781c2.164063-.042969 2.398438-.015625 2.664063.285156.414062.480469 2.957031 2.304688 7.679687 5.523438 5.28125 3.59375 5.734375 3.914062 6.402344 4.539062.304688.285157.613281.464844.675781.398438.070313-.066407-.335937-.546875-.898437-1.070313-1.019532-.945312-3.25-2.542968-9.839844-7.046875-1.921875-1.3125-3.53125-2.445312-3.578125-2.523437s.96875-.140625 2.261719-.140625h2.34375l1.75 1.433593c1.902344 1.566407 7.585937 5.824219 9.910156 7.429688.804688.554688 1.753906 1.234375 2.117188 1.511719.355468.277343.699218.457031.757812.394531.0625-.058594.039062-.167969-.050781-.246094-1.195313-1.027344-3.816407-3.050781-7.980469-6.160156-2.789062-2.085938-5.179688-3.917969-5.308594-4.078125-.21875-.265625.304688-.285156 7.652344-.285156h7.882812l1.03125 1.046875c.570313.582031 3.003907 2.527344 5.417969 4.332031 6.171875 4.613281 6.148438 4.597656 6.398438 4.597656.414062 0-1.832031-1.890625-5.96875-5.015625-4.683594-3.539062-6.078125-4.648437-6.09375-4.839844 0-.070312 2.285156-.128906 5.089843-.117187l5.101563.015625 3.144531 3.015625c2.910156 2.796875 3.152344 3.070313 3.234375 3.734375.054688.390625.441407 3.5.867188 6.90625.421875 3.410156.859375 6.882812.972656 7.722656l.199219 1.527344.921875-.09375c.898437-.09375.925781-.082031 1.203125.449219.152344.300781.75 1.246093 1.324218 2.097656.578126.851563 1.070313 1.578125 1.09375 1.621094.027344.039062.097657.019531.15625-.042969.175782-.171875-.527343-1.710938-1.296874-2.847656-.386719-.570313-.703126-1.113282-.703126-1.210938 0-.09375.515626-.195312 1.148438-.222656 1.105469-.050781 1.152344-.066406 1.300781-.566406.085938-.285156.660157-1.816406 1.273438-3.402344l1.117187-2.882812 1.664063 1.765624c.914062.96875 2.160156 2.292969 2.773437 2.9375l1.113282 1.171876-.410157.769531c-.222656.421875-.464843.746093-.53125.71875-.070312-.023438-.402343-.378907-.738281-.78125-.855469-1.027344-3.84375-3.824219-4.09375-3.824219-.109375 0 .292969.527344.898438 1.171875.605468.644531 1.675781 1.816406 2.378906 2.601563l1.277344 1.425781-.414063.753906-.410156.753906-.425781-.554687c-.785157-1.035156-3.601563-3.824219-3.730469-3.695313-.070313.070313.144531.417969.480469.769531.773437.820313 3.238281 3.953126 3.238281 4.117188 0 .066406-.351563 1-.777344 2.066406-1.765625 4.414063-2.410156 8.289063-2.261719 13.644532.125 4.621093.636719 7.570312 1.84375 10.601562 3.335938 8.410156 10.253906 14.929688 19.242188 18.140625 2.269531.804687 3.839844 1.21875 7.566406 1.96875 4.417969.890625 7.523438 1.140625 11.519531.925781Zm-7.996093-1.582032c-3.585938-.261718-5.523438-.601562-8.617188-1.503906-12.332031-3.59375-20.734375-12.882812-22.074219-24.390625-.128906-1.109375-.171875-3.152343-.121093-5.5.09375-3.996093.382812-5.886719 1.402343-9.097656.523438-1.640625 1.804688-4.589844 2.421875-5.566406.234375-.375.429688-.722657.429688-.777344 0-.054687.476562-.808594 1.0625-1.679687 3.578125-5.339844 9.003906-10.664063 14.164062-13.914063 8.09375-5.089844 17.546875-6.574219 26.769532-4.199219 5.230468 1.347656 9.6875 3.664063 14.113281 7.328125 4.484375 3.71875 8.40625 9.859375 10.058593 15.75.988282 3.53125 1.136719 4.734375 1.136719 9.449219 0 3.882812-.039062 4.476562-.398437 6.09375-1.613282 7.210938-5.339844 13.46875-11.203125 18.8125-5.519531 5.027344-12.859375 8.402344-20.460938 9.410156-1.382812.183594-4.203125.113282-8.683593-.214844Zm5.246093-10.890624c5.78125-.390626 11.09375-2.027344 15.058594-4.644532 3.722656-2.453125 6.632813-6.144531 8.101563-10.277344.371093-1.035156.457031-1.625.523437-3.679687.089844-2.769531-.078125-4.042969-.832031-6.308594-2.601563-7.796875-9.226563-14.164062-16.921875-16.257812-3.832031-1.042969-7.046875-1.46875-9.367188-1.242188-2.273437.226563-6.390625 1.308594-8.167969 2.152344-5.175781 2.449219-8.878906 7.527344-10.746093 14.726563-.519531 1.992187-.566407 2.40625-.644531 5.632812-.117188 5.0625.308593 7.488281 1.886718 10.710938.792969 1.617187 1.066406 1.988281 2.617188 3.527343 2.886718 2.871094 6.15625 4.394531 11.445312 5.335938 1.480469.265625 5.328125.441406 7.046875.324219Zm-7.480469-1.710938c-4.292968-.65625-7.972656-2.316406-10.328124-4.648438-1.484376-1.46875-2.582032-3.535156-3.289063-6.183593-.429687-1.621094-.457031-1.953125-.46875-5.675781 0-3.273438.046875-4.199219.308594-5.335938 1.1875-5.128906 3.234375-9.1875 6.101562-12.113281 3.417969-3.480469 7.359375-5.003907 14.296875-5.53125 2.324219-.175781 4.078125.03125 5.90625.691406.484375.175781 1.308594.441406 1.832032.589844 1.285156.359375 3.875 1.640625 5.660156 2.800781 1.792968 1.167969 4.929687 4.273438 6.085937 6.03125 2.742188 4.164062 4.097657 8.429688 3.839844 12.074219-.132813 1.855469-.476563 3.15625-1.320313 4.960937-3.425781 7.339844-11.484374 12.011719-21.746093 12.605469-2.601563.148437-4.707031.066406-6.878907-.265625Zm7.996094-4.320312c.71875-.289063 1.03125-.800782 1.027344-1.679688 0-1.554688-.867188-2.875-1.941406-2.980469-.300782-.027343-.898438-.097656-1.328125-.148437-.617188-.078125-.867188-.027344-1.203125.246094-.363282.296874-.421875.484374-.414063 1.347656.023438 1.902344 1.082031 3.171875 2.726563 3.269531.480468.027344.988281 0 1.132812-.054687Zm-2.3125-1.429688c-.171875-.183594-.34375-.675781-.390625-1.089844-.078125-.667968-.03125-.796875.386719-1.125.871094-.6875 1.824219-.332031 2.136719.796875.246093.878907.230469 1.019531-.164063 1.410157-.460937.464843-1.554687.46875-1.96875 0Zm16-2.480469c.65625-.296875.9375-1.007812.765625-1.929687-.273437-1.488282-.796875-1.949219-2.355469-2.074219-1.03125-.085937-1.238281-.050781-1.640624.269531-.664063.527344-.765626 1.230469-.304688 2.179688.652344 1.355468 2.335938 2.09375 3.535156 1.554687Zm-2.328125-1.417969c-.195312-.25-.355469-.601562-.355469-.777343 0-.351563.925782-1.007813 1.417969-1.007813.800781 0 1.304688 1.378906.71875 1.964844-.441406.441406-1.367187.347656-1.78125-.179688Zm-24.773437-4.214843c.832031-.332031 1.035156-.660157 1.035156-1.671875 0-1.527344-.984375-3.125-1.917969-3.125-.28125 0-.300781.050781-.128906.371094.179687.335937.160156.359374-.210937.253906-1.570313-.4375-2.460938-.230469-2.828126.667968-.6875 1.6875 2.246094 4.222657 4.050782 3.503907ZM282 214.828125c-.707031-.480469-1.007812-1.183594-.671875-1.585937.691406-.835938 2.375-.929688 2.730469-.148438.277344.605469.238281 1.539062-.078125 1.855469-.386719.386719-1.308594.332031-1.980469-.121094Zm19.011719.320313c2.816406-.890626 3.898437-2.539063 3.511719-5.347657-.449219-3.246093-3.285157-6.28125-5.871094-6.28125-1.160156 0-1.570313.242188-1.449219.851563l.097656.476562-1.617187.085938c-1.296875.070312-1.804688.175781-2.566406.550781-1.644532.804687-2.46875 2.25-2.296876 4.027344.226563 2.367187 2.578126 4.707031 5.625 5.605469 1.113282.328124 3.582032.347656 4.566407.03125Zm-3.921875-1.140626c-1.632813-.234374-2.851563-.855468-3.875-1.976562-2.132813-2.335938-1.167969-4.964844 2.304687-6.261719.605469-.230469 1.359375-.359375 2.074219-.359375.824219 0 1.109375-.058594 1.058594-.214844-.042969-.117187-.242188-.238281-.445313-.269531-.207031-.03125-.375-.121093-.375-.203125 0-.246094.660157-.375 1.25-.25 2.117188.457032 3.992188 2.726563 4.207031 5.082032.128907 1.433593-.058593 2.144531-.78125 2.949218-.882812.980469-2.019531 1.441406-4.074218 1.660156-.09375 0-.699219-.058593-1.34375-.15625ZM312.753906 205.75c.515625-.480469.640625-1.113281.417969-2.164062-.230469-1.113282-.910156-2.210938-1.574219-2.554688-.652344-.339844-.988281-.335938-1.179687.015625-.085938.152344-.535157.34375-1 .429687-.859375.15625-1.441407.628907-1.441407 1.164063 0 1.160156.917969 2.539063 2.082032 3.132813.890625.453124 2.199218.445312 2.695312-.019532Zm-3.015625-1.46875c-.589843-.617188-.691406-1.140625-.367187-1.859375.230468-.5.597656-.621094 1.503906-.5.550781.074219.714844.191406.945312.675781.15625.324219.28125.890625.28125 1.261719 0 1.320313-1.292968 1.550781-2.363281.421875Zm-17.910156-4.019531c.414063-.414063.503906-.644531.503906-1.316407 0-1.070312-.648437-2.195312-1.511719-2.628906-.914062-.457031-3.109374-.625-3.894531-.296875-1.203125.503907-1.183593 1.683594.050781 3.058594.984376 1.097656 2.183594 1.683594 3.433594 1.6875.785156 0 .988282-.070313 1.417969-.503906ZM289 199.570312c-.238281-.089843-.746094-.449218-1.128906-.792968-.820313-.746094-.90625-1.304688-.261719-1.730469.59375-.390625 2.097656-.207031 3.007813.371094.605468.378906.683593.503906.683593 1.105469 0 .5-.097656.742187-.382812.941406-.433594.304687-1.277344.347656-1.917969.105468Zm-187.589844 43.125c-5.683594-.417968-10.019531-1.5625-14.710937-3.886718-7.277344-3.605469-12.949219-10.144532-15.027344-17.316406-.925781-3.1875-1.03125-4.144532-1.03125-9.113282 0-4.195312.035156-4.816406.390625-6.453125 1.292969-5.949219 3.214844-9.878906 7.4375-15.226562 2.804688-3.554688 7.800781-8.039063 11.632812-10.449219 11.597657-7.292969 26.089844-7.03125 37.570313.6875 6.570313 4.414062 11.28125 10.84375 13.347656 18.207031.988281 3.53125 1.132813 4.734375 1.132813 9.449219 0 3.882812-.039063 4.476562-.398438 6.09375-1.613281 7.210938-5.339844 13.46875-11.203125 18.8125-5.519531 5.027344-12.859375 8.402344-20.457031 9.410156-1.386719.183594-4.203125.113282-8.683594-.214844Zm5.242188-10.890624c5.78125-.390626 11.09375-2.027344 15.058594-4.644532 3.722656-2.453125 6.632812-6.144531 8.105468-10.277344.367188-1.035156.453125-1.625.519532-3.679687.09375-2.765625-.074219-4.042969-.828126-6.300781-2.601562-7.796875-9.234374-14.175782-16.921874-16.265625-3.835938-1.042969-7.050782-1.46875-9.371094-1.242188-2.273438.226563-6.390625 1.308594-8.167969 2.152344-5.171875 2.449219-8.878906 7.527344-10.746094 14.726563-.523437 2.003906-.566406 2.390624-.644531 5.714843-.113281 5.113281.386719 7.785157 2.082031 11.058594.964844 1.855469 3.550781 4.480469 5.515625 5.585937 2.449219 1.382813 5.003906 2.253907 8.351563 2.847657 1.484375.265625 5.328125.441406 7.046875.324219Zm-7.5625-1.734376c-4.390625-.710937-7.886719-2.289062-10.246094-4.625-1.480469-1.46875-2.582031-3.535156-3.285156-6.183593-.433594-1.621094-.460938-1.953125-.46875-5.675781 0-3.273438.042968-4.199219.304687-5.335938 1.1875-5.128906 3.234375-9.1875 6.105469-12.113281 3.417969-3.480469 7.355469-5.003907 14.292969-5.53125 2.328125-.175781 4.078125.03125 5.90625.691406.484375.175781 1.308593.441406 1.832031.589844 1.285156.359375 3.875 1.640625 5.660156 2.800781 1.792969 1.167969 4.929688 4.273438 6.085938 6.03125 2.742187 4.164062 4.101562 8.429688 3.84375 12.074219-.136719 1.851562-.480469 3.15625-1.316406 4.941406-2.859376 6.136719-8.867188 10.390625-17.015626 12.042969-3.664062.746094-8.207031.859375-11.699218.292968Zm8.078125-4.296874c.71875-.289063 1.03125-.800782 1.03125-1.679688 0-1.554688-.867188-2.875-1.945313-2.980469-.300781-.027343-.898437-.097656-1.328125-.148437-.617187-.078125-.867187-.027344-1.203125.246094-.363281.296874-.417968.484374-.410156 1.347656.019531 1.902344 1.082031 3.171875 2.722656 3.269531.484375.027344.992188 0 1.132813-.054687Zm-2.3125-1.429688c-.167969-.183594-.34375-.675781-.390625-1.089844-.074219-.667968-.03125-.796875.386718-1.125.871094-.6875 1.824219-.332031 2.136719.796875.246094.878907.230469 1.019531-.164062 1.410157-.460938.464843-1.554688.46875-1.96875 0Zm16-2.480469c.65625-.296875.9375-1.007812.765625-1.929687-.273438-1.488282-.796875-1.949219-2.351563-2.074219-1.035156-.085937-1.242187-.050781-1.644531.269531-.664062.527344-.765625 1.230469-.304688 2.179688.65625 1.355468 2.335938 2.09375 3.535157 1.554687Zm-2.328125-1.417969c-.195313-.25-.355469-.601562-.355469-.777343 0-.351563.925781-1.007813 1.417969-1.007813.800781 0 1.304687 1.378906.71875 1.964844-.441406.441406-1.367188.347656-1.78125-.179688Zm-24.683594-4.261718c.851562-.371094.996094-.667969.917969-1.90625-.058594-.890625-.175781-1.261719-.589844-1.847656-.484375-.695313-1.300781-1.195313-1.550781-.945313-.0625.0625 0 .242187.121094.398437.214843.257813.183593.269532-.363282.132813-1.714844-.433594-2.777344.019531-2.777344 1.179687 0 1.851563 2.621094 3.695313 4.242188 2.988282Zm-2.335938-1.355469c-.707031-.480469-1.007812-1.183594-.671874-1.585937.691406-.835938 2.375-.929688 2.730468-.148438.277344.605469.238282 1.539062-.078125 1.855469-.386719.386719-1.304687.332031-1.980469-.121094Zm19.015626.320313c2.824218-.894532 3.953124-2.640626 3.511718-5.441407-.507812-3.214843-3.332031-6.1875-5.875-6.1875-1.15625 0-1.570312.242188-1.449218.851563l.097656.476562-1.617188.085938c-1.292968.070312-1.804687.175781-2.566406.550781-1.644531.804687-2.46875 2.25-2.296875 4.027344.226563 2.367187 2.578125 4.707031 5.625 5.605469 1.117187.328124 3.582031.347656 4.570313.03125Zm-3.925782-1.140626c-1.632812-.234374-2.851562-.855468-3.875-1.976562-2.132812-2.335938-1.164062-4.964844 2.304688-6.261719.605468-.230469 1.359375-.359375 2.078125-.359375.824219 0 1.105469-.058594 1.054687-.214844-.039062-.117187-.238281-.238281-.445312-.269531-.496094-.070312-.476563-.34375.035156-.46875 1.003906-.253906 2.925781.796875 3.90625 2.128907.707031.960937 1.1875 2.402343 1.1875 3.558593 0 2.390625-1.558594 3.667969-4.902344 4.019531-.09375 0-.699218-.058593-1.34375-.15625ZM122.265625 205.75c.515625-.480469.636719-1.113281.417969-2.164062-.234375-1.113282-.910156-2.210938-1.578125-2.554688-.652344-.339844-.988281-.335938-1.179688.015625-.082031.152344-.535156.34375-1 .429687-.859375.15625-1.441406.628907-1.441406 1.164063 0 1.160156.921875 2.539063 2.085937 3.132813.886719.453124 2.199219.445312 2.695313-.019532Zm-3.019531-1.46875c-.589844-.617188-.691406-1.140625-.363282-1.859375.226563-.5.597657-.621094 1.503907-.5.546875.074219.710937.191406.945312.675781.152344.324219.277344.890625.277344 1.261719 0 1.320313-1.289063 1.550781-2.363281.421875Zm-17.910156-4.019531c.707031-.707031.707031-1.859375 0-2.96875-.582032-.917969-1.335938-1.261719-3.128907-1.433594-2.695312-.25-3.5 1.246094-1.722656 3.21875.984375 1.097656 2.179687 1.683594 3.433594 1.6875.78125 0 .984375-.070313 1.417969-.503906Zm-2.828126-.691407c-.234374-.089843-.746093-.449218-1.128906-.792968-.820312-.746094-.90625-1.304688-.261718-1.730469.597656-.390625 2.097656-.207031 3.011718.371094.605469.378906.679688.503906.679688 1.105469 0 .5-.097656.742187-.382813.941406-.429687.304687-1.277343.347656-1.917969.105468Zm237.707032-1.429687c.046875-.117187.214844-.949219.382812-1.847656.492188-2.707031.445313-2.671875 1.191406-.898438.359376.859375.601563 1.644531.535157 1.75-.128907.210938-1.8125 1.210938-2.042969 1.210938-.082031 0-.109375-.09375-.066406-.214844Zm2.144531-2.796875c-.355469-.710938-.640625-1.332031-.640625-1.378906 0-.042969.214844-.082032.484375-.082032.429687 0 .535156.128907 1.007813 1.191407.378906.855469.476562 1.242187.34375 1.378906-.359376.359375-.5625.171875-1.195313-1.109375Zm1.453125-.179688c-.261719-.539062-.332031-.871093-.222656-1.0625.125-.226562.242187-.105468.609375.617188.414062.820312.457031 1.230469.121093 1.230469-.070312 0-.296874-.351563-.507812-.785157Zm.90625-.5c-.304688-.730468-.304688-.78125-.03125-.78125.230469 0 .8125.855469.8125 1.1875 0 .433594-.550781.144532-.78125-.40625Zm-86.3125-2.328124c-.734375 0-1.140625-.074219-1.191406-.214844-.125-.339844-1.757813-13.625-2.132813-17.335938-.328125-3.242187-.417969-4.347656-.953125-11.785156-.378906-5.234375-.433594-16.398438-.4375-88.523438V8.320312l.507813-1.03125c.621093-1.265624 1.648437-2.496093 2.078125-2.496093.175781 0 .367187-.078125.429687-.175781.230469-.375 1.226563-.628907 2.152344-.554688.523437.042969 2.878906-.046875 5.242187-.195312 11.496094-.738282 19.007813-.964844 32.230469-.964844 11.21875 0 18.949219.164062 24.929688.519531 4.636719.277344 15.492187 1.167969 17.78125 1.464844 1.816406.234375 2.136719.324219 2.816406.816406 1.074219.773437 1.71875 1.632813 2.183594 2.902344.222656.601562.597656 1.613281.839843 2.246093.238282.632813 1.054688 3.1875 1.8125 5.675782 1.375 4.53125 2.917969 9.183594 7.316407 22.074218 5.488281 16.097657 11.128906 35.375 16.59375 56.695313 1.8125 7.074219 2.550781 9.800781 3.980469 14.710937l.851562 2.921876-.015625 3.269531c0 1.800781-.089844 5.285156-.179687 7.742187-.210938 5.800782-.210938 13.253906 0 20.992188.09375 3.40625.191406 8.472656.214843 11.253906l.046875 5.0625-.945312.195312c-.941406.195313-1.957032.636719-2.136719.929688-.054687.089844-.171875 3.476562-.265625 7.53125-.167969 7.070312-.160156 7.390625.144531 7.804688.261719.347656.441407.417968.953125.371093.34375-.027343 1.039063.074219 1.546875.230469l.914063.292969.109375.886719c.058593.484374.105469 1.253906.105469 1.707031v.820312l-1.417969.921875c-2.84375 1.851563-8.726563 4.734375-12.863281 6.304688-2.363282.898437-7.304688 2.402344-7.886719 2.402344-.199219 0-.554688.125-.789063.277343-.5625.367188-2.449218.480469-8.15625.488281h-4.554687l-1.070313-3.183593c-.585937-1.75-1.070312-3.351563-1.074218-3.558594 0-.207031-.121094-.488281-.261719-.625-.136719-.140625-.457031-.78125-.707031-1.429687-.25-.648438-.523438-1.300782-.605469-1.4375-.71875-1.222657-1.863281-3.664063-1.78125-3.796876.054687-.089843-.019531-.210937-.152344-.265624-.386719-.144532-2.003906-2.695313-2.003906-3.152344 0-.269532-.074219-.363282-.242188-.300782-.148437.054688-.527343-.273437-1.011719-.886718-.429687-.535156-1.59375-1.792969-2.597656-2.785156-1.65625-1.640626-1.820312-1.863282-1.820312-2.4375 0-.636719-.410156-1.261719-.703125-1.082032-.085938.054688-.15625.296875-.15625.542969v.441406l-.730469-.605469c-.4375-.359374-.730469-.75-.730469-.964843 0-.375-.089843-.421875-.511719-.257813-.144531.054688-.617187-.164062-1.078124-.5-1.148438-.835937-4.640626-2.734375-6.558594-3.566406-.886719-.386719-1.777344-.792969-1.976563-.90625-.199219-.113281-.480469-.21875-.621093-.230469-.144532-.019531-1.167969-.308593-2.277344-.644531-4.390625-1.347656-7.800782-1.757812-13.195313-1.601562-2.8125.085937-3.957031.195312-5.660156.546874-4.640625.957032-9.265625 2.886719-13.398437 5.585938-2.902344 1.898438-4.910157 3.546875-7.246094 5.964844-3.65625 3.777344-5.785156 6.730468-7.980469 11.070312-1.648437 3.261719-2.386719 5.160156-3.03125 7.761719-.695313 2.8125-.589844 2.589844-1.113281 2.390625-.246094-.097656-.949219-.171875-1.558594-.171875Zm10.761719-73.523438c.046875-.046875 2.132812-.175781 4.640625-.289062 3.242187-.140626 4.691406-.144532 5.035156-.015626.421875.160157.496094.136719.660156-.222656.289063-.632812-.109375-4.539062-.515625-5.09375l-.316406-.433594-6.171875-.085937c-4.074219-.054687-6.242188-.023437-6.382812.089844-.140626.117187-.25 1.019531-.324219 2.667969-.101563 2.316406-.085938 2.519531.226562 2.90625.292969.359374.523438.421874 1.703125.492187.746094.039063 1.394532.035156 1.445313-.019531Zm-2.171875-2.980469c.066406-.914062.160156-1.726562.207031-1.804687.113281-.183594 10.851563-.199219 10.960937-.019532.042969.070313.105469.785157.140626 1.589844l.058593 1.464844-4.207031.121094c-2.316406.070312-4.328125.15625-4.46875.199218-.144531.035157-.835938.078126-1.535156.085938l-1.273438.023438Zm9.734375-5.851562c9.253906-.113281 26.796875-.429688 31.808593-.578125 13.226563-.390625 20.691407-.511719 37.132813-.601563 9.601563-.054687 18.167969-.132812 19.039063-.171875 1.515624-.066406 2.28125-.265625 2.28125-.589844 0-.246093-3.703126-15.566406-7.574219-31.355468-2.519531-10.285156-5.628907-21.460938-9.703125-34.898438-1.394532-4.589844-3.1875-10.511718-3.988282-13.160156-.800781-2.652344-2.027343-7.027344-2.722656-9.722656-1.113281-4.296875-2.03125-7.535156-2.402344-8.460938-.066406-.167968-.375-.324218-.746093-.375-.746094-.101562-19.320313-.1875-38.710938-.1875-14.308593 0-17.527343.09375-31.375.867188-8.558593.476562-8.265625.457031-8.4375.628906-.074219.070312-.355469.128906-.632812.128906-.324219 0-.476563.078125-.425781.214844.039062.121094.25.191406.46875.160156.386718-.058594.394531-.035156.277343.945313-.304687 2.527343-.464843 10.914062-.664062 34.296875-.117188 13.863281-.214844 33.660156-.214844 43.992187v18.785157l.429687.023437c1.113282.050781 13.03125.097656 16.160157.058594ZM257.34375 98.09375c-.070312-5.84375-.082031-14.925781-.019531-20.175781.0625-5.253907.183593-20.429688.269531-33.722657.089844-13.296874.214844-25.957031.28125-28.136718l.121094-3.964844 1.566406.0625c.859375.039062 4.621094-.09375 8.355469-.289062 3.734375-.199219 8.648437-.453126 10.917969-.570313 2.863281-.148437 12.222656-.210937 30.636718-.214844 26.363282 0 26.507813 0 26.609375.335938.058594.191406.867188 3.324219 1.800781 6.96875.933594 3.644531 2.664063 9.835937 3.84375 13.765625 7.957032 26.457031 9.902344 33.472656 14.042969 50.628906 1.761719 7.308594 3.550781 14.664062 5.492188 22.578125.277343 1.132813.46875 2.09375.429687 2.136719-.042968.042968-10.308594.132812-22.8125.203125-13.355468.074219-26.816406.242187-32.621094.40625-13.785156.386719-24.179687.550781-37.417968.582031l-11.367188.027344Zm10.359375 9.992188c.117187-.046876.214844-.183594.214844-.304688 0-.242188-4.261719-2.1875-5.527344-2.527344l-.792969-.210937-.101562-1.046875c-.054688-.574219-.15625-1.765625-.21875-2.648438l-.117188-1.605468.585938.25c4.375 1.871093 9.226562 4.21875 11.582031 5.609374 1.335937.785157 2.15625.921876 2.15625.363282 0-.222656-.195313-.421875-.5625-.578125-.304687-.125-1.082031-.554688-1.722656-.949219-2.484375-1.519531-9.808594-4.949219-11.242188-5.257812-.304687-.066407-.621093-.210938-.714843-.324219-.238282-.292969-1.324219-15.046875-1.4375-19.542969-.054688-2.289062-.273438-2.066406 2.40625-2.515625l1.734374-.289063 1.070313.648438c.585937.355469 2.734375 1.433594 4.777344 2.394531l3.710937 1.75.117188 3.082031c.0625 1.699219.15625 3.417969.210937 3.824219.105469.804688.148438.800781-.914062.082031-.878907-.597656-5.429688-2.871093-6.933594-3.472656-1.574219-.625-4.429687-1.449218-4.5625-1.316406-.121094.121094-.121094.117188.90625.558594 2.550781 1.082031 7.121094 3.238281 8.824219 4.160156 1.066406.582031 2.125 1.101562 2.351562 1.15625.355469.089844.425782.238281.515625 1.074219.167969 1.617187.949219 7.816406 1.058594 8.417969l.097656.558593-3.328125-1.691406c-4.269531-2.167969-6.851562-3.285156-7.855468-3.402344l-.800782-.097656.429688.359375c.234375.195312 1.125.683594 1.96875 1.085938.851562.40625 3.375 1.640624 5.617187 2.746093 3.675781 1.816407 4.082031 2.058594 4.167969 2.496094.050781.261719.335938 1.867187.625 3.566406.292969 1.695313.570312 3.144531.617188 3.226563.050781.078125.199218.140625.335937.140625.386719 0 .316406-1.136719-.425781-6.808594-1.222656-9.300781-1.449219-11.660156-1.824219-19.085937-.191406-3.796876-.335937-5.433594-.5-5.6875-.539063-.820313-3.035156-1.171876-7.464844-1.054688-3.605469.09375-6.621093.488281-7.6875 1l-.503906.242188.03125 3.265624c.03125 2.917969.335937 8.148438.945313 16.074219.160156 2.101563.15625 2.671875 0 2.730469-.164063.050781-.152344.140625.039062.351562.179688.203126.355469 1.449219.617188 4.414063.203124 2.269531.398437 4.226563.441406 4.34375.039062.117187.308594.214844.59375.214844h.523437v-2.261719l.503907.359375c.640624.457031 4.105468 2.007813 4.757812 2.128906.273438.050781.59375.054688.710938 0Zm3.910156-28.59375c-6.136719-2.921876-6.335937-3.027344-5.914062-3.144532.648437-.183594 4.582031-.164062 5.914062.027344 1.949219.28125 1.804688.109375 1.804688 2.171875 0 .992187-.058594 1.78125-.128907 1.746094-.070312-.039063-.824218-.398438-1.675781-.800781Zm8.785157 26.945312c-.0625-.78125-.265626-3.164062-.449219-5.292969-.761719-8.933593-.902344-17.546875-.285157-17.546875.097657 0 1.226563 1.074219 2.511719 2.394532 1.28125 1.316406 3.078125 3.011718 3.988281 3.765624 2.695313 2.230469 10.847657 8.316407 15.507813 11.574219 2.105469 1.46875 2.433594 1.648438 2.839844 1.519531.25-.082031 1.113281-.355468 1.917969-.609374 2.167968-.679688 5.015624-1.941407 8.679687-3.835938 7.054687-3.65625 10.929687-6.183594 16.039063-10.460938 1.160156-.972656 2.140624-1.769531 2.175781-1.769531.035156 0 .300781.425781.59375.945313.324219.570312.871093 1.195312 1.394531 1.582031.472656.355469.859375.703125.859375.773437 0 .242188-3.601563 9.289063-4.945313 12.417969-1.027343 2.398438-1.402343 3.105469-1.714843 3.222657-.5.191406-.675781.625-.417969 1.039062.113281.175781.199219.433594.199219.578125 0 .335937.585937.335937.921875 0 .160156-.160156.582031-.257813 1.128906-.257813.769531 0 .871094-.042968.871094-.355468 0-.195313-.082032-.515625-.1875-.710938-.175782-.324218-.15625-.347656.214844-.25.222656.058594.460937.109375.535156.113282.070312 0 .128906.101562.128906.222656 0 .394531.367188.636718.695312.460937.34375-.183593 2.480469-4.015625 3.742188-6.707031.753906-1.601562 3.238281-7.339844 3.523438-8.128906.082031-.234375.308593-.300782 1.015624-.304688 2.710938-.019531 4.914063-.703125 5.667969-1.761718.503907-.707032.503907-2.058594 0-3.023438-.195312-.378906-.445312-1.019531-.554687-1.433594-.273438-1.042968-.929688-2.117187-1.613282-2.640625l-.582031-.441406.53125-1.617187c.441407-1.339844.5-1.6875.335938-2.015626-.109375-.21875-.277344-.695312-.371094-1.066406-.363281-1.410156-1.582031-1.945312-2.414063-1.058594-.214843.230469-.589843.441407-.832031.472657-.378906.042969-.535156.289062-1.1875 1.859375l-.746093 1.804687h-1.671876c-1.417968 0-1.792968.066407-2.449218.410157-1.335938.699218-1.695313 1.035156-2.421875 2.261718-.390625.65625-.769531 1.15625-.84375 1.109375-.070313-.046875-1.550781.648438-3.289063 1.539063-8.503906 4.367187-14.828125 7.195312-20.863281 9.320312L305.488281 95.625l-1.035156-.496094c-.570313-.273437-2.503906-1.089844-4.300781-1.8125-4.96875-2-10.414063-4.773437-17.015625-8.664062-2.773438-1.632813-3.53125-2.359375-3.53125-3.386719 0-.835937.335937-4.261719.425781-4.351563.03125-.035156.359375.132813.730469.363282 2.382812 1.507812 6.304687 2.984375 9.1875 3.464844 2.203125.367187 6.371093.367187 8.828125 0 7.496094-1.113282 15.664062-6.441407 18.894531-12.320313.738281-1.34375 1.523437-3.433594 1.949219-5.183594.476562-1.976562.421875-8.316406-.09375-10.921875-1.285156-6.441406-4.730469-12.335937-9.148438-15.652344-1.335937-1.007812-3.003906-1.8125-5.585937-2.699218-2.894531-.992188-3.246094-1.128906-3.140625-1.230469.246094-.246094 4.050781-.40625 5.921875-.25 2.820312.238281 6.609375 1.265625 7.492187 2.027344.460938.398437.359375-.039063-.148437-.640625-.886719-1.054688-2.6875-1.800782-5.648438-2.34375-2.144531-.394532-7.847656-.277344-9.109375.183594-.804687.292968-.921875.296874-2.332031.023437-.820313-.152344-2-.285156-2.625-.285156s-1.183594-.074219-1.242187-.167969c-.191407-.3125 1.609374-1.863281 2.882812-2.488281 1.535156-.746094 2.800781-1.082031 5.027344-1.320313 3.109375-.335937 8.007812.136719 9.976562.957032.832032.347656 1.230469.359374.953125.023437-.261719-.3125-4.023437-1.542969-5.867187-1.917969-1.796875-.363281-6.671875-.261718-8.414063.175782-2.925781.738281-5.847656 2.863281-5.847656 4.257812 0 .425781-.0625.484375-.558594.5-2.859375.097656-5.636719.898438-8.792969 2.535156-6.40625 3.3125-10.738281 8.183594-12.890624 14.492188-1.039063 3.046875-1.351563 4.859375-1.351563 7.902344 0 3.9375.566406 6.511718 2.207031 9.96875 1.488282 3.136718 2.902344 5.121093 5.445313 7.652343l2.226562 2.222657-.394531 3.542968c-.328125 2.941406-.394531 4.425782-.390625 8.789063 0 5.328125.210937 8.648437.925781 15.054687.480469 4.300782.460938 4.214844.984375 4.214844h.433594l-.117187-1.417969Zm20.546874-6.78125c-3.605468-2.535156-12.425781-9.117188-14.074218-10.503906-1.84375-1.550782-3.371094-2.96875-3.289063-3.050782.039063-.039062 1.074219.511719 2.304688 1.226563 2.789062 1.628906 7.066406 3.878906 9.882812 5.199219 2.824219 1.324218 9.878907 4.144531 10.367188 4.144531.453125 0 5.453125-1.710937 7.941406-2.714844 3.027344-1.21875 6.390625-2.789062 12.292969-5.734375 3.167968-1.578125 5.773437-2.863281 5.789062-2.847656.089844.082031-6.0625 4.839844-7.714844 5.96875-3.515624 2.398438-10.792968 6.441406-14.75 8.1875-1.402343.617188-5.417968 2.101562-5.742187 2.121094-.085937 0-1.441406-.894532-3.007813-1.996094Zm32.734376.308594c0-.347656.292968-.292969.558593.109375.25.375.246094.382812-.152343.238281-.222657-.082031-.40625-.238281-.40625-.347656ZM334.625 97.4375c0-.203125.324219-.203125.402344 0 .0625.167969.015625.214844-.15625.152344-.136719-.050782-.246094-.121094-.246094-.152344Zm.859375-1.96875c0-.09375.078125-.171875.171875-.171875s.171875.078125.171875.171875-.078125.171875-.171875.171875-.171875-.078125-.171875-.171875Zm.34375-.96875c0-.226562.046875-.238281.257813-.0625.140624.113281.257812.242188.257812.277344 0 .035156-.117188.066406-.257812.066406-.144532 0-.257813-.128906-.257813-.28125Zm.859375-1.957031c0-.09375.035156-.171875.074219-.171875.042969 0 .125.078125.183593.171875.058594.09375.023438.171875-.074218.171875-.101563 0-.183594-.078125-.183594-.171875Zm.6875-1.726563c0-.246094.082031-.207031.445312.203125.328126.367188.328126.367188-.058593.164063-.214844-.109375-.386719-.277344-.386719-.367188Zm4.207031-1.375c-.058593-.097656-.585937-.164062-1.167969-.144531-1.566406.050781-2.957031-.332031-4.140624-1.132813-1.136719-.773437-1.652344-1.566406-1.691407-2.625-.046875-1.160156.308594-1.710937 1.597657-2.464843 1.054687-.617188 1.28125-.683594 2.34375-.679688 1.472656 0 3.300781.265625 4.523437.644531.742187.230469 1.195313.539063 2.085937 1.414063 2.070313 2.039063 2.160157 3.457031.28125 4.375-.789062.386719-2.019531.664063-3.429687.769531-.160156.015625-.339844-.058594-.402344-.15625Zm3.394531-6.351562c-.574218-.433594-.730468-.871094-.308593-.871094.214843 0 .992187.859375 1.386719 1.535156.160156.269532.121093.246094-1.078126-.664062Zm-3.765624-2.109375c.054687-.136719.097656-.09375.105468.105469 0 .183593-.035156.28125-.089844.226562-.058593-.054688-.0625-.207031-.019531-.332031Zm-4.007813.121093c.328125-.128906 1.023437-.238281 1.539063-.242187 1.320312-.023437.894531.292969-.507813.371094-.617187.035156-1.230469.074219-1.375.082031-.144531.019531.015625-.085938.34375-.210938Zm-48.324219-1.878906c-4.679687-.976562-8.683594-3.082031-11.761718-6.195312-3.125-3.15625-5.730469-8.089844-6.40625-12.144532-.183594-1.117187-.230469-5.882812-.0625-6.964843.21875-1.445313 1.035156-4.46875 1.539062-5.722657 2.429688-6.003906 6.9375-10.539062 13.59375-13.671874 2.757812-1.296876 4.953125-1.730469 8.957031-1.75 2.757813-.019532 3.453125.039062 5.242188.40625 2.054687.421874 2.058593.425781 1.171875.519531-1.945313.203125-1.308594.710937 1.101562.878906 2.195313.148437 3.722656.585937 5.695313 1.628906 2.484375 1.3125 4.433593 3.113281 6.1875 5.71875.699219 1.035157 1.917969 3.171875 1.917969 3.359375 0 .058594-.402344-.199218-.902344-.574218-.496094-.378907-1.03125-.6875-1.191406-.6875-.609376 0-.519532.402343.222656 1.003906.414062.335937 1.265625 1.117187 1.890625 1.738281 1 .996094 1.179687 1.273437 1.5 2.347656 1.199219 4.011719 1.527343 9.308594.808593 13.046875-.460937 2.402344-1.96875 5.902344-2.738281 6.34375-.511719.296875-6.832031.28125-8.527343-.015625-5.128907-.90625-11.339844-3.515625-15.457032-6.492187-.320312-.234375-.726562-.425782-.902344-.425782-.410156 0-.417968.535157-.015624 1.007813.421874.503906 2.988281 2.074219 5.363281 3.285156 5.863281 2.992188 10.269531 4.167969 15.683593 4.1875l2.867188.015625-.800781.9375c-1.632813 1.914063-5.230469 4.496094-8.425781 6.050782-3.917969 1.902343-6.800782 2.542968-11.550782 2.570312-2.554687.015625-3.308594-.046875-5-.398438Zm22.671875-22.238281c.117188-.050781.378907-.40625.578125-.796875.707032-1.382812.132813-5.015625-.972656-6.214844-.402344-.433594-.449219-.441406-.917969-.203125-.835937.433594-1.539062 1.382813-1.667969 2.253907-.335937 2.21875.953126 5.097656 2.261719 5.0625.273438 0 .59375-.054688.71875-.101563Zm5.550781-.5c.363282-.390625.414063-.597656.398438-1.679687-.019531-1.195313-.578125-3.617188-.988281-4.277344-.304688-.492188-1.421875-.738282-1.90625-.421875-1.214844.800781-.902344 5.25.449219 6.390625.6875.578125 1.496093.574218 2.046874-.019532Zm-13.953124-7.195313c.632812-1.019531 3.644531-3.765624 4.816406-4.386718 1.011718-.539063 1.070312-.605469.78125-.816406-.175782-.128907-.464844-.234376-.636719-.234376-.648437 0-2.148437.945313-3.351563 2.109376-1.003906.976562-1.335937 1.4375-1.761718 2.460937-.285156.691406-.523438 1.300781-.523438 1.351563 0 .289062.363282.027343.675782-.484376Zm42.402343 57.574219c.101563-.070312.558594-.824219 1.015625-1.675781 1.871094-3.480469 5.492188-9.234375 6.761719-10.746094l.5-.59375.210937.394532c.226563.421874 4.078126 6.023437 4.328126 6.289062.367187.398438.308593-.121094-.113282-.960938-.449218-.894531-2.554687-4.0625-3.542968-5.332031-.269532-.34375-.488282-.703125-.488282-.800781 0-.089844.359375-.570312.800782-1.058594l.796874-.890625.550782 1c.984375 1.792969 1.5 2.65625 1.558594 2.597657.085937-.089844-.679688-2.175782-1.136719-3.105469-.394531-.792969-.398438-.835938-.105469-1.324219.273438-.464844.265625-1.117188-.019531-1.613281-.203125-.355469-3.773438 3.585937-5.765625 6.355469-1.988282 2.773437-6.140625 9.867187-6.558594 11.210937-.105469.347656-.0625.386719.449219.382813.316406 0 .65625-.058594.753906-.128907Zm5.359375-1.34375c-.429687-1.449219-.703125-2.027343-.902344-1.945312-.21875.089843-.113281.621093.277344 1.386719.363282.714843.785156 1.089843.625.558593Zm-6.832031-.21875c0-.082031-.46875-.515625-1.039063-.96875-.574218-.449219-1.007812-.910156-.964843-1.023437.109375-.289063-.34375-1.300782-.585938-1.300782-.203125 0-.15625.472657.105469 1.101563.125.300781.078125.292969-.578125-.078125-.394531-.21875-.71875-.460938-.71875-.535156 0-.253906.578125-1.351563.714844-1.351563.074219 0 .488281.25.917969.554688.6875.484375.824218.6875 1.128906 1.71875.222656.75.4375 1.167969.597656 1.167969.3125 0 .3125-.089844 0-1.101563-.210938-.699219-.210938-.78125 0-.605469.132812.109375.246094.273438.246094.363282 0 .304687.726562 1.859374.871094 1.859374.078124 0 .109374-.382812.066406-.851562-.058594-.71875-.03125-.835938.199218-.75.203126.078125.253907 0 .210938-.308594-.042969-.304687-.539062-.726562-1.949219-1.664062l-1.894531-1.246094.0625-1.785156c.035156-1.078125-.019531-1.917969-.125-2.128906-.199219-.371094-1.210938-1.070313-1.546875-1.070313-.339844 0-.210937.4375.253906.871094.421875.394531.441407.492187.375 1.722656-.089843 1.535156-.785156 3.117187-2.214843 5.019531-.761719 1.015625-.9375 1.160156-1.429688 1.160156-.308594 0-.609375.046876-.667969.109376-.191406.191406.226563.75.5625.75.179688 0 .375.078124.433594.171874.285156.464844 1.351563-.207031 2.234375-1.410156l.34375-.46875 1.203125.769532c.664063.421874 1.613281.921874 2.113281 1.109374 1.035156.394532 1.070313.398438 1.070313.199219Zm13.925781-.117187c0-.207032-.773437-1.601563-1.410156-2.539063-.8125-1.199219-3.914062-5.101562-4.316406-5.433593-.246094-.203126-.289063-.199219-.289063 0 0 .320312.488281 1.035156 3.3125 4.835937 2.078125 2.800781 2.703125 3.527344 2.703125 3.132813Zm-2.5-.46875c-.0625-.210938-.230468-.628906-.367187-.929688-.300781-.648437-3.613281-4.703125-3.84375-4.703125-.378907 0-.085938.574219 1.234375 2.425781 2.265625 3.171876 3.304687 4.292969 2.976562 3.207032Zm-3.863281-.773438c0-.503906-.8125-2.058594-1.277344-2.445312-.574219-.476563-.613281.074218-.078125 1.203125.785156 1.660156 1.359375 2.1875 1.355469 1.242187Zm6.707031-1.046875c0-.550781-1.699218-3.320312-3.710937-6.046875-1.046875-1.417968-1.445313-1.804687-1.445313-1.402344 0 .175782 4.550782 7.042969 4.910156 7.414063.179688.183594.246094.191406.246094.035156Zm0-5.433593c0-.117188-1.789062-3.386719-2.332031-4.269532-.277344-.445312-.597656-.8125-.707031-.816406-.335938 0 .042968.859375 1.105468 2.535156.523438.828125 1.101563 1.753906 1.289063 2.0625.285156.472656.644531.746094.644531.488282Zm-84.328125-3.363282c.121094-.199218-.628906-.6875-3.117187-2.019531-1.96875-1.058594-7.167969-3.492187-7.457032-3.492187-.09375 0-.167968.144531-.167968.320312 0 .246094 1.148437.894531 5.027344 2.839844 2.769531 1.382812 5.164062 2.515625 5.320312 2.515625.160156 0 .335938-.070313.394531-.164063Zm-.8125-9.855468c-.105469-.335938-5.359375-2.910157-7.179687-3.519532-1.566406-.523437-4.847656-1.429687-5.1875-1.429687-.089844 0-.113282.078125-.058594.171875.058594.097656.226562.171875.367188.171875.453124 0 7.109374 2.730469 9.261718 3.800781 1.992188.988281 2.945313 1.261719 2.796875.804688Zm-13 101.40625c.457031-1.074219.5625-1.148438.894531-.636719.160157.238281 1.445313 1.675781 2.863282 3.191406l2.582031 2.757813-.875 1.320312-5.804687-5.835938Zm3.113281 1.152343c-1.269531-1.3125-2.277343-2.492187-2.273437-2.667969 0-.171874.101563-.492187.226563-.710937.210937-.382813.289062-.3125 2.558593 2.152344 1.285157 1.398437 2.652344 2.851562 3.039063 3.226562.386718.375.703125.757813.703125.847657 0 .09375-.171875.355468-.386719.582031l-.386719.414062-.601562-.746093c-.332031-.410157-1.625-1.804688-2.878907-3.097657Zm2.125-.101562c-1.347656-1.394531-2.753906-2.871094-3.117187-3.28125l-.664063-.746094.414063-.757813c.230469-.421874.460937-.761718.507813-.761718.359374 0 6.191406 6.445312 6.191406 6.835937 0 .214844-.675782 1.25-.8125 1.25-.035156 0-1.167969-1.140625-2.519532-2.539062Zm2.816407-.089844c-.960938-1.328125-2.449219-3.074219-4.09375-4.800781l-1.261719-1.324219.449219-.769531.453125-.769532 2.976562 3.039063c1.640625 1.671875 3.195313 3.292969 3.457032 3.609375l.476562.570312-.746094.765626c-.414062.414062-.792968.757812-.84375.753906-.050781 0-.441406-.484375-.867187-1.074219Zm1.863281-1.707031c-.410156-.496094-1.921875-2.136719-3.359375-3.644532l-2.613281-2.742187.710937-1.015625c.390625-.558594.765625-1.046875.835938-1.089844.066406-.042968 1.078125 1.027344 2.246093 2.371094 1.167969 1.34375 2.730469 3.097656 3.46875 3.894531l1.347657 1.445313-.824219.835937c-.453125.464844-.878906.839844-.945312.839844-.066407 0-.457032-.402344-.867188-.894531ZM272.300781 183c-.628906-.839844-3.480469-4.207031-5.324219-6.273438l-.800781-.902343.464844-.605469c.25-.332031.507813-.605469.566406-.605469.0625 0 .269531.253907.46875.5625.671875 1.039063 5.753907 7.175781 6.09375 7.355469.1875.101562.335938.128906.335938.0625 0-.292969-4.578125-6.03125-5.980469-7.492188l-.765625-.804687 1.695313-1.761719c1.980468-2.046875 4.015624-3.789062 6.277343-5.363281 1.945313-1.355469 5.773438-3.570313 6.171875-3.570313.160156 0 1.242188 1.203126 2.511719 2.796876 3.128906 3.925781 3.296875 4.152343 3.492187 4.664062.09375.25.269532.457031.390626.460938.121093 0 .414062.265624.648437.585937.238281.320313.761719.96875 1.164063 1.441406l.734374.855469-.90625.214844c-.496093.121094-1.425781.394531-2.066406.613281l-1.164062.394531-1.300782-1.324218c-1.257812-1.277344-2.304687-2.53125-5.117187-6.101563-1.238281-1.574219-1.941406-2.191406-1.464844-1.289063.757813 1.441407 4.332031 6.058594 6.050781 7.824219.574219.589844 1.011719 1.101563.96875 1.136719-.042968.035156-.847656.429688-1.792968.871094-.945313.445312-2.3125 1.152344-3.046875 1.574218-.726563.421876-1.367188.765626-1.421875.765626-.207032 0-3.816406-4.695313-5.1875-6.75-1.257813-1.882813-1.78125-2.5-1.78125-2.101563 0 .523437 2.339844 4.039063 4.71875 7.082031.902344 1.15625 1.644531 2.140625 1.644531 2.1875s-.445313.398438-.988281.773438c-.546875.382812-1.199219.851562-1.449219 1.046875-.367187.28125-.496094.308593-.640625.132812-.097656-.117187-.941406-1.1875-1.882812-2.371093-.9375-1.183594-2.371094-2.898438-3.191407-3.8125-1.453125-1.621094-2.078125-2.136719-1.960937-1.613282.054687.253906 4.777344 6.039063 6.105468 7.484375l.71875.78125-1.0625.980469c-.585937.539062-1.109374.988281-1.15625.988281-.054687 0-.398437-.394531-.769531-.894531Zm4.386719-2.878906c0-.097656-.058594-.171875-.132812-.171875-.070313 0-1.195313-1.453125-2.496094-3.226563-3.054688-4.167968-3-4.101562-3.144532-3.960937-.183593.183593 3.75 5.773437 4.964844 7.054687.453125.484375.808594.613282.808594.304688Zm4.34375-2.34375c.058594-.058594-.605469-.929688-1.472656-1.941406-.871094-1.007813-2.320313-2.78125-3.21875-3.9375-.894532-1.15625-1.734375-2.101563-1.855469-2.101563-.320313 0 .089844.65625 1.96875 3.15625 1.515625 2.019531 4.082031 4.929687 4.34375 4.929687.074219 0 .175781-.046874.234375-.105468Zm2.285156-1.324219c.054688-.144531-.425781-.742187-1.222656-1.511719-.722656-.699218-1.945312-2.042968-2.714844-2.988281-1.972656-2.40625-2.476562-2.949219-2.613281-2.808594-.21875.214844 2.324219 3.570313 4.105469 5.417969 1.875 1.949219 2.296875 2.277344 2.445312 1.890625Zm4.199219-1.945313c0-.054687-.722656-.964843-1.605469-2.019531-.882812-1.054687-2.316406-2.867187-3.183594-4.027343-.871093-1.15625-1.664062-2.105469-1.765624-2.105469-.269532 0-.097657.355469.90625 1.847656 1.53125 2.285156 2.917968 4.039063 4.132812 5.25 1.050781 1.039063 1.515625 1.363281 1.515625 1.054687Zm-220.527344 5.882813c-.015625-.015625.054688-.785156.164063-1.710937.152344-1.3125.148437-2.03125-.023438-3.261719-.347656-2.5-.410156-2.273438.632813-2.207031 1.777343.117187 1.832031.160156 1.902343 1.414062.03125.609375-.035156 2.210938-.148437 3.5625l-.214844 2.453125-1.136719-.113281c-.625-.0625-1.152343-.121094-1.175781-.136719Zm246.804688-3.351563c-.0625-.058593.066406-.789062.289062-1.621093.226563-.835938.585938-2.851563.804688-4.476563.234375-1.769531.429687-2.75.480469-2.445312.1875 1.097656.433593.46875.480468-1.238282.027344-.96875.09375-1.761718.152344-1.761718.078125 0 .988281.507812 1.390625.777344.027344.019531-.03125.410156-.128906.871093-.097657.464844-.367188 2.238281-.597657 3.941407-.601562 4.394531-.953124 6.660156-1.058593 6.828124-.070313.117188-1.414063-.53125-1.8125-.875Zm57.230469.257813c-.210938-.132813-.714844-.292969-1.117188-.359375l-.742188-.121094.109376-6.21875c.0625-3.421875.183593-6.503906.269531-6.851562.136719-.542969.273437-.675782.960937-.9375.824219-.316406 1.640625-.390625 2.152344-.195313.175781.070313.449219.609375.683594 1.367188.363281 1.15625.390625 1.570312.390625 5.300781 0 2.222656-.0625 4.785156-.140625 5.691406l-.140625 1.648438-.886719.449218c-1.0625.535157-1.058594.535157-1.539062.226563Zm-59.195313-1.042969c-.359375-.234375-.367187-.277344-.140625-1.246094.300781-1.285156.511719-2.828124.917969-6.761718.179687-1.75.410156-3.394532.511719-3.660156l.183593-.476563.902344.457031c1.125.5625 1.058594.488282.835937.902344-.101562.1875-.496093 2.539062-.871093 5.21875-.945313 6.71875-.785157 6.050781-1.421875 5.921875-.296875-.058594-.707032-.21875-.917969-.355469Zm-63.613281-1.660156c-.8125-.945312-2.132813-2.40625-2.921875-3.238281l-1.445313-1.519531v-1.050782c0-.582031.066406-1.054687.140625-1.054687.078125 0 1.355469 1.242187 2.835938 2.761719 2.074219 2.128906 2.722656 2.90625 2.847656 3.398437.242187.976563.363281 2.632813.183594 2.523437-.089844-.054687-.824219-.871093-1.640625-1.820312Zm60.636718.636719c-1-.320313-2.582031-.742188-3.515624-.933594-.929688-.191406-1.730469-.386719-1.78125-.433594-.046876-.050781.113281-.964843.359374-2.035156.496094-2.195313.699219-3.667969.964844-7.023437.292969-3.671876.265625-3.613282 1.308594-3.28125.273438.089843 1.078125.335937 1.789062.546874 1.304688.390626 1.769532.621094 1.644532.820313-.070313.121094-.847656 6.492187-1.132813 9.316406-.101562.992188-.199219 1.9375-.21875 2.09375-.070312.589844.3125.378907.535157-.289062.378906-1.140625.6875-3.242188 1.054687-7.210938.191406-2.074219.386719-3.808593.4375-3.855469.117187-.117187 2.492187.851563 2.492187 1.015626 0 .070312-.113281.582031-.25 1.132812-.203124.808594-.835937 5.339844-1.402343 9.992188-.046875.402343-.171875.730468-.277344.730468-.101563 0-1.007813-.261718-2.007813-.585937Zm-2.296874-2.894531c.65625-2.320313.78125-3.113282 1.371093-8.863282.089844-.859375-.097656-1.417968-.476562-1.417968-.230469 0-.296875.425781-.847657 5.417968-.292968 2.648438-.605468 5.039063-.695312 5.308594-.160156.492188-.097656.800781.160156.800781.078125 0 .296875-.5625.488282-1.246093Zm-195.289063 1.425781c-.550781 0-.800781-.179688-2.035156-1.386719L107.828125 171h4.585937l1.59375 1.554688c.875.859374 1.558594 1.617187 1.515626 1.683593-.046876.070313-.878907-.015625-1.851563-.175781-.976563-.167969-2.058594-.308594-2.40625-.308594Zm178.261719-1.476563c-1.433594-1.902344-1.652344-2.390625-1.390625-3.074218.074219-.191407.4375.167968 1.289062 1.285156.652344.851562 1.1875 1.65625 1.1875 1.78125 0 .230468.945313.472656 1.125.292968.050781-.050781-.074219-.21875-.277343-.371093-.355469-.269531-.359376-.324219-.152344-1.628907l.21875-1.347656 1.425781 1.535156c1.167969 1.257813 1.429687 1.632813 1.433594 2.09375 0 .378907.089843.558594.265625.558594.140625 0 .257812-.152344.257812-.34375 0-.394531.0625-.414062.527344-.167968.433594.234374.421875.027343-.03125-.453126-.335938-.359374-.34375-.4375-.128906-1.066406l.234375-.679687 1.527343 1.421875 1.527344 1.425781-2.042968.113281c-1.125.058594-2.703126.214844-3.503907.339844-.804687.125-1.582031.238281-1.730469.246094-.148437.019531-.90625-.828125-1.761718-1.960938Zm10.585937 1.363282-1.070312-.09375-1.75-1.683594c-1.511719-1.453125-1.734375-1.738282-1.636719-2.09375.144531-.519532.4375-4.367188.496094-6.5625.042968-1.492188.019531-1.675782-.25-1.675782-.390625 0-.417969.171876-.738282 4.117188-.144531 1.84375-.304687 3.386719-.347656 3.429688-.046875.046874-.179687-.039063-.296875-.191407-.117187-.148437-.789062-1.019531-1.496093-1.9375l-1.28125-1.664062v-1.75c0-.960938-.078126-1.855469-.164063-1.988281-.28125-.441407-.617187.3125-.617187 1.390624 0 .550782-.058594 1-.128907 1-.070312 0-.3125-.273437-.539062-.601562-.378907-.558594-.707031-.777344-.707031-.472656 0 .070312.308593.59375.6875 1.160156.632812.953125.683593 1.125.6875 2.207031 0 .648438-.066407 1.152344-.148438 1.121094-.277344-.105469-4.492188-5.28125-4.492188-5.511719 0-.148437 2.417969-.769531 4.296876-1.109375 2.363281-.425781 9.148437-.433593 11.820312-.019531 2.316406.367188 2.519531.433594 2.28125.71875-.207031.25-.527344 2.453125-1.03125 7.0625-.195312 1.796875-.4375 3.738281-.539062 4.316406l-.183594 1.050782-.886719-.066407c-.488281-.035156-1.371094-.109375-1.960937-.160156Zm.640625-.636719c0-.230469.152344-1.300781.335938-2.375.425781-2.453125.921875-9.117188.695312-9.339844-.234375-.234375-.253906-.101563-.75 4.457031-.601562 5.507813-.71875 7.40625-.472656 7.554688.121094.078125.191406-.03125.191406-.296875Zm-2.355468-3.175781c.25-1.207032.566406-3.519532.714843-5.144532.320313-3.574218.324219-3.71875.054688-3.628906-.300781.101562-.59375 1.75-.992188 5.605469-.195312 1.863281-.398437 3.78125-.453125 4.265625-.0625.503906-.03125.925781.0625.984375.097656.058593.355469-.8125.613282-2.082031Zm-49.703126 1.808593c-.382812-.589843-1.632812-2-2.773437-3.136719l-2.074219-2.0625v-1.175781c0-.648437.058594-1.15625.132813-1.121093.070312.03125 1.234375 1.234374 2.589843 2.679687 1.355469 1.445313 2.53125 2.625 2.609376 2.625.082031 0 .191406.445313.246093.988281.058594.542969.132813 1.28125.171875 1.632813.035156.355469 0 .648437-.070312.648437-.070313 0-.445313-.484375-.832032-1.078125Zm43.019532-3.320312c-.050782-.191407-.027344-.730469.050781-1.191407l.140625-.84375 1.136719 1.457032c.625.804687 1.261719 1.5625 1.414062 1.6875.289063.242187.378907 1.277344.164063 1.84375-.097656.253906-.363282.046875-1.464844-1.144532-.742188-.800781-1.390625-1.613281-1.441406-1.808593Zm-2.203125 1.21875L288.375 168v-2.417969l.621094.6875c1.386718 1.554688 1.945312 2.363281 1.945312 2.828125 0 .566406-.199218 2.105469-.265625 2.039063-.023437-.027344-.554687-.746094-1.179687-1.59375ZM69.175781 146.25c-.050781-12.902344-.050781-23.480469 0-23.507812.046875-.027344 39.078125-.078126 86.734375-.113282l86.648438-.0625.039062 23.042969c.03125 15.9375-.015625 23.109375-.140625 23.257813-.125.152343-.125.324218.019531.574218l.1875.355469-86.699218-.042969-86.695313-.042968L69.183594 146.25Zm171.34375-7.363281c.28125-.585938.316407-1.050781.277344-3.988281-.023437-1.867188-.121094-3.46875-.21875-3.652344-.175781-.328125-1.367187-.335938-84.113281-.378906-55.808594-.027344-83.984375.019531-84.070313.128906-.070312.09375-.089843.328125-.035156.515625.054687.191406.136719 1.429687.191406 2.753906.085938 2.332031.285157 3.527344.570313 3.527344.078125 0 .277344-.285157.445312-.640625.269532-.570313.285156-.859375.125-2.707032-.09375-1.140624-.121094-2.128906-.058594-2.199218.0625-.070313 37.4375-.109375 83.058594-.085938l82.945313.042969.085937 3.097656.085938 3.09375-81.234375-.039062c-54.335938-.027344-81.320313.015625-81.492188.132812-.21875.148438-.195312.222657.148438.511719.402343.339844.933593.34375 81.0625.34375 44.363281 0 80.9375.046875 81.285156.105469.59375.097656.640625.070312.941406-.5625Zm-165.445312.339843c.296875-.289062-.222657-.917968-.753907-.917968-.421874 0-.429687.378906-.019531.75.335938.300781.589844.355468.773438.167968Zm211.046875 28.632813c-.683594-.875-1.8125-2.261719-2.503906-3.082031-.691407-.820313-1.257813-1.53125-1.257813-1.578125s.289063-.183594.636719-.296875c.5625-.1875.660156-.175782.816406.089844.324219.546874 1.777344 2.5625 2.835938 3.9375.804687 1.042968 1.039062 1.476562 1.039062 1.933593 0 .324219-.070312.589844-.15625.589844-.089844 0-.722656-.714844-1.410156-1.59375Zm-39.648438-2.203125c-2.566406-2.621094-2.625-2.695312-2.625-3.421875v-.746094l2.144532 2.089844c1.179687 1.148437 2.226562 2.089844 2.324218 2.089844.453125 0-.660156-1.464844-2.476562-3.253907-1.613282-1.589843-1.992188-2.054687-1.992188-2.453124 0-.269532.058594-.488282.125-.488282.070313 0 .996094.867188 2.058594 1.925782 1.0625 1.0625 1.980469 1.878906 2.042969 1.816406.214843-.214844-.613281-1.265625-2.410157-3.050782l-1.816406-1.800781v-2.074219l2.058594 2.113282c1.378906 1.417968 2.054688 2.007812 2.054688 1.789062 0-.472656-.789063-1.464844-2.558594-3.210937l-1.566406-1.542969v-.992188c0-.546874.0625-.996093.136718-.996093.074219 0 1.054688.929687 2.175782 2.066406 1.125 1.136719 2.074218 2.035156 2.113281 1.992187.242187-.242187-.40625-1.066406-2.296875-2.925781-1.703125-1.679687-2.128906-2.191406-2.128906-2.574219v-.472656l.472656.339844c.257812.183594 1.296875 1.121094 2.308594 2.082031l1.839843 1.742188.070313 1.929687c.039062 1.0625.195312 3.515625.347656 5.457032.394531 4.980468.417969 5.347656.304688 5.296874-.058594-.027343-1.28125-1.253906-2.722657-2.726562Zm40.640625.753906c-1.1875-1.472656-2.863281-3.730468-2.863281-3.855468 0-.078126.320312-.238282.714844-.359376.675781-.199218.730468-.191406.984375.191407.148437.222656.640625.871093 1.097656 1.441406.457031.578125.785156 1.148437.734375 1.28125-.050781.132813-.09375.582031-.09375 1 0 .417969-.046875.761719-.101562.761719-.058594 0-.273438-.207032-.472657-.460938Zm-19.921875 76.824219c-.035156-.113281-1.417968-.449219-3.152344-.765625-1.695312-.3125-3.6875-.730469-4.425781-.929688-1.351562-.363281-2.058593-.386718-1.410156-.046874.773437.40625 7.679687 1.941406 8.738281 1.945312.175782 0 .285156-.09375.25-.203125Zm-197.105468-2.070313c.359374-.097656.621093-.261718.585937-.371093-.042969-.132813-1.230469-.230469-3.746094-.304688-4.070312-.125-7.414062-.515625-12.367187-1.460937-4.558594-.871094-4.355469-.84375-4.261719-.5625.042969.132812.265625.261718.496094.292968.226562.03125 2.96875.550782 6.089843 1.15625 3.121094.605469 6.472657 1.179688 7.453126 1.277344 2.171874.21875 4.867187.207032 5.75-.027344Zm6.902343-1.054687c.457031-.335937.183594-.628906-.589843-.628906-.363282 0-2.972657-.460938-5.792969-1.027344-7.054688-1.410156-11.1875-2.15625-14.324219-2.582031-1.46875-.199219-3.425781-.503906-4.351562-.679688-1.136719-.210937-1.660157-.25-1.617188-.121094.035156.105469.5625.292969 1.167969.414063.605469.121094 2.535156.527344 4.285156.90625 1.746094.375 5.269531 1.070313 7.820313 1.542969 2.550781.472656 6.152343 1.160156 7.996093 1.53125 4.277344.855468 4.996094.941406 5.40625.644531Zm193.078125-.113281c.210938-.339844-.183594-.460938-1.863281-.570313-.863281-.054687-3.753906-.523437-6.414063-1.046875-2.664062-.519531-5.757812-1.074218-6.878906-1.226562-1.121094-.152344-2.914062-.464844-3.984375-.695313-2.121093-.457031-2.777343-.519531-2.503906-.25.089844.09375 1.289063.402344 2.652344.683594 1.367187.277344 3.261719.699219 4.207031.929687 6.507812 1.601563 14.421875 2.765626 14.785156 2.175782Zm5.242188-.246094c0-.164062-.332032-.308594-.988282-.4375-1.632812-.3125-4.667968-1.3125-9.925781-3.277344-5.957031-2.21875-9.089843-3.226562-12.550781-4.035156-2.671875-.625-3.527344-.730469-3.527344-.433594 0 .09375.183594.167969.402344.167969 1.296875 0 11.253906 3.371094 20.648438 6.988281 1.175781.453125 4.5625 1.273438 5.265624 1.273438.472657 0 .675782-.074219.675782-.246094Zm-193.441406-.644531c-.066407-.457031.230468-.363281-11.316407-3.65625-7.683593-2.191407-18.621093-5.089844-19.210937-5.089844-.121094 0-.21875.070313-.21875.152344s.507812.277343 1.125.433593c.617187.15625 2.804687.789063 4.855468 1.414063 6.789063 2.054687 11.753907 3.515625 16.109376 4.730469 2.367187.660156 5.160156 1.46875 6.21875 1.796875 2.277343.707031 2.511718.726562 2.4375.21875Zm65.910156-15.929688c1.511718-3.113281 2.015625-4.441406 2.289062-6.027343.296875-1.699219.34375-6.351563.078125-7.878907-.261719-1.5-1.011719-3.511719-1.3125-3.511719-.160156 0-.21875.109376-.160156.300782.832031 2.800781.957031 7.84375.296875 11.828125-.433594 2.597656-.867188 3.949219-1.820312 5.652343-.582032 1.042969-.757813 1.660157-.476563 1.660157.070313 0 .570313-.910157 1.105469-2.023438Zm188.800781-1.625c.035156-.121093.1875-.726562.347656-1.34375.15625-.613281.488281-1.777343.742188-2.578125.433593-1.378906.460937-1.660156.464843-4.90625 0-2.636718-.0625-3.734375-.285156-4.710937-.34375-1.503907-.921875-2.773438-1.261718-2.773438-.300782 0-.300782.082031.015624 1.132813.535157 1.808594.78125 3.917968.78125 6.675781 0 2.707031-.296874 5.539063-.691406 6.566406-.304687.800781-.484375 1.96875-.316406 2.070313.082031.050781.179688 0 .210938-.132813Zm-85.273437-9.132812c.148437-2.257813.441406-3.574219 1.277343-5.753907.625-1.632812.6875-1.941406.375-1.941406-.195312 0-1.203125 2.542969-1.566406 3.949219-.382813 1.480469-.640625 5.230469-.371094 5.398437.109375.066407.214844-.550781.285157-1.652343Zm-186.417969-.390625v-2.660156c-.019531-1.972657.070312-2.976563.414062-4.816407.636719-3.421875 1.207031-5.042969 2.566407-7.226562.953124-1.535157.835937-1.988281-.246094-.9375-.914063.890625-1.945313 3.007812-2.507813 5.152343-.410156 1.574219-.457031 2.085938-.53125 5.996094-.058593 3.007813-.027343 4.328125.109375 4.464844.105469.105469.195313.117188.199219.027344Zm195.980469-11.246094c0-.472656-.324219-.792969-1.25-1.226562-.566407-.269532-1.253907-.746094-1.535157-1.058594-.4375-.492188-.492187-.515625-.421875-.179688.046875.210938.023438.386719-.050781.386719-.074219 0-1.089844-.394531-2.261719-.871094-2.335937-.960937-2.804687-1.332031-3.09375-2.496093-.199218-.785157-.496094-1.035157-.496094-.414063 0 .191406.109376.613281.246094.9375.296875.71875.707032.859375-4.199218-1.445313-2.035157-.953124-3.789063-1.734374-3.898438-1.734374-.113281 0-.257812-.25-.324219-.558594-.15625-.738282-.824219-2.035156-2.210937-4.316406-.621094-1.027344-1.132813-1.933594-1.132813-2.015626 0-.078124-.128906-.21875-.285156-.308593-.375-.207031.550781-.308594 3.316406-.355469l2.082031-.03125.890626.996094c.492187.546875 1.476562 1.867187 2.191406 2.933594 1.246094 1.847656 1.765625 2.386718 1.507812 1.546874-.292968-.949218-1.132812-2.285156-2.597656-4.121093-.503906-.632813-.917969-1.191407-.917969-1.246094 0-.050781.691407-.09375 1.539063-.09375.84375 0 1.582031-.074219 1.640625-.164063.054687-.09375-.058594-.324218-.25-.515624l-.347657-.351563H191.9375c-34.085938 0-57.109375.0625-57.164062.15625-.179688.292969.101562.679687.632812.863281.359375.125 6.292969.183594 18.894531.183594h18.371094v1.792969c0 .988281.078125 2.003906.175781 2.261719.125.328124.117188.527343-.023437.699218-.15625.1875-.128907.316406.109375.585938.308594.339844.558594.339844 23.191406.335937 22.800781 0 22.878906 0 23.035156.34375.085938.191407.261719.347657.386719.347657.1875 0 .230469-.628907.230469-3.183594v-3.183594h19.429687v.433594c0 .238281.179688.722656.402344 1.074218.222656.355469.941406 1.570313 1.597656 2.707032.65625 1.136718 1.59375 2.578125 2.085938 3.199218l.890625 1.136719 4.507812 2.117188c4.164063 1.957031 11.429688 4.988281 11.953125 4.988281.125 0 .222657-.070312.222657-.15625Zm-65.363282-10.839844-21.613281-.019531-.089844-.558594c-.046875-.308593-.109375-1.351562-.136719-2.320312l-.046874-1.765625h45.128906l.019531 1.675781c0 .925781.066406 2.03125.140625 2.457031l.125.78125-.953125-.117187c-.527344-.070313-10.683594-.128907-22.566406-.136719Zm-154.308594 9.835938c.921876-.058594 1.214844-.226563.816407-.472656-.089844-.054688-2.855469-.175782-6.144531-.261719-3.285157-.089844-6.507813-.207031-7.160157-.269531-.953125-.089844-1.167969-.066407-1.101562.125.164062.496093 9.777343 1.117187 13.589843.878906Zm220.1875-.515625c0-.40625-1.796874-2.796875-2.101562-2.796875-.269531 0-.035156.4375.929688 1.726562.8125 1.089844 1.175781 1.421875 1.171874 1.070313Zm-15.304687-7.890625c0-.105469-.230469-.492188-.523437-.859375-.460938-.578125-1.464844-2.503907-1.765626-3.382813-.054687-.164062-.191406-.300781-.296874-.300781-.285157 0-.046876 1.097656.449218 2.078125.425782.839844 2.125 2.800781 2.136719 2.464844Zm-38.679687-8.375c0-.332032-2.667969-2.699219-4.730469-4.199219-1.035157-.75-3.277344-2.296875-4.980469-3.433594-1.703125-1.136719-3.710938-2.507812-4.46875-3.050781-.878906-.632812-1.394531-.910156-1.441406-.769531-.136719.402343 1.96875 2.132812 5.234375 4.308593 3.578125 2.382813 7.859375 5.382813 9.402343 6.585938.539063.425781.988282.675781.984376.558594ZM184.125 180.875c-.554688-.523438-3.148438-2.371094-5.757812-4.101562-2.613282-1.734376-5.242188-3.546876-5.84375-4.03125-.601563-.480469-1.164063-.835938-1.25-.78125-.214844.132812.398437.949218 1.359374 1.804687.792969.703125 7.335938 5.097656 10.097657 6.78125.753906.460937 1.496093.941406 1.644531 1.066406.152344.125.382812.222657.519531.21875.132813 0-.214843-.433593-.769531-.957031Zm55.167969-.511719c-.664063-.632812-1.707031-1.554687-2.320313-2.042969-2.308594-1.84375-9.15625-6.976562-9.304687-6.976562-.382813 0-.050781.394531 1.265625 1.5 2.140625 1.800781 10.996094 8.503906 11.382812 8.621094.097656.027344-.363281-.46875-1.023437-1.101563Zm-3.695313.980469c0-.261719-2.300781-2.335938-4.121094-3.714844-2.261718-1.714844-5.347656-3.875-5.535156-3.875-.429687 0 .140625.507813 2.992188 2.671875 1.726562 1.3125 3.894531 2.988281 4.816406 3.726563 1.710938 1.371094 1.847656 1.457031 1.847656 1.191406Zm-60.519531-.714844c0-.457031-2.492187-2.5-7.648437-6.273437-3.898438-2.847657-5.144532-3.613281-4.210938-2.585938.847656.9375 3.457031 3.015625 6.382812 5.089844 1.640626 1.164063 3.546876 2.53125 4.230469 3.035156.6875.507813 1.246094.835938 1.246094.734375ZM136.050781 180.5c0-.648438-2.472656-3.269531-4.960937-5.257812-2.265625-1.8125-5.140625-3.898438-5.371094-3.898438-.085938 0-.15625.074219-.15625.164062 0 .179688 2.242188 2.136719 4.660156 4.074219 4.070313 3.257813 4.863282 3.9375 5.121094 4.386719.265625.464844.707031.796875.707031.53125Zm-51.582031-1.199219c0-.070312-.324219-.359375-.710938-.644531-.386718-.28125-1.253906-.917969-1.929687-1.414062-1.316406-.964844-1.476563-1.039063-1.476563-.664063 0 .355469 1.621094 1.722656 2.761719 2.328125.984375.523438 1.367188.636719 1.355469.394531Zm162.300781-.738281c0-.363281-1.695312-2.34375-3.050781-3.558594-2.0625-1.847656-4.339844-3.660156-4.601562-3.660156-.460938 0-.445313.367188.03125.777344.269531.226562 1.300781 1.082031 2.292968 1.894531.996094.816406 2.597656 2.21875 3.566406 3.117187.972657.898438 1.761719 1.542969 1.761719 1.429688Zm-155.761719-1.78125c0-.28125-.328124-.714844-1.0625-1.394531-1.261718-1.171875-3.359374-2.601563-3.539062-2.414063-.121094.128906.523438.738282 2.882812 2.714844.6875.578125 1.097657 1.050781 1.066407 1.222656-.035157.1875.066406.285156.300781.285156.257812 0 .351562-.113281.351562-.414062Zm2.753907-1.292969c0-.449219-.355469-.828125-1.761719-1.917969-1.554688-1.203124-2.203125-1.507812-1.863281-.875.203125.382813 1.019531 1.113282 2.113281 1.902344.488281.351563.761719.664063.703125.8125-.0625.164063.046875.234375.355469.234375.25 0 .453125-.070312.453125-.15625Zm3.261719-1.234375c0-.359375-1.566407-2.039062-2.234376-2.394531-.640624-.34375-.378906.273437.535157 1.277344.574219.628906.78125.960937.601562.960937-.484375 0-.292969.296875.261719.40625.789062.160156.835938.144532.835938-.25Zm-47.964844-1.351562c.222656-.164063.210937-.230469-.117188-.503906-.332031-.28125-.851562-.324219-4.898437-.417969-2.488281-.054688-7.117188-.292969-10.285157-.527344-5.902343-.441406-9.914062-.652344-18.652343-.976563-2.742188-.101562-5.25-.230468-5.570313-.28125-.445312-.078124-.558594-.046874-.5.136719.058594.175781.652344.273438 2.300782.371094 1.222656.070313 5.121093.363281 8.667968.644531 17.847656 1.425782 28.453125 1.992188 29.054688 1.554688Zm10.75-16.828125c-.234375-.578125-.417969-7.765625-.425782-16.667969 0-7.820312-.042968-8.996094-.269531-9.1875-.144531-.117188-.292969-.183594-.332031-.148438-.039062.039063-.164062 1.542969-.277344 3.335938-.34375 5.484375-.09375 12.109375.867188 22.925781 0 .023438.128906.042969.28125.042969.191406 0 .242187-.089844.15625-.300781Zm4.972656-7.054688c.117188-5.855469-.113281-17.792969-.40625-20.902343-.136719-1.488282-.453125-2.292969-.714844-1.820313-.128906.234375.015625 8.425781.375 21.347656.15625 5.539063.257813 7.355469.414063 7.355469s.242187-1.472656.332031-5.980469ZM32.4375 138.027344c.265625-.046875.449219-.175782.414062-.289063-.070312-.214843-6.171874-.445312-21.101562-.789062-10.316406-.238281-11.734375-.234375-11.6523438 0 .0429688.128906.9453128.214843 2.7226558.253906 6.519532.136719 10.359376.273437 14.519532.507813 4.648437.261718 14.253906.460937 15.097656.308593Zm71.035156-54.375c1.027344-.085938 2.683594-.605469 2.609375-.816406-.035156-.101563-.289062-.160157-.5625-.128907-.273437.03125-3.902343.09375-8.0625.140625-6.796875.070313-9.277343.015625-24.414062-.613281-9.265625-.382813-20.714844-.773437-25.445313-.871094-4.726562-.097656-10.972656-.261719-13.871094-.359375-5.246093-.179687-6.582031-.128906-6.445312.246094.042969.109375.179688.164062.308594.125.546875-.15625 4.507812-.039062 13.90625.417969 12.996094.632812 25.972656 1.195312 39.625 1.714843 5.78125.222657 20.289062.316407 22.351562.144532Zm79.585938-41.703125c3.035156-.152344 3.457031-.21875 3.285156-.503907-.074219-.113281-3.828125-.171874-10.800781-.164062-7.136719 0-12.4375-.078125-15.9375-.25-2.882813-.140625-6.753907-.304688-8.59375-.363281-1.84375-.058594-7.722657-.335938-13.066407-.613281-5.347656-.273438-10.042968-.515626-10.445312-.535157-.820312-.042969-1.101562.265625-.304688.332031.289063.023438 4.738282.277344 9.886719.5625 5.15625.28125 11.691407.667969 14.527344.855469 2.839844.191407 6.511719.425781 8.167969.527344 3.945312.242187 19.574218.34375 23.28125.152344Zm41.964844-36.914063c1.574218-.140625 5.863281-.628906 6.070312-.6875.125-.039062.171875-.15625.105469-.261718-.128907-.210938-.769531-.1875-5.917969.203124-3.847656.292969-17.773438.109376-25.445312-.339843-30.75-1.78125-39.246094-1.988281-76.214844-1.863281-14.355469.050781-26.148438.140624-26.203125.195312-.058594.058594-.066407.140625-.023438.183594.042969.046875 13.382813.164062 29.640625.257812 39.070313.234375 45.613282.410156 70.996094 1.925782 4.625.273437 8.367188.367187 16.160156.40625 5.578125.023437 10.453125.015624 10.832032-.019532Zm0 0"/>
  </g>
  <path d="M296.398425 130.407874c-.109376 0-.21875 0-.328126.023438-.175781-2.386719-.503906-4.464844-1.050781-5.648438-.199219-.722656-.59375-1.09375-1.117187-1.160156-.242188-.066406-.351563.042969-.304688.371094.390625 1.359375.546875 3.855468.589844 6.546875-2.472656.195312-5.824219.546875-6.742188.984375.019532-2.84375-.109374-5.429688-.636718-6.785156-.128906-.746094-.480469-1.117188-1.027344-1.183594-.21875-.066406-.328125.066406-.328125.371094.371094 1.621093.21875 4.730468.019531 8.015624-.457031.109376-.941406.4375-1.378906.566407.109375 1.292969.679688 1.601562.832031 2.714843l.328125.023438c-.085937 1.621094-.152344 3.085938-.109375 4.136719.109375 1.117187.746094 3.613281 1.554688 3.8085935.199219-.2187505.21875-.6132815.285156-.9179685.042969-1.75.242187-4.597656.371094-7.554688 1.535156-.238281 4.488281-.480468 6.875-.566406l.023437 1.136719c.042969 1.621093.085938 3.085937.21875 4.160156.195313 1.09375 1.027344 3.589844 1.835938 3.7890625.175781-.2187495.199218-.6132815.222656-.9218755-.089844-1.773437-.109375-4.726562-.222656-7.75l-.019532-.480468h.285157ZM307.978209 139.364906c.304687 1.136718.875 2.210937 2.386719 2.296874-.722657-2.253906-4.730469-14.230468-3.613282-16.199218.4375-.789063-.042968-1.6875-.855468-1.863282-.019532 0-.019532.023438-.019532.066407-1.03125 2.363281-9.546875 16.640625-8.058594 17.972656.21875.441406.59375.660156.988282 1.007813.414062.375.851562.765624 1.179687-.195313.4375-1.292969.023438-4.09375 2.125-4.574219l5.210938-.898437Zm-5.648438-4.226563c.523438-1.359375 2.691407-6.65625 3.371094-6.984375.195313 1.773438.636719 5.582031 1.117187 7.117188-1.664062 0-4.511718.414062-4.488281-.132813ZM323.259527 126.38053c-.109375-1.925781-3-2.976562-2.914063-1.902343 3.808594 11.972656-3.109375 21.125-5.824219 14.007812-1.640624-4.3125-.765624-12.039062-.085937-13.441406.414063-.832031-2.605469-1.335937-2.933594-.589844-1.226562 4.421875-1.09375 18.761719 5.101563 18.761719 7.792968-.570312 6.960937-11.429688 6.65625-16.835938ZM335.779355 136.013343c-.285156-1.136719-.722656-1.96875-2.78125-3.109375l-5.953125-1.554688c-.789062-.414062-.175781-1.113281-.023438-1.289062 2.082032-3.023438 5.5625-3.808594 8.625-2.585938 1.207032.308594 1.46875.328126.984376-1.050781l-1.355469-2.691406c-.285157-.085937-.765625-.414063-1.355469.589844-.832031.460937-2.78125.046875-4.6875 1.207031-1.707031 1.050781-4.3125 2.449219-4.7070312 4.421875-.3945308 1.902344 1.7539062 4.222656 3.3515622 4.816406 1.160157.414063 7.375 1.203125 6.828125 2.800781-.613281 1.75-4.355468 2.933594-6.195312 3.175782-1.664063.195312-4.332032-1.445313-3.546875.699218 1.207031 1.335938 2.082031 2.472657 4.378906 2.144532 3.832031-1.09375 4.246094-1.269532 5.738281-1.925782 1.726563-.503906 1.378906-2.253906 1.289063-3.457031Zm-8.339844-1.246094c0-.023437-.046875-.046875-.066406-.046875Zm-.089843-.089843c-.019532.023437 0 .023437.023437.042968Zm0 0"/>
  <g clip-path="url(#b)">
    <path d="M189.097656 244.285156c-47.226562.320313-94.449218.640625-141.675781.960938-13.355469.089844-26.785156.566406-40.128906.027344-.472657-.019532-.066407-.777344.265625-.796876 11.746094-.625 23.5625-.421874 35.316406-.511718 11.765625-.089844 23.53125-.183594 35.296875-.273438 23.730469-.183594 47.460937-.367187 71.191406-.550781 13.363281-.101563 26.726563-.207031 40.085938-.308594 1.164062-.011719.539062 1.445313-.351563 1.453125"/>
  </g>
  <g clip-path="url(#c)">
    <path d="M368.175781 244.304688c-46.398437-.320313-92.792969-.640626-139.1875-.957032-13.121093-.089844-26.316406-.570312-39.425781-.03125-.464844.019532-.066406.78125.261719.796875 11.539062.625 23.148437.421875 34.695312.515625 11.558594.089844 23.121094.179688 34.679688.269532 23.3125.183593 46.628906.371093 69.941406.550781 13.128906.105469 26.253906.207031 39.382813.3125 1.140624.007812.527343-1.449219-.347657-1.457031"/>
  </g>
</svg>
