<svg xmlns="http://www.w3.org/2000/svg" version="1.0" viewBox="0 0 217.5 374.999991">
  <defs>
    <clipPath id="a">
      <path d="M0 1h215.503906v372H0Zm0 0"/>
    </clipPath>
    <clipPath id="b">
      <path d="M2.441406 371.667969h113.738282v2.902343H2.441406Zm0 0"/>
    </clipPath>
    <clipPath id="c">
      <path d="M113 371h103v3.570312H113Zm0 0"/>
    </clipPath>
    <clipPath id="d">
      <path d="m113.601562 371.375 101.761719.886719-.019531 2.246093-101.761719-.886718Zm0 0"/>
    </clipPath>
    <clipPath id="e">
      <path d="m215.65625 372.265625-101.761719-.886719-.019531 2.242188 101.761719.890625Zm0 0"/>
    </clipPath>
  </defs>
  <g clip-path="url(#a)">
    <path d="M63.875 372.371094c-1.796875-.460938-2.46875-1.199219-2.558594-2.828125-.082031-1.335938.003906-1.566407.945313-2.613281 1.636719-1.808594 2.992187-2.183594 7.886719-2.183594 2.289062 0 4.550781.085937 5.03125.191406l.871093.199219.589844-2.285157.585937-2.28125-.597656-.117187c-.328125-.074219-1.972656-.390625-3.664062-.710937-3.585938-.691407-7.261719-1.804688-9.222656-2.796876-1.277344-.644531-1.441407-.664062-1.886719-.257812-.277344.25-.71875.457031-.980469.457031-.835938 0-.558594-1.480469 1.058594-5.652343 2.242187-5.78125 3.269531-8.886719 3.628906-10.996094.179688-1.019532.96875-4.769532 1.75-8.320313 1.5-6.796875 2.683594-12.359375 5.96875-28.121093 1.105469-5.289063 2.40625-11.417969 2.898438-13.628907 2.433593-10.945312 4.191406-19.878906 5.75-29.265625.945312-5.679687 2.027343-11.621094 2.40625-13.199218.554687-2.308594.71875-3.992188.863281-8.609376.097656-3.160156.300781-8.125.460937-11.046874.148438-2.917969.261719-11.027344.25-18.019532-.027344-11.183594.023438-12.78125.417969-13.214844 1.285156-1.421874 4.347656-19.332031 5.355469-31.316406.386718-4.617187.261718-22.800781-.308594-44.984375l-.394531-15.289062.761719-.761719c.703124-.703125 1.015624-.777344 4.277343-.992188 1.933594-.132812 3.605469-.144531 3.710938-.027343.101562.117187.328125 5.753906.496093 12.523437.179688 7.316406.421876 12.417969.585938 12.589844.308594.308594 9.617188.105469 11.046875-.242188.753906-.183593.800781-.269531.625-1.238281-.105469-.566406-.257813-5.847656-.34375-11.734375-.113281-8.117187-.058594-10.808594.203125-11.121094.421875-.515624 1.421875-.554687 1.421875-.054687 0 .269531.78125.335937 3.230469.277344 1.773437-.054688 3.394531.019531 3.589844.15625.558593.382812.921874 3.25.929687 7.238281.003906 4.859375.394531 9.765625 1.734375 21.808594 1.414062 12.65625 2.136719 17.789062 4.316406 30.371094 3.023438 17.523437 3.976563 21.769531 5.996094 26.769531l1.765625 4.355469-.304687 2.464843c-.164063 1.355469-.359376 10.152344-.433594 19.539063l-.136719 17.074218.867187 4.875c.472657 2.683594 1.238282 6.554688 1.691407 8.609376 1.328125 6.003906 2.210937 11.128906 3.730469 21.667968 6.371093 44.324219 8.507812 56.835938 12.792968 74.675782.710938 2.972656 1.367188 6.078124 1.457032 6.898437.09375.816406.273437 1.617187.382812 1.777344.117188.15625.152344.714843.074219 1.234375-.105469.679687-.265625.910156-.558594.789062-.5-.1875-1.402344.246094-2.390625 1.140625-.441406.40625-2.457031 1.195313-5.308594 2.078125l-4.589844 1.417969.085938.832031c.039062.460938.328125 1.683594.636719 2.722656l.558593 1.894532 1.371094-.230469c2.539063-.414063 8.464844-.296875 9.925782.195313 2.617187.894531 3.3125 3.144531 1.503906 4.855468-1.566406 1.472656-3.867188 1.960938-8.523438 1.800782-4.03125-.136719-4.972656-.375-6.347656-1.625-.886719-.808594-1.03125-1.972657-.367188-2.992188.367188-.550781.367188-.792969.019532-1.8125-.226563-.644531-.558594-2.027344-.738282-3.078125-.183593-1.0625-.480468-1.902344-.664062-1.894531-.175781 0-1.425781.269531-2.769531.589844-1.683594.410156-3.875.636718-7.097657.75-4.1875.144531-4.664062.210937-4.664062.65625 0 .277343-.210938.679687-.457031.890624-.398438.320313-.527344.296876-.871094-.179687-.578125-.78125-1.359375-3.609375-2.378906-8.601563-2.449219-12-4.058594-24.8125-5.480469-43.753906-1.652344-21.890625-3.058594-33.476562-5.648438-46.484375-1.21875-6.078125-1.210937-6.078125-1.9375.972657-.253906 2.511718-2.0625 14.132812-4.015624 25.824218-5.355469 32.03125-6.742188 42.078125-7.324219 53.113282-.164063 3.15625-.375 6.414062-.472657 7.242187-.117187 1.027344-.070312 1.507813.144532 1.507813.546875 0 .371094 2.367187-.253906 3.300781-.738282 1.117187-.71875 1.289062.144531 1.289062.503906 0 .714843.15625.714843.527344 0 1.953125-4.625 3.023437-12.949218 3.003906l-5.632813-.019531-.308593 1.039062c-.171876.574219-.394532 1.625-.5 2.328126-.113282.710937-.308594 1.515624-.445313 1.777343-.152344.296875-.132813.558594.039063.664063.90625.558594-.632813 2.882812-2.554688 3.863281-2.957031 1.503906-8.898438 2.414063-11.46875 1.753906Zm9.167969-2.769532c1.195312-.382812 2.40625-.941406 2.691406-1.25.484375-.546874.464844-.574218-.605469-1.03125-.71875-.3125-2.308594-.527343-4.59375-.632812-4.9375-.222656-7.273437.453125-7.273437 2.109375 0 1.863281 5.089843 2.285156 9.78125.804687Zm81.222656-.136718c1.582031-.421875 1.886719-.957032 1.023437-1.816406-1.136718-1.140626-2.742187-1.414063-7.089843-1.230469-4.441407.195312-5.164063.339843-5.164063 1.066406 0 1.078125 1.527344 1.789063 5.164063 2.398437 1.011719.179688 4.820312-.089843 6.066406-.417968Zm-23.859375-9.75c3.777344-.210938 6.058594-.585938 10.761719-1.742188 3.445312-.855468 8.378906-2.535156 8.753906-2.980468.179687-.21875.738281-.488282 1.238281-.59375.5-.109376 1.398438-.445313 1.992188-.742188l1.078125-.546875-.539063-1.070313c-1.589844-3.175781-5.445312-18.792968-7.636718-30.980468-2.539063-14.117188-3.664063-21.488282-8.636719-56.601563-.933594-6.628906-2.671875-16.429687-3.292969-18.648437-.152344-.550782-.644531-3.328125-1.085938-6.167969l-.804687-5.164063.199219-16.785156c.125-10.132812.335937-17.722656.53125-19.148437l.335937-2.355469-1.703125-4.109375c-.941406-2.265625-1.914062-4.816406-2.15625-5.679687-.988281-3.464844-4.742187-23.914063-6.347656-34.550782-1.078125-7.167968-2.683594-22.8125-3.460938-33.808594l-.179687-2.519531-2.628906.078125-2.625.085938-.085938 1.789062-.085937 1.796875h2.578125c2.746093 0 3.285156.25 2.460937 1.148438-.382812.429687-.964844.566406-2.675781.632812-1.992187.074219-2.191406.132813-2.136719.65625.03125.316407.144532 1.941407.253906 3.621094.183594 2.871094.160157 3.089844-.460937 3.925781-.8125 1.105469-1.542969 1.394532-4.550781 1.789063-2.585938.335937-10.023438.15625-10.4375-.257813-.402344-.40625-.777344-3.714844-.785156-7v-3.082031h-1.542969c-.851563 0-1.960938-.085937-2.472657-.183594l-.9375-.191406.160157 5.851563c.734375 26.621093.820312 33.292968.5 37.996093-.449219 6.449219-1.539063 15.085938-2.761719 21.804688-1.179688 6.476562-1.914062 9.3125-2.855469 11.003906l-.699219 1.25.308594 7.359375c.171875 4.046875.21875 9.570312.113282 12.273438l-.191407 4.90625 6.261719.160156c3.449219.089844 8.589844.3125 11.433594.503906 8.4375.558594 15.527344.152344 22.894531-1.3125 2.796875-.5625 3.453125-.382812 2.582031.695312-.632812.78125-5.328125 1.796876-10.808594 2.335938-4.441406.433594-16.234374.222656-23.707031-.421875-2.761719-.242187-5.828125-.441406-6.8125-.441406h-1.796875v.929687c-.007812 4.976563-1.085937 20.046875-1.59375 22.164063-.222656.949219-.917968 4.953125-1.558594 8.902343-1.964843 12.199219-2.5625 15.488282-4.453124 24.527344-7.128907 34.097656-9.457032 45.121094-10.71875 50.792969-.789063 3.550781-1.769532 8.195313-2.183594 10.320313-.410156 2.125-.941406 4.078124-1.183594 4.339843-.402344.449219-2.980469 6.886719-2.980469 7.453125 0 .402344 2.484375 1.558594 5.109375 2.386719 6.421875 2.019531 15.832032 3.136719 21.476563 2.539063 1.710937-.175782 3.761719-.480469 4.566406-.664063l1.453125-.339844-.179688-1.039062c-.097656-.574219-.070312-1.601563.054688-2.289063.125-.730468.085938-2.113281-.101562-3.304687-.914063-5.832031 1.199218-25.765625 5.203124-49.246094 6.046876-35.386719 6.183594-36.375 6.636719-46.183594.171875-3.753906.441407-6.917969.605469-7.121093.21875-.269532.027344-.625-.734375-1.367188-2.546875-2.476562-3.519531-5.785156-3.203125-10.894531.203125-3.269531.414062-3.875 1.328125-3.875.492187 0 .53125.269531.539063 3.65625 0 2.414062.152343 4.140625.425781 5.074219.863281 2.828124 2.5 4.867187 4.625 5.753906 1.144531.480468 1.324219 1.433594.328125 1.75-.78125.25-1.347656.933594-1.351563 1.652344-.007812.292968.578125 3.070312 1.292969 6.167968 4.054688 17.515625 5.039062 24.832032 7.730469 57.582032 1.484375 18.0625 2.210937 23.757812 4.945312 38.820312 1.296875 7.144531 1.402344 7.539062 1.941407 7.355469.316406-.113281 2.320312-.296875 4.445312-.414063Zm-.144531-119.34375c-.875-.355469-2.886719-2.664063-3.675781-4.222656-1.546876-3.054688-2.171876-7.324219-1.191407-8.136719.59375-.496094.691407-.34375 1.152344 1.859375.503906 2.429687 2.0625 5.683594 3.511719 7.339844 1.558594 1.785156 1.914062 2.5 1.484375 3.019531-.386719.460937-.464844.476562-1.28125.140625Zm-42.320313-1.460938c0-.324218.570313-1.980468 1.277344-3.683594.703125-1.703124 1.578125-4.183593 1.945312-5.511718.453126-1.625.808594-2.414063 1.09375-2.414063 1.023438 0 .609376 2.644531-1.074218 6.871094-1.578125 3.96875-3.242188 6.394531-3.242188 4.738281Zm9.617188-55.300781c-.113282-.273437-.316406-3.273437-.460938-6.667969-.136718-3.394531-.382812-8-.539062-10.242187-.199219-2.714844-.199219-4.3125-.007813-4.820313.160157-.414062.285157-1.894531.285157-3.28125 0-1.699218.125-2.632812.367187-2.835937.210937-.171875 2.867187-.375 6.378906-.480469 3.316407-.105469 7.992188-.269531 10.398438-.382812 2.410156-.105469 4.507812-.148438 4.664062-.097657.433594.144531.335938 1.078125-.15625 1.492188-.433593.363281-6.117187.71875-13.90625.875-1.816406.039062-3.914062.125-4.664062.199219l-1.359375.125v5.15625l2.222656-.160157c1.222656-.089843 6.328125-.195312 11.339844-.242187l9.117187-.078125-.191406-1.296875c-.175781-1.222656-.664063-3.019532-1.097656-4.0625-.257813-.621094.800781-1.726563 1.425781-1.488282.992188.382813 1.722656 4.019532 1.160156 5.796876-.105468.328124.019532 1.273437.273438 2.109374.355468 1.136719.535156 3.492188.71875 9.339844.136718 4.300782.328125 7.945313.421875 8.097656.214843.355469-.871094 1.441407-1.441407 1.441407-.238281 0-.515624-.183594-.597656-.414063-.140625-.363281-.25-.371094-.785156-.035156-.960938.613281-10.964844 1.738281-17.976562 2.035156-2.289063.089844-4.4375.230469-4.773438.292969-.402344.082031-.691406-.050781-.816406-.375Zm10.515625-2.222656c2.894531-.242188 7.117187-.664063 9.382812-.941407l4.121094-.503906-.042969-5.894531c-.027344-3.242187-.171875-6.730469-.316406-7.742187-.144531-1.011719-.269531-1.972657-.269531-2.128907-.007813-.1875-1.007813-.226562-2.804688-.101562-1.539062.101562-6.589843.199219-11.21875.210937l-8.421875.035156.179688 1.359376c.097656.75.296875 4.558593.441406 8.460937.144531 3.90625.339844 7.226563.4375 7.390625.246094.394531 2.363281.363281 8.511719-.144531Zm-10.089844-64.085938v-1.683593l-2.195313-.195313c-1.203124-.113281-2.300781-.09375-2.441406.042969-.132812.140625-.164062.851562-.058594 1.585937.164063 1.230469.257813 1.355469 1.078126 1.488281 3.882812.625 3.617187.710938 3.617187-1.238281Zm21.636719-6.886719c.207031-2.675781.183594-3.300781-.144532-3.511718-.21875-.136719-1.535156-.257813-2.910156-.257813h-2.511718v3.394531c0 1.867188.09375 3.488282.199218 3.597657.109375.113281 1.308594.164062 2.65625.121093l2.453125-.082031.257813-3.253906Zm-21.636719-.753906v-3.875h-5.164063v1.242188c0 .683594.082032 2.425781.1875 3.875l.183594 2.625h4.792969Zm110.117187 194.320313c2.085938-2.121094 4.722657-5.457031 5.257813-6.640625.375-.847656.433594-1.285156.214844-1.691406-.375-.703126.039062-1.144532.949219-1.011719.550781.078125.695312.289062.761718 1.148437.175782 2.132813-2.480468 5.742188-5.878906 7.988282-1.199219.789062-2.25 1.433593-2.335938 1.433593-.09375 0 .375-.554687 1.03125-1.226562Zm-8.253906-1.828125c0-.105469.558594-.847656 1.25-1.648438 2.40625-2.835937 2.867188-3.75 2.683594-5.304687-.183594-1.53125.097656-2.042969 1.117188-2.042969 1.738281 0 1.125 3.589844-1.089844 6.378906-1.164063 1.472656-3.960938 3.316406-3.960938 2.617188Zm-52.609375-3.789063c-.433593-.476562-.472656-2.675781-.464843-25.75 0-26.289062.019531-26.652343 1.183593-26.664062.25 0 .644531-.167969.875-.355469.308594-.257812 2.945313-.371094 9.867188-.429688l9.445312-.070312.097657-.710938c.050781-.390624.328124-1 .617187-1.363281.453125-.585937.519531-1.367187.558594-6.984375l.039062-6.335937-.855469-.980469c-1.039062-1.175781-1.292968-2.367188-1.109374-5.101562.15625-2.363282 1.289062-5.164063 2.753906-6.835938.554687-.628906.910156-1.347656.910156-1.835938 0-.4375-.769531-3.582031-1.703125-6.992187-.941406-3.40625-2.871094-10.773437-4.289063-16.375-1.421874-5.605469-3.453124-13.089844-4.511718-16.644531-1.054688-3.550782-2.046875-6.972656-2.199219-7.601563-1.328125-5.527343-5.117187-12.480469-12.3125-22.621093-8.878906-12.503907-14.332031-19.410157-19.484375-24.667969-2.195312-2.242188-3.992188-4.300781-3.992188-4.570313-.003906-.414062.769532-1.085937 1.265626-1.085937.578124 0 6.78125 6.355469 10.082031 10.335937 2.960937 3.558594 11.195312 14.378906 14.820312 19.460938 5.871094 8.242187 9.148438 14.042968 10.746094 19.035156.421875 1.316406 1.636719 5.035156 2.699219 8.269531 1.058594 3.234375 2.589844 8.464844 3.398437 11.621094 2.203125 8.632813 5.992188 23.300781 7.175781 27.832031l1.058594 4.019532 1.304688.183593c1.691406.242188 2.820312.839844 3.898437 2.070313 1.203125 1.375 1.605469 2.769531 1.449219 5.035156-.160156 2.15625-1.097656 4.285156-2.660156 6.011719l-.976563 1.082031-.042969 6.296875c-.023437 3.941406.074219 6.597656.269532 7.105469.171875.4375.316406 1.183594.316406 1.640625v.851562h21.449219l.46875.703125c.414062.636719.460937 3.136719.460937 25.207032 0 23.367187-.019531 24.519531-.527344 24.972656-.742187.679687-1.152343.585937-1.375-.296875-.109374-.425781-.117187-11.527344-.023437-24.675781l.164063-23.910157-24.726563.070313-24.734375.074218.105469 6.03125c.0625 3.308594.125 6.042969.144531 6.070313.027344.027344 10.152344-.09375 22.496094-.257813 12.355468-.167968 22.535156-.230468 22.636718-.136718.089844.097656.089844.5-.007812.894531-.136719.527344-.429688.761719-1.113281.882813-.511719.089843-10.613281.261718-22.449219.375l-21.519531.203124-.074219 17.71875-.078125 17.714844h25.09375c17.121094 0 25.152344.097656 25.277344.300782.105469.164062-.019531.621093-.277344 1.007812l-.460937.703125h-25.34375c-24.183594 0-25.363282-.027344-25.816407-.527344Zm28.113281-54.058593c-.261718-1.351563-1.195312-2.027344-2.453124-1.789063-1.519532.28125-2.546876.914063-3.039063 1.859375l-.441406.863281h6.113281Zm-1.753906-3.640626 1.144532-.164062.078124-5.0625.078126-5.058594-1.65625.046875-1.660157.050781-.066406 1.28125c-.03125.707032-.097656 3.121094-.144531 5.367188-.070313 3.976562-.058594 4.078125.5 3.894531.316406-.105469 1.09375-.269531 1.726562-.355469Zm2.550782-12.964843c2.164062-1.703125 3.039062-5.996094 1.628906-8.050781-3.101563-4.53125-7.9375-2.496094-8.285156 3.496093-.144532 2.558594.289062 3.707031 1.75 4.597657 1.300781.792968 3.871093.773437 4.90625-.042969Zm18.535156 33.515625c0-.789063.738281-1.394532 1.570312-1.296875.988282.113281 1.207032.574219.574219 1.210937-.558594.558594-2.144531.625-2.144531.085938ZM70.734375 243.355469c-4.089844-1.136719-6.894531-4.269531-6.894531-7.695313 0-.777344-.253906-.894531-3.683594-1.757812l-1.8125-.457032-1.574219 1.042969c-.867187.578125-2.277343 1.289063-3.128906 1.59375-1.863281.65625-4.710937.710938-5.863281.117188-1.296875-.671875-2.664063-3.339844-2.859375-5.578125l-.160157-1.867188-3.589843-.914062c-1.96875-.5-4.53125-1.257813-5.691407-1.679688l-2.097656-.769531-1.789062.71875c-2.359375.945313-5.914063 1.664063-8.140625 1.652344-3.566407-.019531-5.972657-1.113281-8.703125-3.949219-2.085938-2.164062-2.625-3.332031-2.671875-5.828125-.019531-1.117187.132812-1.820313.507812-2.378906.914063-1.34375 3.289063-1 6.359375.914062 1.433594.894531 4.421875-1.074219 5.480469-3.613281.464844-1.109375.964844-1.03125.964844.160156 0 .734375-1.539063 3.460938-1.960938 3.484375-.101562 0-.5625.335938-1.019531.738281-.609375.539063-.742188.808594-.5 1.050782.179688.179687.324219.554687.324219.84375 0 .75.472656.636718 1.972656-.46875 2.492187-1.828125 3.402344-3.828125 2.527344-5.53125-.25-.472656-1.585938-1.675782-2.972657-2.683594-1.390624-1-2.59375-1.90625-2.671874-2.019531-.078126-.105469-.402344-.242188-.71875-.300781-.851563-.164063-1.695313-2.132813-1.386719-3.242188.742187-2.664062 7.269531-2.949219 12.0625-.527344 2.804687 1.421875 3.566406 2.445313 5.554687 7.464844.144532.355469.453125.644531.695313.644531.242187 0 3.222656.90625 6.625 2.011719 3.398437 1.105469 6.320312 2.007812 6.492187 2.007812.175782 0 .984375-.324218 1.800782-.722656.980468-.480468 2.242187-.796875 3.738281-.933594l2.246093-.207031 1.210938-3.589843c.664062-1.972657 3.816406-11.078126 7-20.226563 3.175781-9.15625 6.945312-20.316406 8.375-24.8125 1.425781-4.484375 4.140625-12.621094 6.042969-18.074219 5.367187-15.382812 7.9375-23.027344 8.078125-24.027344.171875-1.203124.394531-1.519531 1.066406-1.519531 1.128906 0 .542969 3.078125-2 10.472657-6.472656 18.804687-9.261719 27.085937-11.40625 33.859374-1.347656 4.257813-4.652344 14.070313-7.335938 21.804688-5.6875 16.394531-8.410156 24.550781-8.699218 26.074219-.1875.980469-.105469 1.191406.808594 2.140625.550781.578125 1.214843 1.472656 1.472656 1.976562.347656.707032.75.996094 1.675781 1.230469.671875.171875 1.597656.441406 2.066406.59375.636719.210937 1.445313.125 3.289063-.335937 4.128906-1.039063 7.675781-.453126 9.972656 1.636718 1.222656 1.117188 3.105469 4.113282 3.722656 5.941406.28125.820313.511719 2.269532.519532 3.222657.019531 2.972656-1.46875 4.289062-2.671876 2.355469-1.816406-2.921876-4.078124-3.902344-6.332031-2.738282-1.5625.804688-2.308593 1.785156-2.515625 3.28125-.144531 1.085938-.078125 1.207032 1.363282 2.5 1.214843 1.09375 1.585937 1.644532 1.894531 2.84375.527343 2.019532.484375 2.519532-.261719 3.4375-.824219 1.007813-2.601562 1.246094-4.796875.632813Zm2.632813-2.546875c-1.546876-1.667969-2.738282-4.050782-2.6875-5.351563.046874-1.296875.710937-3.203125 1.5-4.308593.988281-1.386719 3.304687-2.554688 5.09375-2.554688 1.839843 0 2.378906.25 4.144531 1.957031l1.359375 1.320313v-.808594c0-.441406-.175782-1.144531-.394532-1.566406-.214843-.421875-.585937-1.214844-.828124-1.773438-.617188-1.460937-1.828126-2.789062-3.191407-3.515625-2.339843-1.25-8.636719-.503906-9.949219 1.179688l-.574218.722656L66 225.457031c-1.980469-.695312-2.449219-.628906-2.449219.355469-.007812.933594-1.230469 3.386719-2.300781 4.605469-.535156.605469-.828125 1.175781-.683594 1.308593.144532.125.894532.382813 1.667969.574219.777344.1875 1.84375.519531 2.371094.742188.847656.355469.957031.523437.957031 1.484375 0 1.890625.535156 3.164062 1.882812 4.511718 1.566407 1.566407 4.433594 3.019532 5.972657 3.035157h1.113281l-1.164062-1.269531Zm.808593-2.15625c-.316406-.605469-.871093-1.046875-.871093-.703125 0 .222656.875 1.257812 1.058593 1.257812.0625 0-.023437-.25-.1875-.554687Zm-19.078125-5.070313c2.179688-1.058593 5.375-4.15625 6.191406-6.007812.441407-.984375.605469-1.925781.589844-3.351563-.039062-4.304687-2.011718-7.125-5.292968-7.570312-1.296876-.1875-4.089844.308594-4.375.761718-.078126.132813.429687.632813 1.125 1.117188 1.546874 1.058594 2.027343 2.28125 1.816406 4.605469-.183594 2.078125-.761719 3.175781-2.679688 5.089843-1.953125 1.953126-4.417968 3.058594-4.417968 1.972657 0-.214844-.335938-.460938-.742188-.539063-.710938-.128906-.746094-.085937-.601562.804688.199218 1.203125 1.515624 3.203125 2.46875 3.75 1.152343.648437 3.867187.359375 5.917968-.632813Zm-3.496094-6.386719c1.492188-1.382812 2.746094-4.75 1.867188-5.039062-.210938-.066406-2.84375-.777344-5.84375-1.578125-2.996094-.804687-6.804688-1.84375-8.464844-2.308594-1.65625-.46875-3.320312-.847656-3.695312-.855469-.625-.019531-.664063-.097656-.507813-1.097656.140625-.851562.066407-1.152344-.335937-1.402344-.332032-.203124-.53125-.738281-.582032-1.558593-.09375-1.644531-1.3125-3.820313-2.710937-4.847657-.671875-.492187-1.933594-1.011718-3.09375-1.277343-1.984375-.453125-4.328125-.589844-4.648437-.269531-.09375.09375.886718.949218 2.175781 1.886718 3.199219 2.335938 3.355469 2.554688 3.347656 4.496094-.003906 2.128906-.8125 3.867188-2.5625 5.511719-1.535156 1.4375-4.472656 3.136719-5.433594 3.136719-.335937 0-1.660156-.527344-2.933593-1.164063-1.277344-.644531-2.394532-1.09375-2.488282-1-.253906.257813.671875 1.992187 1.691406 3.148437 1.097657 1.257813 2.984376 2.265626 5.058594 2.707032 1.175782.25 2.019532.222656 3.972656-.121094 1.367188-.234375 2.714844-.550781 3.003907-.710938.292969-.148437.765625-.273437 1.054687-.273437.296875 0 1.039063-.265625 1.65625-.582031.621094-.3125 1.308594-.570313 1.527344-.570313.222656 0 1.839844.445313 3.597656.992188 1.761719.539062 4.75 1.382812 6.644532 1.863281 1.894531.480469 4.011718 1.042969 4.707031 1.253906 1.777343.539063 2.074219.507813 2.996093-.339844Zm15.988282-4.300781c-.15625-.296875-.886719-.691406-1.65625-.890625-.757813-.195312-1.539063-.398437-1.738282-.460937-.195312-.058594-.355468.074219-.355468.289062 0 .226563.710937.644531 1.652344.976563 2.15625.753906 2.460937.761718 2.097656.085937Zm7.003906-.921875c2.539062-.027344 1.125-.507812-1.570312-.535156-2.421876-.019531-4.308594.394531-4.308594.949219 0 .664062.277344.675781 2.230468.136719 1.050782-.289063 2.695313-.539063 3.648438-.550782Zm-54.476562-3.210937c.027343-.53125-.3125-.800781-2.050782-1.578125-2.261718-1.007813-3.003906-1.144532-3.003906-.539063 0 .210938 1.128906.914063 2.503906 1.566407 1.382813.648437 2.511719 1.183593 2.511719 1.1875 0 0 .019531-.28125.039063-.636719Zm30.234374-.164063c0-.136718-1.066406-.53125-2.363281-.886718-1.300781-.355469-4.292969-1.351563-6.644531-2.199219-2.347656-.855469-4.320312-1.550781-4.371094-1.550781-.0625 0-.105468.367187-.105468.820312 0 .769531.089843.835938 1.386718 1.007812.769532.105469 3.636719.820313 6.386719 1.597657 5.308594 1.5 5.710937 1.585937 5.710937 1.210937ZM22.261719 205.71875c.707031-.363281 1.699219-.5 3.613281-.507812 1.453125 0 2.550781-.089844 2.441406-.195313-.441406-.429687-4.660156-1.085937-5.882812-.921875-1.816406.25-2.023438.425781-1.605469 1.355469.191406.421875.371094.761719.402344.761719.027343 0 .492187-.222657 1.03125-.492188Zm-20.46875 18.382812c-1.453125-1.972656-1.808594-3.570312-1.398438-6.28125.359375-2.464843 1.097657-4.101562 2.242188-5.003906 1.019531-.804687 1.164062-.34375.378906 1.269532-1.25 2.585937-1.503906 8.464843-.4375 10.097656.90625 1.386718.242187 1.320312-.785156-.082032Zm5.75-.761718c-1.40625-1.308594-1.644531-1.691406-1.941407-3.125-.609374-3.011719.671876-6.847656 2.441407-7.289063 1.097656-.273437 1.15625.042969.257812 1.34375-1.113281 1.597657-1.269531 3.972657-.4375 6.539063.332031 1.003906.59375 1.964844.59375 2.136718 0 .164063.269531.585938.597657.933594.328124.347656.480468.703125.34375.789063-.140626.085937-.980469-.511719-1.855469-1.328125Zm97.335937-101.421875c.03125-3.582031.046875-8.292969.027344-10.457031l-.035156-3.925782-1.703125.839844c-2.050781 1.019531-2.378907 1.046875-2.261719.203125.066406-.472656.613281-.90625 2.027344-1.617187l1.9375-.972657v-7.953125h-1.609375c-6.152344 0-14.683594-2.664062-21.253907-6.628906-8.675781-5.242188-14.15625-11.378906-16.84375-18.859375-1.574218-4.375-1.757812-5.722656-1.746093-12.675781.007812-5.523438.101562-6.917969.652343-9.675782 2.144532-10.714843 7.90625-20.574218 15.265626-26.113281 1.769531-1.335937 5.421874-3.214843 7.613281-3.917969 1.019531-.332031 1.597656-.71875 1.945312-1.316406 2.007813-3.394531 8.144531-8.714844 14.039063-12.175781 6.292968-3.691406 13.679687-6.210937 13.363281-4.558594-.117187.597657-.625.855469-4.683594 2.394531-6.03125 2.28125-11.863281 5.75-16.238281 9.65625-2.09375 1.867188-4.277344 4.148438-4.277344 4.464844 0 .078125 1.199219-.296875 2.652344-.847656 4.070312-1.527344 8.195312-2.382812 11.515625-2.382812h2.835937l3.769532-1.847657c4.066406-2 9.492187-4.097656 12.582031-4.867187 1.519531-.378906 2.066406-.414063 2.554687-.152344.609376.332031.597657.355469-.476562 1-.609375.371094-2.851562 1.269531-4.996094 1.996094-4.238281 1.445312-9.492187 3.582031-9.492187 3.867187 0 .097657 1 .347657 2.210937.550781 3.003906.5 6.496094 1.769532 10.246094 3.710938 12.5625 6.492188 20.285156 16.515625 23.152344 30.054688.699218 3.300781.847656 10.457031.285156 13.609374-1.441406 8.015626-5.710938 16.238282-11.558594 22.257813-3.289062 3.386719-6.234375 5.589844-10.332031 7.722656-5.183594 2.695313-10.769531 4.320313-16.148437 4.695313l-2.585938.183594-.078125 3.757812-.085937 3.761719 1.859374.5c2.285157.617187 2.664063.992187 1.941407 1.894531-.484375.589844-.644531.625-1.65625.355469-.617188-.164063-1.328125-.390625-1.578125-.496094-.414063-.167969-.480469.757813-.664063 9.183594-.207031 8.984375-.363281 10.609375-1.121093 11.089843-1.078126.683594-1.117188.433594-1.050782-6.300781Zm10.339844-26.875c8.125-1.691407 15.785156-5.875 20.621094-11.261719 3.511718-3.914062 6.964844-9.917969 8.636718-15.035156 1.097657-3.363282 1.289063-5.058594 1.269532-11.316406-.019532-4.878907-.074219-5.351563-.949219-8.609376-1.519531-5.664062-2.832031-8.660156-5.726563-13.050781-5.257812-7.957031-15.972656-15.441406-24.84375-17.355469-6.078124-1.316406-14.203124-1.199218-19.582031.273438L93.25 19.078125l1.289062.023437c.710938.023438 1.484376.152344 1.722657.304688.886719.558594-.261719.964844-3.359375 1.183594-9.808594.675781-17.707032 6.816406-23.035156 17.90625C67.214844 44 66.03125 48.585938 65.53125 55.226562c-.617188 8.203126.414062 14.109376 3.464844 19.765626 3.535156 6.546874 9.988281 12.234374 18.65625 16.453124 6.480468 3.144532 11.320312 4.214844 19.226562 4.261719 4.269532.019531 5.523438-.078125 8.339844-.664062ZM94.109375 77.058594c-2.378906-.414063-3.148437-.703125-3.246094-1.222656-.191406-.960938.53125-1.40625 1.945313-1.203126 6.25.894532 8.578125.78125 14.261718-.691406 5.464844-1.421875 9.636719-3.414062 15.234376-7.289062 1.644531-1.136719 2.15625-1.367188 2.4375-1.085938.640624.644532-.394532 1.824219-3.378907 3.855469-8.800781 5.988281-19.503906 8.984375-27.253906 7.636719ZM91.21875 56.609375c-.488281-.222656-1.179688-.769531-1.535156-1.222656-.589844-.742188-.644532-1.066407-.539063-3.28125.097657-2.019531.257813-2.691407.886719-3.769531.902344-1.539063 2.3125-2.808594 3.113281-2.808594 1.683594 0 3.367188 1.992187 4 4.742187.460938 1.992188-.015625 3.589844-1.554687 5.214844-1.359375 1.441406-2.832032 1.820313-4.371094 1.125Zm20.949219-.019531c-1.429688-.625-1.949219-2.09375-1.769531-4.960938.269531-4.289062 1.648437-6.183594 4.832031-6.609375 1.457031-.199219 2.105469.257813 2.996093 2.070313 1.492188 3.058594.484376 6.886718-2.316406 8.796875-1.433594.980469-2.613281 1.203125-3.742187.703125Zm-27.09375-17.917969c0-1.03125 2.105469-3.089844 4.300781-4.203125 1.777344-.902344 4.359375-1.269531 5.027344-.714844.742187.617188-.191406 1.328125-1.988282 1.511719-2.453124.253906-4.894531 1.695313-5.792968 3.433594-.574219 1.097656-1.546875 1.078125-1.546875-.027344Zm35.433593-4.917969c-1.738281-1.816406-4.050781-2.421875-6.066406-1.582031-1.039062.4375-2.109375.574219-2.109375.269531 0-1.867187 5.042969-3.183594 7.582031-1.976562 1.078126.503906 2.671876 2.082031 2.757813 2.714844.222656 1.683593-.828125 1.960937-2.164063.574218Zm0 0"/>
  </g>
  <g clip-path="url(#b)">
    <path d="M62.574219 373.175781c-2.167969 0-4.898438-.03125-7.628907.003907-8.945312.113281-17.890624.214843-26.839843.394531-3.082031.058593-6.171875.023437-9.253907.214843-3.398437.207032-6.796874.296876-10.191406.535157-1.652344.117187-3.316406.167969-4.972656-.007813-.316406-.03125-.628906-.078125-.894531-.261718-.203125-.136719-.34375-.328126-.238281-.585938.101562-.25.316406-.226562.535156-.167969.683594.191407 1.378906.105469 2.066406.085938 3.714844-.113281 7.414062-.464844 11.128906-.625 9.296875-.40625 18.597656-.507813 27.902344-.371094 4.640625.066406 9.285156-.105469 13.925781-.085937h.0625c4.222657.039062 8.4375-.191407 12.660157-.238282 5.628906-.054687 11.253906-.074218 16.882812-.121094 3.863281-.035156 7.730469-.101562 11.59375-.140624 2.730469-.027344 5.457031-.066407 8.1875.054687 2.269531.097656 4.535156-.082031 6.804688-.066406.417968 0 .839843-.015625 1.257812-.007813.550781.015625.851562.238282.871094.625.015625.386719-.277344.636719-.824219.667969-.503906.027344-1.007813.054687-1.507813.050781-2.101562-.023437-4.199218.117188-6.300781.042969-5.332031-.1875-10.664062-.199219-16-.167969-3.882812.023438-7.769531.113282-11.65625.078125-5.671875-.050781-11.34375-.113281-17.574219.09375Zm0 0"/>
  </g>
  <g clip-path="url(#c)">
    <g clip-path="url(#d)">
      <g clip-path="url(#e)">
        <path d="M161.816406 373.144531c1.941406.015625 4.382813.011719 6.828125.0625 8.007813.171875 16.015625.332031 24.023438.5625 2.757812.078125 5.523437.070313 8.28125.265625 3.039062.210938 6.082031.316406 9.121093.558594 1.476563.117188 2.964844.175781 4.449219.035156.285157-.03125.5625-.070312.804688-.226562.183593-.125.308593-.296875.214843-.527344-.089843-.222656-.277343-.203125-.476562-.152344-.613281.164063-1.234375.082032-1.851562.058594-3.324219-.128906-6.632813-.472656-9.957032-.644531-8.320312-.433594-16.640625-.601563-24.972656-.550781-4.15625.023437-8.308594-.167969-12.464844-.1875h-.054687c-3.78125 0-7.554688-.238282-11.332031-.308594-5.039063-.097656-10.074219-.15625-15.113282-.242188-3.457031-.0625-6.917968-.152344-10.375-.21875-2.445312-.042968-4.886718-.097656-7.332031-.015625-2.03125.070313-4.058594-.105469-6.089844-.109375-.375-.003906-.75-.019531-1.125-.015625-.492187.007813-.765625.207031-.785156.550781-.019531.347657.242187.574219.730469.605469.453125.027344.902344.054688 1.351562.054688 1.878906 0 3.757813.140625 5.640625.089843 4.773438-.128906 9.546875-.09375 14.324219-.027343 3.476562.050781 6.953125.164062 10.433594.164062 5.074218-.003906 10.152344-.015625 15.730468.21875Zm0 0"/>
      </g>
    </g>
  </g>
</svg>
