<svg xmlns="http://www.w3.org/2000/svg" version="1.0" viewBox="0 0 375 374.999991">
  <defs>
    <clipPath id="a">
      <path d="M4.019531 0h366.75v375h-366.75Zm0 0"/>
    </clipPath>
  </defs>
  <g clip-path="url(#a)">
    <path d="M5.722656 374.675781c-1.449218-.257812-1.707031-.78125-.765625-1.554687.816407-.664063 1.667969-.6875 24.601563-.6875h23.761718l-1.085937-1.238282c-2.355469-2.683593-1.746094-9.683593 1.09375-12.617187.617187-.640625.949219-1.164063.738281-1.164063-.722656 0-3.941406 3.191407-4.40625 4.371094-.574218 1.453125-1.378906 2.421875-2.007812 2.421875-1.1875 0 .136718-3.386719 2.222656-5.699219.738281-.816406 2.082031-1.921874 2.980469-2.457031l1.640625-.960937h37.871094l.050781-11.390625c.042969-11.160157.0625-11.40625.816406-12.160157l.773437-.761718.605469.757812c.335938.417969 1.046875.859375 1.578125.984375l.964844.226563-.519531-1.238282c-.410157-.988281-.519531-3.332031-.519531-11.390624 0-5.578126-.105469-13.558594-.234376-17.730469l-.234374-7.589844-2.890626.046875c-1.59375.035156-3.078124.035156-3.300781.035156-.960937-.054687-1.257812-2.640625-1.566406-13.609375-.171875-6.195312-.421875-12.578125-.558594-14.179687l-.246093-2.914063-3.96875-.238281c-11.9375-.71875-20.824219-1.847656-23.988282-3.054688-.511718-.195312-1.40625-.355468-1.980468-.355468-1.175782 0-2.1875-.949219-2.367188-2.214844-.0625-.457031-.214844-3.578125-.335938-6.949219l-.226562-6.125-1.207031-.574219c-1.566407-.746093-3.160157-3.28125-3.820313-6.070312-.285156-1.210938-.9375-3.726562-1.445312-5.589844-1.980469-7.25-6.882813-42.261718-6.582032-47.03125l.109376-1.789062-1.785157.179687c-1.296875.132813-1.777343.328125-1.746093.71875.035156.296875.300781 2.066407.621093 3.933594.648438 3.835937.847657 5.53125 2.367188 20.558594 1.214843 11.960937 2.1875 19.769531 3.234375 25.964843.386718 2.285157.703125 4.910157.703125 5.839844 0 1.308594.417969 2.539063 1.871093 5.5 1.550782 3.160156 2.347657 4.300782 4.648438 6.632813 1.523438 1.546875 2.769531 2.886719 2.769531 2.980469 0 .292968-3.003906-.324219-3.964843-.816407-2.128907-1.089843-4.570313-4.960937-6.265626-9.960937-.464843-1.359375-.84375-2.859375-.84375-3.328125 0-.472657-.164062-1.167969-.367187-1.542969-.960937-1.792969-2.84375-15.988281-4.804687-36.273438-.492188-5.113281-1.238282-11.710937-1.65625-14.660156-.683594-4.832031-.855469-5.472656-1.746094-6.4375-2.285156-2.46875-3.054688-5.714844-2.453125-10.316406.265625-2.015625.605469-3.152344 1.097656-3.6875.757813-.828125 4.242187-2.234375 7.339844-2.964844 1.324219-.316406 1.875-.617187 1.875-1.03125 0-1.167968-1.445313-11.777344-2.328125-17.085937-.492188-2.984375-.796875-5.667969-.679688-5.976563.253906-.671875 4.484375-2.871094 6.890625-3.585937 2.625-.777344 6.132813-1.0625 7.753907-.621094 2.339843.628906 2.707031 1.074219 2.84375 3.457031.066406 1.167969.296874 4.03125.507812 6.359375.210938 2.324219.539062 12.0625.730469 21.628907.195312 9.570312.453125 18.550781.582031 19.953124.125 1.40625.113281 3.757813-.039062 5.230469l-.25 2.679688-1.695313.925781c-3.230469 1.757812-7.300781 2.4375-9.660156 1.617188-.996094-.347657-1.132813-.535157-.976563-1.34375.101563-.511719-.113281-3.269532-.472656-6.121094-.355469-2.847656-.757812-6.089844-.882812-7.199219-.207032-1.769531-.320313-1.996094-.929688-1.835937-.839844.21875-.839844 0 .039062 5.210937.378907 2.320313 1.109376 7.710937 1.617188 11.980469 1.648438 13.839844 4.421875 31.019531 5.355469 33.144531.257812.589844.574219 1.707031.707031 2.476563.273438 1.628906 1.328125 3.945312 2.339844 5.164062.546875.652344.816406.753906 1.191406.445312.289062-.246093 1.511719-.363281 3.035156-.300781 1.402344.054688 2.546875.035157 2.546875-.058593 0-.089844-.28125-.476563-.625-.855469-.933593-1.039063-.816406-10.328125.238281-18.3125 4.390626-33.257813 11.964844-62.65625 22.601563-87.738281 2.640625-6.226563 9-18.898438 11.84375-23.609376 1.113281-1.847656 2.03125-3.402343 2.03125-3.457031 0-.054687-.84375-.371093-1.875-.707031-3.015625-.988281-9.878906-4.523438-13.5-6.960938C70.226562 92.652344 60.96875 79.40625 57.660156 66.421875c-.832031-3.253906-.976562-4.550781-.988281-8.988281-.035156-7.300782 1.105469-11.894532 4.667969-19.035156 5.550781-11.132813 11.703125-18.238282 21.269531-24.582032 7.652344-5.074218 14.792969-7.53125 22.078125-7.597656 3.648438-.03125 4.328125-.136719 6.253906-1.007812 3.222656-1.460938 7.59375-2.753907 12.082032-3.574219 7.359374-1.351563 25.089843-1.6093752 27.320312-.398438.867188.46875 1.089844 1.449219.359375 1.542969-.246094.035156-5.753906.082031-12.238281.109375-10.367188.050781-12.25.148437-15.589844.804687-4.15625.816407-9.816406 2.445313-10.101562 2.910157-.097657.160156 1.621093.496093 3.820312.746093 2.207031.25 4.308594.515626 4.679688.585938 1.5625.296875 3.382812.171875 5.222656-.359375 2.867187-.835937 9.09375-1.082031 14.828125-.585937 5.164062.445312 14.496093 1.890624 16.503906 2.550781 1.261719.414062 1.914063 1.664062 1.132813 2.160156-.800782.507813-2.105469.375-9.164063-.917969-8.128906-1.492187-15.390625-2.191406-18.835937-1.8125-2.183594.242188-2.386719.324219-1.605469.644532 5.503906 2.261718 10.410156 4.941406 13.953125 7.625 4.800781 3.640624 10.964844 11.441406 14.320312 18.113281 3.460938 6.902343 5.226563 13.617187 5.542969 21.183593.714844 16.796876-5.90625 31.820313-18.277344 41.476563-7.625 5.949219-15.503906 9.601563-23.9375 11.101563-4.859375.863281-13.117187.859374-17.6875 0-1.863281-.351563-3.707031-.660157-4.089843-.683594-.804688-.050782-2.171876 2.054687-5.78125 8.914062l-2.332032 4.445313 1.035156 1.878906c.574219 1.035156 2.410157 4.296875 4.082032 7.246094 1.675781 2.949219 4.296875 7.617187 5.824218 10.367187 3.152344 5.683594 8.671876 14.578125 11.9375 19.25 1.929688 2.761719 4.402344 6.058594 10.332032 13.78125 1.351562 1.757813 1.453125 2.023438.894531 2.246094-.355469.136719-.890625.265625-1.195313.277344-.3125 0-2.769531-2.765625-5.539062-6.269532-5.394531-6.8125-7.9375-10.351562-11.730469-16.320312-1.339843-2.113281-2.492187-3.84375-2.558593-3.84375-.246094 0 2.117187 4.894531 4.714843 9.765625 3.335938 6.261719 6.128907 11.066406 8.40625 14.453125.953125 1.421875 1.890625 2.988281 2.078125 3.484375.421875 1.121094 1.097656 1.144531 5.898438.199219 17.429687-3.429688 21.332031-4.054688 32.332031-5.179688 16.96875-1.734375 20.597656-2.292968 23.703125-3.640625 5.050781-2.195312 7.996094-2.792969 13.816406-2.800781 5.488282 0 7.355469.347656 8.84375 1.703125 1.953125 1.78125.082032 4.691406-3.777344 5.871094-3.730468 1.136719-10.835937.804687-18.109374-.851563-2.363282-.535156-2.808594-.523437-8.039063.191406-3.046875.417969-9.558594 1.167969-14.46875 1.660157-4.914063.492187-10.21875 1.066406-11.792969 1.273437-5.117187.675782-17.4375 2.851563-20.164062 3.566406-1.464844.382813-3.070313.699219-3.574219.699219-.503906 0-1.78125.238281-2.847656.519531-2.28125.609376-2.84375.398438-4.007813-1.503906-.453125-.738281-1.578125-2.386718-2.496094-3.664062-4-5.550782-9.921874-16.867188-16.601562-31.726563-4.609375-10.242187-6.582031-15.023437-7.492188-18.160156l-.613281-2.101563-.683593 1.34375c-4.492188 8.753907-11.769532 28.257813-15.433594 41.347657-4.214844 15.054687-8.535156 36.308593-10.953125 53.90625-.816407 5.9375-1.777344 17.589843-1.492188 18.101562.203125.359375 13.84375.0625 22.226563-.484375 3.046875-.203125 15.183594-.527344 26.976562-.71875 11.789063-.199218 25.617188-.597656 30.726563-.894531 9.890625-.570313 20.101562-.707031 20.769531-.269531.542969.351562.046875 3.625-.609375 4.035156-.664063.40625-1.402344-.273438-1.402344-1.292969v-.828125l-5.808593.171875c-3.191407.09375-8.777344.332031-12.414063.53125-8.394531.453125-30.675781 1.007813-42.515625 1.054688-5.011719.035156-9.429688.164062-9.816406.3125-.386719.148437 8.214844.386719 19.113281.523437 34.859375.445313 55.171875.84375 55.789063 1.101563.328124.136719.679687.460937.773437.714843.214844.550782-5.15625 17.460938-9.660156 30.410157-4.726563 13.582031-8.074219 24.363281-14.222657 45.765625-3 10.445312-6.742187 22.71875-8.542968 28-.644532 1.878906-.773438 2.644531-.460938 2.742187 3.320313 1.03125 4.40625 1.476563 6.191406 2.550781 4.59375 2.753907 7.8125 7.171876 8.242188 11.3125.273438 2.660157-.042969 3.726563-1.304688 4.375-1.292968.667969-1.265624.667969-1.953124 0-.917969-.921874-.691407-1.582031.550781-1.582031 1.085937 0 1.105469-.035156.863281-1.3125-.613281-3.292969-1.695312-5.269531-4.308594-7.894531-2.582031-2.585938-6.550781-4.941406-8.742187-5.179688-.792969-.085937-.886719.035157-.84375 1.035157.039062.949219-.101563 1.15625-.894531 1.304687-1.90625.363282-1.910157-.789062-.035157-6.566406 2.808594-8.617188 6.035157-19.230469 9.410157-30.953125 4.617187-16.054687 7.316406-24.667969 12.011718-38.394531 7.40625-21.660156 11.429688-33.714844 11.429688-34.246094 0-.398438-.269532-.476562-1.117188-.304688-.613281.125-3.46875.226563-6.339844.230469-3.308593 0-5.039062.125-4.710937.332031 1.277344.808594.699219 9.351563-.859375 12.710938-1.148438 2.46875-3.410156 4.652344-5.5625 5.367188-1.027344.339843-3.300781.632812-5.433594.703124-2.019531.0625-4.515625.289063-5.550781.5-2.175781.445313-11.355469 1.101563-17.023437 1.21875l-3.898438.078126-.085938 7.332031c-.117187 10.503906-1.289062 22.484375-2.222656 22.796875-.242187.082031-.433594 0-.433594-.21875 0-.234375-.398437-.246094-1.15625-.035156-.640624.183593-1.6875.332031-2.332031.332031-1.101562 0-1.15625.058593-.914062.984375.40625 1.546875.292969 17.964844-.160157 23.6875-.226562 2.855468-.519531 6.925781-.644531 9.058594l-.238281 3.871093 1.828125-.097656c1.117187-.058594 2.015625.082031 2.28125.347656.53125.535157.527344 13.820313 0 18.644531-.1875 1.671876-.269531 3.160157-.191406 3.308594.085937.144532 6.210937.269532 13.617187.273438 14.683594 0 15.128906.054687 17.996094 2.050781 2.90625 2.019531 4.035156 4.421875 3.152344 6.703125l-.414063 1.074219-.449219-1.296875c-.648437-1.875-1.800781-3.609375-2.964843-4.472656-1.734375-1.285157-3.957031-2.277344-5.089844-2.277344-1.679687 0-1.28125.601562.53125.804687 2.046875.230469 4.230469 1.722657 5.371094 3.671875 1.832031 3.121094.6875 7.476563-2.5 9.542969-.691407.449219-1.265625.941406-1.269531 1.085937 0 .148438 5.316406.269532 11.824218.269532h11.824219l2.199219-1.929688c1.207031-1.0625 3.078125-2.511718 4.15625-3.21875l1.953125-1.289062h-1.699219c-2.296875 0-6.40625-.878906-9.160156-1.957032-2.960938-1.160156-5.347656-2.722656-7.144532-4.675781-.808593-.875-1.609374-1.589843-1.792968-1.589843-1.03125 0-.882813-6.585938.34375-15.375 1.175781-8.417969 1.726562-13.28125 2.507812-21.992188 1.460938-16.320312 2.167969-21.757812 5.121094-39.332031.691406-4.128907 1.503906-9.078125 1.8125-10.996094.582031-3.675781 1.34375-5.984375 1.972656-5.984375.207032 0 .375.472656.375 1.050781 0 1.414063-1.957031 15.722657-3.03125 22.1875-1.878906 11.269531-3.773437 27.949219-4.285156 37.722657-.230469 4.289062-1.316406 13.3125-2.164062 17.9375-.429688 2.347656-1.582032 10.722656-1.589844 11.59375 0 .121093.921875-.097657 2.050781-.484376 5.394531-1.84375 15.15625.839844 20.34375 5.585938 2.394531 2.1875 2.808594 3.101562 2.0625 4.542969l-.542969 1.050781h38.960938l.097656-83.222656c.050781-45.773438.230469-83.585938.398438-84.027344l.304687-.804688H167.625c-27.214844 0-45.671875-.132812-46.042969-.332031-.34375-.183593-.902343-.417969-1.246093-.527343-.5625-.171876-.625-.769532-.625-5.765626 0-3.070312.15625-5.871093.347656-6.234374.5-.9375 2.261718-1.441407 5.015625-1.441407 2.339843 0 2.394531-.039062 2.234375-.859375-.140625-.738281 0-.890625 1.03125-1.09375.65625-.132812 2.253906-.488281 3.542968-.789062 1.292969-.300782 2.734376-.488282 3.199219-.421875.875.125.941407.085937-4.296875 2.535156-1.195312.554687-.875.582031 7.503906.605469l8.753907.035156-.117188-2.242188c-.101562-1.9375 0-2.339843.664063-2.953124.769531-.691407 1.613281-.703126 59.105468-.796876l58.324219-.09375.449219-.976562c.25-.542969 4.46875-10.316406 9.382812-21.722656 4.910157-11.40625 12.0625-27.980469 15.898438-36.828125 3.835938-8.847657 10.09375-23.300781 13.90625-32.117188 7.8125-18.0625 8.089844-18.660156 8.90625-18.972656.894531-.339844 4.691406 2.144531 4.972656 3.257813.125.503906.058594 1.085937-.148437 1.292968-.210938.210938-.378907.589844-.378907.855469 0 .261719-.78125 2.285156-1.734374 4.484375-.960938 2.207031-5.441407 12.539062-9.964844 22.964844-4.523438 10.421875-14.046875 32.386718-21.167969 48.808594-7.121094 16.421874-13.28125 30.214843-13.683594 30.660156-.882812.964844-2.847656 1.074218-4.789062.265625-.707031-.300781-1.324219-.503907-1.367188-.449219-.039062.050781-.164062 1.097656-.269531 2.328125l-.191406 2.234375h94.433594l-.117188 5.988281-.121094 5.992188-1.109375 1.160156-1.113281 1.164063h-31.53125c-18.238281 0-31.609375.132812-31.726562.320312-.105469.175781-.199219 37.949219-.199219 83.9375v83.617188l18.671875-.035157c10.269531 0 19.292968-.15625 20.050781-.3125 1.34375-.269531 1.425781-.222656 3.394531 1.859375 1.109375 1.179688 2.425782 2.925782 2.925782 3.890625l.914062 1.75 15.164062.078125c8.34375.046875 15.367188.085938 15.613282.089844.671875 0 .539062 1.246094-.207032 1.917969-.605468.550781-13.710937.589843-181.949218.546875-99.714844-.039063-181.699219-.117188-182.191406-.210938Zm118.785156-2.867187c-.144531-.34375-.339843-1.59375-.417968-2.773438-.277344-3.804687 1.90625-8.863281 4.664062-10.824218l1.117188-.796876h-21.980469l-.347656.921876c-.402344 1.058593-1.078125 1-1.59375-.136719-.328125-.734375-.597657-.785157-4.289063-.808594-2.160156 0-11.8125-.15625-21.441406-.308594-9.628906-.15625-17.632812-.210937-17.785156-.125-.15625.085938.378906.601563 1.1875 1.144531 2.070312 1.390626 2.839844 2.707032 2.839844 4.871094 0 2.960938-2.582032 6.460938-6.640626 8.992188-.53125.332031 6.597657.433594 32.136719.445312 31.125.039063 32.808594 0 32.550781-.601562Zm211.355469.121094c0-.535157-2.3125-3.613282-3.367187-4.480469-.511719-.421875-.753906-.433594-1.347656-.0625-.578126.363281-16.800782.4375-81.34375.378906-53.6875-.046875-80.917969.050781-81.511719.289063-1.253907.507812-5.359375 3.585937-5.359375 4.019531 0 .238281 28.941406.359375 86.464844.359375 74.171874 0 86.464843-.074219 86.464843-.503906Zm-201.226562-1.289063c2.109375-.90625 3.816406-2.644531 4.167969-4.242187.328124-1.484376-.832032-3.984376-2.394532-5.179688-2.417968-1.84375-6.234375-1.871094-8.128906-.054688-1.738281 1.664063-2.796875 6.886719-1.78125 8.785157 1.019531 1.910156 4.59375 2.21875 8.136719.691406Zm-75.140625-1.035156c2.894531-1.34375 5.09375-4.421875 4.640625-6.488281-.328125-1.496094-2.675781-3.429688-4.980469-4.105469-2.015625-.585938-2.699219-.496094-2.699219.351562 0 .261719-.363281.570313-.804687.679688s-1.109375.710937-1.472656 1.332031c-.859376 1.453125-1.1875 5.296875-.578126 6.769531.855469 2.070313 3.285157 2.675781 5.894532 1.460938Zm231.167968-88.351563V197.40625h-75.746093l-.09375 83.488281c-.046875 45.925781 0 83.691407.082031 83.941407.132812.355468 7.914062.433593 37.964844.355468l37.792968-.089844Zm-121.253906 80.421875c-3.429687-3.203125-8.742187-5.316406-14.695312-5.847656-1.472656-.128906-3.121094-.324219-3.660156-.425781-2.734376-.527344 1.082031 3.164062 5.625 5.429687 3.867187 1.933594 6.726562 2.601563 11.253906 2.617188h3.394531l-1.917969-1.789063Zm-63.84375-7.566406c.242188-1.480469.914063-13.636719.914063-16.554687v-2.214844l-5.160157-.050782c-2.839843-.035156-5.414062-.148437-5.714843-.265624-.496094-.1875-.558594.878906-.558594 9.78125 0 5.492187.109375 10.097656.238281 10.226562.128906.132812 2.457032.238281 5.164063.238281H105.375Zm-3.5-25.65625c.070313-2.261719.289063-6.605469.484375-9.648437.195313-3.046876.355469-9.683594.355469-14.75v-9.214844h-4.464844v37.933594l1.757813-.105469 1.761719-.105469.125-4.109375Zm-2.195312-35.9375c4.125 0 7.96875.128906 8.535156.289063.992188.277343 1.019531.25.816406-.773438-.117187-.582031 0-4.734375.300782-9.226562.28125-4.492188.519531-10.355469.523437-13.027344v-4.863282l-10.226563-.246093c-5.625-.140625-10.285156-.191407-10.359374-.121094-.074219.074219.035156 1.332031.230468 2.789063.199219 1.460937.445313 6.675781.546875 11.59375.09375 4.914062.265625 10.109374.378907 11.542968.1875 2.488282.234374 2.59375.972656 2.328125.421875-.15625 4.148437-.285156 8.273437-.285156Zm28.226562-30.234375c4.125-.210938 7.824219-.523438 8.214844-.695312.394531-.175782 2.246094-.371094 4.109375-.441407 2.9375-.109375 3.625-.261719 5.074219-1.117187 1.382812-.8125 1.804687-1.320313 2.367187-2.84375.675781-1.808594 1.230469-4.769532 1.675781-8.910156l.222657-2.046876-16.191407-.15625c-32.0625-.3125-60.402343-1.207031-69.074218-2.183593-2.554688-.285157-5.324219-.523438-6.160156-.527344h-1.519532v4.632813c0 5.03125.5625 9.828124 1.203125 10.3125.761719.578124 7.066407 1.875 11.59375 2.386718 3.746094.421875 17.816407 1.292969 27.933594 1.730469 6.414063.277344 23.914063.199219 30.550781-.132813Zm10.003906-18.234375c-3.539062-.136719-14.472656-.339844-24.296874-.449219-13.054688-.140625-15.847657-.109375-10.363282.117188 4.128906.171875 8.628906.371094 10.003906.441406 1.378907.070312 8.933594.132812 16.796876.136719 11.257812 0 12.925781-.050781 7.859374-.246094Zm-47.074218-.964844c-1.914063-.0625-5.050782-.0625-6.96875 0-1.914063.066407-.34375.117188 3.484375.117188 3.832031 0 5.398437-.050781 3.484375-.117188Zm-36.355469-45.796875c2.25-.78125 2.117187-.121094 1.429687-7.03125-.195312-1.96875-.515624-11.054687-.710937-20.203125-.195313-9.144531-.523437-19.105469-.71875-22.136719-.195313-3.03125-.355469-5.984374-.355469-6.566406v-1.0625l-4.019531.167969c-4.109375.179687-7.957031 1.203125-8.351563 2.226563-.09375.242187.234376 2.679687.734376 5.417968 1.554687 8.503906 5.652343 42.71875 5.707031 47.652344l.035156 2.632812 2.144531-.207031c1.179688-.109375 3.03125-.511719 4.109375-.890625Zm301.835937-2.375c.34375-.128906.429688-1.316406.355469-4.917968l-.097656-4.746094H122.023438l-.101563 5.007812-.097656 5.003906 117.113281-.085937c64.410156-.046875 117.320312-.167969 117.570312-.261719Zm-93.25-14.027344c-.171874-1.128906-.351562-2.050781-.390624-2.058593-.039063 0-25.675782.039062-56.96875.078125l-56.902344.089844v1.398437c0 .773437-.09375 1.65625-.214844 1.96875-.199219.515625 4.996094.5625 57.292969.5625h57.507812Zm-221.65625.910157c1.132813-.226563 2.140626-.621094 2.238282-.878907.167968-.433593-1.203125-12.65625-1.441406-12.898437-.203126-.199219-5.757813 1.355469-7.011719 1.964844-.992188.484375-1.300781.894531-1.542969 2.035156-.714844 3.355469.699219 9.160156 2.398438 9.84375 1.070312.433594 2.996093.410156 5.359374-.066406Zm233.203126-14.796875c2.382812-5.5 6.386718-14.746094 8.894531-20.542969 2.507812-5.800781 9.789062-22.621094 16.175781-37.367187 6.390625-14.75 12.550781-28.988282 13.6875-31.644532 2.390625-5.589844 2.875-6.4375 3.675781-6.441406.316407 0-.28125-.402344-1.332031-.894531-1.050781-.488281-1.980469-.890625-2.070312-.890625-.089844 0-.410157.605468-.71875 1.34375-1.304688 3.128906-22.574219 52.128906-33.773438 77.796875-6.679688 15.308593-12.082031 27.894531-12.007812 27.96875.429687.425781 2.648437 1.140625 2.871093.921875.144531-.136719 2.214844-4.753906 4.597657-10.25Zm-74.460938 5.015625c4.609375-1.367188.832031-3.515625-6.148438-3.496094-3.734374 0-9.46875 1.113281-10.769531 2.0625-.628906.460937-.613281.496094.265625.722656 5.015625 1.253907 13.585938 1.625 16.652344.710938Zm-79.394531-65.121094c9.039062-1.542969 18.425781-6.566406 25.546875-13.691406l3.753906-3.75-5.003906-.246094c-7.082032-.34375-11.214844-1.433594-16.980469-4.476563-6.214844-3.277343-12.722656-8.863281-16.359375-14.050781-2.328125-3.320312-2.960938-5.160156-2.070312-6.03125.710937-.703125.59375-.808593 3.347656 3.035157 4.914062 6.855468 14.609375 14.011718 22.734375 16.78125 4.355469 1.484374 13.390625 2.722656 15.667969 2.148437.679687-.164063 1.363281-1.210937 3.230468-4.960937 7.003906-14.054688 6.902344-30.683594-.285156-44.96875-2.648438-5.269532-7.765625-12.53125-10.664062-15.132813-3.871094-3.476563-9.902344-7.285156-14.84375-9.367187C126.082031 10.9375 118.625 8.675781 118.355469 8.9375c-.085938.085938.503906.496094 1.308593.90625 1.554688.792969 1.960938 1.804688.726563 1.804688-.40625 0-1.949219-.558594-3.425781-1.246094-3.535156-1.632813-6.640625-2.238282-11.792969-2.304688-3.433594-.042968-4.875.117188-7.667969.820313-11.664062 2.976562-23.46875 12.394531-30.460937 24.316406-5.246094 8.941406-7.367188 15.597656-7.367188 23.109375 0 10.242188 4.867188 21.96875 13.289063 32 3.382812 4.03125 4.636718 5.222656 8.820312 8.347656 5.230469 3.910156 15.566406 8.980469 17.230469 8.445313.378906-.117188.90625 0 1.1875.300781.429687.425781 3.90625 1.289062 7.347656 1.816406 2.082031.324219 10.765625.085938 13.398438-.363281ZM141.875 64.117188c-2.570312-1.304688-1.050781-7.34375 2.886719-11.457032 1.910156-2 3.140625-2.160156 4.328125-.558594.652344.878907.671875 1.15625.285156 4.078126-.550781 4.148437-1.617188 6.199218-3.957031 7.625-1.414063.867187-2.296875.941406-3.542969.3125Zm-5.382812-12.910157c0-1.566406 5.121093-4.761719 8.894531-5.558593 2.140625-.445313 4.324219-.195313 4.324219.5 0 .75-.769532 1.113281-3.289063 1.5625-2.792969.492187-5.050781 1.398437-7.242187 2.910156-1.679688 1.152344-2.6875 1.375-2.6875.585937Zm23.414062 196.839844c-.332031-1.507813.058594-2.550781.953125-2.550781.652344 0 .710937.15625.523437 1.316406-.117187.726562-.445312 1.546875-.722656 1.828125-.445312.441406-.542968.363281-.753906-.59375Zm-6.457031-76.640625c1.367187-.707031 7.628906-3.023438 18.414062-6.816406 2.851563-1 5.867188-2.28125 6.695313-2.84375 6.011718-4.054688 16.308594-4.472656 19.753906-.808594.726562.777344.757812.96875.351562 1.960938-.542968 1.296874-1.628906 2.144531-2.761718 2.144531-.964844 0-1.015625-.253907-.234375-1.117188.792969-.878906.394531-1.667969-1.175781-2.324219-3.199219-1.335937-8.136719-1.234374-12.058594.253907-2.847656 1.082031-3.042969 1.285156-2.015625 2.085937.480469.371094 1.480469.855469 2.21875 1.078125.738281.222657 1.609375.667969 1.9375.996094.550781.550781.546875.625-.054688 1.058594-1.417969 1.039062-5.652343-.046875-6.691406-1.714844-.539063-.867187-.828125-.851563-3.242187.21875-4.371094 1.933594-17.898438 6.199219-20.230469 6.378906l-2.320313.179688Zm88.085937-33.386719c-2.648437-.898437-10.289062-3.816406-16.96875-6.484375-6.683594-2.671875-17.050781-6.578125-23.046875-8.6875-12.121093-4.265625-15.664062-5.664062-20.476562-8.117187-2.316407-1.175781-3.757813-1.683594-4.890625-1.71875-1.535156-.054688-1.605469-.101563-1.535156-1.066407.046874-.558593 1.042968-3.039062 2.21875-5.511718 2.625-5.523438 6.117187-14.28125 10.199218-25.601563 1.707032-4.71875 3.507813-9.652343 4.015625-10.972656.871094-2.269531 1.625-3.152344 2.074219-2.429687.109375.175781.414062.246093.675781.144531.96875-.375 5.609375 1.042969 12.898438 3.941406 4.128906 1.636719 10.078125 3.824219 13.222656 4.855469 4.792969 1.570312 35.285156 12.164062 39.5625 13.746094.730469.265624 1.648437.40625 2.035156.304687 1.109375-.289063 1.304688 1.265625.410157 3.226563-.40625.898437-.742188 1.851562-.742188 2.113281 0 .703125-2.648438 8.480469-3.339844 9.828125-.75 1.449218-.742187 1.886718.035156 1.890625 1.296876 0 3.320313.773437 4.375 1.664062 1.539063 1.289063 2.179688 2.703125 2.449219 5.421875l.230469 2.339844 1.96875.988281c1.910156.96875 5.089844 2.074219 13.628906 4.765625 5.058594 1.59375 5.5625 1.902344 4.957032 3.035156-.382813.714844-.628907.792969-1.941407.613282-2.328125-.320313-14.003906-4.070313-17.011719-5.464844l-2.691406-1.25-1.511718 1.4375c-1.761719 1.679688-4.222657 2.535156-7.285157 2.535156-1.796875 0-2.082031.09375-2.082031.671875 0 .867188-4.75 13.277344-5.550781 14.496094-.332031.507813-.707031.921875-.832031.921875-.121094 0-2.394532-.738281-5.050782-1.636719Zm1.75-2.605469c-.273437-.375-1.242187-1.628906-2.148437-2.78125-.90625-1.15625-3.09375-4.59375-4.859375-7.636718-1.761719-3.050782-3.96875-6.769532-4.902344-8.277344-1.46875-2.367188-1.640625-2.835938-1.277344-3.503906.222656-.425782.601563-.714844.835938-.636719.894531.289063 3.886718 4.496094 7.257812 10.203125 1.9375 3.28125 4.445313 7.191406 5.566406 8.691406 1.128907 1.5 2.214844 3.160156 2.414063 3.691406.414063 1.082032 1.074219.925782 1.097656-.265624 0-.429688.953125-3.117188 2.101563-5.96875 1.152344-2.847657 2.023437-5.304688 1.9375-5.453126-.09375-.144531-.570313-.265624-1.066406-.265624-1.390626 0-6.503907-1.390626-8.136719-2.210938-3.75-1.878906-5.039063-3.625-4.769531-6.445312.21875-2.242188 1.574218-3.960938 4.339843-5.488282 2.84375-1.578125 5.695313-2.136718 10.578125-2.074218l4.113282.050781.058593-1.5c.035157-.820313.707031-3.492188 1.503907-5.933594.792968-2.4375 1.386718-4.496094 1.316406-4.5625-.160156-.164063-10.679688 2.933594-18.003906 5.296875-3.007813.972656-5.617188 1.769531-5.804688 1.769531-.664062 0-.316406-1.425781.46875-1.929687 1.222656-.78125 7.128906-2.726563 15.367188-5.050782 4.078124-1.152343 7.410156-2.1875 7.40625-2.296874 0-.109376-2.375-.980469-5.269532-1.941407-2.894531-.960937-8.15625-2.789062-11.695312-4.058593-3.535156-1.277344-10.933594-3.886719-16.433594-5.808594-9.972656-3.476563-17.089844-6.25-22.511719-8.765625-3.34375-1.554688-6.65625-2.761719-6.898437-2.519531-.589844.59375 4.035156 10.753906 8.09375 17.789062 2.066406 3.585938 2.890625 5.890625 2.390625 6.699219-1.210938 1.960937-9.089844-12.035157-12.160157-21.601563l-1.144531-3.558594-.816406 2.484376c-3.933594 11.933593-10.207031 28.453124-13.035156 34.3125-.851563 1.769531-1.519531 3.253906-1.472657 3.296874.039063.042969 2.234376-.460937 4.878907-1.125 5.660156-1.421874 16.144531-3.246093 16.929687-2.945312.851563.332031.273438 1.203125-1.191406 1.789062-.730469.292969-3.25.867188-5.597656 1.28125-6.199219 1.089844-14.808594 2.953126-14.804688 3.210938 0 .433594 11.726563 5.203125 17.824219 7.25 11.53125 3.871094 16.570313 5.710938 27.550781 10.046875 11.976563 4.730469 20.109375 7.753906 20.324219 7.554687.074219-.070312-.085937-.433593-.355469-.8125Zm-30.011718-17.015624c-3.957032-1.085938-7.773438-4.21875-9.394532-7.703126-.605468-1.300781-.75-2.304687-.75-5.183593 0-3.320313.082032-3.730469 1.132813-5.746094 2.1875-4.195313 7.949219-8.410156 12.949219-9.480469 3.582031-.765625 7.832031.273438 9.800781 2.394532 1.378906 1.484374 3.054687 5.792968 3.53125 9.042968.617187 4.25.035156 6.398438-2.394531 8.832032-1.300782 1.300781-2.351563 2.003906-3.429688 2.292968-2.800781.753906-5.414062-.183594-6.117188-2.191406-.300781-.867188-.503906-1.015625-1.132812-.808594-1.433594.472656-5.074219.238282-6.433594-.40625-1.847656-.878906-2.371094-1.78125-2.367187-4.097656 0-5.140625 4.863281-10.097656 9.347656-9.558594 3.8125.457032 5.386719 1.492188 6.054687 3.972656.703126 2.617188-.164062 5.390626-2.414062 7.75-1.308594 1.359376-1.316406 2.003907-.058594 2.789063 1.890625 1.179687 5.042969.105469 6.191406-2.117187 1.644532-3.1875-.417968-11.457032-3.542968-14.207032-2.289063-2.011718-7.125-2.074218-11.042969-.144531-5.160156 2.542969-7.742187 6.074219-7.75 10.609375 0 5.15625 3.285156 9.363281 8.765625 11.207031 2.667969.894531 8.652344 1.390625 9.75.804688.621094-.335938.773438-.320313.773438.074219 0 .273437-.84375.917968-1.878907 1.445312-1.621093.816406-2.300781.945312-4.910156.917969-1.667969 0-3.773437-.234375-4.679687-.488281Zm5.78125-12.011719c.503906-.578125 1.164062-1.054688 1.457031-1.054688.671875 0 1.375-1.46875 1.375-2.863281 0-2.765625-2.886719-5.371094-5.394531-4.871094-1.996094.402344-3.726563 1.804688-4.746094 3.847656-1.152344 2.308594-1.183594 3.5625-.125 4.785157 1.632812 1.90625 5.835937 1.992187 7.433594.15625Zm40.449218 14.191406c1.804688-.765625 2.441406-1.734375 2.648438-4.046875.222656-2.441406-.539063-4.722656-1.675782-5.019531-.390624-.101563-.71875-.339844-.71875-.519531 0-.1875-.914062-.753907-2.03125-1.269532-1.617187-.742187-2.765624-.964844-5.574218-1.101562-3.964844-.1875-6.570313.25-9.449219 1.597656-2.335937 1.101562-3.308594 2.296875-3.308594 4.074219 0 2.386719 2.605469 4.339843 7.566407 5.671875 3.539062.949218 3.882812.996094 7.894531 1.046875 2.253906.039062 3.90625-.117188 4.648437-.433594ZM168.558594 117.5c-1.65625-.316406-2.675782-1.199219-3.523438-3.050781-1.035156-2.253907-.71875-5.246094.738282-7.03125 1.003906-1.230469 1.488281-.523438 1.023437 1.488281-.53125 2.304688.078125 4.1875 2.070313 6.402344.898437 1.003906 1.859374 1.824218 2.136718 1.824218.277344 0 .503906.160157.503906.355469 0 .402344-.945312.402344-2.949218 0Zm17.597656-51.679688c0-1.207031 2.242188-3.335937 4.878906-4.628906 1.507813-.742187 2.800782-1.074218 4.636719-1.191406 2.441406-.164062 2.59375-.125 3.660156.898438 1.238281 1.179687 1.617188 2.449218.40625 1.347656-.601562-.542969-1.125-.609375-3.390625-.4375-3.226562.242187-6.054687 1.433594-8.273437 3.484375-.851563.78125-1.628907 1.421875-1.730469 1.421875-.101562 0-.1875-.40625-.1875-.894532Zm0 0"/>
  </g>
</svg>
